<svg width="529" height="332" viewBox="0 0 529 332" fill="none" xmlns="http://www.w3.org/2000/svg">
<path d="M38.9639 299.263C24.9283 286.963 16.0115 260.439 21.2719 242.194C27.0041 222.374 45.5925 212.464 64.5818 205.702C45.7812 202.35 23.0175 194.597 13.8413 173.436C5.7266 154.695 7.33067 126.044 18.6535 112.636C32.2173 96.547 55.4764 99.9572 76.6359 105.349C63.709 90.8051 48.4939 69.2656 52.858 46.0356C56.4435 26.8862 72.2955 12.1379 87.5578 9.28151C111.925 4.73461 131.363 31.1416 146.389 51.5444C165.072 76.9312 195.502 131.144 182.74 150.643C181.844 152.013 180.759 153.15 179.485 154.112C183.024 158.688 185.099 163.41 185.194 168.219C185.359 175.593 180.759 182.413 173.092 188.243C181.443 190.196 187.741 193.897 190.383 199.989C200.126 222.636 156.438 270.641 113.364 292.093C96.215 300.633 60.7132 318.296 38.9639 299.263Z" fill="white" stroke="#609143" stroke-width="17.5189" stroke-miterlimit="10"/>
<path d="M190.377 200.419C180.613 177.648 120.586 188.081 90.2535 197.898C65.8889 205.811 29.6839 213.577 21.2872 242.824C16.0274 261.169 24.943 287.837 38.9769 300.204C60.7235 319.369 96.2209 301.581 113.368 292.994C156.46 271.426 200.142 223.16 190.377 200.389V200.419Z" fill="#92C272"/>
<path d="M182.716 151.326C195.509 131.734 165.006 77.2622 146.278 51.7543C131.239 31.2541 111.732 4.69186 87.3056 9.28975C72.0068 12.1598 56.1169 27.0077 52.5227 46.2192C46.9423 76.0322 73.3783 103.122 86.1706 116.242C118.258 149.159 169.948 170.918 182.716 151.355V151.326Z" fill="#92C272"/>
<path d="M184.732 169.198C184.191 143.527 126.876 119.634 96.2886 111.641C71.7013 105.223 36.6202 92.1249 18.6209 113.537C7.35071 126.957 5.72724 155.633 13.8211 174.391C26.3618 203.476 64.4074 207.239 82.8067 209.077C128.993 213.657 185.297 194.812 184.756 169.169L184.732 169.198Z" fill="#6AB047"/>
<path d="M482.593 273.362C399.753 290.706 316.939 308.05 234.099 325.393C180.337 336.635 128.546 296.195 121.649 236.66C119.812 220.777 119.252 203.491 120.744 185.038C121.463 176.191 123.38 157.738 129.877 134.759C146.067 77.3264 203.371 47.0188 254.656 68.275C333.449 100.948 412.268 133.65 491.06 166.322C539.097 186.235 533.053 262.793 482.593 273.362Z" fill="#FF8C3E"/>
<mask id="mask0_1304_9167" style="mask-type:luminance" maskUnits="userSpaceOnUse" x="119" y="61" width="405" height="267">
<path d="M482.593 273.362C399.753 290.706 316.939 308.05 234.099 325.393C180.337 336.635 128.546 296.195 121.649 236.66C119.812 220.777 119.252 203.491 120.744 185.038C121.463 176.191 123.38 157.738 129.877 134.759C146.067 77.3265 203.371 47.0188 254.656 68.275C333.449 100.948 412.268 133.65 491.06 166.322C539.097 186.235 533.053 262.793 482.593 273.362Z" fill="white"/>
</mask>
<g mask="url(#mask0_1304_9167)">
<path d="M313.638 92.5095C312.333 90.5824 312.573 88.8305 311.747 88.6553C308.605 87.9838 298.593 111.196 294.465 133.971C292.415 145.27 290.658 162.731 294.359 184.221C300.084 170.001 305.809 155.431 311.481 140.453C317.392 124.919 322.984 109.678 328.336 94.6702C323.144 96.0425 316.567 96.8308 313.638 92.4803V92.5095Z" fill="#CE7E41"/>
<path d="M393.499 120.627C392.141 118.817 392.301 117.27 391.475 117.065C388.386 116.306 379.652 136.511 376.617 156.687C375.125 166.702 374.193 182.206 378.774 201.652C383.726 189.243 388.653 176.512 393.552 163.432C398.611 149.855 403.405 136.511 407.958 123.401C402.952 124.335 396.561 124.686 393.499 120.656V120.627Z" fill="#CE7E41"/>
<path d="M472.984 156.249C472.025 154.964 472.132 153.855 471.546 153.709C469.336 153.154 463.078 167.636 460.921 182.06C459.856 189.214 459.191 200.309 462.466 214.236C466.007 205.36 469.549 196.25 473.037 186.878C476.659 177.184 480.094 167.607 483.342 158.234C479.774 158.906 475.167 159.169 473.011 156.278L472.984 156.249Z" fill="#CE7E41"/>
</g>
<path d="M482.593 273.362C399.753 290.706 316.939 308.05 234.099 325.393C180.337 336.635 128.546 296.195 121.649 236.66C119.812 220.777 119.252 203.491 120.744 185.038C121.463 176.191 123.38 157.738 129.877 134.759C146.067 77.3264 203.371 47.0188 254.656 68.275C333.449 100.948 412.268 133.65 491.06 166.322C539.097 186.235 533.053 262.793 482.593 273.362Z" stroke="#BD693D" stroke-width="8.75943" stroke-miterlimit="10"/>
<path opacity="0.5" d="M246.759 104.597C234.701 95.838 212.072 93.2977 196.51 98.9914L177.151 106.057C161.589 111.751 158.698 123.547 170.786 132.336C172.246 133.387 173.881 134.379 175.604 135.255C188.217 141.591 207.342 142.964 221.036 137.971L240.394 130.905C255.957 125.211 258.847 113.415 246.759 104.627V104.597Z" fill="white"/>
<path opacity="0.5" d="M275.954 121.824C281.808 121.824 286.553 117.079 286.553 111.225C286.553 105.372 281.808 100.626 275.954 100.626C270.101 100.626 265.355 105.372 265.355 111.225C265.355 117.079 270.101 121.824 275.954 121.824Z" fill="white"/>
<path d="M258.817 294.969C216.013 242.383 243.255 166.585 243.255 166.585C243.255 166.585 250.671 289.217 258.817 294.969Z" fill="#CE7E41"/>
<path d="M351.866 278.063C322.872 237.449 346.377 183.023 346.377 183.023C346.377 183.023 346.143 273.479 351.866 278.063Z" fill="#CE7E41"/>
<path d="M447.256 267.056C434.497 239.609 453.592 196.601 453.592 196.601C453.592 196.601 444.395 264.194 447.256 267.056Z" fill="#CE7E41"/>
</svg>
