<svg width="468" height="270" viewBox="0 0 468 270" fill="none" xmlns="http://www.w3.org/2000/svg">
<path d="M63.7794 267.131C45.3582 267.131 33.3558 262.017 28.1041 251.929C24.9903 245.95 23.3504 236.528 23.3605 224.679C23.3705 212.074 26.1272 204.879 28.7933 197.92C30.3778 193.787 31.8719 189.877 32.6767 184.982C35.4585 167.983 27.2389 154.452 18.5414 140.122C9.14971 124.661 -0.558877 108.666 2.42413 86.869C4.11433 74.5179 9.08434 66.2092 11.2071 62.657C16.7305 53.4225 24.0647 45.9065 73.6993 26.3905C95.2393 17.9184 101.608 16.2603 108.514 15.5583C111.382 15.2679 114.304 15.1226 117.192 15.1226C129.808 15.1226 139.32 17.87 143.893 19.1953L144.768 19.4494C153.159 21.8337 162.037 22.9956 171.917 22.9956C193.613 22.9956 215.727 17.3314 237.111 11.8548C256.397 6.91682 274.612 2.25113 290.769 2.25113C302.369 2.25113 311.842 4.68383 319.724 9.6884C320.177 9.97282 320.705 10.3238 321.299 10.7172C326.42 14.0878 337.079 21.0954 348.186 21.0954C350.455 21.0954 352.658 20.7989 354.731 20.218C355.299 20.0606 355.978 19.8428 356.773 19.5947C359.53 18.7293 363.695 17.4161 369.525 16.3511C377.111 14.9713 383.162 14.7958 387.589 14.7958C416.312 14.8019 435.252 14.808 444.538 29.4707C445.363 30.7718 445.554 31.3648 446.183 33.3134C446.675 34.8444 447.5 37.4042 449.226 42.197C455.222 58.899 458.99 66.3061 461.485 71.2138C463.577 75.3228 464.84 77.8039 465.615 82.3243C467.969 96.0794 461.827 106.082 455.886 115.759C449.855 125.58 443.622 135.735 444.99 150.664C445.564 156.885 447.234 161.302 448.713 165.199C450.67 170.355 452.516 175.227 450.368 181.768C447.48 190.567 440.025 194.737 434.039 198.083C429.462 200.643 425.513 202.852 425.462 205.908C425.427 208.219 427.651 210.247 430.226 212.582C433.868 215.893 438.401 220.014 439.18 227.469C440.091 236.189 435.091 242.791 434.874 243.07C431.368 247.621 425.905 249.926 418.626 249.926C415.055 249.926 411.936 249.363 410.256 249.061L409.823 248.982C400.019 247.257 368.172 245.406 321.419 245.406C281.177 245.406 179.734 246.961 107.066 261.382C106.226 261.551 105.33 261.727 104.39 261.92C94.0773 263.996 78.4932 267.131 63.7895 267.131H63.7794Z" fill="white"/>
<path d="M290.763 4.49625C301.186 4.49625 310.663 6.48114 318.848 11.6794C323.33 14.5236 335.317 23.3466 348.18 23.3466C350.489 23.3466 352.823 23.0622 355.152 22.4086C357.707 21.6885 362.37 19.9275 369.8 18.578C377.341 17.2044 383.382 17.047 387.588 17.047H387.638C416.266 17.0531 434.33 17.0591 443.052 30.8384C444.26 32.7446 443.636 32.3089 447.509 43.0987C458.521 73.7736 462.208 73.6163 463.783 82.7843C468.234 108.788 440.281 119.862 443.128 150.918C444.506 165.95 451.926 170.888 448.626 180.945C443.716 195.905 423.741 196.346 423.59 205.871C423.469 213.442 436.07 215.766 437.323 227.754C438.118 235.372 433.736 241.236 433.5 241.545C429.692 246.489 423.701 247.681 418.62 247.681C414.857 247.681 411.593 247.028 410.088 246.761C398.986 244.807 364.881 243.161 321.413 243.161C255.636 243.161 168.39 246.937 106.758 259.167C96.883 261.128 79.6892 264.885 63.7832 264.885C49.0191 264.885 35.3717 261.648 29.6925 250.737C25.2205 242.144 25.2305 227.899 25.2355 224.685C25.2506 204.994 32.3183 198.828 34.5166 185.417C40.5077 148.788 -1.32979 128.195 4.27404 87.2382C5.8586 75.6435 10.5318 67.6495 12.7301 63.9763C18.0371 55.0987 25.643 47.6615 74.2816 28.5327C96.5711 19.7702 102.296 18.451 108.674 17.8035C111.647 17.5009 114.494 17.3738 117.196 17.3738C130.471 17.3738 140.295 20.4843 144.339 21.6341C153.339 24.1938 162.585 25.2407 171.916 25.2407C213.512 25.2407 257.07 4.49625 290.768 4.49625M290.763 0C274.404 0 256.099 4.6899 236.712 9.65211C215.423 15.1045 193.406 20.7445 171.906 20.7445C162.177 20.7445 153.434 19.6068 145.19 17.2588C144.928 17.1862 144.636 17.1015 144.324 17.0107C139.681 15.6673 130.028 12.8776 117.186 12.8776C114.243 12.8776 111.27 13.0288 108.347 13.3254C101.285 14.0394 94.8256 15.7157 73.1045 24.2604C22.9317 43.9882 15.4163 51.7523 9.67664 61.3499C7.66449 64.7085 2.32729 73.6405 0.566661 86.5059C-0.83681 96.7572 0.360431 106.742 4.22878 117.03C7.54379 125.847 12.3629 133.78 17.021 141.453C25.472 155.372 33.4552 168.516 30.8343 184.552C30.0748 189.187 28.626 192.97 27.0917 196.982C24.4709 203.826 21.498 211.584 21.4879 224.679C21.4779 236.946 23.2184 246.779 26.5183 253.121C29.6522 259.143 34.9441 263.548 42.2432 266.205C48.0281 268.311 55.2718 269.376 63.7782 269.376C78.6379 269.376 94.3175 266.223 104.69 264.135C105.631 263.948 106.521 263.766 107.361 263.597C131.527 258.804 200.755 247.651 321.408 247.651C368.07 247.651 399.801 249.497 409.54 251.209L409.973 251.288C411.698 251.596 414.908 252.177 418.615 252.177C426.432 252.177 432.363 249.63 436.236 244.601C436.83 243.826 442.021 236.776 441.025 227.197C440.15 218.803 435.059 214.174 431.342 210.797C429.445 209.079 427.302 207.124 427.317 205.956C427.343 204.304 431.659 201.89 434.813 200.129C441.106 196.607 448.933 192.231 452.092 182.597C454.532 175.166 452.429 169.629 450.402 164.268C448.913 160.346 447.373 156.286 446.835 150.422C445.547 136.37 451.292 127.009 457.379 117.096C463.566 107.02 469.96 96.6059 467.435 81.8705C466.594 76.9688 465.191 74.2154 463.073 70.0399C460.608 65.1926 456.881 57.8643 450.935 41.3074C449.23 36.551 448.41 34.0154 447.917 32.4965C447.268 30.4874 447.001 29.6583 446.015 28.1031C436.171 12.5568 416.859 12.5508 387.633 12.5387H387.583C383.09 12.5387 376.948 12.7202 369.237 14.1242C363.311 15.2013 359.086 16.5326 356.289 17.4101C355.504 17.6582 354.83 17.87 354.297 18.0213C352.36 18.5659 350.303 18.8443 348.175 18.8443C337.546 18.8443 327.173 12.0182 322.188 8.73834C321.584 8.33894 321.046 7.98796 320.588 7.69749C312.429 2.51742 302.67 0 290.758 0H290.763Z" fill="#AD6A6A"/>
<path d="M266.149 7.50378C286.487 3.51586 304.747 2.78363 319.054 11.8669C324.341 15.2194 340.071 26.8927 355.358 22.5962C357.913 21.8761 362.576 20.1151 370.006 18.7656C377.572 17.3859 383.634 17.2346 387.839 17.2346C416.467 17.2406 434.531 17.2467 443.253 31.0259C444.461 32.9321 443.837 32.4964 447.71 43.2862C458.722 73.9612 462.409 73.8038 463.984 82.9718C468.435 108.975 440.482 120.049 443.329 151.105C444.707 166.137 452.127 171.075 448.827 181.133C443.917 196.092 423.942 196.534 423.791 206.053C423.67 213.623 436.271 215.947 437.524 227.935C438.319 235.554 433.937 241.418 433.701 241.726C427.071 250.338 413.831 247.566 410.289 246.943C382.386 242.035 209.316 239.033 106.959 259.348C87.9238 263.124 41.6897 273.593 29.8935 250.919C25.4215 242.325 25.4316 228.08 25.4366 224.867C25.4517 205.175 32.5194 199.009 34.7176 185.599C40.7088 148.969 -1.12873 128.376 4.47509 87.4197C6.05966 75.825 10.7329 67.831 12.9311 64.1578C18.2382 55.2802 25.8441 47.843 74.4826 28.7142C96.7722 19.9517 102.497 18.6325 108.875 17.985C126.431 16.2058 139.671 20.4298 144.54 21.8155C184.381 33.1379 228.784 14.814 266.155 7.49168" fill="#FFF8F9"/>
<mask id="mask0_1304_9135" style="mask-type:luminance" maskUnits="userSpaceOnUse" x="3" y="4" width="462" height="262">
<path d="M266.149 7.50374C286.487 3.51581 304.747 2.78358 319.054 11.8669C324.341 15.2194 340.071 26.8927 355.358 22.5961C357.913 21.876 362.576 20.115 370.006 18.7655C377.572 17.3858 383.634 17.2345 387.839 17.2345C416.467 17.2406 434.531 17.2466 443.253 31.0258C444.461 32.9321 443.837 32.4964 447.71 43.2862C458.722 73.9611 462.409 73.8038 463.984 82.9718C468.435 108.975 440.482 120.049 443.329 151.105C444.707 166.137 452.127 171.075 448.827 181.133C443.917 196.092 423.942 196.534 423.791 206.053C423.67 213.623 436.271 215.947 437.524 227.935C438.319 235.554 433.937 241.418 433.701 241.726C427.071 250.338 413.831 247.566 410.289 246.943C382.386 242.035 209.316 239.033 106.959 259.348C87.9238 263.124 41.6897 273.593 29.8935 250.919C25.4215 242.325 25.4316 228.08 25.4366 224.867C25.4517 205.175 32.5194 199.009 34.7176 185.599C40.7088 148.969 -1.12873 128.376 4.47509 87.4196C6.05966 75.825 10.7329 67.831 12.9311 64.1577C18.2382 55.2802 25.8441 47.8429 74.4826 28.7142C96.7722 19.9516 102.497 18.6324 108.875 17.9849C126.431 16.2058 139.671 20.4297 144.54 21.8155C184.381 33.1378 228.784 14.8139 266.155 7.49163" fill="white"/>
</mask>
<g mask="url(#mask0_1304_9135)">
<path d="M-5.00602 93.1685C-2.12362 97.102 21.3833 66.3846 63.0699 48.1394C89.1322 36.7324 114.857 36.7021 165.237 37.1318C223.086 37.628 280.94 38.1242 338.789 38.6204C346.309 38.687 350.329 36.8534 358.493 35.6855C388.358 31.401 403.505 29.2709 413.907 29.8276C434.094 30.9169 442.254 36.2967 444.059 32.5145C447.43 25.4464 423.375 -2.62042 401.628 -18.5298C348.734 -57.2229 311.439 -22.5661 151.167 -7.73392C118.011 -4.66582 89.7358 -3.3829 57.3353 18.0696C16.7754 44.92 -8.21036 88.7872 -5.00099 93.1685H-5.00602Z" fill="#EDC5C5"/>
<path d="M16.2316 89.3016C19.4159 82.7842 27.0922 82.4029 40.9257 81.5981C106.215 77.8099 114.575 75.8794 147.323 79.4075C148.279 79.5103 148.651 79.5466 149.089 79.595C151.096 79.819 152.57 79.9944 152.605 80.0005C155.92 80.3938 236.717 57.8097 262.141 54.4088C308.858 48.1636 308.757 87.9763 358.07 80.0005C396.326 73.8159 431.86 61.4588 431.86 61.4588C442.238 57.8521 454.411 54.9776 468.552 59.2923C480.524 62.9474 491.631 75.4135 491.118 90.2578C490.69 102.663 482.295 113.023 472.732 117.695C470.106 118.978 456.368 128.503 442.228 122.524C435.311 119.601 433.022 115.045 428.419 110.899C416.125 99.8191 400.345 103.408 371.471 109.556C344.664 115.269 342.767 119.771 323.34 121.266C309.386 122.337 298.641 120.921 288.872 119.571C260.823 115.704 250.948 108.993 236.114 106.034C201.364 99.0869 199.342 124.685 154.838 128.364C105.355 132.455 93.0905 112.206 54.3366 117.617C46.5899 118.7 35.7243 126.518 26.4181 120.303C17.3735 114.264 11.9759 97.9976 16.2216 89.2956L16.2316 89.3016Z" fill="#E57A7A"/>
<path d="M449.246 163.039C391.588 152.346 332.34 154.198 275.225 168.485C228.151 180.261 181.228 200.522 133.369 194.991C114.405 192.8 95.9232 186.579 77.0896 183.118C58.2559 179.656 38.391 179.112 20.7797 187.868C3.16837 196.625 -11.631 216.425 -12.3201 239.33C-12.7879 254.876 -6.79676 269.993 1.93091 281.472C10.6536 292.952 21.9366 301.176 33.5367 308.045C79.7104 335.385 132.544 343.125 183.939 339.918C235.335 336.71 285.834 323.052 336.037 309.442C372.84 299.47 409.642 289.491 446.444 279.518C456.857 276.698 467.949 273.412 475.157 263.947C484.886 251.173 484.343 231.729 483.221 214.458C482.28 200.013 481.174 184.933 474.78 172.649C468.386 160.37 454.915 152.11 443.989 158.198" fill="#DB4F4F"/>
<path d="M19.1349 131.68C36.2231 122.01 51.4752 138.791 86.8235 139.287C102.146 139.499 100.707 136.37 117.695 136.824C141.82 137.471 167.43 144.4 167.279 150.246C167.173 154.41 153.999 157.478 144.934 159.692C134.069 162.349 125.296 162.573 120.628 162.609C104.329 162.742 88.1968 159.807 72.1801 156.885C56.2439 153.974 40.3027 151.063 24.3665 148.158C19.3965 147.251 11.2122 145.913 10.3922 141.919C9.62759 138.222 15.4879 133.75 19.1349 131.68Z" fill="#E57A7A"/>
<path d="M489.163 140.08C488.912 143.057 474.58 145.018 390.281 143.686C345.697 142.984 319.766 141.968 294.569 153.024C291.41 154.41 285.569 157.169 276.978 159.245C255.644 164.407 237.182 160.588 225.24 156.758C230.411 154.682 238.485 151.632 248.521 148.667C282.184 138.724 303.03 140.074 345.783 134.972C356.025 133.75 370.97 131.747 389.134 128.479C424.689 126.246 451.561 126.561 462.19 128.128C469.796 129.247 476.235 132.061 477.196 132.485C481.869 134.561 489.349 137.877 489.163 140.08Z" fill="#DB4F4F"/>
</g>
<path d="M354.93 92.6845C337.088 96.2488 329.245 97.8101 329.321 99.2867C329.401 100.818 337.963 101.647 344.87 101.489C359.976 101.144 371.264 96.0007 374.006 94.8207C404.862 81.5135 444.084 99.8797 444.647 96.6361C445.009 94.5665 429.219 85.8887 409.676 84.0006C401.934 83.2502 398.292 84.0188 354.925 92.6906L354.93 92.6845Z" fill="#FFF8F9"/>
<path d="M100.995 188.51C98.7265 193.581 102.233 198.579 99.5113 202.053C96.2315 206.241 89.0331 201.684 86.9505 205.484C85.2854 208.528 89.2091 212.697 87.5189 216.819C86.1909 220.062 82.6294 220.226 78.9572 221.623C70.7225 224.758 69.8573 231.07 63.5191 236.135C49.424 247.397 29.378 235.627 27.5771 241.884C27.1143 243.493 28.1657 245.218 28.4323 245.66C30.9827 249.86 37.6781 248.189 51.8385 244.97C75.9943 239.481 78.2379 239.397 85.8086 236.383C92.9417 233.545 92.831 232.879 99.2648 230.61C102.957 229.309 113.521 225.823 123.989 225.266C137.737 224.534 139.266 229.442 155.746 231.917C159.337 232.456 177.256 234.925 198.443 228.117C212.503 223.602 225.391 215.844 224.868 213.781C224.219 211.239 203.866 219.82 172.542 219.39C172.542 219.39 161.028 219.233 143.758 214.404C127.596 209.884 124.009 205.871 122.721 201.92C120.433 194.876 125.448 189.351 122.636 184.873C118.828 178.815 104.481 180.728 101 188.498L100.995 188.51Z" fill="#FFF8F9"/>
<path d="M365.252 211.663C376.802 210.676 393.01 207.142 403.951 218.773C405.012 219.905 409.172 224.328 408.252 227.179C405.792 234.785 369.473 224.201 358.803 221.357C328.847 213.369 282.578 208.11 211.861 221.115C213.365 218.21 215.901 214.289 219.965 211.614C225.287 208.104 230.579 208.48 232.3 208.564C250.716 209.472 269.791 197.714 307.202 200.026C343.159 202.247 338.797 213.92 365.252 211.663Z" fill="#FFF8F9"/>
<path d="M366.484 210.616C365.764 209.527 368.385 208.098 368.732 207.959C369.944 207.487 371.117 207.53 372.369 207.608C375.558 207.814 378.717 207.911 381.907 207.584C386.444 207.124 390.896 205.999 395.469 206.495C406.777 207.717 417.934 214.737 426.415 223.596C429.127 226.428 433.106 221.678 430.379 218.828C420.082 208.062 405.917 199.209 391.967 199.614C385.519 199.802 379.346 201.387 372.842 200.903C369.467 200.655 365.664 201.163 363.123 204.183C360.583 207.203 360.251 211.941 362.525 215.378C364.798 218.816 368.712 213.974 366.489 210.61L366.484 210.616Z" fill="#FFF8F9"/>
<g opacity="0.71">
<path d="M79.257 40.1636C102.749 32.684 127.176 30.6023 151.317 33.9185C154.894 34.4087 154.863 27.6613 151.317 27.1772C126.708 23.8004 101.708 26.0395 77.7681 33.6644C74.282 34.7718 75.7609 41.2771 79.257 40.1697V40.1636Z" fill="white"/>
</g>
<g opacity="0.71">
<path d="M57.7213 47.1228C59.4266 46.1969 61.1269 45.265 62.8321 44.3391C64.2105 43.5888 64.5475 41.1803 63.8382 39.7279C63.0082 38.0214 61.3884 37.7612 60.0051 38.5176C58.2998 39.4435 56.5995 40.3754 54.8942 41.3013C53.5159 42.0517 53.1789 44.4602 53.8881 45.9125C54.7182 47.619 56.3379 47.8793 57.7213 47.1228Z" fill="white"/>
</g>
<g opacity="0.71">
<path d="M132.783 89.7011C146.355 94.2215 160.862 93.6103 174.102 87.813C177.468 86.3425 176.014 79.819 172.613 81.3077C160.254 86.7177 146.953 87.4197 134.272 83.1957C130.791 82.0338 129.307 88.5392 132.783 89.7011Z" fill="white"/>
</g>
<g opacity="0.71">
<path d="M123.392 80.4969C122.833 80.5574 122.275 80.6179 121.717 80.6845C120.313 80.8418 119.161 81.8524 118.965 83.6073C118.799 85.1021 119.594 87.0567 120.972 87.3048C121.817 87.4561 122.662 87.6134 123.507 87.7647C124.282 87.9039 124.966 87.9221 125.666 87.4258C126.249 87.0143 126.802 86.2155 126.953 85.4107C127.114 84.5453 127.079 83.5771 126.672 82.8146C126.304 82.1247 125.701 81.3925 124.997 81.2654C124.151 81.1141 123.306 80.9568 122.461 80.8055L121.717 87.4258C122.275 87.3653 122.833 87.3048 123.392 87.2382C124.151 87.1535 124.82 86.9175 125.374 86.2518C125.862 85.6648 126.224 84.7087 126.194 83.8676C126.133 82.1792 124.956 80.3214 123.392 80.4969Z" fill="white"/>
</g>
<g opacity="0.71">
<path d="M91.3984 246.332C101.897 239.385 113.602 235.784 125.585 235.772C129.191 235.772 129.196 229.024 125.585 229.03C112.626 229.043 99.9248 232.994 88.5713 240.51C85.4072 242.604 88.2343 248.425 91.3984 246.332Z" fill="white"/>
</g>
<g opacity="0.71">
<path d="M79.5423 244.214C78.4959 243.826 77.4446 243.439 76.3983 243.052L75.6537 249.672C77.1628 249.618 78.6669 249.569 80.176 249.515C81.6851 249.46 83.0484 248.002 82.978 246.144C82.9075 244.286 81.7455 242.719 80.176 242.773C78.6065 242.828 77.1628 242.876 75.6537 242.931C72.4846 243.04 71.8608 248.425 74.9092 249.551C75.9556 249.938 77.0069 250.326 78.0532 250.713C79.4567 251.233 81.172 250.096 81.499 248.359C81.8461 246.531 81.0413 244.764 79.5423 244.214Z" fill="white"/>
</g>
</svg>
