<svg width="424" height="419" viewBox="0 0 424 419" fill="none" xmlns="http://www.w3.org/2000/svg">
<path d="M174.306 13.6587L172.967 27.271C172.93 27.6486 172.879 28.0335 172.805 28.4036C168.559 50.2543 152.847 67.997 131.781 75.2509C55.4134 101.543 1.57031 164.963 1.57031 239.043C1.57031 336.668 95.0764 415.803 210.426 415.803C325.776 415.803 419.282 336.661 419.282 239.043C419.282 162.084 361.17 96.6206 280.062 72.3493C259.75 66.2723 244.097 50.0248 238.387 29.6249C238.276 29.2178 238.18 28.8033 238.113 28.3814L235.443 12.5928C234.489 6.94511 229.577 2.82218 223.852 2.8666L185.838 3.13307C179.869 3.17748 174.891 7.72232 174.306 13.6661V13.6587Z" fill="#FEFFF3"/>
<path d="M204.064 224.846C284.44 224.846 354.327 194.261 390.003 149.256C365.245 113.793 326.27 86.2799 279.706 72.3493C259.394 66.2722 243.741 50.0248 238.031 29.6249C237.92 29.2177 237.824 28.8032 237.757 28.3813L235.087 12.5928C234.133 6.94508 229.221 2.82215 223.496 2.86657L185.482 3.13304C179.513 3.17745 174.535 7.72229 173.95 13.6661L172.611 27.2784C172.574 27.6559 172.523 28.0408 172.449 28.4109C168.203 50.2617 152.491 68.0043 131.425 75.2583C85.5111 91.069 47.7418 120.3 24.9219 157.199C62.24 197.821 128.51 224.846 204.064 224.846Z" fill="url(#paint0_linear_1304_9189)"/>
<path d="M1.57031 239.043C1.57031 336.668 95.0764 415.803 210.426 415.803C325.776 415.803 419.282 336.661 419.282 239.043C419.282 237.525 419.252 236.008 419.208 234.498H1.64428C1.5999 236.008 1.57031 237.525 1.57031 239.043Z" fill="url(#paint1_linear_1304_9189)"/>
<path d="M207.505 155.948C259.506 155.948 302.668 124.941 311.004 84.2517C301.055 79.5959 290.611 75.5988 279.752 72.3493C259.439 66.2722 243.787 50.0248 238.077 29.6249C237.966 29.2177 237.87 28.8032 237.803 28.3813L235.133 12.5928C234.179 6.94508 229.267 2.82215 223.542 2.86657L185.528 3.13304C179.559 3.17745 174.58 7.72229 173.996 13.6661L172.657 27.2784C172.62 27.6559 172.568 28.0408 172.495 28.4109C168.249 50.2617 152.537 68.0043 131.47 75.2583C122.128 78.4782 113.126 82.2532 104.516 86.539C113.969 126.103 156.48 155.955 207.505 155.955V155.948Z" fill="url(#paint2_linear_1304_9189)"/>
<path opacity="0.27" d="M202.63 8.02576C203.392 22.3931 203.614 44.91 199.471 71.9126C192.067 120.189 177.539 138.323 169.558 181.411C163.263 215.401 165.437 241.16 167.982 271.212C170.852 305.106 179.196 357.231 205.581 417.039" stroke="#70B246" stroke-width="5.7176" stroke-miterlimit="10"/>
<path opacity="0.27" d="M185.144 12.6964C183.006 29.0179 177.458 53.5038 160.741 76.5018C131.138 117.228 93.7978 117.08 64.6978 156.066C42.4845 185.822 39.9177 218.672 38.7194 234.054C30.4865 339.473 140.429 403.412 145.769 406.935" stroke="#70B246" stroke-width="5.7176" stroke-miterlimit="10"/>
<path opacity="0.27" d="M193.111 13.9992C193.252 54.7325 181.483 79.1222 170.979 93.7485C155.571 115.192 140.178 119.404 120.598 147.317C120.598 147.317 104.976 169.582 95.4038 200.093C79.6851 250.227 105.834 328.748 171.623 412.539" stroke="#70B246" stroke-width="5.7176" stroke-miterlimit="10"/>
<path opacity="0.27" d="M212.068 8.11462C214.413 22.2821 218.201 44.577 223.245 71.92C233.549 127.731 237.499 141.603 241.198 168.028C242.899 180.167 248.166 220.841 245.925 269.65C244.297 305.091 238.158 356.616 217.135 417.054" stroke="#70B246" stroke-width="5.7176" stroke-miterlimit="10"/>
<path opacity="0.27" d="M226.301 13.2146C227.595 20.6536 230.332 32.26 236.812 45.0729C244.867 61.0094 254.831 71.1354 260.164 76.3464C299.051 114.341 333.262 126.673 356.208 155.911C378.295 184.061 380.81 216.252 382.186 233.898C390.419 339.318 284.908 405.159 279.567 408.69" stroke="#70B246" stroke-width="5.7176" stroke-miterlimit="10"/>
<path opacity="0.27" d="M220.441 9.19531C224.088 29.5731 231.899 59.5364 250.792 90.8248C265.452 115.111 276.126 122.542 289.138 142.483C318.142 186.947 320.065 234.32 320.694 249.946C324.37 340.635 272.62 397.194 259.49 411.014" stroke="#70B246" stroke-width="5.7176" stroke-miterlimit="10"/>
<g style="mix-blend-mode:overlay" opacity="0.18">
<path d="M202.577 8.09982C203.339 22.4671 203.561 44.9841 199.418 71.9866C192.014 120.263 177.486 138.398 169.505 181.485C163.21 215.475 165.385 241.234 167.929 271.286C170.799 305.18 180.268 352.664 206.653 412.472" stroke="black" stroke-width="5.7176" stroke-miterlimit="10"/>
</g>
<g style="mix-blend-mode:overlay" opacity="0.18">
<path d="M185.046 12.5336C182.908 28.855 177.36 53.3409 160.643 76.339C131.04 117.065 93.6998 116.917 64.5999 155.903C42.3865 185.659 39.8197 218.51 38.6214 233.891C30.3885 339.31 143.038 403.479 148.379 407.009" stroke="black" stroke-width="5.7176" stroke-miterlimit="10"/>
</g>
<g style="mix-blend-mode:overlay" opacity="0.18">
<path d="M193.014 13.9252C193.154 54.6585 181.385 79.0481 170.882 93.6745C155.474 115.118 140.08 119.33 120.5 147.243C120.5 147.243 104.878 169.508 95.3059 200.019C79.5872 250.153 106.416 329.096 172.206 412.887" stroke="black" stroke-width="5.7176" stroke-miterlimit="10"/>
</g>
<g style="mix-blend-mode:overlay" opacity="0.18">
<path d="M212.008 8.18121C214.353 22.3487 218.14 44.6436 223.185 71.9866C233.489 127.798 237.439 141.669 241.137 168.094C242.839 180.234 248.105 220.908 245.864 269.717C244.237 305.158 239.318 352.945 218.295 413.382" stroke="black" stroke-width="5.7176" stroke-miterlimit="10"/>
</g>
<g style="mix-blend-mode:overlay" opacity="0.18">
<path d="M226.123 13.2146C227.418 20.6536 230.154 32.26 236.634 45.0729C244.69 61.0094 254.653 71.1354 259.987 76.3464C298.873 114.341 333.084 126.673 356.03 155.911C378.118 184.061 380.633 216.252 382.008 233.898C390.241 339.318 285.403 402.346 280.062 405.877" stroke="black" stroke-width="5.7176" stroke-miterlimit="10"/>
</g>
<g style="mix-blend-mode:overlay" opacity="0.18">
<path d="M220.391 9.26929C224.037 29.647 231.849 59.6104 250.741 90.8987C265.402 115.185 276.076 122.616 289.087 142.557C318.091 187.021 320.014 234.394 320.643 250.02C324.319 340.709 272.85 394.87 259.721 408.69" stroke="black" stroke-width="5.7176" stroke-miterlimit="10"/>
</g>
<path d="M420.556 239.021C420.556 238.11 420.541 237.207 420.526 236.297C419.165 160.53 361.483 96.3244 281.336 72.3419C261.024 66.2648 245.372 50.0174 239.661 29.6174C239.55 29.2103 239.454 28.7958 239.387 28.3739L236.717 12.5854C235.763 6.93766 230.851 2.81474 225.126 2.85915H224.867C224.867 2.85915 224.837 2.85915 224.823 2.85915H224.786L186.772 3.12562C180.803 3.17004 175.825 7.71487 175.24 13.6587L173.901 27.271C173.864 27.6485 173.813 28.0334 173.739 28.4035C169.493 50.2543 153.781 67.9969 132.715 75.2509C86.8011 91.0616 49.0318 120.292 26.2119 157.191C26.2784 157.265 26.3524 157.339 26.419 157.413C11.8172 181.1 3.37717 207.932 2.88896 236.4C2.87417 237.274 2.85938 238.155 2.85938 239.035C2.85938 336.661 96.3655 415.796 211.715 415.796C327.065 415.796 420.571 336.653 420.571 239.035V239.021H420.556Z" stroke="#6C8959" stroke-width="5.7176" stroke-miterlimit="10"/>
<defs>
<linearGradient id="paint0_linear_1304_9189" x1="202.88" y1="227.481" x2="214.665" y2="36.7836" gradientUnits="userSpaceOnUse">
<stop stop-color="white"/>
<stop offset="0.84" stop-color="#E8F7C4"/>
</linearGradient>
<linearGradient id="paint1_linear_1304_9189" x1="209.427" y1="270.087" x2="204.694" y2="416.713" gradientUnits="userSpaceOnUse">
<stop stop-color="white"/>
<stop offset="0.84" stop-color="#E8F7C4"/>
</linearGradient>
<linearGradient id="paint2_linear_1304_9189" x1="207.756" y1="35.9758" x2="207.756" y2="124.719" gradientUnits="userSpaceOnUse">
<stop stop-color="#67C73C"/>
<stop offset="0.3" stop-color="#98D974"/>
<stop offset="0.62" stop-color="#C9EAAB"/>
<stop offset="0.87" stop-color="#E7F5CD"/>
<stop offset="1" stop-color="#F3FADB"/>
</linearGradient>
</defs>
</svg>
