<svg width="627" height="283" viewBox="0 0 627 283" fill="none" xmlns="http://www.w3.org/2000/svg">
<path d="M323.724 281.561C318.417 281.561 312.954 281.513 307.467 281.429C162.99 279.113 123.94 257.598 74.6278 212.459C63.4966 202.28 53.2458 193.597 44.213 185.927C15.402 161.542 -1.98825 146.805 0.930233 124.398C3.36632 105.657 29.6206 11.6021 307.491 0.603516H307.817C319.889 0.603516 603.837 2.01451 625.448 124.422C625.448 124.639 626.57 153.655 589.643 181.923C570.6 196.503 560.627 206.754 552.619 215.003C544.527 223.324 538.135 229.897 525.991 237.688L524.942 238.363C501.437 253.462 457.684 281.561 323.736 281.561H323.724Z" fill="#EFEFEF"/>
<path d="M307.806 1.20598C315.814 1.20598 388.161 1.6522 462.775 17.1853C506.19 26.2181 541.646 38.6156 568.129 54.016C600.824 73.0343 619.902 96.7319 624.823 124.457C624.847 125.205 624.931 132.212 620.952 142.27C617.068 152.05 608.421 166.787 589.258 181.452C570.18 196.057 560.194 206.332 552.162 214.581C544.094 222.878 537.727 229.426 525.643 237.181L524.593 237.856C501.137 252.919 457.48 280.958 323.713 280.958C318.419 280.958 312.955 280.91 307.468 280.825C236.11 279.68 188.45 273.734 152.922 261.517C117.731 249.421 95.9871 231.199 75.0271 212.012C63.8959 201.821 53.633 193.138 44.5881 185.468C15.946 161.204 -1.34779 146.563 1.52245 124.482C3.00581 113.097 11.4597 83.6349 57.8057 55.9094C81.8891 41.5099 112.859 29.6913 149.87 20.7791C193.853 10.1906 246.892 3.60589 307.468 1.20598H307.806ZM307.806 0C307.577 0 307.456 0 307.456 0C45.7097 10.3594 4.21179 94.5249 0.328524 124.325C-3.55474 154.125 27.3425 170.007 74.2191 212.916C121.096 255.825 158.445 279.655 307.456 282.043C313.028 282.128 318.443 282.176 323.725 282.176C459.82 282.176 502.584 253.425 526.306 238.206C550.944 222.395 552.343 211.24 589.994 182.417C627.645 153.594 626.029 124.337 626.029 124.337C604.309 1.21805 319.118 0 307.806 0Z" fill="black"/>
<path d="M597.931 153.943C597.654 151.181 596.146 148.853 594.024 147.406C594.409 146.236 594.566 144.982 594.434 143.68C594.012 139.507 590.792 136.311 586.836 135.72C585.871 131.716 582.265 128.858 578.117 128.87C578.117 128.569 578.105 128.267 578.068 127.966C577.574 123.033 573.16 119.44 568.228 119.934C567.926 119.97 567.625 120.006 567.335 120.067C566.165 117.703 563.995 115.954 561.426 115.327C561.498 114.676 561.522 114.013 561.45 113.337C560.98 108.682 557.024 105.221 552.429 105.269C552.526 104.582 552.55 103.882 552.477 103.159C552.079 99.1911 549.149 96.0917 545.447 95.2958C545.676 94.3551 545.748 93.3541 545.652 92.329C545.157 87.3966 540.743 83.8027 535.811 84.2972C535.75 84.2972 535.69 84.3213 535.63 84.3213C534.725 79.8471 530.565 76.6995 525.922 77.1698C524.8 77.2784 523.751 77.604 522.798 78.0864C522.159 77.7608 521.496 77.5196 520.784 77.3628C520.905 76.603 520.941 75.8191 520.869 75.0111C520.374 70.0787 515.96 66.4848 511.028 66.9793C509.786 67.0999 508.616 67.4858 507.591 68.0526C505.878 65.0979 502.55 63.2528 498.92 63.6146C497.617 63.7472 496.411 64.1573 495.35 64.7723C494.687 60.0208 490.381 56.6078 485.57 57.0902C485.449 57.1023 485.316 57.1264 485.196 57.1505C485.328 56.3787 485.365 55.5707 485.28 54.7506C484.822 50.1799 480.999 46.767 476.513 46.6826C475.934 41.8345 471.58 38.3251 466.696 38.8196C464.983 38.9884 463.44 39.6396 462.173 40.6165C460.425 39.2899 458.194 38.5784 455.842 38.8196C453.273 39.0849 451.078 40.3994 449.631 42.2928C447.931 39.2658 444.566 37.3724 440.888 37.7463C438.669 37.9754 436.715 38.9884 435.292 40.4959C435.63 39.4829 435.774 38.4216 435.666 37.3242C435.171 32.3917 429.865 28.8823 423.823 29.4973C419.94 29.8953 416.696 31.8972 415.02 34.5866C415.068 34.0801 415.092 33.5736 415.032 33.067C414.537 28.1346 409.231 24.6252 403.189 25.2402C400.897 25.4693 398.835 26.2653 397.183 27.423C395.036 24.8543 391.262 23.3468 387.137 23.7689C385.618 23.9257 384.195 24.3237 382.928 24.9146C380.987 23.9739 378.635 23.5157 376.163 23.7689C374.595 23.9257 373.124 24.3598 371.821 24.9749C369.843 21.9117 365.719 20.0304 361.172 20.5007C358.941 20.7298 356.939 21.4775 355.299 22.587C353.201 19.8495 349.305 18.2093 345.024 18.6435C343.722 18.7761 342.504 19.1018 341.382 19.56C339.236 17.0154 335.473 15.5321 331.373 15.9421C327.32 16.3521 323.968 18.5108 322.352 21.3811C320.675 17.7631 316.189 15.4356 311.172 15.9421C306.638 16.4004 302.984 19.0415 301.645 22.4182C299.836 19.8736 296.749 18.342 293.42 18.6797C291.129 18.9088 289.139 19.9821 287.704 21.562C285.919 18.8726 282.747 17.2325 279.31 17.5822C277.272 17.7872 275.463 18.6676 274.076 19.9701C272.46 18.9691 270.507 18.4746 268.468 18.6797C265.381 18.9932 262.812 20.8384 261.45 23.383C260.087 22.5388 258.483 22.0444 256.758 22.0444C254.636 22.0444 252.694 22.78 251.163 24.0101C249.643 20.5369 246.013 18.2696 242.033 18.6676C239.621 18.9088 237.535 20.0907 236.088 21.8032C234.243 19.6203 231.384 18.3541 228.333 18.6676C223.413 19.1621 219.831 23.5398 220.301 28.4481C219.144 27.9054 217.865 27.5919 216.503 27.5919C214.935 27.5919 213.452 28.0019 212.161 28.7134C210.557 27.7366 208.628 27.2542 206.614 27.4592C203.177 27.809 200.391 30.0521 199.185 33.055C198.389 33.2841 197.653 33.6218 196.966 34.0559C195.121 31.9696 192.335 30.7757 189.344 31.0772C185.774 31.439 182.916 33.8389 181.794 37.0106C180.938 36.7332 180.022 36.5885 179.081 36.5885C175.077 36.5885 171.688 39.2055 170.531 42.8234C168.89 41.0868 166.587 40.0014 164.006 40.0014C159.218 40.0014 155.311 43.7521 155.058 48.4795C152.598 49.4925 150.258 50.59 148.099 51.6995C146.471 50.0232 144.192 48.974 141.671 48.974C136.715 48.974 132.699 52.9899 132.699 57.9465C132.699 58.5133 132.759 59.068 132.856 59.5987C126.199 56.5234 123.618 61.7212 122.641 66.8346C121.616 66.4245 120.506 66.1954 119.337 66.1954C115.393 66.1954 112.052 68.74 110.846 72.2856C102.019 72.3218 95.9767 77.3025 92.3105 81.8249C91.5628 81.6199 90.791 81.5114 89.983 81.5114C85.147 81.5114 81.2155 85.3464 81.0225 90.1342C74.7273 92.0517 71.7003 95.9711 70.2772 99.6373C69.3486 99.4202 68.3597 99.3479 67.3587 99.4443C62.7278 99.9147 59.2786 103.822 59.2907 108.381C54.3341 108.381 50.3182 112.397 50.3182 117.353C50.3182 117.944 50.3785 118.535 50.487 119.09C49.3413 118.716 48.0992 118.571 46.8208 118.692C42.7446 119.102 39.597 122.177 38.8975 126.012C35.3519 127.411 32.9882 130.981 33.2535 134.948C32.8073 135.865 32.5179 136.866 32.4093 137.927C29.31 139.604 27.3683 143.017 27.7422 146.731C27.9351 148.6 28.6829 150.277 29.8044 151.603C29.7682 152.134 29.7562 152.664 29.8044 153.207C30.13 156.463 32.1681 159.116 34.9178 160.419C35.0384 160.757 35.1107 160.949 35.1107 160.949C97.9786 235.214 310.376 235.286 310.376 235.286C532.928 245.236 592.564 164.362 592.564 164.362C592.601 163.892 592.613 163.446 592.625 162.988C596.062 161.444 598.293 157.838 597.883 153.894L597.931 153.943Z" fill="white" stroke="#7C7C7C" stroke-width="1.20748" stroke-linecap="round" stroke-linejoin="round"/>
<path d="M192.276 77.0741C192.445 76.2419 194.194 68.3789 200.224 66.9559C206.254 65.5328 211.343 71.7919 211.862 72.4552" stroke="#7A7A7A" stroke-width="3.21996" stroke-miterlimit="10" stroke-linecap="round"/>
<path d="M255.071 115.701C255.409 114.929 258.786 107.608 264.984 107.488C271.183 107.367 274.825 114.555 275.199 115.315" stroke="#7A7A7A" stroke-width="3.21996" stroke-miterlimit="10" stroke-linecap="round"/>
<path d="M498.633 150.587C499.139 149.912 504.096 143.545 510.15 144.847C516.204 146.149 518.134 153.964 518.314 154.784" stroke="#7A7A7A" stroke-width="4.82993" stroke-miterlimit="10" stroke-linecap="round"/>
<path d="M442.601 94.4742C443.107 93.7988 448.064 87.4313 454.118 88.7337C460.172 90.0362 462.101 97.851 462.282 98.671" stroke="#7A7A7A" stroke-width="4.82993" stroke-miterlimit="10" stroke-linecap="round"/>
<path d="M358.895 180.789C359.401 180.113 364.358 173.746 370.412 175.048C376.466 176.351 378.395 184.165 378.576 184.985" stroke="#7A7A7A" stroke-width="4.82993" stroke-miterlimit="10" stroke-linecap="round"/>
<path d="M378.577 126.892C379.084 126.217 384.04 119.849 390.094 121.152C396.148 122.454 398.078 130.269 398.259 131.089" stroke="#7A7A7A" stroke-width="4.82993" stroke-miterlimit="10" stroke-linecap="round"/>
<path d="M446.206 198.324C446.713 197.648 451.669 191.281 457.723 192.583C463.777 193.886 465.707 201.701 465.888 202.521" stroke="#7A7A7A" stroke-width="4.82993" stroke-miterlimit="10" stroke-linecap="round"/>
<path d="M277.405 201.566C277.743 200.794 281.12 193.474 287.318 193.353C293.517 193.232 297.159 200.42 297.533 201.18" stroke="#7A7A7A" stroke-width="3.21996" stroke-miterlimit="10" stroke-linecap="round"/>
<path d="M206.267 161.132C206.604 160.36 209.981 153.04 216.168 152.919C222.354 152.799 226.021 159.987 226.382 160.746" stroke="#7A7A7A" stroke-width="3.21996" stroke-miterlimit="10" stroke-linecap="round"/>
<path d="M137.465 120.717C137.561 119.873 138.598 111.889 144.472 109.924C150.345 107.958 155.977 113.735 156.556 114.35" stroke="#7A7A7A" stroke-width="3.21996" stroke-miterlimit="10" stroke-linecap="round"/>
<path d="M106.41 177.123C106.627 176.303 108.786 168.536 114.888 167.439C120.99 166.341 125.73 172.854 126.224 173.541" stroke="#7A7A7A" stroke-width="3.21996" stroke-miterlimit="10" stroke-linecap="round"/>
<mask id="mask0_40000059_12409" style="mask-type:luminance" maskUnits="userSpaceOnUse" x="301" y="11" width="310" height="227">
<path d="M301.672 21.9966C301.672 21.9966 302.926 38.3738 304.385 61.6493C305.845 84.9248 297.837 88.5066 314.443 111.203C331.05 133.9 332.991 139.399 331.062 158.707C329.132 178.015 333.486 192.185 346.088 202.074C358.691 211.963 379.434 227.52 378.577 235.745C377.721 243.97 640.469 214.206 607.135 119.416C573.802 24.6256 305.23 -7.10377 301.672 21.9966Z" fill="white"/>
</mask>
<g mask="url(#mask0_40000059_12409)">
<path d="M597.932 153.509C597.655 150.747 596.147 148.42 594.025 146.973C594.41 145.803 594.567 144.549 594.435 143.246C594.012 139.074 590.793 135.878 586.837 135.287C585.872 131.283 582.266 128.425 578.118 128.437C578.118 128.135 578.106 127.834 578.069 127.532C577.575 122.6 573.161 119.006 568.229 119.5C567.927 119.537 567.626 119.573 567.336 119.633C566.166 117.269 563.996 115.521 561.427 114.894C561.499 114.242 561.523 113.579 561.451 112.904C560.981 108.249 557.025 104.787 552.43 104.836C552.527 104.148 552.551 103.449 552.478 102.725C552.08 98.7575 549.15 95.6581 545.448 94.8622C545.677 93.9215 545.749 92.9205 545.653 91.8954C545.158 86.963 540.744 83.3692 535.812 83.8636C535.751 83.8636 535.691 83.8877 535.631 83.8877C534.726 79.4135 530.566 76.2659 525.923 76.7362C524.801 76.8448 523.752 77.1704 522.799 77.6528C522.16 77.3272 521.497 77.086 520.785 76.9292C520.906 76.1694 520.942 75.3855 520.87 74.5775C520.375 69.6451 515.961 66.0512 511.029 66.5457C509.787 66.6663 508.617 67.0522 507.592 67.619C505.879 64.6644 502.551 62.8192 498.921 63.181C497.618 63.3137 496.412 63.7237 495.351 64.3387C494.688 59.5872 490.382 56.1742 485.571 56.6566C485.45 56.6687 485.317 56.6928 485.197 56.7169C485.329 55.9451 485.366 55.1371 485.281 54.317C484.823 49.7463 481 46.3334 476.514 46.249C475.935 41.4009 471.581 37.8915 466.697 38.386C464.984 38.5548 463.441 39.2061 462.174 40.1829C460.426 38.8563 458.195 38.1448 455.843 38.386C453.274 38.6513 451.079 39.9658 449.632 41.8592C447.932 38.8322 444.567 36.9388 440.889 37.3127C438.67 37.5418 436.716 38.5548 435.293 40.0623C435.631 39.0493 435.775 37.988 435.667 36.8906C435.172 31.9581 429.866 28.4487 423.824 29.0637C419.941 29.4617 416.697 31.4636 415.021 34.153C415.069 33.6465 415.093 33.14 415.033 32.6334C414.538 27.701 409.232 24.1916 403.19 24.8066C400.898 25.0358 398.836 25.8317 397.184 26.9894C395.037 24.4207 391.263 22.9132 387.138 23.3353C385.619 23.4921 384.196 23.8901 382.929 24.481C380.988 23.5403 378.636 23.0821 376.164 23.3353C374.596 23.4921 373.125 23.9263 371.822 24.5413C369.844 21.4781 365.72 19.5968 361.173 20.0671C358.942 20.2962 356.94 21.044 355.3 22.1535C353.202 19.4159 349.306 17.7757 345.025 18.2099C343.723 18.3426 342.505 18.6682 341.383 19.1264C339.237 16.5818 335.474 15.0985 331.373 15.5085C327.321 15.9185 323.969 18.0772 322.353 20.9475C320.676 17.3295 316.19 15.002 311.173 15.5085C306.639 15.9668 302.985 18.6079 301.646 21.9846C299.837 19.44 296.75 17.9084 293.421 18.2461C291.13 18.4752 289.14 19.5485 287.705 21.1284C285.92 18.439 282.748 16.7989 279.311 17.1486C277.273 17.3536 275.464 18.234 274.077 19.5365C272.461 18.5355 270.508 18.0411 268.469 18.2461C265.382 18.5596 262.813 20.4048 261.451 22.9494C260.088 22.1052 258.484 21.6108 256.759 21.6108C254.637 21.6108 252.695 22.3464 251.164 23.5765C249.644 20.1033 246.014 17.836 242.034 18.234C239.622 18.4752 237.536 19.6571 236.089 21.3696C234.244 19.1867 231.385 17.9205 228.334 18.234C223.414 18.7285 219.832 23.1062 220.302 28.0145C219.145 27.4718 217.866 27.1583 216.504 27.1583C214.936 27.1583 213.452 27.5683 212.162 28.2799C210.558 27.303 208.629 26.8206 206.615 27.0256C203.178 27.3754 200.392 29.6185 199.186 32.6214C198.39 32.8505 197.654 33.1882 196.967 33.6224C195.122 31.536 192.336 30.3421 189.345 30.6436C185.775 31.0054 182.917 33.4053 181.795 36.577C180.939 36.2996 180.023 36.1549 179.082 36.1549C175.078 36.1549 171.689 38.7719 170.532 42.3899C168.891 40.6532 166.588 39.5679 164.007 39.5679C159.219 39.5679 155.312 43.3185 155.059 48.0459C152.599 49.0589 150.259 50.1564 148.1 51.2659C146.472 49.5896 144.193 48.5404 141.672 48.5404C136.716 48.5404 132.7 52.5563 132.7 57.5129C132.7 58.0797 132.76 58.6344 132.857 59.1651C126.2 56.0898 123.619 61.2876 122.642 66.401C121.617 65.9909 120.507 65.7618 119.338 65.7618C115.394 65.7618 112.053 68.3064 110.847 71.852C102.02 71.8882 95.9777 76.8689 92.3115 81.3913C91.5638 81.1863 90.792 81.0778 89.9839 81.0778C85.148 81.0778 81.2165 84.9128 81.0235 89.7006C74.7283 91.6181 71.7012 95.5375 70.2782 99.2037C69.3496 98.9866 68.3607 98.9143 67.3597 99.0108C62.7287 99.4811 59.2796 103.388 59.2917 107.947C54.3351 107.947 50.3192 111.963 50.3192 116.92C50.3192 117.511 50.3795 118.101 50.488 118.656C49.3423 118.282 48.1002 118.138 46.8218 118.258C42.7456 118.668 39.598 121.744 38.8985 125.579C35.3529 126.977 32.9892 130.547 33.2545 134.515C32.8083 135.431 32.5189 136.432 32.4103 137.494C29.3109 139.17 27.3693 142.583 27.7432 146.297C27.9361 148.167 28.6838 149.843 29.8054 151.17C29.7692 151.7 29.7572 152.231 29.8054 152.773C30.131 156.03 32.1691 158.683 34.9188 159.985C35.0394 160.323 35.1117 160.516 35.1117 160.516C97.9796 234.78 310.377 234.853 310.377 234.853C532.929 244.802 592.565 163.929 592.565 163.929C592.602 163.458 592.614 163.012 592.626 162.554C596.063 161.01 598.294 157.404 597.884 153.461L597.932 153.509Z" fill="#A07644" stroke="#3F1F00" stroke-width="1.20748" stroke-linecap="round" stroke-linejoin="round"/>
</g>
<path opacity="0.2" d="M396.486 71.1768C398.946 76.0973 404.228 79.2328 410.258 78.5454C415.456 77.9545 421.655 75.1928 427.648 67.4745C437.393 54.9202 428.288 49.9154 421.425 47.9979C417.94 47.021 415.227 44.6935 413.562 41.7147C410.584 36.4084 403.07 29.8358 384.583 36.8305C356.52 47.4552 344.001 54.474 344.568 64.9781C345.135 75.4943 359.402 77.6891 378.444 69.0181C390.01 63.76 394.641 67.4383 396.498 71.1527L396.486 71.1768Z" fill="#E5C998"/>
<path opacity="0.2" d="M390.888 169.827C392.661 164.629 391.202 158.66 386.474 154.849C382.41 151.568 376.091 149.084 366.383 150.242C350.596 152.111 353.43 162.109 356.879 168.344C358.628 171.503 358.869 175.073 357.929 178.353C356.24 184.202 356.831 194.164 374.8 202.425C402.068 214.955 415.852 218.947 422.943 211.168C430.034 203.389 421.592 191.679 402.043 184.202C390.177 179.656 389.549 173.771 390.888 169.851V169.827Z" fill="#E5C998"/>
<path opacity="0.2" d="M490.638 172.577C486.67 173.506 483.076 175.508 480.701 178.51C477.119 183.033 475.539 189.087 491.325 190.136C517.073 191.849 563.262 169.646 564.782 158.708C566.301 147.77 558.728 127.968 539.034 124.205C519.34 120.442 532.22 144.357 525.02 152.895C518.593 160.517 503.723 169.502 490.638 172.553V172.577Z" fill="#E5C998"/>
<path d="M541.889 152.387C542.022 151.748 542.323 150.638 543.131 149.505C543.819 148.552 544.59 147.949 545.097 147.611C545.603 148.226 546.11 148.829 546.629 149.444L541.877 152.387H541.889Z" fill="#F4B378"/>
<path d="M545.11 147.613C544.592 148.036 543.759 148.856 543.277 150.146C543.12 150.58 543.024 150.99 542.976 151.34C550.839 152.027 558.702 152.727 566.565 153.414C566.866 152.425 567.192 150.978 567.192 149.205C567.192 147.433 566.866 145.973 566.565 144.984C559.413 145.865 552.262 146.733 545.098 147.613H545.11Z" fill="#F4B378"/>
<path d="M543.397 149.818L566.938 151.929C566.444 154.22 565.66 156.885 564.382 159.707C561.415 166.304 557.182 170.718 554.227 173.299C552.901 173.371 547.582 173.516 543.808 169.826C539.201 165.315 538.646 156.837 543.385 149.83L543.397 149.818Z" fill="#ED8A48"/>
<path d="M566.576 144.234C561.161 144.898 555.758 145.561 550.344 146.224C548.969 146.393 547.594 146.562 546.219 146.731C545.327 146.839 544.796 146.875 544.085 147.442C542.589 148.636 541.576 150.325 541.166 152.194C541.033 152.809 541.685 153.412 542.276 153.05L542.324 153.026L541.287 151.989C537.994 159.056 538.718 168.921 546.569 172.635C548.088 173.359 549.729 173.781 551.393 173.974C552.285 174.082 553.757 174.36 554.625 173.962C555.155 173.721 555.698 173.021 556.108 172.623C556.735 172.032 557.338 171.405 557.929 170.778C559.268 169.331 560.498 167.787 561.62 166.171C564.538 161.938 566.564 157.15 567.662 152.146C567.77 151.639 567.432 151.241 566.938 151.193C567.179 151.506 567.42 151.832 567.662 152.146C568.108 149.685 567.999 147.213 567.3 144.813C567.022 143.885 565.575 144.283 565.84 145.211C566.468 147.358 566.6 149.553 566.202 151.748C566.106 152.254 566.407 152.652 566.926 152.7C566.685 152.387 566.443 152.061 566.202 151.748C565.105 156.716 563.091 161.42 560.184 165.604C558.93 167.401 557.519 169.078 555.988 170.633C555.385 171.248 554.745 171.815 554.13 172.406C553.708 172.804 554.347 172.515 553.805 172.587C553.539 172.623 553.262 172.587 552.997 172.587C548.812 172.503 544.724 170.73 542.553 167.003C540.02 162.65 540.503 157.187 542.565 152.761C542.867 152.122 542.227 151.301 541.528 151.724L541.48 151.748L542.589 152.604C542.951 150.928 544.048 148.624 545.906 148.286C548.161 147.876 550.5 147.72 552.78 147.442C557.362 146.875 561.957 146.321 566.54 145.754C567.493 145.633 567.505 144.126 566.54 144.246L566.576 144.234Z" fill="#825C36"/>
<path d="M15.1182 124.322C15.1182 124.322 16.0347 228.857 310.801 235.273C605.567 241.689 614.721 124.322 614.721 124.322" stroke="black" stroke-width="1.60998" stroke-miterlimit="10" stroke-linecap="round"/>
<path d="M395.617 209.564C397.558 210.384 399.62 210.686 401.598 209.781C403.407 208.961 404.348 206.754 406.278 206.308C410.559 205.319 414.744 205.126 418.144 201.967C418.675 201.472 419.097 200.893 419.748 200.544C420.17 200.314 419.592 200.459 420.074 200.544C420.617 200.64 421.147 200.797 421.702 200.809C422.787 200.821 423.897 200.556 424.85 200.025C425.573 199.627 426.14 198.976 426.876 198.602C427.611 198.228 427.684 198.433 428.444 198.686C429.384 199.012 430.252 198.928 431.157 198.53C431.929 198.192 432.58 197.673 433.207 197.119C433.629 196.745 434.027 196.335 434.389 195.901C434.715 195.515 435.076 194.755 435.511 194.514L434.365 194.827L433.979 194.658C434.184 194.779 434.401 194.863 434.63 194.912C435.076 195.032 435.486 195.044 435.945 194.936C436.632 194.767 437.199 194.357 437.645 193.814C437.754 193.682 438.212 193.175 438.188 193.018C438.212 193.187 436.114 193.995 437.778 193.573C438.586 193.368 439.213 192.801 439.635 192.102C439.961 191.559 440.142 190.932 440.443 190.365C440.491 190.269 440.708 189.991 440.769 189.822L440.986 189.593C440.479 189.81 440.395 189.871 440.757 189.786C442.035 189.617 442.746 188.206 443.108 187.133C443.47 186.06 443.506 184.613 444.049 183.6C443.759 184.142 444.628 183.009 444.724 182.792C444.917 182.406 445.014 182.044 445.038 181.61V181.212C445.038 180.211 444.797 180.38 444.338 181.718C444.724 181.754 445.448 180.79 445.653 180.488C446.099 179.825 446.292 179.089 446.376 178.305C446.521 176.991 446.352 175.568 445.882 174.326C445.52 173.385 445.002 172.553 444.387 171.769C443.627 170.792 442.903 169.562 441.818 168.923C441.468 168.718 441.082 168.609 440.696 168.549C439.864 168.404 441.275 169.393 441.082 168.585C440.974 168.115 440.347 167.584 439.949 167.331C439.333 166.933 438.489 166.776 437.778 166.969C437.597 167.017 437.271 167.162 437.066 167.283C435.764 168.066 437.778 167.608 437.127 167.355C436.475 167.102 435.486 167.319 434.908 167.656C434.666 167.801 434.365 168.054 434.172 168.247C434.051 168.368 433.026 169.441 434.063 168.718C434.775 168.211 434.413 168.464 433.907 168.489C433.629 168.489 433.316 168.549 433.038 168.609C432.218 168.778 431.41 169.092 430.723 169.562C430.614 169.634 429.867 170.189 429.891 170.225C429.734 170.02 431.241 170.358 430.373 169.936C429.758 169.634 428.793 169.839 428.202 170.044C427.587 170.249 427.141 170.635 426.659 171.069C426.019 171.648 426.864 171.166 426.478 171.262C426.176 171.335 425.754 171.25 425.429 171.298C424.524 171.455 423.728 171.877 423.053 172.492C422.98 172.565 422.667 172.83 422.607 172.963C422.582 173.011 423.173 173.18 422.679 172.951C421.292 172.287 419.387 173.204 418.434 174.193C418 174.651 417.674 175.17 417.143 175.507C416.637 175.833 416.046 175.942 415.491 176.159C414.828 176.424 414.297 176.786 413.827 177.34C413.513 177.702 413.308 178.064 413.128 178.498C413.031 178.715 412.947 178.944 412.874 179.186C412.681 179.692 412.766 179.704 413.14 179.246L414.285 178.932C414.514 178.92 413.718 178.727 413.562 178.691C412.935 178.546 412.271 178.571 411.656 178.751C410.836 178.993 410.209 179.523 409.678 180.162C408.509 181.586 407.592 183.045 406.29 184.371C403.347 187.374 400.272 190.196 396.991 192.837C395.617 193.947 394.073 194.972 392.927 196.323C391.685 197.794 391.577 199.362 391.287 201.207C391.046 202.714 390.479 204.559 390.974 206.067C391.625 208.045 393.904 208.817 395.617 209.576C396.738 210.071 398.029 209.89 398.716 208.768C399.295 207.816 399.018 206.163 397.908 205.669C397.112 205.319 395.954 204.475 395.158 204.354C395.219 204.354 394.965 204.234 394.99 204.21C395.122 204.041 395.4 204.957 395.327 205.03C395.4 204.97 395.363 204.282 395.388 204.149C395.508 203.124 395.713 202.111 395.87 201.098C395.942 200.676 396.015 200.242 396.075 199.82C396.087 199.687 396.123 199.555 396.159 199.434C396.087 199.687 396.039 199.663 396.208 199.458C396.328 199.313 397.088 198.554 397.474 198.216C398.294 197.517 399.162 196.865 400.006 196.178C401.948 194.61 403.841 192.982 405.675 191.294C406.929 190.148 408.123 188.942 409.317 187.724C409.932 187.097 410.559 186.482 411.126 185.819C411.692 185.155 412.657 184.154 412.935 183.298C413.007 183.081 413.164 182.984 413.152 182.972L412.633 183.117L412.91 183.226C413.019 183.31 413.296 183.358 413.417 183.382C414.587 183.648 415.817 183.165 416.504 182.176C416.782 181.766 417.047 181.26 417.131 180.753C417.131 180.693 417.192 180.392 417.228 180.247C417.204 180.367 416.492 180.452 417.204 180.307C418.374 180.054 419.543 179.415 420.448 178.643C420.81 178.329 421.111 177.968 421.425 177.606C421.799 177.172 421.943 177.328 421.473 177.292C422.812 177.389 423.74 177.618 424.97 176.822C425.416 176.532 425.79 175.929 426.237 175.676C425.863 175.881 426.695 175.773 426.936 175.749C428.407 175.64 429.034 174.543 430.204 174.048L429.059 174.362C429.481 174.301 430.047 174.531 430.542 174.518C431.157 174.506 431.772 174.325 432.303 174.012C432.725 173.759 433.014 173.361 433.46 173.156C433.69 173.047 433.979 172.999 434.232 172.951C433.75 173.023 434.425 172.975 434.63 172.963C435.269 172.927 435.8 172.782 436.343 172.444C436.68 172.227 437.151 171.877 437.307 171.516C437.766 170.478 436.101 172.046 436.138 171.757C436.114 171.938 437.85 171.829 437.995 171.793C438.345 171.709 438.706 171.564 439.02 171.383C439.116 171.323 439.876 170.876 439.49 171.081L438.345 171.395H438.55C438.164 171.298 437.79 171.202 437.404 171.093C436.909 170.828 437.199 171.009 437.452 171.383C437.681 171.721 437.935 171.998 438.248 172.251C438.562 172.504 438.887 172.709 439.297 172.842L439.551 172.915C440.262 173.035 440.347 173.035 439.816 172.902C439.358 172.697 439.358 172.806 439.804 173.228L440.154 173.686C440.383 173.988 440.624 174.277 440.853 174.567C441.01 174.772 441.058 174.82 441.311 175.254C441.589 175.724 441.685 175.905 441.794 176.46C441.878 176.846 441.878 177.123 441.902 177.509C441.902 177.606 441.794 178.293 441.95 177.943C442.095 177.618 441.492 178.221 441.372 178.341C441.094 178.607 440.889 178.944 440.732 179.282C440.564 179.656 440.455 180.066 440.443 180.476C440.443 180.705 440.455 180.946 440.491 181.175C440.527 181.803 440.66 181.586 440.889 180.548C440.588 180.452 439.852 181.983 439.756 182.261C439.611 182.671 439.514 183.081 439.418 183.503C439.297 183.985 438.598 185.505 438.755 185.951C438.694 186.132 438.682 186.156 438.731 186.011L439.551 185.433C439.442 185.372 438.911 185.65 438.839 185.686C438.055 186.06 437.488 186.687 437.006 187.386C436.777 187.712 435.752 189.111 435.896 189.497C435.691 189.859 435.86 189.834 436.403 189.412C437.187 189.111 437.187 189.038 436.391 189.207C436.114 189.268 435.836 189.34 435.583 189.485C435.137 189.726 434.811 190.088 434.498 190.486L434.292 190.751C433.955 191.233 434.1 191.185 434.751 190.594H435.957C435.39 190.474 434.232 190.148 433.243 190.63C432.158 191.149 431.627 192.271 430.855 193.127C430.506 193.525 430.108 193.85 429.71 194.2L429.444 194.369C429.01 194.574 429.143 194.598 429.854 194.429C430.047 194.502 429.999 194.477 429.734 194.357C429.517 194.248 429.288 194.164 429.059 194.079C428.6 193.935 428.118 193.85 427.648 193.85C426.586 193.85 425.501 194.176 424.596 194.707C423.885 195.117 423.33 195.804 422.57 196.13C421.931 196.407 421.485 196.214 420.846 196.093C419.724 195.888 418.663 196.069 417.638 196.576C416.046 197.36 415.093 198.903 413.574 199.784C411.825 200.809 409.775 201.159 407.797 201.496C405.554 201.882 403.48 202.148 401.731 203.764C400.585 204.825 399.729 206.453 397.896 205.669C396.762 205.187 395.484 205.343 394.797 206.477C394.23 207.418 394.483 209.094 395.605 209.576L395.617 209.564Z" fill="#825C36"/>
<path d="M396.762 207.608C397.377 207.886 398.052 208.139 399.065 208.079C399.584 208.042 400.151 208.018 400.886 207.632C401.996 207.042 402.478 206.137 403.347 205.341C404.565 204.22 405.686 204.099 406.844 203.918C410.486 203.327 413.079 202.905 415.443 201.265C417.276 199.987 417.457 199.01 418.964 198.431C420.411 197.876 420.64 198.648 422.184 198.515C424.512 198.322 425.006 196.417 427.213 196.115C428.998 195.874 429.01 197.128 430.373 196.417C431.024 196.079 432.145 195.211 433.146 193.86C433.617 193.221 433.906 192.702 434.389 192.546C434.98 192.353 435.124 192.956 435.631 192.654C436.137 192.353 436.185 191.641 436.728 191.412C437.066 191.267 437.15 191.496 437.428 191.291C437.729 191.074 437.85 190.64 438.091 190.073C438.489 189.157 438.995 188.397 439.405 187.987C440.033 187.372 440.165 187.842 440.587 187.288C440.877 186.914 441.082 186.118 441.48 184.574C441.817 183.247 441.805 183.042 442.022 182.681C442.36 182.114 442.686 182.114 442.782 181.595C442.867 181.125 442.65 180.908 442.71 180.45C442.806 179.666 443.542 179.859 443.94 178.954C444.374 177.965 444.181 176.18 443.807 175.119C443.723 174.89 443.626 174.709 443.433 174.323C442.915 173.358 442.734 173.298 441.48 171.634C441.239 171.32 441.034 171.031 440.684 170.838C440.322 170.633 440.25 170.778 439.936 170.633C439.2 170.295 439.176 169.294 438.585 169.113C438.175 168.993 438.163 169.463 437.416 169.596C436.68 169.716 436.535 169.282 436.041 169.572C435.57 169.849 435.582 170.319 435.052 170.597C434.726 170.766 434.63 170.657 434.051 170.705C433.93 170.705 433.195 170.778 432.435 171.139C431.446 171.61 431.482 172.056 430.783 172.225C429.975 172.406 429.866 171.863 429.094 172.08C428.298 172.309 428.298 172.924 427.37 173.334C426.429 173.744 426.272 173.214 425.332 173.624C424.319 174.07 424.319 174.757 423.354 175.119C422.305 175.517 422.136 174.769 421.075 175.083C419.772 175.469 419.82 176.615 418.06 177.555C416.721 178.279 416.046 177.977 415.431 178.906C414.84 179.786 415.081 180.606 414.526 181.041C413.863 181.571 413.296 180.534 412.247 180.908C411.378 181.221 411.077 182.174 409.835 183.826C409.268 184.586 408.436 185.37 406.784 187.058C405.529 188.349 403.696 190.097 400.271 193.016C396.774 195.995 394.784 197.128 394.012 198.696C393.916 198.889 393.843 199.504 393.638 200.722C393.192 203.424 392.963 204.798 393.084 205.281C393.277 206.077 394.458 206.607 396.75 207.62L396.762 207.608Z" fill="#C69461"/>
<path d="M412.454 185.649C412.574 185.733 412.683 185.745 412.791 185.721C413.322 185.576 413.527 184.672 414.046 184.455C414.673 184.19 415.167 185.347 415.517 185.046C415.71 184.889 415.625 184.515 415.83 184.322C416.132 184.057 416.433 184.684 416.88 184.575C417.591 184.395 417.663 182.549 418.761 181.609C419.412 181.054 419.689 181.464 420.582 180.837C421.233 180.379 421.462 179.884 421.921 179.317C423.03 177.943 424.32 177.581 425.768 177.171C427.239 176.761 427.022 177.219 428.071 176.821C429.699 176.194 430.109 175.096 431.158 175.289C431.749 175.398 432.099 175.832 432.425 175.494C432.762 175.133 432.569 174.445 432.895 174.035C433.329 173.48 433.932 174.397 434.668 173.975C435.319 173.601 435.186 172.648 435.753 172.323C436.597 171.84 437.357 173.71 438.201 173.107C438.467 172.914 438.418 172.697 438.696 172.491C439.359 171.985 440.179 172.793 440.746 173.36C441.892 174.505 442.639 175.265 442.663 176.411C442.712 178.027 441.349 178.401 440.722 181.355C440.565 182.103 440.432 182.911 440.131 183.55C439.745 184.346 439.263 184.708 439.021 184.889C437.936 185.709 437.526 184.973 436.971 185.721C436.272 186.674 436.561 188.326 435.982 188.808C435.416 189.267 434.909 187.892 434.234 188.447C433.872 188.748 433.908 189.243 433.402 189.87C432.883 190.521 432.34 190.666 432.099 190.726C431.195 190.931 430.495 190.014 429.663 189.641C428.119 188.953 426.057 190.219 424.417 192.27C423.91 192.909 423.368 193.681 422.741 193.849C421.909 194.079 421.667 193.451 420.883 193.246C418.845 192.68 417.241 196.37 414.54 196.237C413.587 196.189 413.165 195.695 411.67 195.9C409.993 196.117 409.354 196.864 409.185 197.081C408.667 197.745 408.763 198.191 408.233 198.685C407.509 199.373 407.099 198.782 406.026 199.433C405.013 200.048 405.001 200.796 404.072 201.23C403.083 201.7 402.601 201.073 401.95 201.7C401.491 202.122 401.539 202.593 401.105 202.979C400.538 203.497 399.803 203.341 399.224 203.099C398.983 202.979 398.597 202.798 398.054 202.689C397.475 202.569 397.198 202.629 397.126 202.364C397.005 201.954 397.511 201.182 397.873 200.639C398.271 200.024 398.476 199.903 398.717 199.397C398.959 198.903 398.91 198.697 399.031 198.36C399.501 196.985 401.624 195.924 402.154 195.658C403.192 195.14 403.336 195.309 403.927 194.85C404.916 194.079 405.387 192.873 405.543 192.535C406.098 191.257 407.762 189.134 412.454 185.625V185.649Z" fill="#99663C"/>
<path d="M422.704 180.476C423.693 179.897 424.826 180.018 425.887 179.632C425.984 179.596 427.311 179.017 427.298 178.969C427.311 179.005 426.913 178.896 426.913 178.896C426.647 178.824 426.84 178.655 426.792 178.836C426.756 179.005 427.298 180.139 427.467 180.464C427.829 181.115 428.36 181.634 429.095 181.803C429.578 181.911 430.036 181.827 430.494 181.67C430.699 181.598 430.953 181.429 431.17 181.417C430.808 181.441 431.121 181.525 431.302 181.682C432.352 182.563 433.437 182.418 434.667 182.056C435.547 181.803 436.295 181.96 436.995 181.212C437.308 180.886 437.561 180.5 437.827 180.127C438.068 179.789 438.128 179.536 438.43 179.475H437.706C438.526 179.596 439.346 180.042 440.118 180.344C441.746 180.971 442.458 178.354 440.842 177.727C439.443 177.184 438.104 176.34 436.741 177.365C436.331 177.678 436.042 178.016 435.74 178.426C435.656 178.535 434.968 179.282 434.981 179.415C435.584 179.282 435.68 179.21 435.282 179.198C435.089 179.198 434.884 179.222 434.691 179.258C434.438 179.294 434.209 179.367 433.968 179.427C433.34 179.608 433.316 179.729 432.918 179.451C432.364 179.053 431.929 178.691 431.194 178.691C430.856 178.691 430.518 178.788 430.205 178.896C430.072 178.945 429.94 178.993 429.795 179.053C429.493 179.126 429.433 179.15 429.602 179.138C429.59 179.101 429.927 179.282 429.927 179.282C430.012 179.403 430 179.403 429.927 179.27C429.879 179.198 429.843 179.114 429.807 179.029C429.759 178.921 429.638 178.559 429.517 178.281C429.192 177.461 428.782 176.653 427.889 176.352C426.756 175.978 425.948 176.75 424.935 177.087C424.428 177.256 423.898 177.28 423.367 177.365C422.643 177.485 421.98 177.751 421.341 178.125C419.833 179.005 421.196 181.357 422.716 180.464L422.704 180.476Z" fill="#D6A672"/>
<path d="M470.221 87.6843C470.269 89.6138 470.824 91.4469 472.054 92.9665C473.465 94.7031 475.346 95.0769 477.312 95.8608C478.976 96.5241 479.724 98.116 480.676 99.515C481.834 101.215 483.028 102.94 484.463 104.435C485.778 105.798 487.333 106.992 489.058 107.788C490.095 108.27 492.133 108.56 492.664 109.718C492.99 110.441 492.989 111.309 493.351 112.057C493.773 112.938 494.376 113.721 495.124 114.349C496.173 115.241 498.272 115.711 498.875 117.014C499.176 117.653 498.947 118.485 499.176 119.197C499.49 120.186 500.249 120.933 501.082 121.5C501.914 122.067 502.782 122.429 503.675 122.766C504.326 123.008 504.989 123.2 505.664 123.357C505.881 123.405 506.111 123.466 506.328 123.49C506.858 123.55 506.907 123.864 506.593 123.357L506.279 122.212C506.4 123.249 506.4 124.153 507.256 124.925C507.763 125.371 508.378 125.624 509.041 125.745C509.765 125.974 509.837 125.866 509.27 125.419C508.812 124.841 508.764 124.877 509.126 125.552C509.777 126.577 510.85 126.975 512.008 127.035C512.671 127.072 513.334 126.963 513.998 127.035C514.311 127.06 514.782 127.277 515.059 127.228C514.733 126.794 514.673 126.722 514.89 127.011C515.095 127.349 515.36 127.626 515.698 127.819C516.012 128.036 516.361 128.205 516.747 128.302C517.555 128.507 518.363 128.398 519.171 128.29C520.221 128.145 521.27 127.952 522.319 127.747C522.44 127.723 523.308 127.638 523.006 127.614C522.633 127.578 523.356 127.759 523.32 127.747C524.321 128.061 525.346 128.024 526.287 127.494C527.432 126.843 525.961 127.084 525.913 127.168C525.877 127.241 527.191 127.747 527.3 127.771C529.507 128.266 531.822 126.987 533.486 125.649C534.644 124.708 535.5 123.466 536.176 122.151C536.61 121.307 537.092 120.475 537.478 119.607C537.997 118.449 537.888 117.532 537.707 116.326V117.532C537.792 116.893 538.383 116.435 538.6 115.796C538.877 114.976 538.865 114.047 538.383 113.287C538.105 112.841 537.707 112.708 537.394 112.335C536.815 111.647 537.611 112.841 537.249 111.961C536.887 111.08 536.079 109.681 534.934 109.693L534.536 109.621C534.777 110.031 534.801 110.043 534.62 109.669C534.511 109.416 534.379 109.187 534.222 108.958C533.703 108.162 533.064 107.45 532.305 106.884C531.955 106.618 531.629 106.425 531.243 106.232C528.554 104.942 532.727 106.896 531.05 106.546C531.002 106.546 530.906 105.521 530.845 105.34C530.652 104.773 530.315 104.279 529.893 103.857C529.265 103.241 528.566 103.133 527.842 102.735C527.384 102.482 528.035 103.145 527.625 102.518C527.396 102.168 527.312 101.746 527.083 101.396C526.492 100.504 525.575 99.8768 524.586 99.4908C523.513 99.0688 523.935 99.3944 523.621 98.2969C523.115 96.5724 521.595 95.5714 519.967 95.1011C519.208 94.884 518.568 94.7031 517.941 94.1845C517.23 93.6056 516.771 92.7856 515.976 92.2911C515.348 91.8932 514.649 91.6761 513.913 91.6158C513.407 91.5675 512.068 91.4469 511.67 91.8208L512.852 92.8459C512.852 92.5203 512.804 92.2067 512.756 91.8811C512.671 91.4349 512.538 90.9887 512.309 90.5907C511.815 89.7103 510.995 89.0953 510.054 88.7576C508.679 88.2511 507.16 88.2511 505.737 87.8772C504.145 87.4551 502.601 86.8039 501.058 86.2491C498.38 85.2844 495.775 84.1507 493.195 82.9689C489.914 81.4735 486.718 79.4112 483.293 78.2776C482.075 77.8796 480.893 77.7952 479.639 78.1088C477.698 78.5912 475.732 79.1097 473.838 79.7368C472.548 80.171 471.463 80.6775 470.824 81.9559C469.967 83.6563 470.221 85.8753 470.233 87.7084C470.269 90.6148 474.791 90.6269 474.755 87.7084C474.755 86.828 474.719 85.9356 474.755 85.0552C474.755 84.802 474.876 84.3919 474.815 84.1628C474.9 84.4522 474.743 83.6081 474.815 84.0422C474.815 84.0784 474.514 84.3316 474.466 84.3316C474.466 84.3316 475.069 84.1025 474.562 84.2713C475.153 84.0784 475.732 83.8854 476.335 83.7166C477.83 83.2824 479.35 82.9206 480.845 82.4744C481.062 82.4141 481.689 82.4141 481.014 82.4021C481.641 82.4141 480.881 82.3056 481.231 82.4141C481.689 82.5709 482.16 82.6553 482.618 82.8362C485.609 84.0663 488.443 85.7547 491.398 87.0933C493.954 88.2511 496.535 89.3847 499.164 90.3616C501.576 91.254 503.976 92.2188 506.521 92.6409C507.124 92.7373 507.859 92.9906 508.462 92.9906C508.728 92.9906 508.438 93.1594 508.318 92.7253C508.402 93.0509 508.354 93.473 508.426 93.7986C508.788 95.4749 510.307 96.4518 511.972 96.3191C512.526 96.2829 513.117 96.0176 513.672 96.1503C513.178 96.0297 513.72 96.3312 513.889 96.5121C514.058 96.693 514.227 96.898 514.408 97.0789C515.59 98.2607 517.242 99.2376 518.918 99.515C518.822 99.5029 519.195 99.5632 519.171 99.5511C519.533 99.7562 519.195 99.117 519.364 100.106C519.497 100.829 519.774 101.445 520.245 102.011C520.799 102.675 521.475 103.133 522.271 103.446C523.139 103.796 523.139 103.579 523.465 104.279C523.899 105.231 524.502 106.003 525.406 106.558C525.708 106.739 526.287 107.113 526.636 107.101C527.034 107.306 527.071 107.233 526.745 106.871C526.54 106.437 526.48 106.425 526.564 106.835C526.48 107.752 527.143 108.765 527.77 109.38C528.325 109.911 529.036 110.031 529.639 110.477C530.869 111.382 530.93 112.95 532.413 113.661L532.956 113.89C533.595 114.144 533.583 113.89 532.92 113.167C532.775 113.492 533.233 114.288 533.378 114.542C533.872 115.41 534.572 115.796 535.319 116.375L534.282 115.024C534.053 114.445 534.463 113.999 533.945 114.831C533.728 115.181 533.523 115.579 533.414 115.977C533.342 116.242 533.281 116.652 533.281 116.929C533.281 116.64 533.305 118.232 533.426 117.713C533.281 118.328 532.727 119.004 532.437 119.583C532.172 120.101 531.919 120.62 531.593 121.102C530.906 122.091 529.989 122.682 528.916 123.2C528.168 123.562 528.373 123.2 527.469 122.899C526.564 122.597 525.744 122.67 524.912 123.056C524.478 123.261 523.923 123.345 524.827 123.478C524.647 123.454 524.417 123.321 524.249 123.273C523.525 123.08 522.874 123.08 522.15 123.2C520.86 123.405 519.581 123.671 518.291 123.888L518.014 123.912C517.7 123.912 517.688 123.912 517.977 123.948C518.038 124.358 519.268 125.009 518.219 123.948C517.7 123.418 516.989 123.092 516.289 122.887C515.59 122.682 514.77 122.585 514.022 122.537C513.588 122.501 512.912 122.405 512.49 122.537C511.55 122.453 511.791 122.815 513.214 123.611C513.154 123.357 513.045 123.128 512.888 122.935C512.394 122.139 511.598 121.657 510.693 121.464L510.09 121.379C510.693 122.658 510.947 122.995 510.85 122.392C510.91 121.97 510.705 121.464 510.524 121.102C509.62 119.269 507.546 119.269 505.845 118.75C505.17 118.545 504.543 118.304 503.928 117.954C503.904 117.954 503.277 117.593 503.313 117.532C503.409 117.412 503.433 118.606 503.542 117.701C503.747 116.049 502.722 114.288 501.564 113.191C500.551 112.238 499.261 111.888 498.187 111.056C497.066 110.176 497.271 108.741 496.668 107.571C495.076 104.508 491.386 104.423 488.913 102.433C486.007 100.082 484.644 96.5603 482.172 93.8468C480.809 92.3514 479.097 91.7484 477.239 91.1213C475.599 90.5666 474.803 89.445 474.767 87.7204C474.695 84.814 470.172 84.802 470.245 87.7204L470.221 87.6843Z" fill="#825C36"/>
<path d="M472.472 87.6865C472.472 88.5186 472.533 89.399 473.112 90.4844C473.413 91.0391 473.739 91.6662 474.535 92.2813C475.753 93.222 477.007 93.2943 478.334 93.8491C480.203 94.633 480.89 95.8148 481.698 97.0208C484.207 100.771 485.992 103.437 489.031 105.234C491.382 106.633 492.552 106.319 493.963 107.706C495.326 109.032 494.566 109.672 495.495 111.336C496.894 113.82 499.269 113.41 500.717 115.714C501.886 117.571 500.512 118.222 501.983 119.38C502.694 119.934 504.226 120.73 506.24 121.177C507.193 121.382 507.916 121.442 508.338 121.888C508.845 122.443 508.254 122.913 508.845 123.323C509.436 123.733 510.256 123.432 510.787 123.902C511.124 124.204 510.907 124.421 511.281 124.626C511.679 124.843 512.222 124.758 512.969 124.746C514.2 124.722 515.297 124.891 515.96 125.144C516.961 125.53 516.503 125.916 517.335 126.109C517.89 126.242 518.879 126.073 520.796 125.723C522.448 125.422 522.666 125.313 523.184 125.361C523.992 125.446 524.149 125.808 524.776 125.663C525.343 125.53 525.475 125.168 526.006 125C526.935 124.71 527.091 125.615 528.297 125.603C529.624 125.591 531.505 124.457 532.494 123.504C532.711 123.299 532.868 123.094 533.182 122.684C534.002 121.623 533.966 121.382 535.184 119.139C535.413 118.716 535.63 118.331 535.666 117.86C535.714 117.354 535.509 117.342 535.509 116.92C535.509 115.919 536.619 115.4 536.51 114.652C536.438 114.134 535.907 114.363 535.389 113.603C534.87 112.843 535.28 112.469 534.725 112.059C534.183 111.674 533.664 111.927 533.085 111.468C532.735 111.191 532.808 111.022 532.458 110.407C532.386 110.275 531.94 109.491 531.144 108.827C530.118 107.959 529.636 108.236 529.093 107.537C528.478 106.741 529.033 106.331 528.394 105.595C527.731 104.824 527.055 105.137 526.127 104.317C525.186 103.485 525.705 103.039 524.764 102.194C523.751 101.29 522.991 101.64 522.099 100.759C521.122 99.7946 521.87 99.2278 520.989 98.2027C519.904 96.9485 518.65 97.5756 516.708 96.1163C515.225 94.9948 515.213 94.0903 513.874 93.8732C512.596 93.6561 511.8 94.3435 511.04 93.9576C510.111 93.4873 510.98 92.3295 510.027 91.3648C509.243 90.5568 508.025 90.7135 505.553 90.1708C504.407 89.9176 503.129 89.399 500.403 88.4222C498.329 87.6865 495.459 86.5408 490.466 84.2012C485.377 81.8254 483.109 80.1853 480.963 80.125C480.697 80.125 479.986 80.3421 478.527 80.74C475.295 81.6204 473.654 82.0666 473.184 82.4405C472.388 83.0676 472.412 84.6474 472.448 87.7106L472.472 87.6865Z" fill="#C69461"/>
<path d="M504.879 93.9692C504.855 94.1501 504.879 94.2828 504.975 94.3793C505.409 94.8979 506.519 94.6687 507.013 95.127C507.628 95.6938 506.591 96.8154 507.098 97.0686C507.375 97.2013 507.749 96.9118 508.062 97.0566C508.509 97.2495 507.966 97.9128 508.316 98.359C508.882 99.0585 510.969 98.2023 512.573 98.95C513.526 99.3962 513.2 99.9147 514.358 100.59C515.202 101.085 515.865 101.097 516.721 101.314C518.808 101.856 519.869 103.099 521.063 104.497C522.269 105.921 521.642 105.921 522.631 106.885C524.15 108.381 525.573 108.272 525.911 109.538C526.092 110.25 525.79 110.853 526.333 111.046C526.9 111.239 527.563 110.672 528.19 110.829C529.022 111.034 528.311 112.168 529.167 112.771C529.927 113.301 530.904 112.674 531.555 113.132C532.52 113.82 530.831 115.629 531.929 116.244C532.279 116.437 532.484 116.28 532.87 116.473C533.774 116.955 533.292 118.27 532.942 119.198C532.242 121.056 531.784 122.274 530.518 122.889C528.745 123.757 527.636 122.443 524.042 123.238C523.125 123.443 522.16 123.709 521.292 123.697C520.207 123.673 519.568 123.311 519.242 123.142C517.783 122.346 518.386 121.526 517.264 121.285C515.841 120.995 514.153 122.153 513.333 121.755C512.525 121.357 513.803 120.091 512.85 119.633C512.332 119.391 511.801 119.669 510.836 119.428C509.847 119.186 509.413 118.656 509.232 118.415C508.545 117.522 509.208 116.268 509.196 115.146C509.172 113.072 506.724 111.432 503.612 110.66C502.636 110.419 501.514 110.202 501.007 109.599C500.332 108.791 500.899 108.2 500.742 107.223C500.332 104.666 495.412 104.763 494.194 101.688C493.759 100.602 494.097 99.8906 493.108 98.3228C492.011 96.5742 490.853 96.2365 490.527 96.1641C489.526 95.9229 489.08 96.2486 488.248 95.9229C487.115 95.4767 487.561 94.7049 486.294 93.8486C485.101 93.0286 484.256 93.3904 483.304 92.5944C482.279 91.7261 482.725 90.8819 481.7 90.4719C481 90.1825 480.506 90.4719 479.842 90.1825C478.986 89.8207 478.781 88.9162 478.745 88.1564C478.757 87.8308 478.745 87.3122 478.6 86.6489C478.431 85.9495 478.238 85.66 478.48 85.4429C478.878 85.1053 479.999 85.2741 480.783 85.3947C481.663 85.5274 481.905 85.6962 482.604 85.7083C483.28 85.7203 483.472 85.5756 483.919 85.5394C485.691 85.3706 487.947 87.1916 488.501 87.6378C489.599 88.5182 489.49 88.7835 490.298 89.1936C491.661 89.9051 493.229 89.8207 493.687 89.8086C495.388 89.7845 498.595 90.5443 504.891 93.9813L504.879 93.9692Z" fill="#99663C"/>
<path d="M516.115 102.559C517.285 103.367 517.731 104.778 518.72 105.755C518.889 105.924 520.179 106.912 520.143 106.961C520.059 106.828 520.035 106.683 520.071 106.539C520.131 106.418 520.131 106.43 520.047 106.587C519.998 106.599 519.914 106.768 519.878 106.804C519.311 107.491 518.575 108.01 518.153 108.83C517.647 109.819 517.852 110.868 518.551 111.688C518.744 111.917 519.142 112.158 519.263 112.424C519.371 112.641 519.227 112.786 519.142 113.099C518.961 113.823 518.973 114.498 519.287 115.173C519.564 115.764 520.011 116.235 520.433 116.729C520.794 117.163 520.939 117.682 521.301 118.092C521.952 118.84 523.074 118.948 523.978 119.129C524.473 119.225 524.859 119.262 525.088 119.479C524.943 119.105 524.907 119.141 524.991 119.587C525.003 119.828 525.027 120.082 525.039 120.323C525.076 120.817 525.1 121.312 525.136 121.794C525.244 123.531 527.958 123.543 527.849 121.794C527.741 120.046 528.054 117.899 526.173 116.97C525.244 116.512 524.231 116.5 523.255 116.186C523.387 116.235 523.677 116.91 523.339 116.15C523.194 115.825 522.989 115.559 522.772 115.282C522.495 114.932 521.807 114.438 521.747 114.004C521.711 113.762 521.904 113.473 521.964 113.232C522.073 112.798 522.121 112.363 522.024 111.917C521.856 111.133 521.301 110.639 520.782 110.084C520.722 110.024 520.662 109.951 520.589 109.903C520.469 109.674 520.469 109.722 520.589 110.036C520.626 110.06 520.529 110.096 520.662 109.939C520.831 109.734 521.204 109.348 521.47 109.095C522.121 108.432 522.796 107.66 522.796 106.659C522.796 105.14 521.325 104.621 520.469 103.644C520.023 103.138 519.733 102.523 519.335 101.98C518.829 101.268 518.226 100.726 517.502 100.231C516.067 99.2303 514.704 101.582 516.127 102.571L516.115 102.559Z" fill="#D6A672"/>
<path d="M395.376 71.2509C393.651 70.1775 391.541 69.7554 389.575 70.3584C387.609 70.9614 386.536 72.891 384.498 73.0236C380.216 73.301 375.995 72.8669 372.269 75.4597C371.762 75.8095 371.256 76.3642 370.665 76.5572C370.074 76.7501 369.531 76.2798 368.796 76.123C367.722 75.8939 366.589 75.9421 365.54 76.2798C364.671 76.5572 363.948 77.1602 363.104 77.4617C362.416 77.7029 362.32 77.522 361.765 77.2325C360.885 76.7863 360.077 76.5692 359.076 76.7863C358.195 76.9793 357.351 77.4255 356.615 77.9199C356.193 78.1973 355.771 78.5229 355.385 78.8485C355.156 79.0294 353.842 79.9581 354.445 79.9822L355.59 80.2957C354.746 79.8736 354.095 79.5118 353.082 79.7651C352.165 79.9942 351.876 80.7058 351.128 81.0796L352.274 80.7661C352.503 80.8264 352.443 80.8264 352.105 80.7661C351.803 80.6937 351.502 80.7178 351.2 80.8022C350.815 80.8867 350.513 81.0314 350.187 81.2605C349.464 81.767 349.114 82.5027 348.62 83.2021C348.487 83.383 347.872 83.9137 347.872 84.0825C347.583 84.3117 347.727 84.2875 348.282 84.0102L347.679 84.0946C346.859 84.2875 346.208 84.8302 345.737 85.5056C344.953 86.6271 344.604 88.219 344.001 89.2441C343.904 89.4009 343.651 89.7024 343.989 89.3647C343.555 89.8109 343.325 89.823 342.964 90.3657C342.433 91.1737 342.505 92.0299 342.397 92.9344L342.71 91.7887C342.819 91.5596 343 91.5596 342.638 91.7284C342.385 91.849 342.095 92.0902 341.89 92.2832C341.42 92.7415 341.106 93.3083 340.877 93.9113C340.443 95.0208 340.335 96.2991 340.431 97.481C340.576 99.3623 341.444 100.894 342.324 102.51C342.626 103.053 342.891 103.619 343.313 104.066C343.41 104.162 344.712 105.272 344.845 105.067C344.712 105.272 344.266 104.005 344.423 104.898C344.471 105.163 344.652 105.477 344.809 105.706C345.171 106.261 345.749 106.731 346.389 106.936C346.895 107.105 347.474 107.081 347.968 106.912C348.161 106.851 348.861 106.562 348.186 106.671C347.655 106.755 348.342 106.839 348.584 106.9C349.199 107.069 349.85 106.996 350.441 106.755C350.742 106.634 350.995 106.478 351.249 106.273C351.442 106.128 351.852 105.923 351.586 105.971H350.38C351.623 106.152 352.744 106.236 353.974 105.887C353.998 105.887 355.831 105.211 355.759 105.006C355.844 105.296 353.914 104.753 355.53 105.356C355.94 105.513 356.374 105.573 356.808 105.549C357.508 105.525 358.123 105.272 358.714 104.91C358.919 104.789 359.076 104.584 359.305 104.5C359.232 104.524 358.726 104.524 359.401 104.572C361.065 104.705 362.042 104.295 363.405 103.39C363.369 103.414 363.091 103.342 363.055 103.342C363.321 103.366 363.586 103.607 363.863 103.68C364.587 103.885 365.419 103.873 366.143 103.668C367.324 103.33 367.964 102.365 369.001 101.847C370.038 101.328 371.147 101.509 372.148 100.918C372.739 100.568 373.27 99.9894 373.632 99.4106C373.728 99.2538 374.078 98.687 374.066 98.482C374.042 97.8307 371.943 98.3372 372.703 98.9523C373.668 99.7482 375.441 99.5312 376.43 98.9523C377.575 98.3011 378.323 97.1433 379.264 96.2509C380.711 94.8761 382.46 93.7304 384.1 92.5968C386.512 90.9204 389.02 89.3527 391.565 87.8814C393.398 86.8201 395.569 85.8915 396.992 84.2755C397.812 83.3469 398.089 82.2132 398.463 81.0676C398.885 79.7892 399.38 78.5109 399.657 77.1843C400.284 74.1332 397.643 72.6619 395.412 71.2267C392.952 69.6469 390.684 73.5663 393.133 75.1341C393.748 75.5321 394.351 75.918 394.954 76.3401C394.954 76.3401 395.279 76.6175 395.303 76.6175C395.653 76.6295 395.231 76.7743 395.352 76.5572C395.412 76.4366 395.484 75.4477 395.231 76.328C395.086 76.7984 394.954 77.2808 394.809 77.7511C394.435 78.945 393.928 80.1269 393.639 81.3449C393.579 81.5982 393.928 81.2243 393.567 81.3449C393.265 81.4535 393.024 81.8032 392.735 81.9841C388.694 84.577 384.425 86.7598 380.542 89.6059C378.757 90.9084 376.888 92.1626 375.368 93.7786C375.055 94.1042 374.56 94.5022 374.343 94.8881C374.271 95.0208 374.174 95.069 374.162 95.0328H374.995C374.91 94.9725 374.826 94.9243 374.741 94.8761C373.789 93.9233 371.907 94.2972 371.015 95.069C370.593 95.4308 370.339 95.8529 370.098 96.3474C369.966 96.6247 369.881 96.8418 369.749 97.1071C369.929 96.7815 370.339 97.0227 369.785 97.0227C368.518 97.0227 367.107 97.6378 366.094 98.3493C365.793 98.5664 365.347 99.1091 364.985 99.2538C364.949 99.2658 364.961 99.3261 365.033 99.302C365.166 99.2658 366.179 99.6276 364.587 99.0729C363.333 98.6387 361.982 98.9161 360.909 99.6518C360.74 99.7723 360.583 99.9532 360.39 100.038C360.004 100.231 360.559 100.062 360.233 100.086C359.389 100.134 358.81 99.9171 357.93 100.182C357.858 100.207 356.29 100.81 356.35 101.063C356.314 100.918 357.616 101.244 356.519 100.822C356.109 100.665 355.651 100.58 355.216 100.592C353.962 100.641 353.106 101.605 351.888 101.593C351.321 101.593 350.863 101.437 350.272 101.593C349.91 101.678 349.548 101.835 349.235 102.028C349.066 102.136 348.234 102.618 348.716 102.522H349.922C350.332 102.618 349.548 102.377 349.355 102.317C349.018 102.22 348.596 102.148 348.246 102.148C347.944 102.148 347.558 102.208 347.269 102.281C347.173 102.305 346.172 102.715 346.63 102.558H347.836C348.318 102.655 349.018 103.921 348.463 102.703C348.33 102.401 348.198 102.148 347.993 101.883C347.51 101.256 346.943 101.075 346.304 100.701C346.726 100.954 346.678 101.063 346.521 100.629C346.413 100.303 346.147 99.9291 345.967 99.6276C345.762 99.2658 345.544 98.9282 345.364 98.5543C345.267 98.3614 345.195 98.2408 345.062 97.7342C344.953 97.3001 344.917 96.8659 344.953 96.4197C344.966 96.2147 345.038 95.9856 345.026 95.7805L345.134 95.4067C344.893 95.5997 344.881 95.6358 345.086 95.5152C345.605 95.1173 346.123 94.9243 346.497 94.3213C346.618 94.1284 347.233 92.5847 347.004 92.4882C346.461 93.0671 346.389 93.1997 346.787 92.8621C346.931 92.7656 347.052 92.6571 347.16 92.5365C347.365 92.3314 347.558 92.1023 347.715 91.8611C348.282 90.9807 348.571 89.9195 349.006 88.9788C349.114 88.7497 349.367 88.4241 349.404 88.1587C349.5 87.3628 348.945 88.7135 348.511 88.4723C348.994 88.7376 350.127 87.9899 350.489 87.7246C350.983 87.3628 351.406 86.9407 351.779 86.4704C351.996 86.205 352.214 85.9277 352.419 85.6382C352.551 85.4453 352.684 85.2523 352.804 85.0473C353.034 84.7337 352.913 84.7579 352.431 85.1197H351.225C351.984 85.3247 352.72 85.2885 353.432 84.9388C353.709 84.8061 353.95 84.6493 354.191 84.4323C354.433 84.2152 354.83 83.9981 354.445 84.0584H353.239C353.661 84.2152 354.782 84.6131 355.723 84.2755C356.905 83.8534 357.58 82.7921 358.533 82.0565C358.967 81.7188 359.51 81.5258 359.944 81.2002C359.968 81.1761 359.582 81.1279 359.51 81.1037C360.402 81.3932 360.957 81.9359 361.97 82.0323C363.055 82.1288 364.092 81.9117 365.093 81.4776C365.757 81.1882 366.408 80.6455 367.132 80.5007C367.855 80.356 368.35 80.754 369.037 80.959C370.026 81.2605 371.099 81.152 372.076 80.8264C373.764 80.2716 374.958 78.8485 376.623 78.2456C378.564 77.5461 380.651 77.5461 382.677 77.522C384.944 77.4978 387.006 77.4737 388.924 76.0868C390.407 75.0135 391.324 73.9884 393.133 75.1221C395.605 76.6657 397.884 72.7583 395.412 71.2147L395.376 71.2509Z" fill="#825C36"/>
<path d="M394.231 73.2051C393.664 72.8433 393.037 72.4815 392.036 72.3851C391.517 72.3368 390.951 72.2765 390.167 72.5539C388.973 72.9639 388.37 73.784 387.381 74.4352C385.994 75.3638 384.884 75.2915 383.703 75.3035C380.012 75.3277 377.383 75.3397 374.79 76.5939C372.776 77.5708 372.463 78.4994 370.871 78.8491C369.351 79.1747 369.255 78.3788 367.711 78.2582C365.384 78.0894 364.6 79.8983 362.369 79.8501C360.572 79.8139 360.753 78.5718 359.293 79.0662C358.594 79.2953 357.352 79.9828 356.146 81.1646C355.579 81.7194 355.217 82.1897 354.711 82.2741C354.096 82.3706 354.047 81.7556 353.505 81.9726C352.962 82.1897 352.793 82.8892 352.226 83.0339C351.877 83.1304 351.828 82.8771 351.515 83.046C351.189 83.2148 351.008 83.6248 350.671 84.1434C350.14 84.9876 349.525 85.6629 349.055 86.0006C348.343 86.5071 348.283 86.0247 347.776 86.5071C347.439 86.8327 347.113 87.5805 346.474 89.0397C345.931 90.2939 345.907 90.4989 345.642 90.8245C345.22 91.3431 344.894 91.2828 344.725 91.7773C344.568 92.2235 344.749 92.4767 344.629 92.9109C344.412 93.6707 343.712 93.3692 343.182 94.2013C342.603 95.1058 342.518 96.9027 342.723 98.0122C342.771 98.2534 342.832 98.4464 342.977 98.8564C343.338 99.8935 343.519 99.978 344.496 101.823C344.677 102.173 344.846 102.486 345.147 102.728C345.473 102.981 345.569 102.848 345.859 103.041C346.534 103.487 346.402 104.488 346.956 104.754C347.342 104.935 347.427 104.476 348.186 104.464C348.934 104.464 349.006 104.91 349.537 104.705C350.044 104.512 350.104 104.042 350.683 103.849C351.02 103.741 351.117 103.849 351.696 103.897C351.816 103.897 352.552 103.958 353.36 103.717C354.409 103.403 354.433 102.957 355.169 102.908C355.989 102.848 356.013 103.415 356.809 103.306C357.629 103.198 357.726 102.595 358.703 102.33C359.691 102.064 359.764 102.619 360.765 102.354C361.838 102.064 361.947 101.389 362.948 101.184C364.045 100.955 364.093 101.715 365.191 101.582C366.541 101.413 366.674 100.267 368.543 99.6041C369.978 99.0976 370.594 99.4956 371.353 98.6755C372.077 97.8916 371.968 97.0474 372.571 96.7097C373.319 96.2877 373.705 97.3971 374.802 97.1921C375.707 97.0233 376.153 96.1188 377.636 94.6837C378.324 94.0204 379.253 93.3812 381.146 91.9582C382.581 90.8848 384.655 89.4377 388.502 87.086C392.422 84.6861 394.556 83.8781 395.569 82.443C395.702 82.2621 395.859 81.6711 396.245 80.5013C397.101 77.8964 397.535 76.5819 397.499 76.0874C397.427 75.2674 396.341 74.5679 394.231 73.2172V73.2051Z" fill="#C69461"/>
<path d="M375.336 92.4748C375.227 92.3783 375.118 92.3421 375.01 92.3542C374.455 92.4145 374.117 93.2828 373.575 93.4154C372.911 93.5722 372.61 92.3662 372.212 92.6074C371.995 92.728 372.031 93.126 371.79 93.2707C371.452 93.4878 371.247 92.8124 370.789 92.8607C370.053 92.921 369.704 94.742 368.473 95.4897C367.738 95.9359 367.533 95.4897 366.556 95.9601C365.844 96.3098 365.531 96.7681 365 97.2505C363.686 98.4323 362.371 98.5891 360.876 98.77C359.356 98.9509 359.646 98.5288 358.536 98.77C356.824 99.1318 356.257 100.157 355.244 99.8072C354.677 99.6142 354.4 99.1318 354.026 99.4092C353.64 99.7107 353.724 100.422 353.326 100.772C352.808 101.242 352.349 100.253 351.566 100.555C350.854 100.832 350.854 101.785 350.239 102.014C349.335 102.364 348.864 100.398 347.948 100.868C347.658 101.013 347.67 101.23 347.369 101.399C346.633 101.797 345.958 100.88 345.475 100.229C344.523 98.9147 343.908 98.0585 344.052 96.9128C344.257 95.3088 345.656 95.1521 346.742 92.3301C347.019 91.6185 347.272 90.8346 347.67 90.2558C348.177 89.5322 348.707 89.2548 348.973 89.1101C350.167 88.4709 350.468 89.2548 351.131 88.6036C351.976 87.7714 351.939 86.0951 352.579 85.7092C353.206 85.3354 353.495 86.7825 354.243 86.3363C354.641 86.0951 354.689 85.6007 355.292 85.058C355.907 84.4912 356.462 84.4309 356.703 84.4188C357.62 84.3464 358.174 85.3715 358.946 85.866C360.369 86.7825 362.6 85.866 364.53 84.0811C365.133 83.5264 365.784 82.851 366.423 82.7787C367.28 82.6822 367.424 83.3334 368.16 83.6711C370.077 84.5394 372.248 81.1385 374.889 81.6933C375.818 81.8862 376.168 82.441 377.675 82.4772C379.363 82.5134 380.111 81.8742 380.316 81.6933C380.931 81.1144 380.907 80.6682 381.51 80.2461C382.33 79.6793 382.644 80.3185 383.814 79.8481C384.911 79.4019 385.044 78.6663 386.02 78.3768C387.082 78.0633 387.444 78.7507 388.191 78.2442C388.71 77.8944 388.734 77.4362 389.228 77.1105C389.868 76.6885 390.579 76.9538 391.098 77.2794C391.315 77.4362 391.677 77.6653 392.195 77.8583C392.75 78.0633 393.039 78.0512 393.063 78.3165C393.112 78.7386 392.497 79.426 392.062 79.9084C391.568 80.4511 391.351 80.5355 391.025 81.0059C390.712 81.4641 390.724 81.6571 390.555 81.9827C389.868 83.2731 387.612 83.9847 387.058 84.1656C385.96 84.5153 385.84 84.3223 385.188 84.6841C384.091 85.2992 383.44 86.4087 383.235 86.7222C382.487 87.892 380.521 89.7372 375.336 92.4868V92.4748Z" fill="#99663C"/>
<path d="M364.542 95.9587C363.433 96.3929 362.335 96.1396 361.177 96.3446C361.045 96.3687 359.585 96.6823 359.573 96.8029C359.573 96.6702 360.345 97.1406 360.08 96.9959C360.188 97.0562 360.14 97.0079 360.128 97.0803C360.152 96.5979 359.851 95.7778 359.694 95.3195C359.417 94.5477 358.91 93.8603 358.078 93.6312C357.608 93.4985 357.125 93.5709 356.655 93.6553C356.426 93.6915 356.064 93.6553 356.341 93.8362C356.173 93.7276 356.064 93.4744 355.919 93.3297C354.991 92.3528 353.905 92.5096 352.687 92.6181C352.217 92.6664 351.759 92.5096 351.3 92.594C350.878 92.6784 350.529 92.9196 350.203 93.197C349.503 93.7759 349.105 94.3548 348.37 94.7166L349.057 94.5357C348.804 94.5477 347.646 93.7276 347.272 93.5106C345.753 92.6423 344.39 94.9819 345.898 95.8502C347.321 96.6702 348.587 97.7918 350.215 96.815C350.601 96.5858 350.914 96.2843 351.24 95.9708C351.433 95.7658 351.626 95.5607 351.831 95.3678C352.084 95.1386 351.831 95.2472 352.024 95.211H351.3C351.686 95.2713 352.048 95.3678 352.446 95.3437C352.88 95.3316 353.411 95.1025 353.845 95.1869C354.062 95.2231 354.122 95.416 354.351 95.6572C354.689 96.019 355.099 96.2843 355.582 96.4049C356.064 96.5255 356.607 96.429 357.089 96.3205C357.403 96.2602 357.535 96.224 357.137 96.1396C356.993 96.1155 357.125 96.0914 357.101 96.1396C357.125 96.0793 357.149 96.2964 357.161 96.3808C357.222 96.6461 357.27 96.9235 357.33 97.1888C357.608 98.443 358.319 99.5646 359.754 99.4922C360.623 99.4561 361.37 98.9616 362.251 98.9616C363.288 98.9616 364.241 98.9616 365.229 98.5757C365.917 98.3104 366.375 97.6712 366.182 96.9114C366.013 96.2602 365.193 95.6934 364.518 95.9587H364.542Z" fill="#D6A672"/>
<path d="M427.774 134.645C426.725 134.706 426.219 133.27 426.207 132.221C426.158 126.951 429.005 122.573 431.706 118.702C433.503 116.133 435.384 113.565 438.218 112.13C440.039 111.213 442.162 110.803 444.26 110.405C447.492 109.79 450.845 109.175 454.354 109.742C456.212 110.043 458.081 110.67 459.962 110.863C460.927 110.96 461.892 110.948 462.881 111.153C463.87 111.358 464.931 111.84 465.498 112.612C466.402 113.83 465.751 115.157 464.931 116.097C460.155 121.621 451.351 123.345 444.176 127.023C441.511 128.386 439.014 130.05 436.252 131.365C433.635 132.619 430.826 133.536 428.028 134.452" fill="#F7B96F"/>
<path d="M428.044 135.651L462.065 142.453C464.658 142.971 466.672 141.476 466.696 139.064L466.925 114.691C466.925 114.04 466.274 113.388 465.49 113.232C461.052 112.387 449.487 110.904 439.67 116.862C431.421 121.866 428.129 129.729 426.863 133.733C426.597 134.553 427.164 135.482 428.044 135.651Z" fill="#FF8D40"/>
<path d="M439.924 135.832L439.622 133.782C439.526 133.119 439.188 132.118 439.285 131.443C439.381 130.815 439.104 131.286 439.49 131.201C439.647 131.165 439.936 131.31 440.105 131.322C440.503 131.358 440.865 131.334 441.238 131.189C442.649 130.623 442.999 128.886 442.227 127.668L441.371 128.777C441.817 128.946 442.264 129.103 442.71 129.272C443.204 129.453 443.626 128.994 443.663 128.548C443.759 127.258 443.614 126.004 443.277 124.761L442.553 125.714C444.012 125.859 445.508 125.449 446.521 124.339C446.943 123.869 447.112 123.326 447.377 122.772C447.703 122.096 448.101 121.903 448.836 122.072C449.439 122.217 449.994 122.506 450.537 122.796C450.983 123.037 451.743 122.747 451.67 122.144C451.513 120.878 454.094 120.926 454.902 120.649C455.71 120.372 456.325 119.901 456.603 119.033L455.493 119.479C455.843 119.696 455.976 120.444 456.229 120.758C456.53 121.119 456.916 121.361 457.387 121.433C458.508 121.614 459.352 120.963 460.426 121.578C461.861 122.398 463.187 124.219 465.033 123.664C465.961 123.387 465.563 121.939 464.635 122.205C463.344 122.591 461.62 120.348 460.45 119.901C459.642 119.588 459.075 119.853 458.267 119.853C457.133 119.853 457.097 118.671 456.253 118.153C455.819 117.887 455.288 118.153 455.143 118.599C454.83 119.6 452.358 119.503 451.538 119.913C450.645 120.348 450.03 121.083 450.163 122.108L451.296 121.457C450.042 120.794 448.149 119.865 446.822 120.866C446.123 121.385 446.135 122.108 445.749 122.82C445.098 123.99 443.807 124.291 442.565 124.171C442.071 124.122 441.721 124.689 441.841 125.123C442.155 126.257 442.264 127.342 442.179 128.512L443.132 127.788C442.686 127.62 442.239 127.463 441.793 127.294C441.178 127.065 440.611 127.873 440.937 128.404C441.251 128.898 441.238 129.573 440.587 129.802C440.262 129.923 439.743 129.658 439.393 129.634C438.79 129.585 438.248 129.73 437.946 130.285C437.596 130.912 437.826 131.708 437.922 132.383L438.477 136.206C438.621 137.159 440.069 136.761 439.936 135.808L439.924 135.832Z" fill="#F4BD7F"/>
<path d="M440.553 136.565L440.239 134.502C440.143 133.827 439.793 132.826 439.89 132.151C439.986 131.524 439.697 131.982 440.095 131.909C440.251 131.873 440.541 132.018 440.71 132.03C441.108 132.066 441.469 132.042 441.843 131.897C443.254 131.319 443.592 129.57 442.832 128.364L441.976 129.473C442.422 129.642 442.868 129.811 443.315 129.968C443.809 130.149 444.243 129.69 444.267 129.244C444.364 127.942 444.219 126.688 443.869 125.433L443.146 126.386C444.605 126.531 446.112 126.121 447.125 125.011C447.548 124.541 447.716 123.986 447.982 123.431C448.307 122.756 448.705 122.551 449.441 122.732C450.044 122.877 450.611 123.166 451.153 123.456C451.6 123.697 452.371 123.407 452.287 122.804C452.118 121.526 454.711 121.586 455.531 121.297C456.351 121.007 456.966 120.537 457.232 119.681L456.122 120.127C456.472 120.344 456.604 121.092 456.87 121.417C457.171 121.791 457.557 122.02 458.028 122.105C459.149 122.286 459.993 121.634 461.091 122.262C462.526 123.082 463.864 124.927 465.734 124.372C466.662 124.095 466.264 122.647 465.336 122.913C464.045 123.299 462.297 121.044 461.115 120.585C460.295 120.272 459.728 120.537 458.92 120.537C457.774 120.537 457.738 119.355 456.882 118.825C456.46 118.559 455.917 118.825 455.772 119.271C455.459 120.284 452.974 120.187 452.154 120.585C451.262 121.019 450.647 121.767 450.78 122.792L451.913 122.141C450.647 121.466 448.754 120.537 447.415 121.538C446.715 122.057 446.727 122.792 446.342 123.504C445.69 124.686 444.4 124.987 443.146 124.866C442.651 124.818 442.302 125.385 442.422 125.819C442.736 126.965 442.856 128.05 442.772 129.232L443.725 128.509C443.278 128.34 442.832 128.171 442.386 128.014C441.771 127.785 441.204 128.593 441.53 129.124C441.843 129.618 441.855 130.305 441.192 130.547C440.866 130.667 440.348 130.402 439.986 130.378C439.383 130.33 438.84 130.474 438.527 131.029C438.165 131.668 438.406 132.464 438.515 133.14L439.094 136.999C439.238 137.951 440.685 137.553 440.553 136.601V136.565Z" fill="#F4BD7F"/>
<g opacity="0.1">
<path d="M429.238 122.338C427.477 125.268 426.102 128.513 426.138 132.203C426.138 132.854 426.343 133.638 426.741 134.144C426.753 134.832 427.26 135.483 427.971 135.628L461.98 142.417C462.559 142.538 463.114 142.538 463.632 142.466C461.715 141.537 459.701 141.055 457.747 140.476C446.302 137.015 437.04 129.465 429.25 122.35L429.238 122.338Z" fill="#4C4C4C"/>
</g>
<path d="M466.915 113.159C466.433 111.821 465.384 111.049 464.057 110.603C462.043 109.939 459.764 110.084 457.69 109.614C453.601 108.673 449.887 108.685 445.763 109.421C442.157 110.072 438.575 110.711 435.717 113.159C432.859 115.607 430.857 118.912 428.987 121.999L430.169 121.842L430.097 121.782C429.735 121.456 429.168 121.505 428.915 121.939C427.456 124.411 426.262 127.052 425.864 129.922C425.599 131.804 425.55 134.975 427.516 136.097C428.662 136.748 430.338 136.797 431.592 137.05C437.912 138.316 444.231 139.57 450.55 140.837L459.125 142.549C460.548 142.838 462.164 143.345 463.623 143.285C466.638 143.152 467.748 140.728 467.772 138.099L467.844 129.983C467.88 126.232 467.916 122.469 467.953 118.719C467.977 116.729 468.652 113.81 466.554 112.701C465.697 112.243 464.938 113.545 465.794 114.003C467.084 114.691 466.457 117.501 466.445 118.719C466.421 121.686 466.385 124.652 466.361 127.619C466.337 130.586 466.312 133.347 466.276 136.206C466.264 137.87 466.662 140.402 464.986 141.379C463.611 142.187 461.73 141.536 460.271 141.247L453.143 139.824C447.161 138.63 441.18 137.436 435.198 136.242C433.172 135.832 431.05 135.566 429.06 135.012C427.781 134.65 427.227 133.179 427.202 131.924C427.142 128.632 428.565 125.472 430.193 122.699L429.011 122.855L429.084 122.916C429.446 123.241 430.012 123.193 430.266 122.759C431.858 120.13 433.594 117.392 435.741 115.185C438.165 112.677 441.18 111.821 444.52 111.181C448.09 110.494 451.696 109.891 455.314 110.627C456.882 110.94 458.413 111.399 460.005 111.591C461.706 111.796 464.709 111.519 465.444 113.569C465.77 114.474 467.229 114.088 466.903 113.171L466.915 113.159Z" fill="#825C36"/>
<path d="M401.308 135.49L401.211 135.442L402.248 136.793C399.463 129.81 394.494 124.01 387.885 120.392C382.47 117.425 375.91 114.953 369.687 115.845C363.464 116.737 357.953 120.753 354.178 125.517C349.438 131.475 346.833 139.446 347.497 147.08C347.822 150.77 349.064 153.966 350.994 157.102C353.177 160.647 355.529 164.036 359.557 165.532L358.206 164.494C358.821 165.495 359.388 166.11 360.57 166.352C361.751 166.593 362.994 166.593 364.2 166.448C365.912 166.243 367.625 165.785 369.289 165.363C373.389 164.313 377.417 162.975 381.337 161.359C385.726 159.55 389.983 157.427 394.048 154.955C397.304 152.965 400.705 150.831 403.563 148.286C404.877 147.116 404.6 145.211 404.395 143.619C404.081 141.026 403.31 138.626 402.116 136.298C400.789 133.706 396.882 135.997 398.208 138.578C399.462 141.026 400.102 143.691 399.993 146.441L400.656 144.837C394.856 149.456 388.44 153.303 381.674 156.318C378.177 157.874 374.559 159.152 370.893 160.213C367.938 161.069 364.284 162.492 361.197 161.853L362.547 162.89C362.005 162.094 361.607 161.588 360.75 161.154C360.184 160.864 359.605 160.647 359.086 160.261C357.868 159.321 357 157.934 356.132 156.692C354.576 154.449 353.056 152.061 352.417 149.444C350.789 142.871 352.839 135.346 356.566 129.834C359.46 125.541 363.982 121.742 369.12 120.524C374.257 119.306 379.926 121.417 384.569 123.768C387.572 125.288 390.297 127.23 392.6 129.702C394.036 131.245 395.266 132.946 396.315 134.779C397.051 136.069 397.678 138.71 399.016 139.41C401.597 140.761 403.888 136.853 401.296 135.503L401.308 135.49Z" fill="#825C36"/>
<path d="M364.368 163.747C363.065 163.903 360.918 163.915 358.772 162.722C356.939 161.696 355.926 160.261 354.213 157.837C352.368 155.208 351.295 152.929 350.981 152.205C348.051 145.38 349.727 131.004 360.086 122.804C362.522 120.874 367.226 117.28 374.257 117.98C376.693 118.221 378.538 118.896 380.359 119.559C383.76 120.802 390.369 123.165 395.615 129.678C401.283 136.721 401.85 143.812 401.946 145.729C397.918 149.395 392.322 153.713 384.99 157.295C377.151 161.13 369.831 162.89 364.38 163.759L364.368 163.747Z" fill="#F9E2AF"/>
<path d="M387.513 135.093C392.373 135.552 397.124 135.696 400.2 137.445C402.37 141.521 402.346 145.224 402.298 146.454C398.125 149.794 392.361 153.798 384.992 157.307C377.105 161.07 369.917 163.036 364.623 164.133C363.634 164.302 362.151 164.435 360.643 164.061C358.497 161.118 358.352 156.584 358.654 154.075C359.944 143.149 380.156 134.418 387.525 135.117L387.513 135.093Z" fill="#E8C577"/>
<g opacity="0.6">
<path d="M366.239 142.087C366.577 142.22 366.927 142.34 367.264 142.461C365.503 143.703 363.887 145.066 362.549 146.525C361.403 146.151 360.354 145.5 359.365 144.824C357.93 143.848 351.84 139.554 350.465 138.421C350.899 136.358 351.803 133.814 353.022 131.486C354.36 134.405 363.188 140.869 366.251 142.099L366.239 142.087Z" fill="white"/>
</g>
<path d="M502.734 170.079L502.372 170.164C500.491 170.622 501.286 173.54 503.168 173.07L503.53 172.986C504.543 172.732 504.832 171.611 504.434 170.767C501.057 163.76 496.366 155.631 487.599 155.511C483.667 155.463 479.699 156.982 476.829 159.672C474.441 161.927 472.765 165.195 471.764 168.294C470.642 171.768 470.57 175.711 472.681 178.835C474.393 181.355 476.998 183.043 479.772 184.213C484.475 186.191 489.83 186.915 494.919 186.493C498.115 186.227 501.6 185.467 503.94 183.116C507.389 179.643 506.255 174.746 504.434 170.767C503.626 169.006 501.033 170.537 501.829 172.286C503.18 175.241 504.253 179.184 501.226 181.488C499.465 182.838 497.066 183.297 494.919 183.466C490.915 183.803 486.803 183.381 482.968 182.175C477.939 180.595 473.127 177.231 474.116 171.297C475.129 165.183 479.47 159.406 485.886 158.598C494.328 157.537 498.718 165.798 501.829 172.274L502.734 170.055L502.372 170.139C500.491 170.598 501.286 173.516 503.168 173.046L503.53 172.961C505.411 172.503 504.615 169.585 502.734 170.055V170.079Z" fill="#825C36"/>
<path d="M500.791 167.209C498.91 163.977 496.811 160.371 493.205 158.43C488.466 160.01 482.918 159.527 478.553 162.072C475.936 163.603 473.958 166.184 473.162 169.103C473.162 169.054 473.162 169.006 473.15 168.958C472.631 170.658 472.294 172.648 472.607 174.614C473.403 175.76 474.923 177.508 477.335 178.353C479.132 178.98 481.314 179.438 485.173 178.859C488.538 178.353 490.202 181.175 491.855 180.162C493.555 179.124 493.193 178.702 495.557 177.147C498.524 175.181 500.393 172.829 501.068 172.817C502.081 172.793 502.6 171.37 503.155 171.539C502.431 170.007 501.575 168.536 500.815 167.209H500.791Z" fill="#F4DEAE"/>
<path d="M478.541 162.073C482.907 159.528 488.454 160.011 493.194 158.431C492.313 157.961 491.361 157.587 490.287 157.346C486.091 156.381 481.592 157.671 478.517 160.204C476.636 161.76 475.683 163.46 475.02 164.654C474.658 165.305 473.765 166.921 473.15 168.947C473.15 168.995 473.15 169.044 473.162 169.092C473.958 166.173 475.936 163.593 478.553 162.061L478.541 162.073Z" fill="#F2DA9E"/>
<g opacity="0.64">
<path d="M478.551 162.083C482.917 159.538 488.464 160.021 493.204 158.441C492.323 157.97 491.37 157.597 490.297 157.355C486.1 156.391 481.602 157.681 478.527 160.214C476.645 161.769 475.693 163.47 475.029 164.664C474.668 165.315 473.775 166.931 473.16 168.957C473.16 169.005 473.16 169.053 473.172 169.102C473.968 166.183 475.946 163.602 478.563 162.071L478.551 162.083Z" fill="white"/>
</g>
<path d="M490.289 185.034C492.846 185.155 501.312 185.541 503.977 180.584C505.448 177.846 504.568 174.578 503.133 171.539C502.47 171.684 501.505 171.961 500.419 172.468C498.056 173.589 497.115 174.952 495.752 176.001C493.738 177.545 491.64 177.786 488.432 178.148C483.644 178.691 479.918 177.557 477.952 176.93C475.648 176.206 473.827 175.302 472.609 174.626C472.658 174.916 472.718 175.205 472.79 175.495C474.66 182.441 484.802 184.793 490.289 185.046V185.034Z" fill="#E8C577"/>
<path d="M444.87 65.3995L444.509 65.4839C442.627 65.9422 443.423 68.8606 445.304 68.3903L445.666 68.3059C446.679 68.0526 446.969 66.9311 446.571 66.0869C443.194 59.0801 438.503 50.9518 429.735 50.8312C425.804 50.783 421.836 52.3025 418.966 54.9918C416.578 57.247 414.902 60.5152 413.901 63.6146C412.779 67.0878 412.707 71.0314 414.817 74.1549C416.53 76.6754 419.135 78.3638 421.908 79.5336C426.612 81.5114 431.966 82.235 437.056 81.8129C440.251 81.5476 443.737 80.7878 446.076 78.4361C449.525 74.9629 448.392 70.0666 446.571 66.0869C445.763 64.3261 443.17 65.8577 443.966 67.6064C445.317 70.5611 446.39 74.5046 443.363 76.8081C441.602 78.1588 439.202 78.617 437.056 78.7859C433.052 79.1236 428.939 78.7015 425.104 77.4955C420.075 75.9156 415.263 72.5509 416.252 66.6175C417.241 60.6841 421.607 54.7265 428.023 53.9185C436.465 52.8572 440.854 61.1182 443.966 67.5944L444.87 65.3753L444.509 65.4598C442.627 65.918 443.423 68.8365 445.304 68.3662L445.666 68.2818C447.548 67.8235 446.752 64.905 444.87 65.3753V65.3995Z" fill="#825C36"/>
<path d="M442.929 62.5296C441.047 59.2975 438.949 55.6916 435.343 53.75C430.604 55.3298 425.056 54.8474 420.69 57.3921C418.073 58.9237 416.096 61.5045 415.3 64.4229C415.3 64.3747 415.3 64.3265 415.288 64.2782C414.769 65.9787 414.431 67.9685 414.745 69.9343C415.541 71.08 417.06 72.8287 419.472 73.6728C421.269 74.2999 423.452 74.7582 427.311 74.1793C430.676 73.6728 432.34 76.4948 433.992 75.4818C435.693 74.4447 435.331 74.0226 437.695 72.4669C440.661 70.5011 442.531 68.1494 443.206 68.1374C444.219 68.1133 444.738 66.6902 445.292 66.859C444.569 65.3274 443.713 63.8561 442.953 62.5296H442.929Z" fill="#F4DEAE"/>
<path d="M420.679 57.4032C425.044 54.8586 430.592 55.341 435.332 53.7611C434.451 53.2908 433.498 52.9169 432.425 52.6757C428.228 51.7109 423.73 53.0013 420.655 55.5339C418.773 57.0896 417.821 58.7901 417.157 59.984C416.796 60.6352 415.903 62.2512 415.288 64.2773C415.288 64.3255 415.288 64.3738 415.3 64.422C416.096 61.5035 418.074 58.9227 420.691 57.3911L420.679 57.4032Z" fill="#F2DA9E"/>
<g opacity="0.64">
<path d="M420.689 57.4032C425.054 54.8586 430.602 55.341 435.341 53.7611C434.461 53.2908 433.508 52.9169 432.435 52.6757C428.238 51.7109 423.74 53.0013 420.664 55.5339C418.783 57.0896 417.83 58.7901 417.167 59.984C416.805 60.6352 415.913 62.2512 415.298 64.2773C415.298 64.3255 415.298 64.3738 415.31 64.422C416.106 61.5035 418.084 58.9227 420.701 57.3911L420.689 57.4032Z" fill="white"/>
</g>
<path d="M432.426 80.3543C434.982 80.4749 443.448 80.8608 446.114 75.9042C447.585 73.1667 446.705 69.8985 445.27 66.8594C444.606 67.0041 443.641 67.2815 442.556 67.788C440.192 68.9095 439.252 70.2723 437.889 71.3215C435.875 72.8652 433.776 73.1064 430.569 73.4682C425.781 74.0109 422.054 72.8772 420.089 72.2501C417.785 71.5265 415.964 70.622 414.746 69.9467C414.794 70.2361 414.855 70.5256 414.927 70.815C416.796 77.7615 426.939 80.1131 432.426 80.3664V80.3543Z" fill="#E8C577"/>
<path d="M341.912 41.2209L346.748 47.8899L362.438 40.0752L358.663 38.7245C356.565 38.3506 353.357 38.0491 349.546 38.6883C346.266 39.2431 343.685 40.3164 341.912 41.2088V41.2209Z" fill="#F4B378"/>
<path d="M346.7 61.3707C345.905 61.4551 344.783 61.4913 343.48 61.2381C341.864 60.9245 340.646 60.2974 339.887 59.8271C339.501 59.5738 339.079 59.2603 338.657 58.8743C337.656 57.9819 336.98 57.0292 336.534 56.2694C336.474 55.389 336.45 54.0866 336.703 52.5188C337.101 50.0465 337.969 48.2858 339.163 45.9221C339.778 44.704 340.671 43.076 341.913 41.2188C344.047 43.1724 346.182 45.1261 348.304 47.0798L346.7 61.3587V61.3707Z" fill="#E2884B"/>
<path d="M362.438 40.0866C366.72 41.8715 368.649 52.3153 364.066 58.0799C362.052 60.6125 359.291 61.6014 357.976 62.0717C353.49 63.6757 349.546 62.735 347.05 62.132C343.36 61.2396 341.117 60.3954 340.405 59.0929C339.694 57.7905 342.733 47.2502 346.17 45.1276C349.607 43.0051 351.464 42.6192 355.866 41.2323C359.508 40.0866 361.232 39.5922 362.426 40.0987L362.438 40.0866Z" fill="#F7924D"/>
<path d="M361.255 59.3455C361.412 59.442 362.16 57.7295 362.172 57.3677C362.172 56.9456 362.063 56.5356 361.955 56.1376C361.81 55.5828 361.955 55.2572 362.003 54.7266C362.087 53.8221 360.869 53.1106 361.159 52.2784C361.279 51.9528 361.665 51.7116 361.846 51.4222C361.979 51.2051 362.075 50.9518 362.148 50.7107C362.437 49.6976 362.413 48.4072 361.931 47.4424C361.726 47.0203 361.4 46.6465 360.954 46.4897C360.339 46.2726 360.013 46.5862 359.458 46.7309L360.194 46.9239C359.832 46.538 359.687 45.8144 359.639 45.2958C359.603 44.8737 359.76 44.4275 359.494 44.0657C359 43.3783 357.903 43.318 357.251 43.7521C356.938 43.9571 356.733 44.4395 356.986 44.7893C357.083 44.934 357.251 45.2114 357.396 45.3079C357.505 45.5852 357.637 45.5852 357.77 45.3079C358.023 45.1752 358.035 45.0184 357.77 44.8616C357.625 44.4516 357.239 43.9813 356.914 43.7039C356.347 43.2094 355.479 43.6798 355.659 44.4395C355.84 45.1993 356.009 45.947 356.19 46.6947L357.444 45.9591C356.793 45.4526 356.226 44.8858 355.708 44.2345C355.418 43.8727 354.719 43.9813 354.526 44.3913C354.333 44.8013 354.297 45.1752 354.526 45.5973C354.731 45.9953 355.43 46.2968 355.551 46.6706L356.082 45.742C356.166 45.7179 355.937 45.537 355.828 45.3681C355.732 45.2234 355.696 45.0546 355.587 44.9099C355.346 44.5963 355.032 44.4516 354.634 44.4878C353.766 44.5843 353.211 45.3199 352.91 46.0676C352.56 46.9239 353.826 47.2736 354.285 46.6465L354.055 46.8033L354.393 45.549C353.67 45.8385 352.97 46.152 352.295 46.5259L353.428 47.1771C353.489 45.7179 351.8 46.0194 350.884 46.1038C350.51 46.14 350.088 46.4174 350.136 46.8515C350.184 47.4545 350.148 48.0093 349.883 48.564C349.533 49.2755 350.498 50.1921 351.065 49.4806C351.631 48.769 352.259 48.0454 352.874 47.346L351.692 47.1892C351.824 47.4183 350.365 48.962 350.172 49.1911C349.738 49.7338 349.207 50.7227 348.52 50.9639C348.062 51.1207 347.809 51.6272 348.074 52.0734C348.17 52.2423 348.424 52.5679 348.387 52.7849C348.351 53.0985 348.315 52.99 348.026 53.1106C347.628 53.2794 347.35 53.5085 347.181 53.9065C346.952 54.4251 346.904 54.7989 346.41 55.1487C346.012 55.4381 345.529 55.5949 345.083 55.7517C344.166 56.0773 344.528 57.3797 345.481 57.2109L345.602 57.1868L344.866 56.9938C344.661 56.8129 344.613 57.4642 344.589 57.5486C344.516 57.838 344.42 58.1274 344.323 58.4048C344.118 58.9958 343.877 59.5626 343.6 60.1173L344.999 60.5032C345.083 58.851 345.433 57.2591 346.048 55.7275H344.589L344.685 56.0893C344.926 57.03 346.373 56.632 346.144 55.6914L346.048 55.3296C345.855 54.5457 344.854 54.6904 344.589 55.3296C343.925 56.9938 343.588 58.7304 343.491 60.5032C343.455 61.2389 344.564 61.5404 344.89 60.8892C345.324 60.0208 347.567 55.3055 345.071 55.7637L345.469 57.223C346.156 56.9818 346.844 56.7164 347.423 56.2702C347.676 56.0652 347.917 55.8481 348.098 55.5708C348.279 55.2934 348.375 54.7266 348.604 54.5095C348.797 54.3407 349.171 54.3165 349.388 54.1356C349.605 53.9547 349.774 53.7015 349.847 53.4241C350.052 52.7005 349.726 51.9287 349.364 51.3136L348.918 52.4232C350.196 51.9769 350.956 50.6021 351.764 49.6012C352.488 48.6967 353.682 47.6716 352.994 46.4294C352.765 46.0194 352.126 45.9108 351.812 46.2726C351.197 46.9721 350.594 47.6836 350.003 48.4072L351.185 49.3238C351.571 48.5399 351.716 47.7319 351.644 46.8515L350.896 47.5992C351.137 47.5751 351.378 47.551 351.619 47.5269C351.716 47.5269 351.812 47.5027 351.909 47.5027C352.138 47.5269 352.138 47.4183 351.921 47.1651C351.897 47.756 352.572 48.0816 353.055 47.8163C353.621 47.5027 354.2 47.2254 354.791 46.9842C355.286 46.7912 355.587 46.14 355.129 45.7299C354.429 45.1028 353.561 45.1149 352.994 45.8867L354.369 46.4656C354.453 46.2123 354.622 46.0556 354.876 45.9953L354.345 45.7782C354.707 46.1279 354.815 46.6224 355.237 46.9359C355.623 47.2133 356.021 47.3218 356.492 47.1892C356.865 47.0806 357.143 46.6586 357.022 46.2606C356.926 45.947 356.793 45.7058 356.552 45.4767C356.455 45.3802 356.335 45.2958 356.226 45.2114C355.973 45.0064 355.997 44.8496 355.852 45.139L354.671 45.2958C355.189 45.935 355.756 46.5138 356.407 47.0203C356.974 47.4666 357.854 47.0686 357.661 46.2847C357.468 45.5008 357.312 44.7772 357.131 44.0295L355.877 44.7652C356.636 45.4405 357.083 47.1168 358.457 46.5741C359.832 46.0314 358.843 44.729 358.325 44.0174L358.059 45.0546C358.264 44.9581 358.433 44.9943 358.566 45.1752L358.192 44.524C358.083 45.6576 358.361 47.1289 359.181 47.9851C359.362 48.1781 359.663 48.2504 359.917 48.1781C360.254 48.0937 360.375 47.8284 360.604 48.0334C360.881 48.2746 360.869 49.0223 360.869 49.3479C360.869 49.77 360.833 50.2403 360.628 50.6142C360.266 51.2533 359.7 51.591 359.651 52.399C359.627 52.7849 359.724 53.1588 359.88 53.5085C360.037 53.8583 360.411 54.1718 360.507 54.5095C360.604 54.8472 360.375 55.3416 360.387 55.7034C360.411 56.0773 360.532 56.4511 360.616 56.8129C360.857 57.7898 360.061 58.1516 359.868 59.044C359.724 59.7073 359.977 60.3103 360.532 60.6721C361.352 61.2027 362.099 59.9002 361.291 59.3696L361.255 59.3455Z" fill="#F9B66B"/>
<path d="M364.718 58.4674C368.071 54.1017 368.396 47.2035 365.755 42.4037C363.753 38.7616 358.99 37.7727 355.155 37.6039C351.32 37.435 347.388 38.0983 343.806 39.5455C343.143 39.8108 342.432 40.0761 341.817 40.4259C341.105 40.8359 340.767 41.5836 340.333 42.2831C339.368 43.8388 338.524 45.4669 337.728 47.1191C336.896 48.8677 336.221 50.6526 335.931 52.5822C335.738 53.8846 335.377 55.7539 336.052 56.9478C337.728 59.8784 340.647 61.3859 343.819 62.0491C347.629 62.8451 351.091 64.1114 355.07 63.5566C358.64 63.0622 362.258 61.41 364.598 58.6121C365.213 57.8764 364.151 56.8031 363.536 57.5508C359.52 62.3627 352.948 62.7968 347.256 61.41C344.385 60.7105 341.238 60.2643 339.007 58.1779C338.44 57.6473 337.644 56.9358 337.367 56.1881C337.162 55.6574 337.246 55.0062 337.27 54.4394C337.354 52.5339 337.801 50.6888 338.56 48.9401C339.127 47.6256 339.791 46.3352 340.478 45.0689C341.165 43.8026 341.865 42.0539 343.203 41.4389C346.399 39.9676 349.921 39.1596 353.454 39.0872C355.553 39.051 357.639 39.1596 359.617 39.8711C361.1 40.4017 362.632 40.7153 363.681 41.9695C367.178 46.1181 366.588 53.5952 363.428 57.6955C362.837 58.4674 364.151 59.2151 364.73 58.4553L364.718 58.4674Z" fill="#825C36"/>
</svg>
