<svg width="793" height="293" viewBox="0 0 793 293" fill="none" xmlns="http://www.w3.org/2000/svg">
<path d="M790.585 253.342C528.959 256.462 267.338 259.583 5.71223 262.703C3.87504 258.648 1.56796 252.471 0.533214 244.642C0.33788 243.148 0 240.197 0 232.69C0 227.178 0.184762 219.555 0.976656 210.332H791.994C792.887 217.808 793.346 226.682 792.691 236.618C792.29 242.72 791.525 248.317 790.585 253.342Z" fill="#E5BD7F"/>
<path d="M740.606 292.968H52.2445C17.2533 292.968 -7.41689 258.627 3.75409 225.467L47.6567 95.1375C54.6676 74.3212 74.1852 60.3047 96.147 60.3047H696.704C718.666 60.3047 738.183 74.3212 745.194 95.1375L789.097 225.467C800.268 258.632 775.597 292.968 740.606 292.968Z" fill="#E5BD7F"/>
<path d="M740.606 260.644H52.2445C17.2533 260.644 -7.41689 226.302 3.75409 193.143L47.6567 62.8132C54.6676 41.997 74.1852 27.9805 96.147 27.9805H696.704C718.666 27.9805 738.183 41.997 745.194 62.8132L789.097 193.143C800.268 226.308 775.597 260.644 740.606 260.644Z" fill="#F4D5A4"/>
<mask id="mask0_40000071_10230" style="mask-type:luminance" maskUnits="userSpaceOnUse" x="1" y="27" width="791" height="234">
<path d="M740.608 260.644H52.2464C17.2553 260.644 -7.41494 226.302 3.75605 193.143L47.6587 62.8132C54.6696 41.997 74.1871 27.9805 96.149 27.9805H696.706C718.667 27.9805 738.185 41.997 745.196 62.8132L789.099 193.143C800.27 226.308 775.599 260.644 740.608 260.644Z" fill="white"/>
</mask>
<g mask="url(#mask0_40000071_10230)">
<path d="M39.8209 72.6197C46.7527 72.6091 53.6897 72.7623 60.6214 72.5458C67.8223 72.3188 75.0602 71.7169 82.1028 70.1279C89.1454 68.5388 95.5228 66.0787 101.24 62.077C104.228 59.9811 106.984 57.5209 109.307 54.6965C111.857 51.5976 113.868 48.1185 115.436 44.4283C118.477 37.2696 119.892 29.6093 122.041 22.1707C122.305 21.2627 122.579 20.3547 122.864 19.4572C123.239 18.2905 121.407 17.789 121.032 18.9504C118.72 26.1725 117.411 33.6849 114.824 40.8225C113.509 44.4547 111.836 47.9654 109.629 51.1436C107.422 54.3217 104.915 56.8557 102.016 59.1469C96.6842 63.3598 90.3227 66.0734 83.7816 67.768C76.9661 69.5313 69.9288 70.2493 62.9126 70.5608C55.8964 70.8723 49.1547 70.7508 42.2758 70.7244C41.4575 70.7244 40.6392 70.7244 39.8209 70.7244C38.5961 70.7244 38.5961 72.625 39.8209 72.625V72.6197Z" fill="#EAC696"/>
<path d="M29.0938 100.633C41.1675 101.324 53.3099 100.49 65.1883 98.2199C77.0667 95.9498 88.6495 92.2226 99.6252 87.1598C110.036 82.3556 119.834 76.3055 128.83 69.1943C137.826 62.0831 145.333 54.5654 152.244 45.9971C159.165 37.4183 165.146 28.0897 169.988 18.1857C170.574 16.9821 171.144 15.7732 171.698 14.5589C172.2 13.4556 170.563 12.4894 170.056 13.5981C165.537 23.5231 159.899 32.9309 153.289 41.6047C146.69 50.2681 139.098 58.1922 130.757 65.1873C122.416 72.1824 112.749 78.5598 102.729 83.5646C92.0652 88.8966 80.7358 92.8825 69.1003 95.4747C57.4277 98.0774 45.4385 99.2494 33.4862 98.9221C32.0185 98.8798 30.5561 98.8164 29.0885 98.7372C27.8689 98.6686 27.8689 100.569 29.0885 100.638L29.0938 100.633Z" fill="#EAC696"/>
<path d="M8.5529 131.597C19.7186 133.772 31.0849 134.891 42.4565 134.949C53.7912 135.007 65.1311 134.01 76.2915 132.009C87.4519 130.008 98.4118 126.999 109.002 122.986C119.128 119.159 128.873 114.413 138.17 108.88C146.601 103.859 154.673 98.2529 162.497 92.3348C170.342 86.4009 177.944 80.1555 185.462 73.815C193.033 67.4271 200.519 60.9441 208.1 54.5667C215.602 48.258 223.198 42.0495 231.059 36.1895C238.793 30.4245 246.781 24.9868 255.138 20.1615C263.442 15.3679 272.111 11.1867 281.133 7.92413C283.361 7.1164 285.616 6.37201 287.88 5.67515C289.047 5.31616 288.551 3.48426 287.374 3.84325C278.14 6.66767 269.213 10.4477 260.671 14.9403C252.155 19.4172 244.015 24.5803 236.164 30.1394C228.224 35.7672 220.569 41.7909 213.062 47.9782C205.455 54.2447 197.985 60.6801 190.483 67.0786C182.97 73.4824 175.426 79.844 167.676 85.9574C160.021 91.9969 152.155 97.7777 143.956 103.062C135.293 108.648 126.249 113.642 116.8 117.776C106.431 122.316 95.619 125.853 84.5853 128.382C73.5463 130.916 62.2855 132.426 50.972 132.896C39.706 133.36 28.3819 132.806 17.2267 131.164C14.4921 130.763 11.768 130.293 9.04912 129.765C7.856 129.533 7.34393 131.365 8.54233 131.597H8.5529Z" fill="#EAC696"/>
<path d="M-6.51903 180.303C8.47416 181.707 23.499 183.038 38.5661 183.222C53.6333 183.407 68.3942 182.478 82.9334 179.237C90.0551 177.653 97.0607 175.499 103.802 172.701C110.544 169.903 116.979 166.45 123.14 162.543C135.462 154.73 146.633 145.285 157.894 136.047C163.506 131.443 169.149 126.882 174.983 122.558C180.669 118.34 186.503 114.322 192.447 110.474C204.357 102.755 216.711 95.734 229.275 89.1455C241.935 82.5094 254.822 76.3115 267.772 70.2614C280.696 64.2272 293.688 58.3355 306.612 52.3012C319.535 46.267 332.486 40.048 345.172 33.4066C357.858 26.7653 370.169 19.7755 382.121 12.0572C385.025 10.183 387.902 8.26659 390.753 6.30797C391.756 5.62167 390.806 3.9746 389.792 4.66619C378.035 12.7488 365.782 20.0922 353.265 26.9289C340.779 33.7498 328.025 40.0691 315.175 46.1772C302.293 52.3012 289.306 58.2035 276.361 64.1849C263.438 70.1558 250.546 76.2006 237.833 82.6096C225.121 89.0187 212.577 95.7973 200.419 103.215C188.26 110.632 176.567 118.688 165.422 127.515C154.045 136.532 143.138 146.151 131.36 154.656C125.49 158.895 119.397 162.85 112.999 166.255C106.563 169.676 99.8271 172.469 92.869 174.628C78.7838 178.999 64.0545 180.815 49.3517 181.237C34.2846 181.67 19.2123 180.678 4.20853 179.374C0.629165 179.062 -2.94495 178.73 -6.51903 178.397C-7.73327 178.281 -7.72799 180.182 -6.51903 180.298V180.303Z" fill="#EAC696"/>
<path d="M91.4599 267.881C100.862 271.165 110.909 272.311 120.823 271.614C130.891 270.906 140.784 268.42 150.166 264.74C159.684 261.008 168.722 256.087 177.148 250.301C185.986 244.23 194.169 237.219 201.987 229.902C209.911 222.49 217.477 214.703 225.068 206.958C232.692 199.182 240.357 191.427 248.445 184.125C256.169 177.151 264.304 170.647 272.783 164.608C281.261 158.568 289.861 153.12 298.773 147.978C307.684 142.836 316.812 138.079 326.077 133.613C335.395 129.126 344.855 124.929 354.406 120.948C364.046 116.925 373.77 113.114 383.537 109.418C393.319 105.712 403.144 102.122 412.974 98.5481C422.767 94.9846 432.571 91.4421 442.343 87.8205C451.481 84.4312 460.583 80.9521 469.621 77.3041C478.696 73.6403 487.708 69.8129 496.619 65.7584C505.536 61.6986 514.353 57.4118 523.011 52.8294C531.605 48.2786 540.052 43.4427 548.277 38.2479C556.502 33.0531 564.363 27.5944 571.992 21.6921C579.62 15.7899 586.758 9.64996 593.584 3.00333C600.431 -3.66969 606.867 -10.765 612.769 -18.288C615.646 -21.9571 618.407 -25.716 621.031 -29.5699C621.723 -30.5835 620.076 -31.5337 619.389 -30.5306C614.01 -22.6222 608.055 -15.1204 601.624 -8.04619C595.226 -1.00889 588.358 5.60083 581.146 11.7987C573.935 17.9966 566.364 23.7774 558.54 29.1887C550.605 34.6791 542.412 39.7895 534.044 44.5883C525.597 49.4294 516.971 53.9485 508.218 58.2089C499.46 62.4746 490.575 66.4869 481.61 70.2986C472.646 74.1155 463.603 77.7318 454.506 81.2214C445.088 84.8325 435.617 88.3009 426.141 91.7536C416.664 95.2062 406.634 98.8225 396.899 102.412C387.122 106.018 377.371 109.693 367.683 113.525C358.022 117.348 348.424 121.334 338.937 125.573C329.551 129.765 320.275 134.21 311.174 138.993C302.088 143.765 293.182 148.876 284.534 154.403C275.882 159.936 267.498 165.885 259.468 172.289C251.164 178.915 243.329 186.079 235.759 193.523C228.041 201.109 220.56 208.933 212.931 216.604C205.266 224.306 197.436 231.866 189.085 238.824C181.129 245.455 172.692 251.463 163.58 256.404C154.468 261.346 145.23 265.073 135.378 267.433C125.765 269.74 115.771 270.574 105.941 269.344C101.19 268.747 96.5016 267.628 91.9825 266.049C90.8264 265.648 90.3301 267.48 91.4757 267.881H91.4599Z" fill="#EAC696"/>
<path d="M717.853 276.656C705.124 275.289 692.364 273.853 679.889 270.891C667.414 267.93 655.673 263.558 645.331 256.331C636.604 250.233 629.52 241.713 624.942 232.115C620.534 222.865 618.454 212.175 620.682 202.054C621.806 196.928 624.018 192.129 627.107 187.885C630.274 183.529 634.355 179.86 638.816 176.867C648.087 170.643 658.92 167.058 669.737 164.603C682.165 161.784 694.851 160.153 707.584 159.672C720.318 159.192 732.967 159.831 745.521 161.594C758.16 163.373 770.646 166.261 782.777 170.236C794.862 174.196 806.587 179.232 817.753 185.319C820.472 186.803 823.159 188.349 825.809 189.949C826.86 190.583 827.815 188.941 826.77 188.307C815.651 181.581 803.9 175.922 791.731 171.366C779.636 166.836 767.135 163.405 754.428 161.108C741.71 158.812 728.791 157.624 715.868 157.613C702.875 157.603 689.878 158.775 677.102 161.145C665.64 163.273 654.142 166.25 643.774 171.709C633.975 176.867 625.328 184.538 620.967 194.901C616.849 204.694 617.155 215.749 620.386 225.748C623.739 236.116 630.016 245.556 638.046 252.889C647.126 261.183 658.614 266.594 670.265 270.226C682.682 274.09 695.611 276.002 708.498 277.506C711.618 277.87 714.738 278.214 717.863 278.546C718.375 278.599 718.808 278.071 718.813 277.596C718.819 277.036 718.37 276.698 717.863 276.646L717.853 276.656Z" fill="#EAC696"/>
<path d="M758.683 276.193C748.869 274.393 739.218 271.737 729.863 268.263C720.514 264.795 711.475 260.503 702.865 255.472C698.557 252.953 694.365 250.245 690.295 247.363C686.731 244.834 683.326 242.115 680.306 238.942C674.367 232.702 670.102 224.72 670.534 215.903C670.952 207.43 675.708 199.643 681.933 194.11C688.157 188.578 696.028 185.035 704.306 185.547C708.292 185.795 712.167 186.978 715.857 188.456C720.155 190.177 724.272 192.326 728.401 194.411C735.502 198.001 742.681 201.385 750.109 204.247C757.537 207.108 765.161 209.515 772.879 211.49C782.329 213.902 791.942 215.655 801.625 216.848C804.243 217.17 806.867 217.45 809.491 217.688C810.71 217.798 810.7 215.898 809.491 215.787C799.223 214.853 789.018 213.29 778.961 211.004C770.693 209.125 762.537 206.765 754.565 203.893C747.496 201.343 740.607 198.365 733.87 195.039C729.404 192.833 725.001 190.489 720.471 188.409C716.623 186.64 712.647 185.025 708.477 184.206C704.306 183.388 700.347 183.409 696.34 184.333C692.227 185.283 688.31 187.115 684.82 189.475C677.667 194.321 671.812 201.607 669.553 210.038C668.407 214.309 668.307 218.796 669.231 223.115C670.139 227.38 672.066 231.393 674.563 234.951C679.9 242.553 687.534 248.022 695.236 253.017C703.736 258.528 712.727 263.274 722.06 267.213C731.4 271.156 741.071 274.297 750.954 276.552C753.351 277.096 755.753 277.592 758.171 278.035C759.364 278.257 759.876 276.425 758.678 276.203L758.683 276.193Z" fill="#EAC696"/>
<path d="M655.848 20.6525C653.726 31.5859 649.434 42.0388 643.288 51.3198C640.211 55.9656 636.668 60.2789 632.735 64.2278C628.612 68.3721 624.156 72.1572 619.869 76.122C611.628 83.74 603.799 92.5828 601.392 103.881C600.31 108.964 600.463 114.365 602.421 119.227C604.021 123.203 606.671 126.666 610.008 129.348C616.934 134.923 626.22 137.372 635.026 136.755C645.749 136 655.684 130.647 664.163 124.354C673.269 117.591 681.167 109.424 689.746 102.038C698.325 94.6523 707.627 88.1852 718.613 85.2393C730.36 82.0929 742.666 82.4942 754.534 80.0604C763.836 78.1546 773.502 74.3165 779.853 66.9677C781.379 65.1992 782.693 63.2564 783.728 61.1658C784.267 60.073 782.63 59.1121 782.086 60.2049C777.81 68.8471 769.078 73.9205 760.151 76.671C749.217 80.0392 737.64 79.96 726.411 81.6969C720.588 82.5997 714.891 84.0515 709.501 86.4747C704.512 88.7184 699.867 91.6643 695.501 94.948C686.6 101.637 678.839 109.656 670.413 116.899C662.12 124.032 652.902 130.647 642.217 133.577C633.696 135.91 624.378 135.261 616.443 131.248C612.742 129.38 609.337 126.766 606.882 123.398C604.127 119.623 602.67 115.104 602.611 110.432C602.464 99.3667 609.1 89.5631 616.549 81.9662C620.614 77.8219 625.027 74.0526 629.298 70.13C633.416 66.3501 637.344 62.3906 640.797 57.9824C647.591 49.3243 652.723 39.394 655.816 28.8301C656.555 26.3013 657.178 23.7356 657.68 21.1487C657.912 19.9556 656.08 19.4435 655.848 20.6419V20.6525Z" fill="#EAC696"/>
<path d="M443.351 126.217C451.898 128.144 460.984 127.299 469.082 123.989C473.116 122.342 476.885 120.13 480.253 117.363C483.621 114.597 486.9 111.081 488.811 107.011C490.685 103.019 491.171 98.511 489.175 94.467C487.433 90.9352 483.88 88.1741 479.804 88.4328C475.729 88.6915 472.44 91.6638 469.879 94.6835C468.47 96.3465 467.192 98.1098 465.798 99.7833C464.278 101.61 462.647 103.347 460.92 104.983C457.441 108.283 453.582 111.15 449.417 113.531C445.589 115.716 440.838 117.923 440.437 122.928C440.347 124.015 440.584 125.076 441.075 126.042C441.63 127.135 443.266 126.174 442.717 125.082C441.836 123.345 442.522 121.212 443.668 119.771C445.003 118.087 446.988 117.036 448.841 116.022C452.79 113.858 456.517 111.35 459.944 108.42C463.296 105.554 466.247 102.323 468.955 98.8541C471.241 95.9241 473.686 92.5666 477.18 91.0039C480.675 89.4412 484.16 90.6976 486.372 93.5431C488.795 96.6632 489.085 100.649 487.866 104.313C486.52 108.367 483.627 111.794 480.517 114.634C477.408 117.474 474.129 119.591 470.481 121.318C463.201 124.76 454.817 126.132 446.84 124.95C445.837 124.802 444.845 124.612 443.852 124.39C442.659 124.121 442.152 125.953 443.346 126.222L443.351 126.217Z" fill="#EAC696"/>
<path d="M626.066 19.0729C617.324 21.7865 609.663 27.0762 603.344 33.6279C596.909 40.3009 591.798 48.1724 587.649 56.4345C582.66 66.3649 578.854 76.8283 574.651 87.1018C572.55 92.2386 570.343 97.3331 567.83 102.28C565.423 107.031 562.725 111.63 559.811 116.085C553.967 125.023 547.278 133.37 540.299 141.442C533.019 149.862 525.469 158.05 517.978 166.286C510.038 175.013 502.082 183.718 494.105 192.413C486.102 201.14 478.077 209.845 470.037 218.535C461.996 227.225 453.998 235.835 445.953 244.462C437.907 253.088 429.84 261.699 421.758 270.288C419.788 272.379 417.819 274.475 415.85 276.565C415.011 277.452 416.352 278.798 417.191 277.906C425.284 269.322 433.356 260.722 441.407 252.101C449.432 243.517 457.44 234.912 465.428 226.296C473.415 217.68 481.45 208.98 489.433 200.295C497.389 191.642 505.323 182.974 513.242 174.289C521.161 165.605 528.589 157.507 536.155 149.017C543.239 141.067 550.161 132.947 556.422 124.321C562.757 115.589 568.242 106.345 572.677 96.5043C577.111 86.6637 580.912 75.9625 585.347 65.821C589.254 56.8831 593.794 48.1565 599.876 40.4804C605.466 33.4219 612.298 27.2136 620.465 23.2911C622.439 22.3461 624.477 21.5489 626.568 20.9048C627.729 20.5458 627.233 18.7087 626.061 19.0729H626.066Z" fill="#EAC696"/>
<path d="M265.992 279.559C270.079 271.666 274.635 264.022 279.629 256.673C284.623 249.335 290.05 242.292 295.873 235.598C301.696 228.904 307.931 222.527 314.504 216.545C321.076 210.564 327.982 204.984 335.209 199.826C342.442 194.663 349.981 189.932 357.778 185.672C361.305 183.745 364.91 182.035 368.828 181.058C372.259 180.203 376.103 179.828 379.46 181.195C383.045 182.657 385.225 186.131 385.552 189.917C385.933 194.267 384.597 198.606 383.198 202.666C379.592 213.161 375.965 223.646 372.344 234.131C368.722 244.615 365.101 255.126 361.484 265.622C357.863 276.117 354.241 286.617 350.625 297.113C349.738 299.684 348.851 302.26 347.964 304.831C347.563 305.987 349.4 306.489 349.796 305.338C353.486 294.631 357.182 283.925 360.872 273.224C364.551 262.56 368.226 251.895 371.906 241.231C375.585 230.567 379.26 219.903 382.939 209.239C384.544 204.593 386.445 199.921 387.2 195.037C387.87 190.708 387.511 186.189 384.623 182.689C379.423 176.386 370.005 178.175 363.401 180.831C359.409 182.436 355.666 184.611 351.955 186.765C348.244 188.919 344.247 191.389 340.499 193.876C332.939 198.891 325.685 204.366 318.78 210.247C311.906 216.102 305.381 222.363 299.252 228.989C293.123 235.614 287.368 242.62 282.057 249.932C276.752 257.233 271.879 264.851 267.497 272.743C266.42 274.676 265.375 276.629 264.361 278.593C263.801 279.675 265.438 280.641 266.003 279.554L265.992 279.559Z" fill="#EAC696"/>
<path d="M774.474 271.133C766.365 270.743 758.33 268.773 750.949 265.384C747.217 263.668 743.643 261.609 740.301 259.218C737.059 256.905 733.828 254.292 731.358 251.146C729.093 248.269 727.551 244.61 728.195 240.899C728.491 239.188 729.209 237.562 730.466 236.343C731.722 235.123 733.406 234.416 735.138 234.136C739.219 233.476 743.141 235.239 746.573 237.261C750.648 239.669 754.597 242.314 758.588 244.853C766.819 250.085 775.049 255.311 783.28 260.543C784.32 261.203 785.354 261.863 786.394 262.523C787.434 263.183 788.385 261.536 787.355 260.881C778.681 255.369 770.007 249.858 761.334 244.341C757.105 241.654 752.908 238.919 748.642 236.29C744.973 234.025 740.897 231.956 736.463 232.114C732.572 232.251 728.808 234.141 727.171 237.816C725.535 241.49 726.015 245.518 727.731 248.976C729.616 252.767 732.846 255.76 736.093 258.389C739.34 261.018 743.03 263.478 746.837 265.479C754.428 269.47 762.759 271.978 771.296 272.812C772.357 272.918 773.418 272.991 774.479 273.039C775.699 273.097 775.699 271.197 774.479 271.139L774.474 271.133Z" fill="#EAC696"/>
<path d="M508.116 263.237C512.091 251.501 517.587 240.309 524.382 229.951C531.176 219.598 539.28 210.106 548.445 201.775C550.709 199.716 553.043 197.726 555.434 195.815C557.958 193.798 560.608 191.75 563.649 190.572C566.399 189.511 569.44 189.274 572.043 190.857C573.917 191.998 575.168 193.909 575.918 195.931C577.861 201.163 577.338 206.933 577.159 212.386C576.905 220.015 576.652 227.649 576.398 235.277C575.892 250.54 575.385 265.797 574.883 281.059C574.82 282.902 574.762 284.744 574.698 286.587C574.656 287.812 576.557 287.806 576.599 286.587C577.116 270.976 577.634 255.365 578.151 239.754C578.41 231.946 578.669 224.143 578.927 216.335C579.043 212.761 579.26 209.176 579.249 205.602C579.239 203.01 579.049 200.387 578.468 197.852C577.887 195.318 576.953 193.054 575.311 191.164C573.564 189.147 571.035 187.959 568.374 187.811C565.011 187.621 561.733 189.121 558.961 190.884C556.189 192.647 553.74 194.706 551.28 196.775C541.566 204.943 532.945 214.392 525.622 224.756C518.3 235.119 512.308 246.422 507.857 258.306C507.308 259.773 506.78 261.252 506.279 262.735C505.888 263.896 507.72 264.393 508.111 263.242L508.116 263.237Z" fill="#EAC696"/>
<path d="M493.024 12.4043C484.356 13.1381 475.724 14.3524 467.182 16.0101C458.64 17.6678 450.241 19.7584 441.926 22.2291C433.637 24.6946 425.46 27.5348 417.404 30.6813C409.347 33.8277 401.307 37.3279 393.436 41.0498C385.564 44.7717 377.709 48.7945 370.011 52.9863C362.23 57.2203 354.559 61.6548 346.967 66.2267C339.386 70.7933 331.89 75.5078 324.462 80.3119C317.034 85.1161 309.669 90.01 302.341 94.962C295.067 99.8717 287.829 104.839 280.596 109.813C274.06 114.311 267.53 118.819 261.026 123.37C254.474 127.952 247.949 132.577 241.471 137.26C234.946 141.979 228.468 146.768 222.054 151.646C215.64 156.524 209.352 161.449 203.122 166.507C196.893 171.565 190.832 176.68 184.851 181.954C178.869 187.228 173.088 192.571 167.418 198.103C161.748 203.636 156.274 209.28 150.968 215.124C145.726 220.894 140.674 226.833 135.848 232.957C131.023 239.081 126.462 245.327 122.154 251.789C117.846 258.25 113.844 264.855 110.149 271.655C106.453 278.454 103.048 285.508 100.018 292.677C98.5237 296.214 97.1194 299.788 95.7996 303.394C95.3825 304.545 97.2144 305.041 97.6315 303.901C100.298 296.594 103.344 289.425 106.738 282.424C110.122 275.45 113.849 268.645 117.878 262.02C121.879 255.437 126.177 249.033 130.722 242.808C135.278 236.574 140.088 230.524 145.098 224.642C150.108 218.761 155.419 212.959 160.846 207.369C166.273 201.778 172.006 196.208 177.803 190.855C183.621 185.481 189.57 180.254 195.62 175.154C201.671 170.055 207.9 165.013 214.167 160.098C220.444 155.183 226.8 150.368 233.214 145.627C239.629 140.887 246.101 136.22 252.605 131.606C259.109 126.991 265.64 122.435 272.191 117.9C279.023 113.17 285.87 108.466 292.733 103.778C299.987 98.8211 307.262 93.8956 314.589 89.0439C321.97 84.1553 329.398 79.3405 336.905 74.642C344.365 69.9698 351.898 65.419 359.527 61.0319C367.155 56.6448 374.805 52.4689 382.603 48.4883C390.347 44.5341 398.203 40.8016 406.18 37.3437C414.157 33.8857 422.134 30.7657 430.29 27.9571C438.452 25.1432 446.735 22.6725 455.124 20.6083C463.492 18.5494 471.96 16.897 480.491 15.7039C484.651 15.1231 488.822 14.6639 493.008 14.3102C494.217 14.2099 494.228 12.3093 493.008 12.4096L493.024 12.4043Z" fill="#EAC696"/>
</g>
<path d="M160.725 216.842C152.686 220.395 140.738 224.905 128.095 226.979C112.832 229.485 100.208 227.879 90.5801 222.205C79.4995 215.676 71.5325 203.304 68.1498 187.365C65.3946 174.373 65.8494 159.596 69.4717 144.636C73.4222 128.304 80.8881 112.279 91.6627 96.9836L160.725 216.842ZM70.956 115.64C65.9543 125.363 62.1517 135.337 59.5831 145.476C55.4889 161.645 54.7642 177.846 57.4893 192.32C61.0183 211.069 69.9745 225.844 82.7129 233.924C113.178 253.245 159.589 229.356 165.95 225.905L166.318 226.544C163.016 228.339 149.315 235.525 132.241 240.659C121.549 243.873 111.63 245.643 102.756 245.917C91.8184 246.255 82.4363 244.308 74.8793 240.13C62.5038 233.289 53.8439 219.93 50.4917 202.517C47.5742 187.364 48.8599 170.003 54.2132 152.31C57.9764 139.871 63.5795 127.604 70.9589 115.638L70.956 115.64Z" fill="#EEF2DA"/>
<path d="M135.787 238.67C134.546 239.076 133.28 239.474 131.993 239.86C121.37 243.053 111.524 244.812 102.726 245.084C91.9383 245.416 82.7042 243.506 75.2809 239.4C63.1255 232.682 54.6148 219.528 51.3086 202.361C48.4184 187.342 49.6961 170.119 55.0079 152.554C56.9502 146.13 59.4289 139.673 62.4045 133.267C60.9978 137.238 59.7847 141.239 58.7653 145.27C54.6395 161.557 53.9133 177.882 56.6604 192.474C58.4234 201.849 61.5379 210.271 65.915 217.501C70.3237 224.785 75.8205 230.547 82.2562 234.629C89.6892 239.343 98.6724 241.881 108.958 242.173C117.13 242.403 126.156 241.225 135.786 238.667M159.533 216.454C151.561 219.922 140.077 224.168 127.961 226.156C112.895 228.628 100.462 227.059 91.0078 221.487C80.1307 215.078 72.3062 202.9 68.9732 187.194C66.2416 174.322 66.6982 159.674 70.2876 144.836C74.123 128.989 81.2866 113.429 91.5981 98.5474L159.538 216.455M167.466 226.867L88.6722 90.1197C88.6722 90.1197 88.6513 90.1433 88.6403 90.1573L91.6065 95.6137C53.1395 149.477 61.1732 205.854 90.1527 222.928C112.55 236.123 145.395 224.628 161.84 217.261L166.197 224.809C163.636 226.249 114.532 253.116 83.1559 233.213C51.9578 213.425 43.2307 151.418 85.2883 94.1589C34.2144 156.604 40.9191 222.313 74.4717 240.86C108.109 259.454 164.518 228.527 167.466 226.859L167.466 226.867Z" fill="#C5D8B8"/>
<path d="M87.2945 90.4217C86.2124 91.8209 85.1722 93.2265 84.1515 94.6324C85.2204 93.3099 86.3058 91.9893 87.427 90.6711L87.2917 90.4234L87.2945 90.4217Z" fill="#FDFFF5"/>
<path d="M83.0986 233.062C114.214 253.112 162.472 226.738 164.99 225.322L160.632 217.775C144.458 224.985 112.13 236.182 89.9258 222.876C61.1964 205.658 52.8436 149.464 90.3991 96.1272L87.4301 90.6726C86.3088 91.9908 85.2234 93.3113 84.1545 94.6338C43.0802 151.325 52.1638 213.127 83.1002 233.065L83.0986 233.062Z" fill="#FDFFF5"/>
<path d="M89.9243 222.874C112.129 236.181 144.457 224.984 160.631 217.773L156.406 210.456C139.299 216.921 115.348 222.74 98.4712 213.707C73.2029 200.18 66.5939 154.849 97.0808 107.702L90.3993 96.1288C52.8438 149.466 61.1966 205.659 89.9259 222.877L89.9243 222.874Z" fill="#F2F9DC"/>
<path d="M105.199 204.719C82.6492 193.717 76.778 156.417 101.197 114.835L97.077 107.699C66.5901 154.846 73.1991 200.177 98.4674 213.704C115.344 222.738 139.295 216.918 156.402 210.453L152.216 203.202C136.714 208.165 118.468 211.189 105.197 204.717L105.199 204.719Z" fill="white"/>
<path d="M105.2 204.72C118.473 211.195 136.717 208.168 152.219 203.205L148.5 196.765C135.557 200.243 121.908 201.701 111.673 197.287C91.7891 188.709 86.6566 158.784 105.978 123.113L101.2 114.838C76.781 156.42 82.6521 193.72 105.202 204.723L105.2 204.72Z" fill="#F9FFEB"/>
<path d="M118.721 189.515C101.713 183.23 97.0113 160.604 110.922 131.672L105.977 123.106C86.655 158.782 91.7904 188.706 111.673 197.28C121.908 201.695 135.559 200.239 148.5 196.758L144.544 189.906C135.103 191.807 125.936 192.177 118.72 189.512L118.721 189.515Z" fill="#FEFFEE"/>
<path d="M118.724 189.516C125.938 192.183 135.108 191.811 144.549 189.91L140.907 183.602C135.241 184.213 129.958 184.02 125.516 182.635C111.312 178.204 106.74 161.906 115.558 139.697L110.925 131.673C97.0171 160.603 101.716 183.231 118.724 189.516Z" fill="#F3F7D5"/>
<path d="M131.115 176.355C119.705 173.485 115.254 162.649 119.748 146.959L115.556 139.699C106.737 161.908 111.308 178.203 125.514 182.637C129.955 184.021 135.235 184.216 140.904 183.604L137.174 177.143C135.014 177.079 132.982 176.826 131.116 176.358L131.115 176.355Z" fill="white"/>
<path d="M131.114 176.356C132.979 176.824 135.01 177.074 137.172 177.141L133.741 171.198C133.398 171.196 133.063 171.186 132.735 171.169C123.96 170.711 120.918 164.93 124.508 155.206L119.748 146.962C115.258 162.651 119.706 173.489 131.116 176.359L131.114 176.356Z" fill="#E8EFC5"/>
<path d="M132.735 171.168C133.063 171.186 133.398 171.195 133.74 171.197L124.506 155.202C120.914 164.932 123.959 170.71 132.733 171.166L132.735 171.168Z" fill="#CDDD6B"/>
<path d="M165.317 226.061C162.474 227.664 108.059 257.478 75.3572 239.096C42.0361 220.366 35.5045 153.774 88.0843 92.0315L165.314 226.063M167.549 226.674L166.727 225.251L89.4977 91.2193L88.3423 89.2181L86.8458 90.9753C78.8673 100.343 71.9561 110.172 66.3014 120.191C60.9736 129.635 56.7163 139.319 53.6531 148.974C47.9392 166.978 46.3981 184.794 49.2007 200.484C50.8296 209.607 53.8492 217.712 58.1789 224.574C62.5464 231.495 68.058 236.858 74.5601 240.511C82.2954 244.858 91.8143 246.93 102.85 246.662C111.652 246.449 121.459 244.758 131.997 241.629C150.847 236.037 165.501 227.822 166.117 227.474L167.549 226.666L167.549 226.674Z" fill="#C5D8B8"/>
<path d="M205.071 157.715C197.032 161.268 185.083 165.778 172.441 167.852C157.177 170.358 144.554 168.752 134.926 163.078C123.845 156.549 115.878 144.177 112.495 128.238C109.74 115.246 110.195 100.469 113.817 85.5086C117.768 69.1775 125.234 53.1516 136.008 37.8567L205.071 157.715ZM115.305 56.5112C110.303 66.2343 106.5 76.2082 103.932 86.3474C99.8375 102.516 99.1128 118.717 101.838 133.192C105.367 151.94 114.323 166.716 127.061 174.795C157.526 194.116 203.937 170.227 210.299 166.777L210.667 167.415C207.364 169.211 193.663 176.396 176.59 181.531C165.897 184.744 155.978 186.515 147.105 186.789C136.167 187.127 126.785 185.179 119.228 181.001C106.852 174.161 98.1924 160.801 94.8403 143.389C91.9227 128.236 93.2085 110.875 98.5618 93.1817C102.325 80.7426 107.928 68.4756 115.307 56.5095L115.305 56.5112Z" fill="#EEF2DA"/>
<path d="M180.137 179.541C178.896 179.947 177.63 180.345 176.343 180.731C165.719 183.924 155.874 185.683 147.076 185.955C136.288 186.287 127.054 184.377 119.631 180.271C107.475 173.553 98.9644 160.399 95.6582 143.232C92.768 128.213 94.0457 110.99 99.3576 93.4248C101.3 87.0015 103.779 80.5446 106.754 74.1381C105.347 78.1092 104.134 82.1103 103.115 86.1414C98.9891 102.428 98.263 118.753 101.01 133.345C102.773 142.72 105.888 151.142 110.265 158.372C114.673 165.656 120.17 171.418 126.606 175.5C134.039 180.214 143.022 182.752 153.307 183.044C161.48 183.275 170.506 182.096 180.135 179.538M203.88 157.326C195.907 160.795 184.423 165.04 172.307 167.029C157.242 169.501 144.808 167.931 135.355 162.36C124.477 155.951 116.653 143.773 113.32 128.066C110.588 115.194 111.045 100.547 114.634 85.7088C118.47 69.8621 125.633 54.302 135.945 39.4201L203.885 157.328M211.816 167.738L133.022 30.9908C133.022 30.9908 133.001 31.0144 132.99 31.0284L135.956 36.4847C97.4891 90.3479 105.523 146.726 134.502 163.799C156.899 176.994 189.745 165.499 206.189 158.132L210.547 165.68C207.986 167.12 158.882 193.987 127.505 174.084C96.3075 154.296 87.5804 92.2888 129.638 35.03C78.564 97.4752 85.2687 163.184 118.821 181.731C152.458 200.325 208.868 169.398 211.815 167.731L211.816 167.738Z" fill="#C5D8B8"/>
<path d="M131.64 31.2948C130.558 32.694 129.518 34.0995 128.497 35.5054C129.566 34.1829 130.651 32.8624 131.773 31.5442L131.637 31.2964L131.64 31.2948Z" fill="#FDFFF5"/>
<path d="M127.446 173.935C158.562 193.985 206.819 167.611 209.338 166.195L204.98 158.648C188.806 165.858 156.478 177.055 134.273 163.749C105.544 146.531 97.1912 90.3372 134.747 37.0003L131.778 31.5456C130.656 32.8638 129.571 34.1844 128.502 35.5069C87.4279 92.1979 96.5115 154 127.448 173.938L127.446 173.935Z" fill="#FDFFF5"/>
<path d="M134.272 163.745C156.476 177.052 188.804 165.855 204.979 158.645L200.754 151.327C183.647 157.792 159.696 163.612 142.819 154.578C117.551 141.051 110.942 95.72 141.428 48.5727L134.747 36.9999C97.1914 90.3368 105.544 146.53 134.274 163.748L134.272 163.745Z" fill="#F2F9DC"/>
<path d="M149.55 145.591C127.001 134.588 121.13 97.2877 145.549 55.7061L141.429 48.5698C110.942 95.7171 117.551 141.048 142.819 154.576C159.696 163.609 183.647 157.789 200.754 151.324L196.567 144.073C181.066 149.036 162.82 152.06 149.548 145.588L149.55 145.591Z" fill="white"/>
<path d="M149.548 145.591C162.82 152.066 181.065 149.039 196.566 144.076L192.848 137.636C179.905 141.114 166.256 142.573 156.021 138.158C136.137 129.581 131.004 99.6551 150.325 63.9841L145.548 55.7093C121.129 97.2909 127 134.591 149.549 145.594L149.548 145.591Z" fill="#F9FFEB"/>
<path d="M163.067 130.39C146.059 124.105 141.357 101.479 155.268 72.5466L150.323 63.9813C131.001 99.6568 136.136 129.581 156.019 138.155C166.254 142.57 179.904 141.114 192.846 137.633L188.89 130.781C179.449 132.682 170.282 133.052 163.065 130.387L163.067 130.39Z" fill="#FEFFEE"/>
<path d="M163.068 130.389C170.281 133.056 179.451 132.684 188.893 130.783L185.251 124.475C179.584 125.086 174.301 124.893 169.86 123.508C155.655 119.078 151.084 102.779 159.902 80.5704L155.269 72.5457C141.361 101.477 146.06 124.104 163.068 130.389Z" fill="#F3F7D5"/>
<path d="M175.462 117.228C164.053 114.358 159.602 103.522 164.095 87.832L159.904 80.572C151.085 102.781 155.655 119.076 169.862 123.51C174.303 124.894 179.583 125.089 185.252 124.477L181.522 118.016C179.361 117.952 177.329 117.699 175.464 117.231L175.462 117.228Z" fill="white"/>
<path d="M175.462 117.227C177.327 117.695 179.357 117.945 181.52 118.012L178.088 112.069C177.746 112.067 177.411 112.057 177.083 112.04C168.308 111.582 165.265 105.801 168.855 96.0767L164.096 87.8335C159.606 103.522 164.054 114.36 175.463 117.23L175.462 117.227Z" fill="#E8EFC5"/>
<path d="M177.08 112.039C177.408 112.057 177.744 112.067 178.086 112.068L168.851 96.0735C165.26 105.803 168.305 111.582 177.079 112.037L177.08 112.039Z" fill="#CDDD6B"/>
<path d="M209.663 166.934C206.82 168.537 152.405 198.351 119.703 179.969C86.3818 161.239 79.8502 94.6473 132.43 32.9045L209.66 166.936M211.895 167.547L211.073 166.124L133.843 32.0923L132.688 30.0912L131.192 31.8484C123.213 41.2162 116.302 51.0449 110.647 61.0645C105.319 70.5082 101.062 80.1925 97.9988 89.8468C92.2849 107.852 90.7438 125.667 93.5464 141.357C95.1753 150.48 98.1949 158.585 102.525 165.447C106.892 172.368 112.404 177.731 118.906 181.384C126.641 185.731 136.16 187.803 147.196 187.535C155.997 187.322 165.805 185.631 176.343 182.502C195.192 176.91 209.847 168.695 210.463 168.347L211.894 167.539L211.895 167.547Z" fill="#C5D8B8"/>
<path d="M270.006 160.881C261.967 164.434 250.019 168.944 237.377 171.018C222.113 173.524 209.489 171.918 199.861 166.244C188.781 159.715 180.814 147.343 177.431 131.404C174.676 118.412 175.131 103.635 178.753 88.6746C182.703 72.3435 190.169 56.3176 200.944 41.0227L270.006 160.881ZM180.237 59.6789C175.236 69.4019 171.433 79.3758 168.864 89.5151C164.77 105.684 164.045 121.885 166.771 136.359C170.3 155.108 179.256 169.883 191.994 177.963C222.459 197.284 268.87 173.395 275.231 169.944L275.6 170.583C272.297 172.378 258.596 179.564 241.522 184.699C230.83 187.912 220.911 189.682 212.037 189.956C201.1 190.295 191.718 188.347 184.16 184.169C171.785 177.329 163.125 163.969 159.773 146.556C156.855 131.403 158.141 114.042 163.494 96.3494C167.258 83.9102 172.861 71.6432 180.24 59.6772L180.237 59.6789Z" fill="#EEF2DA"/>
<path d="M245.071 182.708C243.83 183.114 242.564 183.511 241.277 183.898C230.654 187.091 220.808 188.849 212.01 189.122C201.222 189.454 191.988 187.543 184.565 183.437C172.41 176.719 163.899 163.565 160.593 146.398C157.703 131.379 158.98 114.157 164.292 96.5911C166.234 90.1678 168.713 83.7109 171.689 77.3044C170.282 81.2755 169.069 85.2766 168.049 89.3077C163.924 105.594 163.197 121.919 165.944 136.511C167.708 145.886 170.822 154.308 175.199 161.538C179.608 168.822 185.105 174.585 191.54 178.666C198.973 183.38 207.957 185.919 218.242 186.21C226.414 186.441 235.441 185.262 245.07 182.705M268.815 160.493C260.842 163.961 249.358 168.207 237.242 170.195C222.177 172.667 209.743 171.098 200.289 165.527C189.412 159.117 181.587 146.939 178.254 131.233C175.523 118.361 175.979 103.713 179.569 88.8751C183.404 73.0284 190.568 57.4683 200.879 42.5864L268.819 160.494M276.747 170.906L197.953 34.1588C197.953 34.1588 197.933 34.1823 197.922 34.1964L200.888 39.6527C162.421 93.5159 170.454 149.894 199.434 166.967C221.831 180.162 254.676 168.667 271.121 161.3L275.479 168.848C272.917 170.288 223.813 197.155 192.437 177.252C161.239 157.464 152.512 95.4568 194.57 38.198C143.496 100.643 150.2 166.352 183.753 184.899C217.39 203.493 273.799 172.566 276.747 170.899L276.747 170.906Z" fill="#C5D8B8"/>
<path d="M196.576 34.4608C195.494 35.86 194.453 37.2656 193.433 38.6715C194.502 37.3489 195.587 36.0284 196.708 34.7102L196.573 34.4625L196.576 34.4608Z" fill="#FDFFF5"/>
<path d="M192.38 177.103C223.495 197.153 271.753 170.779 274.271 169.363L269.914 161.816C253.739 169.026 221.411 180.223 199.207 166.917C170.478 149.699 162.125 93.5052 199.68 40.1682L196.711 34.7136C195.59 36.0318 194.505 37.3523 193.436 38.6748C152.361 95.3659 161.445 157.168 192.381 177.106L192.38 177.103Z" fill="#FDFFF5"/>
<path d="M199.204 166.913C221.408 180.22 253.736 169.023 269.91 161.812L265.685 154.495C248.578 160.96 224.628 166.779 207.75 157.746C182.482 144.219 175.873 98.888 206.36 51.7406L199.679 40.1679C162.123 93.5048 170.476 149.698 199.205 166.916L199.204 166.913Z" fill="#F2F9DC"/>
<path d="M214.48 148.757C191.93 137.754 186.059 100.454 210.478 58.8721L206.358 51.7358C175.871 98.8831 182.48 144.214 207.749 157.742C224.626 166.775 248.577 160.955 265.684 154.49L261.497 147.239C245.995 152.202 227.749 155.226 214.478 148.754L214.48 148.757Z" fill="white"/>
<path d="M214.481 148.757C227.754 155.232 245.998 152.205 261.5 147.242L257.782 140.802C244.839 144.28 231.19 145.739 220.954 141.324C201.07 132.747 195.938 102.821 215.259 67.1502L210.481 58.8753C186.062 100.457 191.933 137.757 214.483 148.76L214.481 148.757Z" fill="#F9FFEB"/>
<path d="M228.003 133.556C210.994 127.271 206.293 104.645 220.204 75.7126L215.259 67.1473C195.936 102.823 201.072 132.747 220.954 141.321C231.189 145.736 244.84 144.28 257.781 140.799L253.825 133.947C244.384 135.848 235.217 136.218 228.001 133.553L228.003 133.556Z" fill="#FEFFEE"/>
<path d="M228.006 133.557C235.219 136.224 244.389 135.852 253.83 133.951L250.188 127.643C244.522 128.254 239.239 128.061 234.798 126.676C220.593 122.245 216.021 105.947 224.84 83.7384L220.207 75.7137C206.298 104.644 210.997 127.272 228.006 133.557Z" fill="#F3F7D5"/>
<path d="M240.394 120.394C228.984 117.524 224.534 106.688 229.027 90.998L224.835 83.7381C216.017 105.947 220.587 122.242 234.793 126.676C239.234 128.06 244.515 128.255 250.184 127.643L246.454 121.182C244.293 121.118 242.261 120.865 240.396 120.397L240.394 120.394Z" fill="white"/>
<path d="M240.393 120.395C242.258 120.863 244.289 121.113 246.451 121.18L243.02 115.237C242.678 115.235 242.342 115.225 242.014 115.208C233.239 114.75 230.197 108.969 233.787 99.2447L229.028 91.0014C224.537 106.69 228.985 117.528 240.395 120.398L240.393 120.395Z" fill="#E8EFC5"/>
<path d="M242.014 115.207C242.342 115.225 242.677 115.235 243.02 115.236L233.785 99.2415C230.194 108.971 233.239 114.749 242.012 115.205L242.014 115.207Z" fill="#CDDD6B"/>
<path d="M274.598 170.102C271.755 171.705 217.341 201.519 184.638 183.137C151.317 164.407 144.786 97.8153 197.366 36.0725L274.595 170.104M276.83 170.715L276.009 169.292L198.779 35.2603L197.624 33.2591L196.127 35.0164C188.149 44.3841 181.237 54.2129 175.583 64.2325C170.255 73.6762 165.998 83.3605 162.934 93.0148C157.22 111.019 155.679 128.835 158.482 144.525C160.111 153.648 163.13 161.753 167.46 168.615C171.828 175.536 177.339 180.899 183.841 184.552C191.577 188.899 201.096 190.971 212.131 190.703C220.933 190.49 230.741 188.799 241.279 185.67C260.128 180.078 274.783 171.863 275.398 171.515L276.83 170.707L276.83 170.715Z" fill="#C5D8B8"/>
<path d="M253.114 216.842C245.075 220.395 233.126 224.905 220.484 226.979C205.22 229.485 192.597 227.879 182.969 222.205C171.888 215.676 163.921 203.304 160.538 187.365C157.783 174.373 158.238 159.596 161.86 144.636C165.811 128.304 173.277 112.279 184.051 96.9836L253.114 216.842ZM163.345 115.64C158.343 125.363 154.54 135.337 151.972 145.476C147.878 161.645 147.153 177.846 149.878 192.32C153.407 211.069 162.363 225.844 175.102 233.924C205.567 253.245 251.977 229.356 258.339 225.905L258.707 226.544C255.404 228.339 241.704 235.525 224.63 240.659C213.938 243.873 204.019 245.643 195.145 245.917C184.207 246.255 174.825 244.308 167.268 240.13C154.892 233.289 146.233 219.93 142.88 202.517C139.963 187.364 141.249 170.003 146.602 152.31C150.365 139.871 155.968 127.604 163.348 115.638L163.345 115.64Z" fill="#EEF2DA"/>
<path d="M228.179 238.669C226.937 239.075 225.672 239.472 224.384 239.859C213.761 243.052 203.916 244.81 195.118 245.083C184.33 245.415 175.096 243.504 167.672 239.398C155.517 232.68 147.006 219.526 143.7 202.359C140.81 187.34 142.088 170.118 147.4 152.552C149.342 146.129 151.82 139.672 154.796 133.265C153.389 137.236 152.176 141.238 151.157 145.269C147.031 161.555 146.305 177.88 149.052 192.472C150.815 201.847 153.929 210.269 158.307 217.499C162.715 224.783 168.212 230.545 174.648 234.627C182.081 239.341 191.064 241.879 201.349 242.171C209.522 242.402 218.548 241.223 228.177 238.666M251.922 216.454C243.949 219.922 232.465 224.168 220.349 226.156C205.284 228.628 192.85 227.059 183.396 221.487C172.519 215.078 164.695 202.9 161.362 187.194C158.63 174.322 159.087 159.674 162.676 144.836C166.512 128.989 173.675 113.429 183.987 98.5474L251.927 216.455M259.855 226.867L181.061 90.1197C181.061 90.1197 181.04 90.1433 181.029 90.1573L183.995 95.6137C145.528 149.477 153.562 205.854 182.541 222.928C204.938 236.123 237.784 224.628 254.228 217.261L258.586 224.809C256.025 226.249 206.921 253.116 175.545 233.213C144.347 213.425 135.619 151.418 177.677 94.1589C126.603 156.604 133.308 222.313 166.86 240.86C200.498 259.454 256.907 228.527 259.854 226.859L259.855 226.867Z" fill="#C5D8B8"/>
<path d="M179.683 90.4217C178.601 91.8209 177.561 93.2265 176.54 94.6324C177.609 93.3099 178.694 91.9893 179.816 90.6711L179.68 90.4234L179.683 90.4217Z" fill="#FDFFF5"/>
<path d="M175.487 233.064C206.603 253.114 254.86 226.74 257.379 225.324L253.021 217.777C236.847 224.987 204.519 236.184 182.314 222.877C153.585 205.66 145.232 149.466 182.788 96.1292L179.819 90.6745C178.697 91.9928 177.612 93.3133 176.543 94.6358C135.469 151.327 144.553 213.129 175.489 233.067L175.487 233.064Z" fill="#FDFFF5"/>
<path d="M182.311 222.876C204.515 236.183 236.843 224.986 253.018 217.775L248.793 210.458C231.686 216.923 207.735 222.742 190.858 213.709C165.59 200.182 158.981 154.851 189.468 107.704L182.786 96.1308C145.23 149.468 153.583 205.661 182.313 222.879L182.311 222.876Z" fill="#F2F9DC"/>
<path d="M197.587 204.719C175.038 193.717 169.167 156.417 193.586 114.835L189.466 107.699C158.979 154.846 165.588 200.177 190.856 213.704C207.733 222.738 231.684 216.918 248.791 210.453L244.604 203.202C229.103 208.165 210.857 211.189 197.586 204.717L197.587 204.719Z" fill="white"/>
<path d="M197.589 204.72C210.861 211.195 229.106 208.168 244.607 203.205L240.889 196.765C227.946 200.243 214.297 201.701 204.062 197.287C184.178 188.709 179.045 158.784 198.366 123.113L193.589 114.838C169.17 156.42 175.041 193.72 197.59 204.723L197.589 204.72Z" fill="#F9FFEB"/>
<path d="M211.11 189.517C194.102 183.232 189.4 160.606 203.311 131.674L198.366 123.108C179.044 158.784 184.179 188.707 204.062 197.282C214.297 201.697 227.947 200.241 240.889 196.76L236.933 189.908C227.492 191.809 218.325 192.179 211.108 189.514L211.11 189.517Z" fill="#FEFFEE"/>
<path d="M211.113 189.518C218.326 192.185 227.496 191.813 236.938 189.912L233.295 183.604C227.629 184.215 222.346 184.022 217.905 182.637C203.7 178.206 199.128 161.908 207.947 139.699L203.314 131.675C189.406 160.605 194.105 183.233 211.113 189.518Z" fill="#F3F7D5"/>
<path d="M223.502 176.357C212.092 173.487 207.641 162.651 212.134 146.961L207.943 139.701C199.124 161.91 203.694 178.205 217.901 182.639C222.342 184.023 227.622 184.218 233.291 183.605L229.561 177.145C227.4 177.081 225.368 176.828 223.503 176.36L223.502 176.357Z" fill="white"/>
<path d="M223.501 176.356C225.366 176.824 227.396 177.074 229.559 177.141L226.127 171.198C225.785 171.196 225.45 171.186 225.122 171.169C216.347 170.711 213.304 164.93 216.894 155.206L212.135 146.962C207.645 162.651 212.093 173.489 223.502 176.359L223.501 176.356Z" fill="#E8EFC5"/>
<path d="M225.121 171.168C225.449 171.186 225.785 171.195 226.127 171.197L216.892 155.202C213.301 164.932 216.346 170.71 225.12 171.166L225.121 171.168Z" fill="#CDDD6B"/>
<path d="M257.706 226.063C254.863 227.666 200.448 257.48 167.746 239.098C134.425 220.367 127.893 153.776 180.473 92.0334L257.703 226.065M259.938 226.676L259.116 225.253L181.886 91.2212L180.731 89.2201L179.234 90.9773C171.256 100.345 164.345 110.174 158.69 120.193C153.362 129.637 149.105 139.321 146.042 148.976C140.328 166.98 138.787 184.796 141.589 200.486C143.218 209.609 146.238 217.714 150.568 224.576C154.935 231.497 160.447 236.86 166.949 240.513C174.684 244.86 184.203 246.932 195.238 246.664C204.04 246.451 213.848 244.76 224.386 241.631C243.235 236.039 257.89 227.824 258.506 227.476L259.937 226.668L259.938 226.676Z" fill="#C5D8B8"/>
<path d="M379.211 109.865C381.142 110.29 383.278 110.637 385.539 110.871C395.721 111.976 406.826 110.729 417.305 105.696C423.336 102.799 434.719 97.093 439.993 82.8393C441.818 77.9088 442.254 73.6915 442.682 69.5621C443.483 61.8116 445.136 46.7971 437.491 30.5426C434.361 23.8858 430.527 18.6371 426.778 14.5734C426.775 14.4966 426.778 14.4162 426.771 14.3394C420.93 6.30357 413.746 2.85808 411.332 1.80469C400.945 6.73516 387.784 14.1016 374.05 25.0489C359.35 36.7679 348.772 48.7978 341.673 58.0077C340.4 59.767 338.769 62.5029 338.066 65.7838C338.344 66.3105 338.663 66.8189 338.992 67.3163C338.86 68.3624 338.805 69.467 338.871 70.6338C339.12 75.1436 340.941 78.4501 344.028 84.0426C347.364 90.0923 350.762 94.3169 351.874 95.6044C357.137 101.705 367.225 107.345 379.215 109.862L379.211 109.865Z" fill="white"/>
<path d="M378.725 111.627C389.712 113.979 401.439 113.526 412.079 109.817C419.248 107.315 426.365 103.544 431.921 98.3135C439.317 91.3494 443.066 82.0773 444.233 72.114C445.235 63.5552 445.688 55.0183 444.31 46.4704C442.309 34.0894 436.522 22.5167 428.07 13.2812L428.604 14.576C428.564 13.0983 427.185 11.8511 426.274 10.7757C425.198 9.50654 424.039 8.3032 422.81 7.18031C420.78 5.32956 418.556 3.66531 416.197 2.26079C414.899 1.48903 413.106 0.212516 411.574 0.0150048C410.363 -0.142273 408.845 0.976976 407.792 1.49636C406.49 2.13644 405.195 2.79482 403.907 3.46782C391.011 10.1905 378.889 18.3836 367.832 27.8276C357.778 36.4156 348.557 46.0571 340.51 56.5509C338.718 58.8844 337.299 61.5508 336.527 64.4001C336.289 65.2706 336.143 65.8631 336.487 66.7153C336.83 67.5676 337.09 67.681 337.046 68.6063C336.969 70.2559 337.086 71.9055 337.405 73.5295C337.961 76.3605 339.244 79.0086 340.579 81.5433C342.288 84.784 344.091 87.9734 346.143 91.0093C349.277 95.6508 352.774 99.6559 357.423 102.845C363.791 107.209 371.212 110.018 378.725 111.635C381.022 112.128 382.002 108.602 379.698 108.109C369.716 105.962 359.098 101.635 352.489 93.5111C349.105 89.3524 346.391 84.6889 343.879 79.9669C342.701 77.7504 341.582 75.4864 341.026 73.0211C340.748 71.7885 340.645 70.5339 340.675 69.2721C340.689 68.5003 340.949 67.5932 340.755 66.8397C340.576 66.1484 339.991 65.4901 339.643 64.8719L339.826 66.2801C341.095 60.8376 344.925 56.6789 348.44 52.5201C352.43 47.7982 356.647 43.2627 361.073 38.9431C371.373 28.8919 382.81 20.0441 395.122 12.5972C400.67 9.23953 406.395 6.17447 412.251 3.38736H410.403C413.659 4.81749 416.716 6.72676 419.408 9.04569C420.403 9.90523 421.358 10.816 422.261 11.7706C422.821 12.3631 423.362 12.9703 423.885 13.5994C424.109 13.8664 424.324 14.1371 424.54 14.4114C424.639 14.7552 424.749 14.8393 424.869 14.6528C425.023 14.4407 425.07 14.576 425.008 15.0588C426.38 17.2643 428.388 19.1553 429.924 21.2877C437.174 31.3425 441.146 43.281 441.537 55.6547C441.672 59.978 441.387 64.2831 440.948 68.5808C440.363 74.3013 439.544 79.9304 437.031 85.1717C433.187 93.2039 426.581 98.939 418.761 102.94C406.695 109.111 392.971 110.943 379.694 108.101C377.397 107.611 376.417 111.133 378.721 111.627H378.725Z" fill="#B99460"/>
<path d="M342.152 58.8438C340.612 61.2213 338.579 65.3544 338.868 70.636C339.116 75.1458 340.938 78.4523 344.025 84.0448C347.361 90.0945 350.758 94.3191 351.87 95.6065C362.306 107.702 391.676 117.998 417.302 105.694C423.337 102.797 434.715 97.0915 439.99 82.8378C441.815 77.9073 442.25 73.6901 442.678 69.5606C443.479 61.8101 445.132 46.7956 437.488 30.5411C429.211 12.9443 416.036 5.17188 412.411 3.18945C401.534 7.52007 387.913 14.283 374.072 25.084C359.266 36.6384 348.966 49.1255 342.152 58.8438Z" fill="#F2DA9E"/>
<path d="M419.37 41.0822C423.068 31.2578 427.27 21.9236 426.769 14.3413C420.928 6.30552 413.744 2.86004 411.33 1.80664C400.943 6.73711 387.782 14.1036 374.048 25.0508C359.348 36.7698 348.77 48.7998 341.671 58.0096C340.398 59.769 338.767 62.5049 338.064 65.7857C341.74 72.7133 350.354 77.2524 355.508 79.0483C377.852 86.8353 413.763 55.987 419.37 41.0785V41.0822Z" fill="#E8C577"/>
<path d="M423.208 69.9618C423.91 69.5265 424.196 68.5646 423.731 67.8477C423.552 67.5734 423.205 67.4673 422.912 67.6318C421.767 68.2719 420.622 68.9084 419.481 69.5484L420.385 70.0678C420.289 68.3085 420.198 66.5456 420.103 64.7863C420.074 64.2522 419.474 64.0108 419.079 64.362C418.117 65.2142 416.661 65.0569 415.659 64.3546C414.485 63.5317 413.826 62.1198 413.212 60.8726C412.539 59.5083 411.771 57.9867 411.957 56.414C412.093 55.2838 412.766 54.0328 413.94 53.7292L413.263 52.8478C410.012 58.1696 405.246 62.3027 400.279 65.975C398.878 67.0101 397.459 68.0159 396.036 69.0181C395.41 69.4607 396.01 70.4994 396.643 70.0532C401.786 66.4285 406.987 62.716 411.083 57.8843C412.265 56.4908 413.347 55.0131 414.302 53.4549C414.58 52.9977 414.119 52.4454 413.625 52.5735C412.429 52.8807 411.581 53.8463 411.123 54.9546C410.582 56.2677 410.677 57.7015 411.116 59.0292C411.581 60.441 412.287 61.8492 413.051 63.122C413.746 64.2742 414.653 65.3349 415.93 65.8433C417.29 66.3846 418.83 66.1907 419.935 65.2105L418.911 64.7863C419.006 66.5456 419.097 68.3085 419.192 70.0678C419.218 70.5214 419.682 70.8177 420.096 70.5872C421.24 69.9472 422.385 69.3107 423.526 68.6706L422.707 68.4548C422.813 68.6157 422.791 68.8169 422.616 68.9267C421.961 69.3327 422.564 70.3714 423.223 69.9618H423.208Z" fill="#F2DA9E"/>
<path d="M381.071 65.6155C381.071 65.6155 381.066 65.6075 381.062 65.6035C381.062 65.6035 381.067 65.6115 381.071 65.6155Z" fill="#E8C577"/>
<g opacity="0.41">
<path d="M385.785 75.6163C385.843 74.8335 385.931 74.0545 386.037 73.2754C381.974 75.5139 377.819 77.3463 373.74 78.5753C373.378 81.1429 373.66 83.791 374.033 86.3404C374.571 90.0236 377.131 105.857 378.023 109.592C382.42 110.689 388.184 111.351 393.839 111.187C389.457 105.847 385.265 82.6974 385.785 75.6163Z" fill="white"/>
</g>
<path d="M362.632 116.235C366.659 111.953 371.019 104.617 367.698 90.677C363.612 73.5224 337.8 37.709 323.979 40.0122C320.456 40.5978 315.676 41.4432 310.453 42.7607C310.452 42.7476 310.45 42.7345 310.449 42.7214C306.89 43.6129 303.141 44.7105 299.46 46.0829C299.466 46.1067 299.466 46.1353 299.472 46.1591C297.616 46.861 295.776 47.6315 293.981 48.4885C293.978 48.452 293.976 48.4155 293.973 48.379C293.197 48.7272 292.392 49.1199 291.562 49.5575C290.936 49.8885 290.34 50.2219 289.775 50.5577C289.776 50.6045 289.778 50.6513 289.777 50.6953C282.309 55.03 276.221 61.0491 274.242 69.4738C270.427 74.8901 271.771 90.3786 273.183 98.3555C272.977 100.109 273.136 102.012 273.756 104.121C279.929 125.154 353.504 137.197 362.63 116.227L362.632 116.235Z" fill="white"/>
<path d="M363.824 117.622C374.99 105.623 370.495 88.728 363.499 75.7928C359.65 68.6707 355.058 61.8917 349.898 55.6531C345.37 50.1784 340.233 44.6678 334.077 40.9966C331.594 39.5135 328.774 38.2176 325.837 38.0929C323.914 38.009 321.986 38.4876 320.109 38.8273C316.758 39.4338 313.429 40.1378 310.129 40.9608L312.256 42.4323L312.251 42.393C312.125 41.4601 311.05 40.6858 310.124 40.9215C306.253 41.8982 302.43 43.0498 298.683 44.4303C297.918 44.7119 297.547 45.6615 297.664 46.4148L297.676 46.491L298.696 44.5064C296.837 45.2159 295.006 45.9872 293.204 46.8358L295.783 48.1601L295.776 48.0506C295.681 46.8399 294.178 46.2744 293.197 46.7263C291.759 47.3874 290.368 48.1091 289.001 48.9026C288.466 49.2122 287.943 49.743 287.959 50.4186L287.962 50.5563L289.003 49.0403C285.164 51.3007 281.591 53.9446 278.641 57.3024C275.691 60.6602 274.118 64.1797 272.674 68.2641C272.259 69.436 271.583 70.5027 271.204 71.711C270.731 73.2158 270.45 74.7974 270.261 76.3627C269.831 79.8705 269.883 83.4279 270.074 86.9467C270.264 90.4861 270.631 94.0182 271.195 97.516C271.467 99.1967 271.228 100.906 271.532 102.607C271.757 103.88 272.114 105.149 272.639 106.333C274.145 109.721 276.951 112.427 279.882 114.611C287.931 120.61 298.132 123.859 307.812 126.037C318.59 128.46 329.813 129.655 340.843 128.644C349.366 127.863 360.483 125.515 364.369 116.83C365.332 114.683 361.868 113.497 360.912 115.639C358.113 121.89 349.351 123.859 343.124 124.714C333.184 126.08 322.892 125.228 313.065 123.412C303.583 121.662 293.816 118.878 285.469 113.925C282.429 112.12 279.476 109.983 277.336 107.131C276.457 105.962 275.742 104.522 275.396 103.171C274.931 101.361 275.131 99.6516 274.96 97.8411C274.818 96.3388 274.48 94.8399 274.296 93.3396C273.833 89.6005 273.554 85.8287 273.587 82.0598C273.615 78.7808 273.748 75.2919 274.908 72.1897C275.139 71.5718 275.487 71.0847 275.77 70.4992C276.195 69.6134 276.352 68.6111 276.677 67.6761C277.419 65.5304 278.483 63.5362 279.806 61.6914C282.601 57.7875 286.464 54.7741 290.57 52.3523C291.105 52.0376 291.624 51.5142 291.611 50.8362L291.608 50.6986L290.567 52.2146C291.935 51.4211 293.328 50.6971 294.763 50.0384L292.185 48.714L292.192 48.8235C292.285 50.0263 293.791 50.6078 294.771 50.1479C296.573 49.3044 298.403 48.5331 300.262 47.8185C301.024 47.5262 301.401 46.5951 301.282 45.8339L301.27 45.7577L300.25 47.7423C303.703 46.4692 307.222 45.4243 310.787 44.5228L308.66 43.0513L308.665 43.0906C308.791 44.0236 309.866 44.7926 310.792 44.5621C315.328 43.4336 320.195 42.0605 324.878 41.7421C326.854 41.607 328.922 42.3763 330.678 43.2697C336.331 46.148 341.016 50.9862 345.145 55.6991C350.107 61.3649 354.524 67.5419 358.334 74.0384C361.493 79.4298 364.568 85.2116 365.99 91.3425C367.903 99.5831 367.459 108.402 361.454 114.85C359.87 116.553 362.233 119.35 363.837 117.625L363.824 117.622Z" fill="#C39B63"/>
<path d="M359.295 119.374C363.33 115.779 371.998 108.812 367.68 90.6856C363.594 73.531 337.782 37.7175 323.961 40.0208C310.626 42.2442 279.237 48.1403 274.227 69.4851C269.688 75.9281 272.447 96.6183 273.941 101.974C300.624 105.317 327.142 115.021 359.293 119.371L359.295 119.374Z" fill="#F2DA9E"/>
<path d="M273.74 104.138C270.488 93.0641 279.819 87.5974 288.913 80.7616C297.804 74.0814 334.263 70.7312 350.815 87.6765C356.268 93.2579 366.262 106.473 362.853 115.686C354.812 137.436 279.965 125.356 273.74 104.138Z" fill="#E8C577"/>
<g opacity="0.32">
<path d="M307.798 75.4898C304.324 75.7782 301.079 76.289 298.239 76.968C297.835 68.0821 299.042 59.4042 299.608 50.9344C299.718 49.3217 299.783 47.6406 299.439 46.0945C303.118 44.7193 306.869 43.6194 310.428 42.733C311.547 49.5724 311.143 56.6979 310.446 63.8245C310.054 67.8151 309.548 71.9241 307.798 75.4898Z" fill="white"/>
</g>
<g opacity="0.5">
<path d="M293.952 48.3905C295.702 71.3696 295.368 77.8805 294.463 78.1412C294.413 78.1555 293.874 78.2909 293.143 78.5467C292.272 78.8513 291.589 79.1677 291.163 79.3792C290.708 73.8354 290.349 68.1899 290.099 62.4594C289.921 58.3555 289.81 54.3915 289.758 50.5695C290.323 50.2338 290.919 49.9004 291.546 49.5693C292.376 49.1318 293.181 48.7391 293.957 48.3908L293.952 48.3905Z" fill="white"/>
</g>
<path d="M412.947 54.5427C412.815 54.8866 412.673 55.267 412.53 55.6657C412.53 55.1902 412.633 54.7988 412.947 54.5427C407.523 53.7125 402.004 53.3613 397.062 53.0468C384.966 52.2787 371.459 51.4264 359.707 57.6517C356.858 59.1623 354.111 61.0826 351.514 63.5259C341.353 73.0869 336.675 87.5564 337.966 100.424C338.752 108.284 341.605 113.942 343.65 117.904C344.751 120.04 347.501 125.358 351.847 130.713C355.486 135.197 360.244 139.703 366.111 142.384C366.978 142.779 367.867 143.138 368.781 143.449C390.87 150.958 415.518 127.874 426.118 113.533C431.063 106.843 447.391 84.751 438.828 68.6173C434.114 59.7292 423.722 56.196 412.951 54.5501L412.947 54.5427Z" fill="#E8C577"/>
<path d="M411.184 54.0578C411.042 54.4309 410.903 54.8039 410.767 55.1807C411.963 55.3416 413.163 55.5062 414.359 55.6672L414.238 55.8354C415.003 54.91 414.93 53.0007 413.43 52.7776C406.912 51.8047 400.332 51.3987 393.756 51.011C387.556 50.6452 381.312 50.4404 375.131 51.2012C362.915 52.7081 352.168 58.3226 344.861 68.3664C338.456 77.1666 335.23 88.5052 336.038 99.3611C336.774 109.259 341.232 118.582 346.675 126.753C352.948 136.171 361.912 144.833 373.569 146.438C383.551 147.81 393.437 144.05 401.784 138.827C416.407 129.675 428.653 115.696 436.718 100.48C441.03 92.3457 444.509 82.7408 442.508 73.4432C440.284 63.0921 431.232 57.185 421.616 54.4967C418.927 53.7432 416.184 53.2092 413.426 52.7813C411.122 52.4228 410.131 55.9451 412.453 56.3072C421.619 57.7374 432.311 60.5318 437.113 69.3064C441.392 77.1264 439.084 86.6764 435.654 94.3538C429.344 108.472 418.752 121.395 406.66 130.93C399.385 136.669 390.683 141.775 381.323 142.879C370.881 144.108 361.836 139.2 354.978 131.585C351.433 127.649 348.514 123.183 346.024 118.523C344.092 114.906 342.293 111.219 341.141 107.269C338.244 97.3128 339.466 86.2997 343.961 76.9984C348.877 66.8265 357.538 59.1309 368.514 56.1646C379.571 53.1763 391.466 54.4052 402.735 55.2684C405.983 55.5172 409.227 55.8317 412.45 56.3145L411.641 53.2567C411.005 54.0285 410.775 54.6759 410.69 55.6744C410.508 57.8507 413.624 57.9788 414.282 56.1609C414.417 55.7842 414.553 55.4074 414.699 55.038C415.533 52.8325 412 51.8815 411.173 54.0651L411.184 54.0578Z" fill="#BE9762"/>
<path d="M396.907 53.1288C384.811 52.3607 371.304 51.5085 359.552 57.7337C355.258 73.3408 343.93 87.4446 342.902 103.783C342.284 113.589 345.664 123.593 352.101 131.018C351.962 130.945 351.823 130.868 351.684 130.795C355.323 135.279 360.082 139.785 365.949 142.466C370.47 142.364 377.942 141.464 384.552 136.486C389.482 132.773 394.647 127.726 400.071 116.274C404.789 106.307 415.382 106.892 415.645 100.645C415.916 94.1929 414.149 94.4014 414.204 85.2208C414.27 73.6846 411.314 64.4016 412.485 62.5618C414.244 59.7967 411.336 55.8208 412.792 54.6284C407.368 53.7982 401.848 53.447 396.907 53.1325V53.1288Z" fill="#F2DA9E"/>
<path d="M342.901 103.782C343.929 87.4396 355.257 73.3395 359.551 57.7324C356.701 59.243 353.954 61.1633 351.357 63.6066C341.197 73.1676 336.519 87.6371 337.81 100.505C338.596 108.365 341.449 114.023 343.49 117.984C344.591 120.12 347.338 125.439 351.687 130.793C351.826 130.867 351.965 130.943 352.104 131.017C345.666 123.592 342.287 113.592 342.905 103.782H342.901Z" fill="#F2DA9E"/>
<g opacity="0.64">
<path d="M342.934 103.78C343.962 87.4377 355.29 73.3375 359.584 57.7305C356.734 59.2411 353.988 61.1613 351.391 63.6046C341.23 73.1656 336.552 87.6352 337.843 100.503C338.629 108.363 341.482 114.021 343.523 117.982C344.624 120.119 347.371 125.437 351.72 130.791C351.859 130.865 351.998 130.941 352.137 131.015C345.699 123.59 342.32 113.59 342.938 103.78H342.934Z" fill="white"/>
</g>
<path d="M425.956 113.61C430.901 106.92 447.229 84.8279 438.666 68.6942C433.951 59.8062 423.56 56.2729 412.788 54.627C411.991 56.6789 410.971 59.7696 410.4 63.6247C409.16 72.0373 411.124 77.0079 411.486 82.5858C412.024 90.8045 408.86 96.9017 404.047 106.177C396.852 120.043 387.075 128.028 381.823 132.227C375.693 137.128 370.009 140.398 365.945 142.465C366.812 142.86 367.701 143.218 368.615 143.529C390.704 151.038 415.352 127.955 425.952 113.613L425.956 113.61Z" fill="#E8C577"/>
<path d="M379.551 132.812C379.189 132.878 378.79 132.953 378.375 133.037C378.781 132.791 379.169 132.676 379.551 132.812C377.45 127.743 374.89 122.841 372.598 118.452C366.985 107.709 360.714 95.7156 349.299 88.8917C346.53 87.2378 343.464 85.8839 340.029 84.9293C326.586 81.195 311.787 84.6935 301.452 92.4667C295.137 97.213 291.777 102.586 289.449 106.387C288.193 108.436 285.07 113.544 282.743 120.036C280.794 125.472 279.406 131.877 280.154 138.284C280.266 139.23 280.42 140.176 280.628 141.119C285.654 163.901 318.17 173.017 335.929 174.65C344.213 175.411 371.568 177.925 380.928 162.24C386.086 153.602 383.722 142.884 379.547 132.819L379.551 132.812Z" fill="#E8C577"/>
<path d="M379.054 131.052C378.661 131.124 378.27 131.198 377.878 131.278C378.36 132.384 378.841 133.495 379.323 134.602L379.117 134.586C380.304 134.76 381.899 133.708 381.313 132.31C378.767 126.231 375.704 120.393 372.627 114.568C369.727 109.077 366.666 103.631 362.811 98.7389C355.191 89.0723 344.82 82.792 332.443 81.7477C321.598 80.8315 310.229 83.9492 301.364 90.2669C293.28 96.0253 287.618 104.67 283.45 113.56C278.647 123.806 275.886 135.962 280.554 146.763C284.555 156.01 292.894 162.516 301.687 166.948C317.092 174.711 335.394 177.938 352.587 176.949C361.779 176.421 371.796 174.418 378.71 167.888C386.41 160.621 386.77 149.818 384.085 140.201C383.336 137.511 382.371 134.889 381.308 132.308C380.42 130.152 376.894 131.13 377.788 133.304C381.316 141.884 384.467 152.475 379.452 161.13C374.982 168.843 365.619 171.819 357.275 172.864C341.931 174.785 325.389 172.424 310.967 167.024C302.289 163.777 293.412 158.982 287.617 151.55C281.154 143.256 280.663 132.977 283.622 123.165C285.15 118.094 287.457 113.283 290.151 108.738C292.244 105.211 294.464 101.762 297.245 98.7289C304.258 91.0915 314.31 86.4284 324.594 85.452C335.841 84.3842 346.912 87.8029 355.137 95.6527C363.424 103.56 368.537 114.369 373.64 124.454C375.11 127.361 376.523 130.298 377.78 133.304L379.976 131.028C378.986 130.884 378.313 131.022 377.416 131.468C375.46 132.44 376.965 135.171 378.861 134.792C379.254 134.712 379.646 134.633 380.038 134.566C382.356 134.137 381.338 130.622 379.042 131.047L379.054 131.052Z" fill="#BE9762"/>
<path d="M372.448 118.362C366.836 107.62 360.564 95.6262 349.149 88.8023C333.576 93.2188 315.644 90.841 301.138 98.4301C292.431 102.984 285.628 111.059 282.614 120.412C282.605 120.256 282.599 120.097 282.589 119.94C280.64 125.377 279.253 131.782 280.001 138.188C282.431 142.002 287.074 147.926 294.756 150.998C300.487 153.291 307.48 155.091 320.085 153.795C331.055 152.664 336.044 162.026 341.523 159.014C347.181 155.901 346.087 154.499 353.967 149.787C363.867 143.865 370.274 136.526 372.454 136.573C375.731 136.645 377.624 132.098 379.398 132.725C377.297 127.655 374.737 122.753 372.445 118.364L372.448 118.362Z" fill="#F2DA9E"/>
<path d="M301.137 98.4317C315.646 90.8408 333.575 93.2205 349.148 88.8039C346.38 87.1501 343.314 85.7962 339.878 84.8416C326.435 81.1072 311.636 84.6058 301.301 92.379C294.987 97.1253 291.626 102.498 289.296 106.296C288.04 108.345 284.916 113.45 282.59 119.945C282.6 120.102 282.606 120.26 282.615 120.417C285.629 111.064 292.429 102.99 301.139 98.4348L301.137 98.4317Z" fill="#F2DA9E"/>
<g opacity="0.64">
<path d="M301.157 98.4571C315.665 90.8662 333.595 93.2459 349.168 88.8293C346.399 87.1755 343.333 85.8216 339.898 84.867C326.455 81.1326 311.656 84.6312 301.321 92.4044C295.006 97.1507 291.646 102.523 289.316 106.322C288.06 108.37 284.935 113.476 282.61 119.97C282.619 120.127 282.625 120.286 282.635 120.442C285.648 111.089 292.449 103.016 301.159 98.4602L301.157 98.4571Z" fill="white"/>
</g>
<path d="M335.779 174.553C344.063 175.315 371.419 177.829 380.779 162.144C385.936 153.506 383.572 142.788 379.397 132.723C377.229 133.104 374.057 133.834 370.464 135.344C362.627 138.643 359.394 142.899 354.812 146.1C348.062 150.819 341.207 151.274 330.78 151.965C315.193 152.998 303.297 148.775 296.984 146.46C289.615 143.757 283.873 140.591 279.999 138.187C280.111 139.133 280.265 140.079 280.473 141.022C285.499 163.804 318.015 172.92 335.774 174.552L335.779 174.553Z" fill="#E8C577"/>
<path d="M522.861 109.408C522.501 109.332 522.103 109.251 521.686 109.173C522.156 109.098 522.559 109.138 522.861 109.408C522.827 103.921 522.304 98.4148 521.836 93.4855C520.69 81.4198 519.404 67.9466 511.405 57.3219C509.465 54.7461 507.136 52.336 504.314 50.1563C493.272 41.6283 478.246 39.2876 465.742 42.5894C458.104 44.604 452.966 48.3126 449.376 50.9556C447.44 52.3793 442.622 55.9331 438.018 61.0676C434.163 65.3678 430.463 70.7767 428.739 76.9926C428.486 77.9109 428.272 78.845 428.109 79.797C424.172 102.792 450.85 123.498 466.682 131.706C474.067 135.536 498.455 148.18 513.039 137.183C521.073 131.127 522.926 120.309 522.854 109.413L522.861 109.408Z" fill="#E8C577"/>
<path d="M523.064 107.589C522.674 107.506 522.283 107.428 521.89 107.354C521.919 108.56 521.946 109.771 521.975 110.977L521.79 110.885C522.824 111.494 524.698 111.121 524.682 109.605C524.616 103.015 523.981 96.453 523.328 89.8977C522.713 83.7178 521.932 77.5199 520.207 71.5355C516.794 59.7089 509.557 49.9813 498.488 44.3466C488.789 39.4082 477.083 38.0084 466.49 40.5165C456.832 42.8015 448.328 48.6729 441.116 55.3346C432.803 63.0126 425.662 73.2297 425.912 84.994C426.13 95.0671 431.4 104.238 437.873 111.658C449.213 124.657 464.947 134.548 481.243 140.116C489.955 143.093 499.988 145.015 508.855 141.575C518.726 137.748 523.134 127.878 524.274 117.959C524.595 115.186 524.69 112.392 524.678 109.602C524.669 107.27 521.035 106.846 521.043 109.196C521.074 118.473 519.999 129.471 512.09 135.596C505.042 141.053 495.248 140.278 487.126 138.1C472.19 134.093 457.76 125.668 446.439 115.229C439.626 108.948 433.213 101.16 430.648 92.0908C427.79 81.9722 431.212 72.2667 437.652 64.2948C440.98 60.1749 444.931 56.5891 449.14 53.3954C452.408 50.9185 455.766 48.5607 459.485 46.8007C468.861 42.3719 479.929 41.8436 489.822 44.8177C500.641 48.07 509.605 55.411 514.263 65.7833C518.956 76.2315 519.615 88.1712 520.538 99.4356C520.804 102.682 521.004 105.936 521.035 109.194L523.927 107.914C523.065 107.407 522.389 107.281 521.39 107.356C519.212 107.518 519.577 110.615 521.475 110.979C521.869 111.053 522.262 111.128 522.65 111.214C524.959 111.69 525.342 108.051 523.055 107.579L523.064 107.589Z" fill="#BE9762"/>
<path d="M521.733 93.3449C520.587 81.2792 519.301 67.8059 511.302 57.1812C495.213 55.3991 479.502 46.4343 463.205 47.9928C453.424 48.9269 444.078 53.8401 437.759 61.3666C437.81 61.2179 437.864 61.0685 437.914 60.9197C434.059 65.2199 430.358 70.6289 428.635 76.8447C429.448 81.293 431.514 88.5305 437.471 94.2732C441.913 98.5574 447.711 102.862 459.875 106.415C470.461 109.505 471.551 120.057 477.762 119.333C484.176 118.584 483.692 116.873 492.766 115.481C504.169 113.729 512.871 109.348 514.872 110.214C517.879 111.516 521.348 108.018 522.754 109.268C522.72 103.781 522.197 98.2748 521.73 93.3455L521.733 93.3449Z" fill="#F2DA9E"/>
<path d="M463.204 47.9924C479.504 46.4333 495.213 55.3987 511.301 57.1809C509.361 54.6051 507.032 52.1949 504.21 50.0153C493.168 41.4872 478.142 39.1466 465.639 42.4484C458 44.463 452.862 48.1716 449.272 50.811C447.336 52.2347 442.517 55.7849 437.914 60.923C437.863 61.0717 437.809 61.2211 437.759 61.3699C444.077 53.8433 453.42 48.9308 463.205 47.9961L463.204 47.9924Z" fill="#F2DA9E"/>
<g opacity="0.64">
<path d="M463.212 48.0256C479.512 46.4665 495.22 55.4319 511.309 57.2141C509.369 54.6383 507.04 52.2282 504.218 50.0485C493.176 41.5204 478.15 39.1798 465.646 42.4816C458.008 44.4962 452.87 48.2048 449.279 50.8442C447.343 52.2679 442.524 55.8181 437.921 60.9562C437.871 61.1049 437.817 61.2543 437.767 61.403C444.085 53.8765 453.428 48.964 463.213 48.0293L463.212 48.0256Z" fill="white"/>
</g>
<path d="M466.581 131.56C473.966 135.389 498.354 148.033 512.938 137.037C520.972 130.981 522.825 120.163 522.753 109.266C520.601 108.802 517.388 108.281 513.492 108.325C504.989 108.425 500.389 111.148 494.938 112.384C486.907 114.21 480.387 112.046 470.469 108.753C455.643 103.833 446.218 95.4355 441.244 90.9101C435.439 85.6285 431.315 80.5305 428.634 76.8431C428.38 77.7614 428.166 78.6955 428.003 79.6475C424.067 102.643 450.744 123.348 466.577 131.557L466.581 131.56Z" fill="#E8C577"/>
<path d="M475.355 173.853C479.675 169.259 484.354 161.388 480.79 146.431C476.406 128.025 448.711 89.6001 433.882 92.0713C430.103 92.6996 424.974 93.6066 419.371 95.0202C419.369 95.0062 419.367 94.9922 419.365 94.9781C415.547 95.9346 411.525 97.1122 407.575 98.5848C407.582 98.6103 407.582 98.641 407.589 98.6665C405.597 99.4196 403.623 100.246 401.696 101.166C401.694 101.127 401.691 101.087 401.689 101.048C400.856 101.422 399.992 101.843 399.102 102.313C398.429 102.668 397.79 103.026 397.183 103.386C397.185 103.436 397.187 103.486 397.186 103.534C389.174 108.184 382.641 114.642 380.518 123.681C376.425 129.493 377.867 146.111 379.382 154.67C379.161 156.551 379.331 158.592 379.997 160.856C386.619 183.422 465.561 196.344 475.353 173.845L475.355 173.853Z" fill="white"/>
<path d="M476.634 175.341C488.613 162.468 483.791 144.341 476.285 130.462C472.155 122.821 467.228 115.547 461.692 108.854C456.834 102.98 451.322 97.0671 444.717 93.1281C442.052 91.5369 439.027 90.1465 435.876 90.0127C433.812 89.9226 431.745 90.4362 429.73 90.8007C426.135 91.4513 422.563 92.2067 419.022 93.0897L421.304 94.6686L421.299 94.6264C421.163 93.6254 420.01 92.7947 419.017 93.0476C414.863 94.0955 410.762 95.3311 406.742 96.8122C405.92 97.1144 405.523 98.1333 405.648 98.9415L405.661 99.0232L406.755 96.8939C404.761 97.6551 402.797 98.4827 400.863 99.3932L403.63 100.814L403.622 100.697C403.521 99.3976 401.908 98.7908 400.855 99.2758C399.313 99.985 397.821 100.759 396.353 101.611C395.78 101.943 395.219 102.512 395.236 103.237L395.239 103.385L396.356 101.758C392.236 104.184 388.403 107.02 385.238 110.623C382.072 114.226 380.385 118.002 378.836 122.384C378.39 123.642 377.666 124.786 377.258 126.083C376.752 127.697 376.45 129.394 376.247 131.074C375.786 134.837 375.841 138.654 376.046 142.429C376.25 146.227 376.644 150.017 377.249 153.77C377.541 155.573 377.285 157.407 377.611 159.232C377.852 160.597 378.235 161.96 378.798 163.23C380.415 166.865 383.425 169.768 386.57 172.111C395.206 178.547 406.15 182.034 416.537 184.371C428.1 186.97 440.142 188.252 451.977 187.168C461.121 186.329 473.048 183.81 477.219 174.492C478.251 172.189 474.535 170.916 473.509 173.214C470.505 179.921 461.105 182.034 454.423 182.951C443.759 184.417 432.716 183.502 422.172 181.554C411.999 179.676 401.52 176.69 392.564 171.375C389.303 169.438 386.134 167.146 383.837 164.086C382.895 162.831 382.127 161.287 381.756 159.837C381.258 157.895 381.472 156.061 381.289 154.118C381.136 152.506 380.774 150.898 380.576 149.289C380.08 145.277 379.78 141.23 379.815 137.186C379.846 133.668 379.989 129.925 381.232 126.596C381.48 125.933 381.854 125.411 382.158 124.782C382.614 123.832 382.782 122.757 383.131 121.753C383.927 119.451 385.069 117.312 386.488 115.332C389.487 111.144 393.631 107.91 398.037 105.312C398.611 104.974 399.168 104.413 399.154 103.685L399.151 103.538L398.034 105.164C399.501 104.313 400.996 103.536 402.536 102.829L399.769 101.408L399.777 101.526C399.877 102.816 401.493 103.44 402.544 102.947C404.477 102.042 406.441 101.214 408.436 100.448C409.253 100.134 409.657 99.135 409.53 98.3183L409.517 98.2365L408.423 100.366C412.128 98.9999 415.903 97.8787 419.728 96.9115L417.447 95.3327L417.452 95.3749C417.587 96.3759 418.74 97.201 419.733 96.9537C424.601 95.7429 429.822 94.2697 434.847 93.928C436.967 93.783 439.186 94.6085 441.07 95.5671C447.136 98.6552 452.162 103.846 456.593 108.903C461.916 114.982 466.656 121.609 470.743 128.58C474.132 134.364 477.432 140.568 478.958 147.146C481.01 155.987 480.533 165.449 474.091 172.368C472.391 174.195 474.926 177.196 476.647 175.345L476.634 175.341Z" fill="#C39B63"/>
<path d="M471.775 177.225C476.104 173.369 485.405 165.894 480.772 146.445C476.388 128.039 448.693 89.6137 433.864 92.0849C419.557 94.4705 385.878 100.797 380.503 123.698C375.633 130.611 378.593 152.81 380.196 158.556C408.825 162.143 437.277 172.555 471.773 177.222L471.775 177.225Z" fill="#F2DA9E"/>
<path d="M379.98 160.875C376.492 148.993 386.503 143.128 396.261 135.794C405.8 128.626 444.918 125.032 462.677 143.213C468.528 149.201 479.25 163.38 475.593 173.265C466.965 196.601 386.66 183.64 379.98 160.875Z" fill="#E8C577"/>
<g opacity="0.32">
<path d="M416.523 130.138C412.795 130.447 409.313 130.995 406.266 131.724C405.833 122.19 407.128 112.879 407.736 103.791C407.853 102.061 407.923 100.257 407.554 98.5985C411.501 97.123 415.526 95.9429 419.344 94.9919C420.545 102.33 420.112 109.975 419.363 117.622C418.943 121.903 418.4 126.312 416.523 130.138Z" fill="white"/>
</g>
<g opacity="0.5">
<path d="M401.667 101.064C403.545 125.719 403.186 132.704 402.216 132.984C402.162 132.999 401.583 133.145 400.8 133.419C399.865 133.746 399.132 134.085 398.675 134.312C398.187 128.364 397.801 122.307 397.534 116.159C397.342 111.755 397.223 107.502 397.168 103.402C397.774 103.041 398.413 102.684 399.086 102.328C399.976 101.859 400.84 101.438 401.673 101.064L401.667 101.064Z" fill="white"/>
</g>
<path d="M698.73 229.889C698.73 229.889 703.027 235.736 717.258 242.758C721.261 244.728 725.976 244.665 729.896 242.506C744.336 234.521 779.148 211.257 772.609 175.041C772.609 175.041 763.177 230.078 698.73 229.889Z" fill="#E88120"/>
<path d="M699.379 228.233L694.349 185.331C694.098 183.236 695.942 181.307 698.457 181.014L766.949 172.966C769.715 172.631 772.042 174.433 771.958 176.76C771.203 201.344 740.458 225.53 704.64 231.44C702.041 231.859 699.652 230.392 699.379 228.212V228.233Z" fill="#F29348" stroke="#E88120" stroke-width="2.09584" stroke-miterlimit="10" stroke-linecap="round"/>
<path d="M695.479 185.942C695.479 185.942 694.515 182.987 698.308 182.127L721.32 179.424C721.32 179.424 724.548 203.568 697.91 206.586L695.5 185.963L695.479 185.942Z" fill="#E88647"/>
<path d="M697.953 207.063C697.953 207.063 701.768 206.623 702.543 205.764C703.318 204.905 704.848 204.821 705.33 204.569C705.813 204.318 707.175 205.114 708.642 203.626C710.109 202.138 711.346 201.09 712.456 200.755C713.567 200.42 716.04 198.764 717.947 195.222C720.462 190.548 720.211 187.132 721.154 185.833C722.495 184.009 721.95 179.314 721.95 179.314" fill="#E88647"/>
<path d="M697.953 207.063C697.953 207.063 701.768 206.623 702.543 205.764C703.318 204.905 704.848 204.821 705.33 204.569C705.813 204.318 707.175 205.114 708.642 203.626C710.109 202.138 711.346 201.09 712.456 200.755C713.567 200.42 716.04 198.764 717.947 195.222C720.462 190.548 720.211 187.132 721.154 185.833C722.495 184.009 721.95 179.314 721.95 179.314" stroke="#F4A46D" stroke-width="6.28751" stroke-miterlimit="10"/>
<path d="M581.988 97.1367C581.988 97.1367 575.428 100.26 565.83 112.876C563.126 116.418 562.288 121.071 563.671 125.326C568.764 141.024 584.985 179.608 621.767 180.111C621.767 180.111 569.518 160.368 581.988 97.1367Z" fill="#E88120"/>
<path d="M583.498 98.1012L626.568 101.329C628.664 101.476 630.215 103.655 630.026 106.17L624.891 174.935C624.682 177.722 622.481 179.65 620.218 179.126C596.22 173.719 578.322 138.928 579.349 102.649C579.433 100.029 581.34 97.9335 583.519 98.1012H583.498Z" fill="#F29348" stroke="#E88120" stroke-width="2.09584" stroke-miterlimit="10" stroke-linecap="round"/>
<path d="M625.773 102.336C625.773 102.336 628.854 101.959 628.98 105.836L627.261 128.932C627.261 128.932 602.949 127.507 605.066 100.785L625.773 102.336Z" fill="#E88647"/>
<path d="M604.564 100.744C604.564 100.744 604.27 104.58 604.962 105.502C605.654 106.424 605.444 107.933 605.591 108.478C605.737 109.023 604.71 110.196 605.884 111.894C607.058 113.592 607.854 115.038 607.98 116.17C608.106 117.301 609.237 120.047 612.36 122.604C616.468 125.957 619.884 126.355 620.974 127.55C622.504 129.227 627.22 129.562 627.22 129.562" fill="#E88647"/>
<path d="M604.564 100.744C604.564 100.744 604.27 104.58 604.962 105.502C605.654 106.424 605.444 107.933 605.591 108.478C605.737 109.023 604.71 110.196 605.884 111.894C607.058 113.592 607.854 115.038 607.98 116.17C608.106 117.301 609.237 120.047 612.36 122.604C616.468 125.957 619.884 126.355 620.974 127.55C622.504 129.227 627.22 129.562 627.22 129.562" stroke="#F4A46D" stroke-width="6.28751" stroke-miterlimit="10"/>
<path d="M536.049 128.492C536.049 128.492 542.693 125.578 558.516 126.584C562.98 126.857 567.025 129.267 569.352 133.102C577.903 147.228 596.451 184.744 572.747 212.891C572.747 212.891 592.008 160.474 536.049 128.512V128.492Z" fill="#E88120"/>
<path d="M535.796 130.251L510.038 164.916C508.781 166.614 509.41 169.192 511.443 170.701L566.794 211.821C569.036 213.477 571.929 213.078 573.039 211.024C584.65 189.333 570.063 153.033 541.958 130.062C539.925 128.407 537.096 128.49 535.796 130.23V130.251Z" fill="#F29348" stroke="#E88120" stroke-width="2.09584" stroke-miterlimit="10" stroke-linecap="round"/>
<path d="M511.32 164.982C511.32 164.982 509.014 167.078 511.865 169.697L530.455 183.509C530.455 183.509 545.293 164.185 523.706 148.299L511.32 164.982Z" fill="#E88647"/>
<path d="M523.998 147.898C523.998 147.898 527.079 150.183 527.33 151.315C527.582 152.446 528.86 153.264 529.154 153.746C529.447 154.228 531.019 154.207 531.543 156.219C532.067 158.231 532.633 159.782 533.408 160.599C534.184 161.417 535.525 164.099 535.399 168.123C535.253 173.426 533.325 176.276 533.513 177.869C533.765 180.111 530.956 183.905 530.956 183.905" fill="#E88647"/>
<path d="M523.998 147.898C523.998 147.898 527.079 150.183 527.33 151.315C527.582 152.446 528.86 153.264 529.154 153.746C529.447 154.228 531.019 154.207 531.543 156.219C532.067 158.231 532.633 159.782 533.408 160.599C534.184 161.417 535.525 164.099 535.399 168.123C535.253 173.426 533.325 176.276 533.513 177.869C533.765 180.111 530.956 183.905 530.956 183.905" stroke="#F4A46D" stroke-width="6.28751" stroke-miterlimit="10"/>
<path d="M648.027 168.565C648.027 168.565 648.09 161.313 640.922 147.166C638.91 143.184 635.095 140.397 630.673 139.789C614.326 137.505 572.514 135.283 556.02 168.167C556.02 168.167 596.574 129.771 648.027 168.565Z" fill="#E88120"/>
<path d="M646.496 169.485L624.804 206.833C623.756 208.657 621.115 209.097 618.936 207.839L559.309 173.216C556.899 171.812 556.123 168.982 557.569 167.18C572.911 147.961 612.019 147.018 644.232 163.764C646.559 164.979 647.607 167.599 646.496 169.485Z" fill="#F29348" stroke="#E88120" stroke-width="2.09584" stroke-miterlimit="10" stroke-linecap="round"/>
<path d="M624.26 205.703C624.26 205.703 623.254 208.637 619.712 207.065L599.676 195.433C599.676 195.433 611.58 174.182 634.697 187.742L624.26 205.703Z" fill="#E88647"/>
<path d="M634.949 187.3C634.949 187.3 631.637 185.372 630.485 185.581C629.332 185.791 628.074 184.953 627.529 184.869C626.985 184.785 626.377 183.318 624.323 183.653C622.269 183.989 620.634 184.051 619.565 183.653C618.496 183.255 615.52 183.087 611.874 184.785C607.053 187.007 605.209 189.92 603.679 190.381C601.52 191.031 599.131 195.117 599.131 195.117" fill="#E88647"/>
<path d="M634.949 187.3C634.949 187.3 631.637 185.372 630.485 185.581C629.332 185.791 628.074 184.953 627.529 184.869C626.985 184.785 626.377 183.318 624.323 183.653C622.269 183.989 620.634 184.051 619.565 183.653C618.496 183.255 615.52 183.087 611.874 184.785C607.053 187.007 605.209 189.92 603.679 190.381C601.52 191.031 599.131 195.117 599.131 195.117" stroke="#F4A46D" stroke-width="6.28751" stroke-miterlimit="10"/>
<path d="M542.333 194.637C542.333 194.637 540.09 201.553 542.689 217.188C543.422 221.589 546.231 225.383 550.255 227.311C565.177 234.395 604.369 249.066 629.98 222.616C629.98 222.616 579.785 247.075 542.333 194.637Z" fill="#E88120"/>
<path d="M544.073 194.217L575.972 165.084C577.523 163.659 580.163 164.036 581.861 165.902L628.368 216.831C630.254 218.885 630.149 221.819 628.221 223.118C607.807 236.867 570.229 226.01 544.534 200.378C542.669 198.513 542.459 195.705 544.094 194.238L544.073 194.217Z" fill="#F29348" stroke="#E88120" stroke-width="2.09584" stroke-miterlimit="10" stroke-linecap="round"/>
<path d="M576.158 166.342C576.158 166.342 578.002 163.848 580.915 166.405L596.529 183.507C596.529 183.507 578.799 200.211 560.816 180.342L576.158 166.342Z" fill="#E88647"/>
<path d="M560.439 180.699C560.439 180.699 563.017 183.55 564.17 183.675C565.323 183.801 566.266 184.996 566.769 185.247C567.272 185.499 567.419 187.071 569.473 187.385C571.526 187.699 573.119 188.098 574.02 188.81C574.922 189.523 577.709 190.55 581.712 190.047C586.973 189.355 589.614 187.154 591.206 187.175C593.47 187.217 596.97 184.011 596.97 184.011" fill="#E88647"/>
<path d="M560.439 180.699C560.439 180.699 563.017 183.55 564.17 183.675C565.323 183.801 566.266 184.996 566.769 185.247C567.272 185.499 567.419 187.071 569.473 187.385C571.526 187.699 573.119 188.098 574.02 188.81C574.922 189.523 577.709 190.55 581.712 190.047C586.973 189.355 589.614 187.154 591.206 187.175C593.47 187.217 596.97 184.011 596.97 184.011" stroke="#F4A46D" stroke-width="6.28751" stroke-miterlimit="10"/>
<path d="M551.01 185.039C551.01 185.039 547.615 178.626 534.579 169.593C530.911 167.057 526.237 166.428 522.046 167.979C506.578 173.743 468.749 191.641 469.88 228.423C469.88 228.423 487.297 175.356 551.031 185.039H551.01Z" fill="#E88120"/>
<path d="M550.11 186.589L548.79 229.763C548.727 231.859 546.631 233.515 544.095 233.431L475.163 231.314C472.376 231.23 470.343 229.113 470.762 226.829C475.121 202.622 509.095 183.214 545.374 182.628C547.993 182.586 550.173 184.409 550.089 186.589H550.11Z" fill="#F29348" stroke="#E88120" stroke-width="2.09584" stroke-miterlimit="10" stroke-linecap="round"/>
<path d="M547.762 229.008C547.762 229.008 548.265 232.068 544.409 232.382L521.25 231.67C521.25 231.67 521.606 207.316 548.412 208.259L547.762 229.008Z" fill="#E88647"/>
<path d="M548.414 207.737C548.414 207.737 544.578 207.611 543.677 208.345C542.776 209.078 541.267 208.931 540.743 209.12C540.219 209.309 538.983 208.324 537.348 209.581C535.713 210.839 534.288 211.698 533.156 211.866C532.024 212.033 529.321 213.312 526.932 216.518C523.746 220.773 523.515 224.189 522.363 225.342C520.77 226.935 520.623 231.671 520.623 231.671" fill="#E88647"/>
<path d="M548.414 207.737C548.414 207.737 544.578 207.611 543.677 208.345C542.776 209.078 541.267 208.931 540.743 209.12C540.219 209.309 538.983 208.324 537.348 209.581C535.713 210.839 534.288 211.698 533.156 211.866C532.024 212.033 529.321 213.312 526.932 216.518C523.746 220.773 523.515 224.189 522.363 225.342C520.77 226.935 520.623 231.671 520.623 231.671" stroke="#F4A46D" stroke-width="6.28751" stroke-miterlimit="10"/>
<path d="M650.73 190.927C650.73 190.927 657.982 191.263 672.401 184.682C676.467 182.816 679.381 179.128 680.177 174.727C683.09 158.484 686.988 116.798 654.775 99.0039C654.775 99.0039 691.536 141.046 650.73 190.927Z" fill="#E88120"/>
<path d="M649.873 189.355L613.406 166.196C611.624 165.065 611.289 162.424 612.651 160.286L649.601 102.085C651.089 99.7374 653.939 99.0667 655.7 100.597C674.311 116.693 673.682 155.801 655.658 187.322C654.359 189.607 651.697 190.529 649.832 189.355H649.873Z" fill="#F29348" stroke="#E88120" stroke-width="2.09584" stroke-miterlimit="10" stroke-linecap="round"/>
<path d="M614.58 165.692C614.58 165.692 611.688 164.561 613.407 161.082L625.814 141.527C625.814 141.527 646.584 154.27 632.102 176.821L614.58 165.692Z" fill="#E88647"/>
<path d="M632.541 177.114C632.541 177.114 634.616 173.865 634.428 172.733C634.239 171.602 635.161 170.365 635.266 169.82C635.371 169.275 636.859 168.73 636.607 166.656C636.356 164.581 636.356 162.946 636.796 161.898C637.236 160.85 637.508 157.874 635.978 154.164C633.945 149.26 631.116 147.311 630.718 145.739C630.152 143.538 626.17 141.023 626.17 141.023" fill="#E88647"/>
<path d="M632.541 177.114C632.541 177.114 634.616 173.865 634.428 172.733C634.239 171.602 635.161 170.365 635.266 169.82C635.371 169.275 636.859 168.73 636.607 166.656C636.356 164.581 636.356 162.946 636.796 161.898C637.236 160.85 637.508 157.874 635.978 154.164C633.945 149.26 631.116 147.311 630.718 145.739C630.152 143.538 626.17 141.023 626.17 141.023" stroke="#F4A46D" stroke-width="6.28751" stroke-miterlimit="10"/>
<path d="M627.699 187.051C627.699 187.051 623.465 192.94 621.16 208.638C620.51 213.06 622.019 217.524 625.289 220.584C637.319 231.881 670.181 257.827 702.625 240.495C702.625 240.495 647.358 248.438 627.72 187.072L627.699 187.051Z" fill="#E88120"/>
<path d="M629.481 187.176L668.757 169.194C670.665 168.314 673.075 169.466 674.123 171.772L702.836 234.458C703.988 236.994 703.003 239.74 700.761 240.39C677.141 247.243 644.655 225.425 628.014 193.17C626.799 190.823 627.469 188.098 629.46 187.176H629.481Z" fill="#F29348" stroke="#E88120" stroke-width="2.09584" stroke-miterlimit="10" stroke-linecap="round"/>
<path d="M668.547 170.453C668.547 170.453 671.062 168.63 673.053 171.962L682.694 193.025C682.694 193.025 660.709 203.504 649.643 179.088L668.526 170.453H668.547Z" fill="#E88647"/>
<path d="M649.203 179.295C649.203 179.295 650.796 182.795 651.865 183.277C652.934 183.759 653.458 185.184 653.856 185.561C654.254 185.939 653.919 187.49 655.763 188.412C657.607 189.334 659.012 190.214 659.661 191.157C660.311 192.1 662.637 193.945 666.599 194.678C671.817 195.642 675.003 194.343 676.512 194.846C678.65 195.559 682.967 193.589 682.967 193.589" fill="#E88647"/>
<path d="M649.203 179.295C649.203 179.295 650.796 182.795 651.865 183.277C652.934 183.759 653.458 185.184 653.856 185.561C654.254 185.939 653.919 187.49 655.763 188.412C657.607 189.334 659.012 190.214 659.661 191.157C660.311 192.1 662.637 193.945 666.599 194.678C671.817 195.642 675.003 194.343 676.512 194.846C678.65 195.559 682.967 193.589 682.967 193.589" stroke="#F4A46D" stroke-width="6.28751" stroke-miterlimit="10"/>
<path d="M709.103 211.027C709.103 211.027 701.977 212.389 686.761 207.883C682.486 206.626 679.048 203.356 677.665 199.123C672.488 183.446 662.764 142.745 692.147 120.592C692.147 120.592 661.674 167.392 709.124 211.027H709.103Z" fill="#E88120"/>
<path d="M709.73 209.35L742.571 181.287C744.164 179.925 744.143 177.263 742.487 175.335L697.678 122.918C695.876 120.801 692.942 120.55 691.412 122.289C675.253 140.837 681.394 179.485 703.673 208.135C705.286 210.21 708.053 210.755 709.73 209.329V209.35Z" fill="#F29348" stroke="#E88120" stroke-width="2.09584" stroke-miterlimit="10" stroke-linecap="round"/>
<path d="M741.334 180.974C741.334 180.974 744.038 179.444 741.858 176.238L726.81 158.633C726.81 158.633 708.052 174.163 725.553 194.472L741.334 180.974Z" fill="#E88647"/>
<path d="M725.175 194.783C725.175 194.783 722.681 191.87 722.681 190.696C722.681 189.523 721.633 188.454 721.445 187.93C721.256 187.406 719.726 187.07 719.663 184.996C719.6 182.921 719.391 181.286 718.825 180.301C718.259 179.316 717.546 176.424 718.552 172.525C719.873 167.391 722.388 165.043 722.576 163.45C722.828 161.208 726.433 158.127 726.433 158.127" fill="#E88647"/>
<path d="M725.175 194.783C725.175 194.783 722.681 191.87 722.681 190.696C722.681 189.523 721.633 188.454 721.445 187.93C721.256 187.406 719.726 187.07 719.663 184.996C719.6 182.921 719.391 181.286 718.825 180.301C718.259 179.316 717.546 176.424 718.552 172.525C719.873 167.391 722.388 165.043 722.576 163.45C722.828 161.208 726.433 158.127 726.433 158.127" stroke="#F4A46D" stroke-width="6.28751" stroke-miterlimit="10"/>
</svg>
