<svg width="379" height="304" viewBox="0 0 379 304" fill="none" xmlns="http://www.w3.org/2000/svg">
<path d="M189.053 301.765C115.609 301.765 50.3605 276.813 26.9424 201.091L4.59607 128.821C0.5786 115.838 10.2886 102.676 23.8748 102.676H354.225C367.817 102.676 377.521 115.838 373.503 128.821L351.157 201.091C327.739 276.813 262.49 301.765 189.046 301.765H189.053Z" fill="#EDEDED" stroke="#B2B2B2" stroke-width="3.20884" stroke-miterlimit="10"/>
<g opacity="0.08">
<mask id="mask0_1037_8371" style="mask-type:luminance" maskUnits="userSpaceOnUse" x="3" y="102" width="372" height="201">
<path d="M189.283 302.023C115.839 302.023 50.5909 277.071 27.1728 201.349L4.82654 129.079C0.809072 116.096 10.519 102.934 24.1052 102.934H354.455C368.048 102.934 377.751 116.096 373.734 129.079L351.387 201.349C327.969 277.071 262.721 302.023 189.277 302.023H189.283Z" fill="white"/>
</mask>
<g mask="url(#mask0_1037_8371)">
<path d="M349.866 133.082C320.062 221.768 245.02 293.902 155.23 320.183C229.374 321.248 299.044 287.536 365.473 254.594C386.421 244.204 408.279 233.05 421.558 213.803C437.557 190.61 437.948 160.434 437.762 132.254C437.653 116.46 436.729 98.7218 425.055 88.0813C411.867 76.0545 389.944 79.135 375.832 90.0707C361.719 101.006 353.556 117.718 345.867 133.826" fill="#6B6B6B"/>
</g>
</g>
<path d="M189.296 208.235C85.8044 208.235 1.60449 161.887 1.60449 104.917C1.60449 47.9475 85.8044 1.60547 189.296 1.60547C292.787 1.60547 376.987 47.9539 376.987 104.924C376.987 161.893 292.787 208.242 189.296 208.242V208.235Z" fill="white"/>
<path d="M189.296 3.20884C214.607 3.20884 239.148 5.9556 262.245 11.3721C284.502 16.5897 304.467 24.047 321.59 33.5388C338.584 42.9599 351.9 53.8892 361.161 66.0314C370.595 78.3919 375.376 91.4775 375.376 104.923C375.376 118.368 370.595 131.453 361.161 143.814C351.9 155.956 338.584 166.885 321.59 176.306C304.461 185.798 284.496 193.255 262.245 198.473C239.148 203.89 214.607 206.636 189.296 206.636C163.984 206.636 139.443 203.89 116.346 198.473C94.0895 193.255 74.1241 185.798 57.0018 176.306C40.0078 166.885 26.6911 155.956 17.4304 143.814C7.99641 131.453 3.21526 118.368 3.21526 104.923C3.21526 91.4775 7.99641 78.3919 17.4304 66.0314C26.6911 53.8892 40.0078 42.9599 57.0018 33.5388C74.1306 24.047 94.0959 16.5897 116.346 11.3721C139.443 5.9556 163.984 3.20884 189.296 3.20884ZM189.296 0C84.7518 0 0 46.9774 0 104.923C0 162.868 84.7518 209.845 189.296 209.845C293.84 209.845 378.591 162.868 378.591 104.923C378.591 46.9774 293.84 0 189.296 0Z" fill="#B2B2B2"/>
<path d="M189.29 199.699C90.2138 199.699 9.61426 157.631 9.61426 105.917C9.61426 93.3899 14.2735 81.1257 23.4636 69.4584C32.4484 58.0477 45.3158 47.7538 61.7001 38.8525C95.8486 20.299 141.042 10.082 188.943 10.082C236.845 10.082 282.205 20.299 316.54 38.8525C333.02 47.7602 345.965 58.0606 355.013 69.4648C364.274 81.1321 368.966 93.3963 368.966 105.917C368.966 157.631 288.366 199.699 189.29 199.699Z" fill="#DBDBDB"/>
<path d="M188.943 11.6854C213.112 11.6854 236.627 14.2846 258.838 19.4187C280.132 24.3411 299.289 31.3492 315.776 40.2633C332.064 49.0684 344.848 59.2275 353.756 70.4585C362.785 81.837 367.361 93.7675 367.361 105.916C367.361 118.065 362.804 129.86 353.826 141.034C344.97 152.046 332.243 161.968 315.981 170.523C282.192 188.3 237.204 198.093 189.29 198.093C141.375 198.093 96.3876 188.3 62.5985 170.523C46.3425 161.968 33.6099 152.046 24.7535 141.034C15.7688 129.86 11.2186 118.046 11.2186 105.916C11.2186 93.7867 15.7623 81.8306 24.7214 70.452C33.5714 59.2147 46.272 49.0555 62.4638 40.2633C78.8673 31.3492 97.9406 24.3411 119.157 19.4251C141.298 14.291 164.774 11.6918 188.943 11.6918M188.943 8.47656C88.8275 8.47656 8.00977 53.2334 8.00977 105.916C8.00977 158.599 89.1741 201.302 189.29 201.302C289.406 201.302 370.57 158.599 370.57 105.916C370.57 53.2334 289.059 8.47656 188.943 8.47656Z" fill="#B2B2B2"/>
<path d="M188.943 37.4146C268.657 37.2157 349.975 74.0724 365.596 118.848C367.348 113.894 367.662 108.24 367.142 101.489C363.33 52.233 282.192 10.8647 188.725 11.6477C99.1274 12.3985 15.8324 50.4104 11.4748 101.399C10.7239 110.153 12.6299 118.027 14.3884 123.212C29.6817 77.9743 110.313 37.6071 188.943 37.4146Z" fill="#D1D1D1"/>
<path d="M191.587 198.391C270.961 196.947 349.436 169.505 364.954 120.846C367.508 112.837 367.04 112.657 367.373 108.344C351.746 63.5681 271.994 29.7726 192.286 29.9716C113.663 30.1641 27.6087 70.1655 12.3154 115.404C12.3154 118.773 15.3638 126.75 16.9875 129.516C47.5164 181.615 125.863 199.591 191.593 198.391H191.587Z" fill="#BC8557"/>
<path d="M227.558 71.1785C221.981 61.5969 215.756 50.9051 205.038 45.1484C190.996 49.8333 174.516 48.4086 161.578 55.9494C153.812 60.4738 147.934 68.1301 145.579 76.8068C145.566 76.6656 145.553 76.518 145.54 76.3768C143.987 81.4211 142.986 87.3318 143.936 93.1526C146.317 96.5348 150.803 101.752 157.952 104.236C163.285 106.091 169.748 107.445 181.21 105.731C191.183 104.242 196.131 112.585 201.008 109.601C206.046 106.521 204.993 105.288 211.989 100.648C220.787 94.8277 226.332 87.8517 228.328 87.8067C231.325 87.7361 232.865 83.5005 234.508 84.001C232.378 79.4573 229.836 75.0869 227.558 71.1721V71.1785Z" fill="#F2DA9E"/>
<path d="M161.578 55.9513C174.516 48.4105 190.997 49.8352 205.039 45.1503C202.44 43.7577 199.584 42.6475 196.407 41.9158C183.97 39.0664 170.595 42.8785 161.476 50.4128C155.905 55.0143 153.062 60.065 151.092 63.6268C150.033 65.5521 147.389 70.3461 145.534 76.3723C145.547 76.5135 145.56 76.6611 145.573 76.8023C147.934 68.132 153.813 60.4758 161.572 55.9449L161.578 55.9513Z" fill="#F2DA9E"/>
<g opacity="0.64">
<path d="M161.597 55.9767C174.535 48.4359 191.016 49.8606 205.057 45.1757C202.458 43.7831 199.602 42.6728 196.426 41.9412C183.988 39.0918 170.614 42.9039 161.494 50.4382C155.924 55.0397 153.081 60.0904 151.11 63.6522C150.052 65.5775 147.407 70.3715 145.553 76.3977C145.566 76.5389 145.578 76.6865 145.591 76.8277C147.953 68.1574 153.832 60.5011 161.59 55.9703L161.597 55.9767Z" fill="white"/>
</g>
<path d="M196.408 124.041C204.006 124.388 229.099 125.543 236.999 110.827C241.351 102.722 238.745 93.0311 234.509 84.0078C232.546 84.4442 229.677 85.2464 226.455 86.7738C219.434 90.1174 216.655 94.1349 212.606 97.2539C206.637 101.849 200.393 102.548 190.895 103.614C176.699 105.212 165.654 101.849 159.788 100.001C152.941 97.8379 147.563 95.1874 143.924 93.153C144.065 94.013 144.245 94.8665 144.476 95.7201C150.021 116.321 180.107 123.29 196.395 124.041H196.408Z" fill="#E8C577"/>
<path d="M232.026 50.8656C230.73 54.0359 230.255 54.6456 229.658 56.2436C228.67 58.9069 228.086 60.4985 228.836 61.8591C229.658 63.348 231.525 63.9897 233.226 63.8742C234.92 63.7587 236.512 63.0463 238.091 62.4238C241.685 61.0055 245.439 60.0044 249.264 59.446C253.41 58.8428 257.62 58.7593 261.81 58.6823C265.975 58.6053 270.134 58.5219 274.299 58.4449C276.077 58.4128 277.855 58.3743 279.619 58.5732C280.255 58.6438 280.903 58.7465 281.455 59.0674C282.007 59.3883 282.424 59.8888 282.86 60.3509C285.383 62.995 289.002 64.362 291.55 66.9804C295.311 70.8374 296.569 77.1652 301.414 79.5205C306.067 81.7795 311.567 79.1419 315.796 76.1705C317.336 75.0859 318.857 73.9307 320.006 72.4418C322.002 69.8427 322.676 66.467 323.003 63.2004C323.369 59.5423 323.382 55.8457 323.035 52.1812C322.81 49.781 322.413 47.3423 321.302 45.2052C320.192 43.0617 318.254 41.2391 315.886 40.7834C313.826 40.3855 311.734 41.0337 309.661 41.3289C307.588 41.6241 305.187 41.4509 303.833 39.8529C302.993 38.8581 302.71 37.4912 301.914 36.4643C300.105 34.1283 296.415 34.3337 294.123 32.4661C292.814 31.4008 292.07 29.745 290.69 28.7824C288.091 26.9726 284.542 28.3075 281.686 29.6808C279.453 30.759 277.213 31.8308 274.979 32.9089C274.428 33.1785 273.824 33.448 273.221 33.3518C272.631 33.2555 272.162 32.8255 271.732 32.4148C269.89 30.6756 268.055 28.93 266.213 27.1908C265.526 26.5426 264.814 25.8752 263.915 25.5735C262.946 25.2527 261.894 25.4003 260.893 25.58C254.109 26.7993 247.634 29.3215 241.21 31.8308C240.228 32.2158 239.233 32.6073 238.418 33.2747C237.398 34.1155 236.724 35.2257 235.665 38.6078C234.246 43.1515 234.17 45.3656 232.668 49.2676C232.379 50.0249 232.026 50.8784 232.026 50.8784V50.8656Z" fill="#D8A977"/>
<mask id="mask1_1037_8371" style="mask-type:luminance" maskUnits="userSpaceOnUse" x="228" y="25" width="96" height="56">
<path d="M232.027 50.8656C230.731 54.0359 230.256 54.6456 229.659 56.2436C228.671 58.9069 228.087 60.4985 228.837 61.8591C229.659 63.348 231.526 63.9897 233.227 63.8742C234.921 63.7587 236.513 63.0463 238.092 62.4238C241.686 61.0055 245.44 60.0044 249.265 59.446C253.411 58.8428 257.621 58.7593 261.811 58.6823C265.976 58.6053 270.135 58.5219 274.3 58.4449C276.078 58.4128 277.856 58.3743 279.62 58.5732C280.256 58.6438 280.904 58.7465 281.456 59.0674C282.008 59.3883 282.425 59.8888 282.861 60.3509C285.384 62.995 289.003 64.362 291.551 66.9804C295.312 70.8374 296.57 77.1652 301.415 79.5205C306.068 81.7795 311.568 79.1419 315.797 76.1705C317.337 75.0859 318.858 73.9307 320.007 72.4418C322.003 69.8427 322.677 66.467 323.004 63.2004C323.37 59.5423 323.383 55.8457 323.036 52.1812C322.811 49.781 322.414 47.3423 321.303 45.2052C320.193 43.0617 318.255 41.2391 315.887 40.7834C313.827 40.3855 311.735 41.0337 309.662 41.3289C307.589 41.6241 305.188 41.4509 303.834 39.8529C302.994 38.8581 302.711 37.4912 301.915 36.4643C300.106 34.1283 296.416 34.3337 294.124 32.4661C292.815 31.4008 292.071 29.745 290.691 28.7824C288.092 26.9726 284.543 28.3075 281.687 29.6808C279.454 30.759 277.214 31.8308 274.98 32.9089C274.429 33.1785 273.825 33.448 273.222 33.3518C272.632 33.2555 272.163 32.8255 271.733 32.4148C269.891 30.6756 268.056 28.93 266.214 27.1908C265.527 26.5426 264.815 25.8752 263.916 25.5735C262.947 25.2527 261.895 25.4003 260.894 25.58C254.11 26.7993 247.635 29.3215 241.211 31.8308C240.229 32.2158 239.234 32.6073 238.419 33.2747C237.399 34.1155 236.725 35.2257 235.666 38.6078C234.247 43.1515 234.171 45.3656 232.669 49.2676C232.38 50.0249 232.027 50.8784 232.027 50.8784V50.8656Z" fill="white"/>
</mask>
<g mask="url(#mask1_1037_8371)">
<path d="M233.194 50.0756C234.831 49.3119 236.704 48.5289 238.938 49.3247C239.894 49.6649 240.825 50.2681 241.781 50.6083C245.124 51.7955 247.505 49.5365 250.233 48.3877C255.297 46.2507 262.24 48.0797 268.754 49.9344C269.261 50.082 269.832 50.2681 270.153 50.7045C270.423 51.0767 270.429 51.526 270.641 51.9239C271.071 52.7261 272.124 53.0149 273.009 53.1753C277.912 54.093 282.873 55.0236 287.905 55.9606C291.139 56.5639 294.611 57.2698 297.197 59.3748C299.97 61.6338 300.99 64.8876 302.325 67.7884C302.665 68.5328 303.121 69.3479 303.975 69.7008C304.514 69.9255 305.117 69.9255 305.688 69.9062C307.479 69.842 309.263 69.6687 311.028 69.3864C312.035 69.2259 313.062 69.0141 313.851 68.4943C314.82 67.8525 315.308 66.8193 315.597 65.7668C316.669 61.8007 315.276 57.4046 313.851 53.0919C313.088 50.7687 312.247 48.3107 310.367 46.4432C305.155 41.2641 295.978 43.5681 289.676 39.7881C289.034 39.403 288.412 38.9538 287.699 38.7805C287.07 38.6265 286.448 38.7099 285.838 38.7869C283.008 39.1655 280.152 39.5506 277.842 40.8405C276.539 41.5657 275.288 42.5926 273.683 42.3615C271.296 42.015 269.781 39.2233 267.792 37.5034C265.154 35.2187 261.631 34.9235 258.781 35.5075C255.932 36.0915 253.544 37.3558 250.791 37.7986C246.934 38.4147 242.634 37.3686 238.598 37.0156C234.619 36.6691 230.582 37.1889 228.965 40.1154C228.727 40.5389 228.548 41.0331 228.657 41.6235C228.759 42.169 229.093 42.7209 229.414 43.2536C230.601 45.1982 231.769 47.117 232.924 49.0167" fill="#AD7B4E"/>
</g>
<path d="M300.162 64.092C300.342 61.281 300.528 58.4701 300.708 55.6591C300.778 54.6066 299.642 53.8943 298.705 54.1317C296.51 54.6965 294.81 56.3587 294.059 58.4765C293.873 58.9963 294.091 59.6381 294.463 60.0167C294.887 60.4403 295.432 60.5302 296.003 60.4211C295.837 60.4531 295.663 60.4724 295.49 60.4211C295.452 60.4082 295.143 60.2606 295.33 60.3633C295.24 60.3119 295.009 60.1579 294.996 60.036C294.996 60.0809 295.176 60.3376 295.034 60.0745C294.906 59.8306 295.028 60.2093 294.996 59.9205C294.957 59.5739 294.951 60.1002 294.996 59.7472C295.034 59.4648 294.906 59.8242 295.034 59.5803C295.073 59.5162 295.31 59.1953 295.15 59.3236C294.495 59.837 294.572 61.0307 295.15 61.5634C295.849 62.2052 296.69 62.1089 297.39 61.5634C298.269 60.8767 298.301 59.5482 297.832 58.6241C297.306 57.5973 296.26 57.1609 295.156 57.3598L297.101 59.3044C297.114 59.2595 297.249 58.945 297.152 59.1504C297.062 59.3429 297.184 59.099 297.197 59.0605C297.281 58.9001 297.37 58.7396 297.473 58.5856C297.473 58.5856 297.698 58.2647 297.563 58.4508C297.428 58.6369 297.666 58.3353 297.672 58.3289C297.794 58.1941 297.922 58.0593 298.057 57.9374C298.115 57.8797 298.179 57.8347 298.243 57.777C298.404 57.6294 297.942 57.9759 298.263 57.7641C298.417 57.6615 298.564 57.5652 298.731 57.4753C298.802 57.4368 298.872 57.3983 298.949 57.3662C299.116 57.2828 299.155 57.2892 298.962 57.3534C299.155 57.2892 299.347 57.225 299.546 57.1737L297.544 55.6463C297.364 58.4572 297.178 61.2682 296.998 64.0791C296.947 64.907 297.762 65.6964 298.583 65.6643C299.488 65.6258 300.111 64.9712 300.169 64.0791L300.162 64.092Z" fill="#D8A977"/>
<path d="M247.576 36.1444C247.743 36.1829 247.717 36.1572 247.486 36.0738C247.628 36.1636 247.602 36.1444 247.416 36.0096C247.467 36.0609 247.519 36.1123 247.563 36.17C247.429 35.9903 247.409 35.9711 247.512 36.1123C247.685 36.4011 247.884 36.6835 248.07 36.9658C248.5 37.6269 248.93 38.2815 249.367 38.9425C249.803 39.6035 250.201 40.2132 250.618 40.8549C250.811 41.1502 250.99 41.5673 251.247 41.8112C251.324 41.9524 251.311 41.901 251.196 41.6636C251.215 41.7213 251.234 41.7791 251.241 41.8369C251.215 41.5609 251.202 41.5031 251.209 41.67C251.221 41.0282 251.645 40.6175 252.479 40.4442L254.007 41.6058C253.911 41.2978 253.846 40.9897 253.782 40.6688C253.756 40.4827 253.756 40.4891 253.782 40.6817C253.769 40.5918 253.763 40.502 253.757 40.4057C253.744 40.2774 253.737 40.1426 253.731 40.0078C253.718 39.6998 253.718 39.3917 253.731 39.0837C253.737 38.9104 253.757 38.7307 253.769 38.5574C253.789 38.3713 253.789 38.3841 253.763 38.5831C253.769 38.5189 253.782 38.4547 253.795 38.3906C253.891 37.7809 254.052 37.184 254.257 36.6064C254.308 36.4588 254.366 36.3176 254.424 36.1765C254.283 36.523 254.475 36.0802 254.507 36.016C254.649 35.7208 254.809 35.432 254.982 35.1496C255.412 34.4373 255.162 33.3784 254.417 32.9869C253.673 32.5954 252.71 32.7943 252.255 33.5516C250.695 36.1315 250.054 39.5265 250.958 42.4465C251.164 43.1075 251.773 43.621 252.486 43.6081C253.975 43.5825 254.726 42.0486 254.225 40.7458C254.026 40.226 253.705 39.7896 253.404 39.3275C253.102 38.8655 252.82 38.4355 252.524 37.9927C251.953 37.1199 251.382 36.2535 250.811 35.3807C250.24 34.5079 249.598 33.3078 248.423 33.1024C247.608 32.9612 246.678 33.3206 246.479 34.2062C246.306 34.9764 246.71 36.0032 247.583 36.1508L247.576 36.1444Z" fill="#D8A977"/>
<path d="M239.4 25.3181C238.238 23.7778 236.923 22.1927 234.349 20.9476C233.021 20.3059 231.551 19.5935 229.221 19.5422C225.647 19.4652 223.201 21.0311 219.941 21.8076C215.346 22.905 212.433 21.6343 209.269 20.4856C199.411 16.9045 192.384 14.3438 184.24 15.1461C177.912 15.7686 176.134 17.9377 171.571 17.2831C167.188 16.6542 167.727 14.4144 163.71 12.5918C157.671 9.84506 153.788 13.8882 147.89 11.5586C143.141 9.6782 144.835 6.55921 140.478 6.42444C138.392 6.36026 134.407 6.96994 130.03 8.91449C127.97 9.83222 126.526 10.7307 125.12 10.4483C123.4 10.1018 123.875 8.41392 122.194 8.46526C120.532 8.51018 119.402 10.198 117.746 10.0376C116.707 9.94132 116.822 9.23538 115.834 9.37015C114.781 9.51134 113.896 10.4098 112.509 11.4687C110.25 13.2015 107.946 14.3888 106.355 14.8252C103.955 15.4862 104.276 14.1256 102.447 14.9022C101.214 15.422 99.6035 17.1034 96.4781 20.3893C93.7891 23.2131 93.5388 23.7329 92.4927 24.3362C90.8562 25.286 90.0604 24.8175 89.0913 25.9663C88.2185 27.0059 88.4752 27.8595 87.6987 28.9056C86.3574 30.7153 84.8107 29.2329 82.5774 30.9143C80.1194 32.7626 78.1299 37.4731 77.5973 40.6242C77.4818 41.2981 77.4689 41.9013 77.4368 43.1143C77.3662 46.2333 77.7577 46.6504 78.5471 52.5162C78.7011 53.6328 78.823 54.6404 79.4006 55.5902C80.0103 56.5914 80.4082 56.3475 80.9794 57.1369C82.3399 59.0109 80.9858 61.5202 82.2116 62.7716C83.0651 63.6444 83.7583 62.4892 85.767 63.208C87.7757 63.9204 87.5254 65.2039 89.1363 65.1782C90.6958 65.1526 91.2926 63.9653 93.019 64.0231C94.0458 64.0552 94.1549 64.4787 95.6566 65.1654C95.9839 65.313 97.8964 66.1666 100.29 66.327C103.409 66.5388 103.916 65.3644 105.906 65.9484C108.152 66.603 107.67 68.124 109.878 68.6438C112.176 69.1829 113.01 67.6555 115.892 67.925C118.786 68.1945 118.433 69.7476 121.359 70.0236C124.504 70.3252 125.454 68.6245 128.329 69.0545C131.493 69.5294 130.851 71.6088 133.925 72.3147C137.692 73.1811 139.175 70.2675 144.835 70.3445C149.161 70.4086 150.419 72.0837 153.242 70.6589C155.944 69.292 156.471 66.9303 158.434 66.6158C160.828 66.2307 160.79 69.5808 163.896 70.107C166.489 70.5434 168.555 68.5796 173.92 66.2051C176.397 65.1077 179.536 64.3247 185.973 62.3994C190.863 60.9426 197.832 59.1456 210.405 56.662C223.208 54.127 229.728 54.0821 233.836 51.2647C234.349 50.9118 235.376 49.5063 237.558 46.7659C242.416 40.6756 244.88 37.5822 245.253 36.2281C245.875 33.9691 243.674 31.0426 239.38 25.3437L239.4 25.3181Z" fill="#C69461"/>
<path d="M169.974 58.0347C169.788 57.6624 169.537 57.4635 169.242 57.3929C167.715 57.0014 165.943 58.9845 164.377 58.7984C162.446 58.5673 162.831 55.044 161.541 55.2815C160.848 55.4098 160.533 56.4688 159.75 56.6356C158.646 56.8731 158.749 54.89 157.491 54.5435C155.47 53.9915 152.723 58.4903 148.699 59.2733C146.299 59.7418 146.19 58.3299 143.109 58.6443C140.85 58.8754 139.592 59.7739 137.674 60.544C133.014 62.4115 129.324 61.5259 125.159 60.5311C120.923 59.5172 122.136 58.6636 118.94 58.2015C114.024 57.4892 111.502 59.6455 109.147 57.733C107.812 56.6485 107.568 55.0825 106.291 55.4804C104.95 55.8976 104.481 57.8678 103.089 58.439C101.234 59.1963 101.009 56.0965 98.5963 56.1286C96.4464 56.1607 95.4773 58.6957 93.6162 58.7214C90.8502 58.7599 91.5433 53.0481 88.6296 53.3883C87.7055 53.4974 87.5386 54.0942 86.5503 54.2354C84.2079 54.5755 83.2837 51.4437 82.6741 49.236C81.4419 44.8014 80.6268 41.8814 82.1478 38.9934C84.2849 34.9182 88.174 35.8809 93.828 29.4375C95.2655 27.7946 96.7095 25.972 98.3524 24.8168C100.413 23.3728 102.12 23.161 102.967 23.0455C106.798 22.5257 106.798 24.9066 109.211 23.8092C112.279 22.4102 113.858 17.905 115.937 17.5327C117.984 17.1669 117.329 21.2999 119.762 20.8442C121.071 20.6004 121.674 19.3425 123.811 18.4569C125.993 17.5584 127.546 17.9435 128.214 18.1424C130.742 18.874 131.204 22.1278 132.764 24.2199C135.652 28.0834 142.506 27.801 149.418 24.9644C151.574 24.0788 153.987 22.9364 155.759 23.3728C158.146 23.9568 157.876 25.8372 159.513 27.4544C163.781 31.6773 172.9 24.7462 179.395 28.8343C181.686 30.2718 182.058 32.0752 186.063 33.6668C190.529 35.4445 193.154 34.4754 193.886 34.1738C196.106 33.256 196.479 32.0303 198.487 31.504C201.241 30.7852 201.446 32.8325 205.008 32.7169C208.377 32.6078 209.449 30.7724 212.35 30.9713C215.475 31.1831 215.777 33.3844 218.273 32.7619C219.993 32.3383 220.532 31.1382 222.162 30.7596C224.274 30.2718 225.904 31.6837 226.988 33.0571C227.405 33.6924 228.131 34.6679 229.324 35.6883C230.601 36.7793 231.372 37.036 231.198 37.7805C230.929 38.9613 228.586 40.1743 226.943 41.0214C225.095 41.9776 224.428 41.9969 223.106 42.9339C221.822 43.8388 221.649 44.3843 220.885 45.0646C217.798 47.8177 211.053 47.5097 209.397 47.4327C206.118 47.2787 205.977 46.6497 203.885 46.977C200.349 47.5289 197.518 49.8393 196.678 50.4811C193.514 52.8749 186.454 55.8398 169.942 58.0539L169.974 58.0347Z" fill="#AD7B4E"/>
<path d="M127.129 62.4627C123.689 62.5141 120.987 60.6594 117.682 60.1267C116.777 59.9791 113.594 60.2935 113.164 59.8636C113.036 59.7352 113.202 58.4966 113.254 58.073C113.741 53.7347 114.171 49.6338 108.858 48.5941C106.964 48.2219 106.695 48.4016 106.008 46.6239C105.52 45.3532 104.898 44.2558 103.749 43.46C101.683 42.0288 98.6663 41.6374 96.3624 40.7389C94.2253 39.911 92.2166 40.9378 90.2656 41.8427C89.4826 42.2085 88.1028 43.184 87.198 43.0493C85.5679 42.8054 83.6233 39.3783 82.6286 38.1782C80.6583 35.8101 77.2955 39.2051 79.2464 41.5604C81.5504 44.3328 83.604 48.3759 87.7049 47.7662C90.1437 47.4069 92.0112 45.8794 94.3473 45.2698C95.2971 45.0259 93.6477 44.904 94.8286 45.4045C95.4832 45.6869 96.08 45.9757 96.7667 46.1811C98.2556 46.6367 100.425 46.5084 101.407 47.8818C102.119 48.8829 102.113 50.237 102.979 51.2382C104.064 52.4896 105.514 52.8298 107.086 53.1186C108.659 53.4074 108.665 53.048 108.96 54.2224C109.185 55.1209 108.697 56.4173 108.575 57.3222C108.319 59.2539 108.177 61.2883 109.493 62.8863C111.425 65.2287 114.666 64.3431 117.29 64.8693C120.762 65.5689 123.458 67.2824 127.142 67.2246C130.216 67.1797 130.222 62.3985 127.142 62.4435L127.129 62.4627Z" fill="#D6A672"/>
<path d="M73.1556 135.428C67.7134 134.299 56.4889 132.45 49.8787 116.586C43.2685 100.721 44.2697 54.957 59.2165 49.1811C74.1632 43.4052 111.938 29.6906 130.196 49.2774C139.02 53.1857 147.004 75.4551 148.108 81.4042C121.185 98.1608 100.071 118.672 73.1492 135.428H73.1556Z" fill="#F2DA9E"/>
<path d="M149.456 83.3342C147.364 70.8968 133.944 70.7877 120.198 69.2282C106.881 67.7136 68.3171 84.0402 62.9776 106.675C61.3218 113.696 60.0768 128.354 68.0796 134.027C86.5625 147.126 153.242 105.803 149.456 83.3278V83.3342Z" fill="#E8C577"/>
<g opacity="0.32">
<path d="M97.274 74.5686C101.022 72.9578 104.699 71.6679 108.075 70.7565C103.364 61.8745 96.9338 53.923 91.1772 45.6185C90.0669 44.0141 88.9502 42.3134 88.3534 40.4844C83.5786 41.3443 78.9387 42.5188 74.6709 43.7831C77.8284 51.4137 82.6481 58.2806 87.6795 64.8587C90.4584 68.4911 93.3977 72.1363 97.2675 74.5622L97.274 74.5686Z" fill="white"/>
</g>
<g opacity="0.5">
<path d="M95.7012 39.4501C107.548 63.8822 111.643 70.0367 112.753 69.7864C112.817 69.7736 113.465 69.6003 114.396 69.4463C115.506 69.2537 116.417 69.1832 116.995 69.1446C114.338 63.4586 111.482 57.6249 108.395 51.6757C106.156 47.3502 103.897 43.1595 101.631 39.1035C100.803 39.1035 99.9497 39.1292 99.0576 39.1741C97.8832 39.2319 96.7601 39.3281 95.7012 39.4501Z" fill="white"/>
</g>
<path d="M215.807 143.167C216.334 138.334 217.919 128.457 204.108 118.953C191.035 109.962 152.202 101.606 144.366 111.483C136.799 121.007 119.395 143.873 128.919 161.149C129.772 168.189 144.09 180.344 148.319 183.014C168.15 169.158 191.716 159.654 215.807 143.167Z" fill="#F2DA9E"/>
<path d="M149.487 184.579C140.637 179.144 143.57 169.87 145.528 159.82C147.434 150.001 169.761 125.781 191.035 127.116C198.043 127.558 212.682 130.356 215.962 138.558C223.708 157.927 166.443 194.995 149.487 184.579Z" fill="#E8C577"/>
<g opacity="0.32">
<path d="M154.962 144.912C152.812 147.197 150.957 149.494 149.468 151.664C143.84 145.971 139.418 139.451 134.688 133.45C133.79 132.308 132.821 131.146 131.659 130.318C133.289 127.18 135.131 124.183 136.973 121.449C141.844 125.338 145.868 130.344 149.699 135.523C151.843 138.424 153.98 141.472 154.968 144.912H154.962Z" fill="white"/>
</g>
<g opacity="0.5">
<path d="M129.375 135.163C144.398 149.455 148.101 154.005 147.652 154.724C147.626 154.762 147.351 155.179 147.017 155.789C146.619 156.521 146.356 157.137 146.195 157.535C142.55 154.108 138.905 150.552 135.285 146.875C132.693 144.244 130.228 141.664 127.886 139.142C128.059 138.577 128.258 137.993 128.476 137.396C128.765 136.607 129.067 135.856 129.375 135.156V135.163Z" fill="white"/>
</g>
<path d="M294.573 157.24L272.72 155.712L268.312 109.312L276.655 115.942C280.441 120.165 285.652 126.974 289.548 136.485C292.898 144.661 294.117 152.003 294.573 157.246V157.24Z" fill="#F4B378"/>
<path d="M242.363 174.731C243.281 176.649 244.789 179.229 247.196 181.822C250.18 185.025 253.299 186.899 255.417 187.945C256.546 188.464 257.836 188.971 259.287 189.395C262.727 190.403 265.807 190.589 268.149 190.524C270.21 189.433 273.207 187.637 276.371 184.883C281.396 180.513 284.149 176.065 287.813 170.059C289.7 166.965 292.132 162.646 294.571 157.242C287.159 155.176 279.753 153.109 272.34 151.043L242.363 174.731Z" fill="#E2884B"/>
<path d="M268.31 109.306C258.279 102.15 231.967 112.457 225.395 130.914C222.507 139.026 224.143 146.651 224.92 150.27C227.583 162.643 235.272 170.223 240.136 175.004C247.33 182.089 252.407 185.959 256.347 185.741C260.288 185.522 279.817 163.831 279.791 153.1C279.759 142.37 278.026 137.634 274.965 125.723C272.443 115.904 271.127 111.321 268.31 109.306Z" fill="#F79857"/>
<path d="M225.036 142.601C229.766 144.096 229.849 138.243 233.097 136.876C234.714 136.196 235.933 135.689 237.429 134.778C238.449 134.155 238.61 134.059 239.97 133.976C240.894 133.924 241.806 133.924 242.698 133.655C246.388 132.538 245.72 129.252 248.05 126.993C249.09 125.986 250.623 125.049 252.035 124.715C253.826 124.298 253.332 124.895 253.794 126.358C253.98 126.955 254.461 127.539 255.109 127.673C256.541 127.962 258.081 127.725 259.493 127.372C260.288 127.173 261.071 126.891 261.816 126.55C262.477 126.249 263.452 125.1 263.459 126.165L265.339 124.285C263.067 124.086 259.031 123.637 259.396 127.25C259.781 131.088 264.569 129.945 266.976 130.594V126.968C265.031 127.629 263.087 128.283 261.149 128.944C259.345 129.554 259.39 131.941 261.149 132.57C263.388 133.372 265.609 133.841 267.964 134.13L266.34 131.299C266.912 130.536 262.464 130.311 262.079 130.362C261.123 130.497 260.449 131.813 260.763 132.679C261.232 133.963 261.867 134.675 263.196 135.169C263.78 135.388 264.486 135.542 265.121 135.522C265.525 135.561 265.936 135.548 266.34 135.484C265.577 134.733 265.166 135.221 265.121 136.947L268.561 138.397C269.177 136.151 267.958 134.682 265.904 133.924C264.434 133.385 263.363 134.964 263.587 136.241C263.889 137.942 264.081 139.63 264.178 141.35C264.261 142.845 265.692 143.602 267.008 142.973C266.084 142.896 266 143.249 266.751 144.026C267.053 144.642 267.361 145.264 267.662 145.88L268.336 143.307C266.283 144.385 264.71 145.778 263.452 147.722L266.892 149.173C267.701 146.83 268.458 144.469 269.171 142.094C269.491 141.016 268.574 139.591 267.354 139.713C263.914 140.06 263.343 142.973 262.323 145.855C261.071 149.404 258.915 153.299 259.595 157.131L261.412 154.75C257.535 154.878 255.347 156.187 255.161 160.006C255.071 161.822 253.672 162.984 253.216 164.857C252.671 167.091 253.152 169.446 253.627 171.647L257.253 170.646C254.846 164.549 247.505 176.056 246.202 178.168C245.258 179.702 247.203 181.845 248.775 180.741C252.806 177.905 256.252 174.619 259.178 170.646C260.16 169.311 258.53 167.412 257.054 167.88L256.117 168.182C253.819 168.913 254.801 172.552 257.118 171.808L258.055 171.506L255.931 168.74C253.409 172.161 250.347 175.042 246.876 177.487L249.449 180.061C250.354 178.585 251.31 177.173 252.414 175.838C252.613 175.601 255.193 172.764 254.821 172.668L253.505 171.352L253.621 171.647C254.493 173.868 257.773 173.059 257.247 170.646C256.913 169.112 256.476 167.425 256.836 165.859C257.157 164.447 258.28 163.914 258.812 162.701C259.762 160.538 258.023 158.626 261.412 158.517C262.721 158.472 263.44 157.355 263.228 156.136C262.849 153.999 264.434 151.162 265.127 149.205C265.41 148.409 266.629 143.557 267.354 143.487L265.538 141.106C264.826 143.48 264.068 145.835 263.26 148.184C262.541 150.277 265.583 151.355 266.7 149.635C267.624 148.21 268.741 147.356 270.236 146.567C271.179 146.073 271.34 144.873 270.91 143.994C269.678 141.484 268.465 138.134 265.108 139.732L267.938 141.356C267.823 139.296 267.573 137.274 267.213 135.246L264.896 137.563L264.928 137.409C264.351 139.52 267.213 140.605 268.368 138.859C269.459 137.21 270.223 134.848 269.106 133C268.715 132.352 268.304 132.037 267.592 131.813C267.072 131.652 264.505 131.993 264.396 131.697L263.08 134.014C264.447 133.822 265.737 134.977 267.22 134.771C268.362 134.617 268.92 134.11 269.588 133.218C270.544 131.935 269.196 130.542 267.964 130.388C265.955 130.144 264.049 129.644 262.15 128.963V132.589C264.094 131.928 266.039 131.274 267.977 130.613C269.678 130.035 269.851 127.487 267.977 126.987C266.899 126.698 265.487 126.39 264.389 126.653C263.927 126.557 263.574 126.749 263.343 127.224C262.528 127.712 262.535 127.924 263.363 127.86C263.606 128.026 265.127 128.052 265.333 128.071C266.347 128.161 267.22 127.141 267.213 126.191C267.213 124.253 266.097 122.424 264.165 121.833C261.495 121.012 259.165 124.683 256.111 124.067L257.426 125.382C256.579 122.681 256.104 120.614 252.619 120.832C249.757 121.005 246.67 122.854 244.809 124.972C243.757 126.172 243.737 127.564 242.922 128.816C241.292 131.325 238.25 129.464 236.1 130.85C234.9 131.627 234.284 132.506 232.866 133.039C231.987 133.372 231.03 133.546 230.196 134.008C229.458 134.425 228.836 134.919 228.322 135.593C227.969 136.049 226.679 139.193 226.044 138.994C223.727 138.263 222.739 141.895 225.043 142.62L225.036 142.601Z" fill="#F9B66B"/>
<path d="M32.1337 118.715C33.199 118.124 34.3542 117.527 35.9586 117.239C36.7929 117.091 37.7299 116.924 38.8209 117.187C40.5216 117.604 41.0607 118.715 42.3185 119.549C44.1347 120.755 46.1371 120.518 48.2613 120.377C55.2181 119.908 60.5255 119.549 65.2297 121.294C69.0867 122.726 69.1958 124.324 72.6741 124.766C76.1461 125.209 76.9419 123.733 80.9337 123.348C87.2294 122.738 88.0894 126.127 94.4942 125.819C99.9364 125.556 100.315 123.066 104.506 123.874C106.572 124.272 110.147 125.581 113.349 128.001C114.896 129.169 115.82 130.189 117.547 130.343C119.69 130.536 120.364 129.15 122.231 129.618C124.099 130.087 124.17 131.665 126.217 131.999C127.52 132.211 127.917 131.64 129.002 132.012C130.17 132.416 130.568 133.366 131.454 134.598C132.923 136.639 134.906 138.301 136.607 139.161C139.232 140.49 139.912 139.296 141.735 140.541C142.98 141.388 143.788 143.333 145.367 147.19C146.753 150.585 146.67 151.111 147.645 152.048C149.198 153.537 150.784 153.498 151.201 154.878C151.579 156.142 150.431 156.726 150.649 157.959C151.034 160.096 154.731 159.608 156.649 162.13C158.812 164.967 157.535 170.043 155.424 172.989C154.968 173.624 154.429 174.131 153.338 175.158C150.553 177.776 149.571 177.879 143.063 182.14C141.85 182.936 140.772 183.661 139.103 184.046C137.358 184.451 137.011 184.014 135.529 184.278C132.063 184.887 131.768 187.653 129.073 187.839C127.218 187.968 127.263 186.665 124.08 185.978C120.98 185.311 120.268 186.402 118.31 185.426C116.449 184.502 116.654 183.296 114.562 182.359C113.337 181.813 112.887 182.057 110.66 181.717C110.179 181.646 107.413 181.21 104.692 180.055C101.246 178.591 101.534 177.526 99.0893 176.929C96.381 176.275 95.8355 177.533 93.3262 176.801C90.7784 176.056 90.9902 174.657 88.1471 173.515C85.3683 172.392 84.7073 173.547 81.9862 172.437C79.1432 171.275 79.3678 169.812 76.7493 168.894C73.9448 167.919 73.2517 169.446 70.4793 168.651C67.187 167.707 67.7004 165.41 63.606 163.401C60.6089 161.925 58.9018 162.451 57.7723 160.693C56.7134 159.037 57.5541 157.535 56.4567 156.739C55.1346 155.789 53.5238 157.663 51.3803 156.99C49.6347 156.444 49.3459 154.769 47.3628 151.971C46.4708 150.707 45.0974 149.462 42.4918 146.824C40.5857 144.892 37.8518 142.389 32.9231 138.5C28.2895 134.849 25.6133 133.668 24.978 131.672C24.901 131.422 24.9972 130.607 25.1063 128.996C25.3502 125.466 25.4722 123.701 25.7995 123.027C26.3514 121.904 28.2702 120.839 32.108 118.708L32.1337 118.715Z" fill="#D6A672"/>
<path d="M53.4982 148.628C53.7869 148.474 54.0308 148.429 54.249 148.468C55.3721 148.666 55.5069 150.258 56.5722 150.592C57.9071 151.009 59.4024 148.904 60.1212 149.405C60.5127 149.674 60.179 150.367 60.6154 150.688C61.225 151.144 62.162 149.969 63.176 150.136C64.8382 150.406 64.3825 153.865 66.7827 155.598C68.2524 156.656 69.0931 155.848 71.1981 157.061C72.7704 157.966 73.2261 158.954 74.2722 160.096C76.8777 162.952 80.4075 163.806 84.5404 164.807C88.9301 165.866 88.3718 164.813 91.587 165.821C96.7404 167.438 97.7737 170.018 101.457 169.774C103.588 169.633 104.942 168.658 106.014 169.524C107.156 170.442 106.251 172.052 107.342 173.124C108.825 174.575 111.347 172.476 114.055 173.702C116.533 174.825 115.743 177.174 117.925 178.188C121.262 179.734 124.933 175.088 128.386 176.93C129.509 177.527 129.233 178.079 130.414 178.74C133.276 180.351 137.21 178.451 139.996 177.065C145.707 174.222 149.558 172.303 149.885 169.088C150.347 164.602 143.795 163.434 141.363 155.617C140.759 153.679 140.316 151.606 139.046 150.021C137.473 148.063 135.407 147.242 134.399 146.837C129.952 145.034 128.091 146.87 125.999 145.169C123.399 143.051 124.92 139.13 122.758 138.199C120.678 137.301 118.413 140.58 116.038 139.489C114.787 138.912 115.012 137.814 113.33 136.55C111.649 135.286 109.768 135.132 108.947 135.087C105.911 134.92 103.306 137.07 100.443 138.084C95.3029 139.9 89.405 137.833 85.2721 134.246C84.027 133.161 82.7499 131.878 81.107 131.749C78.9378 131.583 78.1099 132.808 75.9985 133.437C70.659 135.023 67.9251 128.951 61.6678 130.03C59.55 130.395 58.4654 131.332 55.3208 131.422C51.9323 131.518 50.8926 130.498 50.6166 130.196C49.7952 129.292 50.1289 128.566 49.2625 127.931C48.0945 127.071 47.0997 128.117 45.29 127.443C43.6149 126.821 43.8331 125.698 42.3122 125.332C40.7013 124.947 39.6681 126.006 38.7247 125.306C38.0829 124.831 38.3075 124.151 37.6978 123.715C36.9149 123.163 35.6314 123.618 34.6174 124.125C34.1874 124.376 33.5007 124.735 32.5894 125.049C31.6267 125.383 31.2032 125.39 31.0042 125.768C30.6833 126.371 31.2288 127.308 31.6203 127.976C32.0631 128.733 32.3455 128.849 32.5701 129.516C32.7883 130.164 32.66 130.46 32.737 130.922C33.0515 132.796 36.2603 133.874 37.0689 134.143C38.699 134.689 39.0263 134.4 39.9184 134.971C41.4522 135.947 41.9078 137.712 42.0683 138.219C42.678 140.131 45.1167 143.282 53.4982 148.628Z" fill="#AD7B4E"/>
<path d="M79.034 168.836C83.0001 170.774 87.3642 170.627 91.3945 172.289C93.8524 173.303 96.304 174.465 98.8839 173.078C100.764 172.064 101.579 170.152 102.901 168.605C105.019 166.128 107.965 168.554 110.712 168.612C112.419 168.644 113.779 167.989 115.287 167.309C117.527 166.301 119.228 166.526 121.577 167.014C123.438 167.399 125.235 167.758 127.134 167.899C128.81 168.028 129.535 168.714 130.793 169.876C132.898 171.814 135.054 173.887 137.955 174.535C139.822 174.952 141.741 174.458 143.589 174.144C146.253 173.695 148.916 173.252 151.579 172.802C154.609 172.295 153.325 167.688 150.309 168.195C146.4 168.849 140.162 171.16 136.652 168.708C134.496 167.2 132.955 164.902 130.549 163.715C129.381 163.137 128.399 163.182 127.134 163.118C125.004 163.015 122.957 162.354 120.858 162.001C119.491 161.77 118.137 161.623 116.757 161.809C114.896 162.059 113.638 163.163 111.905 163.651C108.985 164.479 106.065 161.963 102.985 162.855C101.008 163.426 99.6925 164.934 98.5245 166.539C96.8623 168.817 96.6313 169.343 93.8075 168.162C89.8093 166.481 85.3105 166.597 81.4471 164.71C78.6939 163.362 76.268 167.489 79.034 168.836Z" fill="#D6A672"/>
<path d="M83.5662 129.83L102.409 131.556L101.542 102.15L96.3246 105.096C94.0399 107.252 87.096 111.257 85.2028 116.943C83.5791 121.821 83.3994 126.467 83.5598 129.823L83.5662 129.83Z" fill="#F4B378"/>
<path d="M123.355 146.978C122.919 148.018 122.161 149.385 120.846 150.662C119.216 152.247 117.393 153.03 116.135 153.434C115.461 153.627 114.678 153.793 113.793 153.896C111.675 154.14 105.828 154.268 104.307 153.98C102.883 153.094 100.784 151.682 98.4673 149.641C94.745 146.355 92.4988 143.249 89.4633 138.994C87.8781 136.774 85.7859 133.674 83.5654 129.83C88.5905 129.547 97.4148 128.919 102.279 128.643L123.349 146.978H123.355Z" fill="#E2884B"/>
<path d="M101.548 102.149C107.793 99.1973 125.666 110.287 130.916 122.712C133.168 128.032 132.649 132.402 132.398 134.469C131.558 141.503 127.392 145.096 124.736 147.394C120.776 150.815 117.881 152.573 115.385 152.021C112.888 151.469 98.2819 135.746 97.3834 128.911C96.4785 121.993 97.2615 119.175 98.3525 111.866C99.2509 105.807 99.7708 102.99 101.542 102.149H101.548Z" fill="#F79857"/>
<path d="M131.076 127.339C131.34 127.249 131.391 127.5 131.051 127.16C130.871 126.98 130.768 126.775 130.653 126.55C130.319 125.895 130.056 125.241 129.594 124.657C128.837 123.701 127.771 123.206 126.725 122.648C126.257 122.404 125.827 122.147 125.474 121.762C125.012 121.255 124.652 120.736 124.017 120.421C122.964 119.895 121.662 120.132 120.705 119.362C119.903 118.72 119.807 117.52 119.274 116.686C118.825 115.98 118.241 115.345 117.631 114.78C116.418 113.663 114.942 112.553 113.332 112.091C112.459 111.841 111.432 111.853 110.732 112.515C110.424 112.81 110.213 113.182 110.097 113.593C110.039 113.811 110.014 114.061 110.014 114.292C110.014 114.44 110.097 115.197 110.078 114.979L110.27 114.273L110.213 114.369L111.426 113.676C111.599 113.727 111.605 113.727 111.438 113.683C111.316 113.65 111.188 113.618 111.066 113.58C110.899 113.528 110.739 113.477 110.572 113.419C110.142 113.272 109.731 113.079 109.327 112.867C108.512 112.437 107.819 111.905 107.113 111.321C106.311 110.653 105.078 110.904 104.334 111.565C103.59 112.226 103.397 113.156 103.609 114.113C103.705 114.555 104.135 115.005 104.591 115.094C105.046 115.184 105.502 115.216 105.964 115.274C106.054 115.287 106.279 115.332 106.349 115.332L106.548 115.39C106.728 115.563 106.657 115.377 106.343 114.844L106.702 114.222C106.875 114.196 106.895 114.177 106.766 114.17C106.638 114.17 106.51 114.145 106.381 114.106C106.118 114.055 105.861 113.971 105.598 113.907C104.989 113.753 104.36 113.618 103.724 113.683C102.447 113.817 101.677 115.582 103.018 116.301C104.36 117.02 105.733 117.758 107.094 118.489L107.8 115.871C106.426 116.051 105.053 116.025 103.679 115.852C102.531 115.704 102.056 117.129 102.466 117.963C102.832 118.708 103.628 119.125 104.411 119.272C104.822 119.349 105.2 119.362 105.611 119.304C105.887 119.266 106.304 119.112 106.58 119.253L105.887 118.04C105.887 118.04 106.445 117.193 106.497 117.244C106.477 117.225 106.157 117.244 106.099 117.244C105.849 117.219 105.598 117.135 105.361 117.058C104.507 116.782 103.59 116.731 103.006 117.54C101.985 118.939 103.076 120.934 103.975 122.07C104.982 123.348 106.959 121.711 106.182 120.37C106.182 120.819 106.022 121.127 105.695 121.3L104.289 119.895C104.206 121.063 104.212 122.218 104.302 123.386L106.702 122.391C106.022 121.724 104.976 121.493 104.129 121.993C103.281 122.494 102.999 123.643 102.627 124.49C102.312 125.209 102.428 125.966 103.134 126.409C104.154 127.063 105.066 127.866 105.739 128.88C106.753 130.407 108.91 129.091 108.165 127.461C107.491 125.979 106.843 124.483 106.227 122.975L104.501 124.702C105.021 124.785 105.2 125.408 105.399 125.831C105.823 126.749 106.24 127.673 106.664 128.591C107.062 129.457 107.459 130.324 107.851 131.19C108.088 131.716 108.737 132.672 108.634 133.282C108.512 133.988 108.814 134.848 109.616 135.008C110.11 135.111 111.49 135.361 111.695 135.933C111.734 136.035 111.599 136.504 111.586 136.677C111.56 137.242 111.714 137.8 112.022 138.269C112.6 139.141 113.332 139.674 113.556 140.752C113.729 141.587 113.62 142.485 113.518 143.319H116.329V143.197C116.098 143.602 115.867 144.006 115.636 144.41L115.757 144.34L115.052 144.532H115.225C114.987 144.475 114.75 144.41 114.519 144.346C114.936 144.539 115.315 145.065 115.629 145.399C116.065 145.861 116.495 146.329 116.906 146.817C117.683 147.728 118.402 148.691 119.069 149.686L121.277 147.985C118.838 146.085 116.572 143.923 114.679 141.471L112.76 143.39L113.383 143.685C114.07 144.012 114.897 143.878 115.302 143.178C115.661 142.568 115.488 141.58 114.795 141.259L114.172 140.964C113.601 140.695 112.94 140.714 112.472 141.182C112.067 141.587 111.875 142.402 112.253 142.883C114.301 145.54 116.643 147.902 119.287 149.968C119.839 150.398 120.539 150.552 121.129 150.077C121.649 149.666 121.886 148.858 121.488 148.267C120.391 146.624 119.159 145.071 117.811 143.627C117.234 143.005 116.585 142.138 115.757 141.85C114.66 141.465 113.543 142.113 113.511 143.313C113.492 144.07 114.172 144.718 114.917 144.718C115.751 144.718 116.232 144.07 116.322 143.313C116.463 142.132 116.521 140.932 116.207 139.764C116.046 139.174 115.796 138.577 115.462 138.063C115.302 137.813 115.109 137.569 114.923 137.338C114.808 137.203 114.423 136.902 114.378 136.741C114.333 136.581 114.468 136.286 114.48 136.106C114.506 135.791 114.487 135.464 114.403 135.156C114.256 134.636 113.935 134.168 113.55 133.796C112.709 132.98 111.496 132.512 110.367 132.281L111.349 134.007C111.554 132.807 111.214 131.819 110.732 130.728C110.2 129.534 109.641 128.347 109.096 127.153C108.595 126.056 108.159 124.888 107.568 123.842C107.074 122.969 106.291 122.135 105.258 121.974C104.34 121.833 103.076 122.597 103.532 123.701C104.238 125.433 104.982 127.153 105.752 128.854L108.178 127.436C107.235 126.011 105.996 124.881 104.565 123.957L105.072 125.876C105.348 125.247 105.566 124.496 105.977 123.944L105.47 124.451L104.732 124.349C105.547 125.151 107.222 124.612 107.132 123.354C107.042 122.192 107.036 121.031 107.119 119.863C107.177 119.099 106.433 118.47 105.714 118.457C103.917 118.432 102.871 120.184 103.776 121.75L105.983 120.049C105.733 119.728 105.367 119.157 105.483 118.733L105.123 119.356L105.245 119.234L104.251 119.645C104.559 119.606 105.034 119.863 105.354 119.92C105.861 120.017 106.362 120.055 106.875 119.978C107.947 119.818 108.647 119.093 108.717 118.008C108.749 117.54 108.435 117.007 108.024 116.795C107.241 116.391 106.516 116.32 105.65 116.449C105.464 116.474 105.284 116.5 105.098 116.513C104.944 116.526 104.867 116.404 104.918 116.513L103.705 118.624C105.078 118.797 106.445 118.823 107.825 118.643C108.448 118.56 109 118.265 109.179 117.61C109.34 117.026 109.077 116.314 108.531 116.025C107.171 115.293 105.816 114.568 104.456 113.837L103.75 116.455C104.687 116.359 105.605 116.834 106.542 116.917C107.607 117.013 108.769 116.583 109.102 115.46C109.41 114.421 108.833 113.413 107.921 112.893C107.119 112.437 106.221 112.508 105.354 112.335L106.336 113.317C106.368 113.458 106.054 113.676 106.137 113.67L105.143 113.259C106.381 114.395 107.787 115.274 109.346 115.897C109.956 116.14 110.662 116.442 111.329 116.449C112.362 116.461 112.979 115.569 112.869 114.613C112.844 114.401 112.908 114.498 112.844 114.19C112.818 114.055 112.722 114.401 112.85 114.202C112.767 114.331 112.767 114.401 112.651 114.53C112.85 114.305 112.228 114.889 112.44 114.671C112.542 114.568 112.093 114.806 112.337 114.697C112.51 114.619 112.164 114.645 112.375 114.697C112.529 114.735 112.683 114.78 112.837 114.831C113.229 114.966 112.703 114.767 112.94 114.87C113.03 114.908 113.113 114.953 113.203 114.998C113.627 115.21 114.038 115.46 114.429 115.73C115.141 116.224 115.841 116.827 116.444 117.514C116.733 117.841 116.784 117.867 117.015 118.316C117.317 118.9 117.484 119.568 117.818 120.152C118.581 121.486 119.948 122.301 121.418 122.635C122.028 122.776 122.624 122.719 123.067 123.181C123.587 123.726 123.998 124.227 124.646 124.644C125.294 125.061 125.968 125.331 126.61 125.709C127.296 126.114 127.624 126.614 127.964 127.333C128.631 128.745 129.998 130.644 131.84 130.015C133.541 129.431 132.809 126.717 131.096 127.307L131.076 127.339Z" fill="#F9B66B"/>
<path d="M231.261 67.0521C231.973 66.2242 233.327 64.8701 235.432 63.8946C237.204 63.0731 238.808 62.8357 239.835 62.7715C240.072 64.0743 240.31 65.3771 240.547 66.6799L231.261 67.0585V67.0521Z" fill="#F4B378"/>
<path d="M239.835 62.7715C238.738 62.964 236.851 63.471 235.112 64.9407C234.521 65.4412 234.059 65.9547 233.693 66.4296C244.52 73.8676 255.353 81.2993 266.18 88.7374C267.437 87.5437 269.087 85.7147 270.537 83.1669C271.994 80.5998 272.713 78.2252 273.085 76.531C262.002 71.9423 250.918 67.3601 239.835 62.7715Z" fill="#F4B378"/>
<path d="M235.554 64.5547L267.944 86.8754C265.358 89.7954 262.04 93.0042 257.875 96.0655C248.178 103.189 238.442 106.128 232.05 107.444C230.061 106.462 222.251 102.329 219.793 93.877C216.802 83.5703 222.944 70.844 235.548 64.5547H235.554Z" fill="#F79857"/>
<path d="M113.934 77.5506C112.599 77.6276 111.944 75.7986 111.932 74.4573C111.867 67.7123 115.506 62.1097 118.965 57.1681C121.269 53.8822 123.669 50.5964 127.295 48.7673C129.619 47.5929 132.346 47.0667 135.029 46.5597C139.162 45.7703 143.442 44.9809 147.935 45.7061C150.309 46.0912 152.703 46.8934 155.11 47.1437C156.348 47.272 157.587 47.2592 158.838 47.5159C160.09 47.7726 161.45 48.3887 162.188 49.3834C163.337 50.9429 162.503 52.6372 161.457 53.8437C155.347 60.9096 144.097 63.1173 134.907 67.815C131.499 69.5542 128.297 71.6784 124.773 73.3663C121.43 74.9643 117.842 76.1387 114.248 77.3196" fill="#F7B96F"/>
<path d="M114.28 78.8271L157.792 87.523C161.104 88.184 163.684 86.278 163.716 83.1911L164.011 52.014C164.017 51.1797 163.183 50.339 162.169 50.1529C156.502 49.0747 141.697 47.1751 129.144 54.7929C118.593 61.1977 114.383 71.2606 112.772 76.3691C112.438 77.4216 113.164 78.6024 114.28 78.8271Z" fill="#F79857"/>
<path d="M130.124 78.874C129.906 77.3915 128.873 74.2147 129.418 72.7579L128.276 73.9003C129.001 73.6051 130.143 74.1121 130.952 73.9003C131.696 73.7077 132.389 73.2072 132.858 72.6103C133.891 71.269 133.737 69.6903 132.999 68.2784L131.151 70.6786C131.722 70.8904 132.287 71.1022 132.858 71.3075C133.91 71.699 134.88 70.7043 134.931 69.7288C135.014 67.9768 134.835 66.4044 134.411 64.7102L132.832 66.7831C134.527 66.8857 136.099 66.6098 137.485 65.5958C139.462 64.1454 139.558 61.3665 142.69 62.971C143.742 63.5101 145.199 62.8619 145.148 61.5591C145.116 60.6542 148.748 60.3846 149.383 60.0638C150.487 59.5118 150.969 58.8701 151.431 57.7662L148.697 58.485C149.801 59.3642 149.653 60.5772 151.116 61.1419C152.579 61.7067 153.908 60.8082 155.345 61.4371C157.726 62.4704 158.85 64.8064 161.757 64.1839C163.817 63.7411 162.944 60.59 160.89 61.0328C159.369 61.3601 157.033 58.2989 155.39 57.9138C154.607 57.7341 153.818 58.0807 153.086 57.9459C151.88 57.7277 151.951 56.9255 151.007 56.1746C149.98 55.3532 148.767 55.6933 148.273 56.8934C147.939 57.7021 144.352 57.8176 143.396 58.4786C142.305 59.2295 141.83 60.2499 141.875 61.5527L144.333 60.1408C142.658 59.2808 140.521 58.2411 138.621 59.0048C137.838 59.3193 137.466 59.8006 137.004 60.4488C135.752 62.2073 135.508 63.6705 132.826 63.5036C131.735 63.4395 131.003 64.6011 131.247 65.5765C131.6 66.982 131.722 68.2848 131.651 69.7288L133.724 68.15C133.153 67.9382 132.588 67.7265 132.017 67.5211C130.593 66.9948 129.559 68.7597 130.169 69.9213C130.541 70.6273 127.91 70.5438 127.679 70.6208C126.954 70.8583 126.575 71.192 126.261 71.8787C125.285 73.9837 126.646 77.5648 126.967 79.7339C127.287 81.9031 130.419 80.9276 130.118 78.8675L130.124 78.874Z" fill="#F4BD7F"/>
<path d="M130.92 79.8109C130.696 78.3156 129.643 75.1131 130.189 73.6371L129.047 74.7794C129.772 74.4842 130.92 74.9912 131.736 74.7858C132.486 74.5933 133.173 74.0927 133.642 73.4895C134.688 72.1482 134.514 70.5502 133.77 69.1383L131.922 71.5385C132.493 71.7503 133.064 71.9621 133.642 72.1738C134.688 72.5653 135.67 71.5706 135.714 70.5951C135.791 68.8302 135.605 67.2515 135.175 65.538L133.597 67.6109C135.297 67.7136 136.876 67.4376 138.262 66.4172C140.245 64.9604 140.342 62.1559 143.493 63.7731C144.545 64.3122 146.002 63.664 145.951 62.3612C145.912 61.4307 149.557 61.1675 150.199 60.8466C151.303 60.2947 151.791 59.653 152.246 58.5363L149.512 59.2551C150.623 60.1407 150.482 61.3601 151.951 61.9312C153.421 62.5024 154.756 61.5975 156.206 62.2329C158.6 63.279 159.729 65.6278 162.656 64.9989C164.716 64.5561 163.843 61.405 161.789 61.8478C160.249 62.1751 157.9 59.0882 156.245 58.7031C155.462 58.5235 154.666 58.87 153.934 58.7352C152.708 58.5106 152.779 57.702 151.829 56.9511C150.802 56.1361 149.589 56.4698 149.095 57.6699C148.762 58.4914 145.168 58.6069 144.205 59.2743C143.114 60.0252 142.633 61.052 142.684 62.3612L145.142 60.9493C143.461 60.0894 141.311 59.0369 139.405 59.8006C138.615 60.115 138.249 60.6028 137.787 61.251C136.536 63.0222 136.298 64.4983 133.59 64.3314C132.499 64.2673 131.768 65.4289 132.011 66.4044C132.371 67.8162 132.499 69.1319 132.435 70.5887L134.508 69.0099C133.937 68.7982 133.366 68.5864 132.788 68.3746C131.363 67.8483 130.33 69.6132 130.94 70.7748C131.325 71.5128 128.674 71.423 128.443 71.4936C127.718 71.731 127.339 72.0647 127.025 72.7514C126.049 74.8757 127.429 78.4824 127.757 80.6644C128.084 82.8464 131.216 81.8581 130.908 79.798L130.92 79.8109Z" fill="#F4BD7F"/>
<g opacity="0.1">
<path d="M115.801 61.7949C113.555 65.5493 111.79 69.6887 111.835 74.4121C111.841 75.2399 112.092 76.2539 112.599 76.8893C112.618 77.7621 113.26 78.5964 114.177 78.7825L157.67 87.472C158.414 87.6196 159.12 87.6325 159.775 87.5362C157.317 86.3489 154.743 85.7393 152.253 84.982C137.621 80.5474 125.768 70.9016 115.801 61.7949Z" fill="#4C4C4C"/>
</g>
<path d="M225.107 108.902C229.285 109.775 233.334 111.283 237.069 113.35C237.974 113.85 238.905 114.422 239.444 115.307C240.567 117.143 239.649 119.498 238.776 121.462C228.938 143.603 226.352 168.176 223.887 192.281C212.137 190.856 205.109 187.468 201.567 185.388C197.113 182.776 196.869 181.467 191.176 178.444C187.679 176.59 184.354 175.454 184.56 173.432C184.714 171.898 185.991 170.756 187.14 169.723C190.663 166.539 201.201 151.638 223.695 111.219" fill="#DBAF79"/>
<path d="M226.858 115.402C221.275 125.055 215.666 135.361 210.127 146.303C204.865 156.7 200.116 166.808 195.822 176.544" fill="#E2884B"/>
<path d="M226.858 115.402C222.096 125.825 216.936 135.99 211.841 146.226C206.694 156.45 201.611 166.641 195.822 176.544C199.243 165.569 203.953 155.083 209.177 144.872C214.446 134.687 220.197 124.746 226.858 115.402Z" fill="#EAC994"/>
<path d="M231.12 116.809C227.244 126.313 221.808 139.598 218.285 149.064C214.184 159.903 210.456 170.794 206.207 181.614C207.863 170.062 211.258 158.844 215.5 147.998C219.78 137.178 224.857 126.634 231.114 116.809H231.12Z" fill="#EAC994"/>
<path d="M234.683 120.557C230.319 131.287 226.699 142.197 224.337 153.505C221.95 164.813 220.827 176.217 220.262 187.795C216.54 164.717 222.123 140.188 234.683 120.557Z" fill="#EAC994"/>
<path d="M77.3777 118.412C75.7284 121.21 73.6555 123.751 71.2553 125.94C70.6712 126.472 70.0359 126.998 69.2658 127.172C67.6678 127.531 66.1981 126.299 64.998 125.189C51.4567 112.7 34.3986 104.838 17.6484 97.1755C21.544 89.0636 25.7026 84.8279 28.0643 82.7871C31.0357 80.22 32.0304 80.3612 35.5987 77.0048C37.7935 74.9383 39.4172 72.8269 40.8227 73.4686C41.888 73.9564 42.395 75.1565 42.8635 76.2282C44.2946 79.5462 52.4515 90.7707 76.0557 116.839" fill="#DBAF79"/>
<path d="M72.2696 118.084C66.6798 111.705 60.6344 105.153 54.1076 98.4912C47.9081 92.1634 41.7921 86.2784 35.8301 80.8105" fill="#E2884B"/>
<path d="M72.2702 118.085C66.045 112.232 59.7814 105.808 53.7488 99.7368C47.6392 93.5438 41.5424 87.3892 35.8242 80.8047C42.8901 85.9452 49.2885 91.9008 55.3596 98.1581C61.3858 104.409 67.1874 111.026 72.2702 118.079V118.085Z" fill="#EAC994"/>
<path d="M70.2092 120.812C64.5424 115.896 55.8657 108.375 50.1283 103.683C43.3128 98.0936 36.3881 92.7477 29.6367 87.0488C37.524 91.0406 44.8145 96.271 51.5595 101.964C58.2916 107.669 64.69 113.932 70.2092 120.812Z" fill="#EAC994"/>
<path d="M66.6475 122.455C59.986 116.692 53.0164 111.417 45.4564 106.956C37.8963 102.477 29.9576 98.8894 21.7559 95.6484C39.2761 98.6134 55.577 108.619 66.6475 122.455Z" fill="#EAC994"/>
<path d="M335.24 125.447C337.762 125.094 341.773 124.035 345.188 120.724C348.108 117.894 349.276 114.71 351.259 109.313C353.402 103.48 354.269 98.6791 354.487 97.1645C356.553 82.943 346.234 56.9129 322.758 46.7537C317.232 44.3599 306.643 39.9895 293.846 44.8156C289.425 46.4842 286.299 48.6726 283.238 50.8161C277.494 54.84 266.321 62.5733 259.781 77.3532C252.703 93.3524 255.186 106.887 255.982 110.52C265.339 115.359 277.969 120.628 293.468 123.663C310.051 126.91 324.606 126.551 335.227 125.447H335.24Z" fill="#F2DA9E"/>
<path d="M277.641 83.4426C268.785 86.722 259.961 89.3725 255.102 94.1858C253.087 102.895 254.981 109.806 255.686 112.065C265.159 116.218 277.93 120.819 293.467 123.694C310.096 126.775 324.51 126.871 334.958 126.261C336.902 126.088 339.726 125.587 342.37 124.124C344.911 117.54 342.915 109.011 341.099 104.454C333.218 84.6812 291.08 78.4625 277.641 83.4426Z" fill="#E8C577"/>
<path d="M295.11 63.2981C294.045 63.0478 293.127 63.5741 292.755 64.5881C292.549 65.1528 292.992 65.7047 293.493 65.8844C294.603 66.2823 295.713 66.6866 296.817 67.0845L296.355 65.3261C295.213 66.4299 294.07 67.5273 292.934 68.6312C292.415 69.1382 292.601 70.2677 293.397 70.3896C296.227 70.826 294.853 74.3814 294.154 76.0115C293.711 77.0383 293.217 78.1935 292.312 78.893C291.568 79.4706 290.502 79.7466 289.681 79.2075L289.43 81.1328C296.458 79.9776 303.492 81.6462 310.288 83.3277C311.603 83.655 312.168 81.6206 310.846 81.2997C303.646 79.522 296.297 77.8855 288.866 79.1048C287.903 79.2653 287.929 80.5809 288.615 81.0301C289.944 81.9029 291.702 81.704 293.037 80.9339C294.577 80.0418 295.405 78.4117 296.073 76.8394C296.791 75.1451 297.574 73.3097 297.119 71.4421C296.753 69.9211 295.534 68.5991 293.955 68.3616L294.417 70.1201C295.559 69.0162 296.702 67.9188 297.838 66.815C298.447 66.231 298.088 65.3133 297.376 65.0565C296.265 64.6586 295.155 64.2543 294.051 63.8564L294.789 65.1528L294.552 65.3325C295.867 65.6406 296.432 63.6061 295.11 63.3045V63.2981Z" fill="#F2DA9E"/>
<g opacity="0.41">
<path d="M320.91 85.9004C320.345 86.3239 319.761 86.7218 319.171 87.1069C323.092 88.5509 326.782 90.2901 330.023 92.3373C331.981 91.0666 333.617 89.3146 335.132 87.5625C337.32 85.0276 346.568 73.9507 348.583 71.1397C346.735 67.5073 343.789 63.1946 340.343 59.4531C339.297 65.582 326.038 82.0754 320.923 85.9004H320.91Z" fill="white"/>
</g>
<path d="M345.592 88.1409C343.532 85.407 343.243 84.6882 342.172 83.3597C340.381 81.152 339.316 79.8364 337.763 79.7851C336.062 79.7273 334.56 81.0109 333.79 82.5318C333.02 84.0464 332.828 85.7792 332.558 87.4606C331.948 91.2727 330.889 95.0206 329.42 98.5889C327.822 102.465 325.749 106.123 323.682 109.768C321.629 113.388 319.569 117.014 317.515 120.634C316.636 122.18 315.757 123.727 314.691 125.145C314.306 125.652 313.889 126.159 313.331 126.474C312.772 126.788 312.131 126.884 311.508 127.026C307.953 127.847 304.924 130.26 301.375 131.12C296.138 132.391 290.054 130.241 285.561 133.206C281.242 136.055 280.703 142.126 281.108 147.286C281.255 149.16 281.467 151.06 282.166 152.805C283.386 155.854 285.946 158.151 288.584 160.096C291.543 162.278 294.719 164.171 298.044 165.743C300.226 166.77 302.523 167.675 304.93 167.81C307.337 167.945 309.897 167.213 311.502 165.41C312.894 163.844 313.401 161.713 314.203 159.775C315.006 157.837 316.385 155.867 318.446 155.514C319.729 155.295 321.045 155.751 322.335 155.591C325.268 155.225 326.975 151.952 329.747 150.931C331.326 150.347 333.136 150.553 334.669 149.86C337.557 148.544 338.212 144.815 338.488 141.651C338.7 139.181 338.918 136.71 339.13 134.239C339.181 133.629 339.252 132.975 339.65 132.5C340.035 132.044 340.644 131.858 341.215 131.698C343.654 131.005 346.086 130.311 348.525 129.618C349.43 129.362 350.373 129.086 351.086 128.47C351.856 127.802 352.267 126.82 352.62 125.864C355.033 119.408 356.162 112.554 357.285 105.751C357.459 104.711 357.625 103.652 357.465 102.613C357.266 101.304 356.65 100.161 354.282 97.53C351.099 93.9874 349.231 92.8001 346.638 89.5143C346.138 88.8789 345.579 88.1409 345.579 88.1409H345.592Z" fill="#D8A977"/>
<mask id="mask2_1037_8371" style="mask-type:luminance" maskUnits="userSpaceOnUse" x="280" y="79" width="78" height="89">
<path d="M345.592 88.1409C343.532 85.407 343.243 84.6882 342.172 83.3597C340.381 81.152 339.316 79.8364 337.763 79.7851C336.062 79.7273 334.56 81.0109 333.79 82.5318C333.02 84.0464 332.828 85.7792 332.558 87.4606C331.948 91.2727 330.889 95.0206 329.42 98.5889C327.822 102.465 325.749 106.123 323.682 109.768C321.629 113.388 319.569 117.014 317.515 120.634C316.636 122.18 315.757 123.727 314.691 125.145C314.306 125.652 313.889 126.159 313.331 126.474C312.772 126.788 312.131 126.884 311.508 127.026C307.953 127.847 304.924 130.26 301.375 131.12C296.138 132.391 290.054 130.241 285.561 133.206C281.242 136.055 280.703 142.126 281.108 147.286C281.255 149.16 281.467 151.06 282.166 152.805C283.386 155.854 285.946 158.151 288.584 160.096C291.543 162.278 294.719 164.171 298.044 165.743C300.226 166.77 302.523 167.675 304.93 167.81C307.337 167.945 309.897 167.213 311.502 165.41C312.894 163.844 313.401 161.713 314.203 159.775C315.006 157.837 316.385 155.867 318.446 155.514C319.729 155.295 321.045 155.751 322.335 155.591C325.268 155.225 326.975 151.952 329.747 150.931C331.326 150.347 333.136 150.553 334.669 149.86C337.557 148.544 338.212 144.815 338.488 141.651C338.7 139.181 338.918 136.71 339.13 134.239C339.181 133.629 339.252 132.975 339.65 132.5C340.035 132.044 340.644 131.858 341.215 131.698C343.654 131.005 346.086 130.311 348.525 129.618C349.43 129.362 350.373 129.086 351.086 128.47C351.856 127.802 352.267 126.82 352.62 125.864C355.033 119.408 356.162 112.554 357.285 105.751C357.459 104.711 357.625 103.652 357.465 102.613C357.266 101.304 356.65 100.161 354.282 97.53C351.099 93.9874 349.231 92.8001 346.638 89.5143C346.138 88.8789 345.579 88.1409 345.579 88.1409H345.592Z" fill="white"/>
</mask>
<g mask="url(#mask2_1037_8371)">
<path d="M345.675 89.5508C345.495 91.3477 345.213 93.3565 343.39 94.8775C342.614 95.5256 341.613 96.0198 340.836 96.668C338.109 98.9334 338.84 102.136 338.436 105.069C337.692 110.517 332.577 115.555 327.654 120.208C327.269 120.574 326.82 120.965 326.275 121.017C325.812 121.062 325.427 120.831 324.978 120.811C324.073 120.773 323.284 121.53 322.693 122.204C319.408 125.952 316.077 129.745 312.695 133.595C310.526 136.066 308.145 138.697 305.013 139.846C301.656 141.078 298.332 140.295 295.162 139.968C294.347 139.885 293.416 139.859 292.678 140.411C292.21 140.757 291.901 141.277 291.632 141.778C290.772 143.35 290.008 144.974 289.354 146.636C288.981 147.586 288.635 148.574 288.68 149.524C288.737 150.686 289.379 151.635 290.137 152.412C292.999 155.358 297.491 156.404 301.926 157.379C304.313 157.905 306.855 158.438 309.422 157.777C316.539 155.935 319.234 146.873 325.697 143.376C326.352 143.023 327.064 142.715 327.571 142.189C328.02 141.726 328.27 141.149 328.514 140.584C329.637 137.953 330.754 135.302 330.831 132.658C330.87 131.169 330.626 129.565 331.64 128.307C333.154 126.427 336.325 126.555 338.821 125.721C342.126 124.617 344.186 121.742 345.136 118.989C346.073 116.287 346.214 113.54 347.241 110.947C348.679 107.315 351.772 104.151 354.134 100.852C356.457 97.605 358.074 93.8699 356.38 90.9819C356.136 90.5648 355.802 90.154 355.237 89.9487C354.718 89.7562 354.069 89.7626 353.447 89.769C351.169 89.7947 348.922 89.8203 346.702 89.8524" fill="#AD7B4E"/>
</g>
<path d="M299.463 140.008C301.786 141.599 304.109 143.191 306.432 144.783C307.299 145.373 308.486 144.757 308.756 143.839C309.397 141.644 308.82 139.334 307.369 137.601C307.016 137.178 306.336 137.056 305.829 137.197C305.264 137.351 304.911 137.768 304.725 138.301C304.854 138.031 304.879 137.967 304.802 138.102L304.969 137.877C305.207 137.71 305.271 137.659 305.168 137.723C305.059 137.787 305.136 137.755 305.406 137.633C305.155 137.71 305.406 137.569 305.572 137.633C305.527 137.614 305.412 137.665 305.373 137.633L305.662 137.672C305.617 137.665 305.579 137.653 305.534 137.64C305.624 137.685 305.906 137.839 305.681 137.685L305.9 137.851C305.823 137.774 305.835 137.794 305.945 137.916C306.034 138.044 306.054 138.063 306.002 137.973C306.105 138.14 306.156 138.326 306.15 138.525C306.105 138.095 306.002 137.723 305.688 137.409C305.412 137.133 304.963 136.927 304.571 136.947C303.795 136.979 302.89 137.646 302.986 138.532C303.057 139.154 303.23 139.674 303.692 140.117C304.154 140.56 304.712 140.752 305.316 140.797C306.452 140.887 307.414 140.207 307.786 139.148L305.142 139.847C305.38 140.136 304.956 139.559 305.162 139.867C305.2 139.924 305.245 139.989 305.284 140.046C305.393 140.213 305.489 140.386 305.572 140.566C305.688 140.804 305.56 140.669 305.566 140.534C305.566 140.598 305.637 140.727 305.656 140.791C305.72 140.977 305.771 141.169 305.81 141.368L305.829 141.477C305.855 141.619 305.855 141.619 305.829 141.477C305.81 141.343 305.81 141.336 305.829 141.477L305.842 141.587C305.855 141.766 305.861 141.946 305.855 142.132C305.855 142.241 305.842 142.35 305.836 142.459C305.816 142.761 305.887 142.215 305.836 142.414C305.784 142.613 305.752 142.806 305.701 142.998L308.024 142.055C305.701 140.463 303.378 138.872 301.054 137.28C300.368 136.812 299.27 137.126 298.892 137.845C298.468 138.647 298.731 139.507 299.456 140.008H299.463Z" fill="#D8A977"/>
<path d="M350.303 109.05C350.181 109.178 350.206 109.166 350.373 109.018C350.566 108.947 350.604 108.928 350.489 108.96C350.065 109.005 350.726 108.973 350.386 108.979C350.046 108.986 349.738 109.012 349.411 109.024C348.64 109.056 347.864 109.095 347.094 109.127C346.324 109.159 345.605 109.191 344.86 109.23C344.488 109.249 344.116 109.268 343.744 109.281C343.494 109.287 343.404 109.268 343.68 109.313C343.513 109.262 343.538 109.275 343.763 109.358C343.988 109.506 344.148 109.717 344.244 109.981V110.821L344.142 111.046L342.351 111.771C342.691 111.855 343.025 111.957 343.352 112.086C343.07 111.97 343.532 112.175 343.583 112.201C343.725 112.272 343.866 112.342 344.001 112.419C344.276 112.573 344.54 112.74 344.803 112.913C344.912 112.99 345.021 113.067 345.13 113.151C344.848 112.946 345.233 113.234 345.284 113.279C345.753 113.671 346.157 114.114 346.561 114.569C346.799 114.845 346.452 114.402 346.645 114.672C346.747 114.82 346.856 114.961 346.953 115.115C347.126 115.378 347.286 115.647 347.434 115.923C347.825 116.655 348.897 116.944 349.597 116.488C350.341 116.007 350.585 115.102 350.161 114.325C348.743 111.681 346.15 109.416 343.192 108.71C342.531 108.549 341.741 108.813 341.401 109.435C340.644 110.841 341.709 112.208 343.147 112.4C344.167 112.535 345.278 112.362 346.311 112.317C347.344 112.272 348.371 112.22 349.398 112.175C350.489 112.124 351.747 112.175 352.53 111.264C353.069 110.642 353.191 109.634 352.53 109.024C351.933 108.479 350.867 108.357 350.29 109.024L350.303 109.05Z" fill="#D8A977"/>
<g opacity="0.3">
<path d="M243.712 113.261C247.691 111.156 250.804 109.506 253.435 105.964C254.808 104.115 255.867 101.446 257.927 96.1768C259.731 91.5689 260.629 89.2649 261.252 86.9289C263.357 78.9967 260.905 79.1314 262.766 70.8526C263.857 65.9945 263.633 60.8218 265.288 56.1305C265.333 56.0021 265.398 55.6107 265.301 55.2128C265.038 54.1346 263.761 54.0191 262.593 54.3015C261.637 55.001 260.969 56.1433 260.693 57.3242C260.315 58.9799 260.539 60.7063 260.68 62.4006C261.008 66.2512 260.886 70.1403 260.315 73.9588C259.699 78.1046 258.569 82.1542 257.44 86.1909C256.316 90.2019 255.193 94.213 254.077 98.224C253.595 99.9375 253.12 101.651 252.427 103.288C252.177 103.872 251.895 104.462 251.433 104.898C250.971 105.335 250.367 105.585 249.796 105.874C246.542 107.53 244.187 110.597 240.946 112.292C236.171 114.782 229.747 114.166 226.102 118.125C224.639 119.717 223.959 121.693 223.772 123.811C224.94 122.938 226.429 121.231 229.022 119.422C234.419 115.642 236.178 117.259 243.719 113.267L243.712 113.261Z" fill="white"/>
</g>
</svg>
