<svg width="524" height="309" viewBox="0 0 524 309" fill="none" xmlns="http://www.w3.org/2000/svg">
<path d="M470.288 213.322C470.288 239.393 454.764 262.911 430.91 272.988C391.168 289.782 333.576 307.179 263.079 307.417C191.233 307.661 132.577 289.995 92.3528 273.009C68.4823 262.928 52.9248 239.414 52.9248 213.322V75.7559H470.288V213.322Z" fill="#DB464A"/>
<path opacity="0.46" d="M118.141 253.559C94.2704 243.478 78.7128 219.963 78.7128 193.872V76.5938H51.6621V214.16C51.6621 240.251 67.2196 263.77 91.0901 273.847C131.314 290.833 189.97 308.503 261.816 308.255C332.318 308.017 389.905 290.615 429.647 273.826C439.947 269.473 448.691 262.614 455.307 254.125C415.615 270.734 358.547 287.733 288.867 287.972C217.021 288.215 158.365 270.549 118.141 253.563V253.559Z" fill="#CE3E40"/>
<path d="M260.255 0C144.104 0 49.9414 37.5677 49.9414 83.9092C49.9414 130.251 144.099 167.818 260.255 167.818C376.411 167.818 470.568 130.251 470.568 83.9092C470.568 37.5677 376.411 0 260.255 0ZM262.564 160.063C161.806 160.063 80.6877 133.167 61.9458 96.408C80.6835 59.6448 161.802 31.0815 262.564 31.0815C363.325 31.0815 439.818 59.0121 458.556 95.7753C439.818 132.539 363.321 160.067 262.564 160.067V160.063Z" fill="white"/>
<path d="M86.6958 190.83C80.4945 200.978 59.8713 197.936 52.2622 196.813C39.4743 194.928 14.0284 191.22 4.01423 169.738C3.08405 167.747 -4.5334 150.69 4.01423 134.303C14.284 114.614 42.1559 106.866 52.2622 115.016C59.9635 121.23 51.6295 131.269 60.5417 146.114C68.972 160.151 81.7516 159.866 86.6958 174.799C87.7056 177.845 90.14 185.194 86.6958 190.83Z" fill="#AC252A"/>
<path d="M437.304 190.83C443.505 200.978 464.129 197.936 471.738 196.813C484.526 194.928 509.972 191.22 519.986 169.738C520.916 167.747 528.533 150.69 519.986 134.303C509.716 114.614 481.844 106.866 471.738 115.016C464.036 121.23 472.37 131.269 463.458 146.114C455.028 160.151 442.248 159.866 437.304 174.799C436.294 177.845 433.86 185.194 437.304 190.83Z" fill="#AC252A"/>
<path d="M450.066 83.5586C453.515 87.3883 456.301 91.3478 458.375 95.4205C439.637 132.184 363.14 159.712 262.383 159.712C161.626 159.712 80.5071 132.816 61.7651 96.0574C63.9523 91.7668 66.9985 87.5936 70.8156 83.5586H49.7607C49.7607 129.9 143.919 167.468 260.074 167.468C376.23 167.468 470.388 129.9 470.388 83.5586H450.07H450.066Z" fill="white"/>
<path d="M262.563 30.885C161.806 30.885 80.6872 59.4526 61.9453 96.2116C80.6831 132.975 161.802 159.866 262.563 159.866C363.325 159.866 439.818 132.338 458.555 95.5747C439.818 58.8115 363.32 30.8809 262.563 30.8809V30.885Z" fill="#EDB182"/>
<path d="M150.954 147.716C182.522 155.438 220.186 159.871 261.084 159.871C301.983 159.871 338.885 155.333 369.547 147.485C338.885 139.558 301.983 134.957 261.084 134.957C220.186 134.957 182.522 139.662 150.954 147.716Z" fill="#C07F4E"/>
<path d="M423.347 51.5062C416.584 39.8831 409.026 26.9066 396.024 19.9219C378.987 25.6077 358.988 23.8772 343.293 33.0282C333.874 38.5172 326.742 47.8106 323.876 58.3317C323.859 58.1599 323.843 57.984 323.826 57.8122C321.945 63.938 320.729 71.1071 321.882 78.1714C324.769 82.2776 330.216 88.6046 338.885 91.6214C345.354 93.8714 353.194 95.5139 367.105 93.4357C379.205 91.6298 385.21 101.749 391.13 98.1327C397.243 94.3952 395.961 92.8951 404.458 87.2721C415.135 80.2078 421.864 71.744 424.281 71.6895C427.918 71.6057 429.787 66.4645 431.782 67.0721C429.196 61.5622 426.112 56.2577 423.347 51.5062Z" fill="#F4D9A5"/>
<path d="M343.296 33.0282C358.991 23.8814 378.986 25.6077 396.027 19.9218C392.876 18.2291 389.411 16.8841 385.552 16C370.464 12.5432 354.236 17.169 343.174 26.3074C336.416 31.8885 332.963 38.0143 330.575 42.3426C329.288 44.6764 326.083 50.4963 323.833 57.8121C323.85 57.9839 323.867 58.1599 323.883 58.3317C326.749 47.8105 333.881 38.5171 343.3 33.0282H343.296Z" fill="#F1D594"/>
<g opacity="0.64">
<path d="M343.321 33.0594C359.017 23.9126 379.012 25.6389 396.052 19.9531C392.901 18.2603 389.436 16.9153 385.577 16.0312C370.489 12.5744 354.261 17.2002 343.199 26.3386C336.441 31.9197 332.988 38.0455 330.6 42.3738C329.314 44.7077 326.108 50.5276 323.858 57.8434C323.875 58.0151 323.892 58.1911 323.909 58.3629C326.775 47.8418 333.906 38.5483 343.325 33.0594H343.321Z" fill="white"/>
</g>
<path d="M385.548 115.655C394.77 116.078 425.219 117.478 434.798 99.6197C440.077 89.7816 436.913 78.0244 431.777 67.0801C429.397 67.6122 425.911 68.5801 422.01 70.4405C413.491 74.4964 410.123 79.3736 405.208 83.1572C397.963 88.7299 390.392 89.5804 378.869 90.8793C361.644 92.8151 348.244 88.7383 341.13 86.4924C332.825 83.8695 326.301 80.6515 321.881 78.1836C322.053 79.2269 322.271 80.2661 322.551 81.301C329.28 106.299 365.78 114.754 385.548 115.663V115.655Z" fill="#E7BE6A"/>
<path d="M311.479 46.1482C312.12 40.2822 314.044 28.2988 297.288 16.7679C281.428 5.85706 234.312 -4.27439 224.8 7.70066C215.62 19.2609 194.502 46.9988 206.059 67.9573C207.093 76.4965 224.469 91.2453 229.598 94.4884C253.661 77.6781 282.25 66.143 311.483 46.144L311.479 46.1482Z" fill="#F1D594"/>
<path d="M231.015 96.3917C220.28 89.7967 223.837 78.5423 226.209 66.3493C228.526 54.4329 255.614 25.0484 281.421 26.6657C289.922 27.1979 307.688 30.596 311.668 40.5514C321.062 64.0532 251.588 109.025 231.019 96.3876L231.015 96.3917Z" fill="#E7BE6A"/>
<g opacity="0.45">
<path d="M237.656 48.2619C235.05 51.0357 232.8 53.822 230.99 56.4534C224.16 49.5524 218.793 41.6333 213.057 34.3552C211.963 32.9683 210.79 31.5605 209.378 30.5591C211.356 26.7545 213.589 23.1176 215.822 19.7949C221.73 24.5171 226.616 30.5884 231.267 36.8692C233.869 40.3888 236.462 44.0886 237.656 48.2577V48.2619Z" fill="white"/>
</g>
<g opacity="0.68">
<path d="M206.613 36.4355C224.843 53.7738 229.335 59.2963 228.79 60.1678C228.761 60.2139 228.422 60.7209 228.019 61.4625C227.537 62.3466 227.215 63.1008 227.022 63.5827C222.597 59.422 218.177 55.1146 213.782 50.6523C210.635 47.4553 207.647 44.3253 204.807 41.2708C205.02 40.5879 205.259 39.8797 205.523 39.1549C205.875 38.1954 206.24 37.2861 206.613 36.4355Z" fill="white"/>
</g>
<path d="M322.379 92.1654L299.384 90.5564L294.746 41.7344L303.524 48.7107C307.513 53.1522 312.989 60.3171 317.091 70.3228C320.615 78.9249 321.902 86.6513 322.379 92.1654Z" fill="#F5AB6D"/>
<path d="M267.449 110.567C268.417 112.582 270.001 115.302 272.536 118.029C275.674 121.398 278.959 123.372 281.184 124.474C282.37 125.023 283.732 125.555 285.253 125.999C288.869 127.059 292.116 127.256 294.58 127.185C296.75 126.032 299.901 124.147 303.228 121.252C308.511 116.651 311.411 111.975 315.266 105.652C317.252 102.396 319.808 97.8545 322.376 92.1645C314.578 89.9899 306.781 87.8152 298.987 85.6406L267.449 110.567Z" fill="#E67F3D"/>
<path d="M294.747 41.7336C284.192 34.2 256.504 45.0521 249.595 64.4687C246.557 73.0079 248.279 81.0234 249.096 84.8321C251.895 97.8547 259.99 105.824 265.106 110.86C272.678 118.315 278.016 122.387 282.164 122.157C286.312 121.926 306.86 99.1033 306.826 87.8112C306.797 76.5191 304.97 71.5372 301.748 59.0049C299.092 48.6723 297.713 43.8496 294.747 41.7336Z" fill="#F08740"/>
<path d="M248.745 76.5648C251.234 77.7212 253.563 76.4474 254.741 74.0926C255.428 72.7141 255.549 71.5619 257.074 70.9418C258.227 70.4725 259.463 70.2839 260.582 69.7141C261.549 69.2197 262.434 67.8118 263.393 67.5772C264.6 67.2839 266.07 67.7741 267.361 67.4808C270.089 66.8607 271.312 64.9836 272.1 62.457C272.607 60.8355 273.847 59.8257 275.288 58.9751C276.118 58.4849 278.314 57.1985 279.29 57.8731C279.013 57.6846 279.227 57.827 279.29 58.1036C279.386 58.5645 279.219 59.0212 279.361 59.4863C279.705 60.6008 280.656 61.1329 281.779 61.2042C284.787 61.3927 288.114 60.1357 290.469 58.3382L288.944 58.5393C289.501 58.6608 289.731 58.9709 289.639 59.4737L291.617 57.496C289.312 57.3494 284.988 56.7334 285.357 60.5002C285.772 64.728 290.666 63.3285 293.343 64.133V60.3159C291.299 61.0072 289.254 61.7028 287.209 62.3941C285.298 63.0394 285.37 65.5366 287.209 66.2112C289.547 67.066 291.914 67.5646 294.382 67.8495L292.673 64.8704C292.954 64.309 293.251 64.8411 292.455 64.4891C292.011 64.2922 291.491 64.0827 291.03 63.9444C290.062 63.6511 289.17 63.6428 288.19 63.8858C287.129 64.1497 286.555 65.302 286.807 66.3202C287.201 67.9249 288.537 68.8132 290.088 69.161C290.536 69.2616 292.082 69.6219 292.421 69.2951C292.962 69.3119 292.861 69.0269 292.132 68.4445L292.183 69.0814C291.856 69.5884 291.785 70.263 291.387 70.8119L294.806 72.8105C295.803 70.485 294.684 68.2853 292.208 67.6316C290.653 67.221 289.505 68.6079 289.773 70.066C290.1 71.851 290.301 73.6318 290.393 75.4418C290.465 76.8329 292.057 78.048 293.373 77.1514L292.618 77.2813C292.799 77.6458 292.979 78.0145 293.159 78.379C293.461 78.9908 293.758 79.6025 294.06 80.2101L294.768 77.5033C292.627 78.576 290.884 80.1053 289.627 82.1501L293.243 83.6752C294.097 81.2115 294.894 78.731 295.635 76.2296C296.008 74.9809 294.99 73.7407 293.725 73.7239C290.05 73.6778 289.287 77.7631 288.315 80.5159C287.075 84.0397 284.699 88.2381 285.562 92.0469C286.199 91.2131 286.836 90.375 287.473 89.5412C285.659 89.5664 283.656 89.868 282.227 91.0873C281.62 91.6069 281.15 92.2396 280.932 93.0148C280.639 94.0497 281.222 94.9296 281.087 95.8723C280.974 96.681 280.099 97.3053 279.68 98.0344C279.198 98.8724 278.9 99.811 278.741 100.758C278.372 102.949 278.804 105.174 279.282 107.315L283.099 106.264C280.585 99.8906 272.833 111.933 271.471 114.174C270.487 115.796 272.519 118.042 274.178 116.881C278.414 113.927 282.081 110.433 285.127 106.259C286.153 104.852 284.452 102.853 282.893 103.352L281.905 103.666C279.487 104.437 280.522 108.262 282.956 107.483L283.945 107.169L281.712 104.261C279.089 107.856 275.829 110.923 272.184 113.462C273.085 114.363 273.99 115.268 274.89 116.169C275.854 114.581 276.897 113.056 278.087 111.631C278.632 110.982 279.198 110.345 279.78 109.729C280.12 109.373 280.463 109.025 280.811 108.681C281.603 108.086 281.515 107.986 280.543 108.384L279.16 107.001L279.282 107.311C280.199 109.641 283.664 108.799 283.099 106.259C282.78 104.835 282.441 103.352 282.571 101.881C282.722 100.209 283.664 99.5805 284.498 98.2984C285.332 97.0162 284.888 96.1615 284.905 94.8165C284.913 94.0832 284.54 94.3514 285.248 93.8318C285.776 93.4421 286.857 93.505 287.473 93.4966C288.801 93.4756 289.669 92.2522 289.384 90.991C288.898 88.8541 290.632 85.8247 291.332 83.8428C291.583 83.1305 293.029 77.6751 293.725 77.6835C293.088 76.8497 292.451 76.0117 291.814 75.1779C291.072 77.6793 290.272 80.1598 289.421 82.6235C288.667 84.7981 291.894 86.009 293.037 84.1487C293.955 82.6612 295.212 81.6975 296.758 80.9224C297.764 80.4196 297.915 79.1249 297.466 78.2156C296.398 76.0368 294.634 71.5032 291.361 73.7323L294.34 75.4418C294.227 73.2798 293.968 71.1387 293.578 69.0102C292.765 69.823 291.956 70.6317 291.143 71.4446L291.374 70.8077C290.377 73.1415 293.268 74.8887 294.793 72.8063C295.991 71.168 296.746 68.5074 295.631 66.6135C295.12 65.742 294.194 65.302 293.205 65.2559C292.887 65.2433 290.699 65.6121 290.616 65.2685L289.233 67.7029C290.41 67.4096 291.99 68.6289 293.318 68.5283C294.487 68.4403 295.539 67.9501 296.079 66.8649C296.796 65.4235 295.891 64.0618 294.37 63.8858C292.262 63.6428 290.238 63.1148 288.248 62.3899V66.207C290.293 65.5157 292.338 64.8202 294.382 64.1288C296.213 63.5087 296.31 60.8941 294.382 60.3117C293.142 59.9388 291.181 59.612 289.928 59.9388C289.233 59.7544 288.847 60.1609 288.776 61.1497C289.061 61.1497 289.346 61.1707 289.627 61.2209C290.289 61.2964 290.938 61.4053 291.6 61.4472C292.706 61.5184 293.528 60.4793 293.578 59.4695C293.687 57.2949 291.994 54.9317 289.711 54.6845C288.474 54.5504 287.548 55.6524 286.505 56.1636C285.319 56.746 283.237 57.5044 281.892 57.2362L283.074 58.1455C283.601 58.9709 283.254 58.5435 283.208 57.9276C283.178 57.5337 283.12 57.1105 283.002 56.7334C282.759 55.9541 282.315 55.2795 281.682 54.7641C280.543 53.8339 279.076 53.6957 277.664 53.901C274.53 54.3661 271.132 56.4066 269.322 59.0296C268.258 60.5715 268.413 63.2321 266.293 63.6553C263.967 64.1204 262.002 63.0478 260.087 64.9752C259.245 65.8257 258.721 66.2573 257.544 66.6386C256.542 66.9612 255.499 67.2127 254.573 67.7238C253.538 68.2937 252.729 69.0856 252.151 70.1205C251.946 70.4892 250.848 73.196 250.727 73.1415C248.431 72.0731 246.419 75.4837 248.728 76.5606L248.745 76.5648Z" fill="#F5AC60"/>
<path d="M82.1406 91.2412L94.2162 90.3948L96.6506 64.752L92.0416 68.414C89.9466 70.7479 87.0681 74.5105 84.9186 79.7648C83.0708 84.2816 82.392 88.3417 82.1406 91.237V91.2412Z" fill="#F5AB6D"/>
<path d="M110.989 100.908C110.482 101.968 109.648 103.397 108.316 104.826C106.669 106.594 104.943 107.629 103.774 108.211C103.149 108.5 102.437 108.777 101.637 109.011C99.7387 109.569 98.0333 109.673 96.7386 109.636C95.5989 109.032 93.9439 108.039 92.1967 106.518C89.4229 104.105 87.8977 101.645 85.8739 98.3269C84.8306 96.6174 83.4856 94.2333 82.1406 91.2458C86.2343 90.1019 90.3321 88.9622 94.4257 87.8184L110.989 100.908Z" fill="#E67F3D"/>
<path d="M96.6513 64.756C102.195 60.8007 116.734 66.4991 120.367 76.6976C121.963 81.1809 121.058 85.3918 120.627 87.3947C119.156 94.2328 114.907 98.4186 112.217 101.062C108.241 104.976 105.438 107.117 103.259 106.996C101.08 106.874 90.2909 94.8864 90.3076 88.9576C90.3244 83.0287 91.2839 80.4099 92.9725 73.8274C94.3678 68.4013 95.0926 65.8706 96.6513 64.756Z" fill="#F08740"/>
<path d="M119.763 81.2544C120.048 81.091 119.91 81.3717 119.801 81.2125C119.713 81.0826 119.604 80.9988 119.529 80.848C119.29 80.3703 119.164 79.8424 118.854 79.3983C118.259 78.5435 117.35 78.1915 116.386 77.9024C116.055 77.8019 115.699 77.718 115.406 77.5295C115.003 77.2697 114.781 76.8172 114.371 76.5574C113.474 75.9918 112.477 76.4778 111.517 76.2599C110.558 76.0421 110.625 75.0909 110.285 74.3409C110.038 73.792 109.619 73.3185 109.171 72.9247C108.132 72.0113 106.816 71.2864 105.429 71.1272C104.721 71.0476 103.954 71.1774 103.418 71.6761C102.789 72.2585 102.735 73.0043 102.701 73.8088L102.844 73.285L102.781 73.3814L103.401 72.9037C103.573 72.8409 103.192 72.9037 103.112 72.8953C102.965 72.887 102.819 72.8786 102.676 72.8576C102.329 72.8074 101.977 72.7194 101.641 72.6104C101.051 72.4177 100.581 72.095 100.062 71.7682C98.7461 70.9386 97.1036 72.7696 97.2628 74.0769C97.3298 74.6174 97.686 75.1412 98.3019 75.116C98.7083 75.0993 99.1022 75.0113 99.5044 74.9736C99.5966 74.9652 99.693 74.961 99.7894 74.961C99.7726 74.9526 99.76 74.9401 99.7475 74.9233C99.4877 74.6593 99.45 74.4205 99.6301 74.211C99.6301 74.2278 99.6259 74.2445 99.605 74.2529C99.4583 74.2403 99.2405 74.3367 99.0771 74.3409C98.8466 74.3451 98.6203 74.3325 98.3899 74.3283C97.8661 74.3158 97.3382 74.3451 96.8396 74.5211C95.8675 74.8688 95.8424 76.1887 96.8396 76.5239C97.9122 76.8884 98.9891 77.253 100.062 77.6175V75.6147C99.0268 76.0043 97.9499 76.2809 96.848 76.4024C96.2278 76.4694 95.5993 77.0183 95.8466 77.7181C96.1273 78.51 96.827 78.8745 97.6441 78.8494C98.0086 78.8368 98.348 78.753 98.6832 78.6189C98.9556 78.51 99.2656 78.3047 99.5463 78.401L98.8215 77.1231C98.7796 77.3954 98.8215 77.0979 98.8592 77.1021C98.9178 77.1021 98.9095 77.0979 98.8634 77.0812C98.767 77.0518 98.4067 77.1775 98.281 77.1817C97.6399 77.1901 97.0156 76.989 96.4667 77.4876C95.9723 77.9401 95.8801 78.7027 95.9387 79.3354C96.0142 80.0896 96.3242 80.7013 96.7851 81.2921C97.0994 81.6944 97.7865 81.6608 98.1511 81.3717C98.5617 81.0449 98.6706 80.496 98.4192 80.0309C98.5491 80.2698 98.2935 80.4122 98.5407 80.3661L97.2628 79.0882C97.0533 80.2027 96.915 81.3299 96.8605 82.4653L98.6371 81.7321C98.0212 81.1245 97.003 81.1664 96.3954 81.7782C95.8466 82.3313 95.5574 83.2363 95.2181 83.9235C94.9876 84.3969 95.0546 85.0883 95.591 85.3439C96.3996 85.7336 97.0826 86.2573 97.5435 87.0366C98.1259 88.0213 99.8396 87.3802 99.4416 86.2364C98.9933 84.9416 98.5743 83.6385 98.1846 82.3271L97.1832 83.6427C97.4848 83.6176 97.2335 83.6343 97.1748 83.5715C97.3089 83.7181 97.2335 83.6134 97.334 83.7852C97.443 83.9737 97.5058 84.2293 97.5896 84.4682C97.8494 85.2014 98.1092 85.9389 98.3689 86.6721C98.6287 87.4054 98.8634 88.08 99.1106 88.7797C99.3159 89.3621 99.6385 90.0074 99.4625 90.6317C99.2866 91.256 99.7936 91.9473 100.464 91.9473C100.816 91.9473 101.159 91.9683 101.495 92.0814C101.633 92.1275 101.734 92.1945 101.863 92.249C101.918 92.27 101.91 92.3747 101.897 92.2448C101.914 92.4166 101.767 92.8021 101.734 93.0242C101.65 93.5647 101.734 94.0633 102.056 94.5158C102.299 94.8594 102.639 95.115 102.823 95.5005C102.94 95.7435 103.003 96.0158 103.032 96.284C103.116 97.0801 102.936 97.8846 102.76 98.6555L104.801 98.9321V98.8441C104.7 99.0871 104.599 99.3343 104.495 99.5773L104.453 99.6151L103.929 99.7575C103.64 99.6067 103.606 99.6151 103.816 99.7868C103.904 99.8748 103.996 99.9628 104.084 100.051C104.26 100.227 104.432 100.403 104.604 100.587C104.918 100.922 105.224 101.27 105.517 101.626C106.091 102.33 106.602 103.08 107.072 103.86L108.492 102.439C106.577 101.115 104.851 99.4936 103.489 97.6039L102.316 99.129L102.836 99.2966C104.113 99.7031 104.658 97.7002 103.389 97.2938L102.869 97.1262C102.052 96.8664 101.159 97.9097 101.696 98.6514C103.28 100.847 105.22 102.695 107.445 104.232C108.32 104.836 109.38 103.667 108.865 102.812C108.102 101.538 107.206 100.344 106.2 99.2547C105.722 98.7394 105.153 97.981 104.465 97.7505C103.636 97.4782 102.722 98.027 102.722 98.9321C102.722 100.08 104.499 100.373 104.763 99.2086C104.989 98.2072 105.199 97.1639 105.094 96.1332C105.035 95.5633 104.901 95.0354 104.65 94.52C104.424 94.0591 104.025 93.7616 103.761 93.3426C103.766 93.351 103.77 93.4976 103.761 93.4222C103.753 93.3175 103.829 93.1457 103.854 93.0409C103.921 92.777 103.979 92.5004 103.979 92.2281C103.979 91.6917 103.745 91.1722 103.363 90.7993C102.609 90.0702 101.47 89.8649 100.46 89.8649L101.461 91.1806C101.738 90.1875 101.474 89.2573 101.143 88.3188C100.812 87.3802 100.489 86.4668 100.162 85.5366C99.6637 84.1246 99.1986 81.3885 97.1748 81.5561C96.5211 81.6106 95.9681 82.1804 96.1734 82.8718C96.563 84.1832 96.9821 85.4905 97.4304 86.7811L99.3285 85.9807C98.6958 84.9123 97.7404 84.0785 96.6301 83.5422L97.003 84.9626C97.1706 84.619 97.3382 84.2796 97.5058 83.936C97.5854 83.7768 97.7153 83.5924 97.7572 83.4248L97.8284 83.2866C97.9667 83.0477 97.7404 83.0184 97.1538 83.1944C97.8159 83.848 98.8843 83.3452 98.9304 82.4612C98.9765 81.51 99.0812 80.5715 99.2572 79.6371C99.4081 78.8284 98.788 78.1999 97.9793 78.3591C96.7432 78.5979 96.0016 79.9471 96.6133 81.0785L98.2474 79.8173C98.1217 79.6538 98.0296 79.4192 98.0002 79.2181C97.9918 79.1469 97.9877 79.0714 97.9918 79.0002C98.0044 78.6943 98.0673 78.82 97.929 78.9499L97.4723 79.2181C97.5938 79.1678 98.0421 79.2558 98.2768 79.2516C98.6287 79.2474 99.0142 79.2055 99.3536 79.0966C100.028 78.8871 100.703 78.4136 100.82 77.6678C100.912 77.0854 100.673 76.5909 100.095 76.3898C99.517 76.1887 98.8634 76.3102 98.281 76.5407C98.084 76.6203 97.8871 76.7208 97.6776 76.7544C97.6106 76.7669 97.6106 76.7334 97.5142 76.7627L97.5561 76.7753C97.2754 76.6831 97.3717 76.8088 97.8494 77.1566L96.848 78.4722C98.1385 78.334 99.3955 78.07 100.615 77.6133C101.574 77.253 101.625 75.9499 100.615 75.6105C99.5421 75.2459 98.4653 74.8814 97.3927 74.5169V76.5197C98.172 76.2432 99.0352 76.4988 99.8438 76.3312C100.598 76.1761 101.356 75.6733 101.549 74.8856C101.759 74.0434 101.256 73.2222 100.435 72.9708C99.7223 72.7529 99.0142 73.0043 98.2977 73.0336L99.3368 74.0727C99.3033 73.8088 99.3871 73.6831 99.7014 73.5825L98.6916 73.3143C99.7475 74.1482 100.954 74.6887 102.291 74.8856C102.89 74.9736 103.644 75.1244 104.197 74.8018C104.545 74.5965 104.75 74.1984 104.775 73.8088C104.784 73.6998 104.775 73.5909 104.775 73.4778C104.775 73.4275 104.822 73.1509 104.775 73.3814C104.792 73.3018 104.813 73.2222 104.838 73.1467C104.755 73.373 104.796 73.2389 104.83 73.1928C104.985 73.0001 104.687 73.373 104.838 73.1928C104.972 73.0294 104.7 73.2766 104.813 73.218C104.897 73.1719 105.002 73.1677 104.78 73.2263C104.83 73.2138 104.901 73.1761 104.951 73.1803C105.106 73.197 104.683 73.1803 104.935 73.1845C105.027 73.1845 105.123 73.1845 105.215 73.1845C105.278 73.1845 105.463 73.2222 105.236 73.1845C105.324 73.2012 105.412 73.218 105.5 73.2389C105.655 73.2766 105.806 73.3227 105.957 73.373C106.263 73.4778 106.443 73.5657 106.82 73.7878C107.424 74.1398 107.817 74.4079 108.278 74.9987C108.136 74.8144 108.371 75.1705 108.408 75.2292C108.446 75.2878 108.496 75.4555 108.408 75.2124C108.463 75.3675 108.509 75.5267 108.559 75.6859C108.752 76.3186 108.97 76.9596 109.447 77.4457C110.281 78.2921 111.53 78.4597 112.661 78.3759C112.854 78.3591 113.109 78.2921 113.298 78.3382C113.105 78.2921 113.352 78.4178 113.424 78.5016C113.507 78.5938 113.579 78.6943 113.667 78.7823C114.082 79.2223 114.605 79.4862 115.163 79.6957C115.644 79.8759 116.164 79.9639 116.633 80.1818C117.128 80.4122 117.27 80.8019 117.467 81.288C117.744 81.9709 118.07 82.5743 118.716 82.9807C119.361 83.3871 120.144 83.4416 120.815 83.0561C121.971 82.3857 120.928 80.5924 119.767 81.2628L119.763 81.2544Z" fill="#F5AC60"/>
<path d="M142.079 98.8053C142.946 97.7997 144.585 96.1614 147.136 94.9714C149.286 93.9742 151.23 93.6893 152.479 93.6055C152.768 95.1851 153.057 96.7647 153.346 98.3444L142.079 98.8053Z" fill="#F5AB6D"/>
<path d="M152.479 93.6055C151.143 93.8401 148.859 94.4519 146.747 96.241C146.031 96.8444 145.469 97.4729 145.029 98.0469C158.169 107.068 171.305 116.089 184.445 125.114C185.966 123.669 187.973 121.448 189.728 118.352C191.492 115.234 192.364 112.356 192.821 110.298C179.375 104.734 165.929 99.1698 152.479 93.6055Z" fill="#F5AB6D"/>
<path d="M147.283 95.7754L186.581 122.86C183.443 126.4 179.42 130.297 174.367 134.013C162.602 142.657 150.79 146.223 143.034 147.82C140.621 146.63 131.139 141.61 128.164 131.357C124.535 118.85 131.985 103.41 147.283 95.7754Z" fill="#EF813A"/>
<path d="M129.492 85.5206C127.255 85.2064 123.706 84.272 120.677 81.3348C118.091 78.8292 117.052 76.0051 115.297 71.2243C113.398 66.0538 112.628 61.8009 112.435 60.4559C110.604 47.8524 119.746 24.7864 140.546 15.7862C145.444 13.6661 154.825 9.7945 166.163 14.0683C170.085 15.5474 172.851 17.4874 175.562 19.3854C180.648 22.9511 190.553 29.8018 196.344 42.8956C202.616 57.0746 200.412 69.0664 199.713 72.2885C191.421 76.5749 180.233 81.2468 166.499 83.9368C151.808 86.8153 138.907 86.4927 129.492 85.5206Z" fill="#F9DDA7"/>
<path d="M180.531 48.3075C188.379 51.2153 196.197 53.5618 200.501 57.823C202.29 65.541 200.609 71.6626 199.981 73.6654C191.584 77.3443 180.271 81.4211 166.507 83.9687C151.771 86.6964 139 86.7844 129.744 86.2439C128.017 86.0888 125.52 85.6447 123.178 84.35C120.928 78.5175 122.696 70.9587 124.305 66.9195C131.29 49.3969 168.627 43.8912 180.535 48.3033L180.531 48.3075Z" fill="#E7BE6A"/>
<path d="M165.544 32.2557C165.456 32.2766 165.368 32.1928 165.334 32.0965L165.988 30.9484C165.007 31.3045 164.023 31.6565 163.042 32.0127C162.405 32.2431 162.091 33.0518 162.632 33.5713C163.641 34.5476 164.655 35.5239 165.665 36.5002L166.076 34.9415C164.701 35.1342 163.641 36.2907 163.289 37.5938C162.841 39.2572 163.549 40.9206 164.186 42.429C164.76 43.7824 165.443 45.1316 166.7 45.9696C167.882 46.7573 169.583 46.992 170.806 46.1707C171.401 45.7685 171.439 44.6078 170.584 44.4654C164.006 43.376 157.482 44.8341 151.109 46.4095C149.944 46.6987 150.439 48.4962 151.603 48.2071C157.62 46.7238 163.863 45.2321 170.086 46.2629L169.863 44.5576C169.143 45.0394 168.175 44.7838 167.53 44.2768C166.704 43.6274 166.26 42.5757 165.858 41.6371C165.435 40.6399 164.882 39.4793 165.024 38.3647C165.133 37.51 165.715 36.8605 166.566 36.7432C167.278 36.6426 167.437 35.6286 166.977 35.1845C165.967 34.2082 164.953 33.232 163.943 32.2557L163.532 33.8144C164.513 33.4582 165.497 33.1062 166.478 32.7501C166.935 32.5867 167.299 32.1132 167.132 31.602C166.834 30.7096 165.963 30.2151 165.045 30.4582C163.884 30.764 164.379 32.5657 165.539 32.2557H165.544Z" fill="#F1D594"/>
<g opacity="0.6">
<path d="M142.188 50.4833C142.69 50.8562 143.206 51.2124 143.73 51.5559C140.256 52.8339 136.984 54.3758 134.113 56.1901C132.379 55.0672 130.933 53.5127 129.588 51.9582C127.652 49.7123 119.453 39.8951 117.672 37.4063C119.306 34.1841 121.921 30.367 124.975 27.0527C125.901 32.483 137.65 47.0978 142.183 50.4875L142.188 50.4833Z" fill="white"/>
</g>
<path d="M197.937 17.6162C199.227 16.8997 200.631 16.1748 202.575 15.827C203.589 15.6469 204.729 15.4415 206.049 15.7684C208.11 16.2753 208.764 17.6203 210.293 18.6343C212.501 20.0966 214.923 19.8117 217.5 19.6399C225.943 19.0701 232.379 18.6385 238.09 20.7545C242.77 22.4891 242.9 24.4291 247.127 24.9654C251.338 25.5018 252.302 23.7126 257.15 23.2433C264.788 22.5017 265.832 26.6121 273.604 26.2392C280.208 25.9208 280.664 22.8998 285.755 23.8802C288.265 24.3621 292.602 25.9543 296.486 28.8831C298.367 30.3035 299.482 31.5396 301.577 31.7281C304.174 31.9586 305 30.2826 307.258 30.8482C309.529 31.418 309.613 33.3329 312.098 33.7351C313.682 33.9949 314.159 33.2994 315.479 33.7561C316.895 34.2463 317.377 35.3986 318.454 36.8944C320.235 39.3707 322.644 41.3861 324.71 42.4336C327.89 44.0509 328.72 42.5928 330.932 44.1054C332.44 45.1362 333.429 47.4951 335.34 52.1754C337.024 56.2942 336.915 56.9352 338.101 58.0707C339.987 59.8766 341.91 59.8263 342.413 61.5065C342.873 63.0401 341.478 63.7524 341.746 65.244C342.211 67.8335 346.695 67.2427 349.029 70.3056C351.652 73.7456 350.101 79.9049 347.541 83.4832C346.992 84.2499 346.33 84.87 345.01 86.1145C341.633 89.2947 340.439 89.4204 332.545 94.5867C331.07 95.5504 329.763 96.4303 327.739 96.8996C325.623 97.3898 325.204 96.8619 323.402 97.1803C319.196 97.922 318.844 101.278 315.567 101.504C313.313 101.659 313.376 100.08 309.508 99.246C305.746 98.4331 304.883 99.7572 302.507 98.5756C300.244 97.4527 300.496 95.9904 297.961 94.8549C296.477 94.1887 295.933 94.4861 293.226 94.0755C292.644 93.9875 289.287 93.4596 285.986 92.0559C281.804 90.2794 282.156 88.9888 279.189 88.2682C275.904 87.4721 275.242 88.9972 272.196 88.1131C269.104 87.2123 269.364 85.5153 265.915 84.1242C262.543 82.7625 261.742 84.1661 258.44 82.8169C254.988 81.4049 255.264 79.6283 252.088 78.5222C248.686 77.3364 247.844 79.1884 244.484 78.2247C240.486 77.0766 241.111 74.2945 236.141 71.8517C232.504 70.0626 230.434 70.7036 229.064 68.5625C227.782 66.5555 228.8 64.7287 227.468 63.7692C225.867 62.6127 223.911 64.8879 221.313 64.075C219.193 63.413 218.845 61.385 216.44 57.9869C215.359 56.4576 213.687 54.945 210.528 51.7396C208.215 49.3932 204.901 46.3555 198.921 41.6417C193.298 37.2087 190.047 35.784 189.284 33.3538C189.188 33.0522 189.305 32.0633 189.439 30.1108C189.733 25.8286 189.879 23.6875 190.282 22.8704C190.952 21.5087 193.277 20.214 197.937 17.6287V17.6162Z" fill="#D8A169"/>
<path d="M223.861 53.9075C224.212 53.7189 224.51 53.6686 224.774 53.7147C226.136 53.9535 226.299 55.8852 227.59 56.2958C229.207 56.807 231.025 54.251 231.901 54.8544C232.375 55.1812 231.977 56.0234 232.496 56.4131C233.234 56.9662 234.373 55.5458 235.605 55.7469C237.621 56.0737 237.067 60.2721 239.98 62.3713C241.76 63.6534 242.783 62.6772 245.334 64.1437C247.245 65.2414 247.798 66.4398 249.063 67.8309C252.223 71.3002 256.509 72.3309 261.525 73.5419C266.846 74.824 266.175 73.5502 270.076 74.7737C276.328 76.7305 277.585 79.8646 282.051 79.5755C284.637 79.4079 286.279 78.2221 287.582 79.2696C288.965 80.3842 287.867 82.3367 289.2 83.6398C290.997 85.3996 294.056 82.8563 297.345 84.3437C300.353 85.7055 299.39 88.5547 302.042 89.7824C306.094 91.6595 310.544 86.0239 314.734 88.2572C316.095 88.9821 315.76 89.6483 317.193 90.4569C320.667 92.4137 325.439 90.1092 328.816 88.429C335.746 84.9764 340.414 82.6509 340.816 78.75C341.378 73.3072 333.425 71.891 330.475 62.4006C329.746 60.0458 329.206 57.536 327.66 55.6128C325.757 53.2413 323.243 52.244 322.024 51.7496C316.627 49.5624 314.369 51.7915 311.83 49.7216C308.679 47.1574 310.523 42.3933 307.9 41.2662C305.373 40.181 302.624 44.1531 299.746 42.8291C298.225 42.1293 298.501 40.7927 296.465 39.2634C294.42 37.7298 292.141 37.5455 291.144 37.491C287.457 37.2857 284.297 39.9002 280.824 41.1237C274.585 43.3235 267.428 40.822 262.417 36.4644C260.904 35.1488 259.354 33.5901 257.36 33.4351C254.733 33.2297 253.727 34.7172 251.163 35.4798C244.685 37.403 241.366 30.037 233.778 31.3442C231.206 31.7884 229.894 32.9239 226.077 33.037C221.962 33.1543 220.701 31.9141 220.37 31.5496C219.373 30.456 219.779 29.5761 218.728 28.8009C217.307 27.7576 216.105 29.023 213.905 28.2059C211.877 27.4517 212.141 26.09 210.289 25.6458C208.332 25.1765 207.084 26.4671 205.94 25.6123C205.165 25.0341 205.433 24.2087 204.691 23.6807C203.744 23.0061 202.181 23.5634 200.954 24.1793C200.434 24.481 199.596 24.921 198.498 25.3022C197.334 25.7045 196.818 25.7171 196.571 26.178C196.181 26.907 196.843 28.0509 197.317 28.8554C197.853 29.773 198.197 29.9154 198.469 30.7283C198.737 31.516 198.578 31.8764 198.67 32.4294C199.051 34.7046 202.944 36.0119 203.929 36.3387C205.906 37.0008 206.304 36.6488 207.381 37.3401C209.237 38.5259 209.799 40.667 209.992 41.2829C210.729 43.6042 213.687 47.4255 223.861 53.9117V53.9075Z" fill="#9E6132"/>
<path d="M254.845 78.4341C258.495 80.3154 262.195 80.5166 266.117 81.3881C269.431 82.1255 272.481 84.5096 275.955 84.3965C278.247 84.3211 280.132 83.0264 281.532 81.2959C282.642 79.9216 283.648 77.9565 284.77 77.1352C286.622 75.7776 290.213 77.8727 292.61 78.1073C294.378 78.2791 296.021 77.9145 297.63 77.1855C299.1 76.5193 300.345 75.6268 302.008 75.5849C305.448 75.5011 308.834 76.9509 312.257 77.2483C313.677 77.3699 314.302 77.0472 315.353 77.7512C316.493 78.5095 317.461 79.5319 318.454 80.4663C320.939 82.8001 324.035 85.3351 327.592 85.5488C329.993 85.6912 332.528 84.9873 334.887 84.5934C337.548 84.1493 340.209 83.701 342.865 83.2568C346.54 82.6409 344.981 77.0514 341.323 77.6632C339.19 78.0193 337.058 78.3796 334.921 78.7358C332.784 79.0919 330.492 79.7749 328.342 79.7665C325.669 79.754 323.39 77.1268 321.588 75.455C319.673 73.6784 317.419 71.5751 314.654 71.4661C311.285 71.3362 308.205 70.5276 304.878 70.0457C303.181 69.7985 301.531 69.6937 299.829 70.0164C298.128 70.339 296.754 71.2608 295.204 71.9438C292.241 73.2511 288.986 70.7999 285.889 70.8837C283.551 70.9466 281.456 72.0737 279.927 73.8041C278.687 75.2036 277.786 77.0514 276.596 78.1576C276.177 78.5472 276.064 78.7274 275.268 78.5933C273.659 78.3126 271.936 77.2022 270.365 76.6115C266.267 75.0737 261.709 75.4634 257.774 73.4354C254.46 71.7259 251.523 76.7288 254.845 78.4425V78.4341Z" fill="#D8A169"/>
<path d="M278.237 34.8025C276.783 38.695 276.23 39.4534 275.573 41.4143C274.475 44.6825 273.829 46.6351 274.785 48.2566C275.836 50.0332 278.128 50.7371 280.182 50.536C282.235 50.3349 284.133 49.4089 286.027 48.5918C290.33 46.7356 294.851 45.3781 299.464 44.5568C304.471 43.6686 309.566 43.4088 314.649 43.1532C319.693 42.8976 324.742 42.6462 329.787 42.3906C331.941 42.2817 334.099 42.1727 336.248 42.3403C337.019 42.399 337.807 42.5037 338.49 42.8683C339.173 43.2328 339.692 43.832 340.245 44.3725C343.4 47.4815 347.846 49.0066 351.035 52.0779C355.74 56.6115 357.504 64.2415 363.466 66.9106C369.198 69.4749 375.764 66.0726 380.784 62.3016C382.611 60.9314 384.412 59.4733 385.745 57.6213C388.07 54.3908 388.753 50.272 389.025 46.2999C389.331 41.8459 389.201 37.3668 388.644 32.9379C388.275 30.0343 387.706 27.0929 386.273 24.5412C384.844 21.9852 382.426 19.8483 379.535 19.3791C377.025 18.9726 374.511 19.84 372.006 20.2799C369.5 20.7199 366.584 20.5942 364.878 18.7086C363.818 17.5354 363.433 15.8888 362.427 14.6737C360.144 11.9083 355.681 12.2979 352.828 10.1191C351.202 8.87888 350.239 6.89701 348.525 5.78247C345.299 3.68327 341.05 5.43888 337.639 7.21545C334.97 8.60653 332.297 9.99343 329.628 11.3845C328.966 11.7281 328.249 12.0842 327.512 11.9837C326.795 11.8873 326.209 11.3845 325.668 10.9068C323.372 8.86631 321.076 6.82159 318.78 4.78105C317.925 4.01847 317.033 3.23912 315.935 2.90811C314.749 2.55196 313.48 2.77404 312.269 3.02963C304.086 4.76848 296.334 8.07021 288.637 11.3552C287.464 11.858 286.265 12.3692 285.306 13.2114C284.099 14.2672 283.324 15.6416 282.172 19.7813C280.621 25.3498 280.617 28.0314 278.945 32.8248C278.623 33.755 278.229 34.8025 278.229 34.8025H278.237Z" fill="#DAA36E"/>
<mask id="mask0_40000066_9937" style="mask-type:luminance" maskUnits="userSpaceOnUse" x="274" y="2" width="116" height="66">
<path d="M278.237 34.8025C276.783 38.695 276.23 39.4534 275.573 41.4143C274.475 44.6825 273.829 46.6351 274.785 48.2566C275.836 50.0332 278.128 50.7371 280.182 50.536C282.235 50.3349 284.133 49.4089 286.027 48.5918C290.33 46.7356 294.851 45.3781 299.464 44.5568C304.471 43.6686 309.566 43.4088 314.649 43.1532C319.693 42.8976 324.742 42.6462 329.787 42.3906C331.941 42.2817 334.099 42.1727 336.248 42.3403C337.019 42.399 337.807 42.5037 338.49 42.8683C339.173 43.2328 339.692 43.832 340.245 44.3725C343.4 47.4815 347.846 49.0066 351.035 52.0779C355.74 56.6115 357.504 64.2415 363.466 66.9106C369.198 69.4749 375.764 66.0726 380.784 62.3016C382.611 60.9314 384.412 59.4733 385.745 57.6213C388.07 54.3908 388.753 50.272 389.025 46.2999C389.331 41.8459 389.201 37.3668 388.644 32.9379C388.275 30.0343 387.706 27.0929 386.273 24.5412C384.844 21.9852 382.426 19.8483 379.535 19.3791C377.025 18.9726 374.511 19.84 372.006 20.2799C369.5 20.7199 366.584 20.5942 364.878 18.7086C363.818 17.5354 363.433 15.8888 362.427 14.6737C360.144 11.9083 355.681 12.2979 352.828 10.1191C351.202 8.87888 350.239 6.89701 348.525 5.78247C345.299 3.68327 341.05 5.43888 337.639 7.21545C334.97 8.60653 332.297 9.99343 329.628 11.3845C328.966 11.7281 328.249 12.0842 327.512 11.9837C326.795 11.8873 326.209 11.3845 325.668 10.9068C323.372 8.86631 321.076 6.82159 318.78 4.78105C317.925 4.01847 317.033 3.23912 315.935 2.90811C314.749 2.55196 313.48 2.77404 312.269 3.02963C304.086 4.76848 296.334 8.07021 288.637 11.3552C287.464 11.858 286.265 12.3692 285.306 13.2114C284.099 14.2672 283.324 15.6416 282.172 19.7813C280.621 25.3498 280.617 28.0314 278.945 32.8248C278.623 33.755 278.229 34.8025 278.229 34.8025H278.237Z" fill="white"/>
</mask>
<g mask="url(#mask0_40000066_9937)">
<path d="M279.625 33.8014C281.578 32.8125 283.823 31.7944 286.564 32.6701C287.737 33.0472 288.889 33.7427 290.062 34.1198C294.16 35.4355 296.963 32.603 300.223 31.1072C306.286 28.325 314.775 30.2776 322.74 32.2846C323.365 32.4396 324.06 32.6449 324.467 33.1687C324.81 33.6128 324.831 34.1575 325.108 34.631C325.656 35.5821 326.947 35.8964 328.024 36.0598C334.003 36.9858 340.058 37.9243 346.196 38.8755C350.143 39.4872 354.383 40.2121 357.597 42.6633C361.045 45.2946 362.411 49.2081 364.133 52.6732C364.578 53.5657 365.16 54.5294 366.203 54.9316C366.865 55.1872 367.594 55.1621 368.286 55.116C370.456 54.9735 372.614 54.697 374.742 54.2864C375.953 54.0517 377.198 53.7584 378.136 53.0964C379.289 52.2835 379.842 51.0056 380.148 49.7234C381.296 44.8756 379.444 39.5962 377.554 34.4173C376.536 31.6268 375.43 28.6812 373.079 26.4856C366.559 20.4017 355.523 23.54 347.734 19.1992C346.942 18.7592 346.167 18.2355 345.299 18.0511C344.532 17.8877 343.778 18.0092 343.045 18.1307C339.622 18.6964 336.178 19.2746 333.425 20.9213C331.87 21.8515 330.391 23.1462 328.439 22.9283C325.527 22.6015 323.591 19.2746 321.115 17.2592C317.834 14.5902 313.547 14.3597 310.112 15.1768C306.734 15.9813 303.831 17.6195 300.508 18.2564C295.853 19.1489 290.594 18.0427 285.688 17.7704C280.848 17.5022 275.975 18.2816 274.119 21.8934C273.851 22.4171 273.65 23.0247 273.805 23.7328C273.948 24.3906 274.375 25.0526 274.786 25.6811C276.298 27.994 277.79 30.2776 279.26 32.536" fill="#9E6132"/>
</g>
<path d="M361.377 48.3278C361.49 44.9129 361.608 41.498 361.721 38.0832C361.763 36.8765 360.455 35.8499 359.291 36.2312C356.588 37.1195 354.736 38.9631 353.781 41.6321C353.362 42.8011 354.455 44.0959 355.633 44.0623L355.176 42.6419C353.601 44.5274 356.307 47.2593 357.891 45.357C359.563 43.3542 358.465 40.1447 355.633 40.2201L357.485 42.6503C357.967 41.3053 358.964 40.3751 360.313 39.931C359.504 39.3151 358.691 38.6949 357.883 38.079C357.77 41.4939 357.652 44.9087 357.539 48.3236C357.455 50.7957 361.298 50.7915 361.381 48.3236L361.377 48.3278Z" fill="#DAA36E"/>
<path d="M296.482 16.345C296.658 16.4036 297.186 17.3506 297.35 17.5894C297.844 18.2933 298.338 19.0014 298.837 19.7054C299.26 20.3087 299.688 20.9163 300.111 21.5196C300.324 21.8213 300.534 22.123 300.748 22.4289C301.125 23.1789 301.255 23.2585 301.137 22.6593L302.021 21.5113L301.745 21.6328L304.565 22.7808C303.744 20.1076 304.146 17.359 305.457 14.912C306.626 12.7332 303.312 10.7932 302.139 12.972C300.358 16.2947 299.738 20.1495 300.861 23.799C301.259 25.0937 302.537 25.4415 303.681 24.9471C306.542 23.7152 304.037 20.447 303.006 18.9763C301.531 16.8729 300.065 13.5251 297.509 12.641C295.167 11.8323 294.161 15.5405 296.486 16.345H296.482Z" fill="#DAA36E"/>
<path d="M345.634 78.5857C344.18 82.4782 343.627 83.2366 342.969 85.1975C341.871 88.4657 341.226 90.4183 342.181 92.0398C343.233 93.8164 345.525 94.5203 347.578 94.3192C349.631 94.1181 351.529 93.1921 353.423 92.375C357.726 90.5189 362.247 89.1613 366.86 88.34C371.868 87.4518 376.963 87.192 382.045 86.9364C387.09 86.6808 392.139 86.4294 397.184 86.1738C399.337 86.0649 401.495 85.9559 403.645 86.1235C404.416 86.1822 405.203 86.2869 405.886 86.6515C406.569 87.016 407.089 87.6152 407.642 88.1557C410.797 91.2647 415.243 92.7898 418.431 95.8611C423.137 100.395 424.901 108.025 430.863 110.694C436.595 113.258 443.161 109.856 448.18 106.085C450.007 104.715 451.809 103.256 453.141 101.404C455.467 98.174 456.15 94.0552 456.422 90.0831C456.728 85.6291 456.598 81.15 456.041 76.7211C455.672 73.8175 455.102 70.8761 453.669 68.3243C452.24 65.7684 449.823 63.6316 446.932 63.1623C444.422 62.7558 441.908 63.6232 439.402 64.0631C436.897 64.5031 433.98 64.3774 432.275 62.4919C431.215 61.3186 430.829 59.672 429.824 58.4569C427.54 55.6915 423.078 56.0811 420.224 53.9023C418.599 52.6621 417.635 50.6802 415.921 49.5657C412.695 47.4665 408.446 49.2221 405.036 50.9986C402.367 52.3897 399.693 53.7766 397.024 55.1677C396.362 55.5113 395.646 55.8674 394.908 55.7669C394.192 55.6705 393.605 55.1677 393.065 54.6901C390.769 52.6495 388.473 50.6048 386.176 48.5643C385.322 47.8017 384.429 47.0223 383.331 46.6913C382.146 46.3352 380.876 46.5572 379.665 46.8128C371.482 48.5517 363.731 51.8534 356.033 55.1384C354.86 55.6412 353.662 56.1524 352.702 56.9946C351.496 58.0504 350.721 59.4248 349.568 63.5645C348.018 69.133 348.014 71.8146 346.342 76.608C346.019 77.5382 345.625 78.5857 345.625 78.5857H345.634Z" fill="#DAA36E"/>
<mask id="mask1_40000066_9937" style="mask-type:luminance" maskUnits="userSpaceOnUse" x="341" y="46" width="116" height="66">
<path d="M345.634 78.5857C344.18 82.4782 343.627 83.2366 342.969 85.1975C341.871 88.4657 341.226 90.4183 342.181 92.0398C343.233 93.8164 345.525 94.5203 347.578 94.3192C349.631 94.1181 351.529 93.1921 353.423 92.375C357.726 90.5189 362.247 89.1613 366.86 88.34C371.868 87.4518 376.963 87.192 382.045 86.9364C387.09 86.6808 392.139 86.4294 397.184 86.1738C399.337 86.0649 401.495 85.9559 403.645 86.1235C404.416 86.1822 405.203 86.2869 405.886 86.6515C406.569 87.016 407.089 87.6152 407.642 88.1557C410.797 91.2647 415.243 92.7898 418.431 95.8611C423.137 100.395 424.901 108.025 430.863 110.694C436.595 113.258 443.161 109.856 448.18 106.085C450.007 104.715 451.809 103.256 453.141 101.404C455.467 98.174 456.15 94.0552 456.422 90.0831C456.728 85.6291 456.598 81.15 456.041 76.7211C455.672 73.8175 455.102 70.8761 453.669 68.3243C452.24 65.7684 449.823 63.6316 446.932 63.1623C444.422 62.7558 441.908 63.6232 439.402 64.0631C436.897 64.5031 433.98 64.3774 432.275 62.4919C431.215 61.3186 430.829 59.672 429.824 58.4569C427.54 55.6915 423.078 56.0811 420.224 53.9023C418.599 52.6621 417.635 50.6802 415.921 49.5657C412.695 47.4665 408.446 49.2221 405.036 50.9986C402.367 52.3897 399.693 53.7766 397.024 55.1677C396.362 55.5113 395.646 55.8674 394.908 55.7669C394.192 55.6705 393.605 55.1677 393.065 54.6901C390.769 52.6495 388.473 50.6048 386.176 48.5643C385.322 47.8017 384.429 47.0223 383.331 46.6913C382.146 46.3352 380.876 46.5572 379.665 46.8128C371.482 48.5517 363.731 51.8534 356.033 55.1384C354.86 55.6412 353.662 56.1524 352.702 56.9946C351.496 58.0504 350.721 59.4248 349.568 63.5645C348.018 69.133 348.014 71.8146 346.342 76.608C346.019 77.5382 345.625 78.5857 345.625 78.5857H345.634Z" fill="white"/>
</mask>
<g mask="url(#mask1_40000066_9937)">
<path d="M347.021 77.5865C348.974 76.5977 351.22 75.5795 353.96 76.4552C355.133 76.8323 356.286 77.5279 357.459 77.905C361.557 79.2206 364.36 76.3882 367.62 74.8924C373.683 72.1102 382.171 74.0627 390.137 76.0698C390.761 76.2248 391.457 76.4301 391.863 76.9538C392.207 77.398 392.228 77.9427 392.504 78.4161C393.053 79.3673 394.343 79.6815 395.42 79.845C401.399 80.771 407.454 81.7095 413.592 82.6606C417.539 83.2724 421.78 83.9972 424.993 86.4484C428.442 89.0797 429.808 92.9932 431.53 96.4583C431.974 97.3508 432.556 98.3145 433.6 98.7168C434.262 98.9724 434.991 98.9472 435.682 98.9011C437.853 98.7587 440.01 98.4821 442.139 98.0715C443.35 97.8369 444.594 97.5436 445.533 96.8815C446.685 96.0687 447.238 94.7907 447.544 93.5086C448.692 88.6607 446.84 83.3813 444.95 78.2025C443.932 75.4119 442.826 72.4663 440.476 70.2708C433.956 64.1869 422.919 67.3252 415.13 62.9843C414.338 62.5444 413.563 62.0206 412.696 61.8363C411.929 61.6729 411.175 61.7944 410.442 61.9159C407.018 62.4815 403.574 63.0598 400.821 64.7064C399.267 65.6366 397.788 66.9313 395.835 66.7134C392.923 66.3866 390.987 63.0598 388.511 61.0444C385.23 58.3753 380.944 58.1449 377.508 58.9619C374.131 59.7664 371.227 61.4047 367.904 62.0416C363.249 62.934 357.991 61.8279 353.084 61.5555C348.245 61.2874 343.372 62.0667 341.516 65.6785C341.248 66.2023 341.047 66.8098 341.202 67.5179C341.344 68.1758 341.771 68.8378 342.182 69.4663C343.695 71.7792 345.186 74.0627 346.657 76.3211" fill="#9E6132"/>
</g>
<path d="M428.773 92.1149C428.886 88.7 429.003 85.2851 429.116 81.8703C429.158 80.6636 427.851 79.637 426.686 80.0183C423.984 80.9066 422.132 82.7502 421.176 85.4192C420.757 86.5883 421.851 87.883 423.028 87.8494L422.572 86.429C420.996 88.3145 423.703 91.0464 425.287 89.1442C426.958 87.1413 425.861 83.9318 423.028 84.0072L424.88 86.4374C425.362 85.0924 426.359 84.1622 427.709 83.7181L425.278 81.8661C425.165 85.281 425.048 88.6958 424.935 92.1107C424.851 94.5828 428.693 94.5786 428.777 92.1107L428.773 92.1149Z" fill="#DAA36E"/>
<path d="M363.883 60.1301C364.059 60.1888 364.587 61.1357 364.75 61.3746C365.244 62.0785 365.739 62.7866 366.237 63.4905C366.661 64.0939 367.088 64.7014 367.511 65.3048C367.725 65.6065 367.934 65.9082 368.148 66.214C368.525 66.964 368.655 67.0436 368.538 66.4445L369.422 65.2964L369.145 65.4179L371.965 66.566C371.144 63.8928 371.546 61.1441 372.858 58.6971C374.027 56.5183 370.712 54.5784 369.539 56.7572C367.758 60.0798 367.138 63.9347 368.261 67.5842C368.659 68.8789 369.937 69.2267 371.081 68.7322C373.943 67.5004 371.437 64.2322 370.406 62.7615C368.932 60.6581 367.465 57.3103 364.909 56.4262C362.567 55.6175 361.561 59.3256 363.887 60.1301H363.883Z" fill="#DAA36E"/>
<path d="M315.412 19.2031C320.201 20.2045 324.84 21.9308 329.118 24.3024C330.157 24.8806 331.217 25.5342 331.837 26.5482C333.123 28.6558 332.072 31.35 331.07 33.6042C319.795 58.9747 316.837 87.1316 314.013 114.752C300.546 113.118 292.493 109.234 288.433 106.854C283.329 103.858 283.053 102.362 276.525 98.9014C272.515 96.7728 268.71 95.4781 268.945 93.161C269.125 91.4012 270.587 90.0981 271.899 88.9124C275.938 85.2671 288.009 68.1886 313.791 21.8763" fill="#DDA96F"/>
<path d="M317.419 26.6543C311.025 37.7159 304.594 49.5234 298.246 62.0641C292.216 73.9805 286.774 85.5575 281.854 96.7155" fill="#E67F3D"/>
<path d="M317.419 26.6543C311.981 38.5791 306.043 50.2524 300.211 61.9761C294.32 73.6746 288.479 85.3983 281.854 96.7155C285.76 84.1538 291.173 72.1201 297.156 60.4258C303.19 48.7608 309.777 37.3514 317.415 26.6543H317.419Z" fill="#F0CFA4"/>
<path d="M322.3 28.2656C317.867 39.168 311.629 54.3736 307.594 65.2299C302.976 77.4271 298.539 90.37 293.754 102.525C295.644 89.2974 299.549 76.4257 304.405 64.0023C309.311 51.5998 315.119 39.5158 322.296 28.2656H322.3Z" fill="#F0CFA4"/>
<path d="M326.381 32.5625C317.469 53.9567 312.01 76.5367 310.48 99.653C310.212 102.955 310.065 106.273 309.856 109.613C305.591 83.1695 311.984 55.0587 326.381 32.5625Z" fill="#F0CFA4"/>
<path d="M101.778 136.982C102.7 136.882 104.066 136.655 105.633 136.064C106.869 135.599 107.141 135.319 107.837 135.331C109.002 135.348 109.593 136.152 111.692 138.084C114.038 140.246 113.912 139.798 115.731 141.57C118.287 144.063 118.257 144.667 118.924 144.717C121.17 144.884 121.584 137.665 126.365 130.764C129.629 126.05 133.467 121.768 137.297 117.503C141.101 113.262 144.902 109.026 148.706 104.786C150.328 102.98 151.958 101.166 153.797 99.5778C154.455 99.008 155.163 98.4591 155.997 98.2035C156.831 97.9479 157.719 98.0066 158.591 97.994C163.585 97.9353 168.332 95.5931 173.323 95.48C180.684 95.3124 188.189 99.9633 195.06 97.311C201.66 94.7635 204.153 86.8066 205.125 79.7968C205.477 77.2492 205.741 74.6472 205.318 72.1123C204.58 67.6876 201.827 63.8705 198.865 60.5017C195.546 56.7224 191.859 53.2656 187.875 50.1985C185.26 48.1873 182.453 46.3102 179.277 45.4261C176.096 44.542 172.468 44.7766 169.799 46.7166C167.482 48.401 166.179 51.1035 164.545 53.4541C162.91 55.8047 160.493 58.0422 157.631 57.9081C155.854 57.8243 154.229 56.8271 152.456 56.6637C148.43 56.295 145.195 60.1749 141.194 60.728C138.914 61.0423 136.559 60.242 134.305 60.728C130.065 61.6414 128.1 66.4348 126.809 70.5746C125.799 73.8134 124.794 77.0523 123.784 80.2912C123.533 81.0957 123.248 81.9463 122.582 82.4616C121.936 82.9602 121.069 83.0273 120.256 83.0775C116.799 83.2912 113.343 83.5091 109.886 83.7228C108.599 83.8024 107.263 83.8946 106.132 84.5147C104.908 85.1809 104.074 86.3751 103.32 87.5441C98.2166 95.4716 94.7012 104.296 91.2193 113.057C90.6872 114.394 90.1509 115.76 90.0587 117.197C89.8617 120.364 91.4456 122.828 92.8241 124.919C94.9233 128.095 97.8605 132.235 101.782 136.974L101.778 136.982Z" fill="#DAA36E"/>
<mask id="mask2_40000066_9937" style="mask-type:luminance" maskUnits="userSpaceOnUse" x="90" y="44" width="116" height="101">
<path d="M101.778 136.982C102.7 136.882 104.066 136.655 105.633 136.064C106.869 135.599 107.141 135.319 107.837 135.331C109.002 135.348 109.593 136.152 111.692 138.084C114.038 140.246 113.912 139.798 115.731 141.57C118.287 144.063 118.257 144.667 118.924 144.717C121.17 144.884 121.584 137.665 126.365 130.764C129.629 126.05 133.467 121.768 137.297 117.503C141.101 113.262 144.902 109.026 148.706 104.786C150.328 102.98 151.958 101.166 153.797 99.5778C154.455 99.008 155.163 98.4591 155.997 98.2035C156.831 97.9479 157.719 98.0066 158.591 97.994C163.585 97.9353 168.332 95.5931 173.323 95.48C180.684 95.3124 188.189 99.9633 195.06 97.311C201.66 94.7635 204.153 86.8066 205.125 79.7968C205.477 77.2492 205.741 74.6472 205.318 72.1123C204.58 67.6876 201.827 63.8705 198.865 60.5017C195.546 56.7224 191.859 53.2656 187.875 50.1985C185.26 48.1873 182.453 46.3102 179.277 45.4261C176.096 44.542 172.468 44.7766 169.799 46.7166C167.482 48.401 166.179 51.1035 164.545 53.4541C162.91 55.8047 160.493 58.0422 157.631 57.9081C155.854 57.8243 154.229 56.8271 152.456 56.6637C148.43 56.295 145.195 60.1749 141.194 60.728C138.914 61.0423 136.559 60.242 134.305 60.728C130.065 61.6414 128.1 66.4348 126.809 70.5746C125.799 73.8134 124.794 77.0523 123.784 80.2912C123.533 81.0957 123.248 81.9463 122.582 82.4616C121.936 82.9602 121.069 83.0273 120.256 83.0775C116.799 83.2912 113.343 83.5091 109.886 83.7228C108.599 83.8024 107.263 83.8946 106.132 84.5147C104.908 85.1809 104.074 86.3751 103.32 87.5441C98.2166 95.4716 94.7012 104.296 91.2193 113.057C90.6872 114.394 90.1509 115.76 90.0587 117.197C89.8617 120.364 91.4456 122.828 92.8241 124.919C94.9233 128.095 97.8605 132.235 101.782 136.974L101.778 136.982Z" fill="white"/>
</mask>
<g mask="url(#mask2_40000066_9937)">
<path d="M102.001 138.104C102.76 135.753 103.732 133.151 106.606 131.656C107.838 131.015 109.313 130.646 110.545 130.009C114.852 127.776 114.81 123.284 116.201 119.488C118.786 112.428 127.091 107.19 135.019 102.409C135.639 102.036 136.355 101.638 137.097 101.731C137.725 101.81 138.178 102.225 138.773 102.38C139.971 102.698 141.245 101.911 142.234 101.182C147.718 97.1341 153.279 93.0363 158.914 88.8798C162.534 86.2065 166.481 83.3908 170.998 82.7665C175.842 82.0961 180.053 84.1115 184.197 85.4816C185.261 85.8336 186.497 86.1353 187.649 85.6199C188.378 85.2931 188.94 84.6855 189.451 84.0989C191.06 82.2511 192.552 80.3028 193.913 78.2748C194.688 77.1184 195.438 75.8907 195.652 74.6169C195.916 73.0499 195.334 71.5918 194.55 70.3306C191.584 65.5623 185.889 62.8556 180.246 60.2536C177.208 58.8541 173.969 57.4002 170.345 57.5384C160.301 57.9197 154.05 69.2454 144.392 72.0317C143.411 72.3124 142.376 72.522 141.542 73.0667C140.805 73.5485 140.302 74.2524 139.816 74.9312C137.549 78.1156 135.278 81.3335 134.411 84.8448C133.921 86.8267 133.782 89.0348 132.056 90.4259C129.483 92.4957 125.285 91.4022 121.707 91.7876C116.968 92.2946 113.377 95.5419 111.303 98.9358C109.262 102.275 108.269 105.9 106.141 109.063C103.158 113.496 98.1003 116.823 93.9857 120.535C89.9298 124.193 86.6825 128.71 88.1029 133.063C88.3082 133.696 88.6351 134.337 89.3222 134.773C89.9591 135.179 90.8264 135.364 91.6602 135.536C94.7106 136.164 97.7232 136.784 100.698 137.396" fill="#9E6132"/>
</g>
<path d="M178.532 84.2457C175.892 81.4426 173.253 78.6395 170.609 75.8363C169.691 74.8643 167.835 75.0486 167.211 76.2763C165.761 79.1213 165.757 82.1549 167.152 85.0209C167.722 86.1899 169.708 86.4999 170.55 85.4608C169.737 85.8211 169.239 85.5614 169.054 84.6857C169.109 87.4678 173.437 87.4762 173.382 84.6857C173.328 81.8951 169.452 79.9719 167.487 82.4021L170.885 82.842C170.202 81.4384 170.24 79.8504 170.944 78.4677L167.546 78.9076C170.186 81.7107 172.825 84.5139 175.469 87.317C177.384 89.3491 180.438 86.282 178.532 84.2541V84.2457Z" fill="#DAA36E"/>
<path d="M101.439 110.751C101.565 110.688 102.755 110.989 103.073 111.044C104.033 111.207 104.988 111.371 105.947 111.538C106.769 111.681 107.59 111.819 108.411 111.961C108.822 112.033 109.232 112.104 109.643 112.171C110.523 112.464 110.703 112.431 110.179 112.07L109.962 110.403L109.836 110.721L113.016 109.427C110.209 107.952 108.311 105.442 107.393 102.429C106.584 99.7727 102.407 100.904 103.22 103.581C104.447 107.621 107.049 111.178 110.833 113.164C112.17 113.868 113.49 113.198 114.013 111.869C115.308 108.58 110.774 107.994 108.746 107.646C105.872 107.151 102.013 105.664 99.2644 107.013C96.763 108.241 98.9544 111.978 101.447 110.751H101.439Z" fill="#DAA36E"/>
<path d="M124.787 106.187C123.169 106.284 122.373 104.059 122.357 102.429C122.277 94.2417 126.693 87.4497 130.896 81.4496C133.691 77.4607 136.603 73.476 141.002 71.2512C143.822 69.8265 147.128 69.1897 150.384 68.5695C155.399 67.6142 160.595 66.6589 166.042 67.5346C168.924 67.9997 171.828 68.9718 174.748 69.2776C176.257 69.4369 177.753 69.4159 179.274 69.7302C180.803 70.0486 182.446 70.7902 183.334 71.997C184.729 73.8908 183.719 75.944 182.45 77.4105C175.033 85.9832 161.387 88.6648 150.237 94.3633C146.101 96.475 142.217 99.0519 137.939 101.097C133.879 103.037 129.526 104.465 125.172 105.89" fill="#F6B162"/>
<path d="M125.206 107.736L178 118.286C182.014 119.087 185.148 116.778 185.186 113.032L185.542 75.2045C185.55 74.1947 184.541 73.1765 183.309 72.9419C176.429 71.6346 158.47 69.3301 143.24 78.5691C130.439 86.3374 125.331 98.5471 123.375 104.748C122.972 106.026 123.848 107.459 125.202 107.732L125.206 107.736Z" fill="#EF8136"/>
<path d="M144.434 107.797C144.153 105.87 144.224 103.281 143.508 101.475L143.411 100.725L142.485 101.563C142.519 101.655 143.428 101.776 143.549 101.797C144.329 101.919 145.054 101.902 145.808 101.634C148.565 100.653 149.395 97.314 147.92 94.9467L145.678 97.8629C146.369 98.1185 147.056 98.3741 147.748 98.6297C149.047 99.1115 150.174 97.8922 150.258 96.7149C150.408 94.645 150.174 92.6212 149.625 90.6226C148.988 91.4606 148.351 92.2986 147.71 93.1324C150.178 93.3838 152.721 92.6212 154.435 90.7692C155.21 89.9312 155.39 88.8879 155.969 87.9745C156.409 87.2789 156.396 87.3251 157.221 87.4675C158.047 87.61 158.91 88.1002 159.668 88.5024C160.85 89.1309 162.853 88.3809 162.656 86.7887C162.522 85.7203 166.213 85.5485 167.068 85.2636C168.652 84.7314 169.766 83.8054 170.278 82.1881L167.361 83.3739C167.676 83.5666 167.927 84.677 168.191 85.0331C168.648 85.6574 169.322 86.1896 170.076 86.4158C171.874 86.9521 173.449 85.7119 175.134 86.7091C177.564 88.1505 179.655 90.8907 182.81 89.9689C185.257 89.2566 184.218 85.427 181.754 86.1435C180.874 86.399 179.642 85.1211 179.001 84.6309C178.004 83.8725 177.028 83.0931 175.846 82.6364C175.314 82.4311 174.807 82.2761 174.233 82.23C173.491 82.1755 172.649 82.561 171.954 82.4772C170.893 82.3473 171.241 82.0666 170.709 81.2034C170.366 80.6504 169.909 80.2816 169.364 79.9464C168.237 79.2551 166.825 79.9381 166.448 81.1322C166.268 81.7104 164.621 81.7775 164.106 81.8655C163.1 82.0373 162.141 82.2132 161.219 82.6783C159.618 83.4828 158.449 84.9242 158.684 86.7887L161.671 85.075C159.363 83.8473 156.107 82.4018 153.735 84.2789C152.604 85.1756 152.575 86.3027 151.938 87.4675C151.075 89.0388 149.344 89.3279 147.706 89.1603C146.399 89.0262 145.477 90.5304 145.791 91.6701C146.26 93.367 146.411 94.9551 146.281 96.7065L148.791 94.7917C148.1 94.5361 147.413 94.2805 146.721 94.0249C145.079 93.4173 143.608 95.5375 144.48 96.9411C145.41 98.437 143.193 97.5906 142.485 97.5822C141.308 97.5738 140.231 98.1478 139.737 99.2331C139.154 100.515 139.59 101.973 139.783 103.302C140.051 105.149 140.323 106.997 140.591 108.841C140.96 111.359 144.785 110.286 144.417 107.785L144.434 107.797Z" fill="#F6B674"/>
<path d="M145.401 108.931C145.112 106.987 145.175 104.381 144.45 102.558L144.349 101.796L143.427 102.625C143.461 102.718 144.374 102.843 144.496 102.86C145.279 102.982 146.004 102.965 146.758 102.697C149.528 101.712 150.341 98.3515 148.866 95.98L146.624 98.8962C147.32 99.156 148.011 99.4116 148.707 99.6714C150.001 100.153 151.137 98.934 151.217 97.7566C151.363 95.6699 151.12 93.6336 150.563 91.6224L148.648 94.1322C151.124 94.3878 153.676 93.621 155.394 91.7607C156.169 90.9185 156.349 89.8709 156.928 88.9533C157.372 88.2452 157.355 88.2913 158.193 88.4338C159.031 88.5762 159.894 89.0749 160.661 89.4813C161.838 90.1098 163.854 89.3598 163.648 87.7676C163.506 86.674 167.206 86.5147 168.077 86.2214C169.661 85.6893 170.784 84.7549 171.287 83.1334L168.37 84.3192C168.697 84.5203 168.944 85.6307 169.213 85.9952C169.674 86.6237 170.348 87.1558 171.107 87.3821C172.917 87.9226 174.496 86.6781 176.193 87.6837C178.632 89.1335 180.739 91.8989 183.911 90.9729C186.358 90.2606 185.319 86.4309 182.855 87.1474C181.963 87.4072 180.71 86.1041 180.061 85.6097C179.063 84.8471 178.079 84.0678 176.897 83.6069C176.365 83.4016 175.854 83.2423 175.28 83.2004C174.534 83.1418 173.692 83.5315 172.992 83.4477C171.911 83.3136 172.259 83.0245 171.722 82.1571C171.379 81.5998 170.918 81.2311 170.369 80.8918C169.246 80.2004 167.826 80.8834 167.453 82.0775C167.268 82.6683 165.626 82.7354 165.102 82.8233C164.092 82.9951 163.133 83.1711 162.207 83.6404C160.602 84.4491 159.433 85.8988 159.672 87.7676L162.659 86.0539C160.347 84.822 157.07 83.3597 154.694 85.2452C153.559 86.146 153.534 87.2815 152.897 88.4547C152.034 90.0427 150.295 90.3319 148.644 90.1643C147.337 90.0302 146.415 91.5386 146.729 92.6741C147.203 94.3878 147.366 95.9842 147.24 97.7524L149.75 95.8375C149.055 95.5777 148.363 95.3222 147.668 95.0624C146.025 94.4506 144.554 96.5792 145.426 97.9786C146.381 99.5122 144.156 98.6532 143.423 98.649C142.242 98.6407 141.165 99.2147 140.674 100.304C140.092 101.59 140.532 103.061 140.729 104.389C141.005 106.25 141.282 108.114 141.563 109.975C141.94 112.493 145.761 111.42 145.388 108.919L145.401 108.931Z" fill="#F6B674"/>
<g opacity="0.1">
<path d="M127.054 87.0684C124.331 91.6187 122.19 96.6509 122.244 102.379C122.253 103.384 122.558 104.612 123.174 105.387C123.195 106.447 123.97 107.461 125.085 107.683L177.854 118.225C178.759 118.405 179.614 118.422 180.41 118.301C177.427 116.864 174.305 116.118 171.284 115.204C153.531 109.824 139.147 98.1174 127.054 87.0726V87.0684Z" fill="#4D4C4C"/>
</g>
<path d="M328.769 43.4122C328.702 41.7906 330.939 41.0364 332.565 41.049C340.752 41.1118 347.469 45.6412 353.394 49.9486C357.332 52.8103 361.267 55.7937 363.412 60.2309C364.791 63.0759 365.369 66.3902 365.93 69.6584C366.798 74.6906 367.665 79.8988 366.693 85.3332C366.177 88.2076 365.155 91.0903 364.799 94.0108C364.615 95.515 364.61 97.0108 364.267 98.5276C363.923 100.044 363.152 101.683 361.929 102.55C360.014 103.912 357.978 102.868 356.532 101.574C348.089 94.0108 345.642 80.3178 340.141 69.0718C338.1 64.8985 335.59 60.9725 333.621 56.661C331.752 52.5673 330.399 48.193 329.05 43.8102" fill="#F6B162"/>
<path d="M327.213 43.8041L315.749 96.4055C314.878 100.407 317.132 103.579 320.878 103.679L358.693 104.693C359.703 104.719 360.738 103.726 360.993 102.502C362.418 95.6472 365.037 77.7307 356.062 62.3407C348.515 49.4062 336.398 44.089 330.23 42.0234C328.961 41.6002 327.511 42.4507 327.218 43.7999L327.213 43.8041Z" fill="#EF8136"/>
<path d="M326.326 63.0907C328.568 62.8016 330.805 62.4874 333.051 62.2276C333.696 62.1522 334.208 62.3784 333.508 61.6787C332.808 60.979 333.101 61.4147 332.884 62.0223C332.641 62.6927 332.682 63.6312 332.871 64.3058C333.688 67.243 337.187 68.19 339.638 66.7235C338.666 65.9777 337.694 65.2276 336.722 64.4818C336.454 65.169 336.185 65.852 335.921 66.5391C335.41 67.8464 336.684 68.9484 337.836 69.0489C339.906 69.2375 341.926 69.028 343.937 68.5126L341.427 66.5978C341.134 69.0615 341.867 71.6174 343.698 73.3521C344.523 74.1356 345.588 74.3158 346.472 74.9191C347.151 75.38 347.088 75.3884 346.916 76.2055C346.736 77.0644 346.25 77.8689 345.831 78.6315C345.169 79.8298 345.973 81.7866 347.544 81.619C348.567 81.51 348.705 85.2768 348.969 86.0897C349.484 87.6861 350.406 88.7881 352.011 89.3244L350.825 86.4082C350.637 86.7015 349.296 87.0618 348.94 87.3551C348.336 87.8579 347.926 88.4822 347.712 89.2448C347.26 90.8747 348.357 92.3957 347.486 93.9167C346.028 96.46 343.086 98.4419 343.983 101.748C344.653 104.207 348.483 103.164 347.808 100.692C347.574 99.8246 348.923 98.5802 349.409 97.9642C350.234 96.9209 351.081 95.8734 351.542 94.608C351.751 94.034 351.894 93.4264 351.902 92.8105C351.91 92.2658 351.395 91.0297 351.567 90.5772C351.768 90.0493 352.518 90.0241 352.979 89.7476C353.536 89.4082 353.905 88.9515 354.248 88.411C354.969 87.2755 354.228 85.8844 353.063 85.4947C352.518 85.3146 352.468 83.5841 352.392 83.0939C352.237 82.0925 352.074 81.1413 351.621 80.2195C350.825 78.6022 349.413 77.4415 347.536 77.6427L349.25 80.6301C350.519 78.3382 351.998 75.1035 350.142 72.7152C349.258 71.5797 348.127 71.5378 346.979 70.8674C345.429 69.9666 345.194 68.2193 345.391 66.5894C345.55 65.2654 344 64.3896 342.881 64.6746C341.18 65.1103 339.583 65.2276 337.836 65.0684L339.751 67.5782C340.019 66.8911 340.287 66.2081 340.551 65.5209C341.201 63.8575 339.026 62.4497 337.635 63.2793C336.156 64.1634 337.048 61.8463 337.057 61.222C337.074 60.1242 336.583 59.1186 335.62 58.5655C334.455 57.8951 333.135 58.2303 331.878 58.3937C330.026 58.6326 328.174 58.8714 326.322 59.106C323.825 59.4287 323.791 63.4008 326.322 63.074L326.326 63.0907Z" fill="#F6B674"/>
<path d="M325.173 64.0389C327.432 63.7414 329.69 63.4188 331.953 63.1464C332.598 63.071 333.113 63.2973 332.422 62.5975C331.731 61.8978 332.016 62.3419 331.798 62.9453C331.555 63.6199 331.597 64.5543 331.785 65.2331C332.606 68.187 336.126 69.113 338.581 67.6465L335.665 65.4048C335.397 66.0962 335.125 66.7833 334.856 67.4747C334.345 68.7778 335.619 69.884 336.771 69.9845C338.858 70.1689 340.894 69.951 342.914 69.4272L340.404 67.5124C340.106 69.9845 340.844 72.5488 342.683 74.2877C343.513 75.0754 344.577 75.2514 345.474 75.8547C346.165 76.3198 346.102 76.324 345.931 77.1536C345.759 77.9832 345.256 78.8338 344.833 79.5964C344.171 80.7906 344.979 82.7557 346.547 82.5839C347.598 82.4666 347.724 86.2418 347.992 87.0714C348.507 88.672 349.433 89.7781 351.047 90.3103L349.861 87.394C349.664 87.7041 348.323 88.0519 347.959 88.3535C347.351 88.8563 346.94 89.4848 346.727 90.2516C346.27 91.8941 347.372 93.4193 346.492 94.9486C345.026 97.5003 342.055 99.5032 342.96 102.822C343.63 105.281 347.46 104.238 346.785 101.766C346.547 100.886 347.917 99.6289 348.407 99.0087C349.237 97.9612 350.087 96.9054 350.552 95.6358C350.762 95.0576 350.904 94.45 350.913 93.8299C350.921 93.2768 350.406 92.0533 350.577 91.5924C350.778 91.0435 351.537 91.0268 352.006 90.7377C352.563 90.3983 352.936 89.9374 353.28 89.3969C354.001 88.2656 353.259 86.8661 352.094 86.4806C351.537 86.2962 351.487 84.5658 351.411 84.0671C351.256 83.0615 351.093 82.1104 350.64 81.1886C349.844 79.5671 348.424 78.4065 346.538 78.616L348.252 81.6034C349.526 79.3073 351.021 76.0559 349.157 73.6592C348.269 72.5195 347.129 72.4818 345.973 71.8155C344.405 70.9147 344.171 69.1591 344.368 67.5208C344.527 66.1967 342.977 65.3168 341.858 65.6059C340.144 66.0501 338.531 66.1758 336.767 66.0208L338.682 68.5306C338.95 67.8392 339.222 67.1521 339.491 66.4607C340.14 64.7973 337.961 63.3894 336.574 64.2191C335.058 65.1283 335.958 62.8028 335.971 62.1534C335.988 61.0514 335.497 60.0458 334.53 59.4969C333.356 58.8265 332.028 59.1659 330.767 59.3335C328.902 59.5765 327.034 59.8237 325.169 60.0668C322.672 60.3936 322.643 64.3657 325.169 64.0347L325.173 64.0389Z" fill="#F6B674"/>
<g opacity="0.1">
<path d="M347.846 46.0118C343.342 43.2087 338.352 40.9838 332.624 40.9377C331.618 40.9293 330.386 41.2142 329.603 41.8134C328.539 41.8134 327.516 42.576 327.273 43.6863L315.818 96.2668C315.621 97.1677 315.591 98.0266 315.696 98.8185C317.184 95.8604 317.984 92.7514 318.952 89.7472C324.638 72.0904 336.596 57.9114 347.85 46.0118H347.846Z" fill="#4D4C4C"/>
</g>
<path d="M210.137 152.666C208.135 156.06 205.621 159.148 202.704 161.796C201.996 162.442 201.225 163.079 200.291 163.288C198.355 163.724 196.57 162.228 195.108 160.879C178.679 145.724 157.98 136.183 137.654 126.889C142.381 117.047 147.425 111.91 150.291 109.43C153.895 106.312 155.106 106.488 159.434 102.411C162.095 99.9057 164.068 97.3373 165.769 98.1166C167.064 98.7074 167.68 100.161 168.241 101.469C169.976 105.491 179.873 119.113 208.516 150.739" fill="#E7AA6C"/>
<path d="M203.936 152.274C197.157 144.539 189.82 136.583 181.897 128.5C174.371 120.824 166.951 113.68 159.719 107.043" fill="#E67F3D"/>
<path d="M203.937 152.274C192.481 141.351 181.44 130.084 170.437 118.716C166.901 114.991 163.055 110.944 159.724 107.043C168.267 113.261 176.081 120.522 183.431 128.094C190.763 135.715 197.748 143.68 203.937 152.274Z" fill="#EBC48B"/>
<path d="M201.447 155.575C194.282 149.366 184.305 140.692 177.069 134.805C168.961 128.131 160.25 121.397 152.214 114.609C161.809 119.474 170.612 125.776 178.825 132.693C187.012 139.641 194.713 147.199 201.442 155.575H201.447Z" fill="#EBC48B"/>
<path d="M197.118 157.574C183.119 145.247 167.306 135.241 150.085 128.101C147.634 127.045 145.145 126.073 142.652 125.051C145.321 125.445 147.944 126.056 150.555 126.756C168.714 131.872 185.378 142.791 197.118 157.578V157.574Z" fill="#EBC48B"/>
<path d="M320.113 144.675C317.876 144.361 314.327 143.426 311.298 140.489C308.712 137.983 307.673 135.159 305.918 130.379C304.02 125.208 303.249 120.955 303.056 119.61C301.225 107.007 310.367 83.9407 331.167 74.9405C336.065 72.8204 345.446 68.9488 356.784 73.2226C360.706 74.7017 363.472 76.6417 366.183 78.5397C371.269 82.1054 381.175 88.9561 386.965 102.05C393.238 116.229 391.034 128.221 390.334 131.443C382.042 135.729 370.855 140.401 357.12 143.091C342.429 145.97 329.528 145.647 320.113 144.675Z" fill="#F9DDA7"/>
<path d="M371.152 107.458C379 110.366 386.818 112.712 391.122 116.973C392.911 124.691 391.231 130.813 390.602 132.816C382.205 136.495 370.892 140.572 357.128 143.119C342.392 145.847 329.621 145.935 320.365 145.394C318.639 145.239 316.141 144.795 313.799 143.5C311.549 137.668 313.317 130.109 314.926 126.07C321.911 108.547 359.248 103.042 371.156 107.454L371.152 107.458Z" fill="#E7BE6A"/>
<path d="M356.169 91.41C356.081 91.4309 355.993 91.3471 355.959 91.2507L356.613 90.1027C355.632 90.4588 354.648 90.8108 353.667 91.1669C353.03 91.3974 352.716 92.2061 353.257 92.7256C354.266 93.7019 355.28 94.6782 356.29 95.6545L356.701 94.0958C355.326 94.2885 354.266 95.4449 353.914 96.748C353.466 98.4115 354.174 100.075 354.811 101.583C355.385 102.937 356.068 104.286 357.325 105.124C358.507 105.912 360.208 106.146 361.431 105.325C362.026 104.923 362.064 103.762 361.209 103.62C354.631 102.53 348.107 103.988 341.734 105.564C340.569 105.853 341.064 107.65 342.228 107.361C348.245 105.878 354.488 104.386 360.711 105.417L360.488 103.712C359.768 104.194 358.8 103.938 358.155 103.431C357.329 102.782 356.885 101.73 356.483 100.791C356.06 99.7942 355.507 98.6336 355.649 97.519C355.758 96.6642 356.34 96.0148 357.191 95.8975C357.903 95.7969 358.062 94.7829 357.602 94.3388C356.592 93.3625 355.578 92.3862 354.568 91.41L354.157 92.9687C355.138 92.6125 356.122 92.2605 357.103 91.9044C357.56 91.741 357.924 91.2675 357.757 90.7563C357.459 89.8639 356.588 89.3694 355.67 89.6125C354.509 89.9183 355.004 91.72 356.164 91.41H356.169Z" fill="#F1D594"/>
<g opacity="0.6">
<path d="M332.81 109.64C333.313 110.012 333.828 110.369 334.352 110.712C330.878 111.99 327.606 113.532 324.736 115.346C323.001 114.223 321.555 112.669 320.21 111.114C318.275 108.869 310.075 99.0514 308.294 96.5625C309.928 93.3404 312.543 89.5233 315.597 86.209C316.523 91.6392 328.272 106.254 332.806 109.644L332.81 109.64Z" fill="white"/>
</g>
<path d="M220.651 154.453C215.815 153.452 205.843 151.81 199.965 137.71C194.09 123.611 194.978 82.9425 208.261 77.8097C221.543 72.677 255.114 60.4924 271.341 77.8977C279.185 81.3713 286.279 101.165 287.264 106.444C263.339 121.336 244.576 139.566 220.651 154.458V154.453Z" fill="#F1D594"/>
<path d="M288.458 108.16C286.597 97.1065 274.673 97.0143 262.459 95.6274C250.626 94.2824 216.356 108.792 211.604 128.909C210.134 135.148 209.023 148.174 216.138 153.219C232.563 164.859 291.822 128.134 288.458 108.164V108.16Z" fill="#E7BE6A"/>
<g opacity="0.46">
<path d="M242.082 100.368C245.417 98.9347 248.681 97.7909 251.681 96.978C247.495 89.084 241.776 82.0155 236.664 74.641C235.675 73.2164 234.686 71.7039 234.158 70.0781C229.914 70.8407 225.791 71.8882 221.999 73.0111C224.802 79.7948 229.089 85.8954 233.559 91.7405C236.027 94.971 238.642 98.2057 242.082 100.368Z" fill="white"/>
</g>
<g opacity="0.6">
<path d="M240.682 69.1639C251.211 90.8807 254.848 96.3487 255.837 96.1224C255.891 96.1098 256.47 95.959 257.295 95.8166C258.28 95.649 259.088 95.5819 259.604 95.5484C257.245 90.4952 254.701 85.3122 251.961 80.0244C249.967 76.178 247.96 72.453 245.953 68.8496C245.219 68.8496 244.457 68.8748 243.665 68.9125C242.622 68.9669 241.624 69.0508 240.682 69.1597V69.1639Z" fill="white"/>
</g>
<path d="M382.263 93.5378L405.128 95.6328L404.076 59.959L397.749 63.5372C394.98 66.156 386.549 71.0122 384.253 77.9132C382.284 83.8337 382.062 89.4693 382.263 93.5419V93.5378Z" fill="#F5AB6D"/>
<path d="M430.532 114.351C430 115.608 429.082 117.271 427.486 118.821C425.504 120.744 423.292 121.696 421.771 122.182C420.954 122.416 420.007 122.617 418.93 122.739C416.361 123.036 409.263 123.196 407.424 122.844C405.694 121.771 403.146 120.053 400.343 117.581C395.826 113.596 393.103 109.825 389.415 104.659C387.492 101.965 384.957 98.2064 382.259 93.5387C388.355 93.191 399.065 92.4368 404.964 92.1016L430.532 114.346V114.351Z" fill="#E67F3D"/>
<path d="M404.077 59.9585C411.656 56.3718 433.335 69.8301 439.713 84.9058C442.444 91.3626 441.812 96.6588 441.514 99.1686C440.496 107.704 435.439 112.065 432.217 114.848C427.411 118.996 423.899 121.128 420.874 120.462C417.816 119.788 400.125 100.715 399.036 92.4227C397.934 84.0259 398.889 80.611 400.209 71.745C401.303 64.3915 401.927 60.9766 404.081 59.9585H404.077Z" fill="#F18D4B"/>
<path d="M439.901 90.518C439.746 90.5431 438.69 88.0961 438.581 87.916C438.112 87.1576 437.496 86.5291 436.767 86.0179C435.95 85.4439 435.015 85.1003 434.173 84.5765C433.331 84.0528 432.799 83.1645 431.99 82.5444C430.465 81.3796 428.244 81.9536 426.958 80.3907C425.948 79.1672 425.676 77.5248 424.582 76.2803C422.969 74.4451 420.577 72.5177 418.146 71.9478C417.116 71.7048 415.955 71.7928 415.163 72.5638C414.824 72.8948 414.597 73.3389 414.468 73.7873C414.388 74.0596 414.367 74.3571 414.35 74.642C414.338 74.8389 414.271 75.832 414.417 75.17L416.06 73.9172C414.765 73.8627 413.194 72.8319 412.151 72.1196C411.107 71.4073 410.5 70.452 409.176 70.6238C407.135 70.892 406.293 72.568 406.582 74.4493C406.662 74.973 407.252 75.5554 407.772 75.6392C408.082 75.6895 408.484 75.8236 408.803 75.7943C409.637 75.7147 410.55 75.0484 409.687 74.378C409.075 73.9004 407.479 73.9171 406.733 73.9339C405.103 73.9758 404.336 76.2845 405.874 77.1099C407.521 77.994 409.167 78.8781 410.818 79.7622L411.677 76.5862C409.993 76.7915 408.363 76.7622 406.678 76.561C405.413 76.4102 404.529 78.1239 405.208 79.1253C405.748 79.9214 406.406 80.441 407.357 80.6798C408.451 80.9522 409.582 80.4368 410.604 80.8642L409.414 78.7692C409.984 78.3795 410.014 78.1952 409.498 78.2119C409.285 78.1952 409.079 78.1491 408.878 78.0736C408.484 77.9815 408.128 77.8097 407.717 77.7887C406.93 77.751 406.331 77.9982 405.874 78.6393C404.755 80.2064 405.786 82.4271 406.766 83.7637C408.069 85.5402 410.613 84.0528 409.708 82.0416L409.121 83.1729L407.416 81.4676C407.324 82.8838 407.332 84.2832 407.428 85.7037L409.993 84.233C407.424 82.5947 406.272 85.0333 405.388 87.0487C405.002 87.9286 405.157 88.8252 406 89.3783C407.24 90.1954 408.317 91.1465 409.163 92.3742C410.42 94.201 413.009 92.6423 412.104 90.6521C411.287 88.8504 410.5 87.0403 409.75 85.2092L407.655 87.3042C409.012 87.6604 409.993 91.4021 410.521 92.5502C411.262 94.1717 412.787 96.3505 412.607 98.1648C412.536 98.8729 413.181 99.6564 413.86 99.8072C414.694 99.9958 416.068 100.23 416.353 101.115C416.462 101.454 416.244 102.17 416.311 102.56C416.387 103.008 416.575 103.381 416.806 103.767C417.417 104.785 418.297 105.393 418.599 106.62C418.863 107.684 418.72 108.824 418.599 109.901C418.369 111.883 421.39 112.101 421.947 110.354L422.01 110.152L420.367 111.405C420.581 111.388 422.542 113.957 422.806 114.271C423.715 115.344 424.545 116.467 425.328 117.632L428.006 115.566C424.922 113.14 422.148 110.412 419.739 107.316L417.673 109.993C417.924 110.115 418.176 110.232 418.431 110.354C420.405 111.288 422.135 108.351 420.153 107.412L419.395 107.052C417.581 106.193 416.144 108.204 417.329 109.729C419.739 112.826 422.517 115.553 425.596 117.979C426.979 119.069 429.455 117.665 428.274 115.914C427.092 114.162 425.864 112.57 424.494 111.032C423.476 109.888 422.085 107.873 420.367 107.999C419.584 108.057 418.963 108.493 418.725 109.252L418.662 109.453L422.01 109.905C422.181 108.414 422.257 106.884 421.817 105.426C421.377 103.968 419.982 102.891 419.718 101.483C419.487 100.247 419.693 99.4385 418.716 98.4413C417.677 97.3812 416.177 96.8449 414.765 96.5265L416.018 98.1689C416.282 95.4622 414.229 92.4999 413.144 90.1283C412.092 87.828 411.313 84.7441 408.564 84.0193C407.428 83.7218 405.953 84.8615 406.469 86.1143C407.332 88.2135 408.229 90.3001 409.167 92.37L412.109 90.6479C410.923 88.9216 409.469 87.5766 407.722 86.4285L408.333 88.7582C408.602 88.1422 408.849 87.0361 409.389 86.6129L408.183 87.1115L408.271 87.166C409.318 87.8322 410.923 86.9732 410.835 85.6953C410.738 84.279 410.73 82.8796 410.822 81.4592C410.881 80.5918 409.993 79.6826 409.117 79.7538C406.829 79.9424 405.828 81.6687 406.762 83.7511L409.704 82.029C409.582 81.8656 408.631 80.6547 408.811 80.3446L407.34 81.1868C408.53 81.1701 409.528 81.8614 410.78 81.5639C411.773 81.3251 412.473 80.6589 412.699 79.6617C412.926 78.6644 412.394 77.9354 411.509 77.5667C410.86 77.2943 410.328 77.2273 409.628 77.244C409.393 77.2482 408.237 77.5247 408.149 77.3949L406.678 79.9591C408.363 80.1561 409.993 80.1854 411.677 79.9843C413.206 79.7999 414.183 77.6924 412.536 76.8083C410.889 75.9242 409.243 75.0401 407.592 74.156L406.733 77.332C408.803 77.2817 412.54 79.1589 413.269 75.9074C413.898 73.0917 410.579 72.656 408.685 72.3417L409.875 73.5317L410.089 73.9004L408.43 73.4604C410.445 75.2454 413.273 77.1895 416.064 77.3111C416.776 77.3404 417.551 76.7622 417.706 76.0582C417.757 75.8278 417.836 75.5638 417.828 75.3292L417.765 74.8767C417.811 74.5415 417.748 74.5373 417.572 74.8683C416.651 74.9772 417.606 75.2873 417.69 75.3501C418.511 76.0205 419.663 76.3893 420.522 77.089C421.381 77.7887 422.202 78.5262 422.739 79.448C423.635 80.9815 423.895 82.4983 425.42 83.6212C425.978 84.0318 426.589 84.3293 427.243 84.564C428.077 84.8615 429.258 84.8154 429.987 85.2972C430.536 85.6576 430.93 86.4076 431.471 86.8308C432.183 87.3922 432.975 87.7777 433.771 88.2009C435.627 89.1814 435.841 90.6395 437.035 92.1814C437.999 93.4301 439.239 94.0502 440.802 93.7904C442.96 93.4259 442.046 90.1409 439.897 90.5054L439.901 90.518Z" fill="#F5AC60"/>
<path d="M402.606 114.677C401.467 113.16 400.172 111.606 397.641 110.378C396.338 109.745 394.893 109.046 392.596 108.995C389.081 108.924 386.68 110.462 383.475 111.224C378.958 112.301 376.096 111.057 372.983 109.925C363.296 106.402 356.386 103.892 348.379 104.675C342.157 105.287 340.41 107.42 335.926 106.775C331.619 106.154 332.147 103.959 328.2 102.161C322.263 99.463 318.45 103.439 312.651 101.143C307.979 99.2954 309.647 96.2325 305.365 96.0943C303.316 96.0314 299.394 96.6306 295.095 98.5412C293.067 99.4421 291.655 100.322 290.268 100.045C288.575 99.706 289.044 98.0468 287.389 98.0929C285.755 98.139 284.645 99.794 283.019 99.639C281.997 99.5426 282.11 98.8513 281.138 98.9812C280.107 99.1194 279.236 99.9993 277.874 101.047C275.653 102.752 273.391 103.917 271.828 104.349C269.469 104.998 269.783 103.661 267.985 104.424C266.779 104.935 265.191 106.59 262.119 109.817C259.48 112.595 259.232 113.102 258.206 113.697C256.593 114.627 255.813 114.17 254.862 115.301C254.003 116.324 254.255 117.157 253.492 118.188C252.177 119.965 250.656 118.511 248.46 120.162C246.047 121.98 244.09 126.61 243.562 129.707C243.449 130.373 243.436 130.964 243.407 132.154C243.336 135.221 243.721 135.627 244.5 141.397C244.647 142.494 244.773 143.483 245.343 144.418C245.946 145.402 246.331 145.159 246.897 145.939C248.234 147.778 246.905 150.246 248.108 151.478C248.946 152.337 249.629 151.201 251.602 151.905C253.576 152.609 253.329 153.866 254.913 153.841C256.446 153.816 257.033 152.651 258.73 152.706C259.739 152.739 259.848 153.154 261.323 153.824C261.646 153.971 263.527 154.809 265.874 154.968C268.937 155.178 269.439 154.021 271.392 154.595C273.604 155.24 273.122 156.732 275.301 157.243C277.56 157.771 278.381 156.271 281.213 156.535C284.062 156.799 283.711 158.329 286.585 158.601C289.677 158.894 290.612 157.227 293.436 157.65C296.549 158.119 295.916 160.16 298.933 160.855C302.637 161.706 304.091 158.84 309.659 158.919C313.908 158.978 315.148 160.629 317.922 159.225C320.574 157.884 321.098 155.559 323.025 155.253C325.38 154.876 325.338 158.169 328.397 158.68C330.945 159.108 332.977 157.18 338.252 154.847C340.691 153.766 343.77 152.995 350.101 151.109C354.911 149.672 361.762 147.912 374.118 145.469C386.705 142.981 393.112 142.934 397.151 140.161C397.658 139.813 398.664 138.43 400.813 135.736C405.59 129.748 408.012 126.711 408.376 125.378C408.988 123.158 406.822 120.279 402.606 114.677Z" fill="#C98E58"/>
<path d="M334.359 146.841C334.175 146.476 333.927 146.284 333.638 146.208C332.138 145.823 330.395 147.771 328.857 147.587C326.959 147.36 327.341 143.9 326.071 144.13C325.388 144.256 325.082 145.295 324.311 145.458C323.226 145.689 323.327 143.74 322.095 143.405C320.109 142.865 317.41 147.289 313.455 148.056C311.1 148.513 310.991 147.13 307.958 147.436C305.737 147.662 304.497 148.546 302.615 149.3C298.031 151.136 294.403 150.268 290.318 149.288C286.157 148.291 287.343 147.453 284.204 146.996C279.373 146.292 276.893 148.416 274.58 146.535C273.269 145.471 273.03 143.933 271.773 144.323C270.453 144.733 269.996 146.673 268.626 147.231C266.803 147.972 266.581 144.926 264.214 144.96C262.098 144.993 261.147 147.482 259.32 147.507C256.596 147.545 257.284 141.93 254.422 142.265C253.513 142.37 253.349 142.961 252.377 143.099C250.073 143.43 249.168 140.359 248.564 138.184C247.349 133.823 246.553 130.957 248.045 128.116C250.148 124.11 253.969 125.053 259.525 118.722C260.942 117.109 262.358 115.311 263.975 114.18C265.999 112.764 267.679 112.55 268.509 112.437C272.271 111.926 272.28 114.268 274.647 113.187C277.664 111.812 279.214 107.384 281.259 107.015C283.27 106.654 282.629 110.719 285.022 110.27C286.308 110.027 286.903 108.791 289.002 107.928C291.147 107.044 292.672 107.425 293.33 107.618C295.815 108.335 296.268 111.54 297.805 113.593C300.642 117.389 307.379 117.113 314.176 114.326C316.3 113.455 318.667 112.336 320.41 112.764C322.757 113.342 322.493 115.185 324.102 116.778C328.296 120.93 337.263 114.117 343.648 118.131C345.902 119.547 346.263 121.315 350.201 122.878C354.597 124.625 357.174 123.674 357.89 123.377C360.073 122.476 360.442 121.265 362.415 120.754C365.122 120.05 365.323 122.061 368.826 121.948C372.136 121.843 373.192 120.037 376.041 120.23C379.112 120.435 379.41 122.602 381.865 121.994C383.554 121.575 384.086 120.398 385.691 120.025C387.769 119.543 389.365 120.934 390.438 122.283C390.849 122.908 391.565 123.863 392.738 124.868C393.991 125.941 394.75 126.193 394.578 126.926C394.31 128.086 392.009 129.276 390.396 130.114C388.582 131.053 387.924 131.078 386.621 131.992C385.364 132.88 385.188 133.416 384.442 134.082C381.409 136.793 374.776 136.483 373.15 136.408C369.928 136.257 369.79 135.641 367.732 135.959C364.259 136.5 361.477 138.775 360.647 139.404C357.538 141.754 350.595 144.675 334.367 146.845L334.359 146.841Z" fill="#9E6132"/>
<path d="M292.244 151.187C289.697 151.262 287.707 150.32 285.36 149.498C283.014 148.677 280.638 149.042 278.313 148.501C278.757 148.606 278.518 148.987 278.493 148.162C278.472 147.487 278.61 146.817 278.711 146.159C278.95 144.575 279.281 142.908 278.874 141.315C278.447 139.648 277.257 138.387 275.618 137.85C274.701 137.549 272.719 137.725 272.011 137.054C271.399 136.476 271.307 134.98 270.867 134.23C269.673 132.194 267.431 131.536 265.278 131.054C264.268 130.828 263.388 130.618 262.483 130.132C261.674 129.701 261.029 129.453 260.09 129.508C257.903 129.642 256.001 131.079 254.015 131.85C253.106 132.202 252.703 132.386 252.033 131.59C250.843 130.178 249.67 128.75 248.488 127.325C246.552 124.995 243.242 128.339 245.165 130.648C246.188 131.879 247.214 133.111 248.237 134.343C249.033 135.303 249.8 136.304 251.031 136.715C252.938 137.352 255.263 136.434 256.977 135.646C257.853 135.244 258.741 134.846 259.613 134.435C259.839 134.326 260.153 134.226 260.4 134.18C260.333 134.192 259.562 133.895 260.107 134.192C260.384 134.343 260.643 134.515 260.928 134.653C262.571 135.449 266.044 135.282 266.962 136.941C267.507 137.93 267.582 139.036 268.311 139.97C269.095 140.972 270.171 141.521 271.391 141.831C271.994 141.982 274.026 141.915 274.399 142.451C274.387 142.434 274.361 143.343 274.349 143.561C274.169 146.574 272.652 150.579 275.941 152.557C278.204 153.915 281.145 153.098 283.605 153.869C286.563 154.795 289.039 155.989 292.24 155.892C295.257 155.804 295.27 151.103 292.24 151.191L292.244 151.187Z" fill="#D8A169"/>
</svg>
