<svg width="266" height="401" viewBox="0 0 266 401" fill="none" xmlns="http://www.w3.org/2000/svg">
<g clip-path="url(#clip0_887_6732)">
<path d="M263.201 24.3558C277.454 30.6702 293.09 108.201 269.861 125.271C243.147 144.914 175.619 111.443 175.859 77.7605C176.061 49.1461 248.949 18.0415 263.201 24.3558Z" fill="#353535"/>
<path d="M207.876 397.66L156.317 411.573C148.004 413.816 143.084 422.373 145.327 430.685L147.065 437.126C149.308 445.438 157.865 450.359 166.177 448.116L217.737 434.204C226.049 431.961 230.97 423.404 228.727 415.091L226.989 408.651C224.746 400.338 216.189 395.417 207.876 397.66Z" fill="white"/>
<path d="M301.785 372.322L250.226 386.234C241.913 388.477 236.993 397.034 239.236 405.346L240.974 411.787C243.216 420.1 251.774 425.02 260.086 422.777L311.646 408.865C319.958 406.622 324.879 398.065 322.636 389.752L320.898 383.312C318.655 374.999 310.098 370.079 301.785 372.322Z" fill="#353535"/>
<path d="M142.381 302.718L110.117 350.234C103.051 360.638 90.3238 363.225 81.822 355.979L80.2624 354.654C71.7676 347.406 70.593 332.966 77.6586 322.563L109.923 275.046C116.988 264.643 129.716 262.055 138.218 269.302L139.777 270.627C148.272 277.875 149.447 292.314 142.381 302.718Z" fill="#FFDC83"/>
<path d="M253.283 273.172L306.376 298.564C317.998 304.121 330.528 300.045 334.208 289.504L334.88 287.569C338.567 277.027 332.064 263.851 320.442 258.294L267.349 232.901C255.727 227.344 243.197 231.42 239.517 241.961L238.845 243.896C235.158 254.439 241.661 267.614 253.283 273.172Z" fill="white"/>
<path d="M307.589 378.277L149.365 420.97C128.233 426.672 109.915 408.15 108.783 382.299L104.891 293.769C104.178 277.625 115.791 262.025 130.638 258.019L241.805 228.024C256.652 224.018 274.536 231.658 282.041 245.969L323.21 324.441C335.228 347.355 328.721 372.575 307.589 378.277Z" fill="white"/>
<path d="M274.526 139.396C281.487 163.485 274.182 184.99 272.018 191.092C255.717 237.083 206.779 250.122 190.876 254.36C153.94 264.197 85.5667 266.28 61.2386 223.185C47.6038 199.045 53.9295 171.583 56.887 158.758C66.2059 118.294 98.018 80.7572 141.32 70.6757C195.889 57.9701 260.483 90.7668 274.533 139.394L274.526 139.396Z" fill="white"/>
<mask id="mask0_887_6732" style="mask-type:luminance" maskUnits="userSpaceOnUse" x="52" y="67" width="226" height="194">
<path d="M274.526 139.396C281.487 163.485 274.182 184.99 272.018 191.092C255.717 237.083 206.779 250.122 190.876 254.36C153.94 264.197 85.5667 266.28 61.2386 223.185C47.6038 199.045 53.9295 171.583 56.887 158.758C66.2059 118.294 98.018 80.7572 141.32 70.6757C195.889 57.9701 260.483 90.7668 274.533 139.394L274.526 139.396Z" fill="white"/>
</mask>
<g mask="url(#mask0_887_6732)">
<path d="M171.569 53.9867C170.078 63.7024 172.001 73.5175 176.393 82.2582C180.867 91.1655 187.748 98.8189 195.885 104.546C204.535 110.633 214.753 114.264 225.143 115.958C236.104 117.748 247.273 117.456 258.244 115.894C263.646 115.125 269.021 114.06 274.296 112.682C278.972 111.465 283.594 109.878 287.894 107.66C292.194 105.441 295.869 102.756 298.7 99.074C301.562 95.3613 303.248 90.8542 303.294 86.1475C303.376 76.3659 296.92 67.3733 288.972 62.2077C279.768 56.2245 268.223 55.0155 257.517 54.7292C251.357 54.5621 245.186 54.6396 239.021 54.6248C232.283 54.6136 225.553 54.6076 218.814 54.5964C205.286 54.5804 191.756 54.5572 178.227 54.5411C174.952 54.5329 171.678 54.5318 168.395 54.5254C166.981 54.5216 166.975 56.7153 168.381 56.714C181.426 56.732 194.471 56.75 207.517 56.7679C220.562 56.7859 233.607 56.8039 246.652 56.8219C257.503 56.8346 268.681 56.6004 279.119 60.013C288.256 62.9983 296.504 69.4737 299.803 78.7587C301.318 83.0292 301.579 87.6382 300.114 91.957C298.69 96.1511 295.785 99.6717 292.29 102.323C284.655 108.125 274.906 110.544 265.666 112.387C255.159 114.489 244.38 115.5 233.674 114.738C222.968 113.975 212.772 111.518 203.498 106.619C195.051 102.155 187.639 95.6128 182.211 87.7412C176.893 80.0217 173.422 70.9116 173.241 61.473C173.198 59.1563 173.341 56.8273 173.689 54.5334C173.899 53.1538 171.79 52.5662 171.577 53.9618L171.569 53.9867Z" fill="white"/>
<path d="M178.948 55.3368C169.601 68.2383 169.548 86.5317 176.861 100.691C184.173 114.85 197.938 124.985 212.988 130.192C228.038 135.399 244.335 136.067 260.21 134.724C265.561 134.27 271.179 133.488 275.447 130.227C280.602 126.303 282.745 119.564 283.559 113.138C285.731 96.0572 280.232 78.1431 268.845 65.2195C257.46 52.303 240.375 44.5983 223.151 44.6119C208.157 44.6284 193.775 50.1343 179.797 55.5689" fill="#353535"/>
</g>
<path d="M10.9213 92.4274C1.77946 105.054 27.2661 179.927 55.9284 182.995C88.8983 186.535 130.423 123.638 113.272 94.6481C98.7025 70.0119 20.0632 79.8007 10.9213 92.4274Z" fill="#FFDC83"/>
<path d="M27.9465 102.461C23.0838 109.179 36.6435 149.01 51.8876 150.65C69.4271 152.532 91.5207 119.068 82.3996 103.644C74.6459 90.541 32.8091 95.7442 27.9465 102.461Z" fill="#FFBBD2"/>
<path d="M220.268 133.247C221.278 142.537 214.079 151.465 204.686 154C195.687 156.428 186.565 152.456 183.704 144.489" fill="#86C663"/>
<path d="M183.704 144.489C180.508 135.584 186.018 124.572 196.878 120.72C208.337 116.653 219.129 122.752 220.268 133.247" fill="#4D962C"/>
<path d="M103.33 164.8C107.131 173.337 117.844 177.432 127.237 174.897C136.235 172.469 142.122 164.448 140.586 156.123" fill="#86C663"/>
<path d="M140.593 156.121C138.877 146.818 128.575 140.072 117.251 142.205C105.302 144.454 99.042 155.154 103.337 164.798" fill="#4D962C"/>
<path d="M204.366 150.601C210.484 148.95 213.964 142.129 212.139 135.365C210.313 128.601 203.875 124.456 197.757 126.107C191.639 127.758 188.159 134.579 189.984 141.343C191.809 148.107 198.248 152.252 204.366 150.601Z" fill="black"/>
<path d="M211.174 135.263C213.116 134.739 214.266 132.739 213.742 130.798C213.218 128.856 211.219 127.706 209.277 128.23C207.335 128.754 206.185 130.753 206.709 132.695C207.233 134.637 209.232 135.787 211.174 135.263Z" fill="white"/>
<path d="M124.979 172.021C131.097 170.371 134.577 163.549 132.752 156.786C130.927 150.022 124.488 145.877 118.37 147.528C112.253 149.178 108.773 156 110.598 162.763C112.423 169.527 118.862 173.672 124.979 172.021Z" fill="black"/>
<path d="M129.434 157.318C131.376 156.794 132.526 154.795 132.002 152.853C131.478 150.911 129.479 149.762 127.537 150.286C125.595 150.81 124.445 152.809 124.969 154.751C125.493 156.693 127.492 157.842 129.434 157.318Z" fill="white"/>
<path d="M167.298 154.147C153.841 156.667 149.423 174.641 153.695 180.133C159.517 187.619 187.721 179.94 189.013 169.878C189.879 163.143 179.121 151.932 167.305 154.145L167.298 154.147Z" fill="#FFDC83"/>
<path d="M174.786 160.412C175.843 162.395 173.237 166.688 169.597 167.769C165.734 168.917 161.01 166.344 160.913 164.049C160.828 161.857 164.975 159.997 167.643 159.406C169.449 159.01 173.759 158.482 174.784 160.405L174.786 160.412Z" fill="#FFBBD2"/>
<path d="M320.612 258.248L274.428 236.162C265.557 228.418 252.938 225.02 241.974 227.978L219.164 234.133C217.724 261.463 235.056 288.099 259.393 300.688C276.436 309.5 296.221 311.857 315.255 308.913L310.613 300.059C320.957 303.036 331.123 298.773 334.376 289.452L335.048 287.516C338.735 276.974 332.232 263.798 320.61 258.241L320.612 258.248Z" fill="#353535"/>
<path d="M166.647 388.586C152.042 382.254 135.289 381.664 119.835 385.493C116.3 386.372 112.836 387.488 109.455 388.823C112.865 409.698 127.89 424.172 145.596 421.738C144.66 424.545 144.503 427.634 145.328 430.693L147.064 437.126C149.298 445.406 157.897 450.35 166.177 448.116L200.613 438.824C200.631 433.286 199.895 427.785 198.217 422.462C193.439 407.279 181.24 394.93 166.642 388.595L166.647 388.586Z" fill="#FFDC83"/>
</g>
<defs>
<clipPath id="clip0_887_6732">
<rect width="290.949" height="402.749" fill="white" transform="translate(0 75.7949) rotate(-15.1003)"/>
</clipPath>
</defs>
</svg>
