<svg width="409" height="437" viewBox="0 0 409 437" fill="none" xmlns="http://www.w3.org/2000/svg">
<g clip-path="url(#clip0_887_6641)">
<path d="M168.63 380.742L117 377.007C108.676 376.404 101.44 382.664 100.838 390.988L100.371 397.437C99.7688 405.761 106.028 412.997 114.352 413.6L165.982 417.336C174.306 417.938 181.542 411.678 182.145 403.354L182.611 396.905C183.214 388.581 176.954 381.345 168.63 380.742Z" fill="#F7F7F7"/>
<path d="M262.667 387.547L211.037 383.811C202.713 383.209 195.477 389.468 194.875 397.792L194.408 404.242C193.806 412.566 200.065 419.802 208.389 420.404L260.019 424.14C268.343 424.742 275.579 418.483 276.181 410.159L276.648 403.709C277.25 395.385 270.991 388.149 262.667 387.547Z" fill="#F7F7F7"/>
<path d="M139.015 272.934L94.3107 306.115C84.5215 313.379 72.047 311.682 66.5808 302.335L65.5768 300.624C60.1176 291.278 63.6544 277.688 73.4436 270.424L118.148 237.243C127.937 229.978 140.411 231.675 145.878 241.022L146.882 242.734C152.341 252.08 148.804 265.67 139.015 272.934Z" fill="#F7F7F7"/>
<path d="M249.946 281.323L290.426 321.519C299.287 330.317 312.056 330.588 318.791 322.117L320.024 320.561C326.765 312.09 325.022 297.955 316.161 289.157L275.681 248.961C266.82 240.163 254.051 239.891 247.317 248.362L246.083 249.919C239.342 258.39 241.085 272.525 249.946 281.323Z" fill="#F7F7F7"/>
<path d="M266.075 394.851L107.637 383.387C86.4754 381.855 75.6274 359.054 82.8483 335.034L107.562 252.769C112.067 237.767 127.677 227.2 142.544 228.276L253.862 236.331C268.729 237.407 282.655 250.111 284.953 265.605L297.566 350.571C301.247 375.379 287.236 396.382 266.075 394.851Z" fill="#F6C6DB"/>
<path d="M82.2279 27.2776C117.78 25.9844 154.192 54.9557 153.606 91.4781C153.459 100.561 151.038 109.025 146.979 116.597C159.032 105.688 167.269 90.8708 167.541 73.8671C168.127 37.3447 131.715 8.38049 96.1629 9.67371C71.286 10.5761 48.3416 26.2371 36.6417 46.9677C48.897 35.5196 65.103 27.8968 82.2279 27.2776Z" fill="#F7F7F7"/>
<path d="M29.5206 86.7623C36.0627 119.275 72.7982 139.56 105.669 135.618C120.53 133.835 135.488 126.994 146.979 116.605C151.038 109.032 153.459 100.568 153.605 91.4852C154.198 54.9633 117.786 25.992 82.2274 27.2847C65.1025 27.9039 48.8965 35.5267 36.6412 46.9747C29.7669 59.1455 26.7666 73.0649 29.5201 86.7694L29.5206 86.7623Z" fill="#FAE0EB"/>
<path d="M274.069 98.7122C278.74 62.4854 318.944 39.0579 353.946 45.4564C368.514 48.1207 381.658 55.8527 391.722 66.3623C381.925 47.0766 363.153 31.4329 341.102 27.4043C306.106 21.0064 265.903 44.4338 261.225 80.6601C258.773 99.6411 266.699 117.344 279.524 130.465C274.819 120.79 272.615 109.984 274.068 98.7192L274.069 98.7122Z" fill="#F7F7F7"/>
<path d="M395.952 113.277C401.45 97.8785 399.198 81.061 391.722 66.3552C381.658 55.8527 368.515 48.1136 353.947 45.4493C318.951 39.0514 278.748 62.4789 274.07 98.7051C272.616 109.97 274.82 120.783 279.525 130.451C288.949 140.099 301.02 147.271 313.564 150.654C345.519 159.279 384.791 144.502 395.953 113.27L395.952 113.277Z" fill="#FAE0EB"/>
<path d="M312.873 172.954C311.739 194.698 298.237 210.141 294.326 214.497C264.841 247.318 215.585 243.619 199.571 242.411C162.393 239.614 98.6358 221.247 89.7086 178.859C84.7099 155.111 99.1662 134.516 105.913 124.897C127.218 94.5409 168.357 73.1884 211.486 77.6498C265.837 83.2778 315.155 129.057 312.858 172.953L312.873 172.954Z" fill="#F7F7F7"/>
<path d="M174.388 150.983C176.662 143.071 173.907 135.334 168.233 133.703C162.559 132.072 156.115 137.164 153.841 145.076C151.566 152.988 154.322 160.724 159.996 162.355C165.67 163.986 172.113 158.895 174.388 150.983Z" fill="#262727"/>
<path d="M243.75 168.428C249.599 167.631 253.44 160.372 252.328 152.215C251.216 144.058 245.573 138.092 239.723 138.889C233.874 139.686 230.033 146.945 231.145 155.102C232.257 163.259 237.9 169.225 243.75 168.428Z" fill="#262727"/>
<path d="M224.837 165.449C223.802 173.283 211.917 178.346 202.524 177.588C193.039 176.817 181.825 169.763 182.248 161.559C182.668 153.404 194.437 147.205 204.149 147.78C214.707 148.409 225.922 157.222 224.837 165.449Z" fill="#FAE0EB"/>
<path d="M209.14 157.121C208.895 159.04 205.942 160.245 203.642 160.078C201.341 159.912 198.6 158.288 198.626 156.36C198.657 154.369 201.625 152.662 204.165 152.846C206.705 153.03 209.389 155.146 209.14 157.121Z" fill="#ED83AC"/>
<path d="M243.457 164.761C240.395 165.114 237.08 162.704 237.227 160.771C237.374 158.93 240.649 157.791 242.626 157.523C244.632 157.249 248.069 157.484 248.683 159.188C249.345 161.023 246.654 164.396 243.457 164.761Z" fill="#F6C6DB"/>
<path d="M161.045 158.939C164.024 159.73 167.652 157.822 167.785 155.888C167.904 154.045 164.827 152.446 162.91 151.896C160.964 151.337 157.529 151.074 156.675 152.672C155.756 154.393 157.934 158.119 161.045 158.939Z" fill="#F6C6DB"/>
<path d="M246.237 150.251C246.313 150.682 246.69 152.823 245.237 154.477C245.043 154.697 244.042 155.795 242.371 155.951C240.285 156.154 238.877 154.726 238.607 154.444C237.263 153.02 237.277 151.255 237.287 150.83C237.337 148.571 238.915 145.572 241.479 145.438C244.049 145.298 245.852 148.131 246.23 150.251L246.237 150.251Z" fill="white"/>
<path d="M160.911 143.353C160.281 145.088 160.206 147.892 162.115 149.455C163.776 150.81 165.879 150.359 166.06 150.315C168.412 149.769 169.656 147.469 169.966 145.732C170.395 143.337 169.412 139.961 166.867 139.266C164.293 138.569 161.736 141.058 160.903 143.353L160.911 143.353Z" fill="white"/>
</g>
<defs>
<clipPath id="clip0_887_6641">
<rect width="379.699" height="410.424" fill="white" transform="translate(29.6206) rotate(4.13866)"/>
</clipPath>
</defs>
</svg>
