<svg width="421" height="476" viewBox="0 0 421 476" fill="none" xmlns="http://www.w3.org/2000/svg">
<g clip-path="url(#clip0_887_6717)">
<path d="M220.165 421.565C199.116 426.854 179.665 419.838 144.179 406.611C107.613 392.98 87.7961 385.596 75.2628 367.457C72.5035 363.461 62.2712 347.623 66.4698 314.685C73.5831 258.823 113.661 220.846 136.837 202.56L281.738 256.667C287.471 285.074 292.991 337.84 263.394 384.563C254.591 398.451 243.234 415.76 220.167 421.558L220.165 421.565Z" fill="#457DB1"/>
<path d="M152.606 226.529C157.78 240.526 142.335 257.416 121.092 263.43L70.9394 277.621C58.0805 281.26 45.8643 276.458 42.4555 267.232C39.0468 258.007 45.2101 246.416 57.3377 240.816L104.668 218.982C124.717 209.735 147.432 212.533 152.608 226.523L152.606 226.529Z" fill="#457DB1"/>
<path d="M260.935 266.98C247.854 274.16 248.449 297.04 260.55 315.505L289.128 359.094C296.455 370.27 308.828 374.65 317.449 369.917C326.071 365.183 329.012 352.39 323.523 340.212L302.087 292.7C293.006 272.575 274.017 259.801 260.938 266.974L260.935 266.98Z" fill="#457DB1"/>
<path d="M355.567 200.806C359.417 195.639 362.548 189.97 364.848 183.813C382.794 135.752 343.299 76.6029 276.625 51.7065C209.951 26.81 141.361 45.5996 123.415 93.6607C121.116 99.8179 119.765 106.151 119.286 112.578C108.727 117.981 100.295 126.812 96.0164 138.27C93.9781 148.125 92.8343 162.387 98.8974 177.591C111.834 209.996 148.507 224.046 206.583 245.4C263.434 266.303 298.439 278.638 328.355 263.272C343.103 255.692 351.548 243.986 356.303 235.462C360.584 223.998 360.001 211.808 355.567 200.806Z" fill="#457DB1"/>
<path d="M337.988 198.981C337.723 197.992 337.398 196.995 337.047 196.005C339.351 192.157 341.367 188.024 343.012 183.62C355.187 151.013 343.059 116.361 315.913 106.225C295.034 98.4288 271.359 107.414 255.999 126.814C254.518 128.685 251.718 129.296 249.21 128.321C248.478 128.04 247.74 127.757 247.008 127.476C244.53 126.543 242.873 124.282 242.975 121.935C244.087 97.2226 232.092 74.9257 211.22 67.1319C184.074 56.9957 152.203 75.2169 140.027 107.824C138.418 112.133 137.244 116.48 136.466 120.804C135.809 121.194 135.159 121.586 134.531 122.002C130.757 124.519 118.17 132.906 115.311 147.759C111.898 165.526 124.499 181.637 128.814 187.151C137.296 197.992 148.866 207.075 203.882 227.998C275.031 255.053 291.783 253.596 302.963 250.763C308.967 249.241 327.972 244.428 336.152 228.805C342.66 216.375 339.123 203.199 337.988 198.981Z" fill="white"/>
<path d="M243.965 177.996L234.252 178.125C231.294 178.167 228.437 177.085 226.249 175.106L219.323 168.849C216.312 166.13 217.6 161.144 221.558 160.229L230.357 158.195C235.085 157.103 240.008 158.957 242.836 162.893L247.981 170.041C250.349 173.342 248.028 177.942 243.971 177.999L243.965 177.996Z" fill="#FFCC3B"/>
<path d="M267.622 173.435C269.873 172.248 270.355 168.741 268.699 165.601C267.043 162.461 263.876 160.877 261.625 162.064C259.375 163.251 258.893 166.758 260.549 169.898C262.205 173.038 265.372 174.621 267.622 173.435Z" fill="#262727"/>
<path d="M211.379 151.571C214.687 150.285 216.622 147.32 215.7 144.949C214.778 142.578 211.349 141.698 208.04 142.984C204.731 144.27 202.796 147.235 203.718 149.607C204.64 151.978 208.07 152.858 211.379 151.571Z" fill="#262727"/>
<path d="M223.263 164.915C225.794 166.411 228.867 167.992 232.465 169.389C236.733 171.045 240.64 172.031 243.917 172.628" stroke="#D7A338" stroke-width="2.43298" stroke-miterlimit="10" stroke-linecap="round"/>
<path d="M264.995 143.182C266.323 146.366 268.656 150.884 272.726 155.392C278.073 161.315 283.899 164.42 287.425 165.969" stroke="#474747" stroke-width="3.2485" stroke-miterlimit="10" stroke-linecap="round"/>
<path d="M227.567 129.207C224.477 130.74 219.755 132.624 213.725 133.361C205.805 134.33 199.37 132.856 195.692 131.715" stroke="#474747" stroke-width="3.2485" stroke-miterlimit="10" stroke-linecap="round"/>
<path d="M205.783 412.795L187.955 406.138C174.389 401.072 160.139 405.702 156.114 416.48L155.482 418.172C153.695 422.957 157.235 428.7 163.257 430.948L165.602 431.824C169.075 433.121 172.657 432.817 175.2 431.296C175.847 430.911 176.853 431.286 177.089 432.002C178.013 434.817 180.52 437.395 183.993 438.691L187.452 439.983C190.925 441.28 194.508 440.976 197.051 439.455C197.698 439.07 198.704 439.446 198.94 440.161C199.864 442.976 202.371 445.554 205.844 446.851L208.189 447.726C214.21 449.975 220.575 447.93 222.362 443.145L223.066 441.48C227.091 430.702 219.355 417.863 205.796 412.8L205.783 412.795Z" fill="#FFCC3B"/>
<path d="M112.996 378.148L95.1691 371.491C81.6033 366.426 67.3524 371.055 63.3277 381.833L62.6958 383.525L62.8045 383.566C61.018 388.35 64.4489 394.053 70.4706 396.302L72.8154 397.177C76.2885 398.474 79.8713 398.17 82.4139 396.649C83.0612 396.264 84.0671 396.639 84.3033 397.355C85.2269 400.17 87.7338 402.748 91.2068 404.045L94.6662 405.336C98.1393 406.633 101.722 406.329 104.265 404.809C104.912 404.423 105.918 404.799 106.154 405.514C107.078 408.329 109.585 410.907 113.058 412.204L115.402 413.079C121.424 415.328 127.753 413.27 129.54 408.485L129.648 408.526L130.28 406.834C134.305 396.055 126.569 383.216 113.01 378.153L112.996 378.148Z" fill="#FFCC3B"/>
<path d="M133.764 293.87L226.747 328.591C232.408 330.705 235.292 337.024 233.178 342.685L231.597 346.919C221.301 374.49 190.555 388.516 162.981 378.22L149.388 373.145C121.815 362.848 107.786 332.103 118.081 304.532L119.662 300.298C121.776 294.637 128.095 291.754 133.757 293.868L133.764 293.87Z" fill="white"/>
</g>
<defs>
<clipPath id="clip0_887_6717">
<rect width="301.201" height="394.932" fill="white" transform="translate(138.153) rotate(20.476)"/>
</clipPath>
</defs>
</svg>
