<svg width="646" height="905" viewBox="0 0 646 905" fill="none" xmlns="http://www.w3.org/2000/svg">
<path d="M376.955 899.471C354.576 899.471 336.362 881.257 336.362 858.877V843.663C336.362 838.864 337.228 834.131 338.895 829.649H314.865C316.532 834.131 317.398 838.864 317.398 843.663V858.877C317.398 881.257 299.184 899.471 276.805 899.471H154.891C132.512 899.471 114.298 881.257 114.298 858.877V843.663C114.298 842.53 114.365 841.347 114.481 839.964C114.515 839.647 114.548 839.347 114.581 839.047V838.847C114.715 837.964 114.848 837.114 114.998 836.248L115.048 835.998C115.098 835.698 115.164 835.398 115.231 835.098C115.498 833.881 115.781 832.798 116.081 831.798C116.164 831.532 116.248 831.282 116.348 831.032L116.447 830.765C116.714 829.999 116.981 829.265 117.264 828.532C117.364 828.282 117.481 828.032 117.581 827.782C116.998 827.649 116.481 827.532 115.981 827.399C115.198 827.199 114.431 826.982 113.665 826.749C113.048 826.566 112.448 826.383 111.865 826.183C111.115 825.933 110.365 825.683 109.615 825.416C109.116 825.233 108.632 825.049 108.149 824.849L107.666 824.666C106.982 824.4 106.316 824.133 105.649 823.833C105.266 823.666 104.883 823.483 104.5 823.3L104.066 823.1C102.533 822.383 101.05 821.6 99.6171 820.8L99.2505 820.6C98.9839 820.467 98.7336 820.317 98.4837 820.167C97.9337 819.834 97.3839 819.484 96.8339 819.134L96.1842 818.717C95.7676 818.451 95.3677 818.201 94.9678 817.934C94.3179 817.501 93.6844 817.034 93.0512 816.584C92.5679 816.218 92.0682 815.868 91.585 815.484C90.9684 815.001 90.3683 814.518 89.7684 814.035C89.2852 813.635 88.8188 813.235 88.3522 812.818C87.7857 812.318 87.2024 811.802 86.6358 811.285C86.2192 810.902 85.836 810.518 85.4361 810.135L85.0695 809.785C84.5862 809.319 84.1195 808.852 83.6529 808.369C83.3363 808.035 83.0529 807.719 82.753 807.386L82.4198 807.019C81.4199 805.919 80.4535 804.803 79.5369 803.67L79.2037 803.27C78.9205 802.92 78.6372 802.586 78.3705 802.22C77.9873 801.72 77.6204 801.203 77.2371 800.687L76.9873 800.353C76.554 799.77 76.2042 799.287 75.8709 798.787C75.421 798.137 75.0044 797.487 74.5878 796.837C74.2378 796.287 73.871 795.721 73.5211 795.154C73.1211 794.504 72.7213 793.838 72.338 793.171C72.0047 792.588 71.6717 791.988 71.3551 791.405C70.9718 790.705 70.6049 790.038 70.255 789.339C69.9884 788.822 69.7385 788.305 69.4885 787.772L69.1386 787.056C68.872 786.506 68.6054 785.939 68.3388 785.373C68.1222 784.873 67.9053 784.373 67.6887 783.856L67.4722 783.34C66.939 782.056 66.4225 780.773 65.9393 779.457L65.7391 778.94C65.5392 778.424 65.3557 777.89 65.1724 777.357C64.9724 776.757 64.7727 776.141 64.5727 775.524L64.4393 775.108C64.2227 774.424 64.0062 773.724 63.7896 773.008C63.5729 772.241 63.3561 771.475 63.1561 770.692C62.9728 769.992 62.7898 769.275 62.6065 768.559C62.4065 767.759 62.2398 766.976 62.0565 766.192C61.8898 765.459 61.7565 764.726 61.6065 763.993L61.5731 763.809C61.4232 763.076 61.2898 762.343 61.1565 761.593C61.0399 760.943 60.94 760.277 60.84 759.593L60.7066 758.71C60.6233 758.11 60.5234 757.51 60.4401 756.91C60.3401 756.111 60.2565 755.277 60.1732 754.461L60.1232 754.044C59.9899 752.761 59.89 751.478 59.79 750.178L59.7566 749.678C59.7066 748.995 59.6569 748.312 59.6236 747.629C59.5903 747.012 59.5735 746.379 59.5569 745.729V745.146C59.5235 744.329 59.5068 743.513 59.4901 742.696C59.4901 741.863 59.4902 741.013 59.5068 740.163C59.5068 739.347 59.5402 738.513 59.5735 737.697C59.6069 736.847 59.6403 735.997 59.6903 735.131C59.7403 734.297 59.8067 733.448 59.8734 732.598L59.9067 732.248C59.9567 731.515 60.0236 730.781 60.0902 730.048L60.1399 729.548L60.4568 726.349H60.5235C61.0401 722.216 61.7563 718.133 62.6394 714.184L74.7542 659.926C68.8385 662.143 62.6897 663.276 56.6073 663.276C41.4931 663.276 28.012 656.26 19.6301 644.029L16.9803 640.179C1.11624 617.066 7.49858 581.672 31.1781 561.276L125.446 480.122C136.045 467.874 149.709 458.659 164.39 453.626C119.18 433.546 67.9888 398.019 52.4914 337.462C45.0759 308.5 46.7756 276.938 57.5072 243.627C25.4458 221.281 9.86468 159.474 5.99864 107.816C3.34907 72.388 5.69874 26.6121 21.0463 14.1808C30.3781 6.61537 50.7917 5.03229 66.2725 5.03229C114.765 5.03229 198.451 20.963 236.245 56.2907C262.541 47.1588 289.536 42.5429 316.548 42.5429C319.265 42.5429 322.014 42.5929 324.73 42.6762C351.709 43.6094 378.972 49.1585 405.818 59.1735C441.578 22.2462 529.331 5.01562 578.723 5.01562C594.204 5.01562 614.6 6.5987 623.949 14.1641C641.762 28.5785 643.262 88.2521 635.63 137.078C631.231 165.223 617 231.662 579.206 248.326C581.105 258.375 582.172 268.423 582.339 278.271C583.039 317.532 570.191 357.442 545.178 393.669C528.014 418.532 505.685 438.712 478.672 453.826C496.386 460.042 512.484 472.323 523.332 488.271L611.484 563.992C635.73 584.822 642.596 620.583 626.765 643.729L624.132 647.595C616.85 658.26 605.619 664.892 592.504 666.292C592.154 666.325 590.921 666.442 590.921 666.442C590.487 666.475 590.071 666.508 589.637 666.542C588.788 666.592 587.888 666.608 586.971 666.608C580.789 666.608 574.54 665.442 568.491 663.209L572.69 682.023L572.307 681.973L579.489 714.151C590.521 763.576 571.39 809.635 534.663 824.549C537.829 830.415 539.479 836.898 539.479 843.63V858.844C539.479 881.224 521.265 899.437 498.869 899.437H376.955V899.471Z" fill="white"/>
<path d="M66.2565 10.0317C118.581 10.0317 201.401 28.1954 234.979 62.04C260.808 52.7248 288.27 47.5423 316.533 47.5423C319.199 47.5423 321.865 47.5923 324.548 47.6756C352.76 48.6588 380.722 54.8078 407.201 65.0561C438.713 29.2786 524.899 10.0317 578.74 10.0317C598.637 10.0317 614.135 12.6646 620.817 18.0637C648.479 40.4601 636.831 220.664 575.474 244.477C574.807 244.727 574.141 244.96 573.458 245.194C575.807 256.159 577.14 267.24 577.324 278.388C578.34 335.629 549.445 378.689 541.046 390.853C519.883 421.515 492.871 441.862 464.875 455.393C486.538 459.159 506.919 472.757 519.567 491.654L608.235 567.808C630.548 586.972 637.047 619.883 622.65 640.93L620.017 644.796C613.301 654.627 603.153 660.16 591.988 661.343C591.638 661.376 591.288 661.426 590.921 661.46C590.421 661.493 589.922 661.56 589.422 661.576C588.622 661.626 587.805 661.643 586.989 661.643C578.524 661.643 569.658 659.227 561.393 654.327L566.309 676.324C566.175 676.324 566.042 676.29 565.909 676.274L574.624 715.284C585.772 765.243 565.226 810.702 527.032 821.967C531.698 827.983 534.497 835.515 534.497 843.663V858.878C534.497 878.458 518.483 894.472 498.903 894.472H376.99C357.409 894.472 341.395 878.458 341.395 858.878V843.663C341.395 836.681 343.462 830.166 346.978 824.65H306.851C310.367 830.166 312.433 836.681 312.433 843.663V858.878C312.433 878.458 296.419 894.472 276.839 894.472H154.925C135.345 894.472 119.331 878.458 119.331 858.878V843.663C119.331 842.564 119.398 841.497 119.498 840.414C119.531 840.081 119.565 839.764 119.615 839.431C119.715 838.664 119.814 837.914 119.964 837.164C120.031 836.831 120.081 836.481 120.164 836.148C120.381 835.165 120.614 834.198 120.914 833.248C121.014 832.932 121.131 832.648 121.231 832.332C121.448 831.682 121.681 831.032 121.947 830.399C122.131 829.966 122.314 829.532 122.497 829.116C122.731 828.616 122.964 828.116 123.214 827.633C123.43 827.199 123.647 826.766 123.88 826.349C124.314 825.583 124.78 824.816 125.263 824.083C124.48 823.983 123.731 823.85 122.964 823.717C122.381 823.617 121.781 823.533 121.198 823.417C120.448 823.267 119.714 823.1 118.981 822.933C118.398 822.8 117.831 822.667 117.248 822.517C116.531 822.333 115.815 822.133 115.099 821.917C114.532 821.75 113.982 821.584 113.432 821.4C112.732 821.167 112.033 820.934 111.349 820.684C110.816 820.484 110.282 820.267 109.749 820.067C109.066 819.801 108.383 819.517 107.7 819.234C107.2 819.017 106.717 818.784 106.233 818.551C104.834 817.884 103.467 817.184 102.117 816.418C101.767 816.218 101.417 816.034 101.084 815.835C100.451 815.451 99.8345 815.051 99.2179 814.651C98.7513 814.351 98.2846 814.068 97.818 813.752C97.2181 813.352 96.6347 812.918 96.0515 812.502C95.5849 812.168 95.1353 811.835 94.6853 811.485C94.1188 811.052 93.5522 810.602 93.0023 810.135C92.5523 809.769 92.119 809.402 91.6858 809.019C91.1525 808.552 90.6027 808.069 90.0861 807.586C89.6695 807.186 89.2529 806.786 88.8363 806.369C88.3197 805.87 87.8028 805.37 87.3029 804.836C86.903 804.42 86.5365 803.987 86.1532 803.57C85.2367 802.553 84.3366 801.52 83.4701 800.437C83.1035 799.987 82.7371 799.554 82.3871 799.087C81.9539 798.521 81.5206 797.921 81.104 797.337C80.754 796.838 80.3876 796.354 80.0377 795.854C79.6211 795.255 79.2378 794.655 78.8379 794.038C78.5046 793.521 78.1712 792.988 77.8379 792.455C77.4546 791.838 77.0882 791.205 76.7215 790.572C76.4049 790.022 76.0882 789.472 75.7883 788.906C75.4383 788.272 75.0882 787.622 74.7549 786.973C74.4549 786.389 74.1883 785.806 73.905 785.223C73.5884 784.556 73.2721 783.906 72.9555 783.24C72.6722 782.607 72.4056 781.957 72.139 781.323C71.639 780.124 71.1556 778.891 70.689 777.657C70.439 776.991 70.1892 776.341 69.9559 775.658C69.7226 774.958 69.4894 774.241 69.2728 773.525C69.0562 772.858 68.856 772.208 68.656 771.542C68.4394 770.825 68.2393 770.092 68.056 769.342C67.8727 768.659 67.7063 767.992 67.5397 767.309C67.3564 766.559 67.1896 765.826 67.023 765.059C66.873 764.36 66.723 763.66 66.5897 762.96C66.4397 762.21 66.2897 761.443 66.1564 760.677C66.0231 759.944 65.9232 759.21 65.8066 758.477C65.6899 757.727 65.5733 756.977 65.4734 756.211C65.3567 755.311 65.2731 754.378 65.1731 753.461C65.0398 752.245 64.9399 751.012 64.8566 749.762C64.8066 748.945 64.7398 748.145 64.7065 747.312C64.6731 746.529 64.6568 745.729 64.6402 744.929C64.6235 744.146 64.6068 743.38 64.5901 742.596C64.5901 741.797 64.5901 740.98 64.6068 740.163C64.6068 739.38 64.6402 738.597 64.6735 737.797C64.7069 736.981 64.7399 736.164 64.7899 735.348C64.8399 734.548 64.89 733.731 64.9567 732.931C65.0233 732.115 65.0731 731.298 65.1564 730.482C65.1564 730.315 65.1731 730.148 65.1898 729.982C65.6897 725.116 66.4566 720.183 67.573 715.218L81.9372 650.878C73.8218 655.794 65.0734 658.227 56.6581 658.227C43.7102 658.227 31.5622 652.461 23.7968 641.163L21.147 637.313C6.73271 616.284 12.7318 583.755 34.4949 565.025L129.046 483.638C142.311 468.174 161.024 457.476 180.571 454.893C123.247 432.613 72.4387 395.003 57.3912 336.196C48.5593 301.651 54.3082 268.54 63.5401 241.494C7.51582 208.6 -2.46561 39.6769 24.2634 18.0304C30.929 12.6313 46.4265 9.99838 66.3399 9.99838M66.2565 0.0333287C42.577 0.0333287 26.2963 3.48277 17.881 10.2983C10.0322 16.6473 4.86646 29.3452 2.10024 49.1087C-0.266041 65.8893 -0.632909 86.3194 1.00016 108.199C3.23313 138.044 9.09909 167.523 17.4977 191.186C26.4629 216.448 37.9278 234.679 51.6589 245.51C41.5938 278.488 40.2438 309.8 47.6259 338.695C59.8906 386.654 95.7683 425.948 151.976 453.377C140.711 458.926 130.379 466.824 121.897 476.556L27.9127 557.476C2.35019 579.473 -4.39879 617.85 12.8484 642.996L15.4981 646.845C24.83 660.46 39.8107 668.258 56.5913 668.258C60.4074 668.258 64.2403 667.859 68.023 667.059L57.7577 713.085C57.1412 715.817 56.6247 718.6 56.1747 721.417L55.9579 721.45L55.1747 728.999C55.1581 729.182 55.1414 729.349 55.1247 729.532C55.0414 730.315 54.9916 731.082 54.9249 731.848L54.8916 732.181C54.8249 733.065 54.7581 733.931 54.7081 734.798C54.6581 735.698 54.6251 736.581 54.5917 737.464C54.5584 738.314 54.5417 739.164 54.525 740.03C54.525 740.897 54.4917 741.797 54.5083 742.663C54.5083 743.463 54.5251 744.263 54.5584 745.079V745.213V745.729C54.5584 746.412 54.5918 747.112 54.6251 747.796C54.6584 748.545 54.7081 749.295 54.7581 750.045L54.7915 750.462C54.8915 751.812 54.9914 753.178 55.1414 754.495L55.1914 754.911C55.2747 755.778 55.375 756.644 55.475 757.494C55.5583 758.127 55.6582 758.777 55.7581 759.41L55.8415 759.977L55.8916 760.36C55.9916 761.043 56.0914 761.727 56.2081 762.393C56.3581 763.226 56.5081 764.06 56.6747 764.893C56.8247 765.676 56.9914 766.443 57.1581 767.209C57.3414 768.026 57.5244 768.859 57.7244 769.675C57.9077 770.442 58.1078 771.192 58.3078 771.925C58.5244 772.742 58.7409 773.541 58.9742 774.341C59.1741 775.008 59.3743 775.674 59.5909 776.341L59.6577 776.541L59.8074 776.991C60.0073 777.624 60.2075 778.257 60.4241 778.891C60.6241 779.474 60.8405 780.057 61.0572 780.624L61.2407 781.107C61.7572 782.49 62.2904 783.856 62.857 785.189L63.0734 785.689C63.3067 786.239 63.5403 786.789 63.7736 787.322C64.0402 787.922 64.3235 788.522 64.6235 789.106L64.8399 789.539L64.9567 789.772C65.24 790.355 65.5066 790.939 65.8066 791.505C66.1898 792.238 66.573 792.955 66.9563 793.672C67.3062 794.305 67.6397 794.921 68.0063 795.538C68.4229 796.254 68.8395 796.954 69.2728 797.654C69.6394 798.254 70.0226 798.837 70.4058 799.437C70.8558 800.12 71.3058 800.82 71.7724 801.487C72.1057 801.97 72.4554 802.453 72.8053 802.937L72.9888 803.187L73.2553 803.553C73.6552 804.103 74.0385 804.636 74.4551 805.17C74.755 805.553 75.0717 805.953 75.3883 806.336L75.6882 806.703C76.6714 807.902 77.7047 809.119 78.7545 810.269L79.0877 810.635C79.421 811.002 79.7544 811.369 80.0877 811.719C80.5876 812.235 81.0874 812.735 81.604 813.235L81.8371 813.468L82.0372 813.668C82.4538 814.068 82.8704 814.485 83.287 814.868C83.8869 815.418 84.5033 815.968 85.1198 816.518C85.6198 816.951 86.1199 817.384 86.6365 817.801C87.2698 818.334 87.9195 818.851 88.5861 819.351C89.1193 819.751 89.6358 820.151 90.1691 820.534C90.8523 821.034 91.5188 821.517 92.2187 821.984C92.652 822.267 93.0853 822.55 93.5185 822.833L93.8355 823.033L94.1853 823.267C94.7852 823.65 95.3849 824.033 96.0015 824.4C96.3181 824.583 96.6181 824.75 96.9347 824.916L97.2012 825.066C98.7343 825.933 100.334 826.766 101.967 827.533L102.367 827.733C102.8 827.933 103.217 828.149 103.667 828.333C104.367 828.649 105.084 828.932 105.817 829.216L106.05 829.316L106.233 829.399C106.783 829.616 107.333 829.832 107.9 830.049C108.7 830.349 109.516 830.615 110.333 830.882C110.583 830.965 110.832 831.049 111.099 831.132C110.849 832.032 110.616 832.965 110.383 833.982C110.299 834.348 110.233 834.698 110.183 835.048L110.132 835.281C109.949 836.248 109.8 837.231 109.683 838.198L109.65 838.414C109.616 838.764 109.566 839.097 109.533 839.447C109.399 840.98 109.333 842.347 109.333 843.63V858.844C109.333 883.99 129.796 904.437 154.925 904.437H276.839C301.985 904.437 322.432 883.974 322.432 858.844V843.63C322.432 840.597 322.132 837.564 321.515 834.615H332.313C331.713 837.564 331.397 840.581 331.397 843.63V858.844C331.397 883.99 351.86 904.437 376.99 904.437H498.903C524.049 904.437 544.496 883.974 544.496 858.844V843.63C544.496 837.864 543.429 832.282 541.346 827.033C557.393 819.117 570.325 805.32 578.457 787.189C588.122 765.593 590.238 739.28 584.389 713.068L578.74 687.722L579.14 687.772L576.091 674.107L575.257 670.358C579.157 671.191 583.106 671.608 587.022 671.608C588.005 671.608 588.989 671.575 589.972 671.525C590.455 671.508 590.938 671.458 591.421 671.425L591.771 671.391H591.821H591.871C592.288 671.358 592.721 671.308 593.138 671.258C607.702 669.692 620.2 662.293 628.316 650.411L630.948 646.545C648.162 621.366 640.913 582.622 614.801 560.193L527.132 484.905C517.683 471.24 504.569 460.159 489.855 453.06C513.667 438.246 533.614 419.282 549.328 396.519C574.941 359.425 588.089 318.498 587.372 278.188C587.205 269.29 586.356 260.225 584.822 251.159C598.67 243.744 610.602 229.48 620.383 208.683C629.349 189.586 636.347 165.09 640.613 137.861C644.763 111.299 646.046 84.0031 644.229 61.0068C642.163 34.8444 636.414 17.7805 627.149 10.2817C618.733 3.46611 602.469 0.0166675 578.79 0.0166675C549.578 0.0166675 513.351 5.43245 481.872 14.4977C457.376 21.5632 424.999 33.8778 404.602 53.3747C378.223 43.8762 351.46 38.5938 324.948 37.6606C322.182 37.5606 319.365 37.5106 316.583 37.5106C289.987 37.5106 263.391 41.9099 237.462 50.5751C197.652 15.7308 114.699 0 66.3232 0L66.2565 0.0333287Z" fill="black"/>
<path d="M620.35 18.0635C648.012 40.4598 636.364 220.664 575.007 244.477C504.435 271.889 375.489 157.941 396.053 83.8362C413.516 20.8797 592.688 -4.33291 620.35 18.0635Z" fill="#353535"/>
<path d="M276.338 808.053H154.407C134.749 808.053 118.813 823.989 118.813 843.647V858.878C118.813 878.536 134.749 894.472 154.407 894.472H276.338C295.996 894.472 311.932 878.536 311.932 858.878V843.647C311.932 823.989 295.996 808.053 276.338 808.053Z" fill="white"/>
<path d="M498.419 808.053H376.489C356.83 808.053 340.895 823.989 340.895 843.647V858.878C340.895 878.536 356.83 894.472 376.489 894.472H498.419C518.077 894.472 534.013 878.536 534.013 858.878V843.647C534.013 823.989 518.077 808.053 498.419 808.053Z" fill="#353535"/>
<path d="M188.452 559.825L89.0681 645.378C67.305 664.108 37.7098 662.242 23.2788 641.212L20.6291 637.363C6.21477 616.333 12.2138 583.805 33.977 565.075L133.361 479.522C155.124 460.791 184.719 462.658 199.15 483.688L201.8 487.537C216.214 508.567 210.215 541.095 188.452 559.825Z" fill="#FFDC83"/>
<path d="M450.494 560.66L552.428 648.212C574.741 667.376 604.786 665.843 619.167 644.796L621.8 640.93C636.198 619.883 629.699 586.972 607.386 567.808L505.452 480.256C483.139 461.092 453.094 462.625 438.713 483.672L436.08 487.538C421.682 508.585 428.181 541.496 450.494 560.66Z" fill="white"/>
<path d="M507.683 824.65H133.511C83.5353 824.65 54.1736 772.925 67.0548 715.267L111.131 517.799C119.163 481.788 154.041 454.31 189.152 454.31H452.043C487.154 454.31 522.031 481.788 530.063 517.799L574.139 715.267C587.004 772.925 557.659 824.65 507.683 824.65Z" fill="white"/>
<path d="M576.874 278.388C577.891 335.629 548.995 378.689 540.597 390.853C477.307 482.538 361.676 482.172 324.098 482.055C236.829 481.772 84.8702 445.694 56.8748 336.229C41.1773 274.905 71.4557 218.131 85.6034 191.619C130.213 107.966 222.665 44.1427 324.115 47.6755C451.961 52.1248 574.841 162.84 576.891 278.388H576.874Z" fill="white"/>
<mask id="mask0_1128_7579" style="mask-type:luminance" maskUnits="userSpaceOnUse" x="52" y="47" width="525" height="436">
<path d="M576.874 278.388C577.891 335.629 548.995 378.689 540.597 390.853C477.307 482.538 361.676 482.172 324.098 482.055C236.829 481.772 84.8702 445.694 56.8748 336.229C41.1773 274.905 71.4557 218.131 85.6034 191.619C130.213 107.966 222.665 44.1427 324.115 47.6755C451.961 52.1248 574.841 162.84 576.891 278.388H576.874Z" fill="white"/>
</mask>
<g mask="url(#mask0_1128_7579)">
<path d="M400.735 28.8954C391.67 49.4254 390.07 72.2051 394.553 94.0849C399.119 116.381 409.734 137.345 424.264 154.808C439.712 173.372 460.076 187.453 481.972 197.368C505.068 207.833 529.864 213.832 554.977 216.915C567.342 218.431 579.823 219.281 592.271 219.381C603.302 219.481 614.434 218.731 625.232 216.398C636.03 214.065 645.729 210.333 654.161 203.9C662.676 197.418 669.075 188.486 671.975 178.138C677.974 156.625 669.091 132.962 654.644 116.848C637.913 98.1842 613.184 88.6524 589.754 81.6536C576.273 77.6209 562.626 74.1214 549.044 70.422C534.197 66.3894 519.366 62.3733 504.518 58.3407C474.707 50.2586 444.894 42.16 415.083 34.0779C407.867 32.1116 400.652 30.1619 393.419 28.1956C390.303 27.3457 388.987 32.1782 392.087 33.0114C420.832 40.8102 449.577 48.6089 478.323 56.4076C507.068 64.2064 535.813 72.0051 564.559 79.8039C588.472 86.2861 613.251 92.4185 634.23 106.15C652.594 118.164 666.925 137.345 668.675 159.774C669.475 170.089 667.309 180.404 661.51 189.053C655.877 197.451 647.378 203.484 638.097 207.25C617.817 215.499 594.887 215.032 573.424 213.599C549.011 211.982 524.648 207.8 501.502 199.751C478.972 191.936 457.343 180.221 439.812 163.907C423.848 149.043 411.4 130.212 404.118 109.632C396.986 89.4523 394.753 67.3059 399.969 46.3926C401.252 41.2601 402.951 36.2109 405.084 31.3617C406.367 28.4455 402.068 25.8959 400.769 28.8454L400.735 28.8954Z" fill="white"/>
<path d="M416.2 36.2444C387.921 59.124 376.923 99.4175 384.622 134.978C392.32 170.523 416.633 201.068 446.711 221.498C476.807 241.944 512.317 253.093 548.111 259.575C560.176 261.758 573.024 263.374 584.372 258.725C598.07 253.143 606.802 239.561 612.418 225.88C627.365 189.52 625.899 146.76 608.485 111.499C591.071 76.2379 557.993 49.109 520.016 38.894C486.955 30.0121 451.977 33.5948 417.933 37.2609" fill="#353535"/>
</g>
<path d="M23.7289 18.0635C-3.93325 40.4598 7.7148 220.664 69.0715 244.477C139.643 271.889 268.589 157.941 248.026 83.8362C230.562 20.8797 51.3911 -4.33291 23.7289 18.0635Z" fill="#FFDC83"/>
<path d="M55.3064 50.3247C40.5921 62.2394 46.791 158.107 79.4191 170.789C116.963 185.369 185.569 124.746 174.637 85.319C165.339 51.8244 70.0206 38.4099 55.3064 50.3247Z" fill="#FFBBD2"/>
<path d="M590.638 50.3247C605.352 62.2394 599.153 158.107 566.508 170.789C528.964 185.369 460.359 124.746 471.291 85.319C480.589 51.8244 575.907 38.4099 590.621 50.3247H590.638Z" fill="#FFBBD2"/>
<path d="M460.943 232.579C457.643 253.659 436.463 269.056 414.25 269.056C392.971 269.056 375.224 254.875 373.657 235.611" fill="#86C663"/>
<path d="M373.64 235.612C371.89 214.082 390.587 193.085 416.816 191.052C444.495 188.903 464.658 208.766 460.925 232.579" fill="#4D962C"/>
<path d="M184.402 232.579C187.702 253.659 208.882 269.056 231.095 269.056C252.375 269.056 270.122 254.875 271.688 235.611" fill="#86C663"/>
<path d="M271.689 235.612C273.438 214.082 254.741 193.085 228.512 191.052C200.833 188.903 180.67 208.766 184.402 232.579" fill="#4D962C"/>
<path d="M415.566 261.374C430.033 261.374 441.762 248.407 441.762 232.412C441.762 216.417 430.033 203.45 415.566 203.45C401.098 203.45 389.37 216.417 389.37 232.412C389.37 248.407 401.098 261.374 415.566 261.374Z" fill="black"/>
<path d="M439.695 231.612C444.288 231.612 448.01 227.889 448.01 223.297C448.01 218.704 444.288 214.981 439.695 214.981C435.103 214.981 431.38 218.704 431.38 223.297C431.38 227.889 435.103 231.612 439.695 231.612Z" fill="white"/>
<path d="M227.813 261.374C242.28 261.374 254.009 248.407 254.009 232.412C254.009 216.417 242.28 203.45 227.813 203.45C213.345 203.45 201.617 216.417 201.617 232.412C201.617 248.407 213.345 261.374 227.813 261.374Z" fill="black"/>
<path d="M246.393 231.612C250.986 231.612 254.709 227.889 254.709 223.297C254.709 218.704 250.986 214.981 246.393 214.981C241.801 214.981 238.078 218.704 238.078 223.297C238.078 227.889 241.801 231.612 246.393 231.612Z" fill="white"/>
<path d="M331.746 247.143C300.584 244.693 280.155 281.687 286.304 296.335C294.686 316.298 361.425 316.148 370.257 294.735C376.172 280.404 359.125 249.293 331.763 247.143H331.746Z" fill="#FFDC83"/>
<path d="M344.528 265.406C345.678 270.405 337.379 278.321 328.714 278.537C319.516 278.771 310.634 270.289 311.783 265.173C312.9 260.29 323.148 258.657 329.381 258.941C333.597 259.141 343.412 260.54 344.528 265.39V265.406Z" fill="#FFBBD2"/>
<path d="M607.768 567.808L519.099 491.654C504.151 469.307 478.355 454.31 452.426 454.31H398.485C379.055 513.7 401.418 582.722 447.577 624.949C479.905 654.51 522.115 671.474 565.825 676.307L560.859 654.027C581.889 666.742 606.835 663.392 619.549 644.779L622.182 640.913C636.58 619.866 630.081 586.955 607.768 567.791V567.808Z" fill="#353535"/>
<path d="M190.852 763.543C162.424 740.897 125.846 729.632 89.5021 728.882C81.1868 728.715 72.8883 729.115 64.6396 730.049C59.7404 778.091 84.2528 818.934 124.73 824.1C120.997 829.732 118.814 836.448 118.814 843.68V858.894C118.814 878.475 134.828 894.489 154.408 894.489H235.845C239.178 882.291 240.828 869.726 240.294 856.995C238.795 820.684 219.248 786.206 190.836 763.56L190.852 763.543Z" fill="#FFDC83"/>
</svg>
