<svg width="895" height="967" viewBox="0 0 895 967" fill="none" xmlns="http://www.w3.org/2000/svg">
<path d="M491.448 961.744C469.069 961.744 450.855 943.53 450.855 921.151V905.936C450.855 901.137 451.721 896.405 453.388 891.922H429.358C431.025 896.405 431.891 901.137 431.891 905.936V921.151C431.891 943.53 413.678 961.744 391.298 961.744H269.384C247.005 961.744 228.774 943.53 228.774 921.151V905.936C228.774 900.454 229.891 895.072 232.024 890.072C215.343 886.223 201.179 876.474 190.73 861.61C175 839.214 170.05 808.186 177.116 776.474L189.231 722.216C183.315 724.432 177.166 725.566 171.083 725.566C155.969 725.566 142.488 718.55 134.106 706.319L131.457 702.469C115.609 679.356 121.975 643.962 145.654 623.565L239.922 542.412C250.921 529.681 265.018 520.332 280.166 515.45C233.99 497.303 182.448 465.358 166.784 410.85C158.202 380.971 161.702 348.093 177.182 312.999C174.8 313.099 172.417 313.149 170.034 313.149C105.311 313.149 29.4564 275.888 9.67629 204.667C0.92771 173.138 4.47714 139.194 19.9413 106.483C45.8871 51.6581 99.845 12.1812 157.419 5.91554C162.985 5.31564 168.684 4.99902 174.366 4.99902C214.027 4.99902 254.837 19.8799 286.331 45.8257C319.726 73.338 339.34 110.082 341.539 149.309C341.773 153.358 341.806 157.441 341.656 161.54C371.251 151.142 401.763 145.876 432.441 145.876C435.157 145.876 437.924 145.926 440.623 146.01C478.45 147.176 517.327 156.558 553.655 173.222C552.655 165.29 552.372 157.274 552.822 149.326C555.021 110.099 574.635 73.3546 608.029 45.8424C639.541 19.8966 680.351 5.01569 719.995 5.01569C725.677 5.01569 731.376 5.31564 736.942 5.93221C788.35 11.5313 837.892 44.226 866.221 91.2517C888.267 127.846 894.816 168.123 884.668 204.683C864.888 275.905 789.033 313.166 724.311 313.166C713.212 313.166 702.247 312.133 691.699 310.083C691.383 310.016 691.049 309.95 690.733 309.883C696.465 325.797 699.515 341.794 699.831 357.559C700.548 392.953 687.55 428.88 662.271 461.475C644.573 484.305 621.444 502.718 593.398 516.349C610.846 522.632 626.66 534.797 637.408 550.577L725.56 626.298C749.806 647.128 756.672 682.889 740.841 706.035L738.208 709.902C729.943 721.983 716.545 728.915 701.448 728.915C695.115 728.915 688.7 727.699 682.517 725.349L693.932 776.457C704.964 825.883 685.833 871.942 649.106 886.856C652.272 892.722 653.922 899.204 653.922 905.936V921.151C653.922 943.53 635.708 961.744 613.328 961.744H491.415H491.448Z" fill="white"/>
<path d="M720.011 9.99838C725.494 9.99838 730.976 10.2817 736.425 10.8816C788.917 16.5973 835.676 50.1752 861.972 93.8015C882.035 127.079 890.184 166.206 879.886 203.317C861.822 268.39 792.3 308.15 724.344 308.15C713.679 308.15 703.064 307.167 692.682 305.167C689.333 304.517 685.984 303.734 682.651 302.868C690.183 320.648 694.499 339.078 694.865 357.659C695.899 408.934 666.803 447.511 658.355 458.409C636.242 486.921 607.796 505.485 578.484 517.566C600.331 521.216 620.927 534.897 633.659 553.927L722.328 630.081C744.641 649.245 751.14 682.156 736.742 703.203L734.109 707.069C726.477 718.234 714.429 723.916 701.481 723.916C692.849 723.916 683.817 721.4 675.419 716.317L689.083 777.557C700.231 827.516 679.685 872.975 641.491 884.24C646.157 890.256 648.956 897.788 648.956 905.937V921.151C648.956 940.731 632.942 956.745 613.362 956.745H491.448C471.868 956.745 455.854 940.731 455.854 921.151V905.937C455.854 898.954 457.921 892.439 461.437 886.923H421.31C424.826 892.439 426.892 898.954 426.892 905.937V921.151C426.892 940.731 410.878 956.745 391.298 956.745H269.384C249.804 956.745 233.79 940.731 233.79 921.151V905.937C233.79 898.721 235.973 891.989 239.706 886.356C195.13 880.674 169.917 831.732 182.015 777.541L196.38 713.201C188.264 718.117 179.516 720.55 171.1 720.55C158.152 720.55 146.004 714.784 138.239 703.486L135.589 699.637C121.175 678.607 127.174 646.079 148.937 627.348L243.489 545.962C257.553 529.548 277.766 518.516 298.58 516.833C239.656 497.019 187.014 463.058 171.617 409.484C160.485 370.757 172.333 334.079 185.281 307.484C180.232 307.933 175.15 308.167 170.067 308.167C102.111 308.167 32.6061 268.407 14.5257 203.35C5.71042 171.622 10.4097 138.411 24.4907 108.649C48.4368 57.9406 99.6785 17.2305 157.969 10.8816C163.418 10.2817 168.901 9.99838 174.383 9.99838C252.754 9.99838 332.058 69.2888 336.573 149.576C336.94 156.108 336.79 162.54 336.174 168.856C366.219 157.391 398.78 150.859 432.458 150.859C435.124 150.859 437.807 150.892 440.49 150.976C482.233 152.275 523.443 163.59 560.154 181.821C558.054 171.422 557.204 160.641 557.821 149.559C562.32 69.2721 641.641 9.98172 720.011 9.98172M720.011 0C679.218 0 637.241 15.2975 604.863 41.9599C570.369 70.3553 550.122 108.382 547.839 149.026C547.539 154.408 547.556 159.807 547.889 165.19C513.245 150.426 476.567 142.11 440.79 141.01C438.024 140.927 435.208 140.877 432.441 140.877C403.513 140.877 374.751 145.476 346.722 154.542C346.689 152.692 346.622 150.859 346.522 149.026C344.239 108.399 323.992 70.3719 289.498 41.9765C257.136 15.2975 215.16 0 174.366 0C168.501 0 162.618 0.316615 156.869 0.949846C97.6122 7.3988 42.0879 47.9922 15.4255 104.35C-0.555236 138.144 -4.20465 173.305 4.87722 206C14.1424 239.345 36.0222 267.89 68.167 288.537C97.7622 307.55 133.756 318.048 169.601 318.132C156.219 351.643 153.653 383.238 161.985 412.217C174.416 455.476 210.461 490.771 266.935 515.383C255.537 520.916 245.055 528.881 236.39 538.846L142.405 619.766C116.842 641.763 110.093 680.14 127.341 705.286L129.99 709.135C139.322 722.75 154.303 730.548 171.084 730.548C174.9 730.548 178.732 730.148 182.515 729.349L172.25 775.374C164.868 808.452 170.117 840.93 186.648 864.477C196.53 878.541 210.044 888.539 225.541 893.455C224.375 897.488 223.792 901.687 223.792 905.937V921.151C223.792 946.297 244.255 966.743 269.384 966.743H391.298C416.444 966.743 436.891 946.28 436.891 921.151V905.937C436.891 902.904 436.591 899.871 435.974 896.921H446.772C446.172 899.871 445.856 902.887 445.856 905.937V921.151C445.856 946.297 466.319 966.743 491.448 966.743H613.362C638.508 966.743 658.955 946.28 658.955 921.151V905.937C658.955 900.171 657.888 894.588 655.805 889.339C671.852 881.424 684.784 867.626 692.899 849.496C702.564 827.899 704.68 801.587 698.831 775.374L689.283 732.565C693.332 733.448 697.415 733.914 701.481 733.914C718.262 733.914 733.159 726.182 742.358 712.718L744.991 708.852C762.205 683.673 754.956 644.929 728.843 622.499L641.174 547.211C631.959 533.88 619.311 523.049 605.113 515.933C629.609 502.552 650.106 485.338 666.237 464.525C692.216 431.014 705.564 393.986 704.847 357.442C704.581 343.794 702.314 329.997 698.132 316.232C706.697 317.499 715.479 318.148 724.327 318.148C760.322 318.148 796.499 307.634 826.211 288.553C858.356 267.907 880.235 239.361 889.501 206C900.032 168.106 893.283 126.43 870.52 88.6523C856.539 65.4727 837.209 45.126 814.613 29.8452C790.967 13.8644 764.304 3.86604 737.508 0.949846C731.759 0.316615 725.877 0 720.011 0Z" fill="black"/>
<path d="M390.015 870.326H268.084C248.426 870.326 232.49 886.262 232.49 905.92V921.151C232.49 940.809 248.426 956.745 268.084 956.745H390.015C409.673 956.745 425.609 940.809 425.609 921.151V905.92C425.609 886.262 409.673 870.326 390.015 870.326Z" fill="#F7F7F7"/>
<path d="M612.096 870.326H490.166C470.507 870.326 454.571 886.262 454.571 905.92V921.151C454.571 940.809 470.507 956.745 490.166 956.745H612.096C631.754 956.745 647.69 940.809 647.69 921.151V905.92C647.69 886.262 631.754 870.326 612.096 870.326Z" fill="#F7F7F7"/>
<path d="M302.112 622.099L202.728 707.652C180.965 726.382 151.37 724.516 136.939 703.486L134.289 699.636C119.875 678.606 125.874 646.078 147.637 627.348L247.021 541.795C268.784 523.065 298.379 524.931 312.81 545.961L315.46 549.811C329.874 570.84 323.875 603.368 302.112 622.099Z" fill="#F7F7F7"/>
<path d="M564.171 622.933L666.105 710.485C688.418 729.649 718.463 728.116 732.844 707.069L735.477 703.203C749.874 682.157 743.375 649.245 721.062 630.082L619.129 542.529C596.816 523.366 566.771 524.899 552.39 545.945L549.757 549.812C535.359 570.858 541.858 603.769 564.171 622.933Z" fill="#F7F7F7"/>
<path d="M621.361 886.923H247.188C197.213 886.923 167.851 835.198 180.733 777.541L224.809 580.073C232.841 544.062 267.718 516.583 302.829 516.583H565.72C600.831 516.583 635.709 544.062 643.741 580.073L687.817 777.541C700.682 835.198 671.336 886.923 621.361 886.923Z" fill="#F6C6DB"/>
<path d="M126.958 54.624C210.261 45.5422 300.73 107.415 305.562 193.318C306.762 214.681 302.513 234.978 294.264 253.458C320.727 225.78 337.557 189.569 335.308 149.575C330.475 63.6726 240.006 1.79925 156.686 10.8811C98.3959 17.2301 47.1709 57.9402 23.1914 108.632C50.0371 79.6533 86.8144 58.99 126.941 54.624H126.958Z" fill="#F7F7F7"/>
<path d="M13.226 203.317C34.1227 278.588 123.875 319.998 200.429 305.15C235.04 298.435 269.018 279.821 294.247 253.459C302.496 234.978 306.745 214.682 305.545 193.318C300.729 107.416 210.261 45.5424 126.941 54.6243C86.8141 58.9902 50.0367 79.6536 23.1911 108.632C9.11004 138.394 4.42746 171.605 13.226 203.334V203.317Z" fill="#FAE0EB"/>
<path d="M589.799 189.819C594.615 103.916 685.084 42.0432 768.404 51.125C803.081 54.9077 835.276 70.8385 860.705 93.8181C834.41 50.1752 787.651 16.6139 735.159 10.8982C651.856 1.81634 561.387 63.6896 556.555 149.592C554.022 194.602 575.652 234.845 608.013 263.491C595.315 241.561 588.3 216.548 589.799 189.836V189.819Z" fill="#F7F7F7"/>
<path d="M878.602 203.317C888.9 166.206 880.752 127.079 860.688 93.8012C835.259 70.8383 803.064 54.8909 768.387 51.1082C685.083 42.0263 594.615 103.9 589.782 189.802C588.282 216.515 595.298 241.544 607.996 263.457C631.775 284.52 661.354 299.318 691.399 305.134C767.937 319.965 857.689 278.571 878.602 203.3V203.317Z" fill="#FAE0EB"/>
<path d="M693.583 357.659C694.616 408.934 665.521 447.511 657.072 458.409C593.383 540.529 477.035 540.213 439.208 540.096C351.389 539.846 198.48 507.535 170.301 409.467C154.52 354.526 184.982 303.684 199.197 279.938C244.089 205 337.107 147.843 439.191 150.992C567.837 154.975 691.483 254.142 693.55 357.659H693.583Z" fill="#F7F7F7"/>
<path d="M364.502 329.561C368.5 310.586 360.711 292.88 347.104 290.012C333.496 287.145 319.224 300.202 315.225 319.177C311.227 338.151 319.016 355.858 332.623 358.725C346.231 361.593 360.503 348.535 364.502 329.561Z" fill="#262727"/>
<path d="M530.403 358.748C544.011 355.88 551.8 338.174 547.801 319.199C543.803 300.225 529.531 287.167 515.923 290.035C502.316 292.902 494.527 310.609 498.525 329.583C502.524 348.558 516.796 361.615 530.403 358.748Z" fill="#262727"/>
<path d="M485.483 354.992C484.383 373.573 457.321 387.487 435.125 387.304C412.712 387.104 385.166 372.44 384.766 353.093C384.366 333.863 410.962 317.299 433.875 316.999C458.788 316.682 486.633 335.479 485.483 354.992Z" fill="#FAE0EB"/>
<path d="M447.189 338.095C446.939 342.645 440.206 345.978 434.774 345.978C429.341 345.978 422.626 342.628 422.359 338.095C422.093 333.413 428.775 328.897 434.774 328.897C440.773 328.897 447.439 333.413 447.189 338.095Z" fill="#ED83AC"/>
<path d="M529.109 350.194C521.977 351.543 513.778 346.444 513.795 341.878C513.828 337.529 521.327 334.296 525.926 333.33C530.592 332.346 538.708 332.313 540.441 336.213C542.307 340.412 536.558 348.794 529.109 350.194Z" fill="#F6C6DB"/>
<path d="M334.49 350.526C341.622 351.876 349.821 346.777 349.804 342.211C349.771 337.861 342.272 334.629 337.673 333.662C333.007 332.679 324.892 332.646 323.159 336.545C321.292 340.744 327.041 349.126 334.49 350.526Z" fill="#F6C6DB"/>
<path d="M533.158 315.649C533.408 316.649 534.658 321.615 531.525 325.747C531.109 326.297 528.942 329.047 525.043 329.697C520.177 330.53 516.628 327.414 515.944 326.797C512.545 323.681 512.278 319.532 512.228 318.532C511.962 313.216 515.161 305.901 521.16 305.151C527.176 304.384 531.892 310.733 533.142 315.649H533.158Z" fill="white"/>
<path d="M331.542 313.949C330.358 318.132 330.658 324.73 335.408 328.08C339.54 330.979 344.406 329.563 344.823 329.43C350.255 327.747 352.788 322.131 353.221 317.998C353.821 312.299 350.938 304.534 344.839 303.334C338.674 302.134 333.091 308.416 331.525 313.949H331.542Z" fill="white"/>
</svg>
