<svg width="627" height="927" viewBox="0 0 627 927" fill="none" xmlns="http://www.w3.org/2000/svg">
<path d="M423.635 921.232C420.619 921.232 417.536 921.099 414.47 920.832C413.47 920.865 412.437 920.882 411.337 920.882C396.506 920.882 382.892 917.949 370.877 912.133C363.478 908.551 357.679 904.418 353.18 899.452C350.697 896.719 344.881 890.32 342.498 880.239C341.781 877.206 341.415 874.09 341.415 870.973C341.415 868.957 341.565 866.941 341.881 864.941H293.473C293.773 866.941 293.939 868.957 293.939 870.973C293.823 878.656 292.023 889.804 284.107 899.652C280.141 904.585 274.242 908.984 266.594 912.717C255.012 918.366 241.948 921.232 227.767 921.232C224.75 921.232 221.684 921.099 218.601 920.832C217.602 920.865 216.568 920.882 215.469 920.882C200.638 920.882 187.023 917.949 175.008 912.133C167.61 908.551 161.811 904.418 157.311 899.452C154.828 896.719 149.013 890.32 146.63 880.239C145.913 877.206 145.546 874.09 145.546 870.973C145.546 864.458 147.113 858.125 150.112 852.376C110.952 832.046 86.7727 789.82 89.5056 745.527L95.888 641.794L87.6726 647.993C77.3909 655.758 65.6762 659.858 53.8282 659.858C37.3475 659.858 23.183 651.942 14.9843 638.161L12.6015 634.145C-1.7295 610.049 6.91899 575.138 31.865 556.324L136.565 477.354C138.948 475.554 141.497 473.904 144.147 472.455C150.629 467.355 157.595 463.023 164.96 459.49C146.213 451.325 129.383 441.743 114.785 430.961C112.002 428.895 108.752 427.462 105.12 426.679C70.392 419.213 47.0458 397.783 47.0458 373.371C47.0458 368.905 46.1626 362.639 41.7966 357.39C34.9477 349.141 31.3318 339.726 31.3318 330.178C31.3318 319.296 35.9477 308.781 44.663 299.749C48.9789 295.3 51.4618 289.368 51.6951 283.052C52.5283 259.656 56.5776 237.209 63.7098 216.229C28.0322 186.068 14.0346 139.942 28.0157 97.7486C42.68 53.5225 85.6729 23.7939 135.015 23.7939C148.246 23.7939 161.411 25.9436 174.175 30.1596C200.671 38.9415 223.234 56.1887 238.065 78.885C265.877 74.2858 290.007 74.0025 304.638 73.8358C308.07 73.8025 312.003 73.7525 316.352 73.7525C330.083 73.7525 350.747 74.1525 374.21 77.5352C389.041 55.5055 411.27 38.7582 437.166 30.1762C449.914 25.9436 463.095 23.8106 476.326 23.8106C525.652 23.8106 568.661 53.5225 583.326 97.7653C597.157 139.492 583.492 185.334 548.515 215.513C554.997 237.526 557.98 261.106 557.363 285.685C557.213 291.784 559.413 297.9 563.579 302.882C570.495 311.164 574.144 320.613 574.144 330.211C574.144 339.809 570.528 349.175 563.679 357.423C559.313 362.689 558.413 368.955 558.43 373.287C558.43 396.517 537.733 416.93 505.688 425.462C502.339 426.362 499.373 427.745 496.906 429.595C483.575 439.61 468.261 448.642 451.264 456.524C459.062 459.623 466.478 463.606 473.427 468.389C479.409 470.405 485.108 473.438 490.357 477.404L595.057 556.374C620.003 575.188 628.652 610.116 614.321 634.195L611.938 638.211C603.739 652.009 589.575 659.908 573.094 659.908C561.246 659.908 549.548 655.808 539.249 648.043L527.085 638.878L533.65 745.577C536.183 786.787 516.52 825.214 482.025 847.277C487.041 854.159 489.757 862.408 489.757 871.04C489.641 878.722 487.841 889.87 479.926 899.719C475.943 904.668 470.061 909.051 462.412 912.783C450.83 918.432 437.766 921.299 423.585 921.299L423.635 921.232Z" fill="white"/>
<path d="M476.376 28.7602C522.335 28.7602 564.229 55.8724 578.626 99.2821C592.474 141.075 576.86 185.951 542.815 213.747C551.514 241.576 552.864 267.521 552.414 285.502C552.231 293.034 554.964 300.233 559.779 306.015C565.778 313.197 569.178 321.413 569.178 330.145C569.178 338.877 565.812 347.009 559.863 354.157C555.447 359.49 553.43 366.305 553.464 373.221C553.464 373.254 553.464 373.304 553.464 373.338C553.464 394.651 533.217 412.898 504.438 420.547C500.656 421.547 497.073 423.163 493.94 425.513C477.143 438.127 457.812 448.625 437.366 457.091C449.63 460.357 461.045 465.739 471.194 472.838C476.743 474.621 482.225 477.437 487.374 481.32L592.074 560.291C615.004 577.588 623.086 609.649 610.055 631.562L607.672 635.579C600.14 648.227 587.158 654.842 573.127 654.842C562.846 654.842 551.997 651.293 542.299 643.994L521.469 628.28L528.701 745.811C531.317 788.354 508.888 826.364 474.46 845.944C480.842 852.377 484.792 861.225 484.792 870.94C484.708 875.74 483.858 886.788 476.06 896.486C474.443 898.486 470.211 903.335 460.262 908.184C447.314 914.5 434.2 916.2 423.635 916.2C420.352 916.2 417.319 916.033 414.62 915.8C413.587 915.833 412.487 915.85 411.337 915.85C401.305 915.85 387.124 914.4 373.06 907.601C363.861 903.152 359.195 898.586 356.896 896.07C354.379 893.304 349.43 887.771 347.38 879.072C346.764 876.456 346.447 873.74 346.447 870.94C346.447 867.091 347.08 863.392 348.23 859.909H287.173C288.323 863.392 288.957 867.091 288.957 870.94C288.873 875.74 288.023 886.788 280.225 896.486C278.625 898.486 274.376 903.335 264.427 908.184C251.479 914.5 238.365 916.2 227.8 916.2C224.517 916.2 221.484 916.033 218.785 915.8C217.752 915.833 216.652 915.85 215.502 915.85C205.47 915.85 191.289 914.4 177.225 907.601C168.026 903.152 163.36 898.586 161.061 896.07C158.544 893.304 153.595 887.771 151.546 879.072C150.929 876.456 150.596 873.74 150.596 870.94C150.596 863.242 153.112 856.109 157.311 850.26C118.134 832.397 91.7218 791.753 94.5547 745.794L101.604 631.229L84.7229 643.961C75.0245 651.276 64.1763 654.809 53.8946 654.809C39.8469 654.809 26.8657 648.193 19.3502 635.545L16.9674 631.529C3.93618 609.616 12.0181 577.538 34.9477 560.257L139.648 481.287C142.03 479.487 144.48 477.937 146.98 476.588C156.245 469.255 166.743 463.406 178.108 459.424C156.311 450.908 135.715 440.11 117.834 426.879C114.401 424.329 110.436 422.63 106.253 421.73C74.808 414.964 52.1283 395.851 52.1283 373.304V373.188C52.145 366.272 50.1454 359.44 45.7294 354.124C39.7971 346.959 36.4141 338.793 36.4141 330.111C36.4141 320.213 40.7801 310.981 48.3456 303.166C53.5447 297.783 56.511 290.651 56.7776 283.169C57.4109 265.588 60.1937 240.926 69.6589 214.513C34.9145 186.785 18.8503 141.442 32.848 99.2487C47.2457 55.8391 89.1391 28.7268 135.098 28.7268C147.48 28.7268 160.161 30.6932 172.675 34.8425C200.204 43.9744 222.068 62.0381 235.682 84.3012C264.461 79.2353 289.656 78.9354 304.754 78.7521C308.17 78.7187 312.07 78.6687 316.419 78.6687C332.083 78.6687 353.313 79.2686 376.709 82.8681C390.39 61.2549 411.87 43.7577 438.816 34.8258C451.33 30.6765 464.012 28.7102 476.393 28.7102M476.376 18.7618C462.612 18.7618 448.914 20.9947 435.65 25.394C409.737 33.9926 387.324 50.4733 371.91 72.1365C349.414 69.1036 329.7 68.7204 316.419 68.7204C312.003 68.7204 308.087 68.7703 304.637 68.8037C290.423 68.9703 267.327 69.2369 240.481 73.4196C225.05 51.1232 202.321 34.1926 175.808 25.394C162.544 20.9947 148.846 18.7618 135.082 18.7618C83.59 18.7618 38.6805 49.8567 23.3329 96.1326C15.8842 118.612 15.9341 142.575 23.4662 165.455C30.0485 185.468 41.93 203.415 57.9774 217.763C51.3451 238.276 47.5791 260.123 46.7626 282.819C46.5793 287.902 44.5796 292.667 41.1302 296.233C31.4817 306.215 26.3824 317.93 26.3824 330.128C26.3824 340.86 30.3986 351.375 37.9973 360.54C40.6636 363.739 42.1133 368.238 42.0966 373.188V373.338C42.0966 400.167 67.0258 423.563 104.12 431.545C107.053 432.178 109.652 433.328 111.852 434.961C124.3 444.176 138.331 452.508 153.745 459.84C149.479 462.373 145.363 465.189 141.43 468.256C138.698 469.772 136.065 471.488 133.598 473.338L28.8987 552.309C1.96969 572.622 -7.24542 610.466 8.35206 636.678L10.7518 640.694C19.7503 655.809 35.8809 664.84 53.8946 664.84C66.6592 664.84 79.2406 660.508 90.2889 652.309L84.573 745.211C83.0733 769.474 88.989 793.203 101.654 813.833C112.119 830.847 126.516 844.778 143.68 854.543C141.647 859.742 140.597 865.291 140.597 870.957C140.597 874.473 140.997 877.973 141.814 881.372C144.497 892.72 150.912 899.786 153.662 902.802C158.611 908.234 164.893 912.75 172.875 916.616C185.573 922.749 199.904 925.865 215.502 925.865C216.485 925.865 217.501 925.865 218.485 925.832C221.601 926.098 224.734 926.215 227.783 926.215C242.731 926.215 256.529 923.182 268.793 917.2C277.109 913.15 283.574 908.284 288.007 902.769C296.805 891.82 298.805 879.506 298.938 871.124V871.04V870.957C298.938 870.607 298.938 870.274 298.938 869.924H336.466C336.466 870.274 336.466 870.607 336.466 870.957C336.466 874.473 336.866 877.973 337.665 881.372C340.348 892.737 346.764 899.786 349.513 902.802C354.463 908.234 360.745 912.75 368.727 916.616C381.425 922.749 395.756 925.865 411.353 925.865C412.337 925.865 413.353 925.865 414.336 925.832C417.452 926.098 420.585 926.215 423.635 926.215C438.582 926.215 452.38 923.182 464.645 917.2C472.96 913.15 479.426 908.284 483.858 902.769C492.657 891.82 494.657 879.506 494.79 871.124V871.04V870.957C494.79 863.025 492.757 855.376 488.908 848.611C503.439 838.396 515.52 824.981 524.202 809.35C535.05 789.804 540.049 767.624 538.666 745.194L532.767 649.326L536.267 651.959C547.431 660.375 560.163 664.824 573.111 664.824C591.141 664.824 607.255 655.792 616.254 640.678L618.636 636.662C634.234 610.449 625.019 572.605 598.09 552.292L493.39 473.321C487.908 469.172 481.959 465.973 475.71 463.79C471.627 461.007 467.411 458.507 463.045 456.274C476.56 449.409 488.908 441.777 499.939 433.495C501.889 432.028 504.272 430.912 507.005 430.195C541.299 421.08 563.462 398.75 563.462 373.321V373.154C563.445 368.222 564.895 363.739 567.561 360.523C575.16 351.358 579.176 340.86 579.176 330.111C579.176 319.363 575.127 308.765 567.445 299.583C564.062 295.534 562.262 290.601 562.396 285.719C562.995 261.756 560.246 238.709 554.23 217.08C570.078 202.682 581.759 184.735 588.191 164.805C595.524 142.108 595.49 118.362 588.108 96.1159C572.761 49.8401 527.851 18.7451 476.36 18.7451L476.376 18.7618Z" fill="black"/>
<path d="M421.869 860.541H202.288C140.314 860.541 91.1724 808.283 94.9884 746.426L106.786 554.941C110.286 498.233 157.278 454.041 214.086 454.041H410.071C466.878 454.041 513.887 498.233 517.37 554.941L529.168 746.426C532.984 808.283 483.842 860.541 421.869 860.541Z" fill="#FFA744"/>
<path d="M246.591 170.584C264.864 115.461 231.882 54.9318 172.924 35.3877C113.967 15.8436 51.3587 44.6857 33.0859 99.8086C14.813 154.931 47.7948 215.461 106.753 235.005C165.71 254.549 228.318 225.707 246.591 170.584Z" fill="#FFA744"/>
<path d="M505.483 235.305C564.441 215.761 597.423 155.231 579.15 100.108C560.877 44.9855 498.269 16.1433 439.311 35.6874C380.354 55.2315 347.372 115.761 365.644 170.884C383.917 226.007 446.525 254.849 505.483 235.305Z" fill="#FFA744"/>
<path d="M189.856 565.624L85.1558 644.595C62.2262 661.892 32.8143 658.109 19.7831 636.196L17.4003 632.18C4.36904 610.267 12.4509 578.189 35.3805 560.908L140.08 481.938C163.01 464.64 192.422 468.423 205.453 490.336L207.836 494.352C220.867 516.265 212.785 548.343 189.856 565.624Z" fill="#FFA744"/>
<mask id="mask0_1128_7578" style="mask-type:luminance" maskUnits="userSpaceOnUse" x="11" y="471" width="204" height="185">
<path d="M189.856 565.624L85.1558 644.595C62.2262 661.892 32.8143 658.109 19.7831 636.196L17.4003 632.18C4.36904 610.267 12.4509 578.189 35.3805 560.908L140.08 481.938C163.01 464.64 192.422 468.423 205.453 490.336L207.836 494.352C220.867 516.265 212.785 548.343 189.856 565.624Z" fill="white"/>
</mask>
<g mask="url(#mask0_1128_7578)">
<path d="M15.3171 478.655C48.2617 495.352 73.9907 523.781 86.372 558.692C90.638 570.74 109.968 565.541 105.652 553.376C91.5713 513.682 63.0759 480.471 25.4153 461.391C13.9672 455.592 3.83558 472.839 15.3171 478.655Z" fill="#3A3A3A"/>
<path d="M46.5114 457.309C79.4561 474.006 105.185 502.435 117.567 537.346C121.833 549.394 141.163 544.195 136.847 532.03C122.766 492.336 94.2702 459.125 56.6096 440.045C45.1615 434.246 35.0299 451.493 46.5114 457.309Z" fill="#3A3A3A"/>
<path d="M-13.7787 503.818C19.166 520.515 44.8952 548.944 57.2765 583.855C61.5425 595.903 80.8728 590.704 76.5568 578.539C62.4758 538.846 33.9803 505.634 -3.68023 486.554C-15.1284 480.755 -25.2602 498.002 -13.7787 503.818Z" fill="#3A3A3A"/>
</g>
<path d="M243.257 273.665C247.256 254.69 239.467 236.983 225.859 234.116C212.252 231.248 197.98 244.306 193.981 263.28C189.983 282.255 197.772 299.961 211.379 302.829C224.987 305.696 239.259 292.639 243.257 273.665Z" fill="#262727"/>
<path d="M409.253 302.906C422.86 300.039 430.65 282.332 426.651 263.358C422.652 244.383 408.38 231.326 394.773 234.193C381.166 237.061 373.376 254.767 377.375 273.742C381.373 292.716 395.646 305.774 409.253 302.906Z" fill="#262727"/>
<path d="M364.31 299.099C363.21 317.68 336.148 331.594 313.952 331.411C291.539 331.211 263.993 316.547 263.593 297.2C263.193 277.969 289.789 261.405 312.702 261.106C337.615 260.789 365.46 279.586 364.31 299.099Z" fill="#FAE0EB"/>
<path d="M326.018 282.202C325.768 286.752 319.036 290.084 313.603 290.084C308.171 290.084 301.455 286.735 301.188 282.202C300.922 277.52 307.604 273.004 313.603 273.004C319.602 273.004 326.268 277.52 326.018 282.202Z" fill="#ED83AC"/>
<path d="M407.936 294.301C400.804 295.65 392.605 290.551 392.622 285.985C392.655 281.636 400.154 278.403 404.754 277.437C409.419 276.453 417.535 276.42 419.268 280.319C421.134 284.519 415.385 292.901 407.936 294.301Z" fill="#F6C6DB"/>
<path d="M213.319 294.633C220.451 295.983 228.65 290.884 228.633 286.318C228.6 281.968 221.101 278.736 216.502 277.769C211.836 276.786 203.721 276.753 201.988 280.652C200.121 284.851 205.87 293.233 213.319 294.633Z" fill="#F6C6DB"/>
<path d="M411.986 259.756C412.236 260.756 413.486 265.722 410.353 269.854C409.937 270.404 407.77 273.154 403.871 273.804C399.005 274.637 395.456 271.521 394.772 270.904C391.373 267.788 391.106 263.639 391.056 262.639C390.79 257.323 393.989 250.008 399.988 249.258C406.004 248.491 410.72 254.84 411.97 259.756H411.986Z" fill="white"/>
<path d="M210.369 258.056C209.186 262.238 209.486 268.837 214.235 272.187C218.367 275.086 223.233 273.67 223.65 273.537C229.082 271.854 231.615 266.238 232.049 262.105C232.648 256.406 229.766 248.641 223.666 247.441C217.501 246.241 211.918 252.523 210.352 258.056H210.369Z" fill="white"/>
<path d="M569.644 330.744C569.644 322.012 566.244 313.797 560.245 306.615C555.413 300.832 552.68 293.617 552.88 286.101C553.613 256.973 549.647 206.914 517.286 161.871C456.779 77.6183 345.78 78.9181 305.203 79.4014C265.993 79.868 158.994 81.1178 97.0536 164.488C64.9421 207.714 58.2265 255.14 57.21 283.785C56.9434 291.267 53.9773 298.399 48.7781 303.782C41.2127 311.597 36.8467 320.846 36.8467 330.727C36.8467 339.409 40.2129 347.591 46.162 354.74C50.5779 360.056 52.5942 366.888 52.5609 373.804C52.5609 373.837 52.5609 373.887 52.5609 373.92C52.5609 396.467 75.2405 415.58 106.685 422.346C110.868 423.246 114.834 424.945 118.267 427.495C172.158 467.388 250.845 485.386 312.269 484.169C370.393 483.019 443.864 464.072 494.439 426.095C497.572 423.746 501.155 422.129 504.938 421.129C533.7 413.481 553.963 395.234 553.963 373.92C553.963 373.887 553.963 373.837 553.963 373.804C553.946 366.888 555.946 360.056 560.362 354.74C566.294 347.575 569.677 339.409 569.677 330.727L569.644 330.744Z" fill="#FFA744"/>
<mask id="mask1_1128_7578" style="mask-type:luminance" maskUnits="userSpaceOnUse" x="36" y="79" width="534" height="406">
<path d="M569.644 330.744C569.644 322.012 566.244 313.797 560.245 306.615C555.413 300.832 552.68 293.617 552.88 286.101C553.613 256.973 549.647 206.914 517.286 161.871C456.779 77.6183 345.78 78.9181 305.203 79.4014C265.993 79.868 158.994 81.1178 97.0536 164.488C64.9421 207.714 58.2265 255.14 57.21 283.785C56.9434 291.267 53.9773 298.399 48.7781 303.782C41.2127 311.597 36.8467 320.846 36.8467 330.727C36.8467 339.409 40.2129 347.591 46.162 354.74C50.5779 360.056 52.5942 366.888 52.5609 373.804C52.5609 373.837 52.5609 373.887 52.5609 373.92C52.5609 396.467 75.2405 415.58 106.685 422.346C110.868 423.246 114.834 424.945 118.267 427.495C172.158 467.388 250.845 485.386 312.269 484.169C370.393 483.019 443.864 464.072 494.439 426.095C497.572 423.746 501.155 422.129 504.938 421.129C533.7 413.481 553.963 395.234 553.963 373.92C553.963 373.887 553.963 373.837 553.963 373.804C553.946 366.888 555.946 360.056 560.362 354.74C566.294 347.575 569.677 339.409 569.677 330.727L569.644 330.744Z" fill="white"/>
</mask>
<g mask="url(#mask1_1128_7578)">
<path d="M24.031 292.484C50.8767 267.071 86.5207 253.107 123.448 253.224C136.313 253.257 136.329 233.26 123.448 233.227C81.2216 233.094 40.5284 249.358 9.88332 278.353C0.51817 287.218 14.6825 301.333 24.031 292.501V292.484Z" fill="#3A3A3A"/>
<path d="M37.8962 328.345C64.7419 302.932 100.386 288.968 137.314 289.084C150.178 289.118 150.195 269.121 137.314 269.088C95.087 268.954 54.3936 285.218 23.7486 314.214C14.3834 323.079 28.5478 337.193 37.8962 328.361V328.345Z" fill="#3A3A3A"/>
<path d="M596.605 278.336C565.96 249.341 525.266 233.077 483.04 233.21C470.175 233.244 470.142 253.24 483.04 253.207C519.984 253.09 555.611 267.071 582.457 292.467C591.806 301.316 605.97 287.202 596.605 278.32V278.336Z" fill="#3A3A3A"/>
<path d="M582.723 314.214C552.078 285.218 511.385 268.954 469.158 269.088C456.293 269.121 456.26 289.118 469.158 289.084C506.102 288.968 541.73 302.949 568.575 328.345C577.924 337.193 592.088 323.079 582.723 314.197V314.214Z" fill="#3A3A3A"/>
<path d="M300.235 56.7055L303.484 218.496C303.751 231.344 323.748 231.394 323.481 218.496L320.232 56.7055C319.965 43.8576 299.968 43.8076 300.235 56.7055Z" fill="#3A3A3A"/>
<path d="M261.625 121.862C297.319 110.98 334.98 110.613 370.857 120.928C383.255 124.495 388.538 105.198 376.173 101.648C337.029 90.4001 295.27 90.7 256.309 102.581C244.028 106.331 249.26 125.628 261.625 121.862Z" fill="#3A3A3A"/>
<path d="M261.627 160.122C296.821 145.607 335.432 145.241 370.859 159.189C382.841 163.904 388.04 144.574 376.175 139.908C337.898 124.844 294.338 125.161 256.311 140.842C244.58 145.674 249.712 165.038 261.627 160.122Z" fill="#3A3A3A"/>
<path d="M261.625 199.615C296.836 185.201 335.413 184.834 370.858 198.682C382.856 203.365 388.055 184.035 376.173 179.402C337.88 164.438 294.37 164.771 256.31 180.335C244.562 185.151 249.711 204.498 261.625 199.615Z" fill="#3A3A3A"/>
</g>
<path d="M164.342 121.478C167.775 120.062 170.308 116.912 170.558 113.213C170.741 110.463 169.808 107.647 167.709 105.497C162.059 99.7318 154.661 95.2492 146.029 92.8829C122.449 86.4006 98.6697 98.1154 92.9039 119.062C88.9379 133.476 94.5538 148.524 106.135 158.606C107.352 159.672 108.785 160.372 110.268 160.739C114.167 161.688 118.216 159.889 120.533 156.606C124.732 150.624 131.048 143.041 140.096 135.809C149.012 128.694 157.677 124.244 164.359 121.478H164.342Z" fill="white"/>
<path d="M440.498 121.478C437.065 120.062 434.532 116.912 434.282 113.213C434.099 110.463 435.032 107.647 437.132 105.497C442.781 99.7318 450.18 95.2492 458.812 92.8829C482.391 86.4006 506.171 98.1154 511.936 119.062C515.902 133.476 510.287 148.524 498.705 158.606C497.489 159.672 496.056 160.372 494.573 160.739C490.673 161.688 486.624 159.889 484.308 156.606C480.108 150.624 473.793 143.041 464.744 135.809C455.829 128.694 447.164 124.244 440.481 121.478H440.498Z" fill="white"/>
<path d="M371.626 298.8C365.894 289.001 356.629 285.118 349.73 282.352C339.465 278.22 329.983 278.186 311.419 278.27C292.439 278.37 282.724 278.503 272.359 283.102C266.31 285.785 257.945 289.634 252.579 298.8C250.896 301.682 244.047 313.347 249.779 324.812C254.229 333.727 263.927 338.027 271.759 338.16C280.924 338.31 287.79 332.794 295.905 326.262C300.171 322.829 303.338 319.496 305.487 317.013C309.17 313.447 315.036 313.447 318.718 317.013C320.735 318.93 324.117 322.162 328.3 326.262C334.416 332.277 335.865 333.877 338.832 335.427C344.814 338.576 350.73 338.277 352.463 338.143C362.128 337.443 370.71 332.261 374.443 324.795C380.175 313.314 373.309 301.616 371.643 298.783L371.626 298.8Z" fill="white"/>
<path d="M304.121 293.034L296.255 282.552C291.323 275.97 296.022 266.588 304.237 266.588H319.951C328.167 266.588 332.866 275.97 327.934 282.552L320.068 293.034C316.086 298.349 308.103 298.349 304.104 293.034H304.121Z" fill="#3A3A3A"/>
<path d="M206.068 242.476C206.068 263.556 218.583 280.636 234.031 280.636C249.478 280.636 261.993 263.556 261.993 242.476C261.993 237.193 261.209 232.177 259.793 227.612L208.285 220.263C206.868 224.829 206.085 237.193 206.085 242.476H206.068Z" fill="#262727"/>
<path d="M417.603 242.476C417.603 263.556 405.088 280.636 389.641 280.636C374.193 280.636 361.679 263.556 361.679 242.476C361.679 237.193 362.462 232.177 363.878 227.612L415.387 220.263C416.803 224.829 417.586 237.193 417.586 242.476H417.603Z" fill="#262727"/>
<path d="M222.285 245.608C224.944 245.608 227.101 242.453 227.101 238.56C227.101 234.667 224.944 231.511 222.285 231.511C219.625 231.511 217.469 234.667 217.469 238.56C217.469 242.453 219.625 245.608 222.285 245.608Z" fill="white"/>
<path d="M375.876 246.507C378.536 246.507 380.692 243.352 380.692 239.459C380.692 235.566 378.536 232.41 375.876 232.41C373.217 232.41 371.061 235.566 371.061 239.459C371.061 243.352 373.217 246.507 375.876 246.507Z" fill="white"/>
<path d="M231.115 271.854C239.697 273.471 249.579 267.338 249.546 261.839C249.512 256.607 240.48 252.724 234.931 251.541C229.299 250.358 219.534 250.325 217.451 255.007C215.201 260.073 222.117 270.155 231.099 271.838L231.115 271.854Z" fill="#595959"/>
<path d="M393.323 271.854C384.741 273.471 374.859 267.338 374.893 261.839C374.926 256.607 383.958 252.724 389.507 251.541C395.139 250.358 404.904 250.325 406.987 255.007C409.237 260.073 402.322 270.155 393.34 271.838L393.323 271.854Z" fill="#595959"/>
<path d="M264.861 908.817C247.897 917.099 230.65 917.432 219.202 916.433C209.137 916.749 193.322 915.816 177.642 908.234C168.443 903.785 163.777 899.219 161.478 896.703C158.961 893.936 154.012 888.404 151.963 879.705C151.346 877.089 151.013 874.373 151.013 871.573C151.013 852.01 167.027 835.996 186.59 835.996H253.796C273.36 835.996 289.374 852.01 289.374 871.573C289.29 876.372 288.441 887.421 280.642 897.119C279.025 899.119 274.793 903.968 264.844 908.817H264.861Z" fill="#E28444"/>
<path d="M460.727 908.817C443.763 917.099 426.516 917.432 415.068 916.433C405.003 916.749 389.189 915.816 373.508 908.234C364.309 903.785 359.644 899.219 357.344 896.703C354.828 893.936 349.878 888.404 347.829 879.705C347.212 877.089 346.879 874.373 346.879 871.573C346.879 852.01 362.893 835.996 382.456 835.996H449.662C469.226 835.996 485.24 852.01 485.24 871.573C485.157 876.372 484.307 887.421 476.508 897.119C474.892 899.119 470.659 903.968 460.71 908.817H460.727Z" fill="#E28444"/>
<path d="M344.164 534.811H292.322C239.781 534.811 197.188 577.404 197.188 629.946V693.785C197.188 746.327 239.781 788.92 292.322 788.92H344.164C396.705 788.92 439.298 746.327 439.298 693.785V629.946C439.298 577.404 396.705 534.811 344.164 534.811Z" fill="#FFDEBD"/>
<path d="M438.065 565.624L542.765 644.595C565.695 661.892 595.107 658.109 608.138 636.196L610.521 632.18C623.552 610.267 615.47 578.189 592.54 560.908L487.841 481.938C464.911 464.64 435.499 468.423 422.468 490.336L420.085 494.352C407.054 516.265 415.136 548.343 438.065 565.624Z" fill="#FFA744"/>
<mask id="mask2_1128_7578" style="mask-type:luminance" maskUnits="userSpaceOnUse" x="413" y="471" width="204" height="185">
<path d="M438.065 565.624L542.765 644.595C565.695 661.892 595.107 658.109 608.138 636.196L610.521 632.18C623.552 610.267 615.47 578.189 592.54 560.908L487.841 481.938C464.911 464.64 435.499 468.423 422.468 490.336L420.085 494.352C407.054 516.265 415.136 548.343 438.065 565.624Z" fill="white"/>
</mask>
<g mask="url(#mask2_1128_7578)">
<path d="M602.505 461.391C564.845 480.488 536.333 513.699 522.268 553.376C517.952 565.524 537.266 570.756 541.548 558.692C553.93 523.781 579.659 495.352 612.603 478.655C624.085 472.839 613.97 455.575 602.505 461.391Z" fill="#3A3A3A"/>
<path d="M571.311 440.044C533.65 459.141 505.138 492.352 491.074 532.029C486.758 544.177 506.071 549.41 510.354 537.345C522.735 502.434 548.464 474.005 581.409 457.308C592.891 451.492 582.775 434.228 571.311 440.044Z" fill="#3A3A3A"/>
<path d="M631.6 486.553C593.939 505.65 565.427 538.862 551.363 578.538C547.047 590.687 566.361 595.919 570.643 583.854C583.025 548.943 608.754 520.515 641.698 503.817C653.18 498.002 643.065 480.738 631.6 486.553Z" fill="#3A3A3A"/>
</g>
</svg>
