<svg width="498" height="531" viewBox="0 0 498 531" fill="none" xmlns="http://www.w3.org/2000/svg">
<path d="M437.504 4.82187C454.104 18.2619 447.114 126.402 410.294 140.692C367.944 157.142 290.564 88.7619 302.904 44.2919C313.384 6.51187 420.904 -8.61813 437.504 4.82187Z" fill="#353535"/>
<path d="M231.074 478.893H157.904C146.107 478.893 136.544 488.456 136.544 500.253V509.393C136.544 521.189 146.107 530.753 157.904 530.753H231.074C242.871 530.753 252.434 521.189 252.434 509.393V500.253C252.434 488.456 242.871 478.893 231.074 478.893Z" fill="white"/>
<path d="M364.343 478.893H291.173C279.377 478.893 269.813 488.456 269.813 500.253V509.393C269.813 521.189 279.377 530.753 291.173 530.753H364.343C376.14 530.753 385.703 521.189 385.703 509.393V500.253C385.703 488.456 376.14 478.893 364.343 478.893Z" fill="#353535"/>
<path d="M178.323 308.581L118.683 257.241C105.623 246.001 87.8633 247.121 79.2033 259.741L77.6132 262.051C68.9632 274.671 72.5632 294.191 85.6232 305.431L145.263 356.771C158.323 368.011 176.083 366.891 184.743 354.271L186.333 351.961C194.983 339.341 191.383 319.821 178.323 308.581Z" fill="#FCD577"/>
<path d="M369.893 488.851H145.353C115.363 488.851 97.7435 457.811 105.474 423.211L131.923 304.711C136.743 283.101 157.674 266.611 178.744 266.611H336.504C357.574 266.611 378.504 283.101 383.324 304.711L409.774 423.211C417.494 457.811 399.883 488.851 369.893 488.851Z" fill="white"/>
<path d="M411.423 161.042C412.033 195.392 394.693 221.232 389.653 228.532C351.673 283.552 282.283 283.332 259.733 283.262C207.363 283.092 116.173 261.442 99.3733 195.752C89.9533 158.952 108.123 124.882 116.613 108.972C143.383 58.7717 198.863 20.4717 259.743 22.5917C336.463 25.2617 410.203 91.7017 411.433 161.042H411.423Z" fill="white"/>
<mask id="mask0_1884_9071" style="mask-type:luminance" maskUnits="userSpaceOnUse" x="96" y="22" width="316" height="262">
<path d="M411.423 161.042C412.033 195.392 394.693 221.232 389.653 228.532C351.673 283.552 282.283 283.332 259.733 283.262C207.363 283.092 116.173 261.442 99.3733 195.752C89.9533 158.952 108.123 124.882 116.613 108.972C143.383 58.7717 198.863 20.4717 259.743 22.5917C336.463 25.2617 410.203 91.7017 411.433 161.042H411.423Z" fill="white"/>
</mask>
<g mask="url(#mask0_1884_9071)">
<path d="M305.723 11.3225C300.283 23.6425 299.323 37.3125 302.013 50.4425C304.753 63.8225 311.123 76.4025 319.843 86.8825C329.113 98.0225 341.333 106.472 354.473 112.422C368.333 118.702 383.213 122.302 398.283 124.152C405.703 125.062 413.193 125.572 420.663 125.632C427.283 125.692 433.963 125.242 440.443 123.842C446.923 122.442 452.743 120.202 457.803 116.342C462.913 112.452 466.753 107.092 468.493 100.882C472.093 87.9725 466.763 73.7725 458.093 64.1025C448.053 52.9025 433.213 47.1825 419.153 42.9825C411.063 40.5625 402.873 38.4625 394.723 36.2425C385.813 33.8225 376.913 31.4125 368.003 28.9925C350.113 24.1425 332.223 19.2825 314.333 14.4325C310.003 13.2525 305.673 12.0825 301.333 10.9025C299.463 10.3925 298.673 13.2925 300.533 13.7925C317.783 18.4725 335.033 23.1525 352.283 27.8325C369.533 32.5125 386.783 37.1925 404.033 41.8725C418.383 45.7625 433.253 49.4425 445.843 57.6825C456.863 64.8925 465.463 76.4025 466.513 89.8625C466.993 96.0525 465.693 102.242 462.213 107.432C458.833 112.472 453.733 116.092 448.163 118.352C435.993 123.302 422.233 123.022 409.353 122.162C394.703 121.192 380.083 118.682 366.193 113.852C352.673 109.162 339.693 102.132 329.173 92.3425C319.593 83.4225 312.123 72.1225 307.753 59.7725C303.473 47.6625 302.133 34.3725 305.263 21.8225C306.033 18.7425 307.053 15.7125 308.333 12.8025C309.103 11.0525 306.523 9.52245 305.743 11.2925L305.723 11.3225Z" fill="white"/>
<path d="M315.003 15.7326C298.033 29.4626 291.433 53.6426 296.053 74.9826C300.673 96.3126 315.263 114.643 333.313 126.903C351.373 139.173 372.683 145.863 394.163 149.753C401.403 151.063 409.113 152.033 415.923 149.243C424.143 145.893 429.383 137.743 432.753 129.533C441.723 107.713 440.843 82.0526 430.393 60.8926C419.943 39.7326 400.093 23.4526 377.303 17.3226C357.463 11.9926 336.473 14.1426 316.043 16.3426" fill="#353535"/>
</g>
<path d="M335.574 308.082L396.744 255.542C410.134 244.042 428.164 244.962 436.794 257.592L438.374 259.912C447.014 272.542 443.114 292.292 429.724 303.792L368.554 356.332C355.164 367.832 337.134 366.912 328.504 354.282L326.924 351.962C318.284 339.332 322.184 319.582 335.574 308.082Z" fill="#353535"/>
<path d="M79.4836 4.82187C62.8836 18.2619 69.8735 126.402 106.694 140.692C149.044 157.142 226.423 88.7619 214.083 44.2919C203.603 6.51187 96.0836 -8.61813 79.4836 4.82187Z" fill="#FCD577"/>
<path d="M98.4235 24.1822C89.5935 31.3322 93.3135 88.8622 112.893 96.4722C135.423 105.222 176.594 68.8422 170.034 45.1822C164.454 25.0822 107.254 17.0322 98.4235 24.1822Z" fill="#F4B1CB"/>
<path d="M295.627 190.239C299.329 186.537 297.879 179.085 292.388 173.594C286.897 168.103 279.445 166.653 275.743 170.355C272.041 174.057 273.491 181.51 278.981 187.001C284.472 192.491 291.925 193.941 295.627 190.239Z" fill="#EE85A8"/>
<path d="M419.684 24.1822C428.514 31.3322 424.794 88.8622 405.204 96.4722C382.674 105.222 341.504 68.8422 348.064 45.1822C353.644 25.0822 410.844 17.0322 419.674 24.1822H419.684Z" fill="#F4B1CB"/>
<path d="M341.844 133.541C339.864 146.191 327.154 155.431 313.824 155.431C301.054 155.431 290.404 146.921 289.464 135.361" fill="#72BC55"/>
<path d="M289.464 135.371C288.414 122.451 299.633 109.851 315.373 108.631C331.983 107.341 344.083 119.261 341.843 133.551" fill="#339239"/>
<path d="M314.623 150.832C323.305 150.832 330.343 143.051 330.343 133.452C330.343 123.854 323.305 116.072 314.623 116.072C305.941 116.072 298.903 123.854 298.903 133.452C298.903 143.051 305.941 150.832 314.623 150.832Z" fill="#040000"/>
<path d="M329.103 132.972C331.859 132.972 334.093 130.738 334.093 127.982C334.093 125.226 331.859 122.992 329.103 122.992C326.347 122.992 324.113 125.226 324.113 127.982C324.113 130.738 326.347 132.972 329.103 132.972Z" fill="white"/>
<path d="M264.314 142.292C245.614 140.822 233.353 163.022 237.043 171.812C242.073 183.792 282.123 183.702 287.423 170.852C290.973 162.252 280.744 143.582 264.324 142.292H264.314Z" fill="#FCD577"/>
<path d="M271.984 153.252C272.674 156.252 267.694 161.002 262.494 161.132C256.974 161.272 251.643 156.182 252.333 153.112C253.003 150.182 259.153 149.202 262.893 149.372C265.423 149.492 271.314 150.332 271.984 153.242V153.252Z" fill="#F4B1CB"/>
<path d="M179.774 452.182C162.714 438.592 140.764 431.831 118.954 431.381C113.964 431.281 108.984 431.522 104.034 432.082C101.094 460.912 115.804 485.421 140.094 488.521C137.854 491.901 136.544 495.931 136.544 500.271V509.401C136.544 521.151 146.154 530.762 157.904 530.762H206.774C208.774 523.442 209.764 515.902 209.444 508.262C208.544 486.472 196.814 465.781 179.764 452.191L179.774 452.182Z" fill="#FCD577"/>
<path d="M333.604 369.011C353.004 386.751 378.334 396.931 404.564 399.831L402.334 389.851L383.334 304.711C382.074 299.061 379.704 293.771 376.534 289.021C373.734 284.831 370.294 281.071 366.414 277.881C365.644 277.251 364.854 276.641 364.054 276.051C364.044 276.041 364.024 276.031 364.014 276.021C363.254 275.461 362.474 274.931 361.684 274.421C361.624 274.381 361.564 274.341 361.504 274.301C360.694 273.781 359.874 273.281 359.044 272.811C359.004 272.791 358.964 272.771 358.924 272.751C358.154 272.321 357.374 271.911 356.584 271.511C356.464 271.451 356.344 271.391 356.224 271.331C355.394 270.931 354.554 270.541 353.704 270.191C353.644 270.161 353.584 270.141 353.524 270.121C352.754 269.801 351.974 269.501 351.184 269.221C351.014 269.161 350.844 269.101 350.684 269.041C349.844 268.751 348.984 268.481 348.134 268.241C348.064 268.221 347.994 268.211 347.924 268.191C347.144 267.981 346.354 267.791 345.564 267.611C345.364 267.571 345.154 267.521 344.954 267.481C344.094 267.311 343.244 267.151 342.374 267.031C342.324 267.031 342.274 267.021 342.214 267.011C341.404 266.901 340.594 266.821 339.784 266.751C339.564 266.731 339.344 266.721 339.124 266.701C338.264 266.651 337.394 266.611 336.524 266.611H304.154C292.494 302.251 305.914 343.671 333.614 369.011H333.604Z" fill="#353535"/>
<path d="M76.3735 212.361L58.3635 220.051L40.9937 175.531L55.9937 169.131L76.3735 212.361Z" fill="#A0A0A0"/>
<path d="M52.678 181.736C66.8339 175.693 72.2552 156.612 64.7866 139.119C57.3179 121.626 39.7877 112.345 25.6317 118.389C11.4758 124.432 6.05452 143.513 13.5231 161.006C20.9918 178.499 38.5221 187.78 52.678 181.736Z" fill="#A0A0A0"/>
<path d="M67.1951 199.918L55.7819 204.791C51.4442 206.643 49.4291 211.661 51.281 215.999L75.029 271.621C76.881 275.959 81.8987 277.974 86.2364 276.122L97.6497 271.249C101.987 269.397 104.002 264.379 102.15 260.042L78.4025 204.419C76.5505 200.081 71.5328 198.066 67.1951 199.918Z" fill="#3B5EAA"/>
<path d="M50.8336 133.191C50.6936 133.931 50.8036 134.701 51.1036 135.401C52.5536 138.801 59.4338 156.101 53.5138 166.591C48.5738 175.351 59.0437 173.201 61.6937 166.771C65.0037 158.741 65.2837 143.791 56.7137 133.321C53.7937 129.761 51.2739 130.861 50.8239 133.201L50.8336 133.191Z" fill="#B7B7B8"/>
<path d="M452.883 222.371L434.523 215.581L452.463 171.301L467.773 176.951L452.883 222.371Z" fill="#A0A0A0"/>
<path d="M454.757 207.004L443.116 202.705C438.691 201.071 433.78 203.333 432.146 207.757L411.193 264.492C409.559 268.916 411.821 273.827 416.245 275.461L427.887 279.761C432.311 281.395 437.223 279.133 438.857 274.708L459.81 217.974C461.444 213.549 459.181 208.638 454.757 207.004Z" fill="#428738"/>
<path d="M494.453 133.011C489.993 143.771 484.153 151.181 480.843 149.961C477.243 148.631 480.793 137.651 480.613 124.511C480.593 122.691 480.593 121.001 480.633 119.421C480.583 119.401 480.543 119.381 480.493 119.371C480.403 119.341 480.303 119.301 480.213 119.271C479.343 120.521 478.353 121.851 477.213 123.251C468.953 133.471 463.943 143.711 460.333 142.381C457.023 141.161 457.403 131.731 461.013 120.661C453.063 124.461 446.103 132.031 442.413 142.011C435.823 159.851 442.183 178.641 456.623 183.971C471.063 189.301 488.103 179.161 494.693 161.331C498.383 151.351 498.013 141.071 494.443 133.011H494.453Z" fill="white"/>
<path d="M494.453 133.011C489.993 143.771 484.153 151.181 480.843 149.961C477.243 148.631 480.793 137.651 480.613 124.511C480.593 122.691 480.593 121.001 480.633 119.421C480.583 119.401 480.543 119.381 480.493 119.371C480.403 119.341 480.303 119.301 480.213 119.271C479.343 120.521 478.353 121.851 477.213 123.251C468.953 133.471 463.943 143.711 460.333 142.381C457.023 141.161 457.403 131.731 461.013 120.661C453.063 124.461 446.103 132.031 442.413 142.011C435.823 159.851 442.183 178.641 456.623 183.971C471.063 189.301 488.103 179.161 494.693 161.331C498.383 151.351 498.013 141.071 494.443 133.011H494.453Z" fill="#A0A0A0"/>
<path d="M487.203 154.681C486.593 155.011 486.153 155.531 485.893 156.121C484.613 159.001 477.743 173.331 466.363 175.451C456.863 177.221 465.813 182.811 472.093 180.881C479.933 178.471 490.323 170.131 491.333 158.591C491.673 154.661 489.123 153.651 487.213 154.691L487.203 154.681Z" fill="#B7B7B8"/>
<path d="M176.164 140.601C176.164 140.601 199.794 106.311 225.604 140.601" stroke="#1B1B1B" stroke-width="7" stroke-miterlimit="10" stroke-linecap="round"/>
</svg>
