<svg width="413" height="551" viewBox="0 0 413 551" fill="none" xmlns="http://www.w3.org/2000/svg">
<path d="M271.935 516.403H140.165C102.975 516.403 73.4853 485.043 75.7753 447.923L82.8554 333.013C84.9554 298.983 113.155 272.463 147.245 272.463H264.855C298.945 272.463 327.155 298.983 329.245 333.013L336.325 447.923C338.615 485.043 309.125 516.403 271.935 516.403Z" fill="#F39B35"/>
<path d="M166.749 102.366C177.714 69.2873 157.922 32.9638 122.541 21.2354C87.161 9.50702 49.5902 26.8151 38.6248 59.8942C27.6593 92.9732 47.4515 129.297 82.8319 141.025C118.212 152.754 155.783 135.445 166.749 102.366Z" fill="#F39B35"/>
<path d="M322.112 141.2C357.493 129.472 377.285 93.1483 366.319 60.0692C355.354 26.9902 317.783 9.68204 282.403 21.4104C247.022 33.1388 227.23 69.4623 238.196 102.541C249.161 135.62 286.732 152.929 322.112 141.2Z" fill="#F39B35"/>
<path d="M237.395 179.484C236.735 190.634 220.495 198.984 207.175 198.874C193.725 198.754 177.195 189.954 176.955 178.344C176.715 166.804 192.675 156.864 206.425 156.684C221.375 156.494 238.085 167.774 237.395 179.484Z" fill="#FADDE9"/>
<path d="M214.405 169.334C214.255 172.064 210.215 174.064 206.955 174.064C203.695 174.064 199.665 172.054 199.505 169.334C199.345 166.524 203.355 163.814 206.955 163.814C210.555 163.814 214.555 166.524 214.405 169.334Z" fill="#EC79A4"/>
<path d="M360.615 198.473C360.615 193.233 358.575 188.303 354.975 183.993C352.075 180.523 350.435 176.193 350.555 171.683C350.995 154.203 348.615 124.163 329.195 97.1326C292.885 46.5726 226.275 47.3526 201.925 47.6426C178.395 47.9226 114.185 48.6726 77.0153 98.7026C57.7453 124.643 53.7153 153.103 53.1053 170.293C52.9453 174.783 51.1653 179.063 48.0453 182.293C43.5053 186.983 40.8853 192.533 40.8853 198.463C40.8853 203.673 42.9053 208.583 46.4753 212.873C49.1253 216.063 50.3353 220.163 50.3153 224.313C50.3153 224.333 50.3153 224.363 50.3153 224.383C50.3153 237.913 63.9253 249.383 82.7953 253.443C85.3053 253.983 87.6852 255.003 89.7452 256.533C122.085 280.473 169.305 291.273 206.165 290.543C241.045 289.853 285.135 278.483 315.485 255.693C317.365 254.283 319.515 253.313 321.785 252.713C339.045 248.123 351.205 237.173 351.205 224.383C351.205 224.363 351.205 224.333 351.205 224.313C351.195 220.163 352.395 216.063 355.045 212.873C358.605 208.573 360.635 203.673 360.635 198.463L360.615 198.473Z" fill="#F39B35"/>
<mask id="mask0_1884_9070" style="mask-type:luminance" maskUnits="userSpaceOnUse" x="40" y="47" width="321" height="244">
<path d="M360.615 198.473C360.615 193.233 358.575 188.303 354.975 183.993C352.075 180.523 350.435 176.193 350.555 171.683C350.995 154.203 348.615 124.163 329.195 97.1326C292.885 46.5726 226.275 47.3526 201.925 47.6426C178.395 47.9226 114.185 48.6726 77.0153 98.7026C57.7453 124.643 53.7153 153.103 53.1053 170.293C52.9453 174.783 51.1653 179.063 48.0453 182.293C43.5053 186.983 40.8853 192.533 40.8853 198.463C40.8853 203.673 42.9053 208.583 46.4753 212.873C49.1253 216.063 50.3353 220.163 50.3153 224.313C50.3153 224.333 50.3153 224.363 50.3153 224.383C50.3153 237.913 63.9253 249.383 82.7953 253.443C85.3053 253.983 87.6852 255.003 89.7452 256.533C122.085 280.473 169.305 291.273 206.165 290.543C241.045 289.853 285.135 278.483 315.485 255.693C317.365 254.283 319.515 253.313 321.785 252.713C339.045 248.123 351.205 237.173 351.205 224.383C351.205 224.363 351.205 224.333 351.205 224.313C351.195 220.163 352.395 216.063 355.045 212.873C358.605 208.573 360.635 203.673 360.635 198.463L360.615 198.473Z" fill="white"/>
</mask>
<g mask="url(#mask0_1884_9070)">
<path d="M33.1855 175.502C49.2955 160.252 70.6856 151.872 92.8456 151.942C100.566 151.962 100.576 139.962 92.8456 139.942C67.5056 139.862 43.0855 149.622 24.6955 167.022C19.0755 172.342 27.5755 180.812 33.1855 175.512V175.502Z" fill="#393A3A"/>
<path d="M41.5156 197.033C57.6256 181.783 79.0156 173.403 101.176 173.473C108.896 173.493 108.906 161.493 101.176 161.473C75.8356 161.393 51.4156 171.153 33.0256 188.553C27.4056 193.873 35.9056 202.343 41.5156 197.043V197.033Z" fill="#393A3A"/>
<path d="M376.785 167.022C358.395 149.622 333.975 139.862 308.635 139.942C300.915 139.962 300.895 151.962 308.635 151.942C330.805 151.872 352.185 160.262 368.295 175.502C373.905 180.812 382.405 172.342 376.785 167.012V167.022Z" fill="#393A3A"/>
<path d="M368.466 188.553C350.076 171.153 325.656 161.393 300.316 161.473C292.596 161.493 292.576 173.493 300.316 173.473C322.486 173.403 343.866 181.793 359.976 197.033C365.586 202.343 374.086 193.873 368.466 188.543V188.553Z" fill="#393A3A"/>
<path d="M198.936 34.0223C199.586 66.3823 200.236 98.7423 200.886 131.112C201.046 138.822 213.046 138.852 212.886 131.112C212.236 98.7523 211.586 66.3923 210.936 34.0223C210.776 26.3123 198.776 26.2823 198.936 34.0223Z" fill="#393A3A"/>
<path d="M175.776 73.1231C197.196 66.5931 219.796 66.3732 241.326 72.5632C248.766 74.7032 251.936 63.1232 244.516 60.9932C221.026 54.2432 195.966 54.4232 172.586 61.5532C165.216 63.8032 168.356 75.3831 175.776 73.1231Z" fill="#393A3A"/>
<path d="M175.776 96.0822C196.896 87.3722 220.066 87.1522 241.326 95.5222C248.516 98.3522 251.636 86.7522 244.516 83.9522C221.546 74.9122 195.406 75.1022 172.586 84.5122C165.546 87.4122 168.626 99.0322 175.776 96.0822Z" fill="#393A3A"/>
<path d="M175.776 119.782C196.906 111.132 220.056 110.912 241.326 119.222C248.526 122.032 251.646 110.432 244.516 107.652C221.536 98.6716 195.426 98.8715 172.586 108.212C165.536 111.102 168.626 122.712 175.776 119.782Z" fill="#393A3A"/>
</g>
<path d="M117.395 72.894C119.455 72.044 120.975 70.154 121.125 67.934C121.235 66.284 120.675 64.594 119.415 63.304C116.025 59.844 111.585 57.154 106.405 55.734C92.2554 51.844 77.9854 58.874 74.5254 71.444C72.1454 80.094 75.5155 89.124 82.4655 95.174C83.1955 95.814 84.0554 96.234 84.9454 96.454C87.2854 97.024 89.7155 95.944 91.1055 93.974C93.6255 90.384 97.4155 85.834 102.845 81.494C108.195 77.224 113.395 74.554 117.405 72.894H117.395Z" fill="white"/>
<path d="M283.105 72.894C281.045 72.044 279.525 70.154 279.375 67.934C279.265 66.284 279.825 64.594 281.085 63.304C284.475 59.844 288.915 57.154 294.095 55.734C308.245 51.844 322.515 58.874 325.975 71.444C328.355 80.094 324.985 89.124 318.035 95.174C317.305 95.814 316.445 96.234 315.555 96.454C313.215 97.024 310.785 95.944 309.395 93.974C306.875 90.384 303.085 85.834 297.655 81.494C292.305 77.224 287.105 74.554 283.095 72.894H283.105Z" fill="white"/>
<path d="M177.716 545.374C167.536 550.344 157.186 550.544 150.316 549.944C144.276 550.134 134.785 549.574 125.375 545.024C119.855 542.354 117.056 539.614 115.676 538.104C114.166 536.444 111.196 533.124 109.966 527.904C109.596 526.334 109.396 524.704 109.396 523.024C109.396 511.284 119.005 501.674 130.745 501.674H171.076C182.816 501.674 192.426 511.284 192.426 523.024C192.376 525.904 191.866 532.534 187.186 538.354C186.216 539.554 183.676 542.464 177.706 545.374H177.716Z" fill="#E67A34"/>
<path d="M295.255 545.374C285.075 550.344 274.726 550.544 267.856 549.944C261.816 550.134 252.326 549.574 242.916 545.024C237.396 542.354 234.596 539.614 233.216 538.104C231.706 536.444 228.735 533.124 227.505 527.904C227.135 526.334 226.936 524.704 226.936 523.024C226.936 511.284 236.546 501.674 248.286 501.674H288.615C300.355 501.674 309.966 511.284 309.966 523.024C309.916 525.904 309.406 532.534 304.726 538.354C303.756 539.554 301.215 542.464 295.245 545.374H295.255Z" fill="#E67A34"/>
<path d="M225.295 320.934H194.185C162.655 320.934 137.095 346.494 137.095 378.024V416.334C137.095 447.864 162.655 473.424 194.185 473.424H225.295C256.825 473.424 282.385 447.864 282.385 416.334V378.024C282.385 346.494 256.825 320.934 225.295 320.934Z" fill="#FBD7B8"/>
<path d="M330.245 336.483L397.885 296.263C412.695 287.453 417.275 270.253 408.065 258.043L406.375 255.803C397.165 243.583 377.515 240.793 362.705 249.603L295.065 289.823C280.255 298.633 275.675 315.833 284.885 328.043L286.575 330.283C295.785 342.503 315.435 345.293 330.245 336.483Z" fill="#F39B35"/>
<mask id="mask1_1884_9070" style="mask-type:luminance" maskUnits="userSpaceOnUse" x="280" y="244" width="133" height="98">
<path d="M330.245 336.483L397.885 296.263C412.695 287.453 417.275 270.253 408.065 258.043L406.375 255.803C397.165 243.583 377.515 240.793 362.705 249.603L295.065 289.823C280.255 298.633 275.675 315.833 284.885 328.043L286.575 330.283C295.785 342.503 315.435 345.293 330.245 336.483Z" fill="white"/>
</mask>
<g mask="url(#mask1_1884_9070)">
<path d="M309.645 220.622C311.695 245.852 323.065 269.522 341.995 286.422C347.745 291.552 356.255 283.092 350.485 277.932C333.985 263.202 323.445 242.742 321.645 220.622C321.025 212.982 309.015 212.912 309.645 220.622Z" fill="#393A3A"/>
<path d="M290.705 233.102C292.755 258.332 304.125 282.002 323.055 298.902C328.805 304.032 337.315 295.572 331.545 290.412C315.045 275.682 304.505 255.222 302.705 233.102C302.085 225.462 290.075 225.392 290.705 233.102Z" fill="#393A3A"/>
<path d="M330.225 210.172C332.275 235.402 343.645 259.072 362.575 275.972C368.325 281.102 376.835 272.642 371.065 267.482C354.565 252.752 344.025 232.292 342.225 210.172C341.605 202.532 329.595 202.462 330.225 210.172Z" fill="#393A3A"/>
</g>
<path d="M82.5754 336.483L14.9354 296.263C0.125351 287.453 -4.4547 270.253 4.7553 258.043L6.44536 255.803C15.6554 243.583 35.3053 240.793 50.1153 249.603L117.755 289.823C132.565 298.633 137.145 315.833 127.935 328.043L126.245 330.283C117.035 342.503 97.3854 345.293 82.5754 336.483Z" fill="#F39B35"/>
<mask id="mask2_1884_9070" style="mask-type:luminance" maskUnits="userSpaceOnUse" x="0" y="244" width="133" height="98">
<path d="M82.5754 336.483L14.9354 296.263C0.125351 287.453 -4.4547 270.253 4.7553 258.043L6.44536 255.803C15.6554 243.583 35.3053 240.793 50.1153 249.603L117.755 289.823C132.565 298.633 137.145 315.833 127.935 328.043L126.245 330.283C117.035 342.503 97.3854 345.293 82.5754 336.483Z" fill="white"/>
</mask>
<g mask="url(#mask2_1884_9070)">
<path d="M91.185 220.621C89.385 242.741 78.845 263.201 62.345 277.931C56.575 283.081 65.085 291.551 70.835 286.421C89.765 269.521 101.135 245.851 103.185 220.621C103.815 212.921 91.805 212.961 91.185 220.621Z" fill="#393A3A"/>
<path d="M110.125 233.102C108.325 255.222 97.7855 275.682 81.2855 290.412C75.5155 295.562 84.0255 304.032 89.7755 298.902C108.705 282.002 120.075 258.332 122.125 233.102C122.755 225.402 110.745 225.442 110.125 233.102Z" fill="#393A3A"/>
<path d="M70.5953 210.172C68.7953 232.292 58.2552 252.752 41.7552 267.482C35.9852 272.632 44.4952 281.102 50.2452 275.972C69.1752 259.072 80.5453 235.402 82.5953 210.172C83.2253 202.472 71.2153 202.512 70.5953 210.172Z" fill="#393A3A"/>
</g>
<path d="M125.265 159.974C125.265 159.974 148.895 125.684 174.705 159.974" stroke="#1B1B1B" stroke-width="7" stroke-miterlimit="10" stroke-linecap="round"/>
<path d="M232.915 159.974C232.915 159.974 256.545 125.684 282.355 159.974" stroke="#1B1B1B" stroke-width="7" stroke-miterlimit="10" stroke-linecap="round"/>
<path d="M206.065 209.955C213.831 209.955 220.125 204.363 220.125 197.465C220.125 190.567 213.831 184.975 206.065 184.975C198.3 184.975 192.005 190.567 192.005 197.465C192.005 204.363 198.3 209.955 206.065 209.955Z" fill="#EE85A8"/>
<path d="M241.785 179.304C238.345 173.424 232.785 171.094 228.645 169.434C222.485 166.954 216.795 166.934 205.655 166.984C194.265 167.044 188.435 167.123 182.215 169.883C178.585 171.493 173.565 173.804 170.345 179.304C169.335 181.034 165.225 188.034 168.665 194.914C171.335 200.264 177.155 202.844 181.855 202.924C187.355 203.014 191.475 199.704 196.345 195.784C198.905 193.724 200.805 191.724 202.095 190.234C204.305 188.094 207.825 188.094 210.035 190.234C211.245 191.384 213.275 193.324 215.785 195.784C219.455 199.394 220.325 200.354 222.105 201.284C225.695 203.174 229.245 202.994 230.285 202.914C236.085 202.494 241.235 199.384 243.475 194.904C246.915 188.014 242.795 180.994 241.795 179.294L241.785 179.304Z" fill="white"/>
<path d="M201.275 175.845L196.555 169.555C193.595 165.605 196.415 159.975 201.345 159.975H210.775C215.705 159.975 218.525 165.605 215.565 169.555L210.845 175.845C208.455 179.035 203.665 179.035 201.265 175.845H201.275Z" fill="#393A3A"/>
</svg>
