<svg width="525" height="569" viewBox="0 0 525 569" fill="none" xmlns="http://www.w3.org/2000/svg">
<path d="M228.791 516.281H155.621C143.824 516.281 134.261 525.844 134.261 537.641V546.781C134.261 558.578 143.824 568.141 155.621 568.141H228.791C240.588 568.141 250.151 558.578 250.151 546.781V537.641C250.151 525.844 240.588 516.281 228.791 516.281Z" fill="#F7F7F7"/>
<path d="M362.061 516.281H288.891C277.094 516.281 267.531 525.844 267.531 537.641V546.781C267.531 558.578 277.094 568.141 288.891 568.141H362.061C373.858 568.141 383.421 558.578 383.421 546.781V537.641C383.421 525.844 373.858 516.281 362.061 516.281Z" fill="#F7F7F7"/>
<path d="M176.041 356.7L116.401 305.36C103.341 294.12 85.5812 295.24 76.9212 307.86L75.3312 310.17C66.6812 322.79 70.2812 342.31 83.3412 353.55L142.981 404.89C156.041 416.13 173.801 415.01 182.461 402.39L184.051 400.08C192.701 387.46 189.101 367.94 176.041 356.7Z" fill="#F7F7F7"/>
<path d="M333.291 356.202L394.461 303.662C407.851 292.162 425.881 293.082 434.511 305.712L436.091 308.032C444.731 320.662 440.831 340.412 427.441 351.912L366.271 404.452C352.881 415.952 334.851 415.032 326.221 402.402L324.641 400.082C316.001 387.452 319.901 367.702 333.291 356.202Z" fill="#F7F7F7"/>
<path d="M367.611 526.24H143.071C113.081 526.24 95.461 495.2 103.191 460.6L129.641 342.1C134.461 320.49 155.391 304 176.461 304H334.221C355.291 304 376.221 320.49 381.041 342.1L407.491 460.6C415.211 495.2 397.601 526.24 367.611 526.24Z" fill="#F6C0D7"/>
<path d="M70.9211 26.7808C120.911 21.3308 175.201 58.4608 178.101 110.011C178.821 122.831 176.271 135.011 171.321 146.101C187.201 129.491 197.301 107.761 195.951 83.7608C193.051 32.2108 138.761 -4.9192 88.7711 0.530803C53.7911 4.3408 23.0511 28.7708 8.66113 59.1908C24.7711 41.8008 46.8411 29.4008 70.9211 26.7808Z" fill="#F7F7F7"/>
<path d="M2.68112 116.011C15.2211 161.181 69.0811 186.031 115.021 177.121C135.791 173.091 156.181 161.921 171.321 146.101C176.271 135.011 178.821 122.831 178.101 110.011C175.211 58.4608 120.921 21.3308 70.9211 26.7808C46.8411 29.4008 24.7711 41.8008 8.66112 59.1908C0.211122 77.0508 -2.60888 96.9808 2.68112 116.011Z" fill="#FADDE9"/>
<path d="M348.671 107.911C351.561 56.3606 405.851 19.2306 455.851 24.6806C476.661 26.9506 495.981 36.5106 511.241 50.3006C495.461 24.1106 467.401 3.97057 435.901 0.540568C385.911 -4.90943 331.621 32.2206 328.721 83.7706C327.201 110.781 340.181 134.931 359.601 152.121C351.981 138.961 347.771 123.951 348.671 107.921V107.911Z" fill="#F7F7F7"/>
<path d="M521.991 116.011C528.171 93.7414 523.281 70.2614 511.241 50.2914C495.981 36.5114 476.661 26.9414 455.851 24.6714C405.861 19.2214 351.571 56.3514 348.671 107.901C347.771 123.931 351.981 138.951 359.601 152.101C373.871 164.741 391.621 173.621 409.651 177.111C455.581 186.011 509.441 161.171 521.991 116.001V116.011Z" fill="#FADDE9"/>
<path d="M410.961 208.632C411.581 239.402 394.121 262.552 389.051 269.092C350.831 318.372 281.011 318.182 258.311 318.112C205.611 317.962 113.851 298.572 96.9412 239.722C87.4712 206.752 105.751 176.242 114.281 161.992C141.221 117.022 197.041 82.7216 258.301 84.6116C335.501 87.0016 409.701 146.512 410.941 208.632H410.961Z" fill="#F7F7F7"/>
<path d="M286.081 207.031C285.421 218.181 269.181 226.531 255.861 226.421C242.411 226.301 225.881 217.501 225.641 205.891C225.401 194.351 241.361 184.411 255.111 184.231C270.061 184.041 286.771 195.321 286.081 207.031Z" fill="#FADDE9"/>
<path d="M263.091 196.881C262.941 199.611 258.901 201.611 255.641 201.611C252.381 201.611 248.351 199.601 248.191 196.881C248.031 194.071 252.041 191.361 255.641 191.361C259.241 191.361 263.241 194.071 263.091 196.881Z" fill="#EC79A4"/>
<path d="M164.041 187.521C164.041 187.521 187.671 153.231 213.481 187.521" stroke="#1B1B1B" stroke-width="7" stroke-miterlimit="10" stroke-linecap="round"/>
<path d="M298.251 187.521C298.251 187.521 321.881 153.231 347.691 187.521" stroke="#1B1B1B" stroke-width="7" stroke-miterlimit="10" stroke-linecap="round"/>
</svg>
