<svg width="532" height="545" viewBox="0 0 532 545" fill="none" xmlns="http://www.w3.org/2000/svg">
<path d="M373.507 504.861C348.877 521.841 320.377 522.161 268.177 522.191C214.387 522.221 185.237 522.241 160.307 504.861C154.817 501.031 133.967 485.511 123.507 440.951C105.757 365.381 139.197 297.011 160.307 262.221H373.507C394.607 296.141 427.177 361.621 411.487 436.231C406.817 458.411 400.497 486.241 373.507 504.851V504.861Z" fill="#2F79AC"/>
<path d="M173.657 327.261C184.687 309.911 168.797 282.651 141.917 268.381L78.4666 234.681C62.2066 226.041 44.3366 228.961 37.0666 240.401C29.7966 251.841 34.7266 269.251 49.4466 280.321L106.877 323.491C131.197 341.781 162.627 344.611 173.657 327.261Z" fill="#2F79AC"/>
<path d="M356.447 328.12C345.417 310.77 361.307 283.51 388.187 269.24L451.637 235.54C467.897 226.9 485.767 229.82 493.037 241.26C500.307 252.7 495.377 270.11 480.657 281.18L423.227 324.35C398.907 342.64 367.477 345.47 356.447 328.12Z" fill="#2F79AC"/>
<path d="M441.897 154.48C444.377 145.95 445.687 137.12 445.687 128.06C445.687 57.33 366.167 0 268.077 0C169.987 0 90.4667 57.34 90.4667 128.06C90.4667 137.12 91.7767 145.95 94.2567 154.48C83.2267 166.55 76.5967 182.02 76.5967 198.88C78.7167 212.59 84.1167 231.56 99.2767 248.27C131.607 283.88 185.737 284.34 271.027 283.91C354.517 283.49 405.667 282.54 436.887 248.27C452.277 231.37 457.537 212.18 459.567 198.88C459.567 182.01 452.937 166.55 441.907 154.48H441.897Z" fill="#2F79AC"/>
<path d="M418.327 160.601C417.507 159.451 416.607 158.321 415.677 157.211C416.797 151.131 417.407 144.821 417.407 138.341C417.407 90.3609 385.036 51.4609 345.096 51.4609C314.376 51.4609 288.137 74.4809 277.657 106.941C276.647 110.071 273.327 112.211 269.617 112.161C268.537 112.151 267.447 112.141 266.367 112.131C262.717 112.121 259.487 110.001 258.487 106.921C248.007 74.4709 221.767 51.4609 191.057 51.4609C151.117 51.4609 118.747 90.3609 118.747 138.341C118.747 144.681 119.327 150.861 120.407 156.821C119.747 157.641 119.097 158.461 118.487 159.301C114.827 164.371 102.617 181.271 106.087 201.831C110.247 226.421 134.287 241.151 142.517 246.191C158.697 256.101 178.017 262.251 259.147 262.741C364.067 263.371 384.997 253.411 398.067 244.361C405.087 239.501 427.306 224.121 430.336 200.001C432.746 180.811 421.827 165.501 418.327 160.601Z" fill="white"/>
<path d="M293.687 190.93L276.477 197.6C271.247 199.63 265.437 199.6 260.207 197.53L243.697 190.98C236.517 188.13 235.497 178.39 241.927 174.14L256.237 164.68C263.927 159.6 273.927 159.63 281.597 164.77L295.517 174.1C301.937 178.4 300.877 188.14 293.687 190.93Z" fill="#FBC200"/>
<path d="M315.107 161.496C317.441 158.879 316.372 154.117 312.72 150.86C309.067 147.604 304.215 147.086 301.881 149.704C299.547 152.321 300.616 157.083 304.268 160.34C307.92 163.596 312.773 164.114 315.107 161.496Z" fill="#262727"/>
<path d="M232.022 160.466C235.675 157.21 236.744 152.448 234.41 149.83C232.076 147.212 227.223 147.73 223.571 150.987C219.918 154.243 218.85 159.005 221.183 161.622C223.517 164.24 228.37 163.722 232.022 160.466Z" fill="#262727"/>
<path d="M297.167 123.74C300.417 127.21 305.607 131.92 313.037 135.78C322.797 140.85 331.817 142.05 337.117 142.35" stroke="#484747" stroke-width="4.78" stroke-miterlimit="10" stroke-linecap="round"/>
<path d="M242.097 123.74C238.847 127.21 233.657 131.92 226.227 135.78C216.467 140.85 207.447 142.05 202.147 142.35" stroke="#484747" stroke-width="4.78" stroke-miterlimit="10" stroke-linecap="round"/>
<path d="M350.707 500.471H324.477C304.517 500.471 288.347 513.321 288.347 529.181V531.671H288.507C288.507 538.711 295.687 544.421 304.547 544.421H307.997C313.107 544.421 317.587 542.301 320.137 539.111C320.787 538.301 322.267 538.301 322.917 539.111C325.467 542.301 329.947 544.421 335.057 544.421H340.147C345.257 544.421 349.737 542.301 352.287 539.111C352.937 538.301 354.417 538.301 355.067 539.111C357.617 542.301 362.097 544.421 367.207 544.421H370.657C379.517 544.421 386.697 538.711 386.697 531.671H386.857V529.181C386.857 513.321 370.677 500.471 350.727 500.471H350.707Z" fill="#FBC200"/>
<path d="M214.187 500.471H187.957C167.997 500.471 151.827 513.321 151.827 529.181V531.671H151.987C151.987 538.711 159.167 544.421 168.027 544.421H171.477C176.587 544.421 181.067 542.301 183.617 539.111C184.267 538.301 185.747 538.301 186.397 539.111C188.947 542.301 193.427 544.421 198.537 544.421H203.627C208.737 544.421 213.217 542.301 215.767 539.111C216.417 538.301 217.897 538.301 218.547 539.111C221.097 542.301 225.577 544.421 230.687 544.421H234.137C242.997 544.421 250.177 538.711 250.177 531.671H250.337V529.181C250.337 513.321 234.157 500.471 214.207 500.471H214.187Z" fill="#FBC200"/>
<path d="M200.367 381.619H337.177C345.507 381.619 352.277 388.389 352.277 396.719V402.949C352.277 443.519 319.337 476.459 278.767 476.459H258.767C218.197 476.459 185.257 443.519 185.257 402.949V396.719C185.257 388.389 192.027 381.619 200.357 381.619H200.367Z" fill="white"/>
<path d="M63.1467 211.551L44.1967 216.471L33.6367 169.871L49.4268 165.771L63.1467 211.551Z" fill="#A0A0A0"/>
<path d="M44.2909 177.884C59.1888 174.015 67.3896 155.954 62.6079 137.544C57.8262 119.134 41.8728 107.347 26.9749 111.216C12.0771 115.086 3.87632 133.147 8.658 151.557C13.4397 169.966 29.3931 181.754 44.2909 177.884Z" fill="#A0A0A0"/>
<path d="M55.9388 198.048L43.9274 201.168C39.3624 202.353 36.6228 207.015 37.8085 211.58L53.0128 270.118C54.1985 274.683 58.8605 277.422 63.4255 276.237L75.4369 273.117C80.002 271.931 82.7415 267.269 81.5558 262.704L66.3515 204.167C65.1658 199.602 60.5039 196.862 55.9388 198.048Z" fill="#C5123F"/>
<path d="M49.6668 129.471C49.4168 130.191 49.4168 130.961 49.6068 131.701C50.5368 135.281 54.7668 153.411 47.3568 162.901C41.1668 170.821 51.8368 170.251 55.4168 164.291C59.8868 156.841 62.3868 142.101 55.4668 130.471C53.1168 126.511 50.4568 127.231 49.6668 129.471Z" fill="#B7B7B8"/>
<path d="M495.477 210.711L476.497 205.891L489.687 159.971L505.497 163.981L495.477 210.711Z" fill="#A0A0A0"/>
<path d="M495.635 195.48L483.606 192.427C479.035 191.267 474.388 194.032 473.228 198.604L458.351 257.225C457.191 261.797 459.956 266.444 464.528 267.604L476.556 270.656C481.128 271.817 485.774 269.051 486.935 264.48L501.812 205.858C502.972 201.286 500.207 196.64 495.635 195.48Z" fill="#EAE373"/>
<path d="M527.417 117.471C524.117 128.641 519.087 136.621 515.667 135.761C511.947 134.821 514.317 123.521 512.757 110.471C512.537 108.661 512.367 106.981 512.237 105.411C512.187 105.401 512.147 105.381 512.097 105.371C511.997 105.351 511.907 105.321 511.807 105.301C511.077 106.641 510.227 108.061 509.247 109.581C502.107 120.611 498.197 131.321 494.477 130.381C491.057 129.511 490.447 120.101 492.867 108.711C485.367 113.321 479.237 121.581 476.617 131.901C471.937 150.331 480.247 168.351 495.157 172.131C510.067 175.911 525.957 164.041 530.637 145.611C533.257 135.291 531.807 125.111 527.407 117.481L527.417 117.471Z" fill="white"/>
<path d="M527.417 117.471C524.117 128.641 519.087 136.621 515.667 135.761C511.947 134.821 514.317 123.521 512.757 110.471C512.537 108.661 512.367 106.981 512.237 105.411C512.187 105.401 512.147 105.381 512.097 105.371C511.997 105.351 511.907 105.321 511.807 105.301C511.077 106.641 510.227 108.061 509.247 109.581C502.107 120.611 498.197 131.321 494.477 130.381C491.057 129.511 490.447 120.101 492.867 108.711C485.367 113.321 479.237 121.581 476.617 131.901C471.937 150.331 480.247 168.351 495.157 172.131C510.067 175.911 525.957 164.041 530.637 145.611C533.257 135.291 531.807 125.111 527.407 117.481L527.417 117.471Z" fill="#A0A0A0"/>
<path d="M522.477 139.791C521.907 140.181 521.517 140.741 521.327 141.361C520.357 144.361 515.027 159.331 503.937 162.631C494.677 165.391 504.167 170.011 510.197 167.431C517.747 164.211 527.197 154.831 526.987 143.241C526.917 139.301 524.267 138.561 522.477 139.791Z" fill="#B7B7B8"/>
<path d="M268.717 186.13C281.265 186.13 291.437 184.146 291.437 181.7C291.437 179.253 281.265 177.27 268.717 177.27C256.169 177.27 245.997 179.253 245.997 181.7C245.997 184.146 256.169 186.13 268.717 186.13Z" fill="#EE85A8"/>
<path d="M307.367 205.929C307.367 215.799 302.777 218.539 297.107 218.539C291.437 218.539 286.847 215.799 286.847 205.929C286.847 196.059 297.107 182.789 297.107 182.789C297.107 182.789 307.367 196.059 307.367 205.929Z" fill="#B6E0ED"/>
</svg>
