<svg width="651" height="752" viewBox="0 0 651 752" fill="none" xmlns="http://www.w3.org/2000/svg">
<path d="M288.48 707.89C276.96 713.51 265.24 713.74 257.47 713.06C250.63 713.27 239.89 712.64 229.24 707.49C222.99 704.47 219.82 701.37 218.26 699.65C216.56 697.78 213.19 694.01 211.8 688.1C211.38 686.33 211.16 684.48 211.16 682.58C211.16 669.29 222.04 658.41 235.33 658.41H280.98C294.27 658.41 305.15 669.29 305.15 682.58C305.1 685.84 304.51 693.34 299.22 699.93C298.13 701.29 295.25 704.58 288.49 707.88L288.48 707.89Z" fill="#7F7F7F"/>
<path d="M421.52 707.89C410 713.51 398.28 713.74 390.51 713.06C383.67 713.27 372.93 712.64 362.28 707.49C356.03 704.47 352.86 701.37 351.3 699.65C349.6 697.78 346.23 694.01 344.84 688.1C344.42 686.33 344.2 684.48 344.2 682.58C344.2 669.29 355.08 658.41 368.37 658.41H414.02C427.31 658.41 438.19 669.29 438.19 682.58C438.14 685.84 437.55 693.34 432.26 699.93C431.17 701.29 428.29 704.58 421.53 707.88L421.52 707.89Z" fill="#7F7F7F"/>
<path d="M443.12 675.1H197.97C181.89 675.1 169.14 661.54 170.12 645.49L181.08 467.51C183.45 428.99 215.38 398.97 253.97 398.97H387.1C425.69 398.97 457.62 428.99 459.99 467.51L470.95 645.49C471.94 661.54 459.19 675.1 443.1 675.1H443.12Z" fill="white"/>
<path d="M268.51 478.82C274.37 478.82 279.12 474.07 279.12 468.21C279.12 462.35 274.37 457.6 268.51 457.6C262.651 457.6 257.9 462.35 257.9 468.21C257.9 474.07 262.651 478.82 268.51 478.82Z" fill="#E8E8E8"/>
<path d="M360.92 478.82C366.779 478.82 371.53 474.07 371.53 468.21C371.53 462.35 366.779 457.6 360.92 457.6C355.06 457.6 350.31 462.35 350.31 468.21C350.31 474.07 355.06 478.82 360.92 478.82Z" fill="#E8E8E8"/>
<path d="M268.51 516.33C274.37 516.33 279.12 511.58 279.12 505.72C279.12 499.86 274.37 495.11 268.51 495.11C262.651 495.11 257.9 499.86 257.9 505.72C257.9 511.58 262.651 516.33 268.51 516.33Z" fill="#E8E8E8"/>
<path d="M360.92 516.33C366.779 516.33 371.53 511.58 371.53 505.72C371.53 499.86 366.779 495.11 360.92 495.11C355.06 495.11 350.31 499.86 350.31 505.72C350.31 511.58 355.06 516.33 360.92 516.33Z" fill="#E8E8E8"/>
<path d="M268.51 556.93C274.37 556.93 279.12 552.18 279.12 546.32C279.12 540.46 274.37 535.71 268.51 535.71C262.651 535.71 257.9 540.46 257.9 546.32C257.9 552.18 262.651 556.93 268.51 556.93Z" fill="#E8E8E8"/>
<path d="M360.92 556.93C366.779 556.93 371.53 552.18 371.53 546.32C371.53 540.46 366.779 535.71 360.92 535.71C355.06 535.71 350.31 540.46 350.31 546.32C350.31 552.18 355.06 556.93 360.92 556.93Z" fill="#E8E8E8"/>
<path d="M467.92 590.27C428.17 597.13 377.83 602.56 321.56 602.66C263.94 602.76 213.78 597.1 173.36 590.12C173.36 585.01 174.17 580.3 174.17 575.19C215.12 581.86 264.4 586.73 321.56 586.63C377.38 586.53 426.39 581.34 466.64 574.79C466.64 579.9 467.91 585.16 467.91 590.27H467.92Z" fill="#E8E8E8"/>
<path d="M648.85 718.81C434.13 721.37 219.41 723.93 4.69 726.49C3.18 723.16 1.29 718.09 0.44 711.67C0.28 710.45 0 708.02 0 701.86C0 697.34 0.15 691.08 0.8 683.51H650C650.73 689.64 651.11 696.93 650.57 705.08C650.24 710.09 649.61 714.68 648.84 718.8L648.85 718.81Z" fill="#E5BD7F"/>
<path d="M607.83 751.34H42.88C14.16 751.34 -6.08998 723.16 3.08002 695.94L39.11 588.98C44.86 571.9 60.88 560.39 78.91 560.39H571.8C589.83 560.39 605.84 571.89 611.6 588.98L647.63 695.94C656.8 723.16 636.55 751.34 607.83 751.34Z" fill="#E5BD7F"/>
<path d="M607.83 724.81H42.88C14.16 724.81 -6.08998 696.63 3.08002 669.41L39.11 562.45C44.86 545.37 60.88 533.86 78.91 533.86H571.8C589.83 533.86 605.84 545.36 611.6 562.45L647.63 669.41C656.8 696.63 636.55 724.81 607.83 724.81Z" fill="#F4D5A4"/>
<mask id="mask0_1816_15000" style="mask-type:luminance" maskUnits="userSpaceOnUse" x="0" y="533" width="650" height="192">
<path d="M607.83 724.81H42.88C14.16 724.81 -6.08998 696.63 3.08002 669.41L39.11 562.45C44.86 545.37 60.88 533.86 78.91 533.86H571.8C589.83 533.86 605.84 545.36 611.6 562.45L647.63 669.41C656.8 696.63 636.55 724.81 607.83 724.81Z" fill="white"/>
</mask>
<g mask="url(#mask0_1816_15000)">
<path d="M32.6895 571.52C44.3895 571.51 56.2595 572.03 67.7495 569.42C73.4395 568.13 79.0395 565.98 83.8095 562.58C89.0195 558.87 92.9995 553.94 95.5395 548.07C98.4395 541.35 99.6095 534.09 101.819 527.14C102.519 524.93 99.0494 523.98 98.3494 526.18C96.4594 532.11 95.3795 538.28 93.2495 544.14C91.1195 550 87.8495 554.92 83.0295 558.71C74.2095 565.64 62.4495 567.32 51.5695 567.8C45.2795 568.07 38.9795 567.92 32.6795 567.93C30.3595 567.93 30.3595 571.53 32.6795 571.53L32.6895 571.52Z" fill="#EAC696"/>
<path d="M23.88 594.5C43.82 595.62 63.92 591.73 82.07 583.4C98.95 575.65 113.95 563.88 125.61 549.44C132.07 541.45 137.53 532.7 141.8 523.35C142.75 521.26 139.65 519.43 138.69 521.53C131.31 537.7 120.35 552.1 106.75 563.54C92.28 575.71 74.89 584.15 56.45 588.26C45.77 590.64 34.8 591.51 23.88 590.9C21.57 590.77 21.57 594.37 23.88 594.5Z" fill="#EAC696"/>
<path d="M6.74929 619.88C25.1093 623.44 44.0093 623.54 62.4193 620.3C80.3893 617.14 97.6993 610.71 113.409 601.43C127.319 593.22 139.989 583.09 152.319 572.71C164.739 562.26 176.849 551.41 189.859 541.69C202.469 532.26 216.009 523.81 230.869 518.43C232.739 517.75 234.639 517.12 236.539 516.54C238.749 515.86 237.809 512.39 235.579 513.07C220.389 517.73 206.409 525.49 193.469 534.63C180.349 543.91 168.209 554.47 155.999 564.88C143.789 575.29 131.449 585.64 117.959 594.37C103.079 604.01 86.8393 611.16 69.5393 615.18C51.5893 619.35 32.7893 620.25 14.5393 617.58C12.2393 617.24 9.95929 616.85 7.67929 616.41C5.39929 615.97 4.44929 619.44 6.71929 619.88H6.74929Z" fill="#EAC696"/>
<path d="M-5.35027 659.89C19.0697 662.17 44.1397 664.37 68.3297 658.98C80.1097 656.36 91.2197 651.72 101.42 645.28C111.62 638.84 120.64 631.21 129.84 623.66C138.99 616.15 148.35 609 158.29 602.56C168.23 596.12 178.29 590.4 188.65 584.96C209.38 574.09 230.82 564.66 252.03 554.77C273.24 544.88 294.32 534.46 314.03 521.75C316.45 520.19 318.85 518.59 321.22 516.96C323.12 515.66 321.32 512.54 319.4 513.85C300.13 527.08 279.33 537.85 258.25 547.87C237.1 557.92 215.61 567.26 194.7 577.81C173.79 588.36 153.92 599.96 135.68 614.34C126.32 621.72 117.39 629.63 107.74 636.63C98.0897 643.63 87.6697 649.56 76.2097 653.16C52.7497 660.51 27.6497 659.2 3.48973 657.1C0.539729 656.84 -2.40027 656.57 -5.34027 656.3C-7.64027 656.08 -7.63027 659.68 -5.34027 659.9L-5.35027 659.89Z" fill="#EAC696"/>
<path d="M74.7899 731.73C90.5199 737.18 107.69 735.26 122.99 729.35C139.19 723.1 153.07 712.76 165.7 701.03C178.79 688.88 190.63 675.46 203.84 663.43C216.44 651.96 230.39 642.11 245.11 633.57C259.89 625 275.38 617.71 291.13 611.14C306.92 604.55 322.99 598.65 339.07 592.8C355.15 586.95 370.44 581.48 385.9 575.23C401.36 568.98 415.5 562.66 429.7 555.15C443.84 547.67 457.48 539.22 470.14 529.42C482.57 519.81 494 508.87 503.7 496.5C506.09 493.45 508.38 490.33 510.56 487.13C511.87 485.21 508.75 483.41 507.45 485.31C498.66 498.2 488.01 509.73 476.18 519.88C464.35 530.03 451.21 538.91 437.6 546.69C423.69 554.65 409.19 561.55 394.44 567.82C379.69 574.09 364.44 579.74 349.27 585.26C333.19 591.11 317.08 596.88 301.17 603.19C285.42 609.43 269.85 616.19 254.84 624.08C239.96 631.9 225.68 640.86 212.51 651.32C199.34 661.78 186.74 675.12 174.37 687.57C162 700.02 149.44 711.81 134.2 720.17C119.98 727.97 103.55 732.91 87.2199 730.94C83.3099 730.47 79.4599 729.53 75.7499 728.24C73.5599 727.48 72.6199 730.95 74.7899 731.71V731.73Z" fill="#EAC696"/>
<path d="M589.16 736.93C569 734.76 547.5 732.37 530.37 720.53C516.99 711.29 506.73 693.53 510.4 676.93C514.49 658.46 533.92 650.53 550.5 646.83C570.63 642.34 591.64 641.63 612.05 644.56C632.51 647.49 652.47 653.97 670.62 663.86C672.85 665.08 675.05 666.35 677.23 667.66C679.22 668.86 681.03 665.75 679.05 664.55C660.67 653.45 640.21 645.83 619.07 642.06C597.89 638.28 576.09 638.26 554.94 642.25C537.07 645.62 516.11 652.44 508.57 670.77C501.59 687.74 510.1 707.44 522.92 719.15C538.57 733.45 560.88 737.24 581.17 739.63C583.83 739.94 586.49 740.23 589.16 740.52C590.13 740.62 590.95 739.62 590.96 738.72C590.97 737.66 590.12 737.02 589.16 736.92V736.93Z" fill="#EAC696"/>
<path d="M622.94 736.58C607.01 733.64 591.649 727.99 577.649 719.84C566.119 713.13 550.599 703.41 551.339 688.09C551.979 674.96 565.679 663.03 578.739 664.24C585.739 664.89 592.24 668.77 598.38 671.87C604.03 674.72 609.77 677.36 615.69 679.62C629.22 684.8 643.4 688.07 657.77 689.85C659.96 690.12 662.159 690.35 664.359 690.56C666.559 690.77 666.649 687.17 664.359 686.96C648.909 685.54 633.609 682.36 619.029 677.04C613.069 674.87 607.29 672.3 601.62 669.47C594.98 666.15 588.169 662.06 580.729 660.89C566.509 658.66 551.91 669.59 548.45 683.3C546.62 690.55 548.45 698.05 552.68 704.12C557.09 710.45 563.349 715.02 569.739 719.18C583.779 728.33 599.48 735.01 615.82 738.77C617.86 739.24 619.919 739.66 621.979 740.04C624.239 740.46 625.21 736.99 622.94 736.57V736.58Z" fill="#EAC696"/>
<path d="M537.289 527.57C535.519 536.58 532 545.15 526.89 552.78C524.29 556.67 521.269 560.24 517.939 563.52C514.469 566.94 510.75 570.08 507.2 573.41C500.43 579.77 494.069 587.36 492.419 596.79C491.009 604.85 493.669 612.82 500.139 617.94C505.939 622.53 513.609 624.62 520.939 624.16C529.839 623.6 538.109 619.32 545.189 614.13C559.999 603.28 571.639 586.74 590.119 581.81C599.729 579.24 609.8 579.57 619.52 577.58C627.33 575.98 635.459 572.72 640.779 566.55C642.089 565.04 643.209 563.39 644.109 561.6C645.139 559.54 642.039 557.71 640.999 559.78C637.469 566.82 630.359 570.83 623.039 572.99C614.069 575.64 604.599 575.54 595.419 577.02C590.709 577.78 586.139 579.02 581.779 580.97C577.749 582.78 573.99 585.16 570.46 587.8C563.27 593.18 556.989 599.59 550.229 605.47C543.549 611.28 536.159 616.77 527.549 619.3C520.679 621.32 513.139 621.01 506.659 617.8C500.179 614.59 495.67 608.77 495.6 601.43C495.51 592.32 501.189 584.39 507.369 578.23C514.009 571.6 521.469 565.92 527.229 558.43C532.619 551.42 536.7 543.41 539.2 534.93C539.82 532.81 540.34 530.67 540.76 528.5C541.18 526.33 537.739 525.27 537.289 527.54V527.57Z" fill="#EAC696"/>
<path d="M363.6 615.46C370.93 617.09 378.65 616.38 385.58 613.5C392.4 610.66 399.37 605.54 402.36 598.57C403.89 595 404.08 591.04 402.19 587.57C400.56 584.56 397.4 582.26 393.88 582.44C390.36 582.62 387.37 585.03 385.09 587.68C382.56 590.63 380.32 593.73 377.48 596.41C374.15 599.55 370.43 601.99 366.45 604.22C362.47 606.45 358.95 610.18 361.14 614.83C362.12 616.92 365.23 615.1 364.25 613.01C363.65 611.74 364.47 610.24 365.36 609.34C366.57 608.11 368.2 607.37 369.69 606.53C372.76 604.81 375.65 602.78 378.32 600.48C380.99 598.18 383.3 595.67 385.44 592.94C387.23 590.65 389.08 588.01 391.72 586.64C394.18 585.37 396.83 586.17 398.46 588.33C400.34 590.81 400.34 593.96 399.23 596.77C396.9 602.71 390.86 607.14 385.25 609.72C378.84 612.66 371.45 613.49 364.56 611.96C362.3 611.46 361.34 614.93 363.6 615.43V615.46Z" fill="#EAC696"/>
<path d="M513.559 525.57C498.889 530.17 488.529 542.78 481.759 556.04C477.619 564.14 474.479 572.69 471.069 581.1C467.659 589.51 463.879 597.45 459.019 604.99C449.319 620.01 436.809 633.03 424.819 646.2C411.749 660.57 398.619 674.88 385.429 689.14C372.179 703.46 358.879 717.73 345.509 731.93C343.869 733.67 342.239 735.41 340.599 737.14C338.959 738.87 341.549 741.37 343.139 739.68C356.409 725.6 369.619 711.47 382.769 697.29C395.859 683.17 408.899 668.99 421.879 654.75C434.029 641.42 446.709 628.33 457.349 613.73C462.509 606.65 467.019 599.15 470.649 591.17C474.279 583.19 477.399 574.46 480.969 566.19C486.979 552.27 495.379 537.9 509.529 530.98C511.149 530.19 512.819 529.54 514.529 529.01C516.729 528.32 515.789 524.84 513.569 525.54L513.559 525.57Z" fill="#EAC696"/>
<path d="M219.19 740.85C225.83 728.04 233.96 716.03 243.42 705.14C252.88 694.25 263.57 684.43 275.29 676.03C281.13 671.84 287.21 668 293.51 664.53C296.4 662.94 299.31 661.47 302.51 660.61C305.22 659.88 308.29 659.46 310.98 660.52C318.15 663.34 315.01 672.71 313.19 677.99C310.27 686.46 307.35 694.93 304.42 703.4C298.55 720.42 292.68 737.44 286.81 754.46C286.08 756.58 285.35 758.7 284.62 760.81C283.89 762.92 287.34 763.95 288.09 761.77C294.2 744.04 300.32 726.32 306.43 708.59C309.46 699.8 312.49 691.02 315.52 682.23C317.85 675.49 321.73 666.6 316.49 660.21C312.13 654.9 304.39 655.9 298.68 658.06C295.39 659.3 292.32 661.03 289.27 662.78C285.98 664.66 282.75 666.65 279.58 668.73C267.06 676.97 255.52 686.72 245.3 697.69C235.08 708.66 226.07 720.95 218.75 734.1C217.84 735.73 216.96 737.37 216.11 739.02C215.05 741.07 218.15 742.9 219.22 740.84L219.19 740.85Z" fill="#EAC696"/>
<path d="M635.63 732.4C629.16 732.07 622.73 730.53 616.84 727.82C610.95 725.11 605.44 721.61 601.4 716.82C599.49 714.55 598.08 711.59 598.7 708.57C599.27 705.73 601.59 704.09 604.41 703.98C607.61 703.86 610.49 705.43 613.14 707.06C616.32 709.02 619.45 711.06 622.6 713.06C630.04 717.79 637.47 722.51 644.91 727.24C646.87 728.49 648.68 725.37 646.73 724.13C639.43 719.49 632.14 714.86 624.84 710.22C621.31 707.98 617.82 705.64 614.22 703.5C611.16 701.68 607.68 700.12 604.04 700.4C600.68 700.65 597.46 702.32 595.98 705.47C594.5 708.62 594.77 712.14 596.15 715.22C597.63 718.51 600.32 721.12 603.06 723.38C605.8 725.64 608.86 727.73 612.06 729.45C619.33 733.35 627.41 735.58 635.65 736C637.96 736.12 637.96 732.52 635.65 732.4H635.63Z" fill="#EAC696"/>
<path d="M418.01 727.21C424.46 708.23 435.77 691.01 450.55 677.49C452.39 675.8 454.29 674.17 456.24 672.61C458.19 671.05 460.28 669.4 462.63 668.4C464.69 667.52 467.07 667.21 469.05 668.46C470.49 669.37 471.37 670.93 471.89 672.52C473.31 676.85 472.81 681.59 472.66 686.06C472.46 692.21 472.25 698.35 472.05 704.5C471.59 718.37 471.13 732.24 470.67 746.11C470.59 748.43 474.19 748.42 474.27 746.11C474.7 732.99 475.14 719.87 475.57 706.74C475.78 700.26 476 693.78 476.21 687.31C476.37 682.36 476.9 677.18 475.58 672.33C474.4 667.99 471.35 664.35 466.62 664.03C461.14 663.66 456.37 667.84 452.44 671.1C444.2 677.92 436.92 685.86 430.73 694.57C423.83 704.28 418.38 714.99 414.55 726.27C413.8 728.47 417.28 729.41 418.02 727.23L418.01 727.21Z" fill="#EAC696"/>
<path d="M404.63 520.06C376.01 522.5 348.49 531.38 322.61 543.6C296.31 556.02 271.7 571.69 247.64 587.94C225.3 603.02 203.01 618.27 181.56 634.6C160.11 650.93 140.65 667.47 123.04 686.89C105.8 705.9 91.0499 727.24 81.0599 750.95C79.8499 753.81 78.7199 756.71 77.6499 759.63C76.8499 761.81 80.3299 762.75 81.1199 760.59C89.8299 736.76 103.53 715.06 119.97 695.82C136.76 676.16 156.21 658.92 176.53 643.01C196.85 627.1 219.05 611.81 240.82 596.94C264.58 580.7 288.69 564.79 314.35 551.68C339.51 538.82 366.33 528.76 394.41 524.81C397.81 524.33 401.22 523.96 404.63 523.67C406.92 523.47 406.94 519.87 404.63 520.07V520.06Z" fill="#EAC696"/>
</g>
<path d="M413.248 547.292L351.377 534.253C344.892 532.887 338.527 537.036 337.16 543.521L331.97 568.15C330.604 574.635 334.753 581 341.238 582.367L403.109 595.405C409.594 596.771 415.959 592.622 417.326 586.137L422.516 561.508C423.882 555.023 419.733 548.658 413.248 547.292Z" fill="#F2A100"/>
<path d="M243.42 594.24L245.54 572.94L231.71 570.58L234.73 546.87L251.9 549.05L350.04 561.53C358.03 562.55 365.62 565.75 372.09 570.97C374.65 573.03 377.25 575.53 379.75 578.56C390.76 591.91 392.85 607.23 393.37 612.71C368.38 609.63 343.39 606.55 243.42 594.23V594.24Z" fill="#E5E5E5"/>
<mask id="mask1_1816_15000" style="mask-type:luminance" maskUnits="userSpaceOnUse" x="231" y="546" width="163" height="67">
<path d="M243.42 594.24L245.54 572.94L231.71 570.58L234.73 546.87L251.9 549.05L350.04 561.53C358.03 562.55 365.62 565.75 372.09 570.97C374.65 573.03 377.25 575.53 379.75 578.56C390.76 591.91 392.85 607.23 393.37 612.71C368.38 609.63 343.39 606.55 243.42 594.23V594.24Z" fill="white"/>
</mask>
<g mask="url(#mask1_1816_15000)">
<path opacity="0.66" d="M238.897 582.693L231.995 636.945L388.94 656.911L395.842 602.658L238.897 582.693Z" fill="white"/>
</g>
<path d="M151.17 538.454L148.486 559.554C148.119 562.436 150.158 565.069 153.04 565.436L220.923 574.072C223.805 574.438 226.438 572.399 226.805 569.517L229.489 548.417C229.856 545.536 227.817 542.902 224.935 542.536L157.052 533.9C154.17 533.533 151.537 535.572 151.17 538.454Z" fill="#878787"/>
<path d="M219.609 557.92C218.649 565.48 218.139 569.78 219.639 572.49C220.289 573.67 221.099 574.17 221.689 574.41L230.709 575.56C231.119 575.54 232.119 575.41 233.169 574.22C233.809 573.49 234.229 572.65 234.469 572.09C234.309 569.07 234.289 564.66 234.959 559.36C235.619 554.19 236.709 550.01 237.589 547.16C237.319 546.41 237.039 545.85 236.829 545.46C236.439 544.74 236.089 544.12 235.489 543.78C235.269 543.65 235.029 543.57 234.779 543.54L225.759 542.39C225.129 542.48 224.219 542.76 223.299 543.73C221.159 545.99 220.579 550.32 219.609 557.91V557.92Z" fill="#A5A5A5"/>
<path opacity="0.66" d="M374.36 599.95L339.07 560.58L308.07 556.44L339.76 596.09" fill="white"/>
<path opacity="0.66" d="M314.62 592.56L286.43 553.48L267.49 551.24L294.45 589.69" fill="white"/>
<path d="M232.26 455.92L225.81 533.99C224.4 551.08 211.88 562.85 198 560.13L195.45 559.63C181.57 556.91 171.36 540.7 172.78 523.61L179.23 445.54C180.64 428.45 193.16 416.68 207.04 419.4L209.59 419.9C223.47 422.62 233.68 438.83 232.26 455.92Z" fill="white"/>
<path d="M174.27 538.3C169.83 551.59 182.27 569.23 198.21 570.54C212.41 571.71 227.37 559.76 226.77 545.93C226.21 533.06 212.43 524.14 200.37 523.51C190.28 522.98 177.69 528.06 174.27 538.3Z" fill="#FFA744"/>
<path d="M409.96 454.64L396.49 532.13C393.54 549.1 403.11 563.72 417.75 564.63L420.44 564.8C435.09 565.71 449.48 552.57 452.43 535.6L465.9 458.11C468.85 441.14 459.28 426.52 444.64 425.61L441.95 425.44C427.3 424.53 412.91 437.67 409.96 454.64Z" fill="white"/>
<path d="M444.14 549.99C444.69 563.99 427.82 577.45 412.15 574.26C398.19 571.42 387.16 555.76 391.6 542.65C395.73 530.45 411.46 525.73 423.21 528.49C433.05 530.8 443.71 539.19 444.14 549.98V549.99Z" fill="#FFA744"/>
<path d="M342.008 587.777L316.156 582.329C309.671 580.962 303.306 585.112 301.94 591.597L299.471 603.309C298.105 609.794 302.254 616.159 308.739 617.526L334.591 622.974C341.076 624.34 347.441 620.191 348.808 613.706L351.276 601.993C352.643 595.508 348.493 589.143 342.008 587.777Z" fill="#F2A100"/>
<path d="M338.018 615.045L297.742 606.558C296.667 606.331 295.611 607.019 295.385 608.095L294.49 612.341C294.263 613.417 294.951 614.472 296.027 614.699L336.302 623.186C337.377 623.413 338.433 622.725 338.66 621.649L339.554 617.403C339.781 616.327 339.093 615.272 338.018 615.045Z" fill="#D88B03"/>
<path d="M299.835 599.133L279.149 594.774C272.664 593.407 266.299 597.556 264.933 604.041L263.24 612.075C261.873 618.56 266.023 624.925 272.507 626.292L293.193 630.651C299.678 632.017 306.043 627.868 307.41 621.383L309.103 613.349C310.469 606.864 306.32 600.5 299.835 599.133Z" fill="#F2A100"/>
<path d="M296.273 622.721L255.998 614.234C254.923 614.007 253.867 614.696 253.64 615.771L252.746 620.018C252.519 621.093 253.207 622.149 254.282 622.375L294.558 630.863C295.633 631.089 296.689 630.401 296.915 629.326L297.81 625.079C298.037 624.004 297.349 622.948 296.273 622.721Z" fill="#D88B03"/>
<path d="M268.065 612.525L253.916 609.543C247.431 608.176 241.066 612.325 239.699 618.81L238.99 622.177C237.623 628.662 241.773 635.026 248.258 636.393L262.407 639.375C268.892 640.741 275.257 636.592 276.623 630.107L277.333 626.741C278.699 620.256 274.55 613.891 268.065 612.525Z" fill="#F2A100"/>
<path d="M533.12 671.42C530.06 666.16 526.64 660.28 520.75 657.12C513.04 659.69 503.98 658.91 496.88 663.05C492.62 665.54 489.39 669.74 488.09 674.51C488.09 674.43 488.08 674.35 488.07 674.27C487.22 677.04 486.67 680.29 487.19 683.49C488.5 685.35 490.96 688.21 494.89 689.58C497.82 690.6 501.37 691.34 507.66 690.4C513.14 689.58 515.86 694.16 518.54 692.53C521.31 690.84 520.73 690.16 524.57 687.61C529.4 684.41 532.45 680.58 533.54 680.55C535.19 680.51 536.03 678.19 536.94 678.46C535.77 675.97 534.37 673.56 533.12 671.41V671.42Z" fill="#F2DA9E"/>
<path d="M496.879 663.05C503.989 658.91 513.039 659.69 520.749 657.12C519.319 656.35 517.749 655.74 516.009 655.34C509.179 653.77 501.829 655.87 496.819 660.01C493.759 662.54 492.199 665.31 491.119 667.27C490.539 668.33 489.089 670.96 488.069 674.27C488.069 674.35 488.079 674.43 488.089 674.51C489.389 669.75 492.619 665.54 496.879 663.05Z" fill="#F2DA9E"/>
<g opacity="0.64">
<path d="M496.89 663.06C504 658.92 513.05 659.7 520.76 657.13C519.33 656.36 517.76 655.75 516.02 655.35C509.19 653.78 501.84 655.88 496.83 660.02C493.77 662.55 492.21 665.32 491.13 667.28C490.55 668.34 489.1 670.97 488.08 674.28C488.08 674.36 488.09 674.44 488.1 674.52C489.4 669.76 492.63 665.55 496.89 663.06Z" fill="white"/>
</g>
<path d="M516.009 700.45C520.189 700.64 533.969 701.28 538.309 693.19C540.699 688.74 539.269 683.41 536.939 678.46C535.859 678.7 534.289 679.14 532.519 679.98C528.659 681.82 527.139 684.02 524.909 685.74C521.629 688.26 518.199 688.65 512.989 689.23C505.189 690.11 499.129 688.26 495.909 687.24C492.149 686.05 489.199 684.6 487.199 683.48C487.279 683.95 487.379 684.42 487.499 684.89C490.549 696.21 507.069 700.03 516.019 700.45H516.009Z" fill="#E8C577"/>
<path d="M555.28 650.85C552.22 645.59 548.8 639.71 542.91 636.55C535.2 639.12 526.14 638.34 519.04 642.48C514.78 644.97 511.55 649.17 510.25 653.94C510.25 653.86 510.24 653.78 510.23 653.7C509.38 656.47 508.83 659.72 509.35 662.92C510.66 664.78 513.12 667.64 517.05 669.01C519.98 670.03 523.53 670.77 529.82 669.83C535.3 669.01 538.02 673.59 540.7 671.96C543.47 670.27 542.89 669.59 546.73 667.04C551.56 663.84 554.61 660.01 555.7 659.98C557.35 659.94 558.19 657.62 559.1 657.89C557.93 655.4 556.53 652.99 555.28 650.84V650.85Z" fill="#F2DA9E"/>
<path d="M519.039 642.48C526.149 638.34 535.199 639.12 542.909 636.55C541.479 635.78 539.909 635.17 538.169 634.77C531.339 633.2 523.989 635.3 518.979 639.44C515.919 641.97 514.359 644.74 513.279 646.7C512.699 647.76 511.249 650.39 510.229 653.7C510.229 653.78 510.24 653.86 510.25 653.94C511.55 649.18 514.779 644.97 519.039 642.48Z" fill="#F2DA9E"/>
<g opacity="0.64">
<path d="M519.05 642.5C526.16 638.36 535.21 639.14 542.92 636.57C541.49 635.8 539.92 635.19 538.18 634.79C531.35 633.22 524 635.32 518.99 639.46C515.93 641.99 514.37 644.76 513.29 646.72C512.71 647.78 511.26 650.41 510.24 653.72C510.24 653.8 510.25 653.88 510.26 653.96C511.56 649.2 514.79 644.99 519.05 642.5Z" fill="white"/>
</g>
<path d="M538.169 679.89C542.349 680.08 556.129 680.72 560.469 672.63C562.859 668.18 561.429 662.85 559.099 657.9C558.019 658.14 556.449 658.58 554.679 659.42C550.819 661.26 549.299 663.46 547.069 665.18C543.789 667.7 540.359 668.09 535.149 668.67C527.349 669.55 521.289 667.7 518.069 666.68C514.309 665.49 511.359 664.04 509.359 662.92C509.439 663.39 509.539 663.86 509.659 664.33C512.709 675.65 529.229 679.47 538.179 679.89H538.169Z" fill="#E8C577"/>
<path d="M559.39 668.25C556.33 662.99 552.91 657.11 547.02 653.95C539.31 656.52 530.25 655.74 523.15 659.88C518.89 662.37 515.66 666.57 514.36 671.34C514.36 671.26 514.35 671.18 514.34 671.1C513.49 673.87 512.94 677.12 513.46 680.32C514.77 682.18 517.23 685.04 521.16 686.41C524.09 687.43 527.64 688.17 533.93 687.23C539.41 686.41 542.13 690.99 544.81 689.36C547.58 687.67 547 686.99 550.84 684.44C555.67 681.24 558.72 677.41 559.81 677.38C561.46 677.34 562.3 675.02 563.21 675.29C562.04 672.8 560.64 670.39 559.39 668.24V668.25Z" fill="#F2DA9E"/>
<path d="M523.15 659.89C530.26 655.75 539.31 656.53 547.02 653.96C545.59 653.19 544.02 652.58 542.28 652.18C535.45 650.61 528.1 652.71 523.09 656.85C520.03 659.38 518.47 662.15 517.39 664.11C516.81 665.17 515.36 667.8 514.34 671.11C514.34 671.19 514.35 671.27 514.36 671.35C515.66 666.59 518.89 662.38 523.15 659.89Z" fill="#F2DA9E"/>
<g opacity="0.64">
<path d="M523.16 659.9C530.27 655.76 539.32 656.54 547.03 653.97C545.6 653.2 544.03 652.59 542.29 652.19C535.46 650.62 528.11 652.72 523.1 656.86C520.04 659.39 518.48 662.16 517.4 664.12C516.82 665.18 515.37 667.81 514.35 671.12C514.35 671.2 514.36 671.28 514.37 671.36C515.67 666.6 518.9 662.39 523.16 659.9Z" fill="white"/>
</g>
<path d="M542.28 697.29C546.46 697.48 560.24 698.12 564.58 690.03C566.97 685.58 565.54 680.25 563.21 675.3C562.13 675.54 560.56 675.98 558.79 676.82C554.93 678.66 553.41 680.86 551.18 682.58C547.9 685.1 544.47 685.49 539.26 686.07C531.46 686.95 525.4 685.1 522.18 684.08C518.42 682.89 515.47 681.44 513.47 680.32C513.55 680.79 513.65 681.26 513.77 681.73C516.82 693.05 533.34 696.87 542.29 697.29H542.28Z" fill="#E8C577"/>
<path d="M585.67 655.24C582.61 649.98 579.19 644.1 573.3 640.94C565.59 643.51 556.53 642.73 549.43 646.87C545.17 649.36 541.94 653.56 540.64 658.33C540.64 658.25 540.63 658.17 540.62 658.09C539.77 660.86 539.22 664.11 539.74 667.31C541.05 669.17 543.51 672.03 547.44 673.4C550.37 674.42 553.92 675.16 560.21 674.22C565.69 673.4 568.41 677.98 571.09 676.35C573.86 674.66 573.28 673.98 577.12 671.43C581.95 668.23 585 664.4 586.09 664.37C587.74 664.33 588.58 662.01 589.49 662.28C588.32 659.79 586.92 657.38 585.67 655.23V655.24Z" fill="#F2DA9E"/>
<path d="M549.43 646.88C556.54 642.74 565.59 643.52 573.3 640.95C571.87 640.18 570.3 639.57 568.56 639.17C561.73 637.6 554.38 639.7 549.37 643.84C546.31 646.37 544.75 649.14 543.67 651.1C543.09 652.16 541.64 654.79 540.62 658.1C540.62 658.18 540.63 658.26 540.64 658.34C541.94 653.58 545.17 649.37 549.43 646.88Z" fill="#F2DA9E"/>
<g opacity="0.64">
<path d="M549.441 646.89C556.551 642.75 565.601 643.53 573.311 640.96C571.881 640.19 570.311 639.58 568.571 639.18C561.741 637.61 554.391 639.71 549.381 643.85C546.321 646.38 544.761 649.15 543.681 651.11C543.101 652.17 541.651 654.8 540.631 658.11C540.631 658.19 540.641 658.27 540.651 658.35C541.951 653.59 545.181 649.38 549.441 646.89Z" fill="white"/>
</g>
<path d="M568.56 684.28C572.74 684.47 586.52 685.11 590.86 677.02C593.25 672.57 591.82 667.24 589.49 662.29C588.41 662.53 586.84 662.97 585.07 663.81C581.21 665.65 579.69 667.85 577.46 669.57C574.18 672.09 570.75 672.48 565.54 673.06C557.74 673.94 551.68 672.09 548.46 671.07C544.7 669.88 541.75 668.43 539.75 667.31C539.83 667.78 539.93 668.25 540.05 668.72C543.1 680.04 559.62 683.86 568.57 684.28H568.56Z" fill="#E8C577"/>
<path d="M586.84 676.44C583.78 671.18 580.36 665.3 574.47 662.14C566.76 664.71 557.7 663.93 550.6 668.07C546.34 670.56 543.11 674.76 541.81 679.53C541.81 679.45 541.8 679.37 541.79 679.29C540.94 682.06 540.39 685.31 540.91 688.51C542.22 690.37 544.68 693.23 548.61 694.6C551.54 695.62 555.09 696.36 561.38 695.42C566.86 694.6 569.58 699.18 572.26 697.55C575.03 695.86 574.45 695.18 578.29 692.63C583.12 689.43 586.17 685.6 587.26 685.57C588.91 685.53 589.75 683.21 590.66 683.48C589.49 680.99 588.09 678.58 586.84 676.43V676.44Z" fill="#F2DA9E"/>
<path d="M550.6 668.07C557.71 663.93 566.76 664.71 574.47 662.14C573.04 661.37 571.47 660.76 569.73 660.36C562.9 658.79 555.55 660.89 550.54 665.03C547.48 667.56 545.92 670.33 544.84 672.29C544.26 673.35 542.81 675.98 541.79 679.29C541.79 679.37 541.8 679.45 541.81 679.53C543.11 674.77 546.34 670.56 550.6 668.07Z" fill="#F2DA9E"/>
<g opacity="0.64">
<path d="M550.611 668.09C557.721 663.95 566.771 664.73 574.481 662.16C573.051 661.39 571.481 660.78 569.741 660.38C562.911 658.81 555.561 660.91 550.551 665.05C547.491 667.58 545.931 670.35 544.851 672.31C544.271 673.37 542.821 676 541.801 679.31C541.801 679.39 541.811 679.47 541.821 679.55C543.121 674.79 546.351 670.58 550.611 668.09Z" fill="white"/>
</g>
<path d="M569.73 705.48C573.91 705.67 587.69 706.31 592.03 698.22C594.42 693.77 592.99 688.44 590.66 683.49C589.58 683.73 588.01 684.17 586.24 685.01C582.38 686.85 580.86 689.05 578.63 690.77C575.35 693.29 571.92 693.68 566.71 694.26C558.91 695.14 552.85 693.29 549.63 692.27C545.87 691.08 542.92 689.63 540.92 688.51C541 688.98 541.1 689.45 541.22 689.92C544.27 701.24 560.79 705.06 569.74 705.48H569.73Z" fill="#E8C577"/>
<path d="M619.36 665.07C616.3 659.81 612.88 653.93 606.99 650.77C599.28 653.34 590.22 652.56 583.12 656.7C578.86 659.19 575.63 663.39 574.33 668.16C574.33 668.08 574.32 668 574.31 667.92C573.46 670.69 572.91 673.94 573.43 677.14C574.74 679 577.2 681.86 581.13 683.23C584.06 684.25 587.61 684.99 593.9 684.05C599.38 683.23 602.1 687.81 604.78 686.18C607.55 684.49 606.97 683.81 610.81 681.26C615.64 678.06 618.69 674.23 619.78 674.2C621.43 674.16 622.27 671.84 623.18 672.11C622.01 669.62 620.61 667.21 619.36 665.06V665.07Z" fill="#F2DA9E"/>
<path d="M583.12 656.71C590.23 652.57 599.28 653.35 606.99 650.78C605.56 650.01 603.99 649.4 602.25 649C595.42 647.43 588.07 649.53 583.06 653.67C580 656.2 578.44 658.97 577.36 660.93C576.78 661.99 575.33 664.62 574.31 667.93C574.31 668.01 574.32 668.09 574.33 668.17C575.63 663.41 578.86 659.2 583.12 656.71Z" fill="#F2DA9E"/>
<g opacity="0.64">
<path d="M583.13 656.72C590.24 652.58 599.29 653.36 607 650.79C605.57 650.02 604 649.41 602.26 649.01C595.43 647.44 588.08 649.54 583.07 653.68C580.01 656.21 578.45 658.98 577.37 660.94C576.79 662 575.34 664.63 574.32 667.94C574.32 668.02 574.33 668.1 574.34 668.18C575.64 663.42 578.87 659.21 583.13 656.72Z" fill="white"/>
</g>
<path d="M602.249 694.11C606.429 694.3 620.209 694.94 624.549 686.85C626.939 682.4 625.509 677.07 623.179 672.12C622.099 672.36 620.529 672.8 618.759 673.64C614.899 675.48 613.379 677.68 611.149 679.4C607.869 681.92 604.439 682.31 599.229 682.89C591.429 683.77 585.369 681.92 582.149 680.9C578.389 679.71 575.439 678.26 573.439 677.14C573.519 677.61 573.619 678.08 573.739 678.55C576.789 689.87 593.309 693.69 602.259 694.11H602.249Z" fill="#E8C577"/>
<path d="M84.9301 634.32C84.9301 634.32 88.0401 664.22 59.2501 677.42C30.4601 690.62 108.16 677.99 84.9301 634.32Z" fill="url(#paint0_linear_1816_15000)"/>
<path d="M124.47 668.67C124.47 668.67 98.3904 683.62 74.6604 662.66C50.9304 641.69 93.9504 707.61 124.47 668.67Z" fill="url(#paint1_linear_1816_15000)"/>
<path d="M113.92 691.73C113.92 691.73 87.8397 706.68 64.1097 685.72C40.3797 664.75 83.3997 730.67 113.92 691.73Z" fill="url(#paint2_linear_1816_15000)"/>
<path d="M69.8399 692.91C69.8399 692.91 68.5499 662.87 98.0799 651.44C127.61 640 49.2899 647.91 69.8399 692.91Z" fill="url(#paint3_linear_1816_15000)"/>
<path d="M72.2903 699.91C72.2903 699.91 77.2703 670.26 108.53 665.21C139.79 660.16 61.5403 651.61 72.2903 699.91Z" fill="url(#paint4_linear_1816_15000)"/>
<path d="M92.0896 662.2C92.0896 662.2 66.0096 677.15 42.2796 656.19C18.5496 635.22 61.5696 701.14 92.0896 662.2Z" fill="url(#paint5_linear_1816_15000)"/>
<path d="M69.04 650.46C69.04 650.46 99.08 649.22 110.46 678.78C121.84 708.33 114.08 630 69.04 650.46Z" fill="url(#paint6_linear_1816_15000)"/>
<path d="M70.5596 661.52C70.5596 661.52 100.6 660.28 111.98 689.84C123.36 719.39 115.6 641.06 70.5596 661.52Z" fill="url(#paint7_linear_1816_15000)"/>
<path d="M40.7002 658.02C40.7002 658.02 70.7402 656.78 82.1202 686.34C93.5002 715.89 85.7402 637.56 40.7002 658.02Z" fill="url(#paint8_linear_1816_15000)"/>
<path d="M125.999 683.83C125.999 683.83 99.0595 697.18 76.6395 674.81C54.2195 652.44 93.1695 720.85 125.999 683.83Z" fill="url(#paint9_linear_1816_15000)"/>
<path d="M32.9304 689.17C32.9304 689.17 38.5204 659.63 69.8804 655.23C101.24 650.83 23.1804 640.67 32.9304 689.17Z" fill="url(#paint10_linear_1816_15000)"/>
<path d="M44.57 677.33C44.57 677.33 50.16 647.79 81.52 643.39C112.88 638.99 34.82 628.83 44.57 677.33Z" fill="url(#paint11_linear_1816_15000)"/>
<path d="M44.57 699.52C44.57 699.52 50.16 669.98 81.52 665.58C112.88 661.18 34.82 651.02 44.57 699.52Z" fill="url(#paint12_linear_1816_15000)"/>
<path d="M74.3395 673.82C74.3395 673.82 79.9295 644.28 111.29 639.88C142.65 635.48 64.5895 625.32 74.3395 673.82Z" fill="url(#paint13_linear_1816_15000)"/>
<path d="M89.9802 696.29C89.9802 696.29 95.5702 666.75 126.93 662.35C158.29 657.95 80.2302 647.79 89.9802 696.29Z" fill="url(#paint14_linear_1816_15000)"/>
<path d="M83.03 682.33C83.03 682.33 88.62 652.79 119.98 648.39C151.34 643.99 73.28 633.83 83.03 682.33Z" fill="url(#paint15_linear_1816_15000)"/>
<path d="M84.74 673.6C84.74 673.6 58.66 688.55 34.93 667.59C11.2 646.62 54.22 712.54 84.74 673.6Z" fill="url(#paint16_linear_1816_15000)"/>
<path d="M51.9102 647.56C51.9102 647.56 81.9502 646.32 93.3302 675.88C104.71 705.43 96.9502 627.1 51.9102 647.56Z" fill="url(#paint17_linear_1816_15000)"/>
<path d="M46.04 665.68C46.04 665.68 76.08 664.44 87.46 694C98.84 723.55 91.08 645.22 46.04 665.68Z" fill="url(#paint18_linear_1816_15000)"/>
<path d="M38.6396 661.52C38.6396 661.52 68.6796 660.28 80.0596 689.84C91.4396 719.4 83.6796 641.06 38.6396 661.52Z" fill="url(#paint19_linear_1816_15000)"/>
<path d="M54.5003 682.3C54.5003 682.3 52.9803 652.28 82.4203 640.61C111.86 628.95 33.6103 637.46 54.5003 682.3Z" fill="url(#paint20_linear_1816_15000)"/>
<path d="M74.96 655.42C74.96 655.42 105 654.18 116.38 683.74C127.76 713.29 120 634.96 74.96 655.42Z" fill="url(#paint21_linear_1816_15000)"/>
<path d="M126.61 643.39C126.61 643.39 128.79 673.37 99.6101 685.68C70.4301 697.99 148.48 687.76 126.61 643.39Z" fill="url(#paint22_linear_1816_15000)"/>
<path d="M114.55 699.06C114.55 699.06 86.9203 687.22 89.4003 655.64C91.8803 624.07 65.0903 698.09 114.55 699.06Z" fill="url(#paint23_linear_1816_15000)"/>
<path d="M106.72 651.15C106.72 651.15 108.9 681.13 79.7195 693.44C50.5395 705.75 128.59 695.52 106.72 651.15Z" fill="url(#paint24_linear_1816_15000)"/>
<path d="M110.79 636.24C110.79 636.24 113.9 666.14 85.1095 679.34C56.3195 692.54 134.02 679.91 110.79 636.24Z" fill="url(#paint25_linear_1816_15000)"/>
<path d="M150.33 670.58C150.33 670.58 124.25 685.53 100.52 664.57C76.7898 643.6 119.81 709.52 150.33 670.58Z" fill="url(#paint26_linear_1816_15000)"/>
<path d="M139.78 693.64C139.78 693.64 113.7 708.59 89.97 687.63C66.24 666.66 109.26 732.58 139.78 693.64Z" fill="url(#paint27_linear_1816_15000)"/>
<path d="M95.7003 694.82C95.7003 694.82 94.4103 664.78 123.94 653.35C153.47 641.91 75.1503 649.82 95.7003 694.82Z" fill="url(#paint28_linear_1816_15000)"/>
<path d="M98.1496 701.82C98.1496 701.82 103.13 672.17 134.39 667.12C165.65 662.07 87.3996 653.52 98.1496 701.82Z" fill="url(#paint29_linear_1816_15000)"/>
<path d="M117.95 664.11C117.95 664.11 91.8699 679.06 68.1399 658.1C44.4099 637.13 87.4299 703.05 117.95 664.11Z" fill="url(#paint30_linear_1816_15000)"/>
<path d="M94.9004 652.37C94.9004 652.37 124.94 651.13 136.32 680.69C147.7 710.24 139.94 631.91 94.9004 652.37Z" fill="url(#paint31_linear_1816_15000)"/>
<path d="M96.4199 663.44C96.4199 663.44 126.46 662.2 137.84 691.76C149.22 721.31 141.46 642.98 96.4199 663.44Z" fill="url(#paint32_linear_1816_15000)"/>
<path d="M66.5596 659.93C66.5596 659.93 96.5996 658.69 107.98 688.25C119.36 717.8 111.6 639.47 66.5596 659.93Z" fill="url(#paint33_linear_1816_15000)"/>
<path d="M151.86 685.75C151.86 685.75 124.92 699.1 102.5 676.73C80.0798 654.36 119.03 722.77 151.86 685.75Z" fill="url(#paint34_linear_1816_15000)"/>
<path d="M58.7897 691.09C58.7897 691.09 64.3797 661.55 95.7397 657.15C127.1 652.75 49.0397 642.59 58.7897 691.09Z" fill="url(#paint35_linear_1816_15000)"/>
<path d="M70.4304 679.24C70.4304 679.24 76.0204 649.7 107.38 645.3C138.74 640.9 60.6804 630.74 70.4304 679.24Z" fill="url(#paint36_linear_1816_15000)"/>
<path d="M70.4304 701.44C70.4304 701.44 76.0204 671.9 107.38 667.5C138.74 663.1 60.6804 652.94 70.4304 701.44Z" fill="url(#paint37_linear_1816_15000)"/>
<path d="M100.2 675.74C100.2 675.74 105.79 646.2 137.15 641.8C168.51 637.4 90.4499 627.24 100.2 675.74Z" fill="url(#paint38_linear_1816_15000)"/>
<path d="M115.84 698.21C115.84 698.21 121.43 668.67 152.79 664.27C184.15 659.87 106.09 649.71 115.84 698.21Z" fill="url(#paint39_linear_1816_15000)"/>
<path d="M108.89 684.24C108.89 684.24 114.48 654.7 145.84 650.3C177.2 645.9 99.1403 635.74 108.89 684.24Z" fill="url(#paint40_linear_1816_15000)"/>
<path d="M110.59 675.52C110.59 675.52 84.5096 690.47 60.7796 669.51C37.0496 648.54 80.0696 714.46 110.59 675.52Z" fill="url(#paint41_linear_1816_15000)"/>
<path d="M77.7695 649.47C77.7695 649.47 107.81 648.23 119.19 677.79C130.57 707.34 122.81 629.01 77.7695 649.47Z" fill="url(#paint42_linear_1816_15000)"/>
<path d="M71.9004 667.6C71.9004 667.6 101.94 666.36 113.32 695.92C124.7 725.47 116.94 647.14 71.9004 667.6Z" fill="url(#paint43_linear_1816_15000)"/>
<path d="M64.5 663.44C64.5 663.44 94.54 662.2 105.92 691.76C117.3 721.31 109.54 642.98 64.5 663.44Z" fill="url(#paint44_linear_1816_15000)"/>
<path d="M80.3597 684.22C80.3597 684.22 78.8397 654.2 108.28 642.53C137.72 630.87 59.4697 639.38 80.3597 684.22Z" fill="url(#paint45_linear_1816_15000)"/>
<path d="M100.82 657.33C100.82 657.33 130.86 656.09 142.24 685.65C153.62 715.2 145.86 636.87 100.82 657.33Z" fill="url(#paint46_linear_1816_15000)"/>
<path d="M152.47 645.3C152.47 645.3 154.65 675.28 125.47 687.59C96.2895 699.9 174.34 689.67 152.47 645.3Z" fill="url(#paint47_linear_1816_15000)"/>
<path d="M140.41 700.97C140.41 700.97 112.78 689.13 115.26 657.55C117.74 625.98 90.9497 700 140.41 700.97Z" fill="url(#paint48_linear_1816_15000)"/>
<path d="M132.58 653.06C132.58 653.06 134.76 683.04 105.58 695.35C76.3999 707.66 154.45 697.43 132.58 653.06Z" fill="url(#paint49_linear_1816_15000)"/>
<path d="M97.3501 618.07C97.3501 618.07 100.46 647.97 71.6701 661.17C42.8801 674.37 120.58 661.74 97.3501 618.07Z" fill="url(#paint50_linear_1816_15000)"/>
<path d="M136.88 652.42C136.88 652.42 110.8 667.37 87.0696 646.41C63.3396 625.44 106.36 691.36 136.88 652.42Z" fill="url(#paint51_linear_1816_15000)"/>
<path d="M126.34 675.48C126.34 675.48 100.26 690.43 76.5296 669.47C52.7996 648.5 95.8196 714.42 126.34 675.48Z" fill="url(#paint52_linear_1816_15000)"/>
<path d="M82.2598 676.66C82.2598 676.66 80.9698 646.62 110.5 635.19C140.03 623.75 61.7098 631.66 82.2598 676.66Z" fill="url(#paint53_linear_1816_15000)"/>
<path d="M84.7004 683.66C84.7004 683.66 89.6804 654.01 120.94 648.96C152.2 643.91 73.9504 635.36 84.7004 683.66Z" fill="url(#paint54_linear_1816_15000)"/>
<path d="M104.51 645.95C104.51 645.95 78.4295 660.9 54.6995 639.94C30.9695 618.97 73.9895 684.89 104.51 645.95Z" fill="url(#paint55_linear_1816_15000)"/>
<path d="M81.46 634.21C81.46 634.21 111.5 632.97 122.88 662.53C134.26 692.08 126.5 613.75 81.46 634.21Z" fill="url(#paint56_linear_1816_15000)"/>
<path d="M82.9795 645.28C82.9795 645.28 113.019 644.04 124.399 673.6C135.779 703.15 128.019 624.82 82.9795 645.28Z" fill="url(#paint57_linear_1816_15000)"/>
<path d="M53.1201 641.77C53.1201 641.77 83.1601 640.53 94.5401 670.09C105.92 699.64 98.1601 621.31 53.1201 641.77Z" fill="url(#paint58_linear_1816_15000)"/>
<path d="M138.42 667.58C138.42 667.58 111.48 680.93 89.0604 658.56C66.6404 636.19 105.59 704.6 138.42 667.58Z" fill="url(#paint59_linear_1816_15000)"/>
<path d="M45.3395 672.92C45.3395 672.92 50.9295 643.38 82.2895 638.98C113.65 634.58 35.5895 624.42 45.3395 672.92Z" fill="url(#paint60_linear_1816_15000)"/>
<path d="M56.9802 661.08C56.9802 661.08 62.5702 631.54 93.9302 627.14C125.29 622.74 47.2302 612.58 56.9802 661.08Z" fill="url(#paint61_linear_1816_15000)"/>
<path d="M56.9802 683.28C56.9802 683.28 62.5702 653.74 93.9302 649.34C125.29 644.94 47.2302 634.78 56.9802 683.28Z" fill="url(#paint62_linear_1816_15000)"/>
<path d="M86.7604 657.57C86.7604 657.57 92.3504 628.03 123.71 623.63C155.07 619.23 77.0104 609.07 86.7604 657.57Z" fill="url(#paint63_linear_1816_15000)"/>
<path d="M102.39 680.04C102.39 680.04 107.98 650.5 139.34 646.1C170.7 641.7 92.6403 631.54 102.39 680.04Z" fill="url(#paint64_linear_1816_15000)"/>
<path d="M95.4401 666.08C95.4401 666.08 101.03 636.54 132.39 632.14C163.75 627.74 85.6901 617.58 95.4401 666.08Z" fill="url(#paint65_linear_1816_15000)"/>
<path d="M97.1501 657.36C97.1501 657.36 71.0701 672.31 47.3401 651.35C23.6101 630.38 66.6301 696.3 97.1501 657.36Z" fill="url(#paint66_linear_1816_15000)"/>
<path d="M64.3301 631.31C64.3301 631.31 94.3701 630.07 105.75 659.63C117.13 689.18 109.37 610.85 64.3301 631.31Z" fill="url(#paint67_linear_1816_15000)"/>
<path d="M58.46 649.44C58.46 649.44 88.5 648.2 99.88 677.76C111.26 707.32 103.5 628.98 58.46 649.44Z" fill="url(#paint68_linear_1816_15000)"/>
<path d="M51.0596 645.28C51.0596 645.28 81.0996 644.04 92.4796 673.6C103.86 703.15 96.0996 624.82 51.0596 645.28Z" fill="url(#paint69_linear_1816_15000)"/>
<path d="M66.9202 666.06C66.9202 666.06 65.4002 636.04 94.8402 624.37C124.28 612.71 46.0302 621.22 66.9202 666.06Z" fill="url(#paint70_linear_1816_15000)"/>
<path d="M87.3799 639.17C87.3799 639.17 117.42 637.93 128.8 667.49C140.18 697.04 132.42 618.71 87.3799 639.17Z" fill="url(#paint71_linear_1816_15000)"/>
<path d="M139.03 627.14C139.03 627.14 141.21 657.12 112.03 669.43C82.8501 681.74 160.9 671.51 139.03 627.14Z" fill="url(#paint72_linear_1816_15000)"/>
<path d="M126.97 682.81C126.97 682.81 99.3403 670.97 101.82 639.39C104.3 607.82 77.5103 681.84 126.97 682.81Z" fill="url(#paint73_linear_1816_15000)"/>
<path d="M119.13 634.9C119.13 634.9 121.31 664.88 92.1297 677.19C62.9497 689.5 141 679.27 119.13 634.9Z" fill="url(#paint74_linear_1816_15000)"/>
<path d="M312.84 446.03C298.82 442.97 283.09 450.03 266.18 443.38C250.66 437.28 236.78 430.4 224.62 423.51C223.74 421.37 222.2 416.96 222.15 411.04C222.1 404.77 223.74 400.1 224.62 397.96C254.03 409.32 283.43 409.13 312.84 420.48V446.03Z" fill="#FF4848"/>
<path d="M325.42 446.03C339.44 442.97 355.17 450.03 372.08 443.38C387.6 437.28 401.48 430.4 413.64 423.51C414.52 421.37 416.06 416.96 416.11 411.04C416.16 404.77 414.52 400.1 413.64 397.96C384.23 409.32 354.83 409.13 325.42 420.48V446.03Z" fill="#FF4848"/>
<path d="M325.12 454.24H309.22C304.78 454.24 301.33 450.36 301.85 445.95L304.57 422.84C305.01 419.1 308.18 416.29 311.94 416.29H322.4C326.16 416.29 329.33 419.11 329.77 422.84L332.49 445.95C333.01 450.36 329.56 454.24 325.12 454.24Z" fill="#EA4949"/>
<path d="M310.13 452.72H323.64C327.61 452.72 331.06 455.45 331.98 459.31L338.9 488.37C339.48 490.8 339.18 493.36 338.06 495.59L324.32 522.9C321.18 529.13 312.23 528.97 309.32 522.63L296.94 495.69C296.02 493.69 295.75 491.46 296.15 489.31L301.72 459.72C302.48 455.67 306.02 452.73 310.14 452.73L310.13 452.72Z" fill="#FF4848"/>
<path d="M278.626 203.067C291.037 165.627 268.635 124.514 228.589 111.239C188.543 97.9636 146.018 117.554 133.606 154.994C121.195 192.435 143.598 233.548 183.644 246.823C223.69 260.098 266.215 240.508 278.626 203.067Z" fill="#FFA744"/>
<path d="M454.32 246.879C494.367 233.604 516.769 192.49 504.358 155.05C491.946 117.609 449.421 98.0191 409.375 111.294C369.329 124.569 346.927 165.682 359.338 203.123C371.749 240.564 414.274 260.154 454.32 246.879Z" fill="#FFA744"/>
<path d="M276.287 273.061C279.003 260.172 273.709 248.144 264.463 246.195C255.216 244.247 245.519 253.115 242.803 266.004C240.087 278.893 245.381 290.921 254.627 292.87C263.874 294.818 273.571 285.95 276.287 273.061Z" fill="#262727"/>
<path d="M388.984 292.89C398.231 290.941 403.525 278.913 400.809 266.024C398.093 253.135 388.395 244.266 379.149 246.215C369.902 248.164 364.608 260.192 367.324 273.081C370.04 285.97 379.738 294.838 388.984 292.89Z" fill="#262727"/>
<path d="M358.47 290.33C357.72 302.95 339.34 312.4 324.26 312.27C309.04 312.14 290.32 302.17 290.05 289.03C289.78 275.97 307.84 264.72 323.41 264.52C340.33 264.3 359.25 277.07 358.47 290.33Z" fill="#FAE0EB"/>
<path d="M332.45 278.85C332.28 281.94 327.71 284.21 324.02 284.21C320.33 284.21 315.76 281.94 315.59 278.85C315.41 275.67 319.95 272.6 324.02 272.6C328.09 272.6 332.63 275.67 332.45 278.85Z" fill="#ED83AC"/>
<path d="M388.1 287.07C383.26 287.98 377.68 284.52 377.7 281.42C377.72 278.47 382.81 276.27 385.94 275.61C389.11 274.94 394.62 274.92 395.8 277.57C397.07 280.42 393.17 286.11 388.1 287.07Z" fill="#F6C6DB"/>
<path d="M255.91 287.3C260.75 288.21 266.33 284.75 266.31 281.65C266.29 278.7 261.2 276.5 258.07 275.84C254.9 275.17 249.39 275.15 248.21 277.8C246.94 280.65 250.84 286.34 255.91 287.3Z" fill="#F6C6DB"/>
<path d="M390.86 263.6C391.03 264.28 391.88 267.66 389.76 270.46C389.48 270.84 388 272.7 385.36 273.15C382.05 273.71 379.64 271.6 379.18 271.18C376.87 269.06 376.69 266.24 376.66 265.56C376.48 261.94 378.65 256.98 382.73 256.47C386.82 255.95 390.02 260.26 390.86 263.6Z" fill="white"/>
<path d="M253.9 262.45C253.1 265.29 253.3 269.78 256.53 272.04C259.34 274.01 262.64 273.04 262.93 272.95C266.62 271.8 268.35 267.99 268.64 265.18C269.05 261.31 267.09 256.03 262.95 255.22C258.76 254.4 254.97 258.68 253.91 262.44L253.9 262.45Z" fill="white"/>
<path d="M497.95 311.82C497.95 305.89 495.64 300.31 491.56 295.43C488.28 291.5 486.42 286.6 486.55 281.49C487.05 261.71 484.35 227.7 462.37 197.11C421.26 139.88 345.87 140.77 318.31 141.09C291.67 141.4 218.99 142.25 176.92 198.89C155.11 228.25 150.55 260.47 149.85 279.93C149.67 285.01 147.66 289.86 144.12 293.52C138.98 298.83 136.01 305.11 136.01 311.83C136.01 317.73 138.3 323.28 142.33 328.15C145.33 331.77 146.69 336.4 146.68 341.1C146.68 341.13 146.68 341.15 146.68 341.18C146.68 356.49 162.08 369.48 183.44 374.08C186.28 374.69 188.97 375.85 191.31 377.58C227.92 404.68 281.37 416.9 323.09 416.08C362.57 415.3 412.48 402.43 446.83 376.63C448.95 375.03 451.39 373.94 453.96 373.25C473.5 368.05 487.26 355.66 487.26 341.18C487.26 341.15 487.26 341.13 487.26 341.1C487.24 336.4 488.61 331.77 491.61 328.15C495.64 323.29 497.93 317.73 497.93 311.83L497.95 311.82Z" fill="#FFA744"/>
<mask id="mask2_1816_15000" style="mask-type:luminance" maskUnits="userSpaceOnUse" x="136" y="141" width="362" height="276">
<path d="M497.95 311.82C497.95 305.89 495.64 300.31 491.56 295.43C488.28 291.5 486.42 286.6 486.55 281.49C487.05 261.71 484.35 227.7 462.37 197.11C421.26 139.88 345.87 140.77 318.31 141.09C291.67 141.4 218.99 142.25 176.92 198.89C155.11 228.25 150.55 260.47 149.85 279.93C149.67 285.01 147.66 289.86 144.12 293.52C138.98 298.83 136.01 305.11 136.01 311.83C136.01 317.73 138.3 323.28 142.33 328.15C145.33 331.77 146.69 336.4 146.68 341.1C146.68 341.13 146.68 341.15 146.68 341.18C146.68 356.49 162.08 369.48 183.44 374.08C186.28 374.69 188.97 375.85 191.31 377.58C227.92 404.68 281.37 416.9 323.09 416.08C362.57 415.3 412.48 402.43 446.83 376.63C448.95 375.03 451.39 373.94 453.96 373.25C473.5 368.05 487.26 355.66 487.26 341.18C487.26 341.15 487.26 341.13 487.26 341.1C487.24 336.4 488.61 331.77 491.61 328.15C495.64 323.29 497.93 317.73 497.93 311.83L497.95 311.82Z" fill="white"/>
</mask>
<g mask="url(#mask2_1816_15000)">
<path d="M126.76 285.27C145.13 267.87 169.57 258.27 194.86 258.36C202.58 258.39 202.59 246.39 194.86 246.36C166.41 246.25 138.92 257.22 118.28 276.78C112.66 282.1 121.16 290.58 126.77 285.27H126.76Z" fill="#3A3A3A"/>
<path d="M136.189 309.64C154.559 292.24 178.999 282.64 204.289 282.73C212.009 282.76 212.019 270.76 204.289 270.73C175.839 270.62 148.349 281.59 127.709 301.15C122.089 306.47 130.589 314.95 136.199 309.64H136.189Z" fill="#3A3A3A"/>
<path d="M515.7 276.79C495.06 257.23 467.57 246.26 439.12 246.37C431.4 246.4 431.38 258.4 439.12 258.37C464.41 258.27 488.85 267.87 507.22 285.28C512.82 290.59 521.33 282.12 515.71 276.79H515.7Z" fill="#3A3A3A"/>
<path d="M506.28 301.15C485.64 281.59 458.15 270.62 429.7 270.73C421.98 270.76 421.96 282.76 429.7 282.73C454.99 282.63 479.43 292.23 497.8 309.64C503.4 314.95 511.91 306.48 506.29 301.15H506.28Z" fill="#3A3A3A"/>
<path d="M315.729 125.67C316.469 162.3 317.199 198.93 317.939 235.57C318.099 243.28 330.099 243.31 329.939 235.57C329.199 198.94 328.469 162.31 327.729 125.67C327.569 117.96 315.569 117.93 315.729 125.67Z" fill="#3A3A3A"/>
<path d="M288.51 169.17C312.87 161.73 338.65 161.49 363.13 168.53C370.56 170.67 373.74 159.09 366.32 156.96C339.88 149.35 311.64 149.56 285.32 157.6C277.96 159.85 281.1 171.44 288.51 169.17Z" fill="#3A3A3A"/>
<path d="M288.509 195.16C312.509 185.25 338.979 185 363.129 194.52C370.319 197.35 373.429 185.75 366.319 182.95C340.459 172.75 311.019 172.97 285.319 183.59C278.279 186.5 281.369 198.11 288.509 195.16Z" fill="#3A3A3A"/>
<path d="M288.51 221.99C312.51 212.15 338.96 211.9 363.13 221.35C370.32 224.16 373.44 212.57 366.32 209.78C340.44 199.66 311.04 199.87 285.32 210.42C278.27 213.31 281.36 224.92 288.51 221.99Z" fill="#3A3A3A"/>
</g>
<path d="M222.64 169.68C224.97 168.71 226.7 166.58 226.86 164.06C226.98 162.19 226.35 160.28 224.92 158.82C221.09 154.91 216.06 151.86 210.19 150.25C194.17 145.85 178.02 153.81 174.1 168.03C171.41 177.83 175.22 188.04 183.08 194.89C183.91 195.61 184.88 196.09 185.89 196.34C188.54 196.98 191.29 195.77 192.86 193.54C195.72 189.48 200 184.32 206.15 179.42C212.2 174.59 218.09 171.57 222.63 169.68H222.64Z" fill="white"/>
<path d="M410.22 169.68C407.89 168.71 406.16 166.58 406 164.06C405.88 162.19 406.51 160.28 407.94 158.82C411.77 154.91 416.8 151.86 422.67 150.25C438.69 145.85 454.84 153.81 458.76 168.03C461.45 177.83 457.64 188.04 449.78 194.89C448.95 195.61 447.98 196.09 446.97 196.34C444.32 196.98 441.57 195.77 440 193.54C437.14 189.48 432.86 184.32 426.71 179.42C420.66 174.59 414.77 171.57 410.23 169.68H410.22Z" fill="white"/>
<path d="M363.44 290.13C359.55 283.47 353.25 280.84 348.56 278.95C341.58 276.14 335.14 276.12 322.54 276.18C309.64 276.24 303.05 276.34 296.01 279.46C291.9 281.28 286.21 283.9 282.57 290.13C281.43 292.08 276.77 300.01 280.67 307.8C283.7 313.85 290.28 316.78 295.6 316.86C301.82 316.96 306.49 313.21 312.01 308.78C314.91 306.45 317.06 304.19 318.52 302.49C321.03 300.07 325 300.07 327.51 302.49C328.88 303.8 331.18 305.99 334.02 308.78C338.18 312.86 339.15 313.95 341.17 315.01C345.23 317.15 349.25 316.94 350.43 316.86C356.99 316.38 362.83 312.86 365.36 307.8C369.26 300 364.58 292.05 363.46 290.13H363.44Z" fill="white"/>
<path d="M318.22 287.05L311.3 277.83C308.34 273.88 311.16 268.25 316.09 268.25H329.93C334.86 268.25 337.68 273.88 334.72 277.83L327.8 287.05C325.41 290.24 320.62 290.24 318.22 287.05Z" fill="#3A3A3A"/>
<path d="M250.98 251.87C250.98 266.18 259.48 277.79 269.97 277.79C280.46 277.79 288.96 266.19 288.96 251.87C288.96 248.29 288.43 244.87 287.46 241.77L252.48 236.78C251.52 239.88 250.98 248.29 250.98 251.87Z" fill="#262727"/>
<path d="M394.67 251.87C394.67 266.18 386.17 277.79 375.68 277.79C365.19 277.79 356.69 266.19 356.69 251.87C356.69 248.29 357.22 244.87 358.19 241.77L393.17 236.78C394.13 239.88 394.67 248.29 394.67 251.87Z" fill="#262727"/>
<path d="M262 253.99C263.806 253.99 265.27 251.85 265.27 249.21C265.27 246.57 263.806 244.43 262 244.43C260.195 244.43 258.73 246.57 258.73 249.21C258.73 251.85 260.195 253.99 262 253.99Z" fill="white"/>
<path d="M366.331 254.6C368.137 254.6 369.601 252.46 369.601 249.82C369.601 247.18 368.137 245.04 366.331 245.04C364.525 245.04 363.061 247.18 363.061 249.82C363.061 252.46 364.525 254.6 366.331 254.6Z" fill="white"/>
<path d="M267.99 271.83C273.82 272.93 280.53 268.76 280.51 265.03C280.49 261.47 274.35 258.83 270.59 258.04C266.77 257.23 260.14 257.21 258.72 260.39C257.19 263.83 261.89 270.68 267.99 271.83Z" fill="#595959"/>
<path d="M378.18 271.83C372.35 272.93 365.64 268.76 365.66 265.03C365.68 261.47 371.82 258.83 375.58 258.04C379.4 257.23 386.03 257.21 387.45 260.39C388.98 263.83 384.28 270.68 378.18 271.83Z" fill="#595959"/>
<path d="M379.72 21.5C373.56 21.5 367.71 22.85 362.45 25.28C354.47 10.23 338.74 0 320.64 0C302.54 0 286.98 10.13 278.95 25.04C273.83 22.77 268.17 21.5 262.21 21.5C239.24 21.5 220.61 50.75 220.61 73.93C220.61 97.11 239.23 115.89 262.21 115.89C275.91 115.89 288.06 109.21 295.64 98.9C302.9 103.45 311.46 106.08 320.63 106.08C329.8 106.08 338.72 103.34 346.07 98.61C353.63 109.08 365.88 115.89 379.71 115.89C402.68 115.89 421.31 97.1 421.31 73.93C421.31 50.76 402.69 21.5 379.71 21.5H379.72Z" fill="white"/>
<path d="M380.17 150.67C372.01 145.29 351.22 142.59 321.08 142.47C290.39 142.35 269.21 145.3 261.07 150.67C259.38 132.31 257.6 122.14 255.71 101.54C268.55 95.6198 290.69 87.6398 319.6 87.4498C349.62 87.2498 372.56 95.5398 385.57 101.54C383.67 122.15 381.87 132.31 380.18 150.67H380.17Z" fill="white"/>
<g opacity="0.8">
<path d="M363.821 37.9199C364.641 44.1599 364.981 52.9499 362.751 63.1799C360.051 75.5499 354.681 84.9699 350.591 90.9099" fill="white"/>
<path d="M363.821 37.9202C369.131 56.1502 363.581 77.1902 350.591 90.9102C354.531 82.4902 358.051 74.1102 360.291 65.1602C362.601 56.2302 363.501 47.2102 363.821 37.9102V37.9202Z" fill="#DADADA"/>
</g>
<g opacity="0.8">
<path d="M277.711 38.73C276.891 44.97 276.551 53.76 278.781 63.99C281.481 76.36 286.851 85.78 290.941 91.72" fill="white"/>
<path d="M277.71 38.73C278.03 48.02 278.93 57.05 281.24 65.98C283.48 74.93 287 83.3 290.94 91.73C277.94 78.01 272.39 56.97 277.71 38.74V38.73Z" fill="#DADADA"/>
</g>
<g opacity="0.8">
<path d="M265.141 114.37C298.061 95.9202 340.621 95.8902 373.531 114.37C364.861 110.82 355.971 108.01 346.891 106.11C319.561 100.24 290.871 103.62 265.131 114.37H265.141Z" fill="#D7D7D7"/>
</g>
<defs>
<linearGradient id="paint0_linear_1816_15000" x1="62.5837" y1="645.174" x2="76.5929" y2="674.089" gradientUnits="userSpaceOnUse">
<stop stop-color="#E2E2E2"/>
<stop offset="0.79" stop-color="#E2E2E2"/>
<stop offset="1" stop-color="#6F9A3A"/>
</linearGradient>
<linearGradient id="paint1_linear_1816_15000" x1="105.417" y1="652.759" x2="84.6507" y2="677.289" gradientUnits="userSpaceOnUse">
<stop stop-color="#E2E2E2"/>
<stop offset="0.79" stop-color="#E2E2E2"/>
<stop offset="1" stop-color="#6F9A3A"/>
</linearGradient>
<linearGradient id="paint2_linear_1816_15000" x1="94.8726" y1="675.815" x2="74.1061" y2="700.345" gradientUnits="userSpaceOnUse">
<stop stop-color="#E2E2E2"/>
<stop offset="0.79" stop-color="#E2E2E2"/>
<stop offset="1" stop-color="#6F9A3A"/>
</linearGradient>
<linearGradient id="paint3_linear_1816_15000" x1="92.9784" y1="683.465" x2="80.7398" y2="653.757" gradientUnits="userSpaceOnUse">
<stop stop-color="#E2E2E2"/>
<stop offset="0.79" stop-color="#E2E2E2"/>
<stop offset="1" stop-color="#6F9A3A"/>
</linearGradient>
<linearGradient id="paint4_linear_1816_15000" x1="96.9598" y1="695.463" x2="91.1652" y2="663.86" gradientUnits="userSpaceOnUse">
<stop stop-color="#E2E2E2"/>
<stop offset="0.79" stop-color="#E2E2E2"/>
<stop offset="1" stop-color="#6F9A3A"/>
</linearGradient>
<linearGradient id="paint5_linear_1816_15000" x1="73.0414" y1="646.289" x2="52.275" y2="670.819" gradientUnits="userSpaceOnUse">
<stop stop-color="#E2E2E2"/>
<stop offset="0.79" stop-color="#E2E2E2"/>
<stop offset="1" stop-color="#6F9A3A"/>
</linearGradient>
<linearGradient id="paint6_linear_1816_15000" x1="78.5307" y1="673.452" x2="108.271" y2="661.267" gradientUnits="userSpaceOnUse">
<stop stop-color="#E2E2E2"/>
<stop offset="0.79" stop-color="#E2E2E2"/>
</linearGradient>
<linearGradient id="paint7_linear_1816_15000" x1="80.0508" y1="684.522" x2="109.791" y2="672.337" gradientUnits="userSpaceOnUse">
<stop stop-color="#E2E2E2"/>
<stop offset="0.79" stop-color="#E2E2E2"/>
</linearGradient>
<linearGradient id="paint8_linear_1816_15000" x1="50.1947" y1="681.02" x2="79.9352" y2="668.835" gradientUnits="userSpaceOnUse">
<stop stop-color="#E2E2E2"/>
<stop offset="0.79" stop-color="#E2E2E2"/>
</linearGradient>
<linearGradient id="paint9_linear_1816_15000" x1="108.176" y1="666.549" x2="85.9696" y2="689.77" gradientUnits="userSpaceOnUse">
<stop stop-color="#E2E2E2"/>
<stop offset="0.79" stop-color="#E2E2E2"/>
</linearGradient>
<linearGradient id="paint10_linear_1816_15000" x1="57.7539" y1="685.242" x2="52.6098" y2="653.516" gradientUnits="userSpaceOnUse">
<stop stop-color="#E2E2E2"/>
<stop offset="0.79" stop-color="#E2E2E2"/>
</linearGradient>
<linearGradient id="paint11_linear_1816_15000" x1="69.3877" y1="673.398" x2="64.2436" y2="641.672" gradientUnits="userSpaceOnUse">
<stop stop-color="#E2E2E2"/>
<stop offset="0.79" stop-color="#E2E2E2"/>
</linearGradient>
<linearGradient id="paint12_linear_1816_15000" x1="69.3902" y1="695.593" x2="64.2477" y2="663.877" gradientUnits="userSpaceOnUse">
<stop stop-color="#E2E2E2"/>
<stop offset="0.79" stop-color="#E2E2E2"/>
</linearGradient>
<linearGradient id="paint13_linear_1816_15000" x1="99.1592" y1="669.887" x2="94.0167" y2="638.171" gradientUnits="userSpaceOnUse">
<stop stop-color="#E2E2E2"/>
<stop offset="0.79" stop-color="#E2E2E2"/>
</linearGradient>
<linearGradient id="paint14_linear_1816_15000" x1="114.809" y1="692.362" x2="109.665" y2="660.637" gradientUnits="userSpaceOnUse">
<stop stop-color="#E2E2E2"/>
<stop offset="0.79" stop-color="#E2E2E2"/>
</linearGradient>
<linearGradient id="paint15_linear_1816_15000" x1="107.853" y1="678.395" x2="102.711" y2="646.68" gradientUnits="userSpaceOnUse">
<stop stop-color="#E2E2E2"/>
<stop offset="0.79" stop-color="#E2E2E2"/>
</linearGradient>
<linearGradient id="paint16_linear_1816_15000" x1="65.6806" y1="657.692" x2="44.9142" y2="682.223" gradientUnits="userSpaceOnUse">
<stop stop-color="#E2E2E2"/>
<stop offset="0.79" stop-color="#E2E2E2"/>
<stop offset="1" stop-color="#6F9A3A"/>
</linearGradient>
<linearGradient id="paint17_linear_1816_15000" x1="61.4054" y1="670.559" x2="91.1366" y2="658.378" gradientUnits="userSpaceOnUse">
<stop stop-color="#E2E2E2"/>
<stop offset="0.79" stop-color="#E2E2E2"/>
<stop offset="1" stop-color="#6F9A3A"/>
</linearGradient>
<linearGradient id="paint18_linear_1816_15000" x1="55.5399" y1="688.686" x2="85.2712" y2="676.505" gradientUnits="userSpaceOnUse">
<stop stop-color="#E2E2E2"/>
<stop offset="0.79" stop-color="#E2E2E2"/>
<stop offset="1" stop-color="#6F9A3A"/>
</linearGradient>
<linearGradient id="paint19_linear_1816_15000" x1="48.1287" y1="684.525" x2="77.8692" y2="672.34" gradientUnits="userSpaceOnUse">
<stop stop-color="#E2E2E2"/>
<stop offset="0.79" stop-color="#E2E2E2"/>
<stop offset="1" stop-color="#6F9A3A"/>
</linearGradient>
<linearGradient id="paint20_linear_1816_15000" x1="77.5405" y1="672.673" x2="65.0742" y2="643.06" gradientUnits="userSpaceOnUse">
<stop stop-color="#E2E2E2"/>
<stop offset="0.79" stop-color="#E2E2E2"/>
<stop offset="1" stop-color="#6F9A3A"/>
</linearGradient>
<linearGradient id="paint21_linear_1816_15000" x1="84.4551" y1="678.417" x2="114.186" y2="666.235" gradientUnits="userSpaceOnUse">
<stop stop-color="#E2E2E2"/>
<stop offset="0.79" stop-color="#E2E2E2"/>
<stop offset="1" stop-color="#6F9A3A"/>
</linearGradient>
<linearGradient id="paint22_linear_1816_15000" x1="103.909" y1="653.654" x2="117.019" y2="682.988" gradientUnits="userSpaceOnUse">
<stop stop-color="#E2E2E2"/>
<stop offset="0.79" stop-color="#E2E2E2"/>
<stop offset="1" stop-color="#6F9A3A"/>
</linearGradient>
<linearGradient id="paint23_linear_1816_15000" x1="116.096" y1="674.209" x2="84.0186" y2="672.37" gradientUnits="userSpaceOnUse">
<stop stop-color="#E2E2E2"/>
<stop offset="0.79" stop-color="#E2E2E2"/>
<stop offset="1" stop-color="#6F9A3A"/>
</linearGradient>
<linearGradient id="paint24_linear_1816_15000" x1="84.0105" y1="661.407" x2="97.124" y2="690.75" gradientUnits="userSpaceOnUse">
<stop stop-color="#E2E2E2"/>
<stop offset="0.79" stop-color="#E2E2E2"/>
<stop offset="1" stop-color="#6F9A3A"/>
</linearGradient>
<linearGradient id="paint25_linear_1816_15000" x1="88.4459" y1="647.089" x2="102.455" y2="676.004" gradientUnits="userSpaceOnUse">
<stop stop-color="#E2E2E2"/>
<stop offset="0.79" stop-color="#E2E2E2"/>
<stop offset="1" stop-color="#6F9A3A"/>
</linearGradient>
<linearGradient id="paint26_linear_1816_15000" x1="131.275" y1="654.669" x2="110.508" y2="679.199" gradientUnits="userSpaceOnUse">
<stop stop-color="#E2E2E2"/>
<stop offset="0.79" stop-color="#E2E2E2"/>
<stop offset="1" stop-color="#6F9A3A"/>
</linearGradient>
<linearGradient id="paint27_linear_1816_15000" x1="120.725" y1="677.733" x2="99.9649" y2="702.255" gradientUnits="userSpaceOnUse">
<stop stop-color="#E2E2E2"/>
<stop offset="0.79" stop-color="#E2E2E2"/>
<stop offset="1" stop-color="#6F9A3A"/>
</linearGradient>
<linearGradient id="paint28_linear_1816_15000" x1="118.837" y1="685.38" x2="106.595" y2="655.663" gradientUnits="userSpaceOnUse">
<stop stop-color="#E2E2E2"/>
<stop offset="0.79" stop-color="#E2E2E2"/>
<stop offset="1" stop-color="#6F9A3A"/>
</linearGradient>
<linearGradient id="paint29_linear_1816_15000" x1="122.819" y1="697.381" x2="117.023" y2="665.768" gradientUnits="userSpaceOnUse">
<stop stop-color="#E2E2E2"/>
<stop offset="0.79" stop-color="#E2E2E2"/>
<stop offset="1" stop-color="#6F9A3A"/>
</linearGradient>
<linearGradient id="paint30_linear_1816_15000" x1="98.8937" y1="648.206" x2="78.1337" y2="672.729" gradientUnits="userSpaceOnUse">
<stop stop-color="#E2E2E2"/>
<stop offset="0.79" stop-color="#E2E2E2"/>
<stop offset="1" stop-color="#6F9A3A"/>
</linearGradient>
<linearGradient id="paint31_linear_1816_15000" x1="104.399" y1="675.368" x2="134.13" y2="663.187" gradientUnits="userSpaceOnUse">
<stop stop-color="#E2E2E2"/>
<stop offset="0.79" stop-color="#E2E2E2"/>
</linearGradient>
<linearGradient id="paint32_linear_1816_15000" x1="105.915" y1="686.429" x2="135.646" y2="674.247" gradientUnits="userSpaceOnUse">
<stop stop-color="#E2E2E2"/>
<stop offset="0.79" stop-color="#E2E2E2"/>
</linearGradient>
<linearGradient id="paint33_linear_1816_15000" x1="76.0578" y1="682.927" x2="105.789" y2="670.746" gradientUnits="userSpaceOnUse">
<stop stop-color="#E2E2E2"/>
<stop offset="0.79" stop-color="#E2E2E2"/>
</linearGradient>
<linearGradient id="paint34_linear_1816_15000" x1="134.042" y1="668.468" x2="111.836" y2="691.689" gradientUnits="userSpaceOnUse">
<stop stop-color="#E2E2E2"/>
<stop offset="0.79" stop-color="#E2E2E2"/>
</linearGradient>
<linearGradient id="paint35_linear_1816_15000" x1="83.6132" y1="687.158" x2="78.4691" y2="655.432" gradientUnits="userSpaceOnUse">
<stop stop-color="#E2E2E2"/>
<stop offset="0.79" stop-color="#E2E2E2"/>
</linearGradient>
<linearGradient id="paint36_linear_1816_15000" x1="95.2579" y1="675.311" x2="90.1138" y2="643.586" gradientUnits="userSpaceOnUse">
<stop stop-color="#E2E2E2"/>
<stop offset="0.79" stop-color="#E2E2E2"/>
</linearGradient>
<linearGradient id="paint37_linear_1816_15000" x1="95.2506" y1="697.509" x2="90.1065" y2="665.783" gradientUnits="userSpaceOnUse">
<stop stop-color="#E2E2E2"/>
<stop offset="0.79" stop-color="#E2E2E2"/>
</linearGradient>
<linearGradient id="paint38_linear_1816_15000" x1="125.029" y1="671.801" x2="119.885" y2="640.075" gradientUnits="userSpaceOnUse">
<stop stop-color="#E2E2E2"/>
<stop offset="0.79" stop-color="#E2E2E2"/>
</linearGradient>
<linearGradient id="paint39_linear_1816_15000" x1="140.667" y1="694.268" x2="135.524" y2="662.552" gradientUnits="userSpaceOnUse">
<stop stop-color="#E2E2E2"/>
<stop offset="0.79" stop-color="#E2E2E2"/>
</linearGradient>
<linearGradient id="paint40_linear_1816_15000" x1="133.714" y1="680.311" x2="128.57" y2="648.585" gradientUnits="userSpaceOnUse">
<stop stop-color="#E2E2E2"/>
<stop offset="0.79" stop-color="#E2E2E2"/>
</linearGradient>
<linearGradient id="paint41_linear_1816_15000" x1="91.5462" y1="659.609" x2="70.7798" y2="684.139" gradientUnits="userSpaceOnUse">
<stop stop-color="#E2E2E2"/>
<stop offset="0.79" stop-color="#E2E2E2"/>
<stop offset="1" stop-color="#6F9A3A"/>
</linearGradient>
<linearGradient id="paint42_linear_1816_15000" x1="87.2593" y1="672.47" x2="117" y2="660.284" gradientUnits="userSpaceOnUse">
<stop stop-color="#E2E2E2"/>
<stop offset="0.79" stop-color="#E2E2E2"/>
<stop offset="1" stop-color="#6F9A3A"/>
</linearGradient>
<linearGradient id="paint43_linear_1816_15000" x1="81.3948" y1="690.596" x2="111.135" y2="678.411" gradientUnits="userSpaceOnUse">
<stop stop-color="#E2E2E2"/>
<stop offset="0.79" stop-color="#E2E2E2"/>
<stop offset="1" stop-color="#6F9A3A"/>
</linearGradient>
<linearGradient id="paint44_linear_1816_15000" x1="73.9928" y1="686.432" x2="103.724" y2="674.25" gradientUnits="userSpaceOnUse">
<stop stop-color="#E2E2E2"/>
<stop offset="0.79" stop-color="#E2E2E2"/>
<stop offset="1" stop-color="#6F9A3A"/>
</linearGradient>
<linearGradient id="paint45_linear_1816_15000" x1="103.399" y1="674.59" x2="90.9292" y2="644.968" gradientUnits="userSpaceOnUse">
<stop stop-color="#E2E2E2"/>
<stop offset="0.79" stop-color="#E2E2E2"/>
<stop offset="1" stop-color="#6F9A3A"/>
</linearGradient>
<linearGradient id="paint46_linear_1816_15000" x1="110.31" y1="680.327" x2="140.05" y2="668.142" gradientUnits="userSpaceOnUse">
<stop stop-color="#E2E2E2"/>
<stop offset="0.79" stop-color="#E2E2E2"/>
<stop offset="1" stop-color="#6F9A3A"/>
</linearGradient>
<linearGradient id="paint47_linear_1816_15000" x1="129.77" y1="655.569" x2="142.88" y2="684.903" gradientUnits="userSpaceOnUse">
<stop stop-color="#E2E2E2"/>
<stop offset="0.79" stop-color="#E2E2E2"/>
<stop offset="1" stop-color="#6F9A3A"/>
</linearGradient>
<linearGradient id="paint48_linear_1816_15000" x1="141.958" y1="676.122" x2="109.871" y2="674.283" gradientUnits="userSpaceOnUse">
<stop stop-color="#E2E2E2"/>
<stop offset="0.79" stop-color="#E2E2E2"/>
<stop offset="1" stop-color="#6F9A3A"/>
</linearGradient>
<linearGradient id="paint49_linear_1816_15000" x1="109.873" y1="663.322" x2="122.986" y2="692.665" gradientUnits="userSpaceOnUse">
<stop stop-color="#E2E2E2"/>
<stop offset="0.79" stop-color="#E2E2E2"/>
<stop offset="1" stop-color="#6F9A3A"/>
</linearGradient>
<linearGradient id="paint50_linear_1816_15000" x1="75.0008" y1="628.924" x2="89.01" y2="657.839" gradientUnits="userSpaceOnUse">
<stop stop-color="#E2E2E2"/>
<stop offset="0.79" stop-color="#E2E2E2"/>
<stop offset="1" stop-color="#6F9A3A"/>
</linearGradient>
<linearGradient id="paint51_linear_1816_15000" x1="117.832" y1="636.515" x2="97.0717" y2="661.037" gradientUnits="userSpaceOnUse">
<stop stop-color="#E2E2E2"/>
<stop offset="0.79" stop-color="#E2E2E2"/>
<stop offset="1" stop-color="#6F9A3A"/>
</linearGradient>
<linearGradient id="paint52_linear_1816_15000" x1="107.288" y1="659.571" x2="86.5214" y2="684.101" gradientUnits="userSpaceOnUse">
<stop stop-color="#E2E2E2"/>
<stop offset="0.79" stop-color="#E2E2E2"/>
<stop offset="1" stop-color="#6F9A3A"/>
</linearGradient>
<linearGradient id="paint53_linear_1816_15000" x1="105.397" y1="667.22" x2="93.1543" y2="637.503" gradientUnits="userSpaceOnUse">
<stop stop-color="#E2E2E2"/>
<stop offset="0.79" stop-color="#E2E2E2"/>
<stop offset="1" stop-color="#6F9A3A"/>
</linearGradient>
<linearGradient id="paint54_linear_1816_15000" x1="109.374" y1="679.218" x2="103.579" y2="647.615" gradientUnits="userSpaceOnUse">
<stop stop-color="#E2E2E2"/>
<stop offset="0.79" stop-color="#E2E2E2"/>
<stop offset="1" stop-color="#6F9A3A"/>
</linearGradient>
<linearGradient id="paint55_linear_1816_15000" x1="85.4567" y1="630.044" x2="64.6902" y2="654.575" gradientUnits="userSpaceOnUse">
<stop stop-color="#E2E2E2"/>
<stop offset="0.79" stop-color="#E2E2E2"/>
<stop offset="1" stop-color="#6F9A3A"/>
</linearGradient>
<linearGradient id="paint56_linear_1816_15000" x1="90.9465" y1="657.202" x2="120.687" y2="645.016" gradientUnits="userSpaceOnUse">
<stop stop-color="#E2E2E2"/>
<stop offset="0.79" stop-color="#E2E2E2"/>
</linearGradient>
<linearGradient id="paint57_linear_1816_15000" x1="92.4665" y1="668.272" x2="122.207" y2="656.087" gradientUnits="userSpaceOnUse">
<stop stop-color="#E2E2E2"/>
<stop offset="0.79" stop-color="#E2E2E2"/>
</linearGradient>
<linearGradient id="paint58_linear_1816_15000" x1="62.6105" y1="664.77" x2="92.351" y2="652.585" gradientUnits="userSpaceOnUse">
<stop stop-color="#E2E2E2"/>
<stop offset="0.79" stop-color="#E2E2E2"/>
</linearGradient>
<linearGradient id="paint59_linear_1816_15000" x1="120.601" y1="650.301" x2="98.3883" y2="673.529" gradientUnits="userSpaceOnUse">
<stop stop-color="#E2E2E2"/>
<stop offset="0.79" stop-color="#E2E2E2"/>
</linearGradient>
<linearGradient id="paint60_linear_1816_15000" x1="70.1727" y1="668.995" x2="65.0286" y2="637.269" gradientUnits="userSpaceOnUse">
<stop stop-color="#E2E2E2"/>
<stop offset="0.79" stop-color="#E2E2E2"/>
</linearGradient>
<linearGradient id="paint61_linear_1816_15000" x1="81.8075" y1="657.15" x2="76.6634" y2="625.425" gradientUnits="userSpaceOnUse">
<stop stop-color="#E2E2E2"/>
<stop offset="0.79" stop-color="#E2E2E2"/>
</linearGradient>
<linearGradient id="paint62_linear_1816_15000" x1="81.8101" y1="679.346" x2="76.666" y2="647.62" gradientUnits="userSpaceOnUse">
<stop stop-color="#E2E2E2"/>
<stop offset="0.79" stop-color="#E2E2E2"/>
</linearGradient>
<linearGradient id="paint63_linear_1816_15000" x1="111.58" y1="653.64" x2="106.436" y2="621.914" gradientUnits="userSpaceOnUse">
<stop stop-color="#E2E2E2"/>
<stop offset="0.79" stop-color="#E2E2E2"/>
</linearGradient>
<linearGradient id="paint64_linear_1816_15000" x1="127.217" y1="676.107" x2="122.075" y2="644.391" gradientUnits="userSpaceOnUse">
<stop stop-color="#E2E2E2"/>
<stop offset="0.79" stop-color="#E2E2E2"/>
</linearGradient>
<linearGradient id="paint65_linear_1816_15000" x1="120.273" y1="662.148" x2="115.129" y2="630.422" gradientUnits="userSpaceOnUse">
<stop stop-color="#E2E2E2"/>
<stop offset="0.79" stop-color="#E2E2E2"/>
</linearGradient>
<linearGradient id="paint66_linear_1816_15000" x1="78.0961" y1="641.448" x2="57.3362" y2="665.971" gradientUnits="userSpaceOnUse">
<stop stop-color="#E2E2E2"/>
<stop offset="0.79" stop-color="#E2E2E2"/>
<stop offset="1" stop-color="#6F9A3A"/>
</linearGradient>
<linearGradient id="paint67_linear_1816_15000" x1="73.8211" y1="654.309" x2="103.552" y2="642.127" gradientUnits="userSpaceOnUse">
<stop stop-color="#E2E2E2"/>
<stop offset="0.79" stop-color="#E2E2E2"/>
<stop offset="1" stop-color="#6F9A3A"/>
</linearGradient>
<linearGradient id="paint68_linear_1816_15000" x1="67.9557" y1="672.436" x2="97.6869" y2="660.254" gradientUnits="userSpaceOnUse">
<stop stop-color="#E2E2E2"/>
<stop offset="0.79" stop-color="#E2E2E2"/>
<stop offset="1" stop-color="#6F9A3A"/>
</linearGradient>
<linearGradient id="paint69_linear_1816_15000" x1="60.5445" y1="668.275" x2="90.285" y2="656.09" gradientUnits="userSpaceOnUse">
<stop stop-color="#E2E2E2"/>
<stop offset="0.79" stop-color="#E2E2E2"/>
<stop offset="1" stop-color="#6F9A3A"/>
</linearGradient>
<linearGradient id="paint70_linear_1816_15000" x1="89.9525" y1="656.435" x2="77.4823" y2="626.813" gradientUnits="userSpaceOnUse">
<stop stop-color="#E2E2E2"/>
<stop offset="0.79" stop-color="#E2E2E2"/>
<stop offset="1" stop-color="#6F9A3A"/>
</linearGradient>
<linearGradient id="paint71_linear_1816_15000" x1="96.8709" y1="662.166" x2="126.602" y2="649.985" gradientUnits="userSpaceOnUse">
<stop stop-color="#E2E2E2"/>
<stop offset="0.79" stop-color="#E2E2E2"/>
<stop offset="1" stop-color="#6F9A3A"/>
</linearGradient>
<linearGradient id="paint72_linear_1816_15000" x1="116.329" y1="637.402" x2="129.443" y2="666.745" gradientUnits="userSpaceOnUse">
<stop stop-color="#E2E2E2"/>
<stop offset="0.79" stop-color="#E2E2E2"/>
<stop offset="1" stop-color="#6F9A3A"/>
</linearGradient>
<linearGradient id="paint73_linear_1816_15000" x1="128.516" y1="657.963" x2="96.4284" y2="656.124" gradientUnits="userSpaceOnUse">
<stop stop-color="#E2E2E2"/>
<stop offset="0.79" stop-color="#E2E2E2"/>
<stop offset="1" stop-color="#6F9A3A"/>
</linearGradient>
<linearGradient id="paint74_linear_1816_15000" x1="96.4255" y1="645.169" x2="109.535" y2="674.503" gradientUnits="userSpaceOnUse">
<stop stop-color="#E2E2E2"/>
<stop offset="0.79" stop-color="#E2E2E2"/>
<stop offset="1" stop-color="#6F9A3A"/>
</linearGradient>
</defs>
</svg>
