<svg width="651" height="721" viewBox="0 0 651 721" fill="none" xmlns="http://www.w3.org/2000/svg">
<path d="M288.47 676.86C276.95 682.48 265.23 682.71 257.46 682.03C250.62 682.24 239.88 681.61 229.23 676.46C222.98 673.44 219.81 670.34 218.25 668.62C216.55 666.75 213.18 662.98 211.79 657.07C211.37 655.3 211.15 653.45 211.15 651.55C211.15 638.26 222.03 627.38 235.32 627.38H280.97C294.26 627.38 305.14 638.26 305.14 651.55C305.09 654.81 304.5 662.31 299.21 668.9C298.12 670.26 295.24 673.55 288.48 676.85L288.47 676.86Z" fill="#7F7F7F"/>
<path d="M421.52 676.86C410 682.48 398.28 682.71 390.51 682.03C383.67 682.24 372.93 681.61 362.28 676.46C356.03 673.44 352.86 670.34 351.3 668.62C349.6 666.75 346.23 662.98 344.84 657.07C344.42 655.3 344.2 653.45 344.2 651.55C344.2 638.26 355.08 627.38 368.37 627.38H414.02C427.31 627.38 438.19 638.26 438.19 651.55C438.14 654.81 437.55 662.31 432.26 668.9C431.17 670.26 428.29 673.55 421.53 676.85L421.52 676.86Z" fill="#7F7F7F"/>
<path d="M441.39 644.07H207.23C191.87 644.07 179.69 630.51 180.63 614.46L191.1 436.48C193.37 397.96 223.86 367.94 260.72 367.94H387.88C424.74 367.94 455.24 397.96 457.5 436.48L467.97 614.46C468.91 630.51 456.73 644.07 441.37 644.07H441.39Z" fill="white"/>
<path d="M235.93 404.87L172.26 462.4C158.32 475 140.77 476.66 133.26 466.1L131.88 464.16C124.37 453.6 129.63 434.65 143.58 422.06L207.25 364.53C221.19 351.93 238.74 350.27 246.25 360.83L247.63 362.77C255.14 373.33 249.88 392.28 235.93 404.87Z" fill="white"/>
<path d="M268.5 447.8C274.36 447.8 279.11 443.05 279.11 437.19C279.11 431.33 274.36 426.58 268.5 426.58C262.64 426.58 257.89 431.33 257.89 437.19C257.89 443.05 262.64 447.8 268.5 447.8Z" fill="#E8E8E8"/>
<path d="M360.92 447.8C366.78 447.8 371.53 443.05 371.53 437.19C371.53 431.33 366.78 426.58 360.92 426.58C355.06 426.58 350.31 431.33 350.31 437.19C350.31 443.05 355.06 447.8 360.92 447.8Z" fill="#E8E8E8"/>
<path d="M268.5 485.31C274.36 485.31 279.11 480.56 279.11 474.7C279.11 468.84 274.36 464.09 268.5 464.09C262.64 464.09 257.89 468.84 257.89 474.7C257.89 480.56 262.64 485.31 268.5 485.31Z" fill="#E8E8E8"/>
<path d="M360.92 485.31C366.78 485.31 371.53 480.56 371.53 474.7C371.53 468.84 366.78 464.09 360.92 464.09C355.06 464.09 350.31 468.84 350.31 474.7C350.31 480.56 355.06 485.31 360.92 485.31Z" fill="#E8E8E8"/>
<path d="M268.5 525.9C274.36 525.9 279.11 521.15 279.11 515.29C279.11 509.43 274.36 504.68 268.5 504.68C262.64 504.68 257.89 509.43 257.89 515.29C257.89 521.15 262.64 525.9 268.5 525.9Z" fill="#E8E8E8"/>
<path d="M360.92 525.9C366.78 525.9 371.53 521.15 371.53 515.29C371.53 509.43 366.78 504.68 360.92 504.68C355.06 504.68 350.31 509.43 350.31 515.29C350.31 521.15 355.06 525.9 360.92 525.9Z" fill="#E8E8E8"/>
<path d="M467.92 559.24C428.17 566.1 377.83 571.53 321.56 571.63C263.94 571.73 213.78 566.07 173.36 559.09C173.36 553.98 174.17 549.27 174.17 544.16C215.12 550.83 264.4 555.7 321.56 555.6C377.38 555.5 426.39 550.31 466.64 543.76C466.64 548.87 467.91 554.13 467.91 559.24H467.92Z" fill="#E8E8E8"/>
<path d="M648.85 687.79C434.13 690.35 219.41 692.91 4.69 695.47C3.18 692.14 1.29 687.07 0.440002 680.65C0.280002 679.43 0 677 0 670.84C0 666.32 0.149988 660.06 0.799988 652.49H650C650.73 658.62 651.11 665.91 650.57 674.06C650.24 679.07 649.61 683.66 648.84 687.78L648.85 687.79Z" fill="#E5BD7F"/>
<path d="M607.83 720.31H42.8801C14.1601 720.31 -6.08998 692.13 3.08002 664.91L39.11 557.95C44.86 540.87 60.88 529.36 78.91 529.36H571.8C589.83 529.36 605.84 540.86 611.6 557.95L647.63 664.91C656.8 692.13 636.55 720.31 607.83 720.31Z" fill="#E5BD7F"/>
<path d="M607.83 693.78H42.8801C14.1601 693.78 -6.08998 665.6 3.08002 638.38L39.11 531.42C44.86 514.34 60.88 502.83 78.91 502.83H571.8C589.83 502.83 605.84 514.33 611.6 531.42L647.63 638.38C656.8 665.6 636.55 693.78 607.83 693.78Z" fill="#F4D5A4"/>
<mask id="mask0_1816_14805" style="mask-type:luminance" maskUnits="userSpaceOnUse" x="0" y="502" width="650" height="192">
<path d="M607.83 693.78H42.8801C14.1601 693.78 -6.08998 665.6 3.08002 638.38L39.11 531.42C44.86 514.34 60.88 502.83 78.91 502.83H571.8C589.83 502.83 605.84 514.33 611.6 531.42L647.63 638.38C656.8 665.6 636.55 693.78 607.83 693.78Z" fill="white"/>
</mask>
<g mask="url(#mask0_1816_14805)">
<path d="M32.6802 540.49C44.3802 540.48 56.2502 541 67.7402 538.39C73.4302 537.1 79.0302 534.95 83.8002 531.55C89.0102 527.84 92.9902 522.91 95.5302 517.04C98.4302 510.32 99.6002 503.06 101.81 496.11C102.51 493.9 99.0402 492.95 98.3402 495.15C96.4502 501.08 95.3702 507.25 93.2402 513.11C91.1602 518.85 87.8402 523.89 83.0202 527.68C74.2002 534.61 62.4402 536.29 51.5602 536.77C45.2702 537.04 38.9702 536.89 32.6702 536.9C30.3502 536.9 30.3502 540.5 32.6702 540.5L32.6802 540.49Z" fill="#EAC696"/>
<path d="M23.88 563.48C43.82 564.6 63.9199 560.71 82.0699 552.38C98.9499 544.63 113.95 532.86 125.61 518.42C132.07 510.43 137.53 501.68 141.8 492.33C142.75 490.24 139.65 488.41 138.69 490.51C131.31 506.68 120.35 521.08 106.75 532.52C92.28 544.69 74.8899 553.13 56.4499 557.24C45.7699 559.62 34.8 560.49 23.88 559.88C21.57 559.75 21.57 563.35 23.88 563.48Z" fill="#EAC696"/>
<path d="M6.75024 588.85C25.1102 592.41 44.0102 592.51 62.4202 589.27C80.8302 586.03 97.7002 579.68 113.41 570.4C127.32 562.19 139.99 552.06 152.32 541.68C164.65 531.3 176.85 520.38 189.86 510.66C202.47 501.23 216.01 492.78 230.87 487.4C232.74 486.72 234.64 486.09 236.54 485.51C238.75 484.83 237.81 481.36 235.58 482.04C220.39 486.7 206.41 494.46 193.47 503.6C180.35 512.88 168.21 523.44 156 533.85C143.79 544.26 131.45 554.61 117.96 563.34C103.08 572.98 86.8402 580.13 69.5402 584.15C51.5902 588.32 32.7903 589.22 14.5403 586.55C12.2403 586.21 9.96024 585.82 7.68024 585.38C5.40024 584.94 4.45028 588.41 6.72028 588.85H6.75024Z" fill="#EAC696"/>
<path d="M-5.34979 628.87C19.0702 631.15 44.1402 633.35 68.3302 627.96C80.1102 625.34 91.2202 620.7 101.42 614.26C111.62 607.82 120.64 600.19 129.84 592.64C138.99 585.13 148.35 577.98 158.29 571.54C168.23 565.1 178.29 559.38 188.65 553.94C209.38 543.07 230.82 533.64 252.03 523.75C273.24 513.86 294.32 503.44 314.03 490.73C316.45 489.17 318.85 487.57 321.22 485.94C323.12 484.64 321.32 481.52 319.4 482.83C300.13 496.06 279.33 506.83 258.25 516.85C237.17 526.87 215.61 536.24 194.7 546.79C174 557.23 153.92 568.94 135.68 583.32C126.32 590.7 117.39 598.61 107.74 605.61C98.0502 612.65 87.6702 618.54 76.2102 622.14C52.7502 629.49 27.6502 628.18 3.49017 626.08C0.540173 625.82 -2.39978 625.55 -5.33978 625.28C-7.63978 625.06 -7.62978 628.66 -5.33978 628.88L-5.34979 628.87Z" fill="#EAC696"/>
<path d="M74.7899 700.7C90.5199 706.15 107.69 704.23 122.99 698.32C139.19 692.07 153.07 681.73 165.7 670C178.79 657.85 190.63 644.43 203.84 632.4C217.05 620.37 230.39 611.08 245.11 602.54C259.89 593.97 275.38 586.68 291.13 580.11C306.92 573.52 322.99 567.62 339.07 561.77C354.74 556.07 370.44 550.45 385.9 544.2C400.8 538.18 415.5 531.63 429.7 524.12C443.9 516.61 457.48 508.19 470.14 498.39C482.57 488.78 494 477.84 503.7 465.47C506.09 462.42 508.38 459.3 510.56 456.1C511.87 454.18 508.75 452.38 507.45 454.28C498.66 467.17 488.01 478.7 476.18 488.85C464.27 499.07 451.21 507.88 437.6 515.66C423.69 523.62 409.19 530.52 394.44 536.79C379.58 543.11 364.44 548.71 349.27 554.23C333.19 560.08 317.08 565.85 301.17 572.16C285.26 578.47 269.85 585.16 254.84 593.05C239.83 600.94 225.68 609.83 212.51 620.29C198.73 631.24 186.74 644.09 174.37 656.54C162.2 668.79 149.44 680.78 134.2 689.14C119.98 696.94 103.55 701.88 87.22 699.91C83.31 699.44 79.46 698.5 75.75 697.21C73.56 696.45 72.6199 699.92 74.7899 700.68V700.7Z" fill="#EAC696"/>
<path d="M589.15 705.9C568.99 703.73 547.49 701.34 530.36 689.5C516.98 680.26 506.72 662.5 510.39 645.9C514.48 627.43 533.91 619.5 550.49 615.8C570.62 611.31 591.63 610.6 612.04 613.53C632.5 616.46 652.46 622.94 670.61 632.83C672.84 634.05 675.04 635.32 677.22 636.63C679.21 637.83 681.02 634.72 679.04 633.52C660.66 622.42 640.2 614.8 619.06 611.03C597.88 607.25 576.08 607.23 554.93 611.22C537.06 614.59 516.1 621.41 508.56 639.74C501.58 656.71 510.09 676.41 522.91 688.12C538.56 702.42 560.87 706.21 581.16 708.6C583.82 708.91 586.48 709.2 589.15 709.49C590.12 709.59 590.94 708.59 590.95 707.69C590.96 706.63 590.11 705.99 589.15 705.89V705.9Z" fill="#EAC696"/>
<path d="M622.93 705.56C607 702.62 591.64 696.97 577.64 688.82C566.11 682.11 550.59 672.39 551.33 657.07C551.97 643.94 565.67 632.01 578.73 633.22C585.73 633.87 592.23 637.75 598.37 640.85C604.02 643.7 609.76 646.34 615.68 648.6C629.21 653.78 643.39 657.05 657.76 658.83C659.95 659.1 662.15 659.33 664.35 659.54C666.55 659.75 666.64 656.15 664.35 655.94C648.9 654.52 633.6 651.34 619.02 646.02C613.06 643.85 607.28 641.28 601.61 638.45C594.97 635.13 588.16 631.04 580.72 629.87C566.5 627.64 551.9 638.57 548.44 652.28C546.61 659.53 548.44 667.03 552.67 673.1C556.9 679.17 563.34 684 569.73 688.16C583.77 697.31 599.47 703.99 615.81 707.75C617.85 708.22 619.91 708.64 621.97 709.02C624.23 709.44 625.2 705.97 622.93 705.55V705.56Z" fill="#EAC696"/>
<path d="M537.28 496.54C535.51 505.55 531.99 514.12 526.88 521.75C524.28 525.64 521.26 529.21 517.93 532.49C514.6 535.77 510.74 539.05 507.19 542.38C500.42 548.74 494.06 556.33 492.41 565.76C491 573.82 493.66 581.79 500.13 586.91C505.93 591.5 513.6 593.59 520.93 593.13C529.83 592.57 538.1 588.29 545.18 583.1C559.99 572.25 571.63 555.71 590.11 550.78C599.72 548.21 609.79 548.54 619.51 546.55C627.32 544.95 635.45 541.69 640.77 535.52C642.08 534.01 643.2 532.36 644.1 530.57C645.13 528.51 642.03 526.68 640.99 528.75C637.46 535.79 630.35 539.8 623.03 541.96C614.06 544.61 604.59 544.51 595.41 545.99C590.7 546.75 586.13 547.99 581.77 549.94C577.74 551.75 573.98 554.13 570.45 556.77C563.26 562.15 556.98 568.56 550.22 574.44C543.54 580.25 536.15 585.74 527.54 588.27C520.67 590.29 513.13 589.98 506.65 586.77C500.17 583.56 495.66 577.74 495.59 570.4C495.5 561.29 501.18 553.36 507.36 547.2C514 540.57 521.46 534.89 527.22 527.4C532.61 520.39 536.69 512.38 539.19 503.9C539.81 501.78 540.33 499.64 540.75 497.47C541.17 495.3 537.73 494.24 537.28 496.51V496.54Z" fill="#EAC696"/>
<path d="M363.59 584.44C370.92 586.07 378.64 585.36 385.57 582.48C392.39 579.64 399.36 574.52 402.35 567.55C403.88 563.98 404.07 560.02 402.18 556.55C400.55 553.54 397.39 551.24 393.87 551.42C390.35 551.6 387.36 554.01 385.08 556.66C382.55 559.61 380.31 562.71 377.47 565.39C374.14 568.53 370.42 570.97 366.44 573.2C362.46 575.43 358.94 579.16 361.13 583.81C362.11 585.9 365.22 584.08 364.24 581.99C363.64 580.72 364.46 579.22 365.35 578.32C366.56 577.09 368.19 576.35 369.68 575.51C372.75 573.79 375.64 571.76 378.31 569.46C380.98 567.16 383.29 564.65 385.43 561.92C387.22 559.63 389.07 556.99 391.71 555.62C394.17 554.35 396.82 555.15 398.45 557.31C400.33 559.79 400.33 562.94 399.22 565.75C396.89 571.69 390.85 576.12 385.24 578.7C378.83 581.64 371.44 582.47 364.55 580.94C362.29 580.44 361.33 583.91 363.59 584.41V584.44Z" fill="#EAC696"/>
<path d="M513.55 494.54C498.88 499.14 488.52 511.75 481.75 525.01C477.61 533.11 474.47 541.66 471.06 550.07C467.65 558.48 463.87 566.42 459.01 573.96C449.31 588.98 436.8 602 424.81 615.17C411.74 629.54 398.61 643.85 385.42 658.11C372.17 672.43 358.87 686.7 345.5 700.9C343.86 702.64 342.23 704.38 340.59 706.11C338.95 707.84 341.54 710.34 343.13 708.65C356.4 694.57 369.61 680.44 382.76 666.26C395.85 652.14 408.89 637.96 421.87 623.72C434.02 610.39 446.7 597.3 457.34 582.7C462.5 575.62 467.01 568.12 470.64 560.14C474.38 551.94 477.39 543.43 480.96 535.16C486.97 521.24 495.37 506.87 509.52 499.95C511.14 499.16 512.81 498.51 514.52 497.98C516.72 497.29 515.78 493.81 513.56 494.51L513.55 494.54Z" fill="#EAC696"/>
<path d="M219.19 709.82C225.83 697.01 233.96 685 243.42 674.11C252.88 663.22 263.57 653.4 275.29 645C281.13 640.81 287.21 636.97 293.51 633.5C296.4 631.91 299.31 630.44 302.51 629.58C305.22 628.85 308.29 628.43 310.98 629.49C318.15 632.31 315.01 641.68 313.19 646.96C310.27 655.43 307.35 663.9 304.42 672.37C298.55 689.39 292.68 706.41 286.81 723.43C286.08 725.55 285.35 727.67 284.62 729.78C283.89 731.89 287.34 732.92 288.09 730.74C294.2 713.01 300.32 695.29 306.43 677.56C309.46 668.77 312.49 659.99 315.52 651.2C317.85 644.46 321.73 635.57 316.49 629.18C312.13 623.87 304.39 624.87 298.68 627.03C295.39 628.27 292.32 630 289.27 631.75C285.98 633.63 282.75 635.62 279.58 637.7C267.06 645.94 255.52 655.69 245.3 666.66C235.04 677.67 226.07 689.92 218.75 703.07C217.84 704.7 216.96 706.34 216.11 707.99C215.05 710.04 218.15 711.87 219.22 709.81L219.19 709.82Z" fill="#EAC696"/>
<path d="M635.62 701.37C629.15 701.04 622.72 699.5 616.83 696.79C610.94 694.08 605.43 690.58 601.39 685.79C599.48 683.52 598.07 680.56 598.69 677.54C599.26 674.7 601.58 673.06 604.4 672.95C607.6 672.83 610.48 674.4 613.13 676.03C616.31 677.99 619.44 680.03 622.59 682.03C630.03 686.76 637.46 691.48 644.9 696.21C646.86 697.46 648.67 694.34 646.72 693.1C639.42 688.46 632.13 683.83 624.83 679.19C621.3 676.95 617.81 674.61 614.21 672.47C611.15 670.65 607.67 669.09 604.03 669.37C600.67 669.62 597.45 671.29 595.97 674.44C594.49 677.59 594.76 681.11 596.14 684.19C597.62 687.48 600.31 690.09 603.05 692.35C605.79 694.61 608.85 696.7 612.05 698.42C619.32 702.32 627.4 704.55 635.64 704.97C637.95 705.09 637.95 701.49 635.64 701.37H635.62Z" fill="#EAC696"/>
<path d="M418 696.18C424.45 677.2 435.76 659.98 450.54 646.46C452.38 644.77 454.28 643.14 456.23 641.58C458.18 640.02 460.27 638.37 462.62 637.37C464.68 636.49 467.06 636.18 469.04 637.43C470.48 638.34 471.36 639.9 471.88 641.49C473.3 645.82 472.8 650.56 472.65 655.03C472.45 661.18 472.24 667.32 472.04 673.47C471.58 687.34 471.12 701.21 470.66 715.08C470.58 717.4 474.18 717.39 474.26 715.08C474.69 701.96 475.13 688.84 475.56 675.71C475.77 669.23 475.99 662.75 476.2 656.28C476.36 651.33 476.89 646.15 475.57 641.3C474.39 636.96 471.34 633.32 466.61 633C461.13 632.63 456.36 636.81 452.43 640.07C444.19 646.89 436.91 654.83 430.72 663.54C423.82 673.25 418.37 683.96 414.54 695.24C413.79 697.44 417.27 698.38 418.01 696.2L418 696.18Z" fill="#EAC696"/>
<path d="M404.63 489.03C376.01 491.47 348.49 500.35 322.61 512.57C296.31 524.99 271.7 540.66 247.64 556.91C225.3 571.99 203.01 587.24 181.56 603.57C160.73 619.42 140.65 636.44 123.04 655.86C105.8 674.87 91.0499 696.21 81.0599 719.92C79.8499 722.78 78.7199 725.68 77.6499 728.6C76.8499 730.78 80.3299 731.72 81.1199 729.56C89.8299 705.73 103.53 684.03 119.97 664.79C136.76 645.13 156.21 627.89 176.53 611.98C197.29 595.72 219.05 580.78 240.82 565.91C264.58 549.67 288.69 533.76 314.35 520.65C340.01 507.54 366.33 497.73 394.41 493.78C397.81 493.3 401.22 492.93 404.63 492.64C406.92 492.44 406.94 488.84 404.63 489.04V489.03Z" fill="#EAC696"/>
</g>
<path d="M413.25 516.242L351.379 503.204C344.894 501.837 338.529 505.986 337.163 512.471L331.973 537.1C330.606 543.585 334.755 549.95 341.24 551.317L403.111 564.355C409.596 565.722 415.961 561.573 417.328 555.088L422.518 530.459C423.885 523.974 419.735 517.609 413.25 516.242Z" fill="#F2A100"/>
<path d="M151.41 511.85L130.6 464.62C126.04 454.28 133.53 442.3 147.24 438.01L149.75 437.22C163.46 432.92 178.41 437.87 182.96 448.21L203.77 495.44C208.33 505.78 200.84 517.76 187.13 522.05L184.62 522.84C170.91 527.14 155.96 522.19 151.41 511.85Z" fill="white"/>
<path d="M409.95 423.61L396.48 501.1C393.53 518.07 403.1 532.69 417.74 533.6L420.43 533.77C435.08 534.68 449.47 521.54 452.42 504.57L465.89 427.08C468.84 410.11 459.27 395.49 444.63 394.58L441.94 394.41C427.29 393.5 412.9 406.64 409.95 423.61Z" fill="white"/>
<path d="M444.13 518.97C444.68 532.97 427.81 546.43 412.14 543.24C398.18 540.4 387.15 524.74 391.59 511.63C395.72 499.43 411.45 494.71 423.2 497.47C433.04 499.78 443.7 508.17 444.13 518.96V518.97Z" fill="#457DB1"/>
<path d="M342.001 556.725L316.149 551.277C309.664 549.911 303.299 554.06 301.933 560.545L299.465 572.258C298.098 578.743 302.247 585.108 308.732 586.474L334.584 591.922C341.069 593.289 347.434 589.14 348.801 582.655L351.269 570.942C352.636 564.457 348.486 558.092 342.001 556.725Z" fill="#F2A100"/>
<path d="M338.021 583.993L297.746 575.506C296.67 575.279 295.615 575.967 295.388 577.043L294.493 581.29C294.266 582.365 294.955 583.421 296.03 583.647L336.305 592.135C337.381 592.361 338.436 591.673 338.663 590.598L339.558 586.351C339.785 585.276 339.096 584.22 338.021 583.993Z" fill="#D88B03"/>
<path d="M299.846 568.093L279.161 563.734C272.676 562.367 266.311 566.516 264.944 573.001L263.251 581.035C261.884 587.52 266.034 593.885 272.519 595.251L293.204 599.611C299.689 600.977 306.054 596.828 307.421 590.343L309.114 582.309C310.481 575.824 306.331 569.459 299.846 568.093Z" fill="#F2A100"/>
<path d="M296.274 591.681L255.999 583.194C254.924 582.967 253.868 583.655 253.641 584.731L252.746 588.978C252.52 590.053 253.208 591.109 254.283 591.335L294.559 599.823C295.634 600.049 296.69 599.361 296.916 598.286L297.811 594.039C298.038 592.964 297.35 591.908 296.274 591.681Z" fill="#D88B03"/>
<path d="M268.078 581.475L253.929 578.493C247.444 577.127 241.079 581.276 239.713 587.761L239.003 591.127C237.637 597.612 241.786 603.977 248.271 605.344L262.42 608.325C268.905 609.692 275.27 605.543 276.637 599.058L277.346 595.692C278.713 589.207 274.563 582.842 268.078 581.475Z" fill="#F2A100"/>
<path d="M526.76 631.88C523.47 626.23 519.8 619.93 513.48 616.53C505.2 619.29 495.49 618.45 487.86 622.9C483.28 625.57 479.82 630.08 478.43 635.19C478.43 635.11 478.41 635.02 478.41 634.94C477.5 637.92 476.91 641.4 477.46 644.83C478.86 646.82 481.51 649.9 485.72 651.36C488.86 652.45 492.67 653.25 499.43 652.24C505.31 651.36 508.23 656.28 511.1 654.52C514.07 652.7 513.45 651.98 517.58 649.24C522.77 645.81 526.04 641.7 527.21 641.67C528.98 641.63 529.88 639.13 530.85 639.43C529.59 636.75 528.09 634.17 526.75 631.87L526.76 631.88Z" fill="#F2DA9E"/>
<path d="M487.87 622.91C495.5 618.46 505.21 619.3 513.49 616.54C511.96 615.72 510.27 615.06 508.4 614.63C501.07 612.95 493.18 615.2 487.81 619.64C484.53 622.35 482.85 625.33 481.69 627.43C481.06 628.56 479.51 631.39 478.41 634.95C478.41 635.03 478.43 635.12 478.43 635.2C479.82 630.09 483.29 625.57 487.86 622.91H487.87Z" fill="#F2DA9E"/>
<g opacity="0.64">
<path d="M487.88 622.92C495.51 618.47 505.22 619.31 513.5 616.55C511.97 615.73 510.28 615.07 508.41 614.64C501.08 612.96 493.19 615.21 487.82 619.65C484.54 622.36 482.86 625.34 481.7 627.44C481.07 628.57 479.52 631.4 478.42 634.96C478.42 635.04 478.44 635.13 478.44 635.21C479.83 630.1 483.3 625.58 487.87 622.92H487.88Z" fill="white"/>
</g>
<path d="M508.4 663.05C512.88 663.26 527.68 663.94 532.33 655.26C534.89 650.48 533.36 644.77 530.86 639.45C529.7 639.71 528.01 640.18 526.11 641.08C521.97 643.05 520.33 645.42 517.95 647.26C514.43 649.97 510.75 650.38 505.15 651.01C496.78 651.95 490.27 649.97 486.81 648.88C482.77 647.61 479.6 646.04 477.46 644.84C477.54 645.35 477.65 645.85 477.79 646.35C481.06 658.5 498.8 662.6 508.4 663.05Z" fill="#E8C577"/>
<path d="M550.55 609.81C547.26 604.16 543.59 597.86 537.27 594.46C528.99 597.22 519.28 596.38 511.65 600.83C507.07 603.5 503.61 608.01 502.22 613.12C502.22 613.04 502.2 612.95 502.2 612.87C501.29 615.85 500.7 619.33 501.25 622.76C502.65 624.75 505.3 627.83 509.51 629.29C512.65 630.38 516.46 631.18 523.22 630.17C529.1 629.29 532.02 634.21 534.89 632.45C537.86 630.63 537.24 629.91 541.37 627.17C546.56 623.74 549.83 619.63 551 619.6C552.77 619.56 553.67 617.06 554.64 617.36C553.38 614.68 551.88 612.1 550.54 609.8L550.55 609.81Z" fill="#F2DA9E"/>
<path d="M511.66 600.83C519.29 596.38 529 597.22 537.28 594.46C535.75 593.64 534.06 592.98 532.19 592.55C524.86 590.87 516.97 593.12 511.6 597.56C508.32 600.27 506.64 603.25 505.48 605.35C504.85 606.48 503.3 609.31 502.2 612.87C502.2 612.95 502.22 613.04 502.22 613.12C503.61 608.01 507.08 603.49 511.65 600.83H511.66Z" fill="#F2DA9E"/>
<g opacity="0.64">
<path d="M511.67 600.84C519.3 596.39 529.01 597.23 537.29 594.47C535.76 593.65 534.07 592.99 532.2 592.56C524.87 590.88 516.98 593.13 511.61 597.57C508.33 600.28 506.65 603.26 505.49 605.36C504.86 606.49 503.31 609.32 502.21 612.88C502.21 612.96 502.23 613.05 502.23 613.13C503.62 608.02 507.09 603.5 511.66 600.84H511.67Z" fill="white"/>
</g>
<path d="M532.19 640.97C536.67 641.18 551.47 641.86 556.12 633.18C558.68 628.4 557.15 622.69 554.65 617.37C553.49 617.63 551.8 618.1 549.9 619C545.76 620.97 544.12 623.34 541.74 625.18C538.22 627.89 534.54 628.3 528.94 628.93C520.57 629.87 514.06 627.89 510.6 626.8C506.56 625.53 503.39 623.96 501.25 622.76C501.33 623.27 501.44 623.77 501.58 624.27C504.85 636.42 522.59 640.52 532.19 640.97Z" fill="#E8C577"/>
<path d="M555.55 650.71C552.49 645.45 549.07 639.57 543.18 636.41C535.47 638.98 526.41 638.2 519.31 642.34C515.05 644.83 511.82 649.03 510.52 653.8C510.52 653.72 510.51 653.64 510.5 653.56C509.65 656.33 509.1 659.58 509.62 662.78C510.93 664.64 513.39 667.5 517.32 668.87C520.25 669.89 523.8 670.63 530.09 669.69C535.57 668.87 538.29 673.45 540.97 671.82C543.74 670.13 543.16 669.45 547 666.9C551.83 663.7 554.88 659.87 555.97 659.84C557.62 659.8 558.46 657.48 559.37 657.75C558.2 655.26 556.8 652.85 555.55 650.7V650.71Z" fill="#F2DA9E"/>
<path d="M519.31 642.35C526.42 638.21 535.47 638.99 543.18 636.42C541.75 635.65 540.18 635.04 538.44 634.64C531.61 633.07 524.26 635.17 519.25 639.31C516.19 641.84 514.63 644.61 513.55 646.57C512.97 647.63 511.52 650.26 510.5 653.57C510.5 653.65 510.51 653.73 510.52 653.81C511.82 649.05 515.05 644.84 519.31 642.35Z" fill="#F2DA9E"/>
<g opacity="0.64">
<path d="M519.32 642.36C526.43 638.22 535.48 639 543.19 636.43C541.76 635.66 540.19 635.05 538.45 634.65C531.62 633.08 524.27 635.18 519.26 639.32C516.2 641.85 514.64 644.62 513.56 646.58C512.98 647.64 511.53 650.27 510.51 653.58C510.51 653.66 510.52 653.74 510.53 653.82C511.83 649.06 515.06 644.85 519.32 642.36Z" fill="white"/>
</g>
<path d="M538.44 679.75C542.62 679.94 556.4 680.58 560.74 672.49C563.13 668.04 561.7 662.71 559.37 657.76C558.29 658 556.72 658.44 554.95 659.28C551.09 661.12 549.57 663.32 547.34 665.04C544.06 667.56 540.63 667.95 535.42 668.53C527.62 669.41 521.56 667.56 518.34 666.54C514.58 665.35 511.63 663.9 509.63 662.78C509.71 663.25 509.81 663.72 509.93 664.19C512.98 675.51 529.5 679.33 538.45 679.75H538.44Z" fill="#E8C577"/>
<path d="M585.84 614.13C582.47 608.34 578.71 601.88 572.23 598.4C563.74 601.23 553.78 600.37 545.96 604.93C541.27 607.67 537.72 612.29 536.29 617.53C536.29 617.44 536.27 617.36 536.26 617.27C535.32 620.32 534.72 623.89 535.29 627.41C536.73 629.45 539.44 632.61 543.76 634.11C546.98 635.23 550.89 636.05 557.82 635.01C563.85 634.11 566.84 639.15 569.79 637.35C572.84 635.49 572.2 634.74 576.43 631.94C581.75 628.42 585.1 624.21 586.3 624.18C588.11 624.14 589.04 621.58 590.04 621.88C588.75 619.14 587.22 616.49 585.84 614.13Z" fill="#F2DA9E"/>
<path d="M545.96 604.92C553.78 600.36 563.74 601.22 572.23 598.39C570.66 597.55 568.93 596.88 567.01 596.44C559.49 594.72 551.41 597.02 545.9 601.57C542.53 604.35 540.81 607.4 539.62 609.56C538.98 610.72 537.38 613.62 536.26 617.27C536.26 617.36 536.28 617.44 536.29 617.53C537.72 612.29 541.27 607.66 545.96 604.93V604.92Z" fill="#F2DA9E"/>
<g opacity="0.64">
<path d="M545.97 604.94C553.79 600.38 563.75 601.24 572.24 598.41C570.67 597.57 568.94 596.9 567.02 596.46C559.5 594.74 551.42 597.04 545.91 601.59C542.54 604.37 540.82 607.42 539.63 609.58C538.99 610.74 537.39 613.64 536.27 617.29C536.27 617.38 536.29 617.46 536.3 617.55C537.73 612.31 541.28 607.68 545.97 604.95V604.94Z" fill="white"/>
</g>
<path d="M567.01 646.08C571.6 646.29 586.77 646.99 591.54 638.09C594.17 633.19 592.59 627.33 590.04 621.88C588.85 622.15 587.12 622.63 585.17 623.55C580.93 625.57 579.25 628 576.8 629.88C573.19 632.66 569.42 633.08 563.68 633.73C555.1 634.69 548.42 632.66 544.88 631.54C540.74 630.23 537.49 628.63 535.29 627.4C535.37 627.92 535.48 628.44 535.62 628.95C538.97 641.4 557.15 645.61 567 646.07L567.01 646.08Z" fill="#E8C577"/>
<path d="M584.43 637.27C581.14 631.62 577.47 625.32 571.15 621.92C562.87 624.68 553.16 623.84 545.53 628.29C540.95 630.96 537.49 635.47 536.1 640.58C536.1 640.5 536.08 640.41 536.08 640.33C535.17 643.31 534.58 646.79 535.13 650.22C536.53 652.21 539.18 655.29 543.39 656.75C546.53 657.84 550.34 658.64 557.1 657.63C562.98 656.75 565.9 661.67 568.77 659.91C571.74 658.09 571.12 657.37 575.25 654.63C580.44 651.2 583.71 647.09 584.88 647.06C586.65 647.02 587.55 644.52 588.52 644.82C587.26 642.14 585.76 639.56 584.42 637.26L584.43 637.27Z" fill="#F2DA9E"/>
<path d="M545.53 628.3C553.16 623.85 562.87 624.69 571.15 621.93C569.62 621.11 567.93 620.45 566.06 620.02C558.73 618.34 550.84 620.59 545.47 625.03C542.19 627.74 540.51 630.72 539.35 632.82C538.72 633.95 537.17 636.78 536.07 640.34C536.07 640.42 536.09 640.51 536.09 640.59C537.48 635.48 540.95 630.96 545.52 628.3H545.53Z" fill="#F2DA9E"/>
<g opacity="0.64">
<path d="M545.54 628.31C553.17 623.86 562.88 624.7 571.16 621.94C569.63 621.12 567.94 620.46 566.07 620.03C558.74 618.35 550.85 620.6 545.48 625.04C542.2 627.75 540.52 630.73 539.36 632.83C538.73 633.96 537.18 636.79 536.08 640.35C536.08 640.43 536.1 640.52 536.1 640.6C537.49 635.49 540.96 630.97 545.53 628.31H545.54Z" fill="white"/>
</g>
<path d="M566.06 668.44C570.54 668.65 585.34 669.33 589.99 660.65C592.55 655.87 591.02 650.16 588.52 644.84C587.36 645.1 585.67 645.57 583.77 646.47C579.63 648.44 577.99 650.81 575.61 652.65C572.09 655.36 568.41 655.77 562.81 656.4C554.44 657.34 547.93 655.36 544.47 654.27C540.43 653 537.26 651.43 535.12 650.23C535.2 650.74 535.31 651.24 535.45 651.74C538.72 663.89 556.46 667.99 566.06 668.44Z" fill="#E8C577"/>
<path d="M622.91 624.94C619.54 619.15 615.78 612.69 609.3 609.21C600.81 612.04 590.85 611.18 583.03 615.74C578.34 618.48 574.79 623.1 573.36 628.34C573.36 628.25 573.34 628.17 573.33 628.08C572.39 631.13 571.79 634.7 572.36 638.22C573.8 640.26 576.51 643.42 580.83 644.92C584.05 646.04 587.96 646.86 594.89 645.82C600.92 644.92 603.91 649.96 606.86 648.16C609.91 646.3 609.27 645.55 613.5 642.75C618.82 639.23 622.17 635.02 623.37 634.99C625.18 634.95 626.11 632.39 627.11 632.69C625.82 629.95 624.29 627.3 622.91 624.94Z" fill="#F2DA9E"/>
<path d="M583.03 615.74C590.85 611.18 600.81 612.04 609.3 609.21C607.73 608.37 606 607.7 604.08 607.26C596.56 605.54 588.48 607.84 582.97 612.39C579.6 615.17 577.88 618.22 576.69 620.38C576.05 621.54 574.45 624.44 573.33 628.09C573.33 628.18 573.35 628.26 573.36 628.35C574.79 623.11 578.34 618.48 583.03 615.75V615.74Z" fill="#F2DA9E"/>
<g opacity="0.64">
<path d="M583.04 615.75C590.86 611.19 600.82 612.05 609.31 609.22C607.74 608.38 606.01 607.71 604.09 607.27C596.57 605.55 588.49 607.85 582.98 612.4C579.61 615.18 577.89 618.23 576.7 620.39C576.06 621.55 574.46 624.45 573.34 628.1C573.34 628.19 573.36 628.27 573.37 628.36C574.8 623.12 578.35 618.49 583.04 615.76V615.75Z" fill="white"/>
</g>
<path d="M604.08 656.89C608.67 657.1 623.84 657.8 628.61 648.9C631.24 644 629.66 638.14 627.11 632.69C625.92 632.96 624.19 633.44 622.24 634.36C618 636.38 616.32 638.81 613.87 640.69C610.26 643.47 606.49 643.89 600.75 644.54C592.17 645.5 585.49 643.47 581.95 642.35C577.81 641.04 574.56 639.44 572.36 638.21C572.44 638.73 572.55 639.25 572.69 639.76C576.04 652.21 594.22 656.42 604.07 656.88L604.08 656.89Z" fill="#E8C577"/>
<path d="M83.9301 603.3C83.9301 603.3 87.0401 633.2 58.2501 646.4C29.4601 659.6 107.16 646.97 83.9301 603.3Z" fill="url(#paint0_linear_1816_14805)"/>
<path d="M123.47 637.64C123.47 637.64 97.3899 652.59 73.6599 631.63C49.9299 610.66 92.95 676.58 123.47 637.64Z" fill="url(#paint1_linear_1816_14805)"/>
<path d="M112.93 660.7C112.93 660.7 86.8499 675.65 63.1199 654.69C39.3899 633.72 82.4099 699.64 112.93 660.7Z" fill="url(#paint2_linear_1816_14805)"/>
<path d="M68.8399 661.89C68.8399 661.89 67.5499 631.85 97.0799 620.42C126.61 608.98 48.2899 616.89 68.8399 661.89Z" fill="url(#paint3_linear_1816_14805)"/>
<path d="M71.2898 668.88C71.2898 668.88 76.2698 639.23 107.53 634.18C138.79 629.13 60.5398 620.58 71.2898 668.88Z" fill="url(#paint4_linear_1816_14805)"/>
<path d="M91.0901 631.18C91.0901 631.18 65.0101 646.13 41.2801 625.17C17.5501 604.2 60.5701 670.12 91.0901 631.18Z" fill="url(#paint5_linear_1816_14805)"/>
<path d="M68.04 619.43C68.04 619.43 98.0801 618.19 109.46 647.75C120.84 677.3 113.08 598.97 68.04 619.43Z" fill="url(#paint6_linear_1816_14805)"/>
<path d="M69.5601 630.5C69.5601 630.5 99.6001 629.26 110.98 658.82C122.36 688.37 114.6 610.04 69.5601 630.5Z" fill="url(#paint7_linear_1816_14805)"/>
<path d="M39.71 626.99C39.71 626.99 69.75 625.75 81.13 655.31C92.51 684.86 84.75 606.53 39.71 626.99Z" fill="url(#paint8_linear_1816_14805)"/>
<path d="M125.01 652.81C125.01 652.81 98.0697 666.16 75.6497 643.79C53.2297 621.42 92.1798 689.83 125.01 652.81Z" fill="url(#paint9_linear_1816_14805)"/>
<path d="M31.9299 658.15C31.9299 658.15 37.52 628.61 68.88 624.21C100.24 619.81 22.1799 609.65 31.9299 658.15Z" fill="url(#paint10_linear_1816_14805)"/>
<path d="M43.57 646.3C43.57 646.3 49.16 616.76 80.52 612.36C111.88 607.96 33.82 597.8 43.57 646.3Z" fill="url(#paint11_linear_1816_14805)"/>
<path d="M43.57 668.5C43.57 668.5 49.16 638.96 80.52 634.56C111.88 630.16 33.82 620 43.57 668.5Z" fill="url(#paint12_linear_1816_14805)"/>
<path d="M73.34 642.8C73.34 642.8 78.93 613.26 110.29 608.86C141.65 604.46 63.59 594.3 73.34 642.8Z" fill="url(#paint13_linear_1816_14805)"/>
<path d="M88.9802 665.27C88.9802 665.27 94.5701 635.73 125.93 631.33C157.29 626.93 79.2302 616.77 88.9802 665.27Z" fill="url(#paint14_linear_1816_14805)"/>
<path d="M82.03 651.3C82.03 651.3 87.62 621.76 118.98 617.36C150.34 612.96 72.28 602.8 82.03 651.3Z" fill="url(#paint15_linear_1816_14805)"/>
<path d="M83.74 642.58C83.74 642.58 57.66 657.53 33.93 636.57C10.2 615.6 53.22 681.52 83.74 642.58Z" fill="url(#paint16_linear_1816_14805)"/>
<path d="M50.9102 616.54C50.9102 616.54 80.9502 615.3 92.3302 644.86C103.71 674.41 95.9502 596.08 50.9102 616.54Z" fill="url(#paint17_linear_1816_14805)"/>
<path d="M45.0498 634.66C45.0498 634.66 75.0898 633.42 86.4698 662.98C97.8498 692.53 90.0898 614.2 45.0498 634.66Z" fill="url(#paint18_linear_1816_14805)"/>
<path d="M37.6401 630.5C37.6401 630.5 67.6801 629.26 79.0601 658.82C90.4401 688.38 82.6801 610.04 37.6401 630.5Z" fill="url(#paint19_linear_1816_14805)"/>
<path d="M53.5003 651.28C53.5003 651.28 51.9802 621.26 81.4202 609.59C110.86 597.93 32.6103 606.44 53.5003 651.28Z" fill="url(#paint20_linear_1816_14805)"/>
<path d="M73.96 624.39C73.96 624.39 104 623.15 115.38 652.71C126.76 682.26 119 603.93 73.96 624.39Z" fill="url(#paint21_linear_1816_14805)"/>
<path d="M125.62 612.36C125.62 612.36 127.8 642.34 98.6199 654.65C69.4399 666.96 147.49 656.73 125.62 612.36Z" fill="url(#paint22_linear_1816_14805)"/>
<path d="M113.55 668.03C113.55 668.03 85.9198 656.19 88.3998 624.61C90.8798 593.04 64.0899 667.06 113.55 668.03Z" fill="url(#paint23_linear_1816_14805)"/>
<path d="M105.72 620.12C105.72 620.12 107.9 650.1 78.72 662.41C49.54 674.72 127.59 664.49 105.72 620.12Z" fill="url(#paint24_linear_1816_14805)"/>
<path d="M109.79 605.21C109.79 605.21 112.9 635.11 84.11 648.31C55.32 661.51 133.02 648.88 109.79 605.21Z" fill="url(#paint25_linear_1816_14805)"/>
<path d="M149.33 639.55C149.33 639.55 123.25 654.5 99.5198 633.54C75.7898 612.57 118.81 678.49 149.33 639.55Z" fill="url(#paint26_linear_1816_14805)"/>
<path d="M138.79 662.62C138.79 662.62 112.71 677.57 88.9803 656.61C65.2503 635.64 108.27 701.56 138.79 662.62Z" fill="url(#paint27_linear_1816_14805)"/>
<path d="M94.6998 663.8C94.6998 663.8 93.4098 633.76 122.94 622.33C152.47 610.89 74.1498 618.8 94.6998 663.8Z" fill="url(#paint28_linear_1816_14805)"/>
<path d="M97.1501 670.8C97.1501 670.8 102.13 641.15 133.39 636.1C164.65 631.05 86.4001 622.5 97.1501 670.8Z" fill="url(#paint29_linear_1816_14805)"/>
<path d="M116.95 633.09C116.95 633.09 90.8699 648.04 67.1399 627.08C43.4099 606.11 86.4299 672.03 116.95 633.09Z" fill="url(#paint30_linear_1816_14805)"/>
<path d="M93.8999 621.34C93.8999 621.34 123.94 620.1 135.32 649.66C146.7 679.21 138.94 600.88 93.8999 621.34Z" fill="url(#paint31_linear_1816_14805)"/>
<path d="M95.4199 632.41C95.4199 632.41 125.46 631.17 136.84 660.73C148.22 690.28 140.46 611.95 95.4199 632.41Z" fill="url(#paint32_linear_1816_14805)"/>
<path d="M65.5698 628.91C65.5698 628.91 95.6099 627.67 106.99 657.23C118.37 686.78 110.61 608.45 65.5698 628.91Z" fill="url(#paint33_linear_1816_14805)"/>
<path d="M150.86 654.72C150.86 654.72 123.92 668.07 101.5 645.7C79.0798 623.33 118.03 691.74 150.86 654.72Z" fill="url(#paint34_linear_1816_14805)"/>
<path d="M57.7897 660.06C57.7897 660.06 63.3798 630.52 94.7398 626.12C126.1 621.72 48.0397 611.56 57.7897 660.06Z" fill="url(#paint35_linear_1816_14805)"/>
<path d="M69.4299 648.22C69.4299 648.22 75.02 618.68 106.38 614.28C137.74 609.88 59.6799 599.72 69.4299 648.22Z" fill="url(#paint36_linear_1816_14805)"/>
<path d="M69.4299 670.41C69.4299 670.41 75.02 640.87 106.38 636.47C137.74 632.07 59.6799 621.91 69.4299 670.41Z" fill="url(#paint37_linear_1816_14805)"/>
<path d="M99.1999 644.71C99.1999 644.71 104.79 615.17 136.15 610.77C167.51 606.37 89.4499 596.21 99.1999 644.71Z" fill="url(#paint38_linear_1816_14805)"/>
<path d="M114.84 667.18C114.84 667.18 120.43 637.64 151.79 633.24C183.15 628.84 105.09 618.68 114.84 667.18Z" fill="url(#paint39_linear_1816_14805)"/>
<path d="M107.89 653.22C107.89 653.22 113.48 623.68 144.84 619.28C176.2 614.88 98.1398 604.72 107.89 653.22Z" fill="url(#paint40_linear_1816_14805)"/>
<path d="M109.6 644.49C109.6 644.49 83.5198 659.44 59.7898 638.48C36.0598 617.51 79.0799 683.43 109.6 644.49Z" fill="url(#paint41_linear_1816_14805)"/>
<path d="M76.77 618.45C76.77 618.45 106.81 617.21 118.19 646.77C129.57 676.32 121.81 597.99 76.77 618.45Z" fill="url(#paint42_linear_1816_14805)"/>
<path d="M70.9102 636.57C70.9102 636.57 100.95 635.33 112.33 664.89C123.71 694.44 115.95 616.11 70.9102 636.57Z" fill="url(#paint43_linear_1816_14805)"/>
<path d="M63.5 632.41C63.5 632.41 93.5399 631.17 104.92 660.73C116.3 690.28 108.54 611.95 63.5 632.41Z" fill="url(#paint44_linear_1816_14805)"/>
<path d="M79.3602 653.19C79.3602 653.19 77.8401 623.17 107.28 611.5C136.72 599.84 58.4702 608.35 79.3602 653.19Z" fill="url(#paint45_linear_1816_14805)"/>
<path d="M99.8198 626.31C99.8198 626.31 129.86 625.07 141.24 654.63C152.62 684.18 144.86 605.85 99.8198 626.31Z" fill="url(#paint46_linear_1816_14805)"/>
<path d="M151.48 614.28C151.48 614.28 153.66 644.26 124.48 656.57C95.3003 668.88 173.35 658.65 151.48 614.28Z" fill="url(#paint47_linear_1816_14805)"/>
<path d="M139.41 669.94C139.41 669.94 111.78 658.1 114.26 626.52C116.74 594.95 89.9502 668.97 139.41 669.94Z" fill="url(#paint48_linear_1816_14805)"/>
<path d="M131.58 622.03C131.58 622.03 133.76 652.01 104.58 664.32C75.3999 676.63 153.45 666.4 131.58 622.03Z" fill="url(#paint49_linear_1816_14805)"/>
<path d="M96.3501 587.05C96.3501 587.05 99.4601 616.95 70.6701 630.15C41.88 643.35 119.58 630.72 96.3501 587.05Z" fill="url(#paint50_linear_1816_14805)"/>
<path d="M135.88 621.39C135.88 621.39 109.8 636.34 86.0701 615.38C62.3401 594.41 105.36 660.33 135.88 621.39Z" fill="url(#paint51_linear_1816_14805)"/>
<path d="M125.34 644.45C125.34 644.45 99.2601 659.4 75.5301 638.44C51.8001 617.47 94.8201 683.39 125.34 644.45Z" fill="url(#paint52_linear_1816_14805)"/>
<path d="M81.2598 645.64C81.2598 645.64 79.9698 615.6 109.5 604.17C139.03 592.73 60.7098 600.64 81.2598 645.64Z" fill="url(#paint53_linear_1816_14805)"/>
<path d="M83.7102 652.63C83.7102 652.63 88.6902 622.98 119.95 617.93C151.21 612.88 72.9602 604.33 83.7102 652.63Z" fill="url(#paint54_linear_1816_14805)"/>
<path d="M103.51 614.93C103.51 614.93 77.43 629.88 53.7 608.92C29.97 587.95 72.99 653.87 103.51 614.93Z" fill="url(#paint55_linear_1816_14805)"/>
<path d="M80.46 603.18C80.46 603.18 110.5 601.94 121.88 631.5C133.26 661.05 125.5 582.72 80.46 603.18Z" fill="url(#paint56_linear_1816_14805)"/>
<path d="M81.98 614.25C81.98 614.25 112.02 613.01 123.4 642.57C134.78 672.12 127.02 593.79 81.98 614.25Z" fill="url(#paint57_linear_1816_14805)"/>
<path d="M52.1201 610.74C52.1201 610.74 82.16 609.5 93.54 639.06C104.92 668.61 97.1601 590.28 52.1201 610.74Z" fill="url(#paint58_linear_1816_14805)"/>
<path d="M137.42 636.56C137.42 636.56 110.48 649.91 88.0599 627.54C65.6399 605.17 104.59 673.58 137.42 636.56Z" fill="url(#paint59_linear_1816_14805)"/>
<path d="M44.3498 641.9C44.3498 641.9 49.9398 612.36 81.2998 607.96C112.66 603.56 34.5998 593.4 44.3498 641.9Z" fill="url(#paint60_linear_1816_14805)"/>
<path d="M55.9802 630.05C55.9802 630.05 61.5701 600.51 92.9301 596.11C124.29 591.71 46.2302 581.55 55.9802 630.05Z" fill="url(#paint61_linear_1816_14805)"/>
<path d="M55.9802 652.25C55.9802 652.25 61.5701 622.71 92.9301 618.31C124.29 613.91 46.2302 603.75 55.9802 652.25Z" fill="url(#paint62_linear_1816_14805)"/>
<path d="M85.76 626.55C85.76 626.55 91.3499 597.01 122.71 592.61C154.07 588.21 76.01 578.05 85.76 626.55Z" fill="url(#paint63_linear_1816_14805)"/>
<path d="M101.4 649.02C101.4 649.02 106.99 619.48 138.35 615.08C169.71 610.68 91.6501 600.52 101.4 649.02Z" fill="url(#paint64_linear_1816_14805)"/>
<path d="M94.4499 635.06C94.4499 635.06 100.04 605.52 131.4 601.12C162.76 596.72 84.6999 586.56 94.4499 635.06Z" fill="url(#paint65_linear_1816_14805)"/>
<path d="M96.1501 626.33C96.1501 626.33 70.0701 641.28 46.3401 620.32C22.6101 599.35 65.6301 665.27 96.1501 626.33Z" fill="url(#paint66_linear_1816_14805)"/>
<path d="M63.3301 600.29C63.3301 600.29 93.3701 599.05 104.75 628.61C116.13 658.16 108.37 579.83 63.3301 600.29Z" fill="url(#paint67_linear_1816_14805)"/>
<path d="M57.46 618.41C57.46 618.41 87.5 617.17 98.88 646.73C110.26 676.29 102.5 597.95 57.46 618.41Z" fill="url(#paint68_linear_1816_14805)"/>
<path d="M50.0601 614.25C50.0601 614.25 80.1001 613.01 91.4801 642.57C102.86 672.12 95.1001 593.79 50.0601 614.25Z" fill="url(#paint69_linear_1816_14805)"/>
<path d="M65.9202 635.03C65.9202 635.03 64.4002 605.01 93.8402 593.34C123.28 581.68 45.0302 590.19 65.9202 635.03Z" fill="url(#paint70_linear_1816_14805)"/>
<path d="M86.3799 608.14C86.3799 608.14 116.42 606.9 127.8 636.46C139.18 666.01 131.42 587.68 86.3799 608.14Z" fill="url(#paint71_linear_1816_14805)"/>
<path d="M138.03 596.11C138.03 596.11 140.21 626.09 111.03 638.4C81.8501 650.71 159.9 640.48 138.03 596.11Z" fill="url(#paint72_linear_1816_14805)"/>
<path d="M125.97 651.78C125.97 651.78 98.3402 639.94 100.82 608.36C103.3 576.79 76.5103 650.81 125.97 651.78Z" fill="url(#paint73_linear_1816_14805)"/>
<path d="M118.14 603.87C118.14 603.87 120.32 633.85 91.1399 646.16C61.9599 658.47 140.01 648.24 118.14 603.87Z" fill="url(#paint74_linear_1816_14805)"/>
<path d="M481.24 255.73C483.58 247.7 484.81 239.38 484.81 230.85C484.81 164.25 409.93 110.26 317.56 110.26C225.19 110.26 150.31 164.25 150.31 230.85C150.31 239.38 151.55 247.7 153.88 255.73C143.49 267.1 137.25 281.66 137.25 297.54C139.24 310.45 144.33 328.31 158.61 344.04C189.05 377.57 240.02 378 320.33 377.6C398.95 377.2 447.11 376.31 476.51 344.04C491 328.13 495.96 310.05 497.87 297.54C497.87 281.66 491.63 267.09 481.24 255.73Z" fill="#457DB1"/>
<path d="M459.05 261.49C458.28 260.41 457.43 259.35 456.55 258.3C457.61 252.58 458.18 246.63 458.18 240.53C458.18 195.35 427.7 158.72 390.09 158.72C361.16 158.72 336.45 180.39 326.59 210.96C325.64 213.91 322.51 215.92 319.02 215.88C318 215.87 316.98 215.86 315.96 215.86C312.53 215.85 309.48 213.85 308.54 210.95C298.67 180.39 273.97 158.73 245.05 158.73C207.44 158.73 176.96 195.36 176.96 240.54C176.96 246.51 177.51 252.33 178.52 257.94C177.9 258.71 177.29 259.48 176.71 260.28C173.26 265.05 161.76 280.97 165.03 300.33C168.94 323.49 191.58 337.36 199.34 342.11C214.58 351.44 232.76 357.23 309.16 357.69C407.96 358.28 427.66 348.9 439.97 340.38C446.58 335.8 467.51 321.32 470.36 298.6C472.63 280.53 462.34 266.12 459.05 261.5V261.49Z" fill="white"/>
<path d="M335.18 278.67L323.43 283.24C319.86 284.63 315.89 284.62 312.33 283.2L301.07 278.74C296.17 276.8 295.48 270.15 299.87 267.24L309.64 260.77C314.89 257.29 321.72 257.31 326.95 260.82L336.45 267.18C340.83 270.11 340.1 276.76 335.18 278.67Z" fill="#FFCC3B"/>
<path d="M361.824 262.314C364.022 259.849 363.017 255.365 359.579 252.3C356.141 249.235 351.572 248.748 349.374 251.213C347.176 253.678 348.182 258.162 351.62 261.227C355.058 264.292 359.626 264.779 361.824 262.314Z" fill="#262727"/>
<path d="M283.62 261.397C287.058 258.332 288.063 253.849 285.865 251.383C283.667 248.918 279.099 249.405 275.661 252.47C272.223 255.535 271.217 260.019 273.415 262.484C275.613 264.949 280.182 264.462 283.62 261.397Z" fill="#262727"/>
<path d="M304.08 272.16C307.84 272.83 312.29 273.36 317.3 273.42C323.24 273.5 328.44 272.92 332.69 272.16" stroke="#D7A338" stroke-width="3.58" stroke-miterlimit="10" stroke-linecap="round"/>
<path d="M344.95 226.78C348.01 230.05 352.9 234.48 359.89 238.12C369.08 242.9 377.57 244.03 382.56 244.3" stroke="#474747" stroke-width="4.78" stroke-miterlimit="10" stroke-linecap="round"/>
<path d="M293.1 226.78C290.04 230.05 285.15 234.48 278.16 238.12C268.97 242.9 260.48 244.03 255.49 244.3" stroke="#474747" stroke-width="4.78" stroke-miterlimit="10" stroke-linecap="round"/>
<path d="M367.55 17.89C362.43 17.89 357.56 19.01 353.19 21.03C346.55 8.51 333.46 0 318.41 0C303.36 0 290.41 8.42 283.73 20.83C279.47 18.94 274.76 17.89 269.81 17.89C250.7 17.89 235.2 42.22 235.2 61.5C235.2 80.78 250.69 96.41 269.81 96.41C281.21 96.41 291.32 90.85 297.62 82.27C303.66 86.06 310.78 88.24 318.41 88.24C326.04 88.24 333.46 85.96 339.57 82.03C345.86 90.74 356.05 96.4 367.55 96.4C386.66 96.4 402.16 80.77 402.16 61.49C402.16 42.21 386.67 17.88 367.55 17.88V17.89Z" fill="white"/>
<path d="M367.93 125.35C361.14 120.88 343.85 118.63 318.77 118.53C293.24 118.43 275.62 120.89 268.85 125.35C267.45 110.07 265.96 101.62 264.39 84.4801C275.07 79.5601 293.49 72.9201 317.54 72.7601C342.51 72.6001 361.6 79.4901 372.42 84.4801C370.84 101.62 369.35 110.08 367.94 125.35H367.93Z" fill="white"/>
<g opacity="0.8">
<path d="M354.32 31.55C355 36.74 355.29 44.05 353.43 52.57C351.18 62.86 346.72 70.7 343.31 75.64" fill="white"/>
<path d="M354.32 31.55C359.22 46.64 354.51 64.51 343.31 75.63C346.36 68.51 349.2 61.57 351.06 54.13C352.98 46.71 353.79 39.27 354.31 31.54L354.32 31.55Z" fill="#DADADA"/>
</g>
<g opacity="0.8">
<path d="M282.69 32.22C282.01 37.41 281.72 44.72 283.58 53.24C285.83 63.53 290.29 71.37 293.7 76.31" fill="white"/>
<path d="M282.69 32.22C283.21 39.95 284.02 47.38 285.95 54.81C287.81 62.25 290.66 69.18 293.7 76.31C282.5 65.18 277.8 47.32 282.69 32.23V32.22Z" fill="#DADADA"/>
</g>
<g opacity="0.8">
<path d="M272.23 95.1501C299.48 79.4901 335.15 79.4601 362.4 95.1501C333.18 83.2001 301.45 83.2001 272.23 95.1501Z" fill="#D7D7D7"/>
</g>
<path d="M325.42 415C339.44 411.94 355.17 419 372.08 412.35C387.6 406.25 401.48 399.37 413.64 392.48C414.52 390.34 416.06 385.93 416.11 380.01C416.16 373.74 414.52 369.07 413.64 366.93C384.23 378.29 354.83 378.1 325.42 389.45V415Z" fill="#FF4848"/>
<path d="M312.83 415C298.81 411.94 283.08 419 266.17 412.35C250.65 406.25 236.77 399.37 224.61 392.48C223.73 390.34 222.19 385.93 222.14 380.01C222.09 373.74 223.73 369.07 224.61 366.93C254.02 378.29 283.42 378.1 312.83 389.45V415Z" fill="#FF4848"/>
<path d="M325.11 423.21H309.21C304.77 423.21 301.32 419.33 301.84 414.92L304.56 391.81C305 388.07 308.17 385.26 311.93 385.26H322.39C326.15 385.26 329.32 388.08 329.76 391.81L332.48 414.92C333 419.33 329.55 423.21 325.11 423.21Z" fill="#EA4949"/>
<path d="M310.12 421.7H323.63C327.6 421.7 331.05 424.43 331.97 428.29L338.89 457.35C339.47 459.78 339.17 462.34 338.05 464.57L324.31 491.88C321.17 498.11 312.22 497.95 309.31 491.61L296.93 464.67C296.01 462.67 295.74 460.44 296.14 458.29L301.71 428.7C302.47 424.65 306.01 421.71 310.13 421.71L310.12 421.7Z" fill="#FF4848"/>
<path d="M253.3 540.98L244.38 521.52L231.25 526.46L221.89 504.47L237.82 497.69L328.84 458.94C336.25 455.79 344.42 454.72 352.64 455.96C355.89 456.45 359.4 457.29 363.08 458.65C379.32 464.62 388.86 476.79 392.07 481.26C368.94 491.21 345.81 501.17 253.29 540.98H253.3Z" fill="#E5E5E5"/>
<mask id="mask1_1816_14805" style="mask-type:luminance" maskUnits="userSpaceOnUse" x="221" y="455" width="172" height="86">
<path d="M253.3 540.98L244.38 521.52L231.25 526.46L221.89 504.47L237.82 497.69L328.84 458.94C336.25 455.79 344.42 454.72 352.64 455.96C355.89 456.45 359.4 457.29 363.08 458.65C379.32 464.62 388.86 476.79 392.07 481.26C368.94 491.21 345.81 501.17 253.29 540.98H253.3Z" fill="white"/>
</mask>
<g mask="url(#mask1_1816_14805)">
<path opacity="0.66" d="M243.523 533.294L264.945 583.614L410.513 521.643L389.091 471.324L243.523 533.294Z" fill="white"/>
</g>
<path d="M145.455 539.376L153.786 558.946C154.924 561.619 158.013 562.864 160.686 561.726L223.648 534.922C226.321 533.784 227.566 530.695 226.428 528.022L218.097 508.452C216.959 505.779 213.869 504.534 211.196 505.672L148.234 532.476C145.562 533.614 144.317 536.703 145.455 539.376Z" fill="#878787"/>
<path d="M214.42 521.64C217.41 528.65 219.14 532.62 221.8 534.21C222.95 534.9 223.91 534.92 224.53 534.83L232.9 531.27C233.24 531.05 234.04 530.43 234.35 528.87C234.54 527.92 234.47 526.98 234.4 526.38C232.74 523.85 230.49 520.06 228.4 515.14C226.36 510.34 225.19 506.19 224.52 503.28C223.91 502.77 223.39 502.43 223.01 502.2C222.31 501.78 221.7 501.42 221.01 501.43C220.75 501.43 220.51 501.48 220.28 501.58L211.91 505.14C211.41 505.53 210.77 506.24 210.46 507.54C209.76 510.57 211.43 514.6 214.43 521.64H214.42Z" fill="#A5A5A5"/>
<path opacity="0.66" d="M369.23 479.83L318.9 463.65L290.05 475.72L337.41 493.96" fill="white"/>
<path opacity="0.66" d="M313.93 503.6L269.87 484.09L252.38 491.71L295.06 511.3" fill="white"/>
<path d="M160.48 529.48C164.22 542.98 184.39 550.66 198.34 542.85C210.77 535.89 216.5 517.62 208.28 506.48C200.63 496.12 184.21 496.42 173.86 502.63C165.19 507.83 157.59 519.07 160.48 529.48Z" fill="#457DB1"/>
<defs>
<linearGradient id="paint0_linear_1816_14805" x1="61.5963" y1="614.141" x2="75.6099" y2="643.065" gradientUnits="userSpaceOnUse">
<stop stop-color="#E2E2E2"/>
<stop offset="0.79" stop-color="#E2E2E2"/>
<stop offset="1" stop-color="#6F9A3A"/>
</linearGradient>
<linearGradient id="paint1_linear_1816_14805" x1="104.483" y1="621.734" x2="83.7234" y2="646.256" gradientUnits="userSpaceOnUse">
<stop stop-color="#E2E2E2"/>
<stop offset="0.79" stop-color="#E2E2E2"/>
<stop offset="1" stop-color="#6F9A3A"/>
</linearGradient>
<linearGradient id="paint2_linear_1816_14805" x1="93.9396" y1="644.79" x2="73.1731" y2="669.32" gradientUnits="userSpaceOnUse">
<stop stop-color="#E2E2E2"/>
<stop offset="0.79" stop-color="#E2E2E2"/>
<stop offset="1" stop-color="#6F9A3A"/>
</linearGradient>
<linearGradient id="paint3_linear_1816_14805" x1="91.9215" y1="652.352" x2="79.6791" y2="622.635" gradientUnits="userSpaceOnUse">
<stop stop-color="#E2E2E2"/>
<stop offset="0.79" stop-color="#E2E2E2"/>
<stop offset="1" stop-color="#6F9A3A"/>
</linearGradient>
<linearGradient id="paint4_linear_1816_14805" x1="95.8746" y1="664.302" x2="90.0782" y2="632.689" gradientUnits="userSpaceOnUse">
<stop stop-color="#E2E2E2"/>
<stop offset="0.79" stop-color="#E2E2E2"/>
<stop offset="1" stop-color="#6F9A3A"/>
</linearGradient>
<linearGradient id="paint5_linear_1816_14805" x1="72.1087" y1="615.264" x2="51.3422" y2="639.794" gradientUnits="userSpaceOnUse">
<stop stop-color="#E2E2E2"/>
<stop offset="0.79" stop-color="#E2E2E2"/>
<stop offset="1" stop-color="#6F9A3A"/>
</linearGradient>
<linearGradient id="paint6_linear_1816_14805" x1="77.5272" y1="642.338" x2="107.258" y2="630.157" gradientUnits="userSpaceOnUse">
<stop stop-color="#E2E2E2"/>
<stop offset="0.79" stop-color="#E2E2E2"/>
</linearGradient>
<linearGradient id="paint7_linear_1816_14805" x1="79.0477" y1="653.408" x2="108.779" y2="641.227" gradientUnits="userSpaceOnUse">
<stop stop-color="#E2E2E2"/>
<stop offset="0.79" stop-color="#E2E2E2"/>
</linearGradient>
<linearGradient id="paint8_linear_1816_14805" x1="49.1909" y1="649.907" x2="78.9222" y2="637.725" gradientUnits="userSpaceOnUse">
<stop stop-color="#E2E2E2"/>
<stop offset="0.79" stop-color="#E2E2E2"/>
</linearGradient>
<linearGradient id="paint9_linear_1816_14805" x1="107.112" y1="635.513" x2="84.9059" y2="658.735" gradientUnits="userSpaceOnUse">
<stop stop-color="#E2E2E2"/>
<stop offset="0.79" stop-color="#E2E2E2"/>
</linearGradient>
<linearGradient id="paint10_linear_1816_14805" x1="56.6516" y1="654.039" x2="51.5091" y2="622.323" gradientUnits="userSpaceOnUse">
<stop stop-color="#E2E2E2"/>
<stop offset="0.79" stop-color="#E2E2E2"/>
</linearGradient>
<linearGradient id="paint11_linear_1816_14805" x1="68.2859" y1="642.194" x2="63.1418" y2="610.469" gradientUnits="userSpaceOnUse">
<stop stop-color="#E2E2E2"/>
<stop offset="0.79" stop-color="#E2E2E2"/>
</linearGradient>
<linearGradient id="paint12_linear_1816_14805" x1="68.2884" y1="664.39" x2="63.1459" y2="632.674" gradientUnits="userSpaceOnUse">
<stop stop-color="#E2E2E2"/>
<stop offset="0.79" stop-color="#E2E2E2"/>
</linearGradient>
<linearGradient id="paint13_linear_1816_14805" x1="98.0579" y1="638.684" x2="92.9154" y2="606.968" gradientUnits="userSpaceOnUse">
<stop stop-color="#E2E2E2"/>
<stop offset="0.79" stop-color="#E2E2E2"/>
</linearGradient>
<linearGradient id="paint14_linear_1816_14805" x1="113.697" y1="661.161" x2="108.553" y2="629.435" gradientUnits="userSpaceOnUse">
<stop stop-color="#E2E2E2"/>
<stop offset="0.79" stop-color="#E2E2E2"/>
</linearGradient>
<linearGradient id="paint15_linear_1816_14805" x1="106.752" y1="647.192" x2="101.609" y2="615.476" gradientUnits="userSpaceOnUse">
<stop stop-color="#E2E2E2"/>
<stop offset="0.79" stop-color="#E2E2E2"/>
</linearGradient>
<linearGradient id="paint16_linear_1816_14805" x1="64.755" y1="626.674" x2="43.9951" y2="651.196" gradientUnits="userSpaceOnUse">
<stop stop-color="#E2E2E2"/>
<stop offset="0.79" stop-color="#E2E2E2"/>
<stop offset="1" stop-color="#6F9A3A"/>
</linearGradient>
<linearGradient id="paint17_linear_1816_14805" x1="60.3926" y1="639.449" x2="90.1331" y2="627.264" gradientUnits="userSpaceOnUse">
<stop stop-color="#E2E2E2"/>
<stop offset="0.79" stop-color="#E2E2E2"/>
<stop offset="1" stop-color="#6F9A3A"/>
</linearGradient>
<linearGradient id="paint18_linear_1816_14805" x1="54.5231" y1="657.567" x2="84.2636" y2="645.381" gradientUnits="userSpaceOnUse">
<stop stop-color="#E2E2E2"/>
<stop offset="0.79" stop-color="#E2E2E2"/>
<stop offset="1" stop-color="#6F9A3A"/>
</linearGradient>
<linearGradient id="paint19_linear_1816_14805" x1="47.1256" y1="653.411" x2="76.8568" y2="641.23" gradientUnits="userSpaceOnUse">
<stop stop-color="#E2E2E2"/>
<stop offset="0.79" stop-color="#E2E2E2"/>
<stop offset="1" stop-color="#6F9A3A"/>
</linearGradient>
<linearGradient id="paint20_linear_1816_14805" x1="76.4756" y1="641.578" x2="64.0053" y2="611.956" gradientUnits="userSpaceOnUse">
<stop stop-color="#E2E2E2"/>
<stop offset="0.79" stop-color="#E2E2E2"/>
<stop offset="1" stop-color="#6F9A3A"/>
</linearGradient>
<linearGradient id="paint21_linear_1816_14805" x1="83.4423" y1="647.307" x2="113.183" y2="635.121" gradientUnits="userSpaceOnUse">
<stop stop-color="#E2E2E2"/>
<stop offset="0.79" stop-color="#E2E2E2"/>
<stop offset="1" stop-color="#6F9A3A"/>
</linearGradient>
<linearGradient id="paint22_linear_1816_14805" x1="102.942" y1="622.629" x2="116.051" y2="651.963" gradientUnits="userSpaceOnUse">
<stop stop-color="#E2E2E2"/>
<stop offset="0.79" stop-color="#E2E2E2"/>
<stop offset="1" stop-color="#6F9A3A"/>
</linearGradient>
<linearGradient id="paint23_linear_1816_14805" x1="115.033" y1="643.156" x2="82.9557" y2="641.318" gradientUnits="userSpaceOnUse">
<stop stop-color="#E2E2E2"/>
<stop offset="0.79" stop-color="#E2E2E2"/>
<stop offset="1" stop-color="#6F9A3A"/>
</linearGradient>
<linearGradient id="paint24_linear_1816_14805" x1="83.0435" y1="630.383" x2="96.157" y2="659.726" gradientUnits="userSpaceOnUse">
<stop stop-color="#E2E2E2"/>
<stop offset="0.79" stop-color="#E2E2E2"/>
<stop offset="1" stop-color="#6F9A3A"/>
</linearGradient>
<linearGradient id="paint25_linear_1816_14805" x1="87.459" y1="616.056" x2="101.473" y2="644.98" gradientUnits="userSpaceOnUse">
<stop stop-color="#E2E2E2"/>
<stop offset="0.79" stop-color="#E2E2E2"/>
<stop offset="1" stop-color="#6F9A3A"/>
</linearGradient>
<linearGradient id="paint26_linear_1816_14805" x1="130.342" y1="623.643" x2="109.575" y2="648.174" gradientUnits="userSpaceOnUse">
<stop stop-color="#E2E2E2"/>
<stop offset="0.79" stop-color="#E2E2E2"/>
<stop offset="1" stop-color="#6F9A3A"/>
</linearGradient>
<linearGradient id="paint27_linear_1816_14805" x1="119.806" y1="646.706" x2="99.0395" y2="671.237" gradientUnits="userSpaceOnUse">
<stop stop-color="#E2E2E2"/>
<stop offset="0.79" stop-color="#E2E2E2"/>
<stop offset="1" stop-color="#6F9A3A"/>
</linearGradient>
<linearGradient id="paint28_linear_1816_14805" x1="117.78" y1="654.267" x2="105.538" y2="624.55" gradientUnits="userSpaceOnUse">
<stop stop-color="#E2E2E2"/>
<stop offset="0.79" stop-color="#E2E2E2"/>
<stop offset="1" stop-color="#6F9A3A"/>
</linearGradient>
<linearGradient id="paint29_linear_1816_14805" x1="121.733" y1="666.209" x2="115.937" y2="634.596" gradientUnits="userSpaceOnUse">
<stop stop-color="#E2E2E2"/>
<stop offset="0.79" stop-color="#E2E2E2"/>
<stop offset="1" stop-color="#6F9A3A"/>
</linearGradient>
<linearGradient id="paint30_linear_1816_14805" x1="97.9745" y1="617.18" x2="77.208" y2="641.71" gradientUnits="userSpaceOnUse">
<stop stop-color="#E2E2E2"/>
<stop offset="0.79" stop-color="#E2E2E2"/>
<stop offset="1" stop-color="#6F9A3A"/>
</linearGradient>
<linearGradient id="paint31_linear_1816_14805" x1="103.382" y1="644.249" x2="133.122" y2="632.063" gradientUnits="userSpaceOnUse">
<stop stop-color="#E2E2E2"/>
<stop offset="0.79" stop-color="#E2E2E2"/>
</linearGradient>
<linearGradient id="paint32_linear_1816_14805" x1="104.902" y1="655.319" x2="134.643" y2="643.133" gradientUnits="userSpaceOnUse">
<stop stop-color="#E2E2E2"/>
<stop offset="0.79" stop-color="#E2E2E2"/>
</linearGradient>
<linearGradient id="paint33_linear_1816_14805" x1="75.0453" y1="651.817" x2="104.786" y2="639.631" gradientUnits="userSpaceOnUse">
<stop stop-color="#E2E2E2"/>
<stop offset="0.79" stop-color="#E2E2E2"/>
</linearGradient>
<linearGradient id="paint34_linear_1816_14805" x1="132.971" y1="637.425" x2="110.765" y2="660.646" gradientUnits="userSpaceOnUse">
<stop stop-color="#E2E2E2"/>
<stop offset="0.79" stop-color="#E2E2E2"/>
</linearGradient>
<linearGradient id="paint35_linear_1816_14805" x1="82.5115" y1="655.955" x2="77.3674" y2="624.229" gradientUnits="userSpaceOnUse">
<stop stop-color="#E2E2E2"/>
<stop offset="0.79" stop-color="#E2E2E2"/>
</linearGradient>
<linearGradient id="paint36_linear_1816_14805" x1="94.1458" y1="644.11" x2="89.0017" y2="612.385" gradientUnits="userSpaceOnUse">
<stop stop-color="#E2E2E2"/>
<stop offset="0.79" stop-color="#E2E2E2"/>
</linearGradient>
<linearGradient id="paint37_linear_1816_14805" x1="94.1484" y1="666.306" x2="89.0042" y2="634.58" gradientUnits="userSpaceOnUse">
<stop stop-color="#E2E2E2"/>
<stop offset="0.79" stop-color="#E2E2E2"/>
</linearGradient>
<linearGradient id="paint38_linear_1816_14805" x1="123.918" y1="640.6" x2="118.774" y2="608.874" gradientUnits="userSpaceOnUse">
<stop stop-color="#E2E2E2"/>
<stop offset="0.79" stop-color="#E2E2E2"/>
</linearGradient>
<linearGradient id="paint39_linear_1816_14805" x1="139.555" y1="663.067" x2="134.413" y2="631.351" gradientUnits="userSpaceOnUse">
<stop stop-color="#E2E2E2"/>
<stop offset="0.79" stop-color="#E2E2E2"/>
</linearGradient>
<linearGradient id="paint40_linear_1816_14805" x1="132.612" y1="649.108" x2="127.467" y2="617.382" gradientUnits="userSpaceOnUse">
<stop stop-color="#E2E2E2"/>
<stop offset="0.79" stop-color="#E2E2E2"/>
</linearGradient>
<linearGradient id="paint41_linear_1816_14805" x1="90.6133" y1="628.584" x2="69.8468" y2="653.114" gradientUnits="userSpaceOnUse">
<stop stop-color="#E2E2E2"/>
<stop offset="0.79" stop-color="#E2E2E2"/>
<stop offset="1" stop-color="#6F9A3A"/>
</linearGradient>
<linearGradient id="paint42_linear_1816_14805" x1="86.2562" y1="641.355" x2="115.987" y2="629.174" gradientUnits="userSpaceOnUse">
<stop stop-color="#E2E2E2"/>
<stop offset="0.79" stop-color="#E2E2E2"/>
<stop offset="1" stop-color="#6F9A3A"/>
</linearGradient>
<linearGradient id="paint43_linear_1816_14805" x1="80.391" y1="659.483" x2="110.122" y2="647.301" gradientUnits="userSpaceOnUse">
<stop stop-color="#E2E2E2"/>
<stop offset="0.79" stop-color="#E2E2E2"/>
<stop offset="1" stop-color="#6F9A3A"/>
</linearGradient>
<linearGradient id="paint44_linear_1816_14805" x1="72.98" y1="655.322" x2="102.72" y2="643.136" gradientUnits="userSpaceOnUse">
<stop stop-color="#E2E2E2"/>
<stop offset="0.79" stop-color="#E2E2E2"/>
<stop offset="1" stop-color="#6F9A3A"/>
</linearGradient>
<linearGradient id="paint45_linear_1816_14805" x1="102.34" y1="643.482" x2="89.8739" y2="613.869" gradientUnits="userSpaceOnUse">
<stop stop-color="#E2E2E2"/>
<stop offset="0.79" stop-color="#E2E2E2"/>
<stop offset="1" stop-color="#6F9A3A"/>
</linearGradient>
<linearGradient id="paint46_linear_1816_14805" x1="109.306" y1="649.213" x2="139.037" y2="637.032" gradientUnits="userSpaceOnUse">
<stop stop-color="#E2E2E2"/>
<stop offset="0.79" stop-color="#E2E2E2"/>
<stop offset="1" stop-color="#6F9A3A"/>
</linearGradient>
<linearGradient id="paint47_linear_1816_14805" x1="128.804" y1="624.544" x2="141.913" y2="653.878" gradientUnits="userSpaceOnUse">
<stop stop-color="#E2E2E2"/>
<stop offset="0.79" stop-color="#E2E2E2"/>
<stop offset="1" stop-color="#6F9A3A"/>
</linearGradient>
<linearGradient id="paint48_linear_1816_14805" x1="140.896" y1="645.069" x2="108.809" y2="643.23" gradientUnits="userSpaceOnUse">
<stop stop-color="#E2E2E2"/>
<stop offset="0.79" stop-color="#E2E2E2"/>
<stop offset="1" stop-color="#6F9A3A"/>
</linearGradient>
<linearGradient id="paint49_linear_1816_14805" x1="108.905" y1="632.297" x2="122.019" y2="661.64" gradientUnits="userSpaceOnUse">
<stop stop-color="#E2E2E2"/>
<stop offset="0.79" stop-color="#E2E2E2"/>
<stop offset="1" stop-color="#6F9A3A"/>
</linearGradient>
<linearGradient id="paint50_linear_1816_14805" x1="74.0178" y1="597.9" x2="88.027" y2="626.815" gradientUnits="userSpaceOnUse">
<stop stop-color="#E2E2E2"/>
<stop offset="0.79" stop-color="#E2E2E2"/>
<stop offset="1" stop-color="#6F9A3A"/>
</linearGradient>
<linearGradient id="paint51_linear_1816_14805" x1="116.899" y1="605.489" x2="96.1389" y2="630.012" gradientUnits="userSpaceOnUse">
<stop stop-color="#E2E2E2"/>
<stop offset="0.79" stop-color="#E2E2E2"/>
<stop offset="1" stop-color="#6F9A3A"/>
</linearGradient>
<linearGradient id="paint52_linear_1816_14805" x1="106.355" y1="628.546" x2="85.5952" y2="653.069" gradientUnits="userSpaceOnUse">
<stop stop-color="#E2E2E2"/>
<stop offset="0.79" stop-color="#E2E2E2"/>
<stop offset="1" stop-color="#6F9A3A"/>
</linearGradient>
<linearGradient id="paint53_linear_1816_14805" x1="104.336" y1="636.098" x2="92.0973" y2="606.39" gradientUnits="userSpaceOnUse">
<stop stop-color="#E2E2E2"/>
<stop offset="0.79" stop-color="#E2E2E2"/>
<stop offset="1" stop-color="#6F9A3A"/>
</linearGradient>
<linearGradient id="paint54_linear_1816_14805" x1="108.287" y1="648.047" x2="102.492" y2="616.444" gradientUnits="userSpaceOnUse">
<stop stop-color="#E2E2E2"/>
<stop offset="0.79" stop-color="#E2E2E2"/>
<stop offset="1" stop-color="#6F9A3A"/>
</linearGradient>
<linearGradient id="paint55_linear_1816_14805" x1="84.524" y1="599.019" x2="63.764" y2="623.542" gradientUnits="userSpaceOnUse">
<stop stop-color="#E2E2E2"/>
<stop offset="0.79" stop-color="#E2E2E2"/>
<stop offset="1" stop-color="#6F9A3A"/>
</linearGradient>
<linearGradient id="paint56_linear_1816_14805" x1="89.9429" y1="626.088" x2="119.674" y2="613.906" gradientUnits="userSpaceOnUse">
<stop stop-color="#E2E2E2"/>
<stop offset="0.79" stop-color="#E2E2E2"/>
</linearGradient>
<linearGradient id="paint57_linear_1816_14805" x1="91.4634" y1="637.158" x2="121.195" y2="624.976" gradientUnits="userSpaceOnUse">
<stop stop-color="#E2E2E2"/>
<stop offset="0.79" stop-color="#E2E2E2"/>
</linearGradient>
<linearGradient id="paint58_linear_1816_14805" x1="61.6069" y1="633.656" x2="91.3381" y2="621.475" gradientUnits="userSpaceOnUse">
<stop stop-color="#E2E2E2"/>
<stop offset="0.79" stop-color="#E2E2E2"/>
</linearGradient>
<linearGradient id="paint59_linear_1816_14805" x1="119.53" y1="619.258" x2="97.3165" y2="642.487" gradientUnits="userSpaceOnUse">
<stop stop-color="#E2E2E2"/>
<stop offset="0.79" stop-color="#E2E2E2"/>
</linearGradient>
<linearGradient id="paint60_linear_1816_14805" x1="69.0613" y1="637.794" x2="63.9172" y2="606.068" gradientUnits="userSpaceOnUse">
<stop stop-color="#E2E2E2"/>
<stop offset="0.79" stop-color="#E2E2E2"/>
</linearGradient>
<linearGradient id="paint61_linear_1816_14805" x1="80.7057" y1="625.947" x2="75.5616" y2="594.221" gradientUnits="userSpaceOnUse">
<stop stop-color="#E2E2E2"/>
<stop offset="0.79" stop-color="#E2E2E2"/>
</linearGradient>
<linearGradient id="paint62_linear_1816_14805" x1="80.7083" y1="648.143" x2="75.5641" y2="616.417" gradientUnits="userSpaceOnUse">
<stop stop-color="#E2E2E2"/>
<stop offset="0.79" stop-color="#E2E2E2"/>
</linearGradient>
<linearGradient id="paint63_linear_1816_14805" x1="110.477" y1="622.437" x2="105.335" y2="590.721" gradientUnits="userSpaceOnUse">
<stop stop-color="#E2E2E2"/>
<stop offset="0.79" stop-color="#E2E2E2"/>
</linearGradient>
<linearGradient id="paint64_linear_1816_14805" x1="126.115" y1="644.904" x2="120.973" y2="613.188" gradientUnits="userSpaceOnUse">
<stop stop-color="#E2E2E2"/>
<stop offset="0.79" stop-color="#E2E2E2"/>
</linearGradient>
<linearGradient id="paint65_linear_1816_14805" x1="119.161" y1="630.947" x2="114.017" y2="599.221" gradientUnits="userSpaceOnUse">
<stop stop-color="#E2E2E2"/>
<stop offset="0.79" stop-color="#E2E2E2"/>
</linearGradient>
<linearGradient id="paint66_linear_1816_14805" x1="77.1769" y1="610.422" x2="56.4105" y2="634.952" gradientUnits="userSpaceOnUse">
<stop stop-color="#E2E2E2"/>
<stop offset="0.79" stop-color="#E2E2E2"/>
<stop offset="1" stop-color="#6F9A3A"/>
</linearGradient>
<linearGradient id="paint67_linear_1816_14805" x1="72.8083" y1="623.199" x2="102.549" y2="611.013" gradientUnits="userSpaceOnUse">
<stop stop-color="#E2E2E2"/>
<stop offset="0.79" stop-color="#E2E2E2"/>
<stop offset="1" stop-color="#6F9A3A"/>
</linearGradient>
<linearGradient id="paint68_linear_1816_14805" x1="66.9429" y1="641.326" x2="96.6834" y2="629.14" gradientUnits="userSpaceOnUse">
<stop stop-color="#E2E2E2"/>
<stop offset="0.79" stop-color="#E2E2E2"/>
<stop offset="1" stop-color="#6F9A3A"/>
</linearGradient>
<linearGradient id="paint69_linear_1816_14805" x1="59.5414" y1="637.161" x2="89.2727" y2="624.979" gradientUnits="userSpaceOnUse">
<stop stop-color="#E2E2E2"/>
<stop offset="0.79" stop-color="#E2E2E2"/>
<stop offset="1" stop-color="#6F9A3A"/>
</linearGradient>
<linearGradient id="paint70_linear_1816_14805" x1="88.893" y1="625.327" x2="76.4227" y2="595.705" gradientUnits="userSpaceOnUse">
<stop stop-color="#E2E2E2"/>
<stop offset="0.79" stop-color="#E2E2E2"/>
<stop offset="1" stop-color="#6F9A3A"/>
</linearGradient>
<linearGradient id="paint71_linear_1816_14805" x1="95.8581" y1="631.056" x2="125.599" y2="618.871" gradientUnits="userSpaceOnUse">
<stop stop-color="#E2E2E2"/>
<stop offset="0.79" stop-color="#E2E2E2"/>
<stop offset="1" stop-color="#6F9A3A"/>
</linearGradient>
<linearGradient id="paint72_linear_1816_14805" x1="115.362" y1="606.377" x2="128.471" y2="635.711" gradientUnits="userSpaceOnUse">
<stop stop-color="#E2E2E2"/>
<stop offset="0.79" stop-color="#E2E2E2"/>
<stop offset="1" stop-color="#6F9A3A"/>
</linearGradient>
<linearGradient id="paint73_linear_1816_14805" x1="127.453" y1="626.91" x2="95.366" y2="625.071" gradientUnits="userSpaceOnUse">
<stop stop-color="#E2E2E2"/>
<stop offset="0.79" stop-color="#E2E2E2"/>
<stop offset="1" stop-color="#6F9A3A"/>
</linearGradient>
<linearGradient id="paint74_linear_1816_14805" x1="95.4633" y1="614.131" x2="108.577" y2="643.474" gradientUnits="userSpaceOnUse">
<stop stop-color="#E2E2E2"/>
<stop offset="0.79" stop-color="#E2E2E2"/>
<stop offset="1" stop-color="#6F9A3A"/>
</linearGradient>
</defs>
</svg>
