<svg width="651" height="732" viewBox="0 0 651 732" fill="none" xmlns="http://www.w3.org/2000/svg">
<path d="M507.07 108.02C524.64 122.25 517.24 236.72 478.27 251.85C433.44 269.26 351.53 196.88 364.58 149.8C375.67 109.8 489.49 93.79 507.07 108.02Z" fill="#353535"/>
<path d="M479.459 273.39C480.109 309.75 461.749 337.11 456.409 344.84C416.199 403.08 342.749 402.85 318.879 402.77C263.439 402.59 166.909 379.67 149.119 310.13C139.149 271.17 158.379 235.11 167.369 218.27C195.709 165.13 254.429 124.59 318.879 126.83C400.099 129.65 478.149 199.98 479.459 273.39Z" fill="white"/>
<mask id="mask0_1816_15440" style="mask-type:luminance" maskUnits="userSpaceOnUse" x="146" y="126" width="334" height="277">
<path d="M479.459 273.39C480.109 309.75 461.749 337.11 456.409 344.84C416.199 403.08 342.749 402.85 318.879 402.77C263.439 402.59 166.909 379.67 149.119 310.13C139.149 271.17 158.379 235.11 167.369 218.27C195.709 165.13 254.429 124.59 318.879 126.83C400.099 129.65 478.149 199.98 479.459 273.39Z" fill="white"/>
</mask>
<g mask="url(#mask0_1816_15440)">
<path d="M367.64 114.93C361.88 127.97 360.88 142.45 363.74 156.34C366.64 170.44 373.35 183.7 382.53 194.75C392.34 206.56 405.3 215.53 419.23 221.84C433.86 228.47 449.58 232.28 465.48 234.23C473.32 235.19 481.23 235.73 489.13 235.81C496.13 235.87 503.18 235.41 510.03 233.94C516.88 232.47 523.14 230.08 528.54 225.96C533.93 221.84 537.99 216.17 539.8 209.61C543.56 195.97 537.93 180.99 528.75 170.78C518.08 158.91 502.32 152.88 487.39 148.44C478.84 145.89 470.19 143.66 461.57 141.33C452.1 138.76 442.64 136.19 433.17 133.63C414.32 128.52 395.46 123.4 376.61 118.29C372.04 117.05 367.46 115.81 362.89 114.57C361.02 114.06 360.23 116.96 362.09 117.46C380.38 122.42 398.67 127.38 416.97 132.35C435.18 137.29 453.39 142.23 471.61 147.17C486.79 151.29 502.53 155.18 515.86 163.88C527.59 171.54 536.76 183.76 537.86 198.08C538.37 204.69 536.96 211.31 533.21 216.84C529.46 222.37 524.28 225.9 518.44 228.29C505.51 233.58 490.86 233.27 477.17 232.36C461.67 231.33 446.21 228.66 431.51 223.56C417.15 218.58 403.37 211.1 392.21 200.69C382.06 191.21 374.16 179.21 369.55 166.09C365.06 153.29 363.67 139.26 366.98 126.01C367.79 122.75 368.87 119.55 370.23 116.48C371 114.73 368.42 113.2 367.64 114.97V114.93Z" fill="white"/>
<path d="M377.379 119.56C359.409 134.09 352.429 159.69 357.319 182.28C362.209 204.86 377.649 224.26 396.769 237.24C415.879 250.22 438.449 257.31 461.189 261.43C468.849 262.82 477.009 263.84 484.229 260.89C492.929 257.34 498.469 248.72 502.049 240.03C511.549 216.93 510.619 189.76 499.549 167.37C488.479 144.98 467.469 127.73 443.349 121.25C422.339 115.6 400.129 117.89 378.499 120.21" fill="#353535"/>
</g>
<path d="M128.07 108.02C110.5 122.25 117.9 236.72 156.87 251.85C201.7 269.26 283.61 196.88 270.56 149.8C259.47 109.8 145.65 93.79 128.07 108.02Z" fill="#FFDC83"/>
<path d="M148.13 128.51C138.78 136.08 142.72 196.98 163.45 205.04C187.3 214.3 230.88 175.79 223.94 150.74C218.04 129.46 157.48 120.94 148.13 128.51Z" fill="#FFBBD2"/>
<path d="M488.2 128.51C497.55 136.08 493.61 196.98 472.88 205.04C449.03 214.3 405.45 175.79 412.39 150.74C418.29 129.46 478.85 120.94 488.2 128.51Z" fill="#FFBBD2"/>
<path d="M405.81 244.28C403.71 257.67 390.26 267.45 376.15 267.45C362.63 267.45 351.36 258.44 350.36 246.21" fill="#86C663"/>
<path d="M350.35 246.21C349.24 232.53 361.12 219.2 377.78 217.9C395.36 216.53 408.18 229.15 405.81 244.28" fill="#4D962C"/>
<path d="M230.14 244.28C232.24 257.67 245.69 267.45 259.8 267.45C273.32 267.45 284.59 258.44 285.59 246.21" fill="#86C663"/>
<path d="M285.589 246.21C286.699 232.53 274.819 219.2 258.159 217.9C240.579 216.53 227.759 229.15 230.129 244.28" fill="#4D962C"/>
<path d="M376.98 262.58C386.17 262.58 393.62 254.342 393.62 244.18C393.62 234.018 386.17 225.78 376.98 225.78C367.79 225.78 360.34 234.018 360.34 244.18C360.34 254.342 367.79 262.58 376.98 262.58Z" fill="black"/>
<path d="M392.31 243.68C395.231 243.68 397.6 241.312 397.6 238.39C397.6 235.469 395.231 233.1 392.31 233.1C389.388 233.1 387.02 235.469 387.02 238.39C387.02 241.312 389.388 243.68 392.31 243.68Z" fill="white"/>
<path d="M257.709 262.58C266.899 262.58 274.349 254.342 274.349 244.18C274.349 234.018 266.899 225.78 257.709 225.78C248.519 225.78 241.069 234.018 241.069 244.18C241.069 254.342 248.519 262.58 257.709 262.58Z" fill="black"/>
<path d="M269.52 243.68C272.441 243.68 274.81 241.312 274.81 238.39C274.81 235.469 272.441 233.1 269.52 233.1C266.598 233.1 264.229 235.469 264.229 238.39C264.229 241.312 266.598 243.68 269.52 243.68Z" fill="white"/>
<path d="M323.729 253.54C303.939 251.98 290.959 275.49 294.859 284.79C300.179 297.47 342.579 297.38 348.189 283.77C351.939 274.66 341.109 254.91 323.729 253.54Z" fill="#FFDC83"/>
<path d="M331.85 265.14C332.58 268.32 327.31 273.35 321.81 273.49C315.97 273.64 310.32 268.25 311.06 265C311.77 261.9 318.28 260.86 322.23 261.04C324.91 261.16 331.14 262.06 331.85 265.14Z" fill="#FFBBD2"/>
<path d="M372.51 20.11C366.75 20.11 361.28 21.37 356.36 23.64C348.89 9.57 334.19 0 317.26 0C300.33 0 285.78 9.47 278.27 23.42C273.48 21.29 268.19 20.11 262.62 20.11C241.13 20.11 223.72 47.46 223.72 69.14C223.72 90.82 241.14 108.39 262.62 108.39C275.43 108.39 286.8 102.14 293.89 92.5C300.67 96.76 308.68 99.22 317.26 99.22C325.84 99.22 334.18 96.66 341.05 92.24C348.12 102.03 359.58 108.4 372.51 108.4C394 108.4 411.41 90.83 411.41 69.15C411.41 47.47 393.99 20.12 372.51 20.12V20.11Z" fill="white"/>
<path d="M372.94 140.91C365.31 135.88 345.87 133.36 317.68 133.24C288.98 133.12 269.17 135.89 261.56 140.91C259.98 123.74 258.31 114.23 256.54 94.96C268.55 89.43 289.25 81.97 316.29 81.79C344.36 81.6 365.82 89.36 377.99 94.96C376.21 114.23 374.53 123.74 372.95 140.91H372.94Z" fill="white"/>
<g opacity="0.8">
<path d="M357.649 35.47C358.409 41.3 358.739 49.53 356.649 59.1C354.119 70.67 349.099 79.48 345.279 85.03" fill="white"/>
<path d="M357.65 35.47C362.8 52.49 357.58 72.31 345.27 85.03C348.86 77.11 352.12 69.29 354.22 60.92C356.38 52.57 357.25 44.16 357.65 35.47Z" fill="#DADADA"/>
</g>
<g opacity="0.8">
<path d="M277.109 36.23C276.349 42.06 276.019 50.29 278.109 59.86C280.639 71.43 285.659 80.24 289.479 85.79" fill="white"/>
<path d="M277.109 36.22C277.509 44.91 278.379 53.32 280.539 61.67C282.639 70.04 285.899 77.86 289.489 85.78C277.179 73.06 271.959 53.24 277.109 36.22Z" fill="#DADADA"/>
</g>
<g opacity="0.8">
<path d="M265.359 106.96C296.099 89.5899 335.999 89.5599 366.729 106.96C358.609 103.68 350.289 101.07 341.799 99.3099C316.249 93.8599 289.459 97.0099 265.359 106.96Z" fill="#D7D7D7"/>
</g>
<path d="M288.48 688.14C276.96 693.76 265.24 693.99 257.47 693.31C250.63 693.52 239.89 692.89 229.24 687.74C222.99 684.72 219.82 681.62 218.26 679.9C216.56 678.03 213.19 674.26 211.8 668.35C211.38 666.58 211.16 664.73 211.16 662.83C211.16 649.54 222.04 638.66 235.33 638.66H280.98C294.27 638.66 305.15 649.54 305.15 662.83C305.1 666.09 304.51 673.59 299.22 680.18C298.13 681.54 295.25 684.83 288.49 688.13L288.48 688.14Z" fill="#7F7F7F"/>
<path d="M421.52 688.14C410 693.76 398.28 693.99 390.51 693.31C383.67 693.52 372.93 692.89 362.28 687.74C356.03 684.72 352.86 681.62 351.3 679.9C349.6 678.03 346.23 674.26 344.84 668.35C344.42 666.58 344.2 664.73 344.2 662.83C344.2 649.54 355.08 638.66 368.37 638.66H414.02C427.31 638.66 438.19 649.54 438.19 662.83C438.14 666.09 437.55 673.59 432.26 680.18C431.17 681.54 428.29 684.83 421.53 688.13L421.52 688.14Z" fill="#7F7F7F"/>
<path d="M443.12 655.35H197.97C181.89 655.35 169.14 641.79 170.12 625.74L181.08 447.76C183.45 409.24 215.38 379.22 253.97 379.22H387.1C425.69 379.22 457.62 409.24 459.99 447.76L470.95 625.74C471.94 641.79 459.19 655.35 443.1 655.35H443.12Z" fill="white"/>
<path d="M268.51 459.08C274.37 459.08 279.12 454.33 279.12 448.47C279.12 442.61 274.37 437.86 268.51 437.86C262.651 437.86 257.9 442.61 257.9 448.47C257.9 454.33 262.651 459.08 268.51 459.08Z" fill="#E8E8E8"/>
<path d="M360.92 459.08C366.779 459.08 371.53 454.33 371.53 448.47C371.53 442.61 366.779 437.86 360.92 437.86C355.06 437.86 350.31 442.61 350.31 448.47C350.31 454.33 355.06 459.08 360.92 459.08Z" fill="#E8E8E8"/>
<path d="M268.51 496.59C274.37 496.59 279.12 491.84 279.12 485.98C279.12 480.12 274.37 475.37 268.51 475.37C262.651 475.37 257.9 480.12 257.9 485.98C257.9 491.84 262.651 496.59 268.51 496.59Z" fill="#E8E8E8"/>
<path d="M360.92 496.59C366.779 496.59 371.53 491.84 371.53 485.98C371.53 480.12 366.779 475.37 360.92 475.37C355.06 475.37 350.31 480.12 350.31 485.98C350.31 491.84 355.06 496.59 360.92 496.59Z" fill="#E8E8E8"/>
<path d="M268.51 537.18C274.37 537.18 279.12 532.43 279.12 526.57C279.12 520.71 274.37 515.96 268.51 515.96C262.651 515.96 257.9 520.71 257.9 526.57C257.9 532.43 262.651 537.18 268.51 537.18Z" fill="#E8E8E8"/>
<path d="M360.92 537.18C366.779 537.18 371.53 532.43 371.53 526.57C371.53 520.71 366.779 515.96 360.92 515.96C355.06 515.96 350.31 520.71 350.31 526.57C350.31 532.43 355.06 537.18 360.92 537.18Z" fill="#E8E8E8"/>
<path d="M467.92 570.52C428.17 577.38 377.83 582.81 321.56 582.91C263.94 583.01 213.78 577.35 173.36 570.37C173.36 565.26 174.17 560.55 174.17 555.44C215.12 562.11 264.4 566.98 321.56 566.88C377.38 566.78 426.39 561.59 466.64 555.04C466.64 560.15 467.91 565.41 467.91 570.52H467.92Z" fill="#E8E8E8"/>
<path d="M648.85 699.07C434.13 701.63 219.41 704.19 4.69 706.75C3.18 703.42 1.29 698.35 0.44 691.93C0.28 690.71 0 688.28 0 682.12C0 677.6 0.15 671.34 0.8 663.77H650C650.73 669.9 651.11 677.19 650.57 685.34C650.24 690.35 649.61 694.94 648.84 699.06L648.85 699.07Z" fill="#E5BD7F"/>
<path d="M607.83 731.59H42.88C14.16 731.59 -6.08998 703.41 3.08002 676.19L39.11 569.23C44.86 552.15 60.88 540.64 78.91 540.64H571.8C589.83 540.64 605.84 552.14 611.6 569.23L647.63 676.19C656.8 703.41 636.55 731.59 607.83 731.59Z" fill="#E5BD7F"/>
<path d="M607.83 705.06H42.88C14.16 705.06 -6.08998 676.88 3.08002 649.66L39.11 542.7C44.86 525.62 60.88 514.11 78.91 514.11H571.8C589.83 514.11 605.84 525.61 611.6 542.7L647.63 649.66C656.8 676.88 636.55 705.06 607.83 705.06Z" fill="#F4D5A4"/>
<mask id="mask1_1816_15440" style="mask-type:luminance" maskUnits="userSpaceOnUse" x="0" y="514" width="650" height="192">
<path d="M607.83 705.06H42.88C14.16 705.06 -6.08998 676.88 3.08002 649.66L39.11 542.7C44.86 525.62 60.88 514.11 78.91 514.11H571.8C589.83 514.11 605.84 525.61 611.6 542.7L647.63 649.66C656.8 676.88 636.55 705.06 607.83 705.06Z" fill="white"/>
</mask>
<g mask="url(#mask1_1816_15440)">
<path d="M32.6895 551.77C44.3895 551.76 56.2595 552.28 67.7495 549.67C73.4395 548.38 79.0395 546.23 83.8095 542.83C89.0195 539.12 92.9995 534.19 95.5395 528.32C98.4395 521.6 99.6095 514.34 101.819 507.39C102.519 505.18 99.0494 504.23 98.3494 506.43C96.4594 512.36 95.3795 518.53 93.2495 524.39C91.1695 530.13 87.8495 535.17 83.0295 538.96C74.2095 545.89 62.4495 547.57 51.5695 548.05C45.2795 548.32 38.9795 548.17 32.6795 548.18C30.3595 548.18 30.3595 551.78 32.6795 551.78L32.6895 551.77Z" fill="#EAC696"/>
<path d="M23.88 574.76C43.82 575.88 63.92 571.99 82.07 563.66C98.95 555.91 113.95 544.14 125.61 529.7C132.07 521.71 137.53 512.96 141.8 503.61C142.75 501.52 139.65 499.69 138.69 501.79C131.31 517.96 120.35 532.36 106.75 543.8C92.28 555.97 74.89 564.41 56.45 568.52C45.77 570.9 34.8 571.77 23.88 571.16C21.57 571.03 21.57 574.63 23.88 574.76Z" fill="#EAC696"/>
<path d="M6.74929 600.13C25.1093 603.69 44.0093 603.79 62.4193 600.55C80.3893 597.39 97.6993 590.96 113.409 581.68C127.319 573.47 139.989 563.34 152.319 552.96C164.739 542.51 176.849 531.66 189.859 521.94C202.469 512.51 216.009 504.06 230.869 498.68C232.739 498 234.639 497.37 236.539 496.79C238.749 496.11 237.809 492.64 235.579 493.32C220.389 497.98 206.409 505.74 193.469 514.88C180.349 524.16 168.209 534.72 155.999 545.13C143.789 555.54 131.449 565.89 117.959 574.62C103.079 584.26 86.8393 591.41 69.5393 595.43C51.5893 599.6 32.7893 600.5 14.5393 597.83C12.2393 597.49 9.95929 597.1 7.67929 596.66C5.39929 596.22 4.44929 599.69 6.71929 600.13H6.74929Z" fill="#EAC696"/>
<path d="M-5.35027 640.14C19.0697 642.42 44.1397 644.62 68.3297 639.23C80.1097 636.61 91.2197 631.97 101.42 625.53C111.5 619.16 120.64 611.46 129.84 603.91C139.04 596.36 148.35 589.25 158.29 582.81C168.23 576.37 178.29 570.65 188.65 565.21C209.38 554.34 230.82 544.91 252.03 535.02C273.24 525.13 294.32 514.71 314.03 502C316.45 500.44 318.85 498.84 321.22 497.21C323.12 495.91 321.32 492.79 319.4 494.1C300.13 507.33 279.33 518.1 258.25 528.12C237.1 538.17 215.61 547.51 194.7 558.06C174 568.5 153.92 580.21 135.68 594.59C126.32 601.97 117.39 609.88 107.74 616.88C98.0497 623.92 87.6697 629.81 76.2097 633.41C52.7497 640.76 27.6497 639.45 3.48973 637.35C0.539729 637.09 -2.40027 636.82 -5.34027 636.55C-7.64027 636.33 -7.63027 639.93 -5.34027 640.15L-5.35027 640.14Z" fill="#EAC696"/>
<path d="M74.7899 711.98C90.5199 717.43 107.69 715.51 122.99 709.6C139.19 703.35 153.07 693.01 165.7 681.28C178.79 669.13 190.63 655.71 203.84 643.68C217.05 631.65 230.39 622.36 245.11 613.82C259.89 605.25 275.38 597.96 291.13 591.39C306.92 584.8 322.99 578.9 339.07 573.05C354.74 567.35 370.44 561.73 385.9 555.48C400.8 549.46 415.5 542.91 429.7 535.4C443.9 527.89 457.48 519.47 470.14 509.67C482.57 500.06 494 489.12 503.7 476.75C506.09 473.7 508.38 470.58 510.56 467.38C511.87 465.46 508.75 463.66 507.45 465.56C498.66 478.45 488.01 489.98 476.18 500.13C464.35 510.28 451.21 519.16 437.6 526.94C423.99 534.72 409.19 541.8 394.44 548.07C379.69 554.34 364.44 559.99 349.27 565.51C333.19 571.36 317.08 577.13 301.17 583.44C285.42 589.68 269.85 596.44 254.84 604.33C239.96 612.15 225.68 621.11 212.51 631.57C199.34 642.03 186.74 655.37 174.37 667.82C162 680.27 149.44 692.06 134.2 700.42C119.98 708.22 103.55 713.16 87.2199 711.19C83.3099 710.72 79.4599 709.78 75.7499 708.49C73.5599 707.73 72.6199 711.2 74.7899 711.96V711.98Z" fill="#EAC696"/>
<path d="M589.16 717.18C569 715.01 547.5 712.62 530.37 700.78C516.99 691.54 506.73 673.78 510.4 657.18C514.49 638.71 533.92 630.78 550.5 627.08C570.63 622.59 591.64 621.88 612.05 624.81C632.46 627.74 652.47 634.22 670.62 644.11C672.85 645.33 675.05 646.6 677.23 647.91C679.22 649.11 681.03 646 679.05 644.8C660.67 633.7 640.21 626.08 619.07 622.31C597.93 618.54 576.09 618.51 554.94 622.5C537.07 625.87 516.11 632.69 508.57 651.02C501.59 667.99 510.1 687.69 522.92 699.4C538.57 713.7 560.88 717.49 581.17 719.88C583.83 720.19 586.49 720.48 589.16 720.77C590.13 720.87 590.95 719.87 590.96 718.97C590.97 717.91 590.12 717.27 589.16 717.17V717.18Z" fill="#EAC696"/>
<path d="M622.94 716.84C607.01 713.9 591.649 708.25 577.649 700.1C566.119 693.39 550.599 683.67 551.339 668.35C551.979 655.22 565.679 643.29 578.739 644.5C585.739 645.15 592.24 649.03 598.38 652.13C604.03 654.98 609.77 657.62 615.69 659.88C629.22 665.06 643.4 668.33 657.77 670.11C659.96 670.38 662.159 670.61 664.359 670.82C666.559 671.03 666.649 667.43 664.359 667.22C648.909 665.8 633.609 662.62 619.029 657.3C613.069 655.13 607.29 652.56 601.62 649.73C594.98 646.41 588.169 642.32 580.729 641.15C566.509 638.92 551.91 649.85 548.45 663.56C546.62 670.81 548.45 678.31 552.68 684.38C557.09 690.71 563.349 695.28 569.739 699.44C583.779 708.59 599.48 715.27 615.82 719.03C617.86 719.5 619.919 719.92 621.979 720.3C624.239 720.72 625.21 717.25 622.94 716.83V716.84Z" fill="#EAC696"/>
<path d="M537.289 507.82C535.519 516.83 532 525.4 526.89 533.03C524.29 536.92 521.269 540.49 517.939 543.77C514.609 547.05 510.75 550.33 507.2 553.66C500.43 560.02 494.069 567.61 492.419 577.04C491.009 585.1 493.669 593.07 500.139 598.19C505.939 602.78 513.609 604.87 520.939 604.41C529.839 603.85 538.109 599.57 545.189 594.38C559.999 583.53 571.639 566.99 590.119 562.06C599.729 559.49 609.8 559.82 619.52 557.83C627.33 556.23 635.459 552.97 640.779 546.8C642.089 545.29 643.209 543.64 644.109 541.85C645.139 539.79 642.039 537.96 640.999 540.03C637.469 547.07 630.359 551.08 623.039 553.24C614.069 555.89 604.599 555.79 595.419 557.27C590.709 558.03 586.139 559.27 581.779 561.22C577.749 563.03 573.99 565.41 570.46 568.05C563.27 573.43 556.989 579.84 550.229 585.72C543.469 591.6 536.159 597.02 527.549 599.55C520.679 601.57 513.139 601.26 506.659 598.05C500.179 594.84 495.67 589.02 495.6 581.68C495.51 572.57 501.189 564.64 507.369 558.48C514.009 551.85 521.469 546.17 527.229 538.68C532.619 531.67 536.7 523.66 539.2 515.18C539.82 513.06 540.34 510.92 540.76 508.75C541.18 506.58 537.739 505.52 537.289 507.79V507.82Z" fill="#EAC696"/>
<path d="M363.6 595.72C370.93 597.35 378.65 596.64 385.58 593.76C392.51 590.88 399.37 585.8 402.36 578.83C403.89 575.26 404.08 571.3 402.19 567.83C400.56 564.82 397.4 562.52 393.88 562.7C390.36 562.88 387.37 565.29 385.09 567.94C382.56 570.89 380.32 573.99 377.48 576.67C374.15 579.81 370.43 582.25 366.45 584.48C362.47 586.71 358.95 590.44 361.14 595.09C362.12 597.18 365.23 595.36 364.25 593.27C363.65 592 364.47 590.5 365.36 589.6C366.57 588.37 368.2 587.63 369.69 586.79C372.76 585.07 375.65 583.04 378.32 580.74C380.99 578.44 383.3 575.93 385.44 573.2C387.23 570.91 389.08 568.27 391.72 566.9C394.18 565.63 396.83 566.43 398.46 568.59C400.34 571.07 400.34 574.22 399.23 577.03C396.9 582.97 390.86 587.4 385.25 589.98C378.84 592.92 371.45 593.75 364.56 592.22C362.3 591.72 361.34 595.19 363.6 595.69V595.72Z" fill="#EAC696"/>
<path d="M513.559 505.82C498.889 510.42 488.529 523.03 481.759 536.29C477.619 544.39 474.479 552.94 471.069 561.35C467.659 569.76 463.879 577.7 459.019 585.24C449.319 600.26 436.809 613.28 424.819 626.45C411.749 640.82 398.619 655.13 385.429 669.39C372.179 683.71 358.879 697.98 345.509 712.18C343.869 713.92 342.239 715.66 340.599 717.39C338.959 719.12 341.549 721.62 343.139 719.93C356.409 705.85 369.619 691.72 382.769 677.54C395.859 663.42 408.899 649.24 421.879 635C434.029 621.67 446.709 608.58 457.349 593.98C462.509 586.9 467.019 579.4 470.649 571.42C474.279 563.44 477.399 554.71 480.969 546.44C486.979 532.52 495.379 518.15 509.529 511.23C511.149 510.44 512.819 509.79 514.529 509.26C516.729 508.57 515.789 505.09 513.569 505.79L513.559 505.82Z" fill="#EAC696"/>
<path d="M219.19 721.1C225.83 708.29 233.96 696.28 243.42 685.39C252.87 674.5 263.57 664.68 275.29 656.28C281.13 652.09 287.21 648.25 293.51 644.78C296.4 643.19 299.31 641.72 302.51 640.86C305.22 640.13 308.29 639.71 310.98 640.77C318.15 643.59 315.01 652.96 313.19 658.24C310.27 666.71 307.35 675.18 304.42 683.65C298.55 700.67 292.68 717.69 286.81 734.71C286.08 736.83 285.35 738.95 284.62 741.06C283.89 743.17 287.34 744.2 288.09 742.02C294.2 724.29 300.32 706.57 306.43 688.84C309.46 680.05 312.49 671.27 315.52 662.48C317.85 655.74 321.73 646.85 316.49 640.46C312.13 635.15 304.39 636.15 298.68 638.31C295.39 639.55 292.32 641.28 289.27 643.03C285.98 644.91 282.75 646.9 279.58 648.98C267.06 657.22 255.52 666.97 245.3 677.94C235.04 688.95 226.07 701.2 218.75 714.35C217.84 715.98 216.96 717.62 216.11 719.27C215.05 721.32 218.15 723.15 219.22 721.09L219.19 721.1Z" fill="#EAC696"/>
<path d="M635.63 712.65C629.16 712.32 622.73 710.78 616.84 708.07C610.95 705.36 605.44 701.86 601.4 697.07C599.49 694.8 598.08 691.84 598.7 688.82C599.27 685.98 601.59 684.34 604.41 684.23C607.61 684.11 610.49 685.68 613.14 687.31C616.32 689.27 619.45 691.31 622.6 693.31C630.04 698.04 637.47 702.76 644.91 707.49C646.87 708.74 648.68 705.62 646.73 704.38C639.43 699.74 632.14 695.11 624.84 690.47C621.31 688.23 617.82 685.89 614.22 683.75C611.16 681.93 607.68 680.37 604.04 680.65C600.68 680.9 597.46 682.57 595.98 685.72C594.5 688.87 594.77 692.39 596.15 695.47C597.63 698.76 600.32 701.37 603.06 703.63C605.8 705.89 608.86 707.98 612.06 709.7C619.33 713.6 627.41 715.83 635.65 716.25C637.96 716.37 637.96 712.77 635.65 712.65H635.63Z" fill="#EAC696"/>
<path d="M418.01 707.46C424.46 688.48 435.77 671.26 450.55 657.74C452.39 656.05 454.29 654.42 456.24 652.86C458.19 651.3 460.28 649.65 462.63 648.65C464.69 647.77 467.07 647.46 469.05 648.71C470.49 649.62 471.37 651.18 471.89 652.77C473.31 657.1 472.81 661.84 472.66 666.31C472.46 672.46 472.25 678.6 472.05 684.75C471.59 698.62 471.13 712.49 470.67 726.36C470.59 728.68 474.19 728.67 474.27 726.36C474.7 713.24 475.14 700.12 475.57 686.99C475.78 680.51 476 674.03 476.21 667.56C476.37 662.61 476.9 657.43 475.58 652.58C474.4 648.24 471.35 644.6 466.62 644.28C461.14 643.91 456.37 648.09 452.44 651.35C444.2 658.17 436.92 666.11 430.73 674.82C423.83 684.53 418.38 695.24 414.55 706.52C413.8 708.72 417.28 709.66 418.02 707.48L418.01 707.46Z" fill="#EAC696"/>
<path d="M404.63 500.31C376.01 502.75 348.49 511.63 322.61 523.85C296.31 536.27 271.7 551.94 247.64 568.19C225.3 583.27 203.01 598.52 181.56 614.85C160.11 631.18 140.65 647.72 123.04 667.14C105.8 686.15 91.0499 707.49 81.0599 731.2C79.8499 734.06 78.7199 736.96 77.6499 739.88C76.8499 742.06 80.3299 743 81.1199 740.84C89.8299 717.01 103.53 695.31 119.97 676.07C136.41 656.83 156.21 639.17 176.53 623.26C196.85 607.35 219.05 592.06 240.82 577.19C264.58 560.95 288.69 545.04 314.35 531.93C339.51 519.07 366.33 509.01 394.41 505.06C397.81 504.58 401.22 504.21 404.63 503.92C406.92 503.72 406.94 500.12 404.63 500.32V500.31Z" fill="#EAC696"/>
</g>
<path d="M413.242 527.536L351.371 514.498C344.886 513.131 338.521 517.281 337.154 523.766L331.964 548.395C330.598 554.88 334.747 561.245 341.232 562.611L403.103 575.65C409.588 577.016 415.953 572.867 417.32 566.382L422.51 541.753C423.876 535.268 419.727 528.903 413.242 527.536Z" fill="#F2A100"/>
<path d="M243.42 574.49L245.54 553.19L231.71 550.83L234.73 527.12L251.9 529.3L350.04 541.78C358.03 542.8 365.62 546 372.09 551.22C374.65 553.28 377.25 555.78 379.75 558.81C390.76 572.16 392.85 587.48 393.37 592.96C368.38 589.88 343.39 586.8 243.42 574.48V574.49Z" fill="#E5E5E5"/>
<mask id="mask2_1816_15440" style="mask-type:luminance" maskUnits="userSpaceOnUse" x="231" y="527" width="163" height="66">
<path d="M243.42 574.49L245.54 553.19L231.71 550.83L234.73 527.12L251.9 529.3L350.04 541.78C358.03 542.8 365.62 546 372.09 551.22C374.65 553.28 377.25 555.78 379.75 558.81C390.76 572.16 392.85 587.48 393.37 592.96C368.38 589.88 343.39 586.8 243.42 574.48V574.49Z" fill="white"/>
</mask>
<g mask="url(#mask2_1816_15440)">
<path opacity="0.66" d="M238.905 562.95L232.003 617.203L388.948 637.168L395.85 582.916L238.905 562.95Z" fill="white"/>
</g>
<path d="M151.168 518.702L148.484 539.802C148.118 542.684 150.156 545.317 153.038 545.684L220.921 554.32C223.803 554.686 226.436 552.647 226.803 549.765L229.487 528.665C229.854 525.784 227.815 523.15 224.933 522.784L157.05 514.148C154.168 513.781 151.535 515.82 151.168 518.702Z" fill="#878787"/>
<path d="M219.61 538.17C218.65 545.73 218.14 550.03 219.64 552.74C220.29 553.92 221.1 554.42 221.69 554.66L230.71 555.81C231.12 555.79 232.12 555.66 233.17 554.47C233.81 553.74 234.23 552.9 234.47 552.34C234.31 549.32 234.29 544.91 234.96 539.61C235.62 534.44 236.71 530.26 237.59 527.41C237.32 526.66 237.04 526.1 236.83 525.71C236.44 524.99 236.09 524.37 235.49 524.03C235.27 523.9 235.03 523.82 234.78 523.79L225.76 522.64C225.13 522.73 224.22 523.01 223.3 523.98C221.16 526.24 220.58 530.57 219.61 538.16V538.17Z" fill="#A5A5A5"/>
<path opacity="0.66" d="M374.36 580.2L339.07 540.83L308.07 536.7L339.76 576.34" fill="white"/>
<path opacity="0.66" d="M314.62 572.82L286.43 533.74L267.49 531.49L294.45 569.94" fill="white"/>
<path d="M232.26 436.18L225.81 514.25C224.4 531.34 211.88 543.11 198 540.39L195.45 539.89C181.57 537.17 171.36 520.96 172.78 503.87L179.23 425.8C180.64 408.71 193.16 396.94 207.04 399.66L209.59 400.16C223.47 402.88 233.68 419.09 232.26 436.18Z" fill="white"/>
<path d="M174.27 518.56C169.83 531.85 182.27 549.49 198.21 550.8C212.41 551.97 227.37 540.02 226.77 526.19C226.21 513.32 212.43 504.4 200.37 503.77C190.28 503.24 177.69 508.32 174.27 518.56Z" fill="#FFDC83"/>
<path d="M409.96 434.89L396.49 512.38C393.54 529.35 403.11 543.97 417.75 544.88L420.44 545.05C435.09 545.96 449.48 532.82 452.43 515.85L465.9 438.36C468.85 421.39 459.28 406.77 444.64 405.86L441.95 405.69C427.3 404.78 412.91 417.92 409.96 434.89Z" fill="white"/>
<path d="M444.14 530.25C444.69 544.25 427.82 557.71 412.15 554.52C398.19 551.68 387.16 536.02 391.6 522.91C395.73 510.71 411.46 505.99 423.21 508.75C433.05 511.06 443.71 519.45 444.14 530.24V530.25Z" fill="#353535"/>
<path d="M342.013 568.022L316.161 562.574C309.676 561.207 303.311 565.356 301.944 571.841L299.476 583.554C298.11 590.039 302.259 596.404 308.744 597.771L334.596 603.219C341.081 604.585 347.446 600.436 348.813 593.951L351.281 582.238C352.648 575.753 348.498 569.388 342.013 568.022Z" fill="#F2A100"/>
<path d="M338.022 595.3L297.747 586.812C296.672 586.586 295.616 587.274 295.389 588.349L294.495 592.596C294.268 593.672 294.956 594.727 296.031 594.954L336.307 603.441C337.382 603.668 338.438 602.98 338.664 601.904L339.559 597.657C339.786 596.582 339.098 595.526 338.022 595.3Z" fill="#D88B03"/>
<path d="M299.84 579.378L279.154 575.018C272.669 573.652 266.304 577.801 264.938 584.286L263.245 592.32C261.878 598.805 266.027 605.17 272.512 606.536L293.198 610.895C299.683 612.262 306.048 608.113 307.415 601.628L309.108 593.594C310.474 587.109 306.325 580.744 299.84 579.378Z" fill="#F2A100"/>
<path d="M296.268 602.966L255.992 594.479C254.917 594.252 253.861 594.94 253.635 596.015L252.74 600.262C252.513 601.338 253.201 602.393 254.277 602.62L294.552 611.107C295.627 611.334 296.683 610.646 296.91 609.57L297.804 605.324C298.031 604.248 297.343 603.193 296.268 602.966Z" fill="#D88B03"/>
<path d="M268.07 592.769L253.921 589.788C247.436 588.421 241.071 592.57 239.704 599.055L238.995 602.421C237.628 608.906 241.778 615.271 248.263 616.638L262.412 619.62C268.897 620.986 275.262 616.837 276.628 610.352L277.338 606.986C278.704 600.501 274.555 594.136 268.07 592.769Z" fill="#F2A100"/>
<path d="M533.12 651.67C530.06 646.41 526.64 640.53 520.75 637.37C513.04 639.94 503.98 639.16 496.88 643.3C492.62 645.79 489.39 649.99 488.09 654.76C488.09 654.68 488.08 654.6 488.07 654.52C487.22 657.29 486.67 660.54 487.19 663.74C488.5 665.6 490.96 668.46 494.89 669.83C497.82 670.85 501.37 671.59 507.66 670.65C513.14 669.83 515.86 674.41 518.54 672.78C521.31 671.09 520.73 670.41 524.57 667.86C529.4 664.66 532.45 660.83 533.54 660.8C535.19 660.76 536.03 658.44 536.94 658.71C535.77 656.22 534.37 653.81 533.12 651.66V651.67Z" fill="#F2DA9E"/>
<path d="M496.879 643.31C503.989 639.17 513.039 639.95 520.749 637.38C519.319 636.61 517.749 636 516.009 635.6C509.179 634.03 501.829 636.13 496.819 640.27C493.759 642.8 492.199 645.57 491.119 647.53C490.539 648.59 489.089 651.22 488.069 654.53C488.069 654.61 488.079 654.69 488.089 654.77C489.389 650.01 492.619 645.8 496.879 643.31Z" fill="#F2DA9E"/>
<g opacity="0.64">
<path d="M496.89 643.32C504 639.18 513.05 639.96 520.76 637.39C519.33 636.62 517.76 636.01 516.02 635.61C509.19 634.04 501.84 636.14 496.83 640.28C493.77 642.81 492.21 645.58 491.13 647.54C490.55 648.6 489.1 651.23 488.08 654.54C488.08 654.62 488.09 654.7 488.1 654.78C489.4 650.02 492.63 645.81 496.89 643.32Z" fill="white"/>
</g>
<path d="M516.009 680.71C520.189 680.9 533.969 681.54 538.309 673.45C540.699 669 539.269 663.67 536.939 658.72C535.859 658.96 534.289 659.4 532.519 660.24C528.659 662.08 527.139 664.28 524.909 666C521.629 668.52 518.199 668.91 512.989 669.49C505.189 670.37 499.129 668.52 495.909 667.5C492.149 666.31 489.199 664.86 487.199 663.74C487.279 664.21 487.379 664.68 487.499 665.15C490.549 676.47 507.069 680.29 516.019 680.71H516.009Z" fill="#E8C577"/>
<path d="M555.28 631.1C552.22 625.84 548.8 619.96 542.91 616.8C535.2 619.37 526.14 618.59 519.04 622.73C514.78 625.22 511.55 629.42 510.25 634.19C510.25 634.11 510.24 634.03 510.23 633.95C509.38 636.72 508.83 639.97 509.35 643.17C510.66 645.03 513.12 647.89 517.05 649.26C519.98 650.28 523.53 651.02 529.82 650.08C535.3 649.26 538.02 653.84 540.7 652.21C543.47 650.52 542.89 649.84 546.73 647.29C551.56 644.09 554.61 640.26 555.7 640.23C557.35 640.19 558.19 637.87 559.1 638.14C557.93 635.65 556.53 633.24 555.28 631.09V631.1Z" fill="#F2DA9E"/>
<path d="M519.039 622.74C526.149 618.6 535.199 619.38 542.909 616.81C541.479 616.04 539.909 615.43 538.169 615.03C531.339 613.46 523.989 615.56 518.979 619.7C515.919 622.23 514.359 625 513.279 626.96C512.699 628.02 511.249 630.65 510.229 633.96C510.229 634.04 510.24 634.12 510.25 634.2C511.55 629.44 514.779 625.23 519.039 622.74Z" fill="#F2DA9E"/>
<g opacity="0.64">
<path d="M519.05 622.75C526.16 618.61 535.21 619.39 542.92 616.82C541.49 616.05 539.92 615.44 538.18 615.04C531.35 613.47 524 615.57 518.99 619.71C515.93 622.24 514.37 625.01 513.29 626.97C512.71 628.03 511.26 630.66 510.24 633.97C510.24 634.05 510.25 634.13 510.26 634.21C511.56 629.45 514.79 625.24 519.05 622.75Z" fill="white"/>
</g>
<path d="M538.169 660.14C542.349 660.33 556.129 660.97 560.469 652.88C562.859 648.43 561.429 643.1 559.099 638.15C558.019 638.39 556.449 638.83 554.679 639.67C550.819 641.51 549.299 643.71 547.069 645.43C543.789 647.95 540.359 648.34 535.149 648.92C527.349 649.8 521.289 647.95 518.069 646.93C514.309 645.74 511.359 644.29 509.359 643.17C509.439 643.64 509.539 644.11 509.659 644.58C512.709 655.9 529.229 659.72 538.179 660.14H538.169Z" fill="#E8C577"/>
<path d="M559.39 648.5C556.33 643.24 552.91 637.36 547.02 634.2C539.31 636.77 530.25 635.99 523.15 640.13C518.89 642.62 515.66 646.82 514.36 651.59C514.36 651.51 514.35 651.43 514.34 651.35C513.49 654.12 512.94 657.37 513.46 660.57C514.77 662.43 517.23 665.29 521.16 666.66C524.09 667.68 527.64 668.42 533.93 667.48C539.41 666.66 542.13 671.24 544.81 669.61C547.58 667.92 547 667.24 550.84 664.69C555.67 661.49 558.72 657.66 559.81 657.63C561.46 657.59 562.3 655.27 563.21 655.54C562.04 653.05 560.64 650.64 559.39 648.49V648.5Z" fill="#F2DA9E"/>
<path d="M523.15 640.14C530.26 636 539.31 636.78 547.02 634.21C545.59 633.44 544.02 632.83 542.28 632.43C535.45 630.86 528.1 632.96 523.09 637.1C520.03 639.63 518.47 642.4 517.39 644.36C516.81 645.42 515.36 648.05 514.34 651.36C514.34 651.44 514.35 651.52 514.36 651.6C515.66 646.84 518.89 642.63 523.15 640.14Z" fill="#F2DA9E"/>
<g opacity="0.64">
<path d="M523.16 640.15C530.27 636.01 539.32 636.79 547.03 634.22C545.6 633.45 544.03 632.84 542.29 632.44C535.46 630.87 528.11 632.97 523.1 637.11C520.04 639.64 518.48 642.41 517.4 644.37C516.82 645.43 515.37 648.06 514.35 651.37C514.35 651.45 514.36 651.53 514.37 651.61C515.67 646.85 518.9 642.64 523.16 640.15Z" fill="white"/>
</g>
<path d="M542.28 677.54C546.46 677.73 560.24 678.37 564.58 670.28C566.97 665.83 565.54 660.5 563.21 655.55C562.13 655.79 560.56 656.23 558.79 657.07C554.93 658.91 553.41 661.11 551.18 662.83C547.9 665.35 544.47 665.74 539.26 666.32C531.46 667.2 525.4 665.35 522.18 664.33C518.42 663.14 515.47 661.69 513.47 660.57C513.55 661.04 513.65 661.51 513.77 661.98C516.82 673.3 533.34 677.12 542.29 677.54H542.28Z" fill="#E8C577"/>
<path d="M585.67 635.5C582.61 630.24 579.19 624.36 573.3 621.2C565.59 623.77 556.53 622.99 549.43 627.13C545.17 629.62 541.94 633.82 540.64 638.59C540.64 638.51 540.63 638.43 540.62 638.35C539.77 641.12 539.22 644.37 539.74 647.57C541.05 649.43 543.51 652.29 547.44 653.66C550.37 654.68 553.92 655.42 560.21 654.48C565.69 653.66 568.41 658.24 571.09 656.61C573.86 654.92 573.28 654.24 577.12 651.69C581.95 648.49 585 644.66 586.09 644.63C587.74 644.59 588.58 642.27 589.49 642.54C588.32 640.05 586.92 637.64 585.67 635.49V635.5Z" fill="#F2DA9E"/>
<path d="M549.43 627.13C556.54 622.99 565.59 623.77 573.3 621.2C571.87 620.43 570.3 619.82 568.56 619.42C561.73 617.85 554.38 619.95 549.37 624.09C546.31 626.62 544.75 629.39 543.67 631.35C543.09 632.41 541.64 635.04 540.62 638.35C540.62 638.43 540.63 638.51 540.64 638.59C541.94 633.83 545.17 629.62 549.43 627.13Z" fill="#F2DA9E"/>
<g opacity="0.64">
<path d="M549.441 627.14C556.551 623 565.601 623.78 573.311 621.21C571.881 620.44 570.311 619.83 568.571 619.43C561.741 617.86 554.391 619.96 549.381 624.1C546.321 626.63 544.761 629.4 543.681 631.36C543.101 632.42 541.651 635.05 540.631 638.36C540.631 638.44 540.641 638.52 540.651 638.6C541.951 633.84 545.181 629.63 549.441 627.14Z" fill="white"/>
</g>
<path d="M568.56 664.53C572.74 664.72 586.52 665.36 590.86 657.27C593.25 652.82 591.82 647.49 589.49 642.54C588.41 642.78 586.84 643.22 585.07 644.06C581.21 645.9 579.69 648.1 577.46 649.82C574.18 652.34 570.75 652.73 565.54 653.31C557.74 654.19 551.68 652.34 548.46 651.32C544.7 650.13 541.75 648.68 539.75 647.56C539.83 648.03 539.93 648.5 540.05 648.97C543.1 660.29 559.62 664.11 568.57 664.53H568.56Z" fill="#E8C577"/>
<path d="M586.84 656.69C583.78 651.43 580.36 645.55 574.47 642.39C566.76 644.96 557.7 644.18 550.6 648.32C546.34 650.81 543.11 655.01 541.81 659.78C541.81 659.7 541.8 659.62 541.79 659.54C540.94 662.31 540.39 665.56 540.91 668.76C542.22 670.62 544.68 673.48 548.61 674.85C551.54 675.87 555.09 676.61 561.38 675.67C566.86 674.85 569.58 679.43 572.26 677.8C575.03 676.11 574.45 675.43 578.29 672.88C583.12 669.68 586.17 665.85 587.26 665.82C588.91 665.78 589.75 663.46 590.66 663.73C589.49 661.24 588.09 658.83 586.84 656.68V656.69Z" fill="#F2DA9E"/>
<path d="M550.6 648.33C557.71 644.19 566.76 644.97 574.47 642.4C573.04 641.63 571.47 641.02 569.73 640.62C562.9 639.05 555.55 641.15 550.54 645.29C547.48 647.82 545.92 650.59 544.84 652.55C544.26 653.61 542.81 656.24 541.79 659.55C541.79 659.63 541.8 659.71 541.81 659.79C543.11 655.03 546.34 650.82 550.6 648.33Z" fill="#F2DA9E"/>
<g opacity="0.64">
<path d="M550.611 648.34C557.721 644.2 566.771 644.98 574.481 642.41C573.051 641.64 571.481 641.03 569.741 640.63C562.911 639.06 555.561 641.16 550.551 645.3C547.491 647.83 545.931 650.6 544.851 652.56C544.271 653.62 542.821 656.25 541.801 659.56C541.801 659.64 541.811 659.72 541.821 659.8C543.121 655.04 546.351 650.83 550.611 648.34Z" fill="white"/>
</g>
<path d="M569.73 685.73C573.91 685.92 587.69 686.56 592.03 678.47C594.42 674.02 592.99 668.69 590.66 663.74C589.58 663.98 588.01 664.42 586.24 665.26C582.38 667.1 580.86 669.3 578.63 671.02C575.35 673.54 571.92 673.93 566.71 674.51C558.91 675.39 552.85 673.54 549.63 672.52C545.87 671.33 542.92 669.88 540.92 668.76C541 669.23 541.1 669.7 541.22 670.17C544.27 681.49 560.79 685.31 569.74 685.73H569.73Z" fill="#E8C577"/>
<path d="M619.36 645.32C616.3 640.06 612.88 634.18 606.99 631.02C599.28 633.59 590.22 632.81 583.12 636.95C578.86 639.44 575.63 643.64 574.33 648.41C574.33 648.33 574.32 648.25 574.31 648.17C573.46 650.94 572.91 654.19 573.43 657.39C574.74 659.25 577.2 662.11 581.13 663.48C584.06 664.5 587.61 665.24 593.9 664.3C599.38 663.48 602.1 668.06 604.78 666.43C607.55 664.74 606.97 664.06 610.81 661.51C615.64 658.31 618.69 654.48 619.78 654.45C621.43 654.41 622.27 652.09 623.18 652.36C622.01 649.87 620.61 647.46 619.36 645.31V645.32Z" fill="#F2DA9E"/>
<path d="M583.12 636.96C590.23 632.82 599.28 633.6 606.99 631.03C605.56 630.26 603.99 629.65 602.25 629.25C595.42 627.68 588.07 629.78 583.06 633.92C580 636.45 578.44 639.22 577.36 641.18C576.78 642.24 575.33 644.87 574.31 648.18C574.31 648.26 574.32 648.34 574.33 648.42C575.63 643.66 578.86 639.45 583.12 636.96Z" fill="#F2DA9E"/>
<g opacity="0.64">
<path d="M583.13 636.97C590.24 632.83 599.29 633.61 607 631.04C605.57 630.27 604 629.66 602.26 629.26C595.43 627.69 588.08 629.79 583.07 633.93C580.01 636.46 578.45 639.23 577.37 641.19C576.79 642.25 575.34 644.88 574.32 648.19C574.32 648.27 574.33 648.35 574.34 648.43C575.64 643.67 578.87 639.46 583.13 636.97Z" fill="white"/>
</g>
<path d="M602.249 674.36C606.429 674.55 620.209 675.19 624.549 667.1C626.939 662.65 625.509 657.32 623.179 652.37C622.099 652.61 620.529 653.05 618.759 653.89C614.899 655.73 613.379 657.93 611.149 659.65C607.869 662.17 604.439 662.56 599.229 663.14C591.429 664.02 585.369 662.17 582.149 661.15C578.389 659.96 575.439 658.51 573.439 657.39C573.519 657.86 573.619 658.33 573.739 658.8C576.789 670.12 593.309 673.94 602.259 674.36H602.249Z" fill="#E8C577"/>
<path d="M84.9301 614.58C84.9301 614.58 88.0401 644.48 59.2501 657.68C30.4601 670.88 108.16 658.25 84.9301 614.58Z" fill="url(#paint0_linear_1816_15440)"/>
<path d="M124.47 648.92C124.47 648.92 98.3904 663.87 74.6604 642.91C50.9304 621.94 93.9504 687.86 124.47 648.92Z" fill="url(#paint1_linear_1816_15440)"/>
<path d="M113.92 671.98C113.92 671.98 87.8397 686.93 64.1097 665.97C40.3797 645 83.3997 710.92 113.92 671.98Z" fill="url(#paint2_linear_1816_15440)"/>
<path d="M69.8399 673.16C69.8399 673.16 68.5499 643.12 98.0799 631.69C127.61 620.25 49.2899 628.16 69.8399 673.16Z" fill="url(#paint3_linear_1816_15440)"/>
<path d="M72.2903 680.16C72.2903 680.16 77.2703 650.51 108.53 645.46C139.79 640.41 61.5403 631.86 72.2903 680.16Z" fill="url(#paint4_linear_1816_15440)"/>
<path d="M92.0896 642.45C92.0896 642.45 66.0096 657.4 42.2796 636.44C18.5496 615.47 61.5696 681.39 92.0896 642.45Z" fill="url(#paint5_linear_1816_15440)"/>
<path d="M69.04 630.71C69.04 630.71 99.08 629.47 110.46 659.03C121.84 688.58 114.08 610.25 69.04 630.71Z" fill="url(#paint6_linear_1816_15440)"/>
<path d="M70.5596 641.78C70.5596 641.78 100.6 640.54 111.98 670.1C123.36 699.65 115.6 621.32 70.5596 641.78Z" fill="url(#paint7_linear_1816_15440)"/>
<path d="M40.7002 638.27C40.7002 638.27 70.7402 637.03 82.1202 666.59C93.5002 696.14 85.7402 617.81 40.7002 638.27Z" fill="url(#paint8_linear_1816_15440)"/>
<path d="M125.999 664.09C125.999 664.09 99.0595 677.44 76.6395 655.07C54.2195 632.7 93.1695 701.11 125.999 664.09Z" fill="url(#paint9_linear_1816_15440)"/>
<path d="M32.9304 669.43C32.9304 669.43 38.5204 639.89 69.8804 635.49C101.24 631.09 23.1804 620.93 32.9304 669.43Z" fill="url(#paint10_linear_1816_15440)"/>
<path d="M44.57 657.58C44.57 657.58 50.16 628.04 81.52 623.64C112.88 619.24 34.82 609.08 44.57 657.58Z" fill="url(#paint11_linear_1816_15440)"/>
<path d="M44.57 679.78C44.57 679.78 50.16 650.24 81.52 645.84C112.88 641.44 34.82 631.28 44.57 679.78Z" fill="url(#paint12_linear_1816_15440)"/>
<path d="M74.3395 654.08C74.3395 654.08 79.9295 624.54 111.29 620.14C142.65 615.74 64.5895 605.58 74.3395 654.08Z" fill="url(#paint13_linear_1816_15440)"/>
<path d="M89.9802 676.55C89.9802 676.55 95.5702 647.01 126.93 642.61C158.29 638.21 80.2302 628.05 89.9802 676.55Z" fill="url(#paint14_linear_1816_15440)"/>
<path d="M83.03 662.58C83.03 662.58 88.62 633.04 119.98 628.64C151.34 624.24 73.28 614.08 83.03 662.58Z" fill="url(#paint15_linear_1816_15440)"/>
<path d="M84.74 653.86C84.74 653.86 58.66 668.81 34.93 647.85C11.2 626.88 54.22 692.8 84.74 653.86Z" fill="url(#paint16_linear_1816_15440)"/>
<path d="M51.9102 627.81C51.9102 627.81 81.9502 626.57 93.3302 656.13C104.71 685.68 96.9502 607.35 51.9102 627.81Z" fill="url(#paint17_linear_1816_15440)"/>
<path d="M46.04 645.94C46.04 645.94 76.08 644.7 87.46 674.26C98.84 703.81 91.08 625.48 46.04 645.94Z" fill="url(#paint18_linear_1816_15440)"/>
<path d="M38.6396 641.78C38.6396 641.78 68.6796 640.54 80.0596 670.1C91.4396 699.66 83.6796 621.32 38.6396 641.78Z" fill="url(#paint19_linear_1816_15440)"/>
<path d="M54.5003 662.56C54.5003 662.56 52.9803 632.54 82.4203 620.87C111.86 609.21 33.6103 617.72 54.5003 662.56Z" fill="url(#paint20_linear_1816_15440)"/>
<path d="M74.96 635.67C74.96 635.67 105 634.43 116.38 663.99C127.76 693.54 120 615.21 74.96 635.67Z" fill="url(#paint21_linear_1816_15440)"/>
<path d="M126.61 623.64C126.61 623.64 128.79 653.62 99.6101 665.93C70.4301 678.24 148.48 668.01 126.61 623.64Z" fill="url(#paint22_linear_1816_15440)"/>
<path d="M114.55 679.31C114.55 679.31 86.9203 667.47 89.4003 635.89C91.8803 604.32 65.0903 678.34 114.55 679.31Z" fill="url(#paint23_linear_1816_15440)"/>
<path d="M106.72 631.4C106.72 631.4 108.9 661.38 79.7195 673.69C50.5395 686 128.59 675.77 106.72 631.4Z" fill="url(#paint24_linear_1816_15440)"/>
<path d="M110.79 616.49C110.79 616.49 113.9 646.39 85.1095 659.59C56.3195 672.79 134.02 660.16 110.79 616.49Z" fill="url(#paint25_linear_1816_15440)"/>
<path d="M150.33 650.83C150.33 650.83 124.25 665.78 100.52 644.82C76.7898 623.85 119.81 689.77 150.33 650.83Z" fill="url(#paint26_linear_1816_15440)"/>
<path d="M139.78 673.89C139.78 673.89 113.7 688.84 89.97 667.88C66.24 646.91 109.26 712.83 139.78 673.89Z" fill="url(#paint27_linear_1816_15440)"/>
<path d="M95.7003 675.08C95.7003 675.08 94.4103 645.04 123.94 633.61C153.47 622.17 75.1503 630.08 95.7003 675.08Z" fill="url(#paint28_linear_1816_15440)"/>
<path d="M98.1496 682.07C98.1496 682.07 103.13 652.42 134.39 647.37C165.65 642.32 87.3996 633.77 98.1496 682.07Z" fill="url(#paint29_linear_1816_15440)"/>
<path d="M117.95 644.37C117.95 644.37 91.8699 659.32 68.1399 638.36C44.4099 617.39 87.4299 683.31 117.95 644.37Z" fill="url(#paint30_linear_1816_15440)"/>
<path d="M94.9004 632.62C94.9004 632.62 124.94 631.38 136.32 660.94C147.7 690.49 139.94 612.16 94.9004 632.62Z" fill="url(#paint31_linear_1816_15440)"/>
<path d="M96.4199 643.69C96.4199 643.69 126.46 642.45 137.84 672.01C149.22 701.56 141.46 623.23 96.4199 643.69Z" fill="url(#paint32_linear_1816_15440)"/>
<path d="M66.5596 640.19C66.5596 640.19 96.5996 638.95 107.98 668.51C119.36 698.06 111.6 619.73 66.5596 640.19Z" fill="url(#paint33_linear_1816_15440)"/>
<path d="M151.86 666C151.86 666 124.92 679.35 102.5 656.98C80.0798 634.61 119.03 703.02 151.86 666Z" fill="url(#paint34_linear_1816_15440)"/>
<path d="M58.7897 671.34C58.7897 671.34 64.3797 641.8 95.7397 637.4C127.1 633 49.0397 622.84 58.7897 671.34Z" fill="url(#paint35_linear_1816_15440)"/>
<path d="M70.4304 659.49C70.4304 659.49 76.0204 629.95 107.38 625.55C138.74 621.15 60.6804 610.99 70.4304 659.49Z" fill="url(#paint36_linear_1816_15440)"/>
<path d="M70.4304 681.69C70.4304 681.69 76.0204 652.15 107.38 647.75C138.74 643.35 60.6804 633.19 70.4304 681.69Z" fill="url(#paint37_linear_1816_15440)"/>
<path d="M100.2 655.99C100.2 655.99 105.79 626.45 137.15 622.05C168.51 617.65 90.4499 607.49 100.2 655.99Z" fill="url(#paint38_linear_1816_15440)"/>
<path d="M115.84 678.46C115.84 678.46 121.43 648.92 152.79 644.52C184.15 640.12 106.09 629.96 115.84 678.46Z" fill="url(#paint39_linear_1816_15440)"/>
<path d="M108.89 664.5C108.89 664.5 114.48 634.96 145.84 630.56C177.2 626.16 99.1403 616 108.89 664.5Z" fill="url(#paint40_linear_1816_15440)"/>
<path d="M110.59 655.77C110.59 655.77 84.5096 670.72 60.7796 649.76C37.0496 628.79 80.0696 694.71 110.59 655.77Z" fill="url(#paint41_linear_1816_15440)"/>
<path d="M77.7695 629.73C77.7695 629.73 107.81 628.49 119.19 658.05C130.57 687.6 122.81 609.27 77.7695 629.73Z" fill="url(#paint42_linear_1816_15440)"/>
<path d="M71.9004 647.85C71.9004 647.85 101.94 646.61 113.32 676.17C124.7 705.72 116.94 627.39 71.9004 647.85Z" fill="url(#paint43_linear_1816_15440)"/>
<path d="M64.5 643.69C64.5 643.69 94.54 642.45 105.92 672.01C117.3 701.56 109.54 623.23 64.5 643.69Z" fill="url(#paint44_linear_1816_15440)"/>
<path d="M80.3597 664.47C80.3597 664.47 78.8397 634.45 108.28 622.78C137.72 611.12 59.4697 619.63 80.3597 664.47Z" fill="url(#paint45_linear_1816_15440)"/>
<path d="M100.82 637.59C100.82 637.59 130.86 636.35 142.24 665.91C153.62 695.46 145.86 617.13 100.82 637.59Z" fill="url(#paint46_linear_1816_15440)"/>
<path d="M152.47 625.55C152.47 625.55 154.65 655.53 125.47 667.84C96.2895 680.15 174.34 669.92 152.47 625.55Z" fill="url(#paint47_linear_1816_15440)"/>
<path d="M140.41 681.22C140.41 681.22 112.78 669.38 115.26 637.8C117.74 606.23 90.9497 680.25 140.41 681.22Z" fill="url(#paint48_linear_1816_15440)"/>
<path d="M132.58 633.31C132.58 633.31 134.76 663.29 105.58 675.6C76.3999 687.91 154.45 677.68 132.58 633.31Z" fill="url(#paint49_linear_1816_15440)"/>
<path d="M97.3501 598.33C97.3501 598.33 100.46 628.23 71.6701 641.43C42.8801 654.63 120.58 642 97.3501 598.33Z" fill="url(#paint50_linear_1816_15440)"/>
<path d="M136.88 632.67C136.88 632.67 110.8 647.62 87.0696 626.66C63.3396 605.69 106.36 671.61 136.88 632.67Z" fill="url(#paint51_linear_1816_15440)"/>
<path d="M126.34 655.73C126.34 655.73 100.26 670.68 76.5296 649.72C52.7996 628.75 95.8196 694.67 126.34 655.73Z" fill="url(#paint52_linear_1816_15440)"/>
<path d="M82.2598 656.92C82.2598 656.92 80.9698 626.88 110.5 615.45C140.03 604.01 61.7098 611.92 82.2598 656.92Z" fill="url(#paint53_linear_1816_15440)"/>
<path d="M84.7004 663.91C84.7004 663.91 89.6804 634.26 120.94 629.21C152.2 624.16 73.9504 615.61 84.7004 663.91Z" fill="url(#paint54_linear_1816_15440)"/>
<path d="M104.51 626.21C104.51 626.21 78.4295 641.16 54.6995 620.2C30.9695 599.23 73.9895 665.15 104.51 626.21Z" fill="url(#paint55_linear_1816_15440)"/>
<path d="M81.46 614.46C81.46 614.46 111.5 613.22 122.88 642.78C134.26 672.33 126.5 594 81.46 614.46Z" fill="url(#paint56_linear_1816_15440)"/>
<path d="M82.9795 625.53C82.9795 625.53 113.019 624.29 124.399 653.85C135.779 683.4 128.019 605.07 82.9795 625.53Z" fill="url(#paint57_linear_1816_15440)"/>
<path d="M53.1201 622.02C53.1201 622.02 83.1601 620.78 94.5401 650.34C105.92 679.89 98.1601 601.56 53.1201 622.02Z" fill="url(#paint58_linear_1816_15440)"/>
<path d="M138.42 647.84C138.42 647.84 111.48 661.19 89.0604 638.82C66.6404 616.45 105.59 684.86 138.42 647.84Z" fill="url(#paint59_linear_1816_15440)"/>
<path d="M45.3395 653.18C45.3395 653.18 50.9295 623.64 82.2895 619.24C113.65 614.84 35.5895 604.68 45.3395 653.18Z" fill="url(#paint60_linear_1816_15440)"/>
<path d="M56.9802 641.33C56.9802 641.33 62.5702 611.79 93.9302 607.39C125.29 602.99 47.2302 592.83 56.9802 641.33Z" fill="url(#paint61_linear_1816_15440)"/>
<path d="M56.9802 663.53C56.9802 663.53 62.5702 633.99 93.9302 629.59C125.29 625.19 47.2302 615.03 56.9802 663.53Z" fill="url(#paint62_linear_1816_15440)"/>
<path d="M86.7604 637.83C86.7604 637.83 92.3504 608.29 123.71 603.89C155.07 599.49 77.0104 589.33 86.7604 637.83Z" fill="url(#paint63_linear_1816_15440)"/>
<path d="M102.39 660.3C102.39 660.3 107.98 630.76 139.34 626.36C170.7 621.96 92.6403 611.8 102.39 660.3Z" fill="url(#paint64_linear_1816_15440)"/>
<path d="M95.4401 646.34C95.4401 646.34 101.03 616.8 132.39 612.4C163.75 608 85.6901 597.84 95.4401 646.34Z" fill="url(#paint65_linear_1816_15440)"/>
<path d="M97.1501 637.61C97.1501 637.61 71.0701 652.56 47.3401 631.6C23.6101 610.63 66.6301 676.55 97.1501 637.61Z" fill="url(#paint66_linear_1816_15440)"/>
<path d="M64.3301 611.57C64.3301 611.57 94.3701 610.33 105.75 639.89C117.13 669.44 109.37 591.11 64.3301 611.57Z" fill="url(#paint67_linear_1816_15440)"/>
<path d="M58.46 629.69C58.46 629.69 88.5 628.45 99.88 658.01C111.26 687.57 103.5 609.23 58.46 629.69Z" fill="url(#paint68_linear_1816_15440)"/>
<path d="M51.0596 625.53C51.0596 625.53 81.0996 624.29 92.4796 653.85C103.86 683.4 96.0996 605.07 51.0596 625.53Z" fill="url(#paint69_linear_1816_15440)"/>
<path d="M66.9202 646.31C66.9202 646.31 65.4002 616.29 94.8402 604.62C124.28 592.96 46.0302 601.47 66.9202 646.31Z" fill="url(#paint70_linear_1816_15440)"/>
<path d="M87.3799 619.42C87.3799 619.42 117.42 618.18 128.8 647.74C140.18 677.29 132.42 598.96 87.3799 619.42Z" fill="url(#paint71_linear_1816_15440)"/>
<path d="M139.03 607.39C139.03 607.39 141.21 637.37 112.03 649.68C82.8501 661.99 160.9 651.76 139.03 607.39Z" fill="url(#paint72_linear_1816_15440)"/>
<path d="M126.97 663.06C126.97 663.06 99.3403 651.22 101.82 619.64C104.3 588.07 77.5103 662.09 126.97 663.06Z" fill="url(#paint73_linear_1816_15440)"/>
<path d="M119.13 615.15C119.13 615.15 121.31 645.13 92.1297 657.44C62.9497 669.75 141 659.52 119.13 615.15Z" fill="url(#paint74_linear_1816_15440)"/>
<path d="M312.84 426.28C298.82 423.22 283.09 430.28 266.18 423.63C250.66 417.53 236.78 410.65 224.62 403.76C223.74 401.62 222.2 397.21 222.15 391.29C222.1 385.02 223.74 380.35 224.62 378.21C254.03 389.57 283.43 389.38 312.84 400.73V426.28Z" fill="#FF4848"/>
<path d="M325.42 426.28C339.44 423.22 355.17 430.28 372.08 423.63C387.6 417.53 401.48 410.65 413.64 403.76C414.52 401.62 416.06 397.21 416.11 391.29C416.16 385.02 414.52 380.35 413.64 378.21C384.23 389.57 354.83 389.38 325.42 400.73V426.28Z" fill="#FF4848"/>
<path d="M325.12 434.49H309.22C304.78 434.49 301.33 430.61 301.85 426.2L304.57 403.09C305.01 399.35 308.18 396.54 311.94 396.54H322.4C326.16 396.54 329.33 399.36 329.77 403.09L332.49 426.2C333.01 430.61 329.56 434.49 325.12 434.49Z" fill="#EA4949"/>
<path d="M310.13 432.98H323.64C327.61 432.98 331.06 435.71 331.98 439.57L338.9 468.63C339.48 471.06 339.18 473.62 338.06 475.85L324.32 503.16C321.18 509.39 312.23 509.23 309.32 502.89L296.94 475.95C296.02 473.95 295.75 471.72 296.15 469.57L301.72 439.98C302.48 435.93 306.02 432.99 310.14 432.99L310.13 432.98Z" fill="#FF4848"/>
<defs>
<linearGradient id="paint0_linear_1816_15440" x1="62.5826" y1="625.435" x2="76.5918" y2="654.35" gradientUnits="userSpaceOnUse">
<stop stop-color="#E2E2E2"/>
<stop offset="0.79" stop-color="#E2E2E2"/>
<stop offset="1" stop-color="#6F9A3A"/>
</linearGradient>
<linearGradient id="paint1_linear_1816_15440" x1="105.337" y1="633.044" x2="84.5767" y2="657.567" gradientUnits="userSpaceOnUse">
<stop stop-color="#E2E2E2"/>
<stop offset="0.79" stop-color="#E2E2E2"/>
<stop offset="1" stop-color="#6F9A3A"/>
</linearGradient>
<linearGradient id="paint2_linear_1816_15440" x1="94.7922" y1="656.101" x2="74.0257" y2="680.631" gradientUnits="userSpaceOnUse">
<stop stop-color="#E2E2E2"/>
<stop offset="0.79" stop-color="#E2E2E2"/>
<stop offset="1" stop-color="#6F9A3A"/>
</linearGradient>
<linearGradient id="paint3_linear_1816_15440" x1="93.0583" y1="663.766" x2="80.8197" y2="634.058" gradientUnits="userSpaceOnUse">
<stop stop-color="#E2E2E2"/>
<stop offset="0.79" stop-color="#E2E2E2"/>
<stop offset="1" stop-color="#6F9A3A"/>
</linearGradient>
<linearGradient id="paint4_linear_1816_15440" x1="97.0557" y1="675.792" x2="91.2611" y2="644.189" gradientUnits="userSpaceOnUse">
<stop stop-color="#E2E2E2"/>
<stop offset="0.79" stop-color="#E2E2E2"/>
<stop offset="1" stop-color="#6F9A3A"/>
</linearGradient>
<linearGradient id="paint5_linear_1816_15440" x1="72.961" y1="626.574" x2="52.1946" y2="651.105" gradientUnits="userSpaceOnUse">
<stop stop-color="#E2E2E2"/>
<stop offset="0.79" stop-color="#E2E2E2"/>
<stop offset="1" stop-color="#6F9A3A"/>
</linearGradient>
<linearGradient id="paint6_linear_1816_15440" x1="78.5381" y1="653.744" x2="108.279" y2="641.559" gradientUnits="userSpaceOnUse">
<stop stop-color="#E2E2E2"/>
<stop offset="0.79" stop-color="#E2E2E2"/>
</linearGradient>
<linearGradient id="paint7_linear_1816_15440" x1="80.0544" y1="664.805" x2="109.795" y2="652.619" gradientUnits="userSpaceOnUse">
<stop stop-color="#E2E2E2"/>
<stop offset="0.79" stop-color="#E2E2E2"/>
</linearGradient>
<linearGradient id="paint8_linear_1816_15440" x1="50.1983" y1="661.303" x2="79.9388" y2="649.117" gradientUnits="userSpaceOnUse">
<stop stop-color="#E2E2E2"/>
<stop offset="0.79" stop-color="#E2E2E2"/>
</linearGradient>
<linearGradient id="paint9_linear_1816_15440" x1="108.268" y1="646.767" x2="86.0548" y2="669.996" gradientUnits="userSpaceOnUse">
<stop stop-color="#E2E2E2"/>
<stop offset="0.79" stop-color="#E2E2E2"/>
</linearGradient>
<linearGradient id="paint10_linear_1816_15440" x1="57.8639" y1="665.593" x2="52.7214" y2="633.877" gradientUnits="userSpaceOnUse">
<stop stop-color="#E2E2E2"/>
<stop offset="0.79" stop-color="#E2E2E2"/>
</linearGradient>
<linearGradient id="paint11_linear_1816_15440" x1="69.4978" y1="653.748" x2="64.3552" y2="622.033" gradientUnits="userSpaceOnUse">
<stop stop-color="#E2E2E2"/>
<stop offset="0.79" stop-color="#E2E2E2"/>
</linearGradient>
<linearGradient id="paint12_linear_1816_15440" x1="69.5003" y1="675.944" x2="64.3578" y2="644.228" gradientUnits="userSpaceOnUse">
<stop stop-color="#E2E2E2"/>
<stop offset="0.79" stop-color="#E2E2E2"/>
</linearGradient>
<linearGradient id="paint13_linear_1816_15440" x1="99.2709" y1="650.248" x2="94.1267" y2="618.522" gradientUnits="userSpaceOnUse">
<stop stop-color="#E2E2E2"/>
<stop offset="0.79" stop-color="#E2E2E2"/>
</linearGradient>
<linearGradient id="paint14_linear_1816_15440" x1="114.919" y1="672.713" x2="109.775" y2="640.987" gradientUnits="userSpaceOnUse">
<stop stop-color="#E2E2E2"/>
<stop offset="0.79" stop-color="#E2E2E2"/>
</linearGradient>
<linearGradient id="paint15_linear_1816_15440" x1="107.964" y1="658.746" x2="102.821" y2="627.03" gradientUnits="userSpaceOnUse">
<stop stop-color="#E2E2E2"/>
<stop offset="0.79" stop-color="#E2E2E2"/>
</linearGradient>
<linearGradient id="paint16_linear_1816_15440" x1="65.6002" y1="637.978" x2="44.8402" y2="662.501" gradientUnits="userSpaceOnUse">
<stop stop-color="#E2E2E2"/>
<stop offset="0.79" stop-color="#E2E2E2"/>
<stop offset="1" stop-color="#6F9A3A"/>
</linearGradient>
<linearGradient id="paint17_linear_1816_15440" x1="61.409" y1="650.841" x2="91.1402" y2="638.66" gradientUnits="userSpaceOnUse">
<stop stop-color="#E2E2E2"/>
<stop offset="0.79" stop-color="#E2E2E2"/>
<stop offset="1" stop-color="#6F9A3A"/>
</linearGradient>
<linearGradient id="paint18_linear_1816_15440" x1="55.5435" y1="668.969" x2="85.2748" y2="656.787" gradientUnits="userSpaceOnUse">
<stop stop-color="#E2E2E2"/>
<stop offset="0.79" stop-color="#E2E2E2"/>
<stop offset="1" stop-color="#6F9A3A"/>
</linearGradient>
<linearGradient id="paint19_linear_1816_15440" x1="48.1323" y1="664.807" x2="77.8728" y2="652.622" gradientUnits="userSpaceOnUse">
<stop stop-color="#E2E2E2"/>
<stop offset="0.79" stop-color="#E2E2E2"/>
<stop offset="1" stop-color="#6F9A3A"/>
</linearGradient>
<linearGradient id="paint20_linear_1816_15440" x1="77.6063" y1="652.982" x2="65.1361" y2="623.36" gradientUnits="userSpaceOnUse">
<stop stop-color="#E2E2E2"/>
<stop offset="0.79" stop-color="#E2E2E2"/>
<stop offset="1" stop-color="#6F9A3A"/>
</linearGradient>
<linearGradient id="paint21_linear_1816_15440" x1="84.4587" y1="658.699" x2="114.19" y2="646.518" gradientUnits="userSpaceOnUse">
<stop stop-color="#E2E2E2"/>
<stop offset="0.79" stop-color="#E2E2E2"/>
<stop offset="1" stop-color="#6F9A3A"/>
</linearGradient>
<linearGradient id="paint22_linear_1816_15440" x1="103.866" y1="633.969" x2="116.976" y2="663.303" gradientUnits="userSpaceOnUse">
<stop stop-color="#E2E2E2"/>
<stop offset="0.79" stop-color="#E2E2E2"/>
<stop offset="1" stop-color="#6F9A3A"/>
</linearGradient>
<linearGradient id="paint23_linear_1816_15440" x1="116.164" y1="654.468" x2="84.0868" y2="652.63" gradientUnits="userSpaceOnUse">
<stop stop-color="#E2E2E2"/>
<stop offset="0.79" stop-color="#E2E2E2"/>
<stop offset="1" stop-color="#6F9A3A"/>
</linearGradient>
<linearGradient id="paint24_linear_1816_15440" x1="83.9674" y1="641.722" x2="97.0808" y2="671.065" gradientUnits="userSpaceOnUse">
<stop stop-color="#E2E2E2"/>
<stop offset="0.79" stop-color="#E2E2E2"/>
<stop offset="1" stop-color="#6F9A3A"/>
</linearGradient>
<linearGradient id="paint25_linear_1816_15440" x1="88.4448" y1="627.35" x2="102.454" y2="656.265" gradientUnits="userSpaceOnUse">
<stop stop-color="#E2E2E2"/>
<stop offset="0.79" stop-color="#E2E2E2"/>
<stop offset="1" stop-color="#6F9A3A"/>
</linearGradient>
<linearGradient id="paint26_linear_1816_15440" x1="131.194" y1="634.954" x2="110.428" y2="659.485" gradientUnits="userSpaceOnUse">
<stop stop-color="#E2E2E2"/>
<stop offset="0.79" stop-color="#E2E2E2"/>
<stop offset="1" stop-color="#6F9A3A"/>
</linearGradient>
<linearGradient id="paint27_linear_1816_15440" x1="120.651" y1="658.011" x2="99.8845" y2="682.541" gradientUnits="userSpaceOnUse">
<stop stop-color="#E2E2E2"/>
<stop offset="0.79" stop-color="#E2E2E2"/>
<stop offset="1" stop-color="#6F9A3A"/>
</linearGradient>
<linearGradient id="paint28_linear_1816_15440" x1="118.917" y1="665.68" x2="106.679" y2="635.973" gradientUnits="userSpaceOnUse">
<stop stop-color="#E2E2E2"/>
<stop offset="0.79" stop-color="#E2E2E2"/>
<stop offset="1" stop-color="#6F9A3A"/>
</linearGradient>
<linearGradient id="paint29_linear_1816_15440" x1="122.915" y1="677.71" x2="117.119" y2="646.097" gradientUnits="userSpaceOnUse">
<stop stop-color="#E2E2E2"/>
<stop offset="0.79" stop-color="#E2E2E2"/>
<stop offset="1" stop-color="#6F9A3A"/>
</linearGradient>
<linearGradient id="paint30_linear_1816_15440" x1="98.8197" y1="628.484" x2="78.0533" y2="653.014" gradientUnits="userSpaceOnUse">
<stop stop-color="#E2E2E2"/>
<stop offset="0.79" stop-color="#E2E2E2"/>
<stop offset="1" stop-color="#6F9A3A"/>
</linearGradient>
<linearGradient id="paint31_linear_1816_15440" x1="104.402" y1="655.65" x2="134.133" y2="643.469" gradientUnits="userSpaceOnUse">
<stop stop-color="#E2E2E2"/>
<stop offset="0.79" stop-color="#E2E2E2"/>
</linearGradient>
<linearGradient id="paint32_linear_1816_15440" x1="105.922" y1="666.72" x2="135.654" y2="654.539" gradientUnits="userSpaceOnUse">
<stop stop-color="#E2E2E2"/>
<stop offset="0.79" stop-color="#E2E2E2"/>
</linearGradient>
<linearGradient id="paint33_linear_1816_15440" x1="76.0652" y1="663.219" x2="105.796" y2="651.037" gradientUnits="userSpaceOnUse">
<stop stop-color="#E2E2E2"/>
<stop offset="0.79" stop-color="#E2E2E2"/>
</linearGradient>
<linearGradient id="paint34_linear_1816_15440" x1="134.127" y1="648.679" x2="111.914" y2="671.907" gradientUnits="userSpaceOnUse">
<stop stop-color="#E2E2E2"/>
<stop offset="0.79" stop-color="#E2E2E2"/>
</linearGradient>
<linearGradient id="paint35_linear_1816_15440" x1="83.7233" y1="667.509" x2="78.5792" y2="635.783" gradientUnits="userSpaceOnUse">
<stop stop-color="#E2E2E2"/>
<stop offset="0.79" stop-color="#E2E2E2"/>
</linearGradient>
<linearGradient id="paint36_linear_1816_15440" x1="95.3581" y1="655.664" x2="90.214" y2="623.939" gradientUnits="userSpaceOnUse">
<stop stop-color="#E2E2E2"/>
<stop offset="0.79" stop-color="#E2E2E2"/>
</linearGradient>
<linearGradient id="paint37_linear_1816_15440" x1="95.3607" y1="677.86" x2="90.2165" y2="646.134" gradientUnits="userSpaceOnUse">
<stop stop-color="#E2E2E2"/>
<stop offset="0.79" stop-color="#E2E2E2"/>
</linearGradient>
<linearGradient id="paint38_linear_1816_15440" x1="125.13" y1="652.154" x2="119.987" y2="620.438" gradientUnits="userSpaceOnUse">
<stop stop-color="#E2E2E2"/>
<stop offset="0.79" stop-color="#E2E2E2"/>
</linearGradient>
<linearGradient id="paint39_linear_1816_15440" x1="140.777" y1="674.619" x2="135.634" y2="642.903" gradientUnits="userSpaceOnUse">
<stop stop-color="#E2E2E2"/>
<stop offset="0.79" stop-color="#E2E2E2"/>
</linearGradient>
<linearGradient id="paint40_linear_1816_15440" x1="133.824" y1="660.662" x2="128.68" y2="628.936" gradientUnits="userSpaceOnUse">
<stop stop-color="#E2E2E2"/>
<stop offset="0.79" stop-color="#E2E2E2"/>
</linearGradient>
<linearGradient id="paint41_linear_1816_15440" x1="91.4658" y1="639.895" x2="70.6994" y2="664.425" gradientUnits="userSpaceOnUse">
<stop stop-color="#E2E2E2"/>
<stop offset="0.79" stop-color="#E2E2E2"/>
<stop offset="1" stop-color="#6F9A3A"/>
</linearGradient>
<linearGradient id="paint42_linear_1816_15440" x1="87.2667" y1="652.761" x2="117.007" y2="640.576" gradientUnits="userSpaceOnUse">
<stop stop-color="#E2E2E2"/>
<stop offset="0.79" stop-color="#E2E2E2"/>
<stop offset="1" stop-color="#6F9A3A"/>
</linearGradient>
<linearGradient id="paint43_linear_1816_15440" x1="81.3984" y1="670.879" x2="111.139" y2="658.693" gradientUnits="userSpaceOnUse">
<stop stop-color="#E2E2E2"/>
<stop offset="0.79" stop-color="#E2E2E2"/>
<stop offset="1" stop-color="#6F9A3A"/>
</linearGradient>
<linearGradient id="paint44_linear_1816_15440" x1="74.0002" y1="666.723" x2="103.731" y2="654.542" gradientUnits="userSpaceOnUse">
<stop stop-color="#E2E2E2"/>
<stop offset="0.79" stop-color="#E2E2E2"/>
<stop offset="1" stop-color="#6F9A3A"/>
</linearGradient>
<linearGradient id="paint45_linear_1816_15440" x1="103.461" y1="654.889" x2="90.995" y2="625.276" gradientUnits="userSpaceOnUse">
<stop stop-color="#E2E2E2"/>
<stop offset="0.79" stop-color="#E2E2E2"/>
<stop offset="1" stop-color="#6F9A3A"/>
</linearGradient>
<linearGradient id="paint46_linear_1816_15440" x1="110.317" y1="660.619" x2="140.058" y2="648.433" gradientUnits="userSpaceOnUse">
<stop stop-color="#E2E2E2"/>
<stop offset="0.79" stop-color="#E2E2E2"/>
<stop offset="1" stop-color="#6F9A3A"/>
</linearGradient>
<linearGradient id="paint47_linear_1816_15440" x1="129.727" y1="635.884" x2="142.837" y2="665.218" gradientUnits="userSpaceOnUse">
<stop stop-color="#E2E2E2"/>
<stop offset="0.79" stop-color="#E2E2E2"/>
<stop offset="1" stop-color="#6F9A3A"/>
</linearGradient>
<linearGradient id="paint48_linear_1816_15440" x1="142.026" y1="656.381" x2="109.939" y2="654.542" gradientUnits="userSpaceOnUse">
<stop stop-color="#E2E2E2"/>
<stop offset="0.79" stop-color="#E2E2E2"/>
<stop offset="1" stop-color="#6F9A3A"/>
</linearGradient>
<linearGradient id="paint49_linear_1816_15440" x1="109.83" y1="643.637" x2="122.943" y2="672.98" gradientUnits="userSpaceOnUse">
<stop stop-color="#E2E2E2"/>
<stop offset="0.79" stop-color="#E2E2E2"/>
<stop offset="1" stop-color="#6F9A3A"/>
</linearGradient>
<linearGradient id="paint50_linear_1816_15440" x1="74.9997" y1="609.185" x2="89.0133" y2="638.109" gradientUnits="userSpaceOnUse">
<stop stop-color="#E2E2E2"/>
<stop offset="0.79" stop-color="#E2E2E2"/>
<stop offset="1" stop-color="#6F9A3A"/>
</linearGradient>
<linearGradient id="paint51_linear_1816_15440" x1="117.758" y1="616.792" x2="96.9913" y2="641.323" gradientUnits="userSpaceOnUse">
<stop stop-color="#E2E2E2"/>
<stop offset="0.79" stop-color="#E2E2E2"/>
<stop offset="1" stop-color="#6F9A3A"/>
</linearGradient>
<linearGradient id="paint52_linear_1816_15440" x1="107.207" y1="639.857" x2="86.4475" y2="664.379" gradientUnits="userSpaceOnUse">
<stop stop-color="#E2E2E2"/>
<stop offset="0.79" stop-color="#E2E2E2"/>
<stop offset="1" stop-color="#6F9A3A"/>
</linearGradient>
<linearGradient id="paint53_linear_1816_15440" x1="105.477" y1="647.521" x2="93.2342" y2="617.804" gradientUnits="userSpaceOnUse">
<stop stop-color="#E2E2E2"/>
<stop offset="0.79" stop-color="#E2E2E2"/>
<stop offset="1" stop-color="#6F9A3A"/>
</linearGradient>
<linearGradient id="paint54_linear_1816_15440" x1="109.47" y1="659.547" x2="103.673" y2="627.934" gradientUnits="userSpaceOnUse">
<stop stop-color="#E2E2E2"/>
<stop offset="0.79" stop-color="#E2E2E2"/>
<stop offset="1" stop-color="#6F9A3A"/>
</linearGradient>
<linearGradient id="paint55_linear_1816_15440" x1="85.3763" y1="610.33" x2="64.6163" y2="634.853" gradientUnits="userSpaceOnUse">
<stop stop-color="#E2E2E2"/>
<stop offset="0.79" stop-color="#E2E2E2"/>
<stop offset="1" stop-color="#6F9A3A"/>
</linearGradient>
<linearGradient id="paint56_linear_1816_15440" x1="90.9539" y1="637.493" x2="120.694" y2="625.308" gradientUnits="userSpaceOnUse">
<stop stop-color="#E2E2E2"/>
<stop offset="0.79" stop-color="#E2E2E2"/>
</linearGradient>
<linearGradient id="paint57_linear_1816_15440" x1="92.4739" y1="648.563" x2="122.214" y2="636.378" gradientUnits="userSpaceOnUse">
<stop stop-color="#E2E2E2"/>
<stop offset="0.79" stop-color="#E2E2E2"/>
</linearGradient>
<linearGradient id="paint58_linear_1816_15440" x1="62.6141" y1="645.052" x2="92.3546" y2="632.867" gradientUnits="userSpaceOnUse">
<stop stop-color="#E2E2E2"/>
<stop offset="0.79" stop-color="#E2E2E2"/>
</linearGradient>
<linearGradient id="paint59_linear_1816_15440" x1="120.679" y1="630.519" x2="98.4731" y2="653.741" gradientUnits="userSpaceOnUse">
<stop stop-color="#E2E2E2"/>
<stop offset="0.79" stop-color="#E2E2E2"/>
</linearGradient>
<linearGradient id="paint60_linear_1816_15440" x1="70.2828" y1="649.346" x2="65.1403" y2="617.63" gradientUnits="userSpaceOnUse">
<stop stop-color="#E2E2E2"/>
<stop offset="0.79" stop-color="#E2E2E2"/>
</linearGradient>
<linearGradient id="paint61_linear_1816_15440" x1="81.9176" y1="637.501" x2="76.7735" y2="605.775" gradientUnits="userSpaceOnUse">
<stop stop-color="#E2E2E2"/>
<stop offset="0.79" stop-color="#E2E2E2"/>
</linearGradient>
<linearGradient id="paint62_linear_1816_15440" x1="81.9201" y1="659.697" x2="76.7776" y2="627.981" gradientUnits="userSpaceOnUse">
<stop stop-color="#E2E2E2"/>
<stop offset="0.79" stop-color="#E2E2E2"/>
</linearGradient>
<linearGradient id="paint63_linear_1816_15440" x1="111.69" y1="633.991" x2="106.547" y2="602.275" gradientUnits="userSpaceOnUse">
<stop stop-color="#E2E2E2"/>
<stop offset="0.79" stop-color="#E2E2E2"/>
</linearGradient>
<linearGradient id="paint64_linear_1816_15440" x1="127.329" y1="656.467" x2="122.185" y2="624.742" gradientUnits="userSpaceOnUse">
<stop stop-color="#E2E2E2"/>
<stop offset="0.79" stop-color="#E2E2E2"/>
</linearGradient>
<linearGradient id="paint65_linear_1816_15440" x1="120.383" y1="642.499" x2="115.241" y2="610.783" gradientUnits="userSpaceOnUse">
<stop stop-color="#E2E2E2"/>
<stop offset="0.79" stop-color="#E2E2E2"/>
</linearGradient>
<linearGradient id="paint66_linear_1816_15440" x1="78.0222" y1="621.726" x2="57.2557" y2="646.256" gradientUnits="userSpaceOnUse">
<stop stop-color="#E2E2E2"/>
<stop offset="0.79" stop-color="#E2E2E2"/>
<stop offset="1" stop-color="#6F9A3A"/>
</linearGradient>
<linearGradient id="paint67_linear_1816_15440" x1="73.8285" y1="634.6" x2="103.56" y2="622.419" gradientUnits="userSpaceOnUse">
<stop stop-color="#E2E2E2"/>
<stop offset="0.79" stop-color="#E2E2E2"/>
<stop offset="1" stop-color="#6F9A3A"/>
</linearGradient>
<linearGradient id="paint68_linear_1816_15440" x1="67.9593" y1="652.718" x2="97.6905" y2="640.536" gradientUnits="userSpaceOnUse">
<stop stop-color="#E2E2E2"/>
<stop offset="0.79" stop-color="#E2E2E2"/>
<stop offset="1" stop-color="#6F9A3A"/>
</linearGradient>
<linearGradient id="paint69_linear_1816_15440" x1="60.5481" y1="648.557" x2="90.2886" y2="636.372" gradientUnits="userSpaceOnUse">
<stop stop-color="#E2E2E2"/>
<stop offset="0.79" stop-color="#E2E2E2"/>
<stop offset="1" stop-color="#6F9A3A"/>
</linearGradient>
<linearGradient id="paint70_linear_1816_15440" x1="90.0144" y1="636.735" x2="77.5442" y2="607.112" gradientUnits="userSpaceOnUse">
<stop stop-color="#E2E2E2"/>
<stop offset="0.79" stop-color="#E2E2E2"/>
<stop offset="1" stop-color="#6F9A3A"/>
</linearGradient>
<linearGradient id="paint71_linear_1816_15440" x1="96.8745" y1="642.449" x2="126.606" y2="630.267" gradientUnits="userSpaceOnUse">
<stop stop-color="#E2E2E2"/>
<stop offset="0.79" stop-color="#E2E2E2"/>
<stop offset="1" stop-color="#6F9A3A"/>
</linearGradient>
<linearGradient id="paint72_linear_1816_15440" x1="116.286" y1="617.717" x2="129.399" y2="647.06" gradientUnits="userSpaceOnUse">
<stop stop-color="#E2E2E2"/>
<stop offset="0.79" stop-color="#E2E2E2"/>
<stop offset="1" stop-color="#6F9A3A"/>
</linearGradient>
<linearGradient id="paint73_linear_1816_15440" x1="128.584" y1="638.222" x2="96.4966" y2="636.384" gradientUnits="userSpaceOnUse">
<stop stop-color="#E2E2E2"/>
<stop offset="0.79" stop-color="#E2E2E2"/>
<stop offset="1" stop-color="#6F9A3A"/>
</linearGradient>
<linearGradient id="paint74_linear_1816_15440" x1="96.3915" y1="625.48" x2="109.501" y2="654.814" gradientUnits="userSpaceOnUse">
<stop stop-color="#E2E2E2"/>
<stop offset="0.79" stop-color="#E2E2E2"/>
<stop offset="1" stop-color="#6F9A3A"/>
</linearGradient>
</defs>
</svg>
