<svg width="651" height="752" viewBox="0 0 651 752" fill="none" xmlns="http://www.w3.org/2000/svg">
<path d="M288.47 707.89C276.95 713.51 265.23 713.74 257.46 713.06C250.62 713.27 239.88 712.64 229.23 707.49C222.98 704.47 219.81 701.37 218.25 699.65C216.55 697.78 213.18 694.01 211.79 688.1C211.37 686.33 211.15 684.48 211.15 682.58C211.15 669.29 222.03 658.41 235.32 658.41H280.97C294.26 658.41 305.14 669.29 305.14 682.58C305.09 685.84 304.5 693.34 299.21 699.93C298.12 701.29 295.24 704.58 288.48 707.88L288.47 707.89Z" fill="#7F7F7F"/>
<path d="M421.52 707.89C410 713.51 398.28 713.74 390.51 713.06C383.67 713.27 372.93 712.64 362.28 707.49C356.03 704.47 352.86 701.37 351.3 699.65C349.6 697.78 346.23 694.01 344.84 688.1C344.42 686.33 344.2 684.48 344.2 682.58C344.2 669.29 355.08 658.41 368.37 658.41H414.02C427.31 658.41 438.19 669.29 438.19 682.58C438.14 685.84 437.55 693.34 432.26 699.93C431.17 701.29 428.29 704.58 421.53 707.88L421.52 707.89Z" fill="#7F7F7F"/>
<path d="M441.39 675.1H207.23C191.87 675.1 179.69 661.54 180.63 645.49L191.1 467.51C193.37 428.99 223.86 398.97 260.72 398.97H387.88C424.74 398.97 455.24 428.99 457.5 467.51L467.97 645.49C468.91 661.54 456.73 675.1 441.37 675.1H441.39Z" fill="white"/>
<path d="M235.93 435.89L172.26 493.42C158.32 506.02 140.77 507.68 133.26 497.12L131.88 495.18C124.37 484.62 129.63 465.67 143.58 453.08L207.25 395.55C221.19 382.95 238.74 381.29 246.25 391.85L247.63 393.79C255.14 404.35 249.88 423.3 235.93 435.89Z" fill="white"/>
<path d="M268.5 478.82C274.36 478.82 279.11 474.07 279.11 468.21C279.11 462.35 274.36 457.6 268.5 457.6C262.64 457.6 257.89 462.35 257.89 468.21C257.89 474.07 262.64 478.82 268.5 478.82Z" fill="#E8E8E8"/>
<path d="M360.92 478.82C366.78 478.82 371.53 474.07 371.53 468.21C371.53 462.35 366.78 457.6 360.92 457.6C355.06 457.6 350.31 462.35 350.31 468.21C350.31 474.07 355.06 478.82 360.92 478.82Z" fill="#E8E8E8"/>
<path d="M268.5 516.33C274.36 516.33 279.11 511.58 279.11 505.72C279.11 499.86 274.36 495.11 268.5 495.11C262.64 495.11 257.89 499.86 257.89 505.72C257.89 511.58 262.64 516.33 268.5 516.33Z" fill="#E8E8E8"/>
<path d="M360.92 516.33C366.78 516.33 371.53 511.58 371.53 505.72C371.53 499.86 366.78 495.11 360.92 495.11C355.06 495.11 350.31 499.86 350.31 505.72C350.31 511.58 355.06 516.33 360.92 516.33Z" fill="#E8E8E8"/>
<path d="M268.5 556.93C274.36 556.93 279.11 552.18 279.11 546.32C279.11 540.46 274.36 535.71 268.5 535.71C262.64 535.71 257.89 540.46 257.89 546.32C257.89 552.18 262.64 556.93 268.5 556.93Z" fill="#E8E8E8"/>
<path d="M360.92 556.93C366.78 556.93 371.53 552.18 371.53 546.32C371.53 540.46 366.78 535.71 360.92 535.71C355.06 535.71 350.31 540.46 350.31 546.32C350.31 552.18 355.06 556.93 360.92 556.93Z" fill="#E8E8E8"/>
<path d="M467.92 590.27C428.17 597.13 377.83 602.56 321.56 602.66C263.94 602.76 213.78 597.1 173.36 590.12C173.36 585.01 174.17 580.3 174.17 575.19C215.12 581.86 264.4 586.73 321.56 586.63C377.38 586.53 426.39 581.34 466.64 574.79C466.64 579.9 467.91 585.16 467.91 590.27H467.92Z" fill="#E8E8E8"/>
<path d="M648.85 718.81C434.13 721.37 219.41 723.93 4.69 726.49C3.18 723.16 1.29 718.09 0.440002 711.67C0.280002 710.45 0 708.02 0 701.86C0 697.34 0.149988 691.08 0.799988 683.51H650C650.73 689.64 651.11 696.93 650.57 705.08C650.24 710.09 649.61 714.68 648.84 718.8L648.85 718.81Z" fill="#E5BD7F"/>
<path d="M607.83 751.34H42.8801C14.1601 751.34 -6.08998 723.16 3.08002 695.94L39.11 588.98C44.86 571.9 60.88 560.39 78.91 560.39H571.8C589.83 560.39 605.84 571.89 611.6 588.98L647.63 695.94C656.8 723.16 636.55 751.34 607.83 751.34Z" fill="#E5BD7F"/>
<path d="M607.83 724.81H42.8801C14.1601 724.81 -6.08998 696.63 3.08002 669.41L39.11 562.45C44.86 545.37 60.88 533.86 78.91 533.86H571.8C589.83 533.86 605.84 545.36 611.6 562.45L647.63 669.41C656.8 696.63 636.55 724.81 607.83 724.81Z" fill="#F4D5A4"/>
<mask id="mask0_1816_15219" style="mask-type:luminance" maskUnits="userSpaceOnUse" x="0" y="533" width="650" height="192">
<path d="M607.83 724.81H42.8801C14.1601 724.81 -6.08998 696.63 3.08002 669.41L39.11 562.45C44.86 545.37 60.88 533.86 78.91 533.86H571.8C589.83 533.86 605.84 545.36 611.6 562.45L647.63 669.41C656.8 696.63 636.55 724.81 607.83 724.81Z" fill="white"/>
</mask>
<g mask="url(#mask0_1816_15219)">
<path d="M32.6802 571.52C44.3802 571.51 56.2502 572.03 67.7402 569.42C73.4302 568.13 79.0302 565.98 83.8002 562.58C89.0102 558.87 92.9902 553.94 95.5302 548.07C98.4302 541.35 99.6002 534.09 101.81 527.14C102.51 524.93 99.0402 523.98 98.3402 526.18C96.4502 532.11 95.3702 538.28 93.2402 544.14C91.1602 549.88 87.8402 554.92 83.0202 558.71C74.2002 565.64 62.4402 567.32 51.5602 567.8C45.2702 568.07 38.9702 567.92 32.6702 567.93C30.3502 567.93 30.3502 571.53 32.6702 571.53L32.6802 571.52Z" fill="#EAC696"/>
<path d="M23.88 594.5C43.82 595.62 63.9199 591.73 82.0699 583.4C98.9499 575.65 113.95 563.88 125.61 549.44C132.07 541.45 137.53 532.7 141.8 523.35C142.75 521.26 139.65 519.43 138.69 521.53C131.31 537.7 120.35 552.1 106.75 563.54C92.28 575.71 74.8899 584.15 56.4499 588.26C45.7699 590.64 34.8 591.51 23.88 590.9C21.57 590.77 21.57 594.37 23.88 594.5Z" fill="#EAC696"/>
<path d="M6.75024 619.88C25.1102 623.44 44.0102 623.54 62.4202 620.3C80.3902 617.14 97.7002 610.71 113.41 601.43C127.32 593.22 139.99 583.09 152.32 572.71C164.65 562.33 176.85 551.41 189.86 541.69C202.47 532.26 216.01 523.81 230.87 518.43C232.74 517.75 234.64 517.12 236.54 516.54C238.75 515.86 237.81 512.39 235.58 513.07C220.39 517.73 206.41 525.49 193.47 534.63C180.35 543.91 168.21 554.47 156 564.88C143.79 575.29 131.45 585.64 117.96 594.37C103.08 604.01 86.8402 611.16 69.5402 615.18C51.5902 619.35 32.7903 620.25 14.5403 617.58C12.2403 617.24 9.96024 616.85 7.68024 616.41C5.40024 615.97 4.45028 619.44 6.72028 619.88H6.75024Z" fill="#EAC696"/>
<path d="M-5.34979 659.89C19.0702 662.17 44.1402 664.37 68.3302 658.98C80.1102 656.36 91.2202 651.72 101.42 645.28C111.62 638.84 120.64 631.21 129.84 623.66C139.04 616.11 148.35 609 158.29 602.56C168.23 596.12 178.29 590.4 188.65 584.96C209.38 574.09 230.82 564.66 252.03 554.77C273.25 544.87 294.32 534.46 314.03 521.75C316.45 520.19 318.85 518.59 321.22 516.96C323.12 515.66 321.32 512.54 319.4 513.85C300.13 527.08 279.33 537.85 258.25 547.87C237.1 557.92 215.61 567.26 194.7 577.81C174 588.25 153.92 599.96 135.68 614.34C126.32 621.72 117.39 629.63 107.74 636.63C98.0502 643.67 87.6702 649.56 76.2102 653.16C52.7502 660.51 27.6502 659.2 3.49017 657.1C0.540173 656.84 -2.39978 656.57 -5.33978 656.3C-7.63978 656.08 -7.62978 659.68 -5.33978 659.9L-5.34979 659.89Z" fill="#EAC696"/>
<path d="M74.7899 731.73C90.5199 737.18 107.69 735.26 122.99 729.35C139.19 723.1 153.07 712.76 165.7 701.03C178.79 688.88 190.63 675.46 203.84 663.43C216.44 651.96 230.39 642.11 245.11 633.57C259.83 625.03 275.38 617.71 291.13 611.14C306.92 604.55 322.99 598.65 339.07 592.8C354.74 587.1 370.44 581.48 385.9 575.23C401.36 568.98 415.5 562.66 429.7 555.15C443.84 547.67 457.48 539.22 470.14 529.42C482.57 519.81 494 508.87 503.7 496.5C506.09 493.45 508.38 490.33 510.56 487.13C511.87 485.21 508.75 483.41 507.45 485.31C498.66 498.2 488.01 509.73 476.18 519.88C464.35 530.03 451.21 538.91 437.6 546.69C423.69 554.65 409.19 561.55 394.44 567.82C379.58 574.14 364.44 579.74 349.27 585.26C333.19 591.11 317.08 596.88 301.17 603.19C285.42 609.43 269.85 616.19 254.84 624.08C239.96 631.9 225.68 640.86 212.51 651.32C198.73 662.27 186.74 675.12 174.37 687.57C162.2 699.82 149.44 711.81 134.2 720.17C119.98 727.97 103.55 732.91 87.22 730.94C83.31 730.47 79.46 729.53 75.75 728.24C73.56 727.48 72.6199 730.95 74.7899 731.71V731.73Z" fill="#EAC696"/>
<path d="M589.15 736.93C568.99 734.76 547.49 732.37 530.36 720.53C516.98 711.29 506.72 693.53 510.39 676.93C514.48 658.46 533.91 650.53 550.49 646.83C570.62 642.34 591.63 641.63 612.04 644.56C632.5 647.49 652.46 653.97 670.61 663.86C672.84 665.08 675.04 666.35 677.22 667.66C679.21 668.86 681.02 665.75 679.04 664.55C660.66 653.45 640.2 645.83 619.06 642.06C597.88 638.28 576.08 638.26 554.93 642.25C537.06 645.62 516.1 652.44 508.56 670.77C501.58 687.74 510.09 707.44 522.91 719.15C538.56 733.45 560.87 737.24 581.16 739.63C583.82 739.94 586.48 740.23 589.15 740.52C590.12 740.62 590.94 739.62 590.95 738.72C590.96 737.66 590.11 737.02 589.15 736.92V736.93Z" fill="#EAC696"/>
<path d="M622.93 736.58C607 733.64 591.64 727.99 577.64 719.84C566.11 713.13 550.59 703.41 551.33 688.09C551.97 674.96 565.67 663.03 578.73 664.24C585.73 664.89 592.23 668.77 598.37 671.87C604.02 674.72 609.76 677.36 615.68 679.62C629.21 684.8 643.39 688.07 657.76 689.85C659.95 690.12 662.15 690.35 664.35 690.56C666.55 690.77 666.64 687.17 664.35 686.96C648.9 685.54 633.6 682.36 619.02 677.04C613.06 674.87 607.28 672.3 601.61 669.47C594.97 666.15 588.16 662.06 580.72 660.89C566.5 658.66 551.9 669.59 548.44 683.3C546.61 690.55 548.44 698.05 552.67 704.12C557.08 710.45 563.34 715.02 569.73 719.18C583.77 728.33 599.47 735.01 615.81 738.77C617.85 739.24 619.91 739.66 621.97 740.04C624.23 740.46 625.2 736.99 622.93 736.57V736.58Z" fill="#EAC696"/>
<path d="M537.28 527.57C535.51 536.58 531.99 545.15 526.88 552.78C524.28 556.67 521.26 560.24 517.93 563.52C514.6 566.8 510.74 570.08 507.19 573.41C500.42 579.77 494.06 587.36 492.41 596.79C491 604.85 493.66 612.82 500.13 617.94C505.93 622.53 513.6 624.62 520.93 624.16C529.83 623.6 538.1 619.32 545.18 614.13C559.99 603.28 571.63 586.74 590.11 581.81C599.72 579.24 609.79 579.57 619.51 577.58C627.32 575.98 635.45 572.72 640.77 566.55C642.08 565.04 643.2 563.39 644.1 561.6C645.13 559.54 642.03 557.71 640.99 559.78C637.46 566.82 630.35 570.83 623.03 572.99C614.06 575.64 604.59 575.54 595.41 577.02C590.7 577.78 586.13 579.02 581.77 580.97C577.74 582.78 573.98 585.16 570.45 587.8C563.26 593.18 556.98 599.59 550.22 605.47C543.54 611.28 536.15 616.77 527.54 619.3C520.67 621.32 513.13 621.01 506.65 617.8C500.24 614.63 495.66 608.77 495.59 601.43C495.5 592.32 501.18 584.39 507.36 578.23C514 571.6 521.46 565.92 527.22 558.43C532.61 551.42 536.69 543.41 539.19 534.93C539.81 532.81 540.33 530.67 540.75 528.5C541.17 526.33 537.73 525.27 537.28 527.54V527.57Z" fill="#EAC696"/>
<path d="M363.59 615.46C370.92 617.09 378.64 616.38 385.57 613.5C392.5 610.62 399.36 605.54 402.35 598.57C403.88 595 404.07 591.04 402.18 587.57C400.55 584.56 397.39 582.26 393.87 582.44C390.35 582.62 387.36 585.03 385.08 587.68C382.55 590.63 380.31 593.73 377.47 596.41C374.14 599.55 370.42 601.99 366.44 604.22C362.46 606.45 358.94 610.18 361.13 614.83C362.11 616.92 365.22 615.1 364.24 613.01C363.64 611.74 364.46 610.24 365.35 609.34C366.56 608.11 368.19 607.37 369.68 606.53C372.75 604.81 375.64 602.78 378.31 600.48C380.98 598.18 383.29 595.67 385.43 592.94C387.22 590.65 389.07 588.01 391.71 586.64C394.17 585.37 396.82 586.17 398.45 588.33C400.33 590.81 400.33 593.96 399.22 596.77C396.89 602.71 390.85 607.14 385.24 609.72C378.83 612.66 371.44 613.49 364.55 611.96C362.29 611.46 361.33 614.93 363.59 615.43V615.46Z" fill="#EAC696"/>
<path d="M513.55 525.57C498.88 530.17 488.52 542.78 481.75 556.04C477.61 564.14 474.47 572.69 471.06 581.1C467.69 589.4 463.87 597.45 459.01 604.99C449.31 620.01 436.8 633.03 424.81 646.2C411.74 660.57 398.61 674.88 385.42 689.14C372.17 703.46 358.87 717.73 345.5 731.93C343.86 733.67 342.23 735.41 340.59 737.14C338.95 738.87 341.54 741.37 343.13 739.68C356.4 725.6 369.61 711.47 382.76 697.29C395.85 683.17 408.89 668.99 421.87 654.75C434.02 641.42 446.7 628.33 457.34 613.73C462.5 606.65 467.01 599.15 470.64 591.17C474.38 582.97 477.39 574.46 480.96 566.19C486.97 552.27 495.37 537.9 509.52 530.98C511.14 530.19 512.81 529.54 514.52 529.01C516.72 528.32 515.78 524.84 513.56 525.54L513.55 525.57Z" fill="#EAC696"/>
<path d="M219.19 740.85C225.83 728.04 233.96 716.03 243.42 705.14C252.87 694.25 263.57 684.43 275.29 676.03C281.13 671.84 287.21 668 293.51 664.53C296.4 662.94 299.31 661.47 302.51 660.61C305.22 659.88 308.29 659.46 310.98 660.52C318.15 663.34 315.01 672.71 313.19 677.99C310.27 686.46 307.35 694.93 304.42 703.4C298.55 720.42 292.68 737.44 286.81 754.46C286.08 756.58 285.35 758.7 284.62 760.81C283.89 762.92 287.34 763.95 288.09 761.77C294.2 744.04 300.32 726.32 306.43 708.59C309.46 699.8 312.49 691.02 315.52 682.23C317.85 675.49 321.73 666.6 316.49 660.21C312.13 654.9 304.39 655.9 298.68 658.06C295.39 659.3 292.32 661.03 289.27 662.78C285.98 664.66 282.75 666.65 279.58 668.73C267.06 676.97 255.52 686.72 245.3 697.69C235.04 708.7 226.07 720.95 218.75 734.1C217.84 735.73 216.96 737.37 216.11 739.02C215.05 741.07 218.15 742.9 219.22 740.84L219.19 740.85Z" fill="#EAC696"/>
<path d="M635.62 732.4C629.15 732.07 622.72 730.53 616.83 727.82C610.94 725.11 605.43 721.61 601.39 716.82C599.48 714.55 598.07 711.59 598.69 708.57C599.26 705.73 601.58 704.09 604.4 703.98C607.6 703.86 610.48 705.43 613.13 707.06C616.31 709.02 619.44 711.06 622.59 713.06C630.03 717.79 637.46 722.51 644.9 727.24C646.86 728.49 648.67 725.37 646.72 724.13C639.42 719.49 632.13 714.86 624.83 710.22C621.3 707.98 617.81 705.64 614.21 703.5C611.15 701.68 607.67 700.12 604.03 700.4C600.67 700.65 597.45 702.32 595.97 705.47C594.49 708.62 594.76 712.14 596.14 715.22C597.62 718.51 600.31 721.12 603.05 723.38C605.79 725.64 608.85 727.73 612.05 729.45C619.32 733.35 627.4 735.58 635.64 736C637.95 736.12 637.95 732.52 635.64 732.4H635.62Z" fill="#EAC696"/>
<path d="M418 727.21C424.45 708.23 435.76 691.01 450.54 677.49C452.38 675.8 454.28 674.17 456.23 672.61C458.18 671.05 460.27 669.4 462.62 668.4C464.68 667.52 467.06 667.21 469.04 668.46C470.48 669.37 471.36 670.93 471.88 672.52C473.3 676.85 472.8 681.59 472.65 686.06C472.45 692.21 472.24 698.35 472.04 704.5C471.58 718.37 471.12 732.24 470.66 746.11C470.58 748.43 474.18 748.42 474.26 746.11C474.69 732.99 475.13 719.87 475.56 706.74C475.77 700.26 475.99 693.78 476.2 687.31C476.36 682.36 476.89 677.18 475.57 672.33C474.39 667.99 471.34 664.35 466.61 664.03C461.13 663.66 456.36 667.84 452.43 671.1C444.19 677.92 436.91 685.86 430.72 694.57C423.82 704.28 418.37 714.99 414.54 726.27C413.79 728.47 417.27 729.41 418.01 727.23L418 727.21Z" fill="#EAC696"/>
<path d="M404.63 520.06C376.01 522.5 348.49 531.38 322.61 543.6C296.31 556.02 271.7 571.69 247.64 587.94C225.3 603.02 203.01 618.27 181.56 634.6C160.11 650.93 140.65 667.47 123.04 686.89C105.43 706.31 91.0499 727.24 81.0599 750.95C79.8499 753.81 78.7199 756.71 77.6499 759.63C76.8499 761.81 80.3299 762.75 81.1199 760.59C89.8299 736.76 103.53 715.06 119.97 695.82C136.41 676.58 156.21 658.92 176.53 643.01C196.85 627.1 219.05 611.81 240.82 596.94C264.58 580.7 288.69 564.79 314.35 551.68C340.01 538.57 366.33 528.76 394.41 524.81C397.81 524.33 401.22 523.96 404.63 523.67C406.92 523.47 406.94 519.87 404.63 520.07V520.06Z" fill="#EAC696"/>
</g>
<path d="M413.25 547.265L351.379 534.226C344.894 532.86 338.529 537.009 337.162 543.494L331.972 568.123C330.606 574.608 334.755 580.973 341.24 582.34L403.111 595.378C409.596 596.745 415.961 592.595 417.327 586.11L422.518 561.481C423.884 554.996 419.735 548.631 413.25 547.265Z" fill="#F2A100"/>
<path d="M151.41 542.88L130.6 495.65C126.04 485.31 133.53 473.33 147.24 469.04L149.75 468.25C163.46 463.95 178.41 468.9 182.96 479.24L203.77 526.47C208.33 536.81 200.84 548.79 187.13 553.08L184.62 553.87C170.91 558.17 155.96 553.22 151.41 542.88Z" fill="white"/>
<path d="M409.95 454.64L396.48 532.13C393.53 549.1 403.1 563.72 417.74 564.63L420.43 564.8C435.08 565.71 449.47 552.57 452.42 535.6L465.89 458.11C468.84 441.14 459.27 426.52 444.63 425.61L441.94 425.44C427.29 424.53 412.9 437.67 409.95 454.64Z" fill="white"/>
<path d="M444.13 549.99C444.68 563.99 427.81 577.45 412.14 574.26C398.18 571.42 387.15 555.76 391.59 542.65C395.72 530.45 411.45 525.73 423.2 528.49C433.04 530.8 443.7 539.19 444.13 549.98V549.99Z" fill="#FFA744"/>
<path d="M342.001 587.748L316.149 582.3C309.664 580.934 303.299 585.083 301.932 591.568L299.464 603.281C298.097 609.766 302.247 616.131 308.732 617.497L334.584 622.945C341.069 624.312 347.434 620.162 348.8 613.677L351.269 601.965C352.635 595.48 348.486 589.115 342.001 587.748Z" fill="#F2A100"/>
<path d="M338.02 615.026L297.745 606.539C296.669 606.312 295.614 607 295.387 608.076L294.492 612.322C294.265 613.398 294.954 614.453 296.029 614.68L336.304 623.167C337.38 623.394 338.435 622.706 338.662 621.63L339.557 617.384C339.784 616.308 339.095 615.253 338.02 615.026Z" fill="#D88B03"/>
<path d="M299.848 599.106L279.162 594.747C272.677 593.38 266.312 597.53 264.945 604.015L263.253 612.048C261.886 618.533 266.035 624.898 272.52 626.265L293.206 630.624C299.691 631.99 306.056 627.841 307.422 621.356L309.115 613.323C310.482 606.838 306.333 600.473 299.848 599.106Z" fill="#F2A100"/>
<path d="M296.276 622.695L256 614.207C254.925 613.981 253.87 614.669 253.643 615.744L252.748 619.991C252.521 621.066 253.209 622.122 254.285 622.348L294.56 630.836C295.636 631.062 296.691 630.374 296.918 629.299L297.813 625.052C298.039 623.977 297.351 622.921 296.276 622.695Z" fill="#D88B03"/>
<path d="M268.078 612.498L253.929 609.516C247.444 608.15 241.079 612.299 239.712 618.784L239.003 622.15C237.636 628.635 241.785 635 248.27 636.367L262.42 639.348C268.905 640.715 275.27 636.566 276.636 630.081L277.346 626.715C278.712 620.23 274.563 613.865 268.078 612.498Z" fill="#F2A100"/>
<path d="M526.76 662.91C523.47 657.26 519.8 650.96 513.48 647.56C505.2 650.32 495.49 649.48 487.86 653.93C483.28 656.6 479.82 661.11 478.43 666.22C478.43 666.14 478.41 666.05 478.41 665.97C477.5 668.95 476.91 672.43 477.46 675.86C478.86 677.85 481.51 680.93 485.72 682.39C488.86 683.48 492.67 684.28 499.43 683.27C505.31 682.39 508.23 687.31 511.1 685.55C514.07 683.73 513.45 683.01 517.58 680.27C522.77 676.84 526.04 672.73 527.21 672.7C528.98 672.66 529.88 670.16 530.85 670.46C529.59 667.78 528.09 665.2 526.75 662.9L526.76 662.91Z" fill="#F2DA9E"/>
<path d="M487.87 653.93C495.5 649.48 505.21 650.32 513.49 647.56C511.96 646.74 510.27 646.08 508.4 645.65C501.07 643.97 493.18 646.22 487.81 650.66C484.53 653.37 482.85 656.35 481.69 658.45C481.06 659.58 479.51 662.41 478.41 665.97C478.41 666.05 478.43 666.14 478.43 666.22C479.82 661.11 483.29 656.59 487.86 653.93H487.87Z" fill="#F2DA9E"/>
<g opacity="0.64">
<path d="M487.88 653.95C495.51 649.5 505.22 650.34 513.5 647.58C511.97 646.76 510.28 646.1 508.41 645.67C501.08 643.99 493.19 646.24 487.82 650.68C484.54 653.39 482.86 656.37 481.7 658.47C481.07 659.6 479.52 662.43 478.42 665.99C478.42 666.07 478.44 666.16 478.44 666.24C479.83 661.13 483.3 656.61 487.87 653.95H487.88Z" fill="white"/>
</g>
<path d="M508.4 694.08C512.88 694.29 527.68 694.969 532.33 686.289C534.89 681.509 533.36 675.799 530.86 670.479C529.7 670.739 528.01 671.209 526.11 672.109C521.97 674.079 520.33 676.449 517.95 678.289C514.43 680.999 510.75 681.409 505.15 682.039C496.78 682.979 490.27 680.999 486.81 679.909C482.77 678.639 479.6 677.07 477.46 675.87C477.54 676.38 477.65 676.88 477.79 677.38C481.06 689.53 498.8 693.63 508.4 694.08Z" fill="#E8C577"/>
<path d="M550.55 640.83C547.26 635.18 543.59 628.88 537.27 625.48C528.99 628.24 519.28 627.4 511.65 631.85C507.07 634.52 503.61 639.03 502.22 644.14C502.22 644.06 502.2 643.97 502.2 643.89C501.29 646.87 500.7 650.35 501.25 653.78C502.65 655.77 505.3 658.85 509.51 660.31C512.65 661.4 516.46 662.2 523.22 661.19C529.1 660.31 532.02 665.23 534.89 663.47C537.86 661.65 537.24 660.93 541.37 658.19C546.56 654.76 549.83 650.65 551 650.62C552.77 650.58 553.67 648.08 554.64 648.38C553.38 645.7 551.88 643.12 550.54 640.82L550.55 640.83Z" fill="#F2DA9E"/>
<path d="M511.66 631.86C519.29 627.41 529 628.25 537.28 625.49C535.75 624.67 534.06 624.01 532.19 623.58C524.86 621.9 516.97 624.15 511.6 628.59C508.32 631.3 506.64 634.28 505.48 636.38C504.85 637.51 503.3 640.34 502.2 643.9C502.2 643.98 502.22 644.07 502.22 644.15C503.61 639.04 507.08 634.52 511.65 631.86H511.66Z" fill="#F2DA9E"/>
<g opacity="0.64">
<path d="M511.67 631.87C519.3 627.42 529.01 628.26 537.29 625.5C535.76 624.68 534.07 624.02 532.2 623.59C524.87 621.91 516.98 624.16 511.61 628.6C508.33 631.31 506.65 634.29 505.49 636.39C504.86 637.52 503.31 640.35 502.21 643.91C502.21 643.99 502.23 644.08 502.23 644.16C503.62 639.05 507.09 634.53 511.66 631.87H511.67Z" fill="white"/>
</g>
<path d="M532.19 672C536.67 672.21 551.47 672.89 556.12 664.21C558.68 659.43 557.15 653.72 554.65 648.4C553.49 648.66 551.8 649.13 549.9 650.03C545.76 652 544.12 654.37 541.74 656.21C538.22 658.92 534.54 659.33 528.94 659.96C520.57 660.9 514.06 658.92 510.6 657.83C506.56 656.56 503.39 654.99 501.25 653.79C501.33 654.3 501.44 654.8 501.58 655.3C504.85 667.45 522.59 671.55 532.19 672Z" fill="#E8C577"/>
<path d="M555.55 681.74C552.49 676.48 549.07 670.6 543.18 667.44C535.47 670.01 526.41 669.23 519.31 673.37C515.05 675.86 511.82 680.06 510.52 684.83C510.52 684.75 510.51 684.67 510.5 684.59C509.65 687.36 509.1 690.61 509.62 693.81C510.93 695.67 513.39 698.53 517.32 699.9C520.25 700.92 523.8 701.66 530.09 700.72C535.57 699.9 538.29 704.48 540.97 702.85C543.74 701.16 543.16 700.48 547 697.93C551.83 694.73 554.88 690.9 555.97 690.87C557.62 690.83 558.46 688.51 559.37 688.78C558.2 686.29 556.8 683.88 555.55 681.73V681.74Z" fill="#F2DA9E"/>
<path d="M519.31 673.37C526.42 669.23 535.47 670.01 543.18 667.44C541.75 666.67 540.18 666.06 538.44 665.66C531.61 664.09 524.26 666.19 519.25 670.33C516.19 672.86 514.63 675.63 513.55 677.59C512.97 678.65 511.52 681.28 510.5 684.59C510.5 684.67 510.51 684.75 510.52 684.83C511.82 680.07 515.05 675.86 519.31 673.37Z" fill="#F2DA9E"/>
<g opacity="0.64">
<path d="M519.32 673.39C526.43 669.25 535.48 670.03 543.19 667.46C541.76 666.69 540.19 666.08 538.45 665.68C531.62 664.11 524.27 666.21 519.26 670.35C516.2 672.88 514.64 675.65 513.56 677.61C512.98 678.67 511.53 681.3 510.51 684.61C510.51 684.69 510.52 684.77 510.53 684.85C511.83 680.09 515.06 675.88 519.32 673.39Z" fill="white"/>
</g>
<path d="M538.44 710.77C542.62 710.96 556.4 711.6 560.74 703.51C563.13 699.06 561.7 693.73 559.37 688.78C558.29 689.02 556.72 689.46 554.95 690.3C551.09 692.14 549.57 694.34 547.34 696.06C544.06 698.58 540.63 698.97 535.42 699.55C527.62 700.43 521.56 698.58 518.34 697.56C514.58 696.37 511.63 694.92 509.63 693.8C509.71 694.27 509.81 694.74 509.93 695.21C512.98 706.53 529.5 710.35 538.45 710.77H538.44Z" fill="#E8C577"/>
<path d="M585.84 645.15C582.47 639.36 578.71 632.9 572.23 629.42C563.74 632.25 553.78 631.39 545.96 635.95C541.27 638.69 537.72 643.31 536.29 648.55C536.29 648.46 536.27 648.38 536.26 648.29C535.32 651.34 534.72 654.91 535.29 658.43C536.73 660.47 539.44 663.63 543.76 665.13C546.98 666.25 550.89 667.07 557.82 666.03C563.85 665.13 566.84 670.17 569.79 668.37C572.84 666.51 572.2 665.76 576.43 662.96C581.75 659.44 585.1 655.23 586.3 655.2C588.11 655.16 589.04 652.6 590.04 652.9C588.75 650.16 587.22 647.51 585.84 645.15Z" fill="#F2DA9E"/>
<path d="M545.96 635.95C553.78 631.39 563.74 632.25 572.23 629.42C570.66 628.58 568.93 627.91 567.01 627.47C559.49 625.75 551.41 628.05 545.9 632.6C542.53 635.38 540.81 638.43 539.62 640.59C538.98 641.75 537.38 644.65 536.26 648.3C536.26 648.39 536.28 648.47 536.29 648.56C537.72 643.32 541.27 638.69 545.96 635.96V635.95Z" fill="#F2DA9E"/>
<g opacity="0.64">
<path d="M545.97 635.96C553.79 631.4 563.75 632.26 572.24 629.43C570.67 628.59 568.94 627.92 567.02 627.48C559.5 625.76 551.42 628.06 545.91 632.61C542.54 635.39 540.82 638.44 539.63 640.6C538.99 641.76 537.39 644.66 536.27 648.31C536.27 648.4 536.29 648.48 536.3 648.57C537.73 643.33 541.28 638.7 545.97 635.97V635.96Z" fill="white"/>
</g>
<path d="M567.01 677.1C571.6 677.31 586.77 678.01 591.54 669.11C594.17 664.21 592.59 658.35 590.04 652.9C588.85 653.17 587.12 653.65 585.17 654.57C580.93 656.59 579.25 659.02 576.8 660.9C573.19 663.68 569.42 664.1 563.68 664.75C555.1 665.71 548.42 663.68 544.88 662.56C540.74 661.25 537.49 659.65 535.29 658.42C535.37 658.94 535.48 659.46 535.62 659.97C538.97 672.42 557.15 676.63 567 677.09L567.01 677.1Z" fill="#E8C577"/>
<path d="M584.43 668.3C581.14 662.65 577.47 656.35 571.15 652.95C562.87 655.71 553.16 654.87 545.53 659.32C540.95 661.99 537.49 666.5 536.1 671.61C536.1 671.53 536.08 671.44 536.08 671.36C535.17 674.34 534.58 677.82 535.13 681.25C536.53 683.24 539.18 686.32 543.39 687.78C546.53 688.87 550.34 689.67 557.1 688.66C562.98 687.78 565.9 692.7 568.77 690.94C571.74 689.12 571.12 688.4 575.25 685.66C580.44 682.23 583.71 678.12 584.88 678.09C586.65 678.05 587.55 675.55 588.52 675.85C587.26 673.17 585.76 670.59 584.42 668.29L584.43 668.3Z" fill="#F2DA9E"/>
<path d="M545.53 659.32C553.16 654.87 562.87 655.71 571.15 652.95C569.62 652.13 567.93 651.47 566.06 651.04C558.73 649.36 550.84 651.61 545.47 656.05C542.19 658.76 540.51 661.74 539.35 663.84C538.72 664.97 537.17 667.8 536.07 671.36C536.07 671.44 536.09 671.53 536.09 671.61C537.48 666.5 540.95 661.98 545.52 659.32H545.53Z" fill="#F2DA9E"/>
<g opacity="0.64">
<path d="M545.54 659.34C553.17 654.89 562.88 655.73 571.16 652.97C569.63 652.15 567.94 651.49 566.07 651.06C558.74 649.38 550.85 651.63 545.48 656.07C542.2 658.78 540.52 661.76 539.36 663.86C538.73 664.99 537.18 667.82 536.08 671.38C536.08 671.46 536.1 671.55 536.1 671.63C537.49 666.52 540.96 662 545.53 659.34H545.54Z" fill="white"/>
</g>
<path d="M566.06 699.47C570.54 699.68 585.34 700.36 589.99 691.68C592.55 686.9 591.02 681.19 588.52 675.87C587.36 676.13 585.67 676.6 583.77 677.5C579.63 679.47 577.99 681.84 575.61 683.68C572.09 686.39 568.41 686.8 562.81 687.43C554.44 688.37 547.93 686.39 544.47 685.3C540.43 684.03 537.26 682.46 535.12 681.26C535.2 681.77 535.31 682.27 535.45 682.77C538.72 694.92 556.46 699.02 566.06 699.47Z" fill="#E8C577"/>
<path d="M622.91 655.97C619.54 650.18 615.78 643.72 609.3 640.24C600.81 643.07 590.85 642.21 583.03 646.77C578.34 649.51 574.79 654.13 573.36 659.37C573.36 659.28 573.34 659.2 573.33 659.11C572.39 662.16 571.79 665.73 572.36 669.25C573.8 671.29 576.51 674.45 580.83 675.95C584.05 677.07 587.96 677.89 594.89 676.85C600.92 675.95 603.91 680.99 606.86 679.19C609.91 677.33 609.27 676.58 613.5 673.78C618.82 670.26 622.17 666.05 623.37 666.02C625.18 665.98 626.11 663.42 627.11 663.72C625.82 660.98 624.29 658.33 622.91 655.97Z" fill="#F2DA9E"/>
<path d="M583.03 646.76C590.85 642.2 600.81 643.06 609.3 640.23C607.73 639.39 606 638.72 604.08 638.28C596.56 636.56 588.48 638.86 582.97 643.41C579.6 646.19 577.88 649.24 576.69 651.4C576.05 652.56 574.45 655.46 573.33 659.11C573.33 659.2 573.35 659.28 573.36 659.37C574.79 654.13 578.34 649.5 583.03 646.77V646.76Z" fill="#F2DA9E"/>
<g opacity="0.64">
<path d="M583.04 646.78C590.86 642.22 600.82 643.08 609.31 640.25C607.74 639.41 606.01 638.74 604.09 638.3C596.57 636.58 588.49 638.88 582.98 643.43C579.61 646.21 577.89 649.26 576.7 651.42C576.06 652.58 574.46 655.48 573.34 659.13C573.34 659.22 573.36 659.3 573.37 659.39C574.8 654.15 578.35 649.52 583.04 646.79V646.78Z" fill="white"/>
</g>
<path d="M604.08 687.92C608.67 688.13 623.84 688.83 628.61 679.93C631.24 675.03 629.66 669.17 627.11 663.72C625.92 663.99 624.19 664.47 622.24 665.39C618 667.41 616.32 669.84 613.87 671.72C610.26 674.5 606.49 674.92 600.75 675.57C592.17 676.53 585.49 674.5 581.95 673.38C577.81 672.07 574.56 670.47 572.36 669.24C572.44 669.76 572.55 670.28 572.69 670.79C576.04 683.24 594.22 687.45 604.07 687.91L604.08 687.92Z" fill="#E8C577"/>
<path d="M83.9301 634.32C83.9301 634.32 87.0401 664.22 58.2501 677.42C29.4601 690.62 107.16 677.99 83.9301 634.32Z" fill="url(#paint0_linear_1816_15219)"/>
<path d="M123.47 668.67C123.47 668.67 97.3899 683.62 73.6599 662.66C49.9299 641.69 92.95 707.61 123.47 668.67Z" fill="url(#paint1_linear_1816_15219)"/>
<path d="M112.93 691.73C112.93 691.73 86.8499 706.68 63.1199 685.72C39.3899 664.75 82.4099 730.67 112.93 691.73Z" fill="url(#paint2_linear_1816_15219)"/>
<path d="M68.8399 692.91C68.8399 692.91 67.5499 662.87 97.0799 651.44C126.61 640 48.2899 647.91 68.8399 692.91Z" fill="url(#paint3_linear_1816_15219)"/>
<path d="M71.2898 699.91C71.2898 699.91 76.2698 670.26 107.53 665.21C138.79 660.16 60.5398 651.61 71.2898 699.91Z" fill="url(#paint4_linear_1816_15219)"/>
<path d="M91.0901 662.2C91.0901 662.2 65.0101 677.15 41.2801 656.19C17.5501 635.22 60.5701 701.14 91.0901 662.2Z" fill="url(#paint5_linear_1816_15219)"/>
<path d="M68.04 650.46C68.04 650.46 98.0801 649.22 109.46 678.78C120.84 708.33 113.08 630 68.04 650.46Z" fill="url(#paint6_linear_1816_15219)"/>
<path d="M69.5601 661.52C69.5601 661.52 99.6001 660.28 110.98 689.84C122.36 719.39 114.6 641.06 69.5601 661.52Z" fill="url(#paint7_linear_1816_15219)"/>
<path d="M39.71 658.02C39.71 658.02 69.75 656.78 81.13 686.34C92.51 715.89 84.75 637.56 39.71 658.02Z" fill="url(#paint8_linear_1816_15219)"/>
<path d="M125.01 683.83C125.01 683.83 98.0697 697.18 75.6497 674.81C53.2297 652.44 92.1798 720.85 125.01 683.83Z" fill="url(#paint9_linear_1816_15219)"/>
<path d="M31.9299 689.17C31.9299 689.17 37.52 659.63 68.88 655.23C100.24 650.83 22.1799 640.67 31.9299 689.17Z" fill="url(#paint10_linear_1816_15219)"/>
<path d="M43.57 677.33C43.57 677.33 49.16 647.79 80.52 643.39C111.88 638.99 33.82 628.83 43.57 677.33Z" fill="url(#paint11_linear_1816_15219)"/>
<path d="M43.57 699.52C43.57 699.52 49.16 669.98 80.52 665.58C111.88 661.18 33.82 651.02 43.57 699.52Z" fill="url(#paint12_linear_1816_15219)"/>
<path d="M73.34 673.82C73.34 673.82 78.93 644.28 110.29 639.88C141.65 635.48 63.59 625.32 73.34 673.82Z" fill="url(#paint13_linear_1816_15219)"/>
<path d="M88.9802 696.29C88.9802 696.29 94.5701 666.75 125.93 662.35C157.29 657.95 79.2302 647.79 88.9802 696.29Z" fill="url(#paint14_linear_1816_15219)"/>
<path d="M82.03 682.33C82.03 682.33 87.62 652.79 118.98 648.39C150.34 643.99 72.28 633.83 82.03 682.33Z" fill="url(#paint15_linear_1816_15219)"/>
<path d="M83.74 673.6C83.74 673.6 57.66 688.55 33.93 667.59C10.2 646.62 53.22 712.54 83.74 673.6Z" fill="url(#paint16_linear_1816_15219)"/>
<path d="M50.9102 647.56C50.9102 647.56 80.9502 646.32 92.3302 675.88C103.71 705.43 95.9502 627.1 50.9102 647.56Z" fill="url(#paint17_linear_1816_15219)"/>
<path d="M45.0498 665.68C45.0498 665.68 75.0898 664.44 86.4698 694C97.8498 723.55 90.0898 645.22 45.0498 665.68Z" fill="url(#paint18_linear_1816_15219)"/>
<path d="M37.6401 661.52C37.6401 661.52 67.6801 660.28 79.0601 689.84C90.4401 719.4 82.6801 641.06 37.6401 661.52Z" fill="url(#paint19_linear_1816_15219)"/>
<path d="M53.5003 682.3C53.5003 682.3 51.9802 652.28 81.4202 640.61C110.86 628.95 32.6103 637.46 53.5003 682.3Z" fill="url(#paint20_linear_1816_15219)"/>
<path d="M73.96 655.42C73.96 655.42 104 654.18 115.38 683.74C126.76 713.29 119 634.96 73.96 655.42Z" fill="url(#paint21_linear_1816_15219)"/>
<path d="M125.62 643.39C125.62 643.39 127.8 673.37 98.6199 685.68C69.4399 697.99 147.49 687.76 125.62 643.39Z" fill="url(#paint22_linear_1816_15219)"/>
<path d="M113.55 699.06C113.55 699.06 85.9198 687.22 88.3998 655.64C90.8798 624.07 64.0899 698.09 113.55 699.06Z" fill="url(#paint23_linear_1816_15219)"/>
<path d="M105.72 651.15C105.72 651.15 107.9 681.13 78.72 693.44C49.54 705.75 127.59 695.52 105.72 651.15Z" fill="url(#paint24_linear_1816_15219)"/>
<path d="M109.79 636.24C109.79 636.24 112.9 666.14 84.11 679.34C55.32 692.54 133.02 679.91 109.79 636.24Z" fill="url(#paint25_linear_1816_15219)"/>
<path d="M149.33 670.58C149.33 670.58 123.25 685.53 99.5198 664.57C75.7898 643.6 118.81 709.52 149.33 670.58Z" fill="url(#paint26_linear_1816_15219)"/>
<path d="M138.79 693.64C138.79 693.64 112.71 708.59 88.9803 687.63C65.2503 666.66 108.27 732.58 138.79 693.64Z" fill="url(#paint27_linear_1816_15219)"/>
<path d="M94.6998 694.82C94.6998 694.82 93.4098 664.78 122.94 653.35C152.47 641.91 74.1498 649.82 94.6998 694.82Z" fill="url(#paint28_linear_1816_15219)"/>
<path d="M97.1501 701.82C97.1501 701.82 102.13 672.17 133.39 667.12C164.65 662.07 86.4001 653.52 97.1501 701.82Z" fill="url(#paint29_linear_1816_15219)"/>
<path d="M116.95 664.11C116.95 664.11 90.8699 679.06 67.1399 658.1C43.4099 637.13 86.4299 703.05 116.95 664.11Z" fill="url(#paint30_linear_1816_15219)"/>
<path d="M93.8999 652.37C93.8999 652.37 123.94 651.13 135.32 680.69C146.7 710.24 138.94 631.91 93.8999 652.37Z" fill="url(#paint31_linear_1816_15219)"/>
<path d="M95.4199 663.44C95.4199 663.44 125.46 662.2 136.84 691.76C148.22 721.31 140.46 642.98 95.4199 663.44Z" fill="url(#paint32_linear_1816_15219)"/>
<path d="M65.5698 659.93C65.5698 659.93 95.6099 658.69 106.99 688.25C118.37 717.8 110.61 639.47 65.5698 659.93Z" fill="url(#paint33_linear_1816_15219)"/>
<path d="M150.86 685.75C150.86 685.75 123.92 699.1 101.5 676.73C79.0798 654.36 118.03 722.77 150.86 685.75Z" fill="url(#paint34_linear_1816_15219)"/>
<path d="M57.7897 691.09C57.7897 691.09 63.3798 661.55 94.7398 657.15C126.1 652.75 48.0397 642.59 57.7897 691.09Z" fill="url(#paint35_linear_1816_15219)"/>
<path d="M69.4299 679.24C69.4299 679.24 75.02 649.7 106.38 645.3C137.74 640.9 59.6799 630.74 69.4299 679.24Z" fill="url(#paint36_linear_1816_15219)"/>
<path d="M69.4299 701.44C69.4299 701.44 75.02 671.9 106.38 667.5C137.74 663.1 59.6799 652.94 69.4299 701.44Z" fill="url(#paint37_linear_1816_15219)"/>
<path d="M99.1999 675.74C99.1999 675.74 104.79 646.2 136.15 641.8C167.51 637.4 89.4499 627.24 99.1999 675.74Z" fill="url(#paint38_linear_1816_15219)"/>
<path d="M114.84 698.21C114.84 698.21 120.43 668.67 151.79 664.27C183.15 659.87 105.09 649.71 114.84 698.21Z" fill="url(#paint39_linear_1816_15219)"/>
<path d="M107.89 684.24C107.89 684.24 113.48 654.7 144.84 650.3C176.2 645.9 98.1398 635.74 107.89 684.24Z" fill="url(#paint40_linear_1816_15219)"/>
<path d="M109.6 675.52C109.6 675.52 83.5198 690.47 59.7898 669.51C36.0598 648.54 79.0799 714.46 109.6 675.52Z" fill="url(#paint41_linear_1816_15219)"/>
<path d="M76.77 649.47C76.77 649.47 106.81 648.23 118.19 677.79C129.57 707.34 121.81 629.01 76.77 649.47Z" fill="url(#paint42_linear_1816_15219)"/>
<path d="M70.9102 667.6C70.9102 667.6 100.95 666.36 112.33 695.92C123.71 725.47 115.95 647.14 70.9102 667.6Z" fill="url(#paint43_linear_1816_15219)"/>
<path d="M63.5 663.44C63.5 663.44 93.5399 662.2 104.92 691.76C116.3 721.31 108.54 642.98 63.5 663.44Z" fill="url(#paint44_linear_1816_15219)"/>
<path d="M79.3602 684.22C79.3602 684.22 77.8401 654.2 107.28 642.53C136.72 630.87 58.4702 639.38 79.3602 684.22Z" fill="url(#paint45_linear_1816_15219)"/>
<path d="M99.8198 657.33C99.8198 657.33 129.86 656.09 141.24 685.65C152.62 715.2 144.86 636.87 99.8198 657.33Z" fill="url(#paint46_linear_1816_15219)"/>
<path d="M151.48 645.3C151.48 645.3 153.66 675.28 124.48 687.59C95.3003 699.9 173.35 689.67 151.48 645.3Z" fill="url(#paint47_linear_1816_15219)"/>
<path d="M139.41 700.97C139.41 700.97 111.78 689.13 114.26 657.55C116.74 625.98 89.9502 700 139.41 700.97Z" fill="url(#paint48_linear_1816_15219)"/>
<path d="M131.58 653.06C131.58 653.06 133.76 683.04 104.58 695.35C75.3999 707.66 153.45 697.43 131.58 653.06Z" fill="url(#paint49_linear_1816_15219)"/>
<path d="M96.3501 618.07C96.3501 618.07 99.4601 647.97 70.6701 661.17C41.88 674.37 119.58 661.74 96.3501 618.07Z" fill="url(#paint50_linear_1816_15219)"/>
<path d="M135.88 652.42C135.88 652.42 109.8 667.37 86.0701 646.41C62.3401 625.44 105.36 691.36 135.88 652.42Z" fill="url(#paint51_linear_1816_15219)"/>
<path d="M125.34 675.48C125.34 675.48 99.2601 690.43 75.5301 669.47C51.8001 648.5 94.8201 714.42 125.34 675.48Z" fill="url(#paint52_linear_1816_15219)"/>
<path d="M81.2598 676.66C81.2598 676.66 79.9698 646.62 109.5 635.19C139.03 623.75 60.7098 631.66 81.2598 676.66Z" fill="url(#paint53_linear_1816_15219)"/>
<path d="M83.7102 683.66C83.7102 683.66 88.6902 654.01 119.95 648.96C151.21 643.91 72.9602 635.36 83.7102 683.66Z" fill="url(#paint54_linear_1816_15219)"/>
<path d="M103.51 645.95C103.51 645.95 77.43 660.9 53.7 639.94C29.97 618.97 72.99 684.89 103.51 645.95Z" fill="url(#paint55_linear_1816_15219)"/>
<path d="M80.46 634.21C80.46 634.21 110.5 632.97 121.88 662.53C133.26 692.08 125.5 613.75 80.46 634.21Z" fill="url(#paint56_linear_1816_15219)"/>
<path d="M81.98 645.28C81.98 645.28 112.02 644.04 123.4 673.6C134.78 703.15 127.02 624.82 81.98 645.28Z" fill="url(#paint57_linear_1816_15219)"/>
<path d="M52.1201 641.77C52.1201 641.77 82.16 640.53 93.54 670.09C104.92 699.64 97.1601 621.31 52.1201 641.77Z" fill="url(#paint58_linear_1816_15219)"/>
<path d="M137.42 667.58C137.42 667.58 110.48 680.93 88.0599 658.56C65.6399 636.19 104.59 704.6 137.42 667.58Z" fill="url(#paint59_linear_1816_15219)"/>
<path d="M44.3498 672.92C44.3498 672.92 49.9398 643.38 81.2998 638.98C112.66 634.58 34.5998 624.42 44.3498 672.92Z" fill="url(#paint60_linear_1816_15219)"/>
<path d="M55.9802 661.08C55.9802 661.08 61.5701 631.54 92.9301 627.14C124.29 622.74 46.2302 612.58 55.9802 661.08Z" fill="url(#paint61_linear_1816_15219)"/>
<path d="M55.9802 683.28C55.9802 683.28 61.5701 653.74 92.9301 649.34C124.29 644.94 46.2302 634.78 55.9802 683.28Z" fill="url(#paint62_linear_1816_15219)"/>
<path d="M85.76 657.57C85.76 657.57 91.3499 628.03 122.71 623.63C154.07 619.23 76.01 609.07 85.76 657.57Z" fill="url(#paint63_linear_1816_15219)"/>
<path d="M101.4 680.04C101.4 680.04 106.99 650.5 138.35 646.1C169.71 641.7 91.6501 631.54 101.4 680.04Z" fill="url(#paint64_linear_1816_15219)"/>
<path d="M94.4499 666.08C94.4499 666.08 100.04 636.54 131.4 632.14C162.76 627.74 84.6999 617.58 94.4499 666.08Z" fill="url(#paint65_linear_1816_15219)"/>
<path d="M96.1501 657.36C96.1501 657.36 70.0701 672.31 46.3401 651.35C22.6101 630.38 65.6301 696.3 96.1501 657.36Z" fill="url(#paint66_linear_1816_15219)"/>
<path d="M63.3301 631.31C63.3301 631.31 93.3701 630.07 104.75 659.63C116.13 689.18 108.37 610.85 63.3301 631.31Z" fill="url(#paint67_linear_1816_15219)"/>
<path d="M57.46 649.44C57.46 649.44 87.5 648.2 98.88 677.76C110.26 707.32 102.5 628.98 57.46 649.44Z" fill="url(#paint68_linear_1816_15219)"/>
<path d="M50.0601 645.28C50.0601 645.28 80.1001 644.04 91.4801 673.6C102.86 703.15 95.1001 624.82 50.0601 645.28Z" fill="url(#paint69_linear_1816_15219)"/>
<path d="M65.9202 666.06C65.9202 666.06 64.4002 636.04 93.8402 624.37C123.28 612.71 45.0302 621.22 65.9202 666.06Z" fill="url(#paint70_linear_1816_15219)"/>
<path d="M86.3799 639.17C86.3799 639.17 116.42 637.93 127.8 667.49C139.18 697.04 131.42 618.71 86.3799 639.17Z" fill="url(#paint71_linear_1816_15219)"/>
<path d="M138.03 627.14C138.03 627.14 140.21 657.12 111.03 669.43C81.8501 681.74 159.9 671.51 138.03 627.14Z" fill="url(#paint72_linear_1816_15219)"/>
<path d="M125.97 682.81C125.97 682.81 98.3402 670.97 100.82 639.39C103.3 607.82 76.5103 681.84 125.97 682.81Z" fill="url(#paint73_linear_1816_15219)"/>
<path d="M118.14 634.9C118.14 634.9 120.32 664.88 91.1399 677.19C61.9599 689.5 140.01 679.27 118.14 634.9Z" fill="url(#paint74_linear_1816_15219)"/>
<path d="M325.42 446.03C339.44 442.97 355.17 450.03 372.08 443.38C387.6 437.28 401.48 430.4 413.64 423.51C414.52 421.37 416.06 416.96 416.11 411.04C416.16 404.77 414.52 400.1 413.64 397.96C384.23 409.32 354.83 409.13 325.42 420.48V446.03Z" fill="#FF4848"/>
<path d="M312.83 446.03C298.81 442.97 283.08 450.03 266.17 443.38C250.65 437.28 236.77 430.4 224.61 423.51C223.73 421.37 222.19 416.96 222.14 411.04C222.09 404.77 223.73 400.1 224.61 397.96C254.02 409.32 283.42 409.13 312.83 420.48V446.03Z" fill="#FF4848"/>
<path d="M325.11 454.24H309.21C304.77 454.24 301.32 450.36 301.84 445.95L304.56 422.84C305 419.1 308.17 416.29 311.93 416.29H322.39C326.15 416.29 329.32 419.11 329.76 422.84L332.48 445.95C333 450.36 329.55 454.24 325.11 454.24Z" fill="#EA4949"/>
<path d="M310.12 452.72H323.63C327.6 452.72 331.05 455.45 331.97 459.31L338.89 488.37C339.47 490.8 339.17 493.36 338.05 495.59L324.31 522.9C321.17 529.13 312.22 528.97 309.31 522.63L296.93 495.69C296.01 493.69 295.74 491.46 296.14 489.31L301.71 459.72C302.47 455.67 306.01 452.73 310.13 452.73L310.12 452.72Z" fill="#FF4848"/>
<path d="M253.3 572L244.38 552.54L231.25 557.48L221.89 535.49L237.82 528.71L328.84 489.96C336.25 486.81 344.42 485.74 352.64 486.98C355.89 487.47 359.4 488.31 363.08 489.67C379.32 495.64 388.86 507.81 392.07 512.28C368.94 522.23 345.81 532.19 253.29 572H253.3Z" fill="#E5E5E5"/>
<mask id="mask1_1816_15219" style="mask-type:luminance" maskUnits="userSpaceOnUse" x="221" y="486" width="172" height="86">
<path d="M253.3 572L244.38 552.54L231.25 557.48L221.89 535.49L237.82 528.71L328.84 489.96C336.25 486.81 344.42 485.74 352.64 486.98C355.89 487.47 359.4 488.31 363.08 489.67C379.32 495.64 388.86 507.81 392.07 512.28C368.94 522.23 345.81 532.19 253.29 572H253.3Z" fill="white"/>
</mask>
<g mask="url(#mask1_1816_15219)">
<path opacity="0.66" d="M243.524 564.329L264.945 614.649L410.514 552.679L389.092 502.359L243.524 564.329Z" fill="white"/>
</g>
<path d="M145.465 570.397L153.796 589.968C154.934 592.641 158.023 593.885 160.696 592.747L223.658 565.944C226.331 564.806 227.576 561.716 226.438 559.044L218.106 539.473C216.968 536.8 213.879 535.556 211.206 536.694L148.244 563.497C145.571 564.635 144.327 567.725 145.465 570.397Z" fill="#878787"/>
<path d="M214.42 552.66C217.41 559.67 219.14 563.64 221.8 565.23C222.95 565.92 223.91 565.94 224.53 565.85L232.9 562.29C233.24 562.07 234.04 561.45 234.35 559.89C234.54 558.94 234.47 558 234.4 557.4C232.74 554.87 230.49 551.08 228.4 546.16C226.36 541.36 225.19 537.21 224.52 534.3C223.91 533.79 223.39 533.45 223.01 533.22C222.31 532.8 221.7 532.44 221.01 532.45C220.75 532.45 220.51 532.5 220.28 532.6L211.91 536.16C211.41 536.55 210.77 537.26 210.46 538.56C209.76 541.59 211.43 545.62 214.43 552.66H214.42Z" fill="#A5A5A5"/>
<path opacity="0.66" d="M369.23 510.86L318.9 494.67L290.05 506.74L337.41 524.98" fill="white"/>
<path opacity="0.66" d="M313.93 534.62L269.87 515.12L252.38 522.73L295.06 542.32" fill="white"/>
<path d="M160.48 560.51C164.22 574.01 184.39 581.69 198.34 573.88C210.77 566.92 216.5 548.65 208.28 537.51C200.63 527.15 184.21 527.45 173.86 533.66C165.19 538.86 157.59 550.1 160.48 560.51Z" fill="#FFA744"/>
<path d="M277.127 203.041C289.538 165.601 267.136 124.488 227.09 111.213C187.044 97.9376 144.519 117.528 132.107 154.968C119.696 192.409 142.099 233.522 182.145 246.797C222.191 260.072 264.716 240.482 277.127 203.041Z" fill="#FFA744"/>
<path d="M452.926 246.957C492.972 233.682 515.374 192.569 502.963 155.128C490.552 117.688 448.027 98.0977 407.981 111.373C367.934 124.648 345.532 165.761 357.943 203.201C370.355 240.642 412.88 260.232 452.926 246.957Z" fill="#FFA744"/>
<path d="M274.848 273.058C277.564 260.169 272.27 248.141 263.024 246.192C253.777 244.244 244.079 253.112 241.363 266.001C238.647 278.89 243.941 290.918 253.188 292.867C262.434 294.816 272.132 285.947 274.848 273.058Z" fill="#262727"/>
<path d="M387.567 292.909C396.813 290.961 402.108 278.933 399.391 266.044C396.675 253.155 386.978 244.286 377.731 246.235C368.485 248.183 363.191 260.211 365.907 273.1C368.623 285.989 378.32 294.858 387.567 292.909Z" fill="#262727"/>
<path d="M357.05 290.33C356.3 302.95 337.92 312.4 322.84 312.27C307.62 312.14 288.9 302.17 288.63 289.03C288.36 275.97 306.42 264.72 321.99 264.52C338.91 264.3 357.83 277.07 357.05 290.33Z" fill="#FAE0EB"/>
<path d="M331.03 278.85C330.86 281.94 326.29 284.21 322.6 284.21C318.91 284.21 314.34 281.94 314.17 278.85C313.99 275.67 318.53 272.6 322.6 272.6C326.67 272.6 331.21 275.67 331.03 278.85Z" fill="#ED83AC"/>
<path d="M386.68 287.07C381.84 287.98 376.26 284.52 376.28 281.42C376.3 278.47 381.39 276.27 384.52 275.61C387.69 274.94 393.2 274.92 394.38 277.57C395.65 280.42 391.75 286.11 386.68 287.07Z" fill="#F6C6DB"/>
<path d="M254.48 287.3C259.32 288.21 264.9 284.75 264.88 281.65C264.86 278.7 259.77 276.5 256.64 275.84C253.47 275.17 247.96 275.15 246.78 277.8C245.51 280.65 249.41 286.34 254.48 287.3Z" fill="#F6C6DB"/>
<path d="M389.44 263.6C389.61 264.28 390.46 267.66 388.34 270.46C388.06 270.84 386.58 272.7 383.94 273.15C380.63 273.71 378.22 271.6 377.76 271.18C375.45 269.06 375.27 266.24 375.24 265.56C375.06 261.94 377.23 256.98 381.31 256.47C385.4 255.95 388.6 260.26 389.44 263.6Z" fill="white"/>
<path d="M252.48 262.45C251.68 265.29 251.88 269.78 255.11 272.04C257.92 274.01 261.22 273.04 261.51 272.95C265.2 271.8 266.93 267.99 267.22 265.18C267.63 261.31 265.67 256.03 261.53 255.22C257.34 254.4 253.55 258.68 252.49 262.44L252.48 262.45Z" fill="white"/>
<path d="M496.53 311.82C496.53 305.89 494.22 300.31 490.14 295.43C486.86 291.5 485 286.6 485.13 281.49C485.63 261.71 482.93 227.7 460.95 197.11C419.84 139.88 344.45 140.77 316.89 141.09C290.25 141.4 217.57 142.25 175.5 198.89C153.69 228.25 149.13 260.47 148.43 279.93C148.25 285.01 146.24 289.86 142.7 293.52C137.56 298.83 134.59 305.11 134.59 311.83C134.59 317.73 136.88 323.28 140.91 328.15C143.91 331.77 145.27 336.4 145.26 341.1C145.26 341.13 145.26 341.15 145.26 341.18C145.26 356.49 160.66 369.48 182.02 374.08C184.86 374.69 187.55 375.85 189.89 377.58C226.5 404.68 279.95 416.9 321.67 416.08C361.15 415.3 411.06 402.43 445.41 376.63C447.53 375.03 449.97 373.94 452.54 373.25C472.08 368.05 485.84 355.66 485.84 341.18C485.84 341.15 485.84 341.13 485.84 341.1C485.82 336.4 487.19 331.77 490.19 328.15C494.22 323.29 496.51 317.73 496.51 311.83L496.53 311.82Z" fill="#FFA744"/>
<mask id="mask2_1816_15219" style="mask-type:luminance" maskUnits="userSpaceOnUse" x="134" y="141" width="363" height="276">
<path d="M496.53 311.82C496.53 305.89 494.22 300.31 490.14 295.43C486.86 291.5 485 286.6 485.13 281.49C485.63 261.71 482.93 227.7 460.95 197.11C419.84 139.88 344.45 140.77 316.89 141.09C290.25 141.4 217.57 142.25 175.5 198.89C153.69 228.25 149.13 260.47 148.43 279.93C148.25 285.01 146.24 289.86 142.7 293.52C137.56 298.83 134.59 305.11 134.59 311.83C134.59 317.73 136.88 323.28 140.91 328.15C143.91 331.77 145.27 336.4 145.26 341.1C145.26 341.13 145.26 341.15 145.26 341.18C145.26 356.49 160.66 369.48 182.02 374.08C184.86 374.69 187.55 375.85 189.89 377.58C226.5 404.68 279.95 416.9 321.67 416.08C361.15 415.3 411.06 402.43 445.41 376.63C447.53 375.03 449.97 373.94 452.54 373.25C472.08 368.05 485.84 355.66 485.84 341.18C485.84 341.15 485.84 341.13 485.84 341.1C485.82 336.4 487.19 331.77 490.19 328.15C494.22 323.29 496.51 317.73 496.51 311.83L496.53 311.82Z" fill="white"/>
</mask>
<g mask="url(#mask2_1816_15219)">
<path d="M125.34 285.27C143.71 267.87 168.15 258.27 193.44 258.36C201.16 258.39 201.17 246.39 193.44 246.36C164.99 246.25 137.5 257.22 116.86 276.78C111.24 282.1 119.74 290.58 125.35 285.27H125.34Z" fill="#3A3A3A"/>
<path d="M134.769 309.64C153.139 292.24 177.579 282.64 202.869 282.73C210.589 282.76 210.599 270.76 202.869 270.73C174.419 270.62 146.929 281.59 126.289 301.15C120.669 306.47 129.169 314.95 134.779 309.64H134.769Z" fill="#3A3A3A"/>
<path d="M514.28 276.79C493.64 257.23 466.15 246.26 437.7 246.37C429.98 246.4 429.96 258.4 437.7 258.37C462.99 258.27 487.43 267.87 505.8 285.28C511.4 290.59 519.91 282.12 514.29 276.79H514.28Z" fill="#3A3A3A"/>
<path d="M504.85 301.15C484.21 281.59 456.72 270.62 428.27 270.73C420.55 270.76 420.53 282.76 428.27 282.73C453.56 282.63 478 292.23 496.37 309.64C501.97 314.95 510.48 306.48 504.86 301.15H504.85Z" fill="#3A3A3A"/>
<path d="M314.31 125.67C315.05 162.3 315.78 198.93 316.52 235.57C316.68 243.28 328.68 243.31 328.52 235.57C327.78 198.94 327.05 162.31 326.31 125.67C326.15 117.96 314.15 117.93 314.31 125.67Z" fill="#3A3A3A"/>
<path d="M287.089 169.17C311.449 161.73 337.229 161.49 361.709 168.53C369.139 170.67 372.319 159.09 364.899 156.96C338.459 149.35 310.219 149.56 283.899 157.6C276.539 159.85 279.679 171.44 287.089 169.17Z" fill="#3A3A3A"/>
<path d="M287.089 195.16C311.089 185.25 337.559 185 361.709 194.52C368.899 197.35 372.009 185.75 364.899 182.95C339.039 172.75 309.599 172.97 283.899 183.59C276.859 186.5 279.949 198.11 287.089 195.16Z" fill="#3A3A3A"/>
<path d="M287.09 221.99C311.09 212.15 337.54 211.9 361.71 221.35C368.9 224.16 372.02 212.57 364.9 209.78C339.02 199.66 309.62 199.87 283.9 210.42C276.85 213.31 279.94 224.92 287.09 221.99Z" fill="#3A3A3A"/>
</g>
<path d="M221.22 169.68C223.55 168.71 225.28 166.58 225.44 164.06C225.56 162.19 224.93 160.28 223.5 158.82C219.67 154.91 214.64 151.86 208.77 150.25C192.75 145.85 176.6 153.81 172.68 168.03C169.99 177.83 173.8 188.04 181.66 194.89C182.49 195.61 183.46 196.09 184.47 196.34C187.12 196.98 189.87 195.77 191.44 193.54C194.3 189.48 198.58 184.32 204.73 179.42C210.78 174.59 216.67 171.57 221.21 169.68H221.22Z" fill="white"/>
<path d="M408.8 169.68C406.47 168.71 404.74 166.58 404.58 164.06C404.46 162.19 405.09 160.28 406.52 158.82C410.35 154.91 415.38 151.86 421.25 150.25C437.27 145.85 453.42 153.81 457.34 168.03C460.03 177.83 456.22 188.04 448.36 194.89C447.53 195.61 446.56 196.09 445.55 196.34C442.9 196.98 440.15 195.77 438.58 193.54C435.72 189.48 431.44 184.32 425.29 179.42C419.24 174.59 413.35 171.57 408.81 169.68H408.8Z" fill="white"/>
<path d="M362.02 290.13C358.13 283.47 351.83 280.84 347.14 278.95C340.16 276.14 333.72 276.12 321.12 276.18C308.22 276.24 301.63 276.34 294.59 279.46C290.48 281.28 284.79 283.9 281.15 290.13C280.01 292.08 275.35 300.01 279.25 307.8C282.28 313.85 288.86 316.78 294.18 316.86C300.4 316.96 305.07 313.21 310.59 308.78C313.49 306.45 315.64 304.19 317.1 302.49C319.61 300.07 323.58 300.07 326.09 302.49C327.46 303.8 329.76 305.99 332.6 308.78C336.76 312.86 337.73 313.95 339.75 315.01C343.81 317.15 347.83 316.94 349.01 316.86C355.57 316.38 361.41 312.86 363.94 307.8C367.84 300 363.16 292.05 362.04 290.13H362.02Z" fill="white"/>
<path d="M316.8 287.05L309.88 277.83C306.92 273.88 309.74 268.25 314.67 268.25H328.51C333.44 268.25 336.26 273.88 333.3 277.83L326.38 287.05C323.99 290.24 319.2 290.24 316.8 287.05Z" fill="#3A3A3A"/>
<path d="M249.56 251.87C249.56 266.18 258.06 277.79 268.55 277.79C279.04 277.79 287.54 266.19 287.54 251.87C287.54 248.29 287.01 244.87 286.04 241.77L251.06 236.78C250.1 239.88 249.56 248.29 249.56 251.87Z" fill="#262727"/>
<path d="M393.25 251.87C393.25 266.18 384.75 277.79 374.26 277.79C363.77 277.79 355.27 266.19 355.27 251.87C355.27 248.29 355.8 244.87 356.77 241.77L391.75 236.78C392.71 239.88 393.25 248.29 393.25 251.87Z" fill="#262727"/>
<path d="M260.57 253.99C262.376 253.99 263.84 251.85 263.84 249.21C263.84 246.57 262.376 244.43 260.57 244.43C258.764 244.43 257.3 246.57 257.3 249.21C257.3 251.85 258.764 253.99 260.57 253.99Z" fill="white"/>
<path d="M364.91 254.6C366.716 254.6 368.18 252.46 368.18 249.82C368.18 247.18 366.716 245.04 364.91 245.04C363.104 245.04 361.64 247.18 361.64 249.82C361.64 252.46 363.104 254.6 364.91 254.6Z" fill="white"/>
<path d="M266.57 271.83C272.4 272.93 279.11 268.76 279.09 265.03C279.07 261.47 272.93 258.83 269.17 258.04C265.35 257.23 258.72 257.21 257.3 260.39C255.77 263.83 260.47 270.68 266.57 271.83Z" fill="#595959"/>
<path d="M376.76 271.83C370.93 272.93 364.22 268.76 364.24 265.03C364.26 261.47 370.4 258.83 374.16 258.04C377.98 257.23 384.61 257.21 386.03 260.39C387.56 263.83 382.86 270.68 376.76 271.83Z" fill="#595959"/>
<path d="M378.29 21.5C372.13 21.5 366.28 22.85 361.02 25.28C353.04 10.23 337.31 0 319.21 0C301.11 0 285.55 10.13 277.52 25.04C272.4 22.77 266.74 21.5 260.78 21.5C237.81 21.5 219.18 50.75 219.18 73.93C219.18 97.11 237.8 115.89 260.78 115.89C274.48 115.89 286.63 109.21 294.21 98.9C301.47 103.45 310.03 106.08 319.2 106.08C328.37 106.08 337.29 103.34 344.64 98.61C352.2 109.08 364.45 115.89 378.28 115.89C401.25 115.89 419.88 97.1 419.88 73.93C419.88 50.76 401.26 21.5 378.28 21.5H378.29Z" fill="white"/>
<path d="M378.75 150.67C370.59 145.29 349.8 142.59 319.66 142.47C288.97 142.35 267.79 145.3 259.65 150.67C257.96 132.31 256.18 122.14 254.29 101.54C267.13 95.6198 289.27 87.6398 318.18 87.4498C348.2 87.2498 371.14 95.5398 384.15 101.54C382.25 122.15 380.45 132.31 378.76 150.67H378.75Z" fill="white"/>
<g opacity="0.8">
<path d="M362.4 37.9199C363.22 44.1599 363.56 52.9499 361.33 63.1799C358.63 75.5499 353.26 84.9699 349.17 90.9099" fill="white"/>
<path d="M362.4 37.9202C367.71 56.1502 362.16 77.1902 349.17 90.9102C353.11 82.4902 356.63 74.1102 358.87 65.1602C361.18 56.2302 362.08 47.2102 362.4 37.9102V37.9202Z" fill="#DADADA"/>
</g>
<g opacity="0.8">
<path d="M276.279 38.73C275.459 44.97 275.119 53.76 277.349 63.99C280.049 76.36 285.419 85.78 289.509 91.72" fill="white"/>
<path d="M276.279 38.73C276.599 48.02 277.499 57.05 279.809 65.98C282.049 74.93 285.57 83.3 289.51 91.73C276.51 78.01 270.959 56.97 276.279 38.74V38.73Z" fill="#DADADA"/>
</g>
<g opacity="0.8">
<path d="M263.72 114.37C296.64 95.9202 339.2 95.8902 372.11 114.37C363.44 110.82 354.55 108.01 345.47 106.11C318.14 100.24 289.45 103.62 263.71 114.37H263.72Z" fill="#D7D7D7"/>
</g>
<defs>
<linearGradient id="paint0_linear_1816_15219" x1="61.5914" y1="645.176" x2="75.605" y2="674.1" gradientUnits="userSpaceOnUse">
<stop stop-color="#E2E2E2"/>
<stop offset="0.79" stop-color="#E2E2E2"/>
<stop offset="1" stop-color="#6F9A3A"/>
</linearGradient>
<linearGradient id="paint1_linear_1816_15219" x1="104.416" y1="652.799" x2="83.6495" y2="677.329" gradientUnits="userSpaceOnUse">
<stop stop-color="#E2E2E2"/>
<stop offset="0.79" stop-color="#E2E2E2"/>
<stop offset="1" stop-color="#6F9A3A"/>
</linearGradient>
<linearGradient id="paint2_linear_1816_15219" x1="93.8721" y1="675.855" x2="73.1056" y2="700.386" gradientUnits="userSpaceOnUse">
<stop stop-color="#E2E2E2"/>
<stop offset="0.79" stop-color="#E2E2E2"/>
<stop offset="1" stop-color="#6F9A3A"/>
</linearGradient>
<linearGradient id="paint3_linear_1816_15219" x1="91.982" y1="683.42" x2="79.7396" y2="653.703" gradientUnits="userSpaceOnUse">
<stop stop-color="#E2E2E2"/>
<stop offset="0.79" stop-color="#E2E2E2"/>
<stop offset="1" stop-color="#6F9A3A"/>
</linearGradient>
<linearGradient id="paint4_linear_1816_15219" x1="95.9663" y1="695.401" x2="90.17" y2="663.788" gradientUnits="userSpaceOnUse">
<stop stop-color="#E2E2E2"/>
<stop offset="0.79" stop-color="#E2E2E2"/>
<stop offset="1" stop-color="#6F9A3A"/>
</linearGradient>
<linearGradient id="paint5_linear_1816_15219" x1="72.0412" y1="646.329" x2="51.2748" y2="670.859" gradientUnits="userSpaceOnUse">
<stop stop-color="#E2E2E2"/>
<stop offset="0.79" stop-color="#E2E2E2"/>
<stop offset="1" stop-color="#6F9A3A"/>
</linearGradient>
<linearGradient id="paint6_linear_1816_15219" x1="77.5387" y1="673.388" x2="107.27" y2="661.206" gradientUnits="userSpaceOnUse">
<stop stop-color="#E2E2E2"/>
<stop offset="0.79" stop-color="#E2E2E2"/>
</linearGradient>
<linearGradient id="paint7_linear_1816_15219" x1="79.0592" y1="684.458" x2="108.79" y2="672.276" gradientUnits="userSpaceOnUse">
<stop stop-color="#E2E2E2"/>
<stop offset="0.79" stop-color="#E2E2E2"/>
</linearGradient>
<linearGradient id="paint8_linear_1816_15219" x1="49.2024" y1="680.956" x2="78.9337" y2="668.774" gradientUnits="userSpaceOnUse">
<stop stop-color="#E2E2E2"/>
<stop offset="0.79" stop-color="#E2E2E2"/>
</linearGradient>
<linearGradient id="paint9_linear_1816_15219" x1="107.179" y1="666.51" x2="84.9728" y2="689.732" gradientUnits="userSpaceOnUse">
<stop stop-color="#E2E2E2"/>
<stop offset="0.79" stop-color="#E2E2E2"/>
</linearGradient>
<linearGradient id="paint10_linear_1816_15219" x1="56.7573" y1="685.161" x2="51.6132" y2="653.435" gradientUnits="userSpaceOnUse">
<stop stop-color="#E2E2E2"/>
<stop offset="0.79" stop-color="#E2E2E2"/>
</linearGradient>
<linearGradient id="paint11_linear_1816_15219" x1="68.3916" y1="673.316" x2="63.2475" y2="641.591" gradientUnits="userSpaceOnUse">
<stop stop-color="#E2E2E2"/>
<stop offset="0.79" stop-color="#E2E2E2"/>
</linearGradient>
<linearGradient id="paint12_linear_1816_15219" x1="68.3941" y1="695.512" x2="63.25" y2="663.786" gradientUnits="userSpaceOnUse">
<stop stop-color="#E2E2E2"/>
<stop offset="0.79" stop-color="#E2E2E2"/>
</linearGradient>
<linearGradient id="paint13_linear_1816_15219" x1="98.1636" y1="669.806" x2="93.0194" y2="638.081" gradientUnits="userSpaceOnUse">
<stop stop-color="#E2E2E2"/>
<stop offset="0.79" stop-color="#E2E2E2"/>
</linearGradient>
<linearGradient id="paint14_linear_1816_15219" x1="113.811" y1="692.271" x2="108.669" y2="660.555" gradientUnits="userSpaceOnUse">
<stop stop-color="#E2E2E2"/>
<stop offset="0.79" stop-color="#E2E2E2"/>
</linearGradient>
<linearGradient id="paint15_linear_1816_15219" x1="106.857" y1="678.314" x2="101.713" y2="646.589" gradientUnits="userSpaceOnUse">
<stop stop-color="#E2E2E2"/>
<stop offset="0.79" stop-color="#E2E2E2"/>
</linearGradient>
<linearGradient id="paint16_linear_1816_15219" x1="64.6876" y1="657.739" x2="43.9276" y2="682.261" gradientUnits="userSpaceOnUse">
<stop stop-color="#E2E2E2"/>
<stop offset="0.79" stop-color="#E2E2E2"/>
<stop offset="1" stop-color="#6F9A3A"/>
</linearGradient>
<linearGradient id="paint17_linear_1816_15219" x1="60.4041" y1="670.498" x2="90.1446" y2="658.313" gradientUnits="userSpaceOnUse">
<stop stop-color="#E2E2E2"/>
<stop offset="0.79" stop-color="#E2E2E2"/>
<stop offset="1" stop-color="#6F9A3A"/>
</linearGradient>
<linearGradient id="paint18_linear_1816_15219" x1="54.5346" y1="688.616" x2="84.2751" y2="676.43" gradientUnits="userSpaceOnUse">
<stop stop-color="#E2E2E2"/>
<stop offset="0.79" stop-color="#E2E2E2"/>
<stop offset="1" stop-color="#6F9A3A"/>
</linearGradient>
<linearGradient id="paint19_linear_1816_15219" x1="47.1371" y1="684.46" x2="76.8684" y2="672.279" gradientUnits="userSpaceOnUse">
<stop stop-color="#E2E2E2"/>
<stop offset="0.79" stop-color="#E2E2E2"/>
<stop offset="1" stop-color="#6F9A3A"/>
</linearGradient>
<linearGradient id="paint20_linear_1816_15219" x1="76.5371" y1="672.64" x2="64.0668" y2="643.018" gradientUnits="userSpaceOnUse">
<stop stop-color="#E2E2E2"/>
<stop offset="0.79" stop-color="#E2E2E2"/>
<stop offset="1" stop-color="#6F9A3A"/>
</linearGradient>
<linearGradient id="paint21_linear_1816_15219" x1="83.4538" y1="678.356" x2="113.194" y2="666.17" gradientUnits="userSpaceOnUse">
<stop stop-color="#E2E2E2"/>
<stop offset="0.79" stop-color="#E2E2E2"/>
<stop offset="1" stop-color="#6F9A3A"/>
</linearGradient>
<linearGradient id="paint22_linear_1816_15219" x1="102.904" y1="653.708" x2="116.017" y2="683.051" gradientUnits="userSpaceOnUse">
<stop stop-color="#E2E2E2"/>
<stop offset="0.79" stop-color="#E2E2E2"/>
<stop offset="1" stop-color="#6F9A3A"/>
</linearGradient>
<linearGradient id="paint23_linear_1816_15219" x1="115.103" y1="674.189" x2="83.0155" y2="672.35" gradientUnits="userSpaceOnUse">
<stop stop-color="#E2E2E2"/>
<stop offset="0.79" stop-color="#E2E2E2"/>
<stop offset="1" stop-color="#6F9A3A"/>
</linearGradient>
<linearGradient id="paint24_linear_1816_15219" x1="83.01" y1="661.471" x2="96.1194" y2="690.805" gradientUnits="userSpaceOnUse">
<stop stop-color="#E2E2E2"/>
<stop offset="0.79" stop-color="#E2E2E2"/>
<stop offset="1" stop-color="#6F9A3A"/>
</linearGradient>
<linearGradient id="paint25_linear_1816_15219" x1="87.4451" y1="647.096" x2="101.459" y2="676.02" gradientUnits="userSpaceOnUse">
<stop stop-color="#E2E2E2"/>
<stop offset="0.79" stop-color="#E2E2E2"/>
<stop offset="1" stop-color="#6F9A3A"/>
</linearGradient>
<linearGradient id="paint26_linear_1816_15219" x1="130.274" y1="654.709" x2="109.508" y2="679.239" gradientUnits="userSpaceOnUse">
<stop stop-color="#E2E2E2"/>
<stop offset="0.79" stop-color="#E2E2E2"/>
<stop offset="1" stop-color="#6F9A3A"/>
</linearGradient>
<linearGradient id="paint27_linear_1816_15219" x1="119.732" y1="677.779" x2="98.972" y2="702.302" gradientUnits="userSpaceOnUse">
<stop stop-color="#E2E2E2"/>
<stop offset="0.79" stop-color="#E2E2E2"/>
<stop offset="1" stop-color="#6F9A3A"/>
</linearGradient>
<linearGradient id="paint28_linear_1816_15219" x1="117.841" y1="685.334" x2="105.598" y2="655.617" gradientUnits="userSpaceOnUse">
<stop stop-color="#E2E2E2"/>
<stop offset="0.79" stop-color="#E2E2E2"/>
<stop offset="1" stop-color="#6F9A3A"/>
</linearGradient>
<linearGradient id="paint29_linear_1816_15219" x1="121.825" y1="697.309" x2="116.03" y2="665.706" gradientUnits="userSpaceOnUse">
<stop stop-color="#E2E2E2"/>
<stop offset="0.79" stop-color="#E2E2E2"/>
<stop offset="1" stop-color="#6F9A3A"/>
</linearGradient>
<linearGradient id="paint30_linear_1816_15219" x1="97.907" y1="648.245" x2="77.1406" y2="672.775" gradientUnits="userSpaceOnUse">
<stop stop-color="#E2E2E2"/>
<stop offset="0.79" stop-color="#E2E2E2"/>
<stop offset="1" stop-color="#6F9A3A"/>
</linearGradient>
<linearGradient id="paint31_linear_1816_15219" x1="103.397" y1="675.307" x2="133.137" y2="663.121" gradientUnits="userSpaceOnUse">
<stop stop-color="#E2E2E2"/>
<stop offset="0.79" stop-color="#E2E2E2"/>
</linearGradient>
<linearGradient id="paint32_linear_1816_15219" x1="104.914" y1="686.368" x2="134.654" y2="674.183" gradientUnits="userSpaceOnUse">
<stop stop-color="#E2E2E2"/>
<stop offset="0.79" stop-color="#E2E2E2"/>
</linearGradient>
<linearGradient id="paint33_linear_1816_15219" x1="75.0568" y1="682.866" x2="104.797" y2="670.68" gradientUnits="userSpaceOnUse">
<stop stop-color="#E2E2E2"/>
<stop offset="0.79" stop-color="#E2E2E2"/>
</linearGradient>
<linearGradient id="paint34_linear_1816_15219" x1="133.038" y1="668.422" x2="110.831" y2="691.643" gradientUnits="userSpaceOnUse">
<stop stop-color="#E2E2E2"/>
<stop offset="0.79" stop-color="#E2E2E2"/>
</linearGradient>
<linearGradient id="paint35_linear_1816_15219" x1="82.6156" y1="687.067" x2="77.4731" y2="655.351" gradientUnits="userSpaceOnUse">
<stop stop-color="#E2E2E2"/>
<stop offset="0.79" stop-color="#E2E2E2"/>
</linearGradient>
<linearGradient id="paint36_linear_1816_15219" x1="94.2499" y1="675.222" x2="89.1074" y2="643.507" gradientUnits="userSpaceOnUse">
<stop stop-color="#E2E2E2"/>
<stop offset="0.79" stop-color="#E2E2E2"/>
</linearGradient>
<linearGradient id="paint37_linear_1816_15219" x1="94.2524" y1="697.418" x2="89.1099" y2="665.702" gradientUnits="userSpaceOnUse">
<stop stop-color="#E2E2E2"/>
<stop offset="0.79" stop-color="#E2E2E2"/>
</linearGradient>
<linearGradient id="paint38_linear_1816_15219" x1="124.022" y1="671.712" x2="118.879" y2="639.996" gradientUnits="userSpaceOnUse">
<stop stop-color="#E2E2E2"/>
<stop offset="0.79" stop-color="#E2E2E2"/>
</linearGradient>
<linearGradient id="paint39_linear_1816_15219" x1="139.671" y1="694.187" x2="134.527" y2="662.461" gradientUnits="userSpaceOnUse">
<stop stop-color="#E2E2E2"/>
<stop offset="0.79" stop-color="#E2E2E2"/>
</linearGradient>
<linearGradient id="paint40_linear_1816_15219" x1="132.716" y1="680.22" x2="127.573" y2="648.504" gradientUnits="userSpaceOnUse">
<stop stop-color="#E2E2E2"/>
<stop offset="0.79" stop-color="#E2E2E2"/>
</linearGradient>
<linearGradient id="paint41_linear_1816_15219" x1="90.5458" y1="659.649" x2="69.7794" y2="684.179" gradientUnits="userSpaceOnUse">
<stop stop-color="#E2E2E2"/>
<stop offset="0.79" stop-color="#E2E2E2"/>
<stop offset="1" stop-color="#6F9A3A"/>
</linearGradient>
<linearGradient id="paint42_linear_1816_15219" x1="86.2677" y1="672.405" x2="115.999" y2="660.223" gradientUnits="userSpaceOnUse">
<stop stop-color="#E2E2E2"/>
<stop offset="0.79" stop-color="#E2E2E2"/>
<stop offset="1" stop-color="#6F9A3A"/>
</linearGradient>
<linearGradient id="paint43_linear_1816_15219" x1="80.4025" y1="690.531" x2="110.134" y2="678.35" gradientUnits="userSpaceOnUse">
<stop stop-color="#E2E2E2"/>
<stop offset="0.79" stop-color="#E2E2E2"/>
<stop offset="1" stop-color="#6F9A3A"/>
</linearGradient>
<linearGradient id="paint44_linear_1816_15219" x1="72.9915" y1="686.371" x2="102.732" y2="674.186" gradientUnits="userSpaceOnUse">
<stop stop-color="#E2E2E2"/>
<stop offset="0.79" stop-color="#E2E2E2"/>
<stop offset="1" stop-color="#6F9A3A"/>
</linearGradient>
<linearGradient id="paint45_linear_1816_15219" x1="102.406" y1="674.553" x2="89.9354" y2="644.931" gradientUnits="userSpaceOnUse">
<stop stop-color="#E2E2E2"/>
<stop offset="0.79" stop-color="#E2E2E2"/>
<stop offset="1" stop-color="#6F9A3A"/>
</linearGradient>
<linearGradient id="paint46_linear_1816_15219" x1="109.317" y1="680.262" x2="139.049" y2="668.08" gradientUnits="userSpaceOnUse">
<stop stop-color="#E2E2E2"/>
<stop offset="0.79" stop-color="#E2E2E2"/>
<stop offset="1" stop-color="#6F9A3A"/>
</linearGradient>
<linearGradient id="paint47_linear_1816_15219" x1="128.766" y1="655.623" x2="141.88" y2="684.966" gradientUnits="userSpaceOnUse">
<stop stop-color="#E2E2E2"/>
<stop offset="0.79" stop-color="#E2E2E2"/>
<stop offset="1" stop-color="#6F9A3A"/>
</linearGradient>
<linearGradient id="paint48_linear_1816_15219" x1="140.956" y1="676.101" x2="108.879" y2="674.263" gradientUnits="userSpaceOnUse">
<stop stop-color="#E2E2E2"/>
<stop offset="0.79" stop-color="#E2E2E2"/>
<stop offset="1" stop-color="#6F9A3A"/>
</linearGradient>
<linearGradient id="paint49_linear_1816_15219" x1="108.872" y1="663.386" x2="121.981" y2="692.719" gradientUnits="userSpaceOnUse">
<stop stop-color="#E2E2E2"/>
<stop offset="0.79" stop-color="#E2E2E2"/>
<stop offset="1" stop-color="#6F9A3A"/>
</linearGradient>
<linearGradient id="paint50_linear_1816_15219" x1="74.0086" y1="628.926" x2="88.0221" y2="657.85" gradientUnits="userSpaceOnUse">
<stop stop-color="#E2E2E2"/>
<stop offset="0.79" stop-color="#E2E2E2"/>
<stop offset="1" stop-color="#6F9A3A"/>
</linearGradient>
<linearGradient id="paint51_linear_1816_15219" x1="116.831" y1="636.555" x2="96.0715" y2="661.077" gradientUnits="userSpaceOnUse">
<stop stop-color="#E2E2E2"/>
<stop offset="0.79" stop-color="#E2E2E2"/>
<stop offset="1" stop-color="#6F9A3A"/>
</linearGradient>
<linearGradient id="paint52_linear_1816_15219" x1="106.288" y1="659.611" x2="85.5277" y2="684.134" gradientUnits="userSpaceOnUse">
<stop stop-color="#E2E2E2"/>
<stop offset="0.79" stop-color="#E2E2E2"/>
<stop offset="1" stop-color="#6F9A3A"/>
</linearGradient>
<linearGradient id="paint53_linear_1816_15219" x1="104.4" y1="667.175" x2="92.1579" y2="637.458" gradientUnits="userSpaceOnUse">
<stop stop-color="#E2E2E2"/>
<stop offset="0.79" stop-color="#E2E2E2"/>
<stop offset="1" stop-color="#6F9A3A"/>
</linearGradient>
<linearGradient id="paint54_linear_1816_15219" x1="108.381" y1="679.156" x2="102.584" y2="647.543" gradientUnits="userSpaceOnUse">
<stop stop-color="#E2E2E2"/>
<stop offset="0.79" stop-color="#E2E2E2"/>
<stop offset="1" stop-color="#6F9A3A"/>
</linearGradient>
<linearGradient id="paint55_linear_1816_15219" x1="84.4565" y1="630.084" x2="63.6965" y2="654.607" gradientUnits="userSpaceOnUse">
<stop stop-color="#E2E2E2"/>
<stop offset="0.79" stop-color="#E2E2E2"/>
<stop offset="1" stop-color="#6F9A3A"/>
</linearGradient>
<linearGradient id="paint56_linear_1816_15219" x1="89.9544" y1="657.137" x2="119.686" y2="644.956" gradientUnits="userSpaceOnUse">
<stop stop-color="#E2E2E2"/>
<stop offset="0.79" stop-color="#E2E2E2"/>
</linearGradient>
<linearGradient id="paint57_linear_1816_15219" x1="91.475" y1="668.207" x2="121.206" y2="656.025" gradientUnits="userSpaceOnUse">
<stop stop-color="#E2E2E2"/>
<stop offset="0.79" stop-color="#E2E2E2"/>
</linearGradient>
<linearGradient id="paint58_linear_1816_15219" x1="61.6184" y1="664.705" x2="91.3496" y2="652.524" gradientUnits="userSpaceOnUse">
<stop stop-color="#E2E2E2"/>
<stop offset="0.79" stop-color="#E2E2E2"/>
</linearGradient>
<linearGradient id="paint59_linear_1816_15219" x1="119.604" y1="650.262" x2="97.3906" y2="673.491" gradientUnits="userSpaceOnUse">
<stop stop-color="#E2E2E2"/>
<stop offset="0.79" stop-color="#E2E2E2"/>
</linearGradient>
<linearGradient id="paint60_linear_1816_15219" x1="69.1753" y1="668.904" x2="64.0327" y2="637.188" gradientUnits="userSpaceOnUse">
<stop stop-color="#E2E2E2"/>
<stop offset="0.79" stop-color="#E2E2E2"/>
</linearGradient>
<linearGradient id="paint61_linear_1816_15219" x1="80.8098" y1="657.059" x2="75.6673" y2="625.344" gradientUnits="userSpaceOnUse">
<stop stop-color="#E2E2E2"/>
<stop offset="0.79" stop-color="#E2E2E2"/>
</linearGradient>
<linearGradient id="paint62_linear_1816_15219" x1="80.8124" y1="679.255" x2="75.6698" y2="647.539" gradientUnits="userSpaceOnUse">
<stop stop-color="#E2E2E2"/>
<stop offset="0.79" stop-color="#E2E2E2"/>
</linearGradient>
<linearGradient id="paint63_linear_1816_15219" x1="110.583" y1="653.559" x2="105.439" y2="621.833" gradientUnits="userSpaceOnUse">
<stop stop-color="#E2E2E2"/>
<stop offset="0.79" stop-color="#E2E2E2"/>
</linearGradient>
<linearGradient id="paint64_linear_1816_15219" x1="126.221" y1="676.026" x2="121.077" y2="644.3" gradientUnits="userSpaceOnUse">
<stop stop-color="#E2E2E2"/>
<stop offset="0.79" stop-color="#E2E2E2"/>
</linearGradient>
<linearGradient id="paint65_linear_1816_15219" x1="119.275" y1="662.057" x2="114.133" y2="630.341" gradientUnits="userSpaceOnUse">
<stop stop-color="#E2E2E2"/>
<stop offset="0.79" stop-color="#E2E2E2"/>
</linearGradient>
<linearGradient id="paint66_linear_1816_15219" x1="77.1018" y1="641.481" x2="56.3354" y2="666.011" gradientUnits="userSpaceOnUse">
<stop stop-color="#E2E2E2"/>
<stop offset="0.79" stop-color="#E2E2E2"/>
<stop offset="1" stop-color="#6F9A3A"/>
</linearGradient>
<linearGradient id="paint67_linear_1816_15219" x1="72.8199" y1="654.248" x2="102.56" y2="642.062" gradientUnits="userSpaceOnUse">
<stop stop-color="#E2E2E2"/>
<stop offset="0.79" stop-color="#E2E2E2"/>
<stop offset="1" stop-color="#6F9A3A"/>
</linearGradient>
<linearGradient id="paint68_linear_1816_15219" x1="66.9544" y1="672.374" x2="96.6949" y2="660.189" gradientUnits="userSpaceOnUse">
<stop stop-color="#E2E2E2"/>
<stop offset="0.79" stop-color="#E2E2E2"/>
<stop offset="1" stop-color="#6F9A3A"/>
</linearGradient>
<linearGradient id="paint69_linear_1816_15219" x1="59.5529" y1="668.21" x2="89.2842" y2="656.028" gradientUnits="userSpaceOnUse">
<stop stop-color="#E2E2E2"/>
<stop offset="0.79" stop-color="#E2E2E2"/>
<stop offset="1" stop-color="#6F9A3A"/>
</linearGradient>
<linearGradient id="paint70_linear_1816_15219" x1="88.9545" y1="656.389" x2="76.4881" y2="626.776" gradientUnits="userSpaceOnUse">
<stop stop-color="#E2E2E2"/>
<stop offset="0.79" stop-color="#E2E2E2"/>
<stop offset="1" stop-color="#6F9A3A"/>
</linearGradient>
<linearGradient id="paint71_linear_1816_15219" x1="95.8696" y1="662.105" x2="125.61" y2="649.92" gradientUnits="userSpaceOnUse">
<stop stop-color="#E2E2E2"/>
<stop offset="0.79" stop-color="#E2E2E2"/>
<stop offset="1" stop-color="#6F9A3A"/>
</linearGradient>
<linearGradient id="paint72_linear_1816_15219" x1="115.328" y1="637.466" x2="128.437" y2="666.8" gradientUnits="userSpaceOnUse">
<stop stop-color="#E2E2E2"/>
<stop offset="0.79" stop-color="#E2E2E2"/>
<stop offset="1" stop-color="#6F9A3A"/>
</linearGradient>
<linearGradient id="paint73_linear_1816_15219" x1="127.514" y1="657.933" x2="95.4364" y2="656.094" gradientUnits="userSpaceOnUse">
<stop stop-color="#E2E2E2"/>
<stop offset="0.79" stop-color="#E2E2E2"/>
<stop offset="1" stop-color="#6F9A3A"/>
</linearGradient>
<linearGradient id="paint74_linear_1816_15219" x1="95.4298" y1="645.219" x2="108.543" y2="674.562" gradientUnits="userSpaceOnUse">
<stop stop-color="#E2E2E2"/>
<stop offset="0.79" stop-color="#E2E2E2"/>
<stop offset="1" stop-color="#6F9A3A"/>
</linearGradient>
</defs>
</svg>
