<svg width="651" height="729" viewBox="0 0 651 729" fill="none" xmlns="http://www.w3.org/2000/svg">
<path d="M288.48 684.71C276.96 690.33 265.24 690.56 257.47 689.88C250.63 690.09 239.89 689.46 229.24 684.31C222.99 681.29 219.82 678.19 218.26 676.47C216.56 674.6 213.19 670.83 211.8 664.92C211.38 663.15 211.16 661.3 211.16 659.4C211.16 646.11 222.04 635.23 235.33 635.23H280.98C294.27 635.23 305.15 646.11 305.15 659.4C305.1 662.66 304.51 670.16 299.22 676.75C298.13 678.11 295.25 681.4 288.49 684.7L288.48 684.71Z" fill="#7F7F7F"/>
<path d="M421.52 684.71C410 690.33 398.28 690.56 390.51 689.88C383.67 690.09 372.93 689.46 362.28 684.31C356.03 681.29 352.86 678.19 351.3 676.47C349.6 674.6 346.23 670.83 344.84 664.92C344.42 663.15 344.2 661.3 344.2 659.4C344.2 646.11 355.08 635.23 368.37 635.23H414.02C427.31 635.23 438.19 646.11 438.19 659.4C438.14 662.66 437.55 670.16 432.26 676.75C431.17 678.11 428.29 681.4 421.53 684.7L421.52 684.71Z" fill="#7F7F7F"/>
<path d="M443.12 651.92H197.97C181.89 651.92 169.14 638.36 170.12 622.31L181.08 444.33C183.45 405.81 215.38 375.79 253.97 375.79H387.1C425.69 375.79 457.62 405.81 459.99 444.33L470.95 622.31C471.94 638.36 459.19 651.92 443.1 651.92H443.12Z" fill="white"/>
<path d="M312.84 422.85C298.82 419.79 283.09 426.85 266.18 420.2C250.66 414.1 236.78 407.22 224.62 400.33C223.74 398.19 222.2 393.78 222.15 387.86C222.1 381.59 223.74 376.92 224.62 374.78C254.03 386.14 283.43 385.95 312.84 397.3V422.85Z" fill="#FF4848"/>
<path d="M325.42 422.85C339.44 419.79 355.17 426.85 372.08 420.2C387.6 414.1 401.48 407.22 413.64 400.33C414.52 398.19 416.06 393.78 416.11 387.86C416.16 381.59 414.52 376.92 413.64 374.78C384.23 386.14 354.83 385.95 325.42 397.3V422.85Z" fill="#FF4848"/>
<path d="M325.12 431.06H309.22C304.78 431.06 301.33 427.18 301.85 422.77L304.57 399.66C305.01 395.92 308.18 393.11 311.94 393.11H322.4C326.16 393.11 329.33 395.93 329.77 399.66L332.49 422.77C333.01 427.18 329.56 431.06 325.12 431.06Z" fill="#EA4949"/>
<path d="M310.13 429.54H323.64C327.61 429.54 331.06 432.27 331.98 436.13L338.9 465.19C339.48 467.62 339.18 470.18 338.06 472.41L324.32 499.72C321.18 505.95 312.23 505.79 309.32 499.45L296.94 472.51C296.02 470.51 295.75 468.28 296.15 466.13L301.72 436.54C302.48 432.49 306.02 429.55 310.14 429.55L310.13 429.54Z" fill="#FF4848"/>
<path d="M268.51 455.64C274.37 455.64 279.12 450.89 279.12 445.03C279.12 439.17 274.37 434.42 268.51 434.42C262.651 434.42 257.9 439.17 257.9 445.03C257.9 450.89 262.651 455.64 268.51 455.64Z" fill="#E8E8E8"/>
<path d="M360.92 455.64C366.779 455.64 371.53 450.89 371.53 445.03C371.53 439.17 366.779 434.42 360.92 434.42C355.06 434.42 350.31 439.17 350.31 445.03C350.31 450.89 355.06 455.64 360.92 455.64Z" fill="#E8E8E8"/>
<path d="M268.51 493.15C274.37 493.15 279.12 488.4 279.12 482.54C279.12 476.68 274.37 471.93 268.51 471.93C262.651 471.93 257.9 476.68 257.9 482.54C257.9 488.4 262.651 493.15 268.51 493.15Z" fill="#E8E8E8"/>
<path d="M360.92 493.15C366.779 493.15 371.53 488.4 371.53 482.54C371.53 476.68 366.779 471.93 360.92 471.93C355.06 471.93 350.31 476.68 350.31 482.54C350.31 488.4 355.06 493.15 360.92 493.15Z" fill="#E8E8E8"/>
<path d="M268.51 533.75C274.37 533.75 279.12 529 279.12 523.14C279.12 517.28 274.37 512.53 268.51 512.53C262.651 512.53 257.9 517.28 257.9 523.14C257.9 529 262.651 533.75 268.51 533.75Z" fill="#E8E8E8"/>
<path d="M360.92 533.75C366.779 533.75 371.53 529 371.53 523.14C371.53 517.28 366.779 512.53 360.92 512.53C355.06 512.53 350.31 517.28 350.31 523.14C350.31 529 355.06 533.75 360.92 533.75Z" fill="#E8E8E8"/>
<path d="M467.92 567.08C428.17 573.94 377.83 579.37 321.56 579.47C263.94 579.57 213.78 573.91 173.36 566.93C173.36 561.82 174.17 557.11 174.17 552C215.12 558.67 264.4 563.54 321.56 563.44C377.38 563.34 426.39 558.15 466.64 551.6C466.64 556.71 467.91 561.97 467.91 567.08H467.92Z" fill="#E8E8E8"/>
<path d="M119.199 72.6199C172.889 66.7699 231.199 106.64 234.309 162.01C235.079 175.78 232.339 188.86 227.019 200.77C244.079 182.93 254.919 159.59 253.469 133.82C250.359 78.4499 192.059 38.5799 138.359 44.4299C100.789 48.5199 67.7793 74.7599 52.3193 107.43C69.6293 88.7499 93.3293 75.4399 119.189 72.6199H119.199Z" fill="#F7F7F7"/>
<path d="M45.9096 168.46C59.3796 216.97 117.23 243.66 166.56 234.09C188.86 229.77 210.77 217.77 227.02 200.77C232.34 188.85 235.08 175.78 234.31 162.01C231.2 106.64 172.9 66.7699 119.2 72.6199C93.3396 75.4399 69.6396 88.7499 52.3296 107.43C43.2596 126.61 40.2296 148.02 45.9096 168.46Z" fill="#FAE0EB"/>
<path d="M417.499 159.76C420.609 104.39 478.909 64.5199 532.609 70.3699C554.959 72.8099 575.709 83.0799 592.099 97.8799C575.149 69.7599 545.009 48.1199 511.189 44.4299C457.499 38.5799 399.189 78.4499 396.079 133.82C394.449 162.83 408.389 188.76 429.239 207.23C421.049 193.1 416.539 176.97 417.499 159.76Z" fill="#F7F7F7"/>
<path d="M603.64 168.46C610.28 144.55 605.02 119.33 592.1 97.8799C575.71 83.0799 554.96 72.7999 532.61 70.3699C478.92 64.5199 420.61 104.39 417.5 159.76C416.53 176.97 421.05 193.1 429.24 207.23C444.57 220.8 463.63 230.34 483 234.1C532.33 243.66 590.18 216.98 603.65 168.47L603.64 168.46Z" fill="#FAE0EB"/>
<path d="M484.399 267.92C485.059 300.97 466.319 325.83 460.869 332.85C419.819 385.78 344.829 385.57 320.459 385.5C263.859 385.34 165.319 364.51 147.149 301.31C136.969 265.9 156.609 233.13 165.779 217.83C194.709 169.53 254.659 132.69 320.459 134.73C403.379 137.3 483.059 201.21 484.399 267.92Z" fill="#F7F7F7"/>
<path d="M272.298 249.817C274.874 237.593 269.852 226.185 261.081 224.336C252.31 222.488 243.111 230.899 240.535 243.123C237.959 255.348 242.981 266.756 251.752 268.604C260.523 270.452 269.722 262.041 272.298 249.817Z" fill="#262727"/>
<path d="M379.229 268.621C388 266.772 393.022 255.364 390.446 243.14C387.87 230.916 378.672 222.505 369.901 224.353C361.13 226.201 356.108 237.609 358.684 249.834C361.26 262.058 370.458 270.469 379.229 268.621Z" fill="#262727"/>
<path d="M350.279 266.21C349.569 278.18 332.129 287.15 317.819 287.03C303.379 286.91 285.619 277.45 285.359 264.98C285.099 252.59 302.239 241.91 317.009 241.72C333.069 241.51 351.009 253.63 350.269 266.2L350.279 266.21Z" fill="#FAE0EB"/>
<path d="M325.59 255.31C325.42 258.24 321.09 260.39 317.59 260.39C314.09 260.39 309.76 258.23 309.59 255.31C309.42 252.29 313.72 249.38 317.59 249.38C321.45 249.38 325.76 252.29 325.59 255.31Z" fill="#ED83AC"/>
<path d="M378.39 263.12C373.8 263.99 368.5 260.7 368.52 257.76C368.54 254.96 373.37 252.88 376.34 252.25C379.35 251.61 384.58 251.6 385.7 254.11C386.91 256.82 383.2 262.22 378.39 263.12Z" fill="#F6C6DB"/>
<path d="M252.97 263.33C257.56 264.2 262.86 260.91 262.84 257.97C262.82 255.17 257.99 253.09 255.02 252.46C252.01 251.82 246.78 251.81 245.66 254.32C244.45 257.03 248.16 262.43 252.97 263.33Z" fill="#F6C6DB"/>
<path d="M381.009 240.85C381.169 241.5 381.979 244.7 379.959 247.36C379.689 247.72 378.289 249.48 375.779 249.91C372.639 250.45 370.349 248.44 369.919 248.04C367.729 246.03 367.559 243.36 367.529 242.71C367.359 239.28 369.419 234.57 373.289 234.08C377.169 233.59 380.209 237.67 381.009 240.84V240.85Z" fill="white"/>
<path d="M251.059 239.76C250.299 242.45 250.489 246.71 253.549 248.86C256.209 250.73 259.349 249.81 259.619 249.73C263.119 248.64 264.759 245.03 265.039 242.36C265.429 238.69 263.569 233.68 259.639 232.91C255.659 232.14 252.069 236.19 251.059 239.76Z" fill="white"/>
<path d="M379.6 21.5C373.44 21.5 367.59 22.85 362.33 25.28C354.35 10.23 338.62 0 320.52 0C302.42 0 286.86 10.13 278.83 25.04C273.71 22.77 268.05 21.5 262.09 21.5C239.12 21.5 220.49 50.75 220.49 73.93C220.49 97.11 239.11 115.89 262.09 115.89C275.79 115.89 287.94 109.21 295.52 98.9C302.78 103.45 311.34 106.08 320.51 106.08C329.68 106.08 338.6 103.34 345.95 98.61C353.51 109.08 365.76 115.89 379.59 115.89C402.56 115.89 421.19 97.1 421.19 73.93C421.19 50.76 402.57 21.5 379.59 21.5H379.6Z" fill="white"/>
<path d="M380.061 150.67C371.901 145.29 351.111 142.59 320.971 142.47C290.281 142.35 269.101 145.3 260.961 150.67C259.271 132.31 257.491 122.14 255.601 101.54C268.441 95.6198 290.581 87.6398 319.491 87.4498C349.511 87.2498 372.451 95.5398 385.461 101.54C383.561 122.15 381.761 132.31 380.071 150.67H380.061Z" fill="white"/>
<g opacity="0.8">
<path d="M363.71 37.9199C364.53 44.1599 364.87 52.9499 362.64 63.1799C359.94 75.5499 354.57 84.9699 350.48 90.9099" fill="white"/>
<path d="M363.71 37.9202C369.02 56.1502 363.47 77.1902 350.48 90.9102C354.42 82.4902 357.94 74.1102 360.18 65.1602C362.49 56.2302 363.39 47.2102 363.71 37.9102V37.9202Z" fill="#DADADA"/>
</g>
<g opacity="0.8">
<path d="M277.59 38.73C276.77 44.97 276.43 53.76 278.66 63.99C281.36 76.36 286.73 85.78 290.82 91.72" fill="white"/>
<path d="M277.59 38.73C277.91 48.02 278.81 57.05 281.12 65.98C283.36 74.93 286.88 83.3 290.82 91.73C277.82 78.01 272.27 56.97 277.59 38.74V38.73Z" fill="#DADADA"/>
</g>
<g opacity="0.8">
<path d="M265.02 114.37C297.94 95.9202 340.5 95.8902 373.41 114.37C364.74 110.82 355.85 108.01 346.77 106.11C319.44 100.24 290.75 103.62 265.01 114.37H265.02Z" fill="#D7D7D7"/>
</g>
<path d="M648.85 695.63C434.13 698.19 219.41 700.75 4.69 703.31C3.18 699.98 1.29 694.91 0.44 688.49C0.28 687.27 0 684.84 0 678.68C0 674.16 0.15 667.9 0.8 660.33H650C650.73 666.46 651.11 673.75 650.57 681.9C650.24 686.91 649.61 691.5 648.84 695.62L648.85 695.63Z" fill="#E5BD7F"/>
<path d="M607.83 728.16H42.88C14.16 728.16 -6.08998 699.98 3.08002 672.76L39.11 565.8C44.86 548.72 60.88 537.21 78.91 537.21H571.8C589.83 537.21 605.84 548.71 611.6 565.8L647.63 672.76C656.8 699.98 636.55 728.16 607.83 728.16Z" fill="#E5BD7F"/>
<path d="M607.83 701.63H42.88C14.16 701.63 -6.08998 673.45 3.08002 646.23L39.11 539.27C44.86 522.19 60.88 510.68 78.91 510.68H571.8C589.83 510.68 605.84 522.18 611.6 539.27L647.63 646.23C656.8 673.45 636.55 701.63 607.83 701.63Z" fill="#F4D5A4"/>
<mask id="mask0_1815_14214" style="mask-type:luminance" maskUnits="userSpaceOnUse" x="0" y="510" width="650" height="192">
<path d="M607.83 701.63H42.88C14.16 701.63 -6.08998 673.45 3.08002 646.23L39.11 539.27C44.86 522.19 60.88 510.68 78.91 510.68H571.8C589.83 510.68 605.84 522.18 611.6 539.27L647.63 646.23C656.8 673.45 636.55 701.63 607.83 701.63Z" fill="white"/>
</mask>
<g mask="url(#mask0_1815_14214)">
<path d="M32.6895 548.34C44.3895 548.33 56.2595 548.85 67.7495 546.24C73.4395 544.95 79.0395 542.8 83.8095 539.4C89.0195 535.69 92.9995 530.76 95.5395 524.89C98.4395 518.17 99.6095 510.91 101.819 503.96C102.519 501.75 99.0494 500.8 98.3494 503C96.4594 508.93 95.3795 515.1 93.2495 520.96C91.1195 526.82 87.8495 531.74 83.0295 535.53C74.2095 542.46 62.4495 544.14 51.5695 544.62C45.2795 544.89 38.9795 544.74 32.6795 544.75C30.3595 544.75 30.3595 548.35 32.6795 548.35L32.6895 548.34Z" fill="#EAC696"/>
<path d="M23.88 571.32C43.82 572.44 63.92 568.55 82.07 560.22C98.95 552.47 113.95 540.7 125.61 526.26C132.07 518.27 137.53 509.52 141.8 500.17C142.75 498.08 139.65 496.25 138.69 498.35C131.31 514.52 120.35 528.92 106.75 540.36C92.28 552.53 74.89 560.97 56.45 565.08C45.77 567.46 34.8 568.33 23.88 567.72C21.57 567.59 21.57 571.19 23.88 571.32Z" fill="#EAC696"/>
<path d="M6.74929 596.7C25.1093 600.26 44.0093 600.36 62.4193 597.12C80.8293 593.88 97.6993 587.53 113.409 578.25C127.319 570.04 139.989 559.91 152.319 549.53C164.649 539.15 176.849 528.23 189.859 518.51C202.469 509.08 216.009 500.63 230.869 495.25C232.739 494.57 234.639 493.94 236.539 493.36C238.749 492.68 237.809 489.21 235.579 489.89C220.389 494.55 206.409 502.31 193.469 511.45C180.349 520.73 168.209 531.29 155.999 541.7C143.789 552.11 131.449 562.46 117.959 571.19C103.079 580.83 86.8393 587.98 69.5393 592C51.5893 596.17 32.7893 597.07 14.5393 594.4C12.2393 594.06 9.95929 593.67 7.67929 593.23C5.39929 592.79 4.44929 596.26 6.71929 596.7H6.74929Z" fill="#EAC696"/>
<path d="M-5.35027 636.71C19.0697 638.99 44.1397 641.19 68.3297 635.8C80.1097 633.18 91.2197 628.54 101.42 622.1C111.5 615.73 120.64 608.03 129.84 600.48C138.99 592.97 148.35 585.82 158.29 579.38C168.11 573.01 178.29 567.22 188.65 561.78C209.38 550.91 230.82 541.48 252.03 531.59C273.25 521.69 294.32 511.28 314.03 498.57C316.45 497.01 318.85 495.41 321.22 493.78C323.12 492.48 321.32 489.36 319.4 490.67C300.13 503.9 279.33 514.67 258.25 524.69C237.1 534.74 215.61 544.08 194.7 554.63C174 565.07 153.92 576.78 135.68 591.16C126.32 598.54 117.39 606.45 107.74 613.45C98.0897 620.45 87.6697 626.38 76.2097 629.98C52.7497 637.33 27.6497 636.02 3.48973 633.92C0.539729 633.66 -2.40027 633.39 -5.34027 633.12C-7.64027 632.9 -7.63027 636.5 -5.34027 636.72L-5.35027 636.71Z" fill="#EAC696"/>
<path d="M74.7899 708.55C90.5199 714 107.69 712.08 122.99 706.17C139.19 699.92 153.07 689.58 165.7 677.85C178.79 665.7 190.63 652.28 203.84 640.25C216.44 628.78 230.39 618.93 245.11 610.39C259.89 601.82 275.38 594.53 291.13 587.96C306.92 581.37 322.99 575.47 339.07 569.62C354.74 563.92 370.44 558.3 385.9 552.05C400.8 546.03 415.5 539.48 429.7 531.97C443.84 524.49 457.48 516.04 470.14 506.24C482.57 496.63 494 485.69 503.7 473.32C506.09 470.27 508.38 467.15 510.56 463.95C511.87 462.03 508.75 460.23 507.45 462.13C498.66 475.02 488.01 486.55 476.18 496.7C464.35 506.85 451.21 515.73 437.6 523.51C423.69 531.47 409.19 538.37 394.44 544.64C379.58 550.96 364.44 556.56 349.27 562.08C333.19 567.93 317.08 573.7 301.17 580.01C285.42 586.25 269.85 593.01 254.84 600.9C239.96 608.72 225.68 617.68 212.51 628.14C199.34 638.6 186.74 651.94 174.37 664.39C162.2 676.64 149.44 688.63 134.2 696.99C119.98 704.79 103.55 709.73 87.2199 707.76C83.3099 707.29 79.4599 706.35 75.7499 705.06C73.5599 704.3 72.6199 707.77 74.7899 708.53V708.55Z" fill="#EAC696"/>
<path d="M589.16 713.75C569 711.58 547.5 709.19 530.37 697.35C516.99 688.11 506.73 670.35 510.4 653.75C514.49 635.28 533.92 627.35 550.5 623.65C570.63 619.16 591.64 618.45 612.05 621.38C632.51 624.31 652.47 630.79 670.62 640.68C672.85 641.9 675.05 643.17 677.23 644.48C679.22 645.68 681.03 642.57 679.05 641.37C660.67 630.27 640.21 622.65 619.07 618.88C597.89 615.1 576.09 615.08 554.94 619.07C537.07 622.44 516.11 629.26 508.57 647.59C501.59 664.56 510.1 684.26 522.92 695.97C538.57 710.27 560.88 714.06 581.17 716.45C583.83 716.76 586.49 717.05 589.16 717.34C590.13 717.44 590.95 716.44 590.96 715.54C590.97 714.48 590.12 713.84 589.16 713.74V713.75Z" fill="#EAC696"/>
<path d="M622.94 713.4C607.01 710.46 591.649 704.81 577.649 696.66C566.119 689.95 550.599 680.23 551.339 664.91C551.979 651.78 565.679 639.85 578.739 641.06C585.739 641.71 592.24 645.59 598.38 648.69C604.03 651.54 609.77 654.18 615.69 656.44C629.22 661.62 643.4 664.89 657.77 666.67C659.96 666.94 662.159 667.17 664.359 667.38C666.559 667.59 666.649 663.99 664.359 663.78C648.909 662.36 633.609 659.18 619.029 653.86C613.069 651.69 607.29 649.12 601.62 646.29C594.98 642.97 588.169 638.88 580.729 637.71C566.509 635.48 551.91 646.41 548.45 660.12C546.62 667.37 548.45 674.87 552.68 680.94C557.09 687.27 563.349 691.84 569.739 696C583.779 705.15 599.48 711.83 615.82 715.59C617.86 716.06 619.919 716.48 621.979 716.86C624.239 717.28 625.21 713.81 622.94 713.39V713.4Z" fill="#EAC696"/>
<path d="M537.289 504.39C535.519 513.4 532 521.97 526.89 529.6C524.29 533.49 521.269 537.06 517.939 540.34C514.609 543.62 510.75 546.9 507.2 550.23C500.43 556.59 494.069 564.18 492.419 573.61C491.009 581.67 493.669 589.64 500.139 594.76C505.939 599.35 513.609 601.44 520.939 600.98C529.839 600.42 538.109 596.14 545.189 590.95C559.999 580.1 571.639 563.56 590.119 558.63C599.729 556.06 609.8 556.39 619.52 554.4C627.33 552.8 635.459 549.54 640.779 543.37C642.089 541.86 643.209 540.21 644.109 538.42C645.139 536.36 642.039 534.53 640.999 536.6C637.469 543.64 630.359 547.65 623.039 549.81C614.069 552.46 604.599 552.36 595.419 553.84C590.709 554.6 586.139 555.84 581.779 557.79C577.749 559.6 573.99 561.98 570.46 564.62C563.27 570 556.989 576.41 550.229 582.29C543.549 588.1 536.159 593.59 527.549 596.12C520.679 598.14 513.139 597.83 506.659 594.62C500.179 591.41 495.67 585.59 495.6 578.25C495.51 569.14 501.189 561.21 507.369 555.05C514.009 548.42 521.469 542.74 527.229 535.25C532.619 528.24 536.7 520.23 539.2 511.75C539.82 509.63 540.34 507.49 540.76 505.32C541.18 503.15 537.739 502.09 537.289 504.36V504.39Z" fill="#EAC696"/>
<path d="M363.6 592.28C370.93 593.91 378.65 593.2 385.58 590.32C392.4 587.48 399.37 582.36 402.36 575.39C403.89 571.82 404.08 567.86 402.19 564.39C400.56 561.38 397.4 559.08 393.88 559.26C390.36 559.44 387.37 561.85 385.09 564.5C382.56 567.45 380.32 570.55 377.48 573.23C374.15 576.37 370.43 578.81 366.45 581.04C362.47 583.27 358.95 587 361.14 591.65C362.12 593.74 365.23 591.92 364.25 589.83C363.65 588.56 364.47 587.06 365.36 586.16C366.57 584.93 368.2 584.19 369.69 583.35C372.76 581.63 375.65 579.6 378.32 577.3C380.99 575 383.3 572.49 385.44 569.76C387.23 567.47 389.08 564.83 391.72 563.46C394.18 562.19 396.83 562.99 398.46 565.15C400.34 567.63 400.34 570.78 399.23 573.59C396.9 579.53 390.86 583.96 385.25 586.54C378.84 589.48 371.45 590.31 364.56 588.78C362.3 588.28 361.34 591.75 363.6 592.25V592.28Z" fill="#EAC696"/>
<path d="M513.559 502.38C498.889 506.98 488.529 519.59 481.759 532.85C477.619 540.95 474.479 549.5 471.069 557.91C467.659 566.32 463.879 574.26 459.019 581.8C449.319 596.82 436.809 609.84 424.819 623.01C411.749 637.38 398.619 651.69 385.429 665.95C372.179 680.27 358.879 694.54 345.509 708.74C343.869 710.48 342.239 712.22 340.599 713.95C338.959 715.68 341.549 718.18 343.139 716.49C356.409 702.41 369.619 688.28 382.769 674.1C395.919 659.92 408.899 645.8 421.879 631.56C434.029 618.23 446.709 605.14 457.349 590.54C462.509 583.46 467.019 575.96 470.649 567.98C474.389 559.78 477.399 551.27 480.969 543C486.979 529.08 495.379 514.71 509.529 507.79C511.149 507 512.819 506.35 514.529 505.82C516.729 505.13 515.789 501.65 513.569 502.35L513.559 502.38Z" fill="#EAC696"/>
<path d="M219.19 717.67C225.83 704.86 233.96 692.85 243.42 681.96C252.87 671.07 263.57 661.25 275.29 652.85C281.13 648.66 287.21 644.82 293.51 641.35C296.4 639.76 299.31 638.29 302.51 637.43C305.22 636.7 308.29 636.28 310.98 637.34C318.15 640.16 315.01 649.53 313.19 654.81C310.27 663.28 307.35 671.75 304.42 680.22C298.55 697.24 292.68 714.26 286.81 731.28C286.08 733.4 285.35 735.52 284.62 737.63C283.89 739.74 287.34 740.77 288.09 738.59C294.2 720.86 300.32 703.14 306.43 685.41C309.46 676.62 312.49 667.84 315.52 659.05C317.85 652.31 321.73 643.42 316.49 637.03C312.13 631.72 304.39 632.72 298.68 634.88C295.39 636.12 292.32 637.85 289.27 639.6C285.98 641.48 282.75 643.47 279.58 645.55C267.06 653.79 255.52 663.54 245.3 674.51C235.04 685.52 226.07 697.77 218.75 710.92C217.84 712.55 216.96 714.19 216.11 715.84C215.05 717.89 218.15 719.72 219.22 717.66L219.19 717.67Z" fill="#EAC696"/>
<path d="M635.63 709.22C629.16 708.89 622.73 707.35 616.84 704.64C610.95 701.93 605.44 698.43 601.4 693.64C599.49 691.37 598.08 688.41 598.7 685.39C599.27 682.55 601.59 680.91 604.41 680.8C607.61 680.68 610.49 682.25 613.14 683.88C616.32 685.84 619.45 687.88 622.6 689.88C630.04 694.61 637.47 699.33 644.91 704.06C646.87 705.31 648.68 702.19 646.73 700.95C639.43 696.31 632.14 691.68 624.84 687.04C621.31 684.8 617.82 682.46 614.22 680.32C611.16 678.5 607.68 676.94 604.04 677.22C600.68 677.47 597.46 679.14 595.98 682.29C594.5 685.44 594.77 688.96 596.15 692.04C597.63 695.33 600.32 697.94 603.06 700.2C605.8 702.46 608.86 704.55 612.06 706.27C619.33 710.17 627.41 712.4 635.65 712.82C637.96 712.94 637.96 709.34 635.65 709.22H635.63Z" fill="#EAC696"/>
<path d="M418.01 704.03C424.46 685.05 435.77 667.83 450.55 654.31C452.39 652.62 454.29 650.99 456.24 649.43C458.19 647.87 460.28 646.22 462.63 645.22C464.69 644.34 467.07 644.03 469.05 645.28C470.49 646.19 471.37 647.75 471.89 649.34C473.31 653.67 472.81 658.41 472.66 662.88C472.46 669.03 472.25 675.17 472.05 681.32C471.59 695.19 471.13 709.06 470.67 722.93C470.59 725.25 474.19 725.24 474.27 722.93C474.7 709.81 475.14 696.69 475.57 683.56C475.78 677.08 476 670.6 476.21 664.13C476.37 659.18 476.9 654 475.58 649.15C474.4 644.81 471.35 641.17 466.62 640.85C461.14 640.48 456.37 644.66 452.44 647.92C444.2 654.74 436.92 662.68 430.73 671.39C423.83 681.1 418.38 691.81 414.55 703.09C413.8 705.29 417.28 706.23 418.02 704.05L418.01 704.03Z" fill="#EAC696"/>
<path d="M404.63 496.88C376.01 499.32 348.49 508.2 322.61 520.42C296.31 532.84 271.7 548.51 247.64 564.76C225.3 579.84 203.01 595.09 181.56 611.42C160.73 627.27 140.65 644.29 123.04 663.71C105.43 683.13 91.0499 704.06 81.0599 727.77C79.8499 730.63 78.7199 733.53 77.6499 736.45C76.8499 738.63 80.3299 739.57 81.1199 737.41C89.8299 713.58 103.53 691.88 119.97 672.64C136.76 652.98 156.21 635.74 176.53 619.83C197.29 603.57 219.05 588.63 240.82 573.76C264.58 557.52 288.69 541.61 314.35 528.5C339.51 515.64 366.33 505.58 394.41 501.63C397.81 501.15 401.22 500.78 404.63 500.49C406.92 500.29 406.94 496.69 404.63 496.89V496.88Z" fill="#EAC696"/>
</g>
<path d="M413.248 524.11L351.377 511.072C344.892 509.705 338.527 513.854 337.16 520.339L331.97 544.968C330.604 551.453 334.753 557.818 341.238 559.185L403.109 572.223C409.594 573.59 415.959 569.441 417.326 562.956L422.516 538.326C423.882 531.841 419.733 525.477 413.248 524.11Z" fill="#F2A100"/>
<path d="M243.42 571.06L245.54 549.76L231.71 547.4L234.73 523.69L251.9 525.87L350.04 538.35C358.03 539.37 365.62 542.57 372.09 547.79C374.65 549.85 377.25 552.35 379.75 555.38C390.76 568.73 392.85 584.05 393.37 589.53C368.38 586.45 343.39 583.37 243.42 571.05V571.06Z" fill="#E5E5E5"/>
<mask id="mask1_1815_14214" style="mask-type:luminance" maskUnits="userSpaceOnUse" x="231" y="523" width="163" height="67">
<path d="M243.42 571.06L245.54 549.76L231.71 547.4L234.73 523.69L251.9 525.87L350.04 538.35C358.03 539.37 365.62 542.57 372.09 547.79C374.65 549.85 377.25 552.35 379.75 555.38C390.76 568.73 392.85 584.05 393.37 589.53C368.38 586.45 343.39 583.37 243.42 571.05V571.06Z" fill="white"/>
</mask>
<g mask="url(#mask1_1815_14214)">
<path opacity="0.66" d="M238.892 559.517L231.99 613.77L388.935 633.735L395.837 579.483L238.892 559.517Z" fill="white"/>
</g>
<path d="M151.165 515.269L148.481 536.369C148.115 539.251 150.154 541.884 153.035 542.251L220.918 550.887C223.8 551.253 226.433 549.214 226.8 546.332L229.484 525.232C229.851 522.351 227.812 519.717 224.93 519.351L157.047 510.715C154.165 510.348 151.532 512.387 151.165 515.269Z" fill="#878787"/>
<path d="M219.609 534.74C218.649 542.3 218.139 546.6 219.639 549.31C220.289 550.49 221.099 550.99 221.689 551.23L230.709 552.38C231.119 552.36 232.119 552.23 233.169 551.04C233.809 550.31 234.229 549.47 234.469 548.91C234.309 545.89 234.289 541.48 234.959 536.18C235.619 531.01 236.709 526.83 237.589 523.98C237.319 523.23 237.039 522.67 236.829 522.28C236.439 521.56 236.089 520.94 235.489 520.6C235.269 520.47 235.029 520.39 234.779 520.36L225.759 519.21C225.129 519.3 224.219 519.58 223.299 520.55C221.159 522.81 220.579 527.14 219.609 534.73V534.74Z" fill="#A5A5A5"/>
<path opacity="0.66" d="M374.359 576.77L339.069 537.4L308.069 533.26L339.759 572.91" fill="white"/>
<path opacity="0.66" d="M314.619 569.38L286.429 530.3L267.489 528.06L294.449 566.51" fill="white"/>
<path d="M232.26 432.74L225.81 510.81C224.4 527.9 211.88 539.67 198 536.95L195.45 536.45C181.57 533.73 171.36 517.52 172.78 500.43L179.23 422.36C180.64 405.27 193.16 393.5 207.04 396.22L209.59 396.72C223.47 399.44 233.68 415.65 232.26 432.74Z" fill="white"/>
<path d="M174.27 515.12C169.83 528.41 182.27 546.05 198.21 547.36C212.41 548.53 227.37 536.58 226.77 522.75C226.21 509.88 212.43 500.96 200.37 500.33C190.28 499.8 177.69 504.88 174.27 515.12Z" fill="#F7F7F7"/>
<path d="M409.96 431.46L396.49 508.95C393.54 525.92 403.11 540.54 417.75 541.45L420.44 541.62C435.09 542.53 449.48 529.39 452.43 512.42L465.9 434.93C468.85 417.96 459.28 403.34 444.64 402.43L441.95 402.26C427.3 401.35 412.91 414.49 409.96 431.46Z" fill="white"/>
<path d="M444.14 526.81C444.69 540.81 427.82 554.27 412.15 551.08C398.19 548.24 387.16 532.58 391.6 519.47C395.73 507.27 411.46 502.55 423.21 505.31C433.05 507.62 443.71 516.01 444.14 526.8V526.81Z" fill="#F7F7F7"/>
<path d="M342.008 564.595L316.156 559.147C309.671 557.781 303.306 561.93 301.94 568.415L299.471 580.128C298.105 586.613 302.254 592.978 308.739 594.344L334.591 599.792C341.076 601.159 347.441 597.009 348.808 590.525L351.276 578.812C352.643 572.327 348.493 565.962 342.008 564.595Z" fill="#F2A100"/>
<path d="M338.018 591.873L297.742 583.386C296.667 583.159 295.611 583.847 295.385 584.923L294.49 589.17C294.263 590.245 294.951 591.301 296.027 591.527L336.302 600.014C337.377 600.241 338.433 599.553 338.66 598.478L339.554 594.231C339.781 593.155 339.093 592.1 338.018 591.873Z" fill="#D88B03"/>
<path d="M299.835 575.951L279.149 571.592C272.664 570.225 266.299 574.374 264.933 580.859L263.24 588.893C261.873 595.378 266.023 601.743 272.507 603.109L293.193 607.469C299.678 608.835 306.043 604.686 307.41 598.201L309.103 590.167C310.469 583.682 306.32 577.317 299.835 575.951Z" fill="#F2A100"/>
<path d="M296.273 599.539L255.998 591.052C254.923 590.825 253.867 591.513 253.64 592.589L252.746 596.836C252.519 597.911 253.207 598.967 254.282 599.193L294.558 607.681C295.633 607.907 296.689 607.219 296.915 606.144L297.81 601.897C298.037 600.822 297.349 599.766 296.273 599.539Z" fill="#D88B03"/>
<path d="M268.065 589.343L253.916 586.361C247.431 584.995 241.066 589.144 239.699 595.629L238.99 598.995C237.623 605.48 241.773 611.845 248.258 613.211L262.407 616.193C268.892 617.56 275.257 613.411 276.623 606.926L277.333 603.559C278.699 597.074 274.55 590.709 268.065 589.343Z" fill="#F2A100"/>
<path d="M533.12 648.24C530.06 642.98 526.64 637.1 520.75 633.94C513.04 636.51 503.98 635.73 496.88 639.87C492.62 642.36 489.39 646.56 488.09 651.33C488.09 651.25 488.08 651.17 488.07 651.09C487.22 653.86 486.67 657.11 487.19 660.31C488.5 662.17 490.96 665.03 494.89 666.4C497.82 667.42 501.37 668.16 507.66 667.22C513.14 666.4 515.86 670.98 518.54 669.35C521.31 667.66 520.73 666.98 524.57 664.43C529.4 661.23 532.45 657.4 533.54 657.37C535.19 657.33 536.03 655.01 536.94 655.28C535.77 652.79 534.37 650.38 533.12 648.23V648.24Z" fill="#F2DA9E"/>
<path d="M496.879 639.87C503.989 635.73 513.039 636.51 520.749 633.94C519.319 633.17 517.749 632.56 516.009 632.16C509.179 630.59 501.829 632.69 496.819 636.83C493.759 639.36 492.199 642.13 491.119 644.09C490.539 645.15 489.089 647.78 488.069 651.09C488.069 651.17 488.079 651.25 488.089 651.33C489.389 646.57 492.619 642.36 496.879 639.87Z" fill="#F2DA9E"/>
<g opacity="0.64">
<path d="M496.89 639.88C504 635.74 513.05 636.52 520.76 633.95C519.33 633.18 517.76 632.57 516.02 632.17C509.19 630.6 501.84 632.7 496.83 636.84C493.77 639.37 492.21 642.14 491.13 644.1C490.55 645.16 489.1 647.79 488.08 651.1C488.08 651.18 488.09 651.26 488.1 651.34C489.4 646.58 492.63 642.37 496.89 639.88Z" fill="white"/>
</g>
<path d="M516.009 677.27C520.189 677.46 533.969 678.1 538.309 670.01C540.699 665.56 539.269 660.23 536.939 655.28C535.859 655.52 534.289 655.96 532.519 656.8C528.659 658.64 527.139 660.84 524.909 662.56C521.629 665.08 518.199 665.47 512.989 666.05C505.189 666.93 499.129 665.08 495.909 664.06C492.149 662.87 489.199 661.42 487.199 660.3C487.279 660.77 487.379 661.24 487.499 661.71C490.549 673.03 507.069 676.85 516.019 677.27H516.009Z" fill="#E8C577"/>
<path d="M555.28 627.67C552.22 622.41 548.8 616.53 542.91 613.37C535.2 615.94 526.14 615.16 519.04 619.3C514.78 621.79 511.55 625.99 510.25 630.76C510.25 630.68 510.24 630.6 510.23 630.52C509.38 633.29 508.83 636.54 509.35 639.74C510.66 641.6 513.12 644.46 517.05 645.83C519.98 646.85 523.53 647.59 529.82 646.65C535.3 645.83 538.02 650.41 540.7 648.78C543.47 647.09 542.89 646.41 546.73 643.86C551.56 640.66 554.61 636.83 555.7 636.8C557.35 636.76 558.19 634.44 559.1 634.71C557.93 632.22 556.53 629.81 555.28 627.66V627.67Z" fill="#F2DA9E"/>
<path d="M519.039 619.3C526.149 615.16 535.199 615.94 542.909 613.37C541.479 612.6 539.909 611.99 538.169 611.59C531.339 610.02 523.989 612.12 518.979 616.26C515.919 618.79 514.359 621.56 513.279 623.52C512.699 624.58 511.249 627.21 510.229 630.52C510.229 630.6 510.24 630.68 510.25 630.76C511.55 626 514.779 621.79 519.039 619.3Z" fill="#F2DA9E"/>
<g opacity="0.64">
<path d="M519.05 619.32C526.16 615.18 535.21 615.96 542.92 613.39C541.49 612.62 539.92 612.01 538.18 611.61C531.35 610.04 524 612.14 518.99 616.28C515.93 618.81 514.37 621.58 513.29 623.54C512.71 624.6 511.26 627.23 510.24 630.54C510.24 630.62 510.25 630.7 510.26 630.78C511.56 626.02 514.79 621.81 519.05 619.32Z" fill="white"/>
</g>
<path d="M538.169 656.71C542.349 656.9 556.129 657.54 560.469 649.45C562.859 645 561.429 639.67 559.099 634.72C558.019 634.96 556.449 635.4 554.679 636.24C550.819 638.08 549.299 640.28 547.069 642C543.789 644.52 540.359 644.91 535.149 645.49C527.349 646.37 521.289 644.52 518.069 643.5C514.309 642.31 511.359 640.86 509.359 639.74C509.439 640.21 509.539 640.68 509.659 641.15C512.709 652.47 529.229 656.29 538.179 656.71H538.169Z" fill="#E8C577"/>
<path d="M559.39 645.07C556.33 639.81 552.91 633.93 547.02 630.77C539.31 633.34 530.25 632.56 523.15 636.7C518.89 639.19 515.66 643.39 514.36 648.16C514.36 648.08 514.35 648 514.34 647.92C513.49 650.69 512.94 653.94 513.46 657.14C514.77 659 517.23 661.86 521.16 663.23C524.09 664.25 527.64 664.99 533.93 664.05C539.41 663.23 542.13 667.81 544.81 666.18C547.58 664.49 547 663.81 550.84 661.26C555.67 658.06 558.72 654.23 559.81 654.2C561.46 654.16 562.3 651.84 563.21 652.11C562.04 649.62 560.64 647.21 559.39 645.06V645.07Z" fill="#F2DA9E"/>
<path d="M523.15 636.71C530.26 632.57 539.31 633.35 547.02 630.78C545.59 630.01 544.02 629.4 542.28 629C535.45 627.43 528.1 629.53 523.09 633.67C520.03 636.2 518.47 638.97 517.39 640.93C516.81 641.99 515.36 644.62 514.34 647.93C514.34 648.01 514.35 648.09 514.36 648.17C515.66 643.41 518.89 639.2 523.15 636.71Z" fill="#F2DA9E"/>
<g opacity="0.64">
<path d="M523.16 636.72C530.27 632.58 539.32 633.36 547.03 630.79C545.6 630.02 544.03 629.41 542.29 629.01C535.46 627.44 528.11 629.54 523.1 633.68C520.04 636.21 518.48 638.98 517.4 640.94C516.82 642 515.37 644.63 514.35 647.94C514.35 648.02 514.36 648.1 514.37 648.18C515.67 643.42 518.9 639.21 523.16 636.72Z" fill="white"/>
</g>
<path d="M542.28 674.11C546.46 674.3 560.24 674.94 564.58 666.85C566.97 662.4 565.54 657.07 563.21 652.12C562.13 652.36 560.56 652.8 558.79 653.64C554.93 655.48 553.41 657.68 551.18 659.4C547.9 661.92 544.47 662.31 539.26 662.89C531.46 663.77 525.4 661.92 522.18 660.9C518.42 659.71 515.47 658.26 513.47 657.14C513.55 657.61 513.65 658.08 513.77 658.55C516.82 669.87 533.34 673.69 542.29 674.11H542.28Z" fill="#E8C577"/>
<path d="M585.67 632.06C582.61 626.8 579.19 620.92 573.3 617.76C565.59 620.33 556.53 619.55 549.43 623.69C545.17 626.18 541.94 630.38 540.64 635.15C540.64 635.07 540.63 634.99 540.62 634.91C539.77 637.68 539.22 640.93 539.74 644.13C541.05 645.99 543.51 648.85 547.44 650.22C550.37 651.24 553.92 651.98 560.21 651.04C565.69 650.22 568.41 654.8 571.09 653.17C573.86 651.48 573.28 650.8 577.12 648.25C581.95 645.05 585 641.22 586.09 641.19C587.74 641.15 588.58 638.83 589.49 639.1C588.32 636.61 586.92 634.2 585.67 632.05V632.06Z" fill="#F2DA9E"/>
<path d="M549.43 623.7C556.54 619.56 565.59 620.34 573.3 617.77C571.87 617 570.3 616.39 568.56 615.99C561.73 614.42 554.38 616.52 549.37 620.66C546.31 623.19 544.75 625.96 543.67 627.92C543.09 628.98 541.64 631.61 540.62 634.92C540.62 635 540.63 635.08 540.64 635.16C541.94 630.4 545.17 626.19 549.43 623.7Z" fill="#F2DA9E"/>
<g opacity="0.64">
<path d="M549.441 623.71C556.551 619.57 565.601 620.35 573.311 617.78C571.881 617.01 570.311 616.4 568.571 616C561.741 614.43 554.391 616.53 549.381 620.67C546.321 623.2 544.761 625.97 543.681 627.93C543.101 628.99 541.651 631.62 540.631 634.93C540.631 635.01 540.641 635.09 540.651 635.17C541.951 630.41 545.181 626.2 549.441 623.71Z" fill="white"/>
</g>
<path d="M568.56 661.1C572.74 661.29 586.52 661.93 590.86 653.84C593.25 649.39 591.82 644.06 589.49 639.11C588.41 639.35 586.84 639.79 585.07 640.63C581.21 642.47 579.69 644.67 577.46 646.39C574.18 648.91 570.75 649.3 565.54 649.88C557.74 650.76 551.68 648.91 548.46 647.89C544.7 646.7 541.75 645.25 539.75 644.13C539.83 644.6 539.93 645.07 540.05 645.54C543.1 656.86 559.62 660.68 568.57 661.1H568.56Z" fill="#E8C577"/>
<path d="M586.84 653.26C583.78 648 580.36 642.12 574.47 638.96C566.76 641.53 557.7 640.75 550.6 644.89C546.34 647.38 543.11 651.58 541.81 656.35C541.81 656.27 541.8 656.19 541.79 656.11C540.94 658.88 540.39 662.13 540.91 665.33C542.22 667.19 544.68 670.05 548.61 671.42C551.54 672.44 555.09 673.18 561.38 672.24C566.86 671.42 569.58 676 572.26 674.37C575.03 672.68 574.45 672 578.29 669.45C583.12 666.25 586.17 662.42 587.26 662.39C588.91 662.35 589.75 660.03 590.66 660.3C589.49 657.81 588.09 655.4 586.84 653.25V653.26Z" fill="#F2DA9E"/>
<path d="M550.6 644.89C557.71 640.75 566.76 641.53 574.47 638.96C573.04 638.19 571.47 637.58 569.73 637.18C562.9 635.61 555.55 637.71 550.54 641.85C547.48 644.38 545.92 647.15 544.84 649.11C544.26 650.17 542.81 652.8 541.79 656.11C541.79 656.19 541.8 656.27 541.81 656.35C543.11 651.59 546.34 647.38 550.6 644.89Z" fill="#F2DA9E"/>
<g opacity="0.64">
<path d="M550.611 644.91C557.721 640.77 566.771 641.55 574.481 638.98C573.051 638.21 571.481 637.6 569.741 637.2C562.911 635.63 555.561 637.73 550.551 641.87C547.491 644.4 545.931 647.17 544.851 649.13C544.271 650.19 542.821 652.82 541.801 656.13C541.801 656.21 541.811 656.29 541.821 656.37C543.121 651.61 546.351 647.4 550.611 644.91Z" fill="white"/>
</g>
<path d="M569.73 682.3C573.91 682.49 587.69 683.13 592.03 675.04C594.42 670.59 592.99 665.26 590.66 660.31C589.58 660.55 588.01 660.99 586.24 661.83C582.38 663.67 580.86 665.87 578.63 667.59C575.35 670.11 571.92 670.5 566.71 671.08C558.91 671.96 552.85 670.11 549.63 669.09C545.87 667.9 542.92 666.45 540.92 665.33C541 665.8 541.1 666.27 541.22 666.74C544.27 678.06 560.79 681.88 569.74 682.3H569.73Z" fill="#E8C577"/>
<path d="M619.36 641.89C616.3 636.63 612.88 630.75 606.99 627.59C599.28 630.16 590.22 629.38 583.12 633.52C578.86 636.01 575.63 640.21 574.33 644.98C574.33 644.9 574.32 644.82 574.31 644.74C573.46 647.51 572.91 650.76 573.43 653.96C574.74 655.82 577.2 658.68 581.13 660.05C584.06 661.07 587.61 661.81 593.9 660.87C599.38 660.05 602.1 664.63 604.78 663C607.55 661.31 606.97 660.63 610.81 658.08C615.64 654.88 618.69 651.05 619.78 651.02C621.43 650.98 622.27 648.66 623.18 648.93C622.01 646.44 620.61 644.03 619.36 641.88V641.89Z" fill="#F2DA9E"/>
<path d="M583.12 633.53C590.23 629.39 599.28 630.17 606.99 627.6C605.56 626.83 603.99 626.22 602.25 625.82C595.42 624.25 588.07 626.35 583.06 630.49C580 633.02 578.44 635.79 577.36 637.75C576.78 638.81 575.33 641.44 574.31 644.75C574.31 644.83 574.32 644.91 574.33 644.99C575.63 640.23 578.86 636.02 583.12 633.53Z" fill="#F2DA9E"/>
<g opacity="0.64">
<path d="M583.13 633.539C590.24 629.399 599.29 630.179 607 627.609C605.57 626.839 604 626.23 602.26 625.83C595.43 624.26 588.08 626.36 583.07 630.5C580.01 633.03 578.45 635.8 577.37 637.76C576.79 638.82 575.34 641.45 574.32 644.76C574.32 644.84 574.33 644.92 574.34 645C575.64 640.24 578.87 636.029 583.13 633.539Z" fill="white"/>
</g>
<path d="M602.249 670.93C606.429 671.12 620.209 671.76 624.549 663.67C626.939 659.22 625.509 653.89 623.179 648.94C622.099 649.18 620.529 649.62 618.759 650.46C614.899 652.3 613.379 654.5 611.149 656.22C607.869 658.74 604.439 659.13 599.229 659.71C591.429 660.59 585.369 658.74 582.149 657.72C578.389 656.53 575.439 655.08 573.439 653.96C573.519 654.43 573.619 654.9 573.739 655.37C576.789 666.69 593.309 670.51 602.259 670.93H602.249Z" fill="#E8C577"/>
<path d="M84.9301 611.14C84.9301 611.14 88.0401 641.04 59.2501 654.24C30.4601 667.44 108.16 654.81 84.9301 611.14Z" fill="url(#paint0_linear_1815_14214)"/>
<path d="M124.47 645.49C124.47 645.49 98.3904 660.44 74.6604 639.48C50.9304 618.51 93.9504 684.43 124.47 645.49Z" fill="url(#paint1_linear_1815_14214)"/>
<path d="M113.92 668.55C113.92 668.55 87.8397 683.5 64.1097 662.54C40.3797 641.57 83.3997 707.49 113.92 668.55Z" fill="url(#paint2_linear_1815_14214)"/>
<path d="M69.8399 669.73C69.8399 669.73 68.5499 639.69 98.0799 628.26C127.61 616.82 49.2899 624.73 69.8399 669.73Z" fill="url(#paint3_linear_1815_14214)"/>
<path d="M72.2903 676.73C72.2903 676.73 77.2703 647.08 108.53 642.03C139.79 636.98 61.5403 628.43 72.2903 676.73Z" fill="url(#paint4_linear_1815_14214)"/>
<path d="M92.0896 639.02C92.0896 639.02 66.0096 653.97 42.2796 633.01C18.5496 612.04 61.5696 677.96 92.0896 639.02Z" fill="url(#paint5_linear_1815_14214)"/>
<path d="M69.04 627.28C69.04 627.28 99.08 626.04 110.46 655.6C121.84 685.15 114.08 606.82 69.04 627.28Z" fill="url(#paint6_linear_1815_14214)"/>
<path d="M70.5596 638.34C70.5596 638.34 100.6 637.1 111.98 666.66C123.36 696.21 115.6 617.88 70.5596 638.34Z" fill="url(#paint7_linear_1815_14214)"/>
<path d="M40.7002 634.84C40.7002 634.84 70.7402 633.6 82.1202 663.16C93.5002 692.71 85.7402 614.38 40.7002 634.84Z" fill="url(#paint8_linear_1815_14214)"/>
<path d="M125.999 660.65C125.999 660.65 99.0595 674 76.6395 651.63C54.2195 629.26 93.1695 697.67 125.999 660.65Z" fill="url(#paint9_linear_1815_14214)"/>
<path d="M32.9304 665.99C32.9304 665.99 38.5204 636.45 69.8804 632.05C101.24 627.65 23.1804 617.49 32.9304 665.99Z" fill="url(#paint10_linear_1815_14214)"/>
<path d="M44.57 654.15C44.57 654.15 50.16 624.61 81.52 620.21C112.88 615.81 34.82 605.65 44.57 654.15Z" fill="url(#paint11_linear_1815_14214)"/>
<path d="M44.57 676.34C44.57 676.34 50.16 646.8 81.52 642.4C112.88 638 34.82 627.84 44.57 676.34Z" fill="url(#paint12_linear_1815_14214)"/>
<path d="M74.3395 650.64C74.3395 650.64 79.9295 621.1 111.29 616.7C142.65 612.3 64.5895 602.14 74.3395 650.64Z" fill="url(#paint13_linear_1815_14214)"/>
<path d="M89.9802 673.11C89.9802 673.11 95.5702 643.57 126.93 639.17C158.29 634.77 80.2302 624.61 89.9802 673.11Z" fill="url(#paint14_linear_1815_14214)"/>
<path d="M83.03 659.15C83.03 659.15 88.62 629.61 119.98 625.21C151.34 620.81 73.28 610.65 83.03 659.15Z" fill="url(#paint15_linear_1815_14214)"/>
<path d="M84.74 650.42C84.74 650.42 58.66 665.37 34.93 644.41C11.2 623.44 54.22 689.36 84.74 650.42Z" fill="url(#paint16_linear_1815_14214)"/>
<path d="M51.9102 624.38C51.9102 624.38 81.9502 623.14 93.3302 652.7C104.71 682.25 96.9502 603.92 51.9102 624.38Z" fill="url(#paint17_linear_1815_14214)"/>
<path d="M46.04 642.5C46.04 642.5 76.08 641.26 87.46 670.82C98.84 700.37 91.08 622.04 46.04 642.5Z" fill="url(#paint18_linear_1815_14214)"/>
<path d="M38.6396 638.34C38.6396 638.34 68.6796 637.1 80.0596 666.66C91.4396 696.22 83.6796 617.88 38.6396 638.34Z" fill="url(#paint19_linear_1815_14214)"/>
<path d="M54.5003 659.12C54.5003 659.12 52.9803 629.1 82.4203 617.43C111.86 605.77 33.6103 614.28 54.5003 659.12Z" fill="url(#paint20_linear_1815_14214)"/>
<path d="M74.96 632.24C74.96 632.24 105 631 116.38 660.56C127.76 690.11 120 611.78 74.96 632.24Z" fill="url(#paint21_linear_1815_14214)"/>
<path d="M126.61 620.21C126.61 620.21 128.79 650.19 99.6101 662.5C70.4301 674.81 148.48 664.58 126.61 620.21Z" fill="url(#paint22_linear_1815_14214)"/>
<path d="M114.55 675.88C114.55 675.88 86.9203 664.04 89.4003 632.46C91.8803 600.89 65.0903 674.91 114.55 675.88Z" fill="url(#paint23_linear_1815_14214)"/>
<path d="M106.72 627.97C106.72 627.97 108.9 657.95 79.7195 670.26C50.5395 682.57 128.59 672.34 106.72 627.97Z" fill="url(#paint24_linear_1815_14214)"/>
<path d="M110.79 613.06C110.79 613.06 113.9 642.96 85.1095 656.16C56.3195 669.36 134.02 656.73 110.79 613.06Z" fill="url(#paint25_linear_1815_14214)"/>
<path d="M150.33 647.4C150.33 647.4 124.25 662.35 100.52 641.39C76.7898 620.42 119.81 686.34 150.33 647.4Z" fill="url(#paint26_linear_1815_14214)"/>
<path d="M139.78 670.46C139.78 670.46 113.7 685.41 89.97 664.45C66.24 643.48 109.26 709.4 139.78 670.46Z" fill="url(#paint27_linear_1815_14214)"/>
<path d="M95.7003 671.64C95.7003 671.64 94.4103 641.6 123.94 630.17C153.47 618.73 75.1503 626.64 95.7003 671.64Z" fill="url(#paint28_linear_1815_14214)"/>
<path d="M98.1496 678.64C98.1496 678.64 103.13 648.99 134.39 643.94C165.65 638.89 87.3996 630.34 98.1496 678.64Z" fill="url(#paint29_linear_1815_14214)"/>
<path d="M117.95 640.93C117.95 640.93 91.8699 655.88 68.1399 634.92C44.4099 613.95 87.4299 679.87 117.95 640.93Z" fill="url(#paint30_linear_1815_14214)"/>
<path d="M94.9004 629.19C94.9004 629.19 124.94 627.95 136.32 657.51C147.7 687.06 139.94 608.73 94.9004 629.19Z" fill="url(#paint31_linear_1815_14214)"/>
<path d="M96.4199 640.26C96.4199 640.26 126.46 639.02 137.84 668.58C149.22 698.13 141.46 619.8 96.4199 640.26Z" fill="url(#paint32_linear_1815_14214)"/>
<path d="M66.5596 636.75C66.5596 636.75 96.5996 635.51 107.98 665.07C119.36 694.62 111.6 616.29 66.5596 636.75Z" fill="url(#paint33_linear_1815_14214)"/>
<path d="M151.86 662.57C151.86 662.57 124.92 675.92 102.5 653.55C80.0798 631.18 119.03 699.59 151.86 662.57Z" fill="url(#paint34_linear_1815_14214)"/>
<path d="M58.7897 667.91C58.7897 667.91 64.3797 638.37 95.7397 633.97C127.1 629.57 49.0397 619.41 58.7897 667.91Z" fill="url(#paint35_linear_1815_14214)"/>
<path d="M70.4304 656.06C70.4304 656.06 76.0204 626.52 107.38 622.12C138.74 617.72 60.6804 607.56 70.4304 656.06Z" fill="url(#paint36_linear_1815_14214)"/>
<path d="M70.4304 678.26C70.4304 678.26 76.0204 648.72 107.38 644.32C138.74 639.92 60.6804 629.76 70.4304 678.26Z" fill="url(#paint37_linear_1815_14214)"/>
<path d="M100.2 652.56C100.2 652.56 105.79 623.02 137.15 618.62C168.51 614.22 90.4499 604.06 100.2 652.56Z" fill="url(#paint38_linear_1815_14214)"/>
<path d="M115.84 675.03C115.84 675.03 121.43 645.49 152.79 641.09C184.15 636.69 106.09 626.53 115.84 675.03Z" fill="url(#paint39_linear_1815_14214)"/>
<path d="M108.89 661.06C108.89 661.06 114.48 631.52 145.84 627.12C177.2 622.72 99.1403 612.56 108.89 661.06Z" fill="url(#paint40_linear_1815_14214)"/>
<path d="M110.59 652.34C110.59 652.34 84.5096 667.29 60.7796 646.33C37.0496 625.36 80.0696 691.28 110.59 652.34Z" fill="url(#paint41_linear_1815_14214)"/>
<path d="M77.7695 626.29C77.7695 626.29 107.81 625.05 119.19 654.61C130.57 684.16 122.81 605.83 77.7695 626.29Z" fill="url(#paint42_linear_1815_14214)"/>
<path d="M71.9004 644.42C71.9004 644.42 101.94 643.18 113.32 672.74C124.7 702.29 116.94 623.96 71.9004 644.42Z" fill="url(#paint43_linear_1815_14214)"/>
<path d="M64.5 640.26C64.5 640.26 94.54 639.02 105.92 668.58C117.3 698.13 109.54 619.8 64.5 640.26Z" fill="url(#paint44_linear_1815_14214)"/>
<path d="M80.3597 661.04C80.3597 661.04 78.8397 631.02 108.28 619.35C137.72 607.69 59.4697 616.2 80.3597 661.04Z" fill="url(#paint45_linear_1815_14214)"/>
<path d="M100.82 634.15C100.82 634.15 130.86 632.91 142.24 662.47C153.62 692.02 145.86 613.69 100.82 634.15Z" fill="url(#paint46_linear_1815_14214)"/>
<path d="M152.47 622.12C152.47 622.12 154.65 652.1 125.47 664.41C96.2895 676.72 174.34 666.49 152.47 622.12Z" fill="url(#paint47_linear_1815_14214)"/>
<path d="M140.41 677.79C140.41 677.79 112.78 665.95 115.26 634.37C117.74 602.8 90.9497 676.82 140.41 677.79Z" fill="url(#paint48_linear_1815_14214)"/>
<path d="M132.58 629.88C132.58 629.88 134.76 659.86 105.58 672.17C76.3999 684.48 154.45 674.25 132.58 629.88Z" fill="url(#paint49_linear_1815_14214)"/>
<path d="M97.3501 594.89C97.3501 594.89 100.46 624.79 71.6701 637.99C42.8801 651.19 120.58 638.56 97.3501 594.89Z" fill="url(#paint50_linear_1815_14214)"/>
<path d="M136.88 629.24C136.88 629.24 110.8 644.19 87.0696 623.23C63.3396 602.26 106.36 668.18 136.88 629.24Z" fill="url(#paint51_linear_1815_14214)"/>
<path d="M126.34 652.3C126.34 652.3 100.26 667.25 76.5296 646.29C52.7996 625.32 95.8196 691.24 126.34 652.3Z" fill="url(#paint52_linear_1815_14214)"/>
<path d="M82.2598 653.48C82.2598 653.48 80.9698 623.44 110.5 612.01C140.03 600.57 61.7098 608.48 82.2598 653.48Z" fill="url(#paint53_linear_1815_14214)"/>
<path d="M84.7004 660.48C84.7004 660.48 89.6804 630.83 120.94 625.78C152.2 620.73 73.9504 612.18 84.7004 660.48Z" fill="url(#paint54_linear_1815_14214)"/>
<path d="M104.51 622.77C104.51 622.77 78.4295 637.72 54.6995 616.76C30.9695 595.79 73.9895 661.71 104.51 622.77Z" fill="url(#paint55_linear_1815_14214)"/>
<path d="M81.46 611.03C81.46 611.03 111.5 609.79 122.88 639.35C134.26 668.9 126.5 590.57 81.46 611.03Z" fill="url(#paint56_linear_1815_14214)"/>
<path d="M82.9795 622.1C82.9795 622.1 113.019 620.86 124.399 650.42C135.779 679.97 128.019 601.64 82.9795 622.1Z" fill="url(#paint57_linear_1815_14214)"/>
<path d="M53.1201 618.59C53.1201 618.59 83.1601 617.35 94.5401 646.91C105.92 676.46 98.1601 598.13 53.1201 618.59Z" fill="url(#paint58_linear_1815_14214)"/>
<path d="M138.42 644.4C138.42 644.4 111.48 657.75 89.0604 635.38C66.6404 613.01 105.59 681.42 138.42 644.4Z" fill="url(#paint59_linear_1815_14214)"/>
<path d="M45.3395 649.74C45.3395 649.74 50.9295 620.2 82.2895 615.8C113.65 611.4 35.5895 601.24 45.3395 649.74Z" fill="url(#paint60_linear_1815_14214)"/>
<path d="M56.9802 637.9C56.9802 637.9 62.5702 608.36 93.9302 603.96C125.29 599.56 47.2302 589.4 56.9802 637.9Z" fill="url(#paint61_linear_1815_14214)"/>
<path d="M56.9802 660.1C56.9802 660.1 62.5702 630.56 93.9302 626.16C125.29 621.76 47.2302 611.6 56.9802 660.1Z" fill="url(#paint62_linear_1815_14214)"/>
<path d="M86.7604 634.39C86.7604 634.39 92.3504 604.85 123.71 600.45C155.07 596.05 77.0104 585.89 86.7604 634.39Z" fill="url(#paint63_linear_1815_14214)"/>
<path d="M102.39 656.86C102.39 656.86 107.98 627.32 139.34 622.92C170.7 618.52 92.6403 608.36 102.39 656.86Z" fill="url(#paint64_linear_1815_14214)"/>
<path d="M95.4401 642.9C95.4401 642.9 101.03 613.36 132.39 608.96C163.75 604.56 85.6901 594.4 95.4401 642.9Z" fill="url(#paint65_linear_1815_14214)"/>
<path d="M97.1501 634.18C97.1501 634.18 71.0701 649.13 47.3401 628.17C23.6101 607.2 66.6301 673.12 97.1501 634.18Z" fill="url(#paint66_linear_1815_14214)"/>
<path d="M64.3301 608.13C64.3301 608.13 94.3701 606.89 105.75 636.45C117.13 666 109.37 587.67 64.3301 608.13Z" fill="url(#paint67_linear_1815_14214)"/>
<path d="M58.46 626.26C58.46 626.26 88.5 625.02 99.88 654.58C111.26 684.14 103.5 605.8 58.46 626.26Z" fill="url(#paint68_linear_1815_14214)"/>
<path d="M51.0596 622.1C51.0596 622.1 81.0996 620.86 92.4796 650.42C103.86 679.97 96.0996 601.64 51.0596 622.1Z" fill="url(#paint69_linear_1815_14214)"/>
<path d="M66.9202 642.88C66.9202 642.88 65.4002 612.86 94.8402 601.19C124.28 589.53 46.0302 598.04 66.9202 642.88Z" fill="url(#paint70_linear_1815_14214)"/>
<path d="M87.3799 615.99C87.3799 615.99 117.42 614.75 128.8 644.31C140.18 673.86 132.42 595.53 87.3799 615.99Z" fill="url(#paint71_linear_1815_14214)"/>
<path d="M139.03 603.96C139.03 603.96 141.21 633.94 112.03 646.25C82.8501 658.56 160.9 648.33 139.03 603.96Z" fill="url(#paint72_linear_1815_14214)"/>
<path d="M126.97 659.63C126.97 659.63 99.3403 647.79 101.82 616.21C104.3 584.64 77.5103 658.66 126.97 659.63Z" fill="url(#paint73_linear_1815_14214)"/>
<path d="M119.13 611.72C119.13 611.72 121.31 641.7 92.1297 654.01C62.9497 666.32 141 656.09 119.13 611.72Z" fill="url(#paint74_linear_1815_14214)"/>
<defs>
<linearGradient id="paint0_linear_1815_14214" x1="62.5854" y1="621.95" x2="76.599" y2="650.874" gradientUnits="userSpaceOnUse">
<stop stop-color="#E2E2E2"/>
<stop offset="0.79" stop-color="#E2E2E2"/>
<stop offset="1" stop-color="#6F9A3A"/>
</linearGradient>
<linearGradient id="paint1_linear_1815_14214" x1="105.515" y1="629.404" x2="84.7546" y2="653.926" gradientUnits="userSpaceOnUse">
<stop stop-color="#E2E2E2"/>
<stop offset="0.79" stop-color="#E2E2E2"/>
<stop offset="1" stop-color="#6F9A3A"/>
</linearGradient>
<linearGradient id="paint2_linear_1815_14214" x1="94.97" y1="652.46" x2="74.2036" y2="676.99" gradientUnits="userSpaceOnUse">
<stop stop-color="#E2E2E2"/>
<stop offset="0.79" stop-color="#E2E2E2"/>
<stop offset="1" stop-color="#6F9A3A"/>
</linearGradient>
<linearGradient id="paint3_linear_1815_14214" x1="92.7606" y1="660.28" x2="80.522" y2="630.572" gradientUnits="userSpaceOnUse">
<stop stop-color="#E2E2E2"/>
<stop offset="0.79" stop-color="#E2E2E2"/>
<stop offset="1" stop-color="#6F9A3A"/>
</linearGradient>
<linearGradient id="paint4_linear_1815_14214" x1="96.6582" y1="672.252" x2="90.8636" y2="640.649" gradientUnits="userSpaceOnUse">
<stop stop-color="#E2E2E2"/>
<stop offset="0.79" stop-color="#E2E2E2"/>
<stop offset="1" stop-color="#6F9A3A"/>
</linearGradient>
<linearGradient id="paint5_linear_1815_14214" x1="73.1389" y1="622.933" x2="52.3724" y2="647.464" gradientUnits="userSpaceOnUse">
<stop stop-color="#E2E2E2"/>
<stop offset="0.79" stop-color="#E2E2E2"/>
<stop offset="1" stop-color="#6F9A3A"/>
</linearGradient>
<linearGradient id="paint6_linear_1815_14214" x1="78.4738" y1="650.228" x2="108.214" y2="638.043" gradientUnits="userSpaceOnUse">
<stop stop-color="#E2E2E2"/>
<stop offset="0.79" stop-color="#E2E2E2"/>
</linearGradient>
<linearGradient id="paint7_linear_1815_14214" x1="79.9901" y1="661.289" x2="109.731" y2="649.103" gradientUnits="userSpaceOnUse">
<stop stop-color="#E2E2E2"/>
<stop offset="0.79" stop-color="#E2E2E2"/>
</linearGradient>
<linearGradient id="paint8_linear_1815_14214" x1="50.1433" y1="657.783" x2="79.8745" y2="645.602" gradientUnits="userSpaceOnUse">
<stop stop-color="#E2E2E2"/>
<stop offset="0.79" stop-color="#E2E2E2"/>
</linearGradient>
<linearGradient id="paint9_linear_1815_14214" x1="108.06" y1="643.546" x2="85.847" y2="666.774" gradientUnits="userSpaceOnUse">
<stop stop-color="#E2E2E2"/>
<stop offset="0.79" stop-color="#E2E2E2"/>
</linearGradient>
<linearGradient id="paint10_linear_1815_14214" x1="57.3832" y1="662.018" x2="52.2391" y2="630.293" gradientUnits="userSpaceOnUse">
<stop stop-color="#E2E2E2"/>
<stop offset="0.79" stop-color="#E2E2E2"/>
</linearGradient>
<linearGradient id="paint11_linear_1815_14214" x1="69.0154" y1="650.164" x2="63.8729" y2="618.448" gradientUnits="userSpaceOnUse">
<stop stop-color="#E2E2E2"/>
<stop offset="0.79" stop-color="#E2E2E2"/>
</linearGradient>
<linearGradient id="paint12_linear_1815_14214" x1="69.0196" y1="672.369" x2="63.8755" y2="640.644" gradientUnits="userSpaceOnUse">
<stop stop-color="#E2E2E2"/>
<stop offset="0.79" stop-color="#E2E2E2"/>
</linearGradient>
<linearGradient id="paint13_linear_1815_14214" x1="98.7885" y1="646.663" x2="93.6444" y2="614.937" gradientUnits="userSpaceOnUse">
<stop stop-color="#E2E2E2"/>
<stop offset="0.79" stop-color="#E2E2E2"/>
</linearGradient>
<linearGradient id="paint14_linear_1815_14214" x1="114.427" y1="669.13" x2="109.283" y2="637.404" gradientUnits="userSpaceOnUse">
<stop stop-color="#E2E2E2"/>
<stop offset="0.79" stop-color="#E2E2E2"/>
</linearGradient>
<linearGradient id="paint15_linear_1815_14214" x1="107.483" y1="655.172" x2="102.339" y2="623.446" gradientUnits="userSpaceOnUse">
<stop stop-color="#E2E2E2"/>
<stop offset="0.79" stop-color="#E2E2E2"/>
</linearGradient>
<linearGradient id="paint16_linear_1815_14214" x1="65.7781" y1="634.337" x2="45.0181" y2="658.86" gradientUnits="userSpaceOnUse">
<stop stop-color="#E2E2E2"/>
<stop offset="0.79" stop-color="#E2E2E2"/>
<stop offset="1" stop-color="#6F9A3A"/>
</linearGradient>
<linearGradient id="paint17_linear_1815_14214" x1="61.3447" y1="647.326" x2="91.0852" y2="635.14" gradientUnits="userSpaceOnUse">
<stop stop-color="#E2E2E2"/>
<stop offset="0.79" stop-color="#E2E2E2"/>
<stop offset="1" stop-color="#6F9A3A"/>
</linearGradient>
<linearGradient id="paint18_linear_1815_14214" x1="55.4793" y1="665.453" x2="85.2198" y2="653.267" gradientUnits="userSpaceOnUse">
<stop stop-color="#E2E2E2"/>
<stop offset="0.79" stop-color="#E2E2E2"/>
<stop offset="1" stop-color="#6F9A3A"/>
</linearGradient>
<linearGradient id="paint19_linear_1815_14214" x1="48.068" y1="661.292" x2="77.8085" y2="649.106" gradientUnits="userSpaceOnUse">
<stop stop-color="#E2E2E2"/>
<stop offset="0.79" stop-color="#E2E2E2"/>
<stop offset="1" stop-color="#6F9A3A"/>
</linearGradient>
<linearGradient id="paint20_linear_1815_14214" x1="77.3512" y1="649.496" x2="64.8848" y2="619.883" gradientUnits="userSpaceOnUse">
<stop stop-color="#E2E2E2"/>
<stop offset="0.79" stop-color="#E2E2E2"/>
<stop offset="1" stop-color="#6F9A3A"/>
</linearGradient>
<linearGradient id="paint21_linear_1815_14214" x1="84.3945" y1="655.183" x2="114.135" y2="642.998" gradientUnits="userSpaceOnUse">
<stop stop-color="#E2E2E2"/>
<stop offset="0.79" stop-color="#E2E2E2"/>
<stop offset="1" stop-color="#6F9A3A"/>
</linearGradient>
<linearGradient id="paint22_linear_1815_14214" x1="103.909" y1="630.291" x2="117.022" y2="659.634" gradientUnits="userSpaceOnUse">
<stop stop-color="#E2E2E2"/>
<stop offset="0.79" stop-color="#E2E2E2"/>
<stop offset="1" stop-color="#6F9A3A"/>
</linearGradient>
<linearGradient id="paint23_linear_1815_14214" x1="115.955" y1="651.12" x2="83.8673" y2="649.282" gradientUnits="userSpaceOnUse">
<stop stop-color="#E2E2E2"/>
<stop offset="0.79" stop-color="#E2E2E2"/>
<stop offset="1" stop-color="#6F9A3A"/>
</linearGradient>
<linearGradient id="paint24_linear_1815_14214" x1="84.0142" y1="638.054" x2="97.1237" y2="667.388" gradientUnits="userSpaceOnUse">
<stop stop-color="#E2E2E2"/>
<stop offset="0.79" stop-color="#E2E2E2"/>
<stop offset="1" stop-color="#6F9A3A"/>
</linearGradient>
<linearGradient id="paint25_linear_1815_14214" x1="88.4477" y1="623.864" x2="102.457" y2="652.779" gradientUnits="userSpaceOnUse">
<stop stop-color="#E2E2E2"/>
<stop offset="0.79" stop-color="#E2E2E2"/>
<stop offset="1" stop-color="#6F9A3A"/>
</linearGradient>
<linearGradient id="paint26_linear_1815_14214" x1="131.372" y1="631.313" x2="110.606" y2="655.844" gradientUnits="userSpaceOnUse">
<stop stop-color="#E2E2E2"/>
<stop offset="0.79" stop-color="#E2E2E2"/>
<stop offset="1" stop-color="#6F9A3A"/>
</linearGradient>
<linearGradient id="paint27_linear_1815_14214" x1="120.829" y1="654.37" x2="100.062" y2="678.9" gradientUnits="userSpaceOnUse">
<stop stop-color="#E2E2E2"/>
<stop offset="0.79" stop-color="#E2E2E2"/>
<stop offset="1" stop-color="#6F9A3A"/>
</linearGradient>
<linearGradient id="paint28_linear_1815_14214" x1="118.62" y1="662.195" x2="106.377" y2="632.478" gradientUnits="userSpaceOnUse">
<stop stop-color="#E2E2E2"/>
<stop offset="0.79" stop-color="#E2E2E2"/>
<stop offset="1" stop-color="#6F9A3A"/>
</linearGradient>
<linearGradient id="paint29_linear_1815_14214" x1="122.517" y1="674.17" x2="116.721" y2="642.557" gradientUnits="userSpaceOnUse">
<stop stop-color="#E2E2E2"/>
<stop offset="0.79" stop-color="#E2E2E2"/>
<stop offset="1" stop-color="#6F9A3A"/>
</linearGradient>
<linearGradient id="paint30_linear_1815_14214" x1="98.9976" y1="624.844" x2="78.2311" y2="649.374" gradientUnits="userSpaceOnUse">
<stop stop-color="#E2E2E2"/>
<stop offset="0.79" stop-color="#E2E2E2"/>
<stop offset="1" stop-color="#6F9A3A"/>
</linearGradient>
<linearGradient id="paint31_linear_1815_14214" x1="104.338" y1="652.135" x2="134.069" y2="639.953" gradientUnits="userSpaceOnUse">
<stop stop-color="#E2E2E2"/>
<stop offset="0.79" stop-color="#E2E2E2"/>
</linearGradient>
<linearGradient id="paint32_linear_1815_14214" x1="105.858" y1="663.204" x2="135.589" y2="651.023" gradientUnits="userSpaceOnUse">
<stop stop-color="#E2E2E2"/>
<stop offset="0.79" stop-color="#E2E2E2"/>
</linearGradient>
<linearGradient id="paint33_linear_1815_14214" x1="76.001" y1="659.703" x2="105.741" y2="647.518" gradientUnits="userSpaceOnUse">
<stop stop-color="#E2E2E2"/>
<stop offset="0.79" stop-color="#E2E2E2"/>
</linearGradient>
<linearGradient id="paint34_linear_1815_14214" x1="133.919" y1="645.458" x2="111.713" y2="668.679" gradientUnits="userSpaceOnUse">
<stop stop-color="#E2E2E2"/>
<stop offset="0.79" stop-color="#E2E2E2"/>
</linearGradient>
<linearGradient id="paint35_linear_1815_14214" x1="83.241" y1="663.924" x2="78.0985" y2="632.208" gradientUnits="userSpaceOnUse">
<stop stop-color="#E2E2E2"/>
<stop offset="0.79" stop-color="#E2E2E2"/>
</linearGradient>
<linearGradient id="paint36_linear_1815_14214" x1="94.8758" y1="652.079" x2="89.7333" y2="620.363" gradientUnits="userSpaceOnUse">
<stop stop-color="#E2E2E2"/>
<stop offset="0.79" stop-color="#E2E2E2"/>
</linearGradient>
<linearGradient id="paint37_linear_1815_14214" x1="94.8783" y1="674.275" x2="89.7358" y2="642.559" gradientUnits="userSpaceOnUse">
<stop stop-color="#E2E2E2"/>
<stop offset="0.79" stop-color="#E2E2E2"/>
</linearGradient>
<linearGradient id="paint38_linear_1815_14214" x1="124.647" y1="648.569" x2="119.505" y2="616.853" gradientUnits="userSpaceOnUse">
<stop stop-color="#E2E2E2"/>
<stop offset="0.79" stop-color="#E2E2E2"/>
</linearGradient>
<linearGradient id="paint39_linear_1815_14214" x1="140.286" y1="671.046" x2="135.142" y2="639.32" gradientUnits="userSpaceOnUse">
<stop stop-color="#E2E2E2"/>
<stop offset="0.79" stop-color="#E2E2E2"/>
</linearGradient>
<linearGradient id="paint40_linear_1815_14214" x1="133.342" y1="657.077" x2="128.199" y2="625.361" gradientUnits="userSpaceOnUse">
<stop stop-color="#E2E2E2"/>
<stop offset="0.79" stop-color="#E2E2E2"/>
</linearGradient>
<linearGradient id="paint41_linear_1815_14214" x1="91.6437" y1="636.254" x2="70.8838" y2="660.776" gradientUnits="userSpaceOnUse">
<stop stop-color="#E2E2E2"/>
<stop offset="0.79" stop-color="#E2E2E2"/>
<stop offset="1" stop-color="#6F9A3A"/>
</linearGradient>
<linearGradient id="paint42_linear_1815_14214" x1="87.2024" y1="649.245" x2="116.943" y2="637.06" gradientUnits="userSpaceOnUse">
<stop stop-color="#E2E2E2"/>
<stop offset="0.79" stop-color="#E2E2E2"/>
<stop offset="1" stop-color="#6F9A3A"/>
</linearGradient>
<linearGradient id="paint43_linear_1815_14214" x1="81.3434" y1="667.359" x2="111.075" y2="655.178" gradientUnits="userSpaceOnUse">
<stop stop-color="#E2E2E2"/>
<stop offset="0.79" stop-color="#E2E2E2"/>
<stop offset="1" stop-color="#6F9A3A"/>
</linearGradient>
<linearGradient id="paint44_linear_1815_14214" x1="73.9359" y1="663.207" x2="103.667" y2="651.026" gradientUnits="userSpaceOnUse">
<stop stop-color="#E2E2E2"/>
<stop offset="0.79" stop-color="#E2E2E2"/>
<stop offset="1" stop-color="#6F9A3A"/>
</linearGradient>
<linearGradient id="paint45_linear_1815_14214" x1="103.21" y1="651.413" x2="90.7398" y2="621.791" gradientUnits="userSpaceOnUse">
<stop stop-color="#E2E2E2"/>
<stop offset="0.79" stop-color="#E2E2E2"/>
<stop offset="1" stop-color="#6F9A3A"/>
</linearGradient>
<linearGradient id="paint46_linear_1815_14214" x1="110.253" y1="657.103" x2="139.994" y2="644.917" gradientUnits="userSpaceOnUse">
<stop stop-color="#E2E2E2"/>
<stop offset="0.79" stop-color="#E2E2E2"/>
<stop offset="1" stop-color="#6F9A3A"/>
</linearGradient>
<linearGradient id="paint47_linear_1815_14214" x1="129.77" y1="632.206" x2="142.884" y2="661.549" gradientUnits="userSpaceOnUse">
<stop stop-color="#E2E2E2"/>
<stop offset="0.79" stop-color="#E2E2E2"/>
<stop offset="1" stop-color="#6F9A3A"/>
</linearGradient>
<linearGradient id="paint48_linear_1815_14214" x1="141.807" y1="653.033" x2="109.73" y2="651.195" gradientUnits="userSpaceOnUse">
<stop stop-color="#E2E2E2"/>
<stop offset="0.79" stop-color="#E2E2E2"/>
<stop offset="1" stop-color="#6F9A3A"/>
</linearGradient>
<linearGradient id="paint49_linear_1815_14214" x1="109.872" y1="639.959" x2="122.986" y2="669.302" gradientUnits="userSpaceOnUse">
<stop stop-color="#E2E2E2"/>
<stop offset="0.79" stop-color="#E2E2E2"/>
<stop offset="1" stop-color="#6F9A3A"/>
</linearGradient>
<linearGradient id="paint50_linear_1815_14214" x1="75.0025" y1="605.699" x2="89.0161" y2="634.623" gradientUnits="userSpaceOnUse">
<stop stop-color="#E2E2E2"/>
<stop offset="0.79" stop-color="#E2E2E2"/>
<stop offset="1" stop-color="#6F9A3A"/>
</linearGradient>
<linearGradient id="paint51_linear_1815_14214" x1="117.936" y1="613.152" x2="97.1691" y2="637.682" gradientUnits="userSpaceOnUse">
<stop stop-color="#E2E2E2"/>
<stop offset="0.79" stop-color="#E2E2E2"/>
<stop offset="1" stop-color="#6F9A3A"/>
</linearGradient>
<linearGradient id="paint52_linear_1815_14214" x1="107.385" y1="636.216" x2="86.6253" y2="660.738" gradientUnits="userSpaceOnUse">
<stop stop-color="#E2E2E2"/>
<stop offset="0.79" stop-color="#E2E2E2"/>
<stop offset="1" stop-color="#6F9A3A"/>
</linearGradient>
<linearGradient id="paint53_linear_1815_14214" x1="105.179" y1="644.035" x2="92.9365" y2="614.318" gradientUnits="userSpaceOnUse">
<stop stop-color="#E2E2E2"/>
<stop offset="0.79" stop-color="#E2E2E2"/>
<stop offset="1" stop-color="#6F9A3A"/>
</linearGradient>
<linearGradient id="paint54_linear_1815_14214" x1="109.082" y1="656.005" x2="103.286" y2="624.392" gradientUnits="userSpaceOnUse">
<stop stop-color="#E2E2E2"/>
<stop offset="0.79" stop-color="#E2E2E2"/>
<stop offset="1" stop-color="#6F9A3A"/>
</linearGradient>
<linearGradient id="paint55_linear_1815_14214" x1="85.5541" y1="606.689" x2="64.7942" y2="631.212" gradientUnits="userSpaceOnUse">
<stop stop-color="#E2E2E2"/>
<stop offset="0.79" stop-color="#E2E2E2"/>
<stop offset="1" stop-color="#6F9A3A"/>
</linearGradient>
<linearGradient id="paint56_linear_1815_14214" x1="90.8896" y1="633.977" x2="120.63" y2="621.792" gradientUnits="userSpaceOnUse">
<stop stop-color="#E2E2E2"/>
<stop offset="0.79" stop-color="#E2E2E2"/>
</linearGradient>
<linearGradient id="paint57_linear_1815_14214" x1="92.4058" y1="645.038" x2="122.146" y2="632.853" gradientUnits="userSpaceOnUse">
<stop stop-color="#E2E2E2"/>
<stop offset="0.79" stop-color="#E2E2E2"/>
</linearGradient>
<linearGradient id="paint58_linear_1815_14214" x1="62.559" y1="641.533" x2="92.2903" y2="629.351" gradientUnits="userSpaceOnUse">
<stop stop-color="#E2E2E2"/>
<stop offset="0.79" stop-color="#E2E2E2"/>
</linearGradient>
<linearGradient id="paint59_linear_1815_14214" x1="120.486" y1="627.298" x2="98.2726" y2="650.526" gradientUnits="userSpaceOnUse">
<stop stop-color="#E2E2E2"/>
<stop offset="0.79" stop-color="#E2E2E2"/>
</linearGradient>
<linearGradient id="paint60_linear_1815_14214" x1="69.7906" y1="645.763" x2="64.6481" y2="614.047" gradientUnits="userSpaceOnUse">
<stop stop-color="#E2E2E2"/>
<stop offset="0.79" stop-color="#E2E2E2"/>
</linearGradient>
<linearGradient id="paint61_linear_1815_14214" x1="81.4353" y1="633.917" x2="76.2928" y2="602.201" gradientUnits="userSpaceOnUse">
<stop stop-color="#E2E2E2"/>
<stop offset="0.79" stop-color="#E2E2E2"/>
</linearGradient>
<linearGradient id="paint62_linear_1815_14214" x1="81.4378" y1="656.112" x2="76.2953" y2="624.396" gradientUnits="userSpaceOnUse">
<stop stop-color="#E2E2E2"/>
<stop offset="0.79" stop-color="#E2E2E2"/>
</linearGradient>
<linearGradient id="paint63_linear_1815_14214" x1="111.209" y1="630.416" x2="106.065" y2="598.69" gradientUnits="userSpaceOnUse">
<stop stop-color="#E2E2E2"/>
<stop offset="0.79" stop-color="#E2E2E2"/>
</linearGradient>
<linearGradient id="paint64_linear_1815_14214" x1="126.846" y1="652.883" x2="121.702" y2="621.157" gradientUnits="userSpaceOnUse">
<stop stop-color="#E2E2E2"/>
<stop offset="0.79" stop-color="#E2E2E2"/>
</linearGradient>
<linearGradient id="paint65_linear_1815_14214" x1="119.891" y1="638.916" x2="114.749" y2="607.2" gradientUnits="userSpaceOnUse">
<stop stop-color="#E2E2E2"/>
<stop offset="0.79" stop-color="#E2E2E2"/>
</linearGradient>
<linearGradient id="paint66_linear_1815_14214" x1="78.2" y1="618.086" x2="57.4336" y2="642.616" gradientUnits="userSpaceOnUse">
<stop stop-color="#E2E2E2"/>
<stop offset="0.79" stop-color="#E2E2E2"/>
<stop offset="1" stop-color="#6F9A3A"/>
</linearGradient>
<linearGradient id="paint67_linear_1815_14214" x1="73.7643" y1="631.084" x2="103.505" y2="618.899" gradientUnits="userSpaceOnUse">
<stop stop-color="#E2E2E2"/>
<stop offset="0.79" stop-color="#E2E2E2"/>
<stop offset="1" stop-color="#6F9A3A"/>
</linearGradient>
<linearGradient id="paint68_linear_1815_14214" x1="67.895" y1="649.202" x2="97.6355" y2="637.017" gradientUnits="userSpaceOnUse">
<stop stop-color="#E2E2E2"/>
<stop offset="0.79" stop-color="#E2E2E2"/>
<stop offset="1" stop-color="#6F9A3A"/>
</linearGradient>
<linearGradient id="paint69_linear_1815_14214" x1="60.4838" y1="645.041" x2="90.2243" y2="632.856" gradientUnits="userSpaceOnUse">
<stop stop-color="#E2E2E2"/>
<stop offset="0.79" stop-color="#E2E2E2"/>
<stop offset="1" stop-color="#6F9A3A"/>
</linearGradient>
<linearGradient id="paint70_linear_1815_14214" x1="89.7685" y1="633.246" x2="77.3021" y2="603.633" gradientUnits="userSpaceOnUse">
<stop stop-color="#E2E2E2"/>
<stop offset="0.79" stop-color="#E2E2E2"/>
<stop offset="1" stop-color="#6F9A3A"/>
</linearGradient>
<linearGradient id="paint71_linear_1815_14214" x1="96.8102" y1="638.933" x2="126.551" y2="626.747" gradientUnits="userSpaceOnUse">
<stop stop-color="#E2E2E2"/>
<stop offset="0.79" stop-color="#E2E2E2"/>
<stop offset="1" stop-color="#6F9A3A"/>
</linearGradient>
<linearGradient id="paint72_linear_1815_14214" x1="116.329" y1="614.039" x2="129.442" y2="643.382" gradientUnits="userSpaceOnUse">
<stop stop-color="#E2E2E2"/>
<stop offset="0.79" stop-color="#E2E2E2"/>
<stop offset="1" stop-color="#6F9A3A"/>
</linearGradient>
<linearGradient id="paint73_linear_1815_14214" x1="128.364" y1="634.874" x2="96.2871" y2="633.036" gradientUnits="userSpaceOnUse">
<stop stop-color="#E2E2E2"/>
<stop offset="0.79" stop-color="#E2E2E2"/>
<stop offset="1" stop-color="#6F9A3A"/>
</linearGradient>
<linearGradient id="paint74_linear_1815_14214" x1="96.4343" y1="621.802" x2="109.544" y2="651.136" gradientUnits="userSpaceOnUse">
<stop stop-color="#E2E2E2"/>
<stop offset="0.79" stop-color="#E2E2E2"/>
<stop offset="1" stop-color="#6F9A3A"/>
</linearGradient>
</defs>
</svg>
