<svg width="651" height="721" viewBox="0 0 651 721" fill="none" xmlns="http://www.w3.org/2000/svg">
<path d="M288.48 676.86C276.96 682.48 265.24 682.71 257.47 682.03C250.63 682.24 239.89 681.61 229.24 676.46C222.99 673.44 219.82 670.34 218.26 668.62C216.56 666.75 213.19 662.98 211.8 657.07C211.38 655.3 211.16 653.45 211.16 651.55C211.16 638.26 222.04 627.38 235.33 627.38H280.98C294.27 627.38 305.15 638.26 305.15 651.55C305.1 654.81 304.51 662.31 299.22 668.9C298.13 670.26 295.25 673.55 288.49 676.85L288.48 676.86Z" fill="#7F7F7F"/>
<path d="M421.52 676.86C410 682.48 398.28 682.71 390.51 682.03C383.67 682.24 372.93 681.61 362.28 676.46C356.03 673.44 352.86 670.34 351.3 668.62C349.6 666.75 346.23 662.98 344.84 657.07C344.42 655.3 344.2 653.45 344.2 651.55C344.2 638.26 355.08 627.38 368.37 627.38H414.02C427.31 627.38 438.19 638.26 438.19 651.55C438.14 654.81 437.55 662.31 432.26 668.9C431.17 670.26 428.29 673.55 421.53 676.85L421.52 676.86Z" fill="#7F7F7F"/>
<path d="M443.12 644.07H197.97C181.89 644.07 169.14 630.51 170.12 614.46L181.08 436.48C183.45 397.96 215.38 367.94 253.97 367.94H387.1C425.69 367.94 457.62 397.96 459.99 436.48L470.95 614.46C471.94 630.51 459.19 644.07 443.1 644.07H443.12Z" fill="white"/>
<path d="M268.51 447.8C274.37 447.8 279.12 443.05 279.12 437.19C279.12 431.33 274.37 426.58 268.51 426.58C262.651 426.58 257.9 431.33 257.9 437.19C257.9 443.05 262.651 447.8 268.51 447.8Z" fill="#E8E8E8"/>
<path d="M360.92 447.8C366.779 447.8 371.53 443.05 371.53 437.19C371.53 431.33 366.779 426.58 360.92 426.58C355.06 426.58 350.31 431.33 350.31 437.19C350.31 443.05 355.06 447.8 360.92 447.8Z" fill="#E8E8E8"/>
<path d="M268.51 485.31C274.37 485.31 279.12 480.56 279.12 474.7C279.12 468.84 274.37 464.09 268.51 464.09C262.651 464.09 257.9 468.84 257.9 474.7C257.9 480.56 262.651 485.31 268.51 485.31Z" fill="#E8E8E8"/>
<path d="M360.92 485.31C366.779 485.31 371.53 480.56 371.53 474.7C371.53 468.84 366.779 464.09 360.92 464.09C355.06 464.09 350.31 468.84 350.31 474.7C350.31 480.56 355.06 485.31 360.92 485.31Z" fill="#E8E8E8"/>
<path d="M268.51 525.9C274.37 525.9 279.12 521.15 279.12 515.29C279.12 509.43 274.37 504.68 268.51 504.68C262.651 504.68 257.9 509.43 257.9 515.29C257.9 521.15 262.651 525.9 268.51 525.9Z" fill="#E8E8E8"/>
<path d="M360.92 525.9C366.779 525.9 371.53 521.15 371.53 515.29C371.53 509.43 366.779 504.68 360.92 504.68C355.06 504.68 350.31 509.43 350.31 515.29C350.31 521.15 355.06 525.9 360.92 525.9Z" fill="#E8E8E8"/>
<path d="M467.92 559.24C428.17 566.1 377.83 571.53 321.56 571.63C263.94 571.73 213.78 566.07 173.36 559.09C173.36 553.98 174.17 549.27 174.17 544.16C215.12 550.83 264.4 555.7 321.56 555.6C377.38 555.5 426.39 550.31 466.64 543.76C466.64 548.87 467.91 554.13 467.91 559.24H467.92Z" fill="#E8E8E8"/>
<path d="M648.85 687.79C434.13 690.35 219.41 692.91 4.69 695.47C3.18 692.14 1.29 687.07 0.44 680.65C0.28 679.43 0 677 0 670.84C0 666.32 0.15 660.06 0.8 652.49H650C650.73 658.62 651.11 665.91 650.57 674.06C650.24 679.07 649.61 683.66 648.84 687.78L648.85 687.79Z" fill="#E5BD7F"/>
<path d="M607.83 720.31H42.88C14.16 720.31 -6.08998 692.13 3.08002 664.91L39.11 557.95C44.86 540.87 60.88 529.36 78.91 529.36H571.8C589.83 529.36 605.84 540.86 611.6 557.95L647.63 664.91C656.8 692.13 636.55 720.31 607.83 720.31Z" fill="#E5BD7F"/>
<path d="M607.83 693.78H42.88C14.16 693.78 -6.08998 665.6 3.08002 638.38L39.11 531.42C44.86 514.34 60.88 502.83 78.91 502.83H571.8C589.83 502.83 605.84 514.33 611.6 531.42L647.63 638.38C656.8 665.6 636.55 693.78 607.83 693.78Z" fill="#F4D5A4"/>
<mask id="mask0_1816_14612" style="mask-type:luminance" maskUnits="userSpaceOnUse" x="0" y="502" width="650" height="192">
<path d="M607.83 693.78H42.88C14.16 693.78 -6.08998 665.6 3.08002 638.38L39.11 531.42C44.86 514.34 60.88 502.83 78.91 502.83H571.8C589.83 502.83 605.84 514.33 611.6 531.42L647.63 638.38C656.8 665.6 636.55 693.78 607.83 693.78Z" fill="white"/>
</mask>
<g mask="url(#mask0_1816_14612)">
<path d="M32.6895 540.49C44.3895 540.48 56.2595 541 67.7495 538.39C73.4395 537.1 79.0395 534.95 83.8095 531.55C89.0195 527.84 92.9995 522.91 95.5395 517.04C98.4395 510.32 99.6095 503.06 101.819 496.11C102.519 493.9 99.0494 492.95 98.3494 495.15C96.4594 501.08 95.3795 507.25 93.2495 513.11C91.1695 518.85 87.8495 523.89 83.0295 527.68C74.2095 534.61 62.4495 536.29 51.5695 536.77C45.2795 537.04 38.9795 536.89 32.6795 536.9C30.3595 536.9 30.3595 540.5 32.6795 540.5L32.6895 540.49Z" fill="#EAC696"/>
<path d="M23.88 563.48C43.82 564.6 63.92 560.71 82.07 552.38C98.95 544.63 113.95 532.86 125.61 518.42C132.07 510.43 137.53 501.68 141.8 492.33C142.75 490.24 139.65 488.41 138.69 490.51C131.31 506.68 120.35 521.08 106.75 532.52C92.28 544.69 74.89 553.13 56.45 557.24C45.77 559.62 34.8 560.49 23.88 559.88C21.57 559.75 21.57 563.35 23.88 563.48Z" fill="#EAC696"/>
<path d="M6.74929 588.85C25.1093 592.41 44.0093 592.51 62.4193 589.27C80.8293 586.03 97.6993 579.68 113.409 570.4C127.319 562.19 139.989 552.06 152.319 541.68C164.649 531.3 176.849 520.38 189.859 510.66C202.469 501.23 216.009 492.78 230.869 487.4C232.739 486.72 234.639 486.09 236.539 485.51C238.749 484.83 237.809 481.36 235.579 482.04C220.389 486.7 206.409 494.46 193.469 503.6C180.349 512.88 168.209 523.44 155.999 533.85C143.789 544.26 131.449 554.61 117.959 563.34C103.079 572.98 86.8393 580.13 69.5393 584.15C51.5893 588.32 32.7893 589.22 14.5393 586.55C12.2393 586.21 9.95929 585.82 7.67929 585.38C5.39929 584.94 4.44929 588.41 6.71929 588.85H6.74929Z" fill="#EAC696"/>
<path d="M-5.35027 628.87C19.0697 631.15 44.1397 633.35 68.3297 627.96C80.1097 625.34 91.2197 620.7 101.42 614.26C111.5 607.89 120.64 600.19 129.84 592.64C138.99 585.13 148.35 577.98 158.29 571.54C168.23 565.1 178.29 559.38 188.65 553.94C209.38 543.07 230.82 533.64 252.03 523.75C273.25 513.85 294.32 503.44 314.03 490.73C316.45 489.17 318.85 487.57 321.22 485.94C323.12 484.64 321.32 481.52 319.4 482.83C300.13 496.06 279.33 506.83 258.25 516.85C237.1 526.9 215.61 536.24 194.7 546.79C174 557.23 153.92 568.94 135.68 583.32C126.32 590.7 117.39 598.61 107.74 605.61C98.0897 612.61 87.6697 618.54 76.2097 622.14C52.7497 629.49 27.6497 628.18 3.48973 626.08C0.539729 625.82 -2.40027 625.55 -5.34027 625.28C-7.64027 625.06 -7.63027 628.66 -5.34027 628.88L-5.35027 628.87Z" fill="#EAC696"/>
<path d="M74.7899 700.7C90.5199 706.15 107.69 704.23 122.99 698.32C139.19 692.07 153.07 681.73 165.7 670C178.79 657.85 190.63 644.43 203.84 632.4C216.44 620.93 230.39 611.08 245.11 602.54C259.89 593.97 275.38 586.68 291.13 580.11C306.92 573.52 322.99 567.62 339.07 561.77C354.74 556.07 370.44 550.45 385.9 544.2C400.8 538.18 415.5 531.63 429.7 524.12C443.84 516.64 457.48 508.19 470.14 498.39C482.57 488.78 494 477.84 503.7 465.47C506.09 462.42 508.38 459.3 510.56 456.1C511.87 454.18 508.75 452.38 507.45 454.28C498.66 467.17 488.01 478.7 476.18 488.85C464.27 499.07 451.21 507.88 437.6 515.66C423.69 523.62 409.19 530.52 394.44 536.79C379.58 543.11 364.44 548.71 349.27 554.23C333.19 560.08 317.08 565.85 301.17 572.16C285.42 578.4 269.85 585.16 254.84 593.05C239.96 600.87 225.68 609.83 212.51 620.29C199.34 630.75 186.74 644.09 174.37 656.54C162.2 668.79 149.44 680.78 134.2 689.14C119.98 696.94 103.55 701.88 87.2199 699.91C83.3099 699.44 79.4599 698.5 75.7499 697.21C73.5599 696.45 72.6199 699.92 74.7899 700.68V700.7Z" fill="#EAC696"/>
<path d="M589.16 705.9C569 703.73 547.5 701.34 530.37 689.5C516.99 680.26 506.73 662.5 510.4 645.9C514.49 627.43 533.92 619.5 550.5 615.8C570.63 611.31 591.64 610.6 612.05 613.53C632.51 616.46 652.47 622.94 670.62 632.83C672.85 634.05 675.05 635.32 677.23 636.63C679.22 637.83 681.03 634.72 679.05 633.52C660.67 622.42 640.21 614.8 619.07 611.03C597.89 607.25 576.09 607.23 554.94 611.22C537.07 614.59 516.11 621.41 508.57 639.74C501.59 656.71 510.1 676.41 522.92 688.12C538.57 702.42 560.88 706.21 581.17 708.6C583.83 708.91 586.49 709.2 589.16 709.49C590.13 709.59 590.95 708.59 590.96 707.69C590.97 706.63 590.12 705.99 589.16 705.89V705.9Z" fill="#EAC696"/>
<path d="M622.94 705.56C607.01 702.62 591.649 696.97 577.649 688.82C566.119 682.11 550.599 672.39 551.339 657.07C551.979 643.94 565.679 632.01 578.739 633.22C585.739 633.87 592.24 637.75 598.38 640.85C604.03 643.7 609.77 646.34 615.69 648.6C629.22 653.78 643.4 657.05 657.77 658.83C659.96 659.1 662.159 659.33 664.359 659.54C666.559 659.75 666.649 656.15 664.359 655.94C648.909 654.52 633.609 651.34 619.029 646.02C613.069 643.85 607.29 641.28 601.62 638.45C594.98 635.13 588.169 631.04 580.729 629.87C566.509 627.64 551.91 638.57 548.45 652.28C546.62 659.53 548.45 667.03 552.68 673.1C556.91 679.17 563.349 684 569.739 688.16C583.779 697.31 599.48 703.99 615.82 707.75C617.86 708.22 619.919 708.64 621.979 709.02C624.239 709.44 625.21 705.97 622.94 705.55V705.56Z" fill="#EAC696"/>
<path d="M537.289 496.54C535.519 505.55 532 514.12 526.89 521.75C524.29 525.64 521.269 529.21 517.939 532.49C514.609 535.77 510.75 539.05 507.2 542.38C500.43 548.74 494.069 556.33 492.419 565.76C491.009 573.82 493.669 581.79 500.139 586.91C505.939 591.5 513.609 593.59 520.939 593.13C529.839 592.57 538.109 588.29 545.189 583.1C559.999 572.25 571.639 555.71 590.119 550.78C599.729 548.21 609.8 548.54 619.52 546.55C627.33 544.95 635.459 541.69 640.779 535.52C642.089 534.01 643.209 532.36 644.109 530.57C645.139 528.51 642.039 526.68 640.999 528.75C637.469 535.79 630.359 539.8 623.039 541.96C614.069 544.61 604.599 544.51 595.419 545.99C590.709 546.75 586.139 547.99 581.779 549.94C577.749 551.75 573.99 554.13 570.46 556.77C563.27 562.15 556.989 568.56 550.229 574.44C543.469 580.32 536.159 585.74 527.549 588.27C520.679 590.29 513.139 589.98 506.659 586.77C500.179 583.56 495.67 577.74 495.6 570.4C495.51 561.29 501.189 553.36 507.369 547.2C514.009 540.57 521.469 534.89 527.229 527.4C532.619 520.39 536.7 512.38 539.2 503.9C539.82 501.78 540.34 499.64 540.76 497.47C541.18 495.3 537.739 494.24 537.289 496.51V496.54Z" fill="#EAC696"/>
<path d="M363.6 584.44C370.93 586.07 378.65 585.36 385.58 582.48C392.4 579.64 399.37 574.52 402.36 567.55C403.89 563.98 404.08 560.02 402.19 556.55C400.56 553.54 397.4 551.24 393.88 551.42C390.36 551.6 387.37 554.01 385.09 556.66C382.56 559.61 380.32 562.71 377.48 565.39C374.15 568.53 370.43 570.97 366.45 573.2C362.47 575.43 358.95 579.16 361.14 583.81C362.12 585.9 365.23 584.08 364.25 581.99C363.65 580.72 364.47 579.22 365.36 578.32C366.57 577.09 368.2 576.35 369.69 575.51C372.76 573.79 375.65 571.76 378.32 569.46C380.99 567.16 383.3 564.65 385.44 561.92C387.23 559.63 389.08 556.99 391.72 555.62C394.18 554.35 396.83 555.15 398.46 557.31C400.34 559.79 400.34 562.94 399.23 565.75C396.9 571.69 390.86 576.12 385.25 578.7C378.84 581.64 371.45 582.47 364.56 580.94C362.3 580.44 361.34 583.91 363.6 584.41V584.44Z" fill="#EAC696"/>
<path d="M513.559 494.54C498.889 499.14 488.529 511.75 481.759 525.01C477.619 533.11 474.479 541.66 471.069 550.07C467.659 558.48 463.879 566.42 459.019 573.96C449.319 588.98 436.809 602 424.819 615.17C411.749 629.54 398.619 643.85 385.429 658.11C372.239 672.37 358.879 686.7 345.509 700.9C343.869 702.64 342.239 704.38 340.599 706.11C338.959 707.84 341.549 710.34 343.139 708.65C356.409 694.57 369.619 680.44 382.769 666.26C395.919 652.08 408.899 637.96 421.879 623.72C434.029 610.39 446.709 597.3 457.349 582.7C462.509 575.62 467.019 568.12 470.649 560.14C474.279 552.16 477.399 543.43 480.969 535.16C486.979 521.24 495.379 506.87 509.529 499.95C511.149 499.16 512.819 498.51 514.529 497.98C516.729 497.29 515.789 493.81 513.569 494.51L513.559 494.54Z" fill="#EAC696"/>
<path d="M219.19 709.82C225.83 697.01 233.96 685 243.42 674.11C252.88 663.22 263.57 653.4 275.29 645C281.13 640.81 287.21 636.97 293.51 633.5C296.4 631.91 299.31 630.44 302.51 629.58C305.22 628.85 308.29 628.43 310.98 629.49C318.15 632.31 315.01 641.68 313.19 646.96C310.27 655.43 307.35 663.9 304.42 672.37C298.55 689.39 292.68 706.41 286.81 723.43C286.08 725.55 285.35 727.67 284.62 729.78C283.89 731.89 287.34 732.92 288.09 730.74C294.2 713.01 300.32 695.29 306.43 677.56C309.46 668.77 312.49 659.99 315.52 651.2C317.85 644.46 321.73 635.57 316.49 629.18C312.13 623.87 304.39 624.87 298.68 627.03C295.39 628.27 292.32 630 289.27 631.75C285.98 633.63 282.75 635.62 279.58 637.7C267.06 645.94 255.52 655.69 245.3 666.66C235.08 677.63 226.07 689.92 218.75 703.07C217.84 704.7 216.96 706.34 216.11 707.99C215.05 710.04 218.15 711.87 219.22 709.81L219.19 709.82Z" fill="#EAC696"/>
<path d="M635.63 701.37C629.16 701.04 622.73 699.5 616.84 696.79C610.95 694.08 605.44 690.58 601.4 685.79C599.49 683.52 598.08 680.56 598.7 677.54C599.27 674.7 601.59 673.06 604.41 672.95C607.61 672.83 610.49 674.4 613.14 676.03C616.32 677.99 619.45 680.03 622.6 682.03C630.04 686.76 637.47 691.48 644.91 696.21C646.87 697.46 648.68 694.34 646.73 693.1C639.43 688.46 632.14 683.83 624.84 679.19C621.31 676.95 617.82 674.61 614.22 672.47C611.16 670.65 607.68 669.09 604.04 669.37C600.68 669.62 597.46 671.29 595.98 674.44C594.5 677.59 594.77 681.11 596.15 684.19C597.63 687.48 600.32 690.09 603.06 692.35C605.8 694.61 608.86 696.7 612.06 698.42C619.33 702.32 627.41 704.55 635.65 704.97C637.96 705.09 637.96 701.49 635.65 701.37H635.63Z" fill="#EAC696"/>
<path d="M418.01 696.18C424.46 677.2 435.77 659.98 450.55 646.46C452.39 644.77 454.29 643.14 456.24 641.58C458.19 640.02 460.28 638.37 462.63 637.37C464.69 636.49 467.07 636.18 469.05 637.43C470.49 638.34 471.37 639.9 471.89 641.49C473.31 645.82 472.81 650.56 472.66 655.03C472.46 661.18 472.25 667.32 472.05 673.47C471.59 687.34 471.13 701.21 470.67 715.08C470.59 717.4 474.19 717.39 474.27 715.08C474.7 701.96 475.14 688.84 475.57 675.71C475.78 669.23 476 662.75 476.21 656.28C476.37 651.33 476.9 646.15 475.58 641.3C474.4 636.96 471.35 633.32 466.62 633C461.14 632.63 456.37 636.81 452.44 640.07C444.2 646.89 436.92 654.83 430.73 663.54C423.83 673.25 418.38 683.96 414.55 695.24C413.8 697.44 417.28 698.38 418.02 696.2L418.01 696.18Z" fill="#EAC696"/>
<path d="M404.63 489.03C376.01 491.47 348.49 500.35 322.61 512.57C296.31 524.99 271.7 540.66 247.64 556.91C225.3 571.99 203.01 587.24 181.56 603.57C160.73 619.42 140.65 636.44 123.04 655.86C105.8 674.87 91.0499 696.21 81.0599 719.92C79.8499 722.78 78.7199 725.68 77.6499 728.6C76.8499 730.78 80.3299 731.72 81.1199 729.56C89.8299 705.73 103.53 684.03 119.97 664.79C136.76 645.13 156.21 627.89 176.53 611.98C197.29 595.72 219.05 580.78 240.82 565.91C264.58 549.67 288.69 533.76 314.35 520.65C339.51 507.79 366.33 497.73 394.41 493.78C397.81 493.3 401.22 492.93 404.63 492.64C406.92 492.44 406.94 488.84 404.63 489.04V489.03Z" fill="#EAC696"/>
</g>
<path d="M413.248 516.259L351.377 503.221C344.892 501.854 338.527 506.003 337.16 512.488L331.97 537.117C330.604 543.602 334.753 549.967 341.238 551.334L403.109 564.372C409.594 565.739 415.959 561.589 417.326 555.104L422.516 530.475C423.882 523.99 419.733 517.625 413.248 516.259Z" fill="#F2A100"/>
<path d="M243.42 563.21L245.54 541.91L231.71 539.55L234.73 515.84L251.9 518.02L350.04 530.5C358.03 531.52 365.62 534.72 372.09 539.94C374.65 542 377.25 544.5 379.75 547.53C390.76 560.88 392.85 576.2 393.37 581.68C368.38 578.6 343.39 575.52 243.42 563.2V563.21Z" fill="#E5E5E5"/>
<mask id="mask1_1816_14612" style="mask-type:luminance" maskUnits="userSpaceOnUse" x="231" y="515" width="163" height="67">
<path d="M243.42 563.21L245.54 541.91L231.71 539.55L234.73 515.84L251.9 518.02L350.04 530.5C358.03 531.52 365.62 534.72 372.09 539.94C374.65 542 377.25 544.5 379.75 547.53C390.76 560.88 392.85 576.2 393.37 581.68C368.38 578.6 343.39 575.52 243.42 563.2V563.21Z" fill="white"/>
</mask>
<g mask="url(#mask1_1816_14612)">
<path opacity="0.66" d="M238.905 551.666L232.003 605.919L388.948 625.885L395.85 571.632L238.905 551.666Z" fill="white"/>
</g>
<path d="M151.168 507.428L148.484 528.528C148.118 531.41 150.156 534.044 153.038 534.41L220.921 543.046C223.803 543.413 226.436 541.374 226.803 538.492L229.487 517.392C229.854 514.51 227.815 511.877 224.933 511.51L157.05 502.874C154.168 502.508 151.535 504.547 151.168 507.428Z" fill="#878787"/>
<path d="M219.609 526.89C218.649 534.45 218.139 538.75 219.639 541.46C220.289 542.64 221.099 543.14 221.689 543.38L230.709 544.53C231.119 544.51 232.119 544.38 233.169 543.19C233.809 542.46 234.229 541.62 234.469 541.06C234.309 538.04 234.289 533.63 234.959 528.33C235.619 523.16 236.709 518.98 237.589 516.13C237.319 515.38 237.039 514.82 236.829 514.43C236.439 513.71 236.089 513.09 235.489 512.75C235.269 512.62 235.029 512.54 234.779 512.51L225.759 511.36C225.129 511.45 224.219 511.73 223.299 512.7C221.159 514.96 220.579 519.29 219.609 526.88V526.89Z" fill="#A5A5A5"/>
<path opacity="0.66" d="M374.36 568.92L339.07 529.55L308.07 525.42L339.76 565.06" fill="white"/>
<path opacity="0.66" d="M314.62 561.54L286.43 522.46L267.49 520.21L294.45 558.66" fill="white"/>
<path d="M232.26 424.9L225.81 502.97C224.4 520.06 211.88 531.83 198 529.11L195.45 528.61C181.57 525.89 171.36 509.68 172.78 492.59L179.23 414.52C180.64 397.43 193.16 385.66 207.04 388.38L209.59 388.88C223.47 391.6 233.68 407.81 232.26 424.9Z" fill="white"/>
<path d="M174.27 507.28C169.83 520.57 182.27 538.21 198.21 539.52C212.41 540.69 227.37 528.74 226.77 514.91C226.21 502.04 212.43 493.12 200.37 492.49C190.28 491.96 177.69 497.04 174.27 507.28Z" fill="#457DB1"/>
<path d="M409.96 423.61L396.49 501.1C393.54 518.07 403.11 532.69 417.75 533.6L420.44 533.77C435.09 534.68 449.48 521.54 452.43 504.57L465.9 427.08C468.85 410.11 459.28 395.49 444.64 394.58L441.95 394.41C427.3 393.5 412.91 406.64 409.96 423.61Z" fill="white"/>
<path d="M444.14 518.97C444.69 532.97 427.82 546.43 412.15 543.24C398.19 540.4 387.16 524.74 391.6 511.63C395.73 499.43 411.46 494.71 423.21 497.47C433.05 499.78 443.71 508.17 444.14 518.96V518.97Z" fill="#457DB1"/>
<path d="M342.009 556.744L316.157 551.296C309.672 549.93 303.307 554.079 301.941 560.564L299.472 572.277C298.106 578.762 302.255 585.127 308.74 586.493L334.592 591.941C341.077 593.308 347.442 589.158 348.809 582.673L351.277 570.961C352.644 564.476 348.494 558.111 342.009 556.744Z" fill="#F2A100"/>
<path d="M338.019 584.022L297.743 575.535C296.668 575.308 295.612 575.996 295.386 577.072L294.491 581.318C294.264 582.394 294.952 583.449 296.028 583.676L336.303 592.163C337.378 592.39 338.434 591.702 338.661 590.627L339.555 586.38C339.782 585.304 339.094 584.249 338.019 584.022Z" fill="#D88B03"/>
<path d="M299.834 568.11L279.148 563.751C272.663 562.384 266.298 566.533 264.932 573.018L263.239 581.052C261.872 587.537 266.022 593.902 272.507 595.268L293.192 599.627C299.677 600.994 306.042 596.845 307.409 590.36L309.102 582.326C310.468 575.841 306.319 569.476 299.834 568.11Z" fill="#F2A100"/>
<path d="M296.272 591.698L255.997 583.211C254.922 582.984 253.866 583.672 253.639 584.748L252.745 588.994C252.518 590.07 253.206 591.125 254.281 591.352L294.557 599.839C295.632 600.066 296.688 599.378 296.914 598.302L297.809 594.056C298.036 592.98 297.348 591.925 296.272 591.698Z" fill="#D88B03"/>
<path d="M268.066 581.492L253.917 578.51C247.432 577.143 241.067 581.293 239.7 587.778L238.991 591.144C237.624 597.629 241.774 603.994 248.259 605.36L262.408 608.342C268.893 609.709 275.258 605.559 276.624 599.074L277.334 595.708C278.7 589.223 274.551 582.858 268.066 581.492Z" fill="#F2A100"/>
<path d="M533.12 640.39C530.06 635.13 526.64 629.25 520.75 626.09C513.04 628.66 503.98 627.88 496.88 632.02C492.62 634.51 489.39 638.71 488.09 643.48C488.09 643.4 488.08 643.32 488.07 643.24C487.22 646.01 486.67 649.26 487.19 652.46C488.5 654.32 490.96 657.18 494.89 658.55C497.82 659.57 501.37 660.31 507.66 659.37C513.14 658.55 515.86 663.13 518.54 661.5C521.31 659.81 520.73 659.13 524.57 656.58C529.4 653.38 532.45 649.55 533.54 649.52C535.19 649.48 536.03 647.16 536.94 647.43C535.77 644.94 534.37 642.53 533.12 640.38V640.39Z" fill="#F2DA9E"/>
<path d="M496.879 632.03C503.989 627.89 513.039 628.67 520.749 626.1C519.319 625.33 517.749 624.72 516.009 624.32C509.179 622.75 501.829 624.85 496.819 628.99C493.759 631.52 492.199 634.29 491.119 636.25C490.539 637.31 489.089 639.94 488.069 643.25C488.069 643.33 488.079 643.41 488.089 643.49C489.389 638.73 492.619 634.52 496.879 632.03Z" fill="#F2DA9E"/>
<g opacity="0.64">
<path d="M496.89 632.04C504 627.9 513.05 628.68 520.76 626.11C519.33 625.34 517.76 624.73 516.02 624.33C509.19 622.76 501.84 624.86 496.83 629C493.77 631.53 492.21 634.3 491.13 636.26C490.55 637.32 489.1 639.95 488.08 643.26C488.08 643.34 488.09 643.42 488.1 643.5C489.4 638.74 492.63 634.53 496.89 632.04Z" fill="white"/>
</g>
<path d="M516.009 669.43C520.189 669.62 533.969 670.26 538.309 662.17C540.699 657.72 539.269 652.39 536.939 647.44C535.859 647.68 534.289 648.12 532.519 648.96C528.659 650.8 527.139 653 524.909 654.72C521.629 657.24 518.199 657.63 512.989 658.21C505.189 659.09 499.129 657.24 495.909 656.22C492.149 655.03 489.199 653.58 487.199 652.46C487.279 652.93 487.379 653.4 487.499 653.87C490.549 665.19 507.069 669.01 516.019 669.43H516.009Z" fill="#E8C577"/>
<path d="M555.28 619.82C552.22 614.56 548.8 608.68 542.91 605.52C535.2 608.09 526.14 607.31 519.04 611.45C514.78 613.94 511.55 618.14 510.25 622.91C510.25 622.83 510.24 622.75 510.23 622.67C509.38 625.44 508.83 628.69 509.35 631.89C510.66 633.75 513.12 636.61 517.05 637.98C519.98 639 523.53 639.74 529.82 638.8C535.3 637.98 538.02 642.56 540.7 640.93C543.47 639.24 542.89 638.56 546.73 636.01C551.56 632.81 554.61 628.98 555.7 628.95C557.35 628.91 558.19 626.59 559.1 626.86C557.93 624.37 556.53 621.96 555.28 619.81V619.82Z" fill="#F2DA9E"/>
<path d="M519.039 611.46C526.149 607.32 535.199 608.1 542.909 605.53C541.479 604.76 539.909 604.15 538.169 603.75C531.339 602.18 523.989 604.28 518.979 608.42C515.919 610.95 514.359 613.72 513.279 615.68C512.699 616.74 511.249 619.37 510.229 622.68C510.229 622.76 510.24 622.84 510.25 622.92C511.55 618.16 514.779 613.95 519.039 611.46Z" fill="#F2DA9E"/>
<g opacity="0.64">
<path d="M519.05 611.47C526.16 607.33 535.21 608.11 542.92 605.54C541.49 604.77 539.92 604.16 538.18 603.76C531.35 602.19 524 604.29 518.99 608.43C515.93 610.96 514.37 613.73 513.29 615.69C512.71 616.75 511.26 619.38 510.24 622.69C510.24 622.77 510.25 622.85 510.26 622.93C511.56 618.17 514.79 613.96 519.05 611.47Z" fill="white"/>
</g>
<path d="M538.169 648.86C542.349 649.05 556.129 649.69 560.469 641.6C562.859 637.15 561.429 631.82 559.099 626.87C558.019 627.11 556.449 627.55 554.679 628.39C550.819 630.23 549.299 632.43 547.069 634.15C543.789 636.67 540.359 637.06 535.149 637.64C527.349 638.52 521.289 636.67 518.069 635.65C514.309 634.46 511.359 633.01 509.359 631.89C509.439 632.36 509.539 632.83 509.659 633.3C512.709 644.62 529.229 648.44 538.179 648.86H538.169Z" fill="#E8C577"/>
<path d="M559.39 637.23C556.33 631.97 552.91 626.09 547.02 622.93C539.31 625.5 530.25 624.72 523.15 628.86C518.89 631.35 515.66 635.55 514.36 640.32C514.36 640.24 514.35 640.16 514.34 640.08C513.49 642.85 512.94 646.1 513.46 649.3C514.77 651.16 517.23 654.02 521.16 655.39C524.09 656.41 527.64 657.15 533.93 656.21C539.41 655.39 542.13 659.97 544.81 658.34C547.58 656.65 547 655.97 550.84 653.42C555.67 650.22 558.72 646.39 559.81 646.36C561.46 646.32 562.3 644 563.21 644.27C562.04 641.78 560.64 639.37 559.39 637.22V637.23Z" fill="#F2DA9E"/>
<path d="M523.15 628.86C530.26 624.72 539.31 625.5 547.02 622.93C545.59 622.16 544.02 621.55 542.28 621.15C535.45 619.58 528.1 621.68 523.09 625.82C520.03 628.35 518.47 631.12 517.39 633.08C516.81 634.14 515.36 636.77 514.34 640.08C514.34 640.16 514.35 640.24 514.36 640.32C515.66 635.56 518.89 631.35 523.15 628.86Z" fill="#F2DA9E"/>
<g opacity="0.64">
<path d="M523.16 628.87C530.27 624.73 539.32 625.51 547.03 622.94C545.6 622.17 544.03 621.56 542.29 621.16C535.46 619.59 528.11 621.69 523.1 625.83C520.04 628.36 518.48 631.13 517.4 633.09C516.82 634.15 515.37 636.78 514.35 640.09C514.35 640.17 514.36 640.25 514.37 640.33C515.67 635.57 518.9 631.36 523.16 628.87Z" fill="white"/>
</g>
<path d="M542.28 666.26C546.46 666.45 560.24 667.09 564.58 659C566.97 654.55 565.54 649.22 563.21 644.27C562.13 644.51 560.56 644.95 558.79 645.79C554.93 647.63 553.41 649.83 551.18 651.55C547.9 654.07 544.47 654.46 539.26 655.04C531.46 655.92 525.4 654.07 522.18 653.05C518.42 651.86 515.47 650.41 513.47 649.29C513.55 649.76 513.65 650.23 513.77 650.7C516.82 662.02 533.34 665.84 542.29 666.26H542.28Z" fill="#E8C577"/>
<path d="M585.67 624.22C582.61 618.96 579.19 613.08 573.3 609.92C565.59 612.49 556.53 611.71 549.43 615.85C545.17 618.34 541.94 622.54 540.64 627.31C540.64 627.23 540.63 627.15 540.62 627.07C539.77 629.84 539.22 633.09 539.74 636.29C541.05 638.15 543.51 641.01 547.44 642.38C550.37 643.4 553.92 644.14 560.21 643.2C565.69 642.38 568.41 646.96 571.09 645.33C573.86 643.64 573.28 642.96 577.12 640.41C581.95 637.21 585 633.38 586.09 633.35C587.74 633.31 588.58 630.99 589.49 631.26C588.32 628.77 586.92 626.36 585.67 624.21V624.22Z" fill="#F2DA9E"/>
<path d="M549.43 615.85C556.54 611.71 565.59 612.49 573.3 609.92C571.87 609.15 570.3 608.54 568.56 608.14C561.73 606.57 554.38 608.67 549.37 612.81C546.31 615.34 544.75 618.11 543.67 620.07C543.09 621.13 541.64 623.76 540.62 627.07C540.62 627.15 540.63 627.23 540.64 627.31C541.94 622.55 545.17 618.34 549.43 615.85Z" fill="#F2DA9E"/>
<g opacity="0.64">
<path d="M549.441 615.87C556.551 611.73 565.601 612.51 573.311 609.94C571.881 609.17 570.311 608.56 568.571 608.16C561.741 606.59 554.391 608.69 549.381 612.83C546.321 615.36 544.761 618.13 543.681 620.09C543.101 621.15 541.651 623.78 540.631 627.09C540.631 627.17 540.641 627.25 540.651 627.33C541.951 622.57 545.181 618.36 549.441 615.87Z" fill="white"/>
</g>
<path d="M568.56 653.25C572.74 653.44 586.52 654.08 590.86 645.99C593.25 641.54 591.82 636.21 589.49 631.26C588.41 631.5 586.84 631.94 585.07 632.78C581.21 634.62 579.69 636.82 577.46 638.54C574.18 641.06 570.75 641.45 565.54 642.03C557.74 642.91 551.68 641.06 548.46 640.04C544.7 638.85 541.75 637.4 539.75 636.28C539.83 636.75 539.93 637.22 540.05 637.69C543.1 649.01 559.62 652.83 568.57 653.25H568.56Z" fill="#E8C577"/>
<path d="M586.84 645.41C583.78 640.15 580.36 634.27 574.47 631.11C566.76 633.68 557.7 632.9 550.6 637.04C546.34 639.53 543.11 643.73 541.81 648.5C541.81 648.42 541.8 648.34 541.79 648.26C540.94 651.03 540.39 654.28 540.91 657.48C542.22 659.34 544.68 662.2 548.61 663.57C551.54 664.59 555.09 665.33 561.38 664.39C566.86 663.57 569.58 668.15 572.26 666.52C575.03 664.83 574.45 664.15 578.29 661.6C583.12 658.4 586.17 654.57 587.26 654.54C588.91 654.5 589.75 652.18 590.66 652.45C589.49 649.96 588.09 647.55 586.84 645.4V645.41Z" fill="#F2DA9E"/>
<path d="M550.6 637.05C557.71 632.91 566.76 633.69 574.47 631.12C573.04 630.35 571.47 629.74 569.73 629.34C562.9 627.77 555.55 629.87 550.54 634.01C547.48 636.54 545.92 639.31 544.84 641.27C544.26 642.33 542.81 644.96 541.79 648.27C541.79 648.35 541.8 648.43 541.81 648.51C543.11 643.75 546.34 639.54 550.6 637.05Z" fill="#F2DA9E"/>
<g opacity="0.64">
<path d="M550.611 637.06C557.721 632.92 566.771 633.7 574.481 631.13C573.051 630.36 571.481 629.75 569.741 629.35C562.911 627.78 555.561 629.88 550.551 634.02C547.491 636.55 545.931 639.32 544.851 641.28C544.271 642.34 542.821 644.97 541.801 648.28C541.801 648.36 541.811 648.44 541.821 648.52C543.121 643.76 546.351 639.55 550.611 637.06Z" fill="white"/>
</g>
<path d="M569.73 674.45C573.91 674.64 587.69 675.28 592.03 667.19C594.42 662.74 592.99 657.41 590.66 652.46C589.58 652.7 588.01 653.14 586.24 653.98C582.38 655.82 580.86 658.02 578.63 659.74C575.35 662.26 571.92 662.65 566.71 663.23C558.91 664.11 552.85 662.26 549.63 661.24C545.87 660.05 542.92 658.6 540.92 657.48C541 657.95 541.1 658.42 541.22 658.89C544.27 670.21 560.79 674.03 569.74 674.45H569.73Z" fill="#E8C577"/>
<path d="M619.36 634.05C616.3 628.79 612.88 622.91 606.99 619.75C599.28 622.32 590.22 621.54 583.12 625.68C578.86 628.17 575.63 632.37 574.33 637.14C574.33 637.06 574.32 636.98 574.31 636.9C573.46 639.67 572.91 642.92 573.43 646.12C574.74 647.98 577.2 650.84 581.13 652.21C584.06 653.23 587.61 653.97 593.9 653.03C599.38 652.21 602.1 656.79 604.78 655.16C607.55 653.47 606.97 652.79 610.81 650.24C615.64 647.04 618.69 643.21 619.78 643.18C621.43 643.14 622.27 640.82 623.18 641.09C622.01 638.6 620.61 636.19 619.36 634.04V634.05Z" fill="#F2DA9E"/>
<path d="M583.12 625.68C590.23 621.54 599.28 622.32 606.99 619.75C605.56 618.98 603.99 618.37 602.25 617.97C595.42 616.4 588.07 618.5 583.06 622.64C580 625.17 578.44 627.94 577.36 629.9C576.78 630.96 575.33 633.59 574.31 636.9C574.31 636.98 574.32 637.06 574.33 637.14C575.63 632.38 578.86 628.17 583.12 625.68Z" fill="#F2DA9E"/>
<g opacity="0.64">
<path d="M583.13 625.69C590.24 621.55 599.29 622.33 607 619.76C605.57 618.99 604 618.38 602.26 617.98C595.43 616.41 588.08 618.51 583.07 622.65C580.01 625.18 578.45 627.95 577.37 629.91C576.79 630.97 575.34 633.6 574.32 636.91C574.32 636.99 574.33 637.07 574.34 637.15C575.64 632.39 578.87 628.18 583.13 625.69Z" fill="white"/>
</g>
<path d="M602.249 663.08C606.429 663.27 620.209 663.91 624.549 655.82C626.939 651.37 625.509 646.04 623.179 641.09C622.099 641.33 620.529 641.77 618.759 642.61C614.899 644.45 613.379 646.65 611.149 648.37C607.869 650.89 604.439 651.28 599.229 651.86C591.429 652.74 585.369 650.89 582.149 649.87C578.389 648.68 575.439 647.23 573.439 646.11C573.519 646.58 573.619 647.05 573.739 647.52C576.789 658.84 593.309 662.66 602.259 663.08H602.249Z" fill="#E8C577"/>
<path d="M84.9301 603.3C84.9301 603.3 88.0401 633.2 59.2501 646.4C30.4601 659.6 108.16 646.97 84.9301 603.3Z" fill="url(#paint0_linear_1816_14612)"/>
<path d="M124.47 637.64C124.47 637.64 98.3904 652.59 74.6604 631.63C50.9304 610.66 93.9504 676.58 124.47 637.64Z" fill="url(#paint1_linear_1816_14612)"/>
<path d="M113.92 660.7C113.92 660.7 87.8397 675.65 64.1097 654.69C40.3797 633.72 83.3997 699.64 113.92 660.7Z" fill="url(#paint2_linear_1816_14612)"/>
<path d="M69.8399 661.89C69.8399 661.89 68.5499 631.85 98.0799 620.42C127.61 608.98 49.2899 616.89 69.8399 661.89Z" fill="url(#paint3_linear_1816_14612)"/>
<path d="M72.2903 668.88C72.2903 668.88 77.2703 639.23 108.53 634.18C139.79 629.13 61.5403 620.58 72.2903 668.88Z" fill="url(#paint4_linear_1816_14612)"/>
<path d="M92.0896 631.18C92.0896 631.18 66.0096 646.13 42.2796 625.17C18.5496 604.2 61.5696 670.12 92.0896 631.18Z" fill="url(#paint5_linear_1816_14612)"/>
<path d="M69.04 619.43C69.04 619.43 99.08 618.19 110.46 647.75C121.84 677.3 114.08 598.97 69.04 619.43Z" fill="url(#paint6_linear_1816_14612)"/>
<path d="M70.5596 630.5C70.5596 630.5 100.6 629.26 111.98 658.82C123.36 688.37 115.6 610.04 70.5596 630.5Z" fill="url(#paint7_linear_1816_14612)"/>
<path d="M40.7002 626.99C40.7002 626.99 70.7402 625.75 82.1202 655.31C93.5002 684.86 85.7402 606.53 40.7002 626.99Z" fill="url(#paint8_linear_1816_14612)"/>
<path d="M125.999 652.81C125.999 652.81 99.0595 666.16 76.6395 643.79C54.2195 621.42 93.1695 689.83 125.999 652.81Z" fill="url(#paint9_linear_1816_14612)"/>
<path d="M32.9304 658.15C32.9304 658.15 38.5204 628.61 69.8804 624.21C101.24 619.81 23.1804 609.65 32.9304 658.15Z" fill="url(#paint10_linear_1816_14612)"/>
<path d="M44.57 646.3C44.57 646.3 50.16 616.76 81.52 612.36C112.88 607.96 34.82 597.8 44.57 646.3Z" fill="url(#paint11_linear_1816_14612)"/>
<path d="M44.57 668.5C44.57 668.5 50.16 638.96 81.52 634.56C112.88 630.16 34.82 620 44.57 668.5Z" fill="url(#paint12_linear_1816_14612)"/>
<path d="M74.3395 642.8C74.3395 642.8 79.9295 613.26 111.29 608.86C142.65 604.46 64.5895 594.3 74.3395 642.8Z" fill="url(#paint13_linear_1816_14612)"/>
<path d="M89.9802 665.27C89.9802 665.27 95.5702 635.73 126.93 631.33C158.29 626.93 80.2302 616.77 89.9802 665.27Z" fill="url(#paint14_linear_1816_14612)"/>
<path d="M83.03 651.3C83.03 651.3 88.62 621.76 119.98 617.36C151.34 612.96 73.28 602.8 83.03 651.3Z" fill="url(#paint15_linear_1816_14612)"/>
<path d="M84.74 642.58C84.74 642.58 58.66 657.53 34.93 636.57C11.2 615.6 54.22 681.52 84.74 642.58Z" fill="url(#paint16_linear_1816_14612)"/>
<path d="M51.9102 616.54C51.9102 616.54 81.9502 615.3 93.3302 644.86C104.71 674.41 96.9502 596.08 51.9102 616.54Z" fill="url(#paint17_linear_1816_14612)"/>
<path d="M46.04 634.66C46.04 634.66 76.08 633.42 87.46 662.98C98.84 692.53 91.08 614.2 46.04 634.66Z" fill="url(#paint18_linear_1816_14612)"/>
<path d="M38.6396 630.5C38.6396 630.5 68.6796 629.26 80.0596 658.82C91.4396 688.38 83.6796 610.04 38.6396 630.5Z" fill="url(#paint19_linear_1816_14612)"/>
<path d="M54.5003 651.28C54.5003 651.28 52.9803 621.26 82.4203 609.59C111.86 597.93 33.6103 606.44 54.5003 651.28Z" fill="url(#paint20_linear_1816_14612)"/>
<path d="M74.96 624.39C74.96 624.39 105 623.15 116.38 652.71C127.76 682.26 120 603.93 74.96 624.39Z" fill="url(#paint21_linear_1816_14612)"/>
<path d="M126.61 612.36C126.61 612.36 128.79 642.34 99.6101 654.65C70.4301 666.96 148.48 656.73 126.61 612.36Z" fill="url(#paint22_linear_1816_14612)"/>
<path d="M114.55 668.03C114.55 668.03 86.9203 656.19 89.4003 624.61C91.8803 593.04 65.0903 667.06 114.55 668.03Z" fill="url(#paint23_linear_1816_14612)"/>
<path d="M106.72 620.12C106.72 620.12 108.9 650.1 79.7195 662.41C50.5395 674.72 128.59 664.49 106.72 620.12Z" fill="url(#paint24_linear_1816_14612)"/>
<path d="M110.79 605.21C110.79 605.21 113.9 635.11 85.1095 648.31C56.3195 661.51 134.02 648.88 110.79 605.21Z" fill="url(#paint25_linear_1816_14612)"/>
<path d="M150.33 639.55C150.33 639.55 124.25 654.5 100.52 633.54C76.7898 612.57 119.81 678.49 150.33 639.55Z" fill="url(#paint26_linear_1816_14612)"/>
<path d="M139.78 662.62C139.78 662.62 113.7 677.57 89.97 656.61C66.24 635.64 109.26 701.56 139.78 662.62Z" fill="url(#paint27_linear_1816_14612)"/>
<path d="M95.7003 663.8C95.7003 663.8 94.4103 633.76 123.94 622.33C153.47 610.89 75.1503 618.8 95.7003 663.8Z" fill="url(#paint28_linear_1816_14612)"/>
<path d="M98.1496 670.8C98.1496 670.8 103.13 641.15 134.39 636.1C165.65 631.05 87.3996 622.5 98.1496 670.8Z" fill="url(#paint29_linear_1816_14612)"/>
<path d="M117.95 633.09C117.95 633.09 91.8699 648.04 68.1399 627.08C44.4099 606.11 87.4299 672.03 117.95 633.09Z" fill="url(#paint30_linear_1816_14612)"/>
<path d="M94.9004 621.34C94.9004 621.34 124.94 620.1 136.32 649.66C147.7 679.21 139.94 600.88 94.9004 621.34Z" fill="url(#paint31_linear_1816_14612)"/>
<path d="M96.4199 632.41C96.4199 632.41 126.46 631.17 137.84 660.73C149.22 690.28 141.46 611.95 96.4199 632.41Z" fill="url(#paint32_linear_1816_14612)"/>
<path d="M66.5596 628.91C66.5596 628.91 96.5996 627.67 107.98 657.23C119.36 686.78 111.6 608.45 66.5596 628.91Z" fill="url(#paint33_linear_1816_14612)"/>
<path d="M151.86 654.72C151.86 654.72 124.92 668.07 102.5 645.7C80.0798 623.33 119.03 691.74 151.86 654.72Z" fill="url(#paint34_linear_1816_14612)"/>
<path d="M58.7897 660.06C58.7897 660.06 64.3797 630.52 95.7397 626.12C127.1 621.72 49.0397 611.56 58.7897 660.06Z" fill="url(#paint35_linear_1816_14612)"/>
<path d="M70.4304 648.22C70.4304 648.22 76.0204 618.68 107.38 614.28C138.74 609.88 60.6804 599.72 70.4304 648.22Z" fill="url(#paint36_linear_1816_14612)"/>
<path d="M70.4304 670.41C70.4304 670.41 76.0204 640.87 107.38 636.47C138.74 632.07 60.6804 621.91 70.4304 670.41Z" fill="url(#paint37_linear_1816_14612)"/>
<path d="M100.2 644.71C100.2 644.71 105.79 615.17 137.15 610.77C168.51 606.37 90.4499 596.21 100.2 644.71Z" fill="url(#paint38_linear_1816_14612)"/>
<path d="M115.84 667.18C115.84 667.18 121.43 637.64 152.79 633.24C184.15 628.84 106.09 618.68 115.84 667.18Z" fill="url(#paint39_linear_1816_14612)"/>
<path d="M108.89 653.22C108.89 653.22 114.48 623.68 145.84 619.28C177.2 614.88 99.1403 604.72 108.89 653.22Z" fill="url(#paint40_linear_1816_14612)"/>
<path d="M110.59 644.49C110.59 644.49 84.5096 659.44 60.7796 638.48C37.0496 617.51 80.0696 683.43 110.59 644.49Z" fill="url(#paint41_linear_1816_14612)"/>
<path d="M77.7695 618.45C77.7695 618.45 107.81 617.21 119.19 646.77C130.57 676.32 122.81 597.99 77.7695 618.45Z" fill="url(#paint42_linear_1816_14612)"/>
<path d="M71.9004 636.57C71.9004 636.57 101.94 635.33 113.32 664.89C124.7 694.44 116.94 616.11 71.9004 636.57Z" fill="url(#paint43_linear_1816_14612)"/>
<path d="M64.5 632.41C64.5 632.41 94.54 631.17 105.92 660.73C117.3 690.28 109.54 611.95 64.5 632.41Z" fill="url(#paint44_linear_1816_14612)"/>
<path d="M80.3597 653.19C80.3597 653.19 78.8397 623.17 108.28 611.5C137.72 599.84 59.4697 608.35 80.3597 653.19Z" fill="url(#paint45_linear_1816_14612)"/>
<path d="M100.82 626.31C100.82 626.31 130.86 625.07 142.24 654.63C153.62 684.18 145.86 605.85 100.82 626.31Z" fill="url(#paint46_linear_1816_14612)"/>
<path d="M152.47 614.28C152.47 614.28 154.65 644.26 125.47 656.57C96.2895 668.88 174.34 658.65 152.47 614.28Z" fill="url(#paint47_linear_1816_14612)"/>
<path d="M140.41 669.94C140.41 669.94 112.78 658.1 115.26 626.52C117.74 594.95 90.9497 668.97 140.41 669.94Z" fill="url(#paint48_linear_1816_14612)"/>
<path d="M132.58 622.03C132.58 622.03 134.76 652.01 105.58 664.32C76.3999 676.63 154.45 666.4 132.58 622.03Z" fill="url(#paint49_linear_1816_14612)"/>
<path d="M97.3501 587.05C97.3501 587.05 100.46 616.95 71.6701 630.15C42.8801 643.35 120.58 630.72 97.3501 587.05Z" fill="url(#paint50_linear_1816_14612)"/>
<path d="M136.88 621.39C136.88 621.39 110.8 636.34 87.0696 615.38C63.3396 594.41 106.36 660.33 136.88 621.39Z" fill="url(#paint51_linear_1816_14612)"/>
<path d="M126.34 644.45C126.34 644.45 100.26 659.4 76.5296 638.44C52.7996 617.47 95.8196 683.39 126.34 644.45Z" fill="url(#paint52_linear_1816_14612)"/>
<path d="M82.2598 645.64C82.2598 645.64 80.9698 615.6 110.5 604.17C140.03 592.73 61.7098 600.64 82.2598 645.64Z" fill="url(#paint53_linear_1816_14612)"/>
<path d="M84.7004 652.63C84.7004 652.63 89.6804 622.98 120.94 617.93C152.2 612.88 73.9504 604.33 84.7004 652.63Z" fill="url(#paint54_linear_1816_14612)"/>
<path d="M104.51 614.93C104.51 614.93 78.4295 629.88 54.6995 608.92C30.9695 587.95 73.9895 653.87 104.51 614.93Z" fill="url(#paint55_linear_1816_14612)"/>
<path d="M81.46 603.18C81.46 603.18 111.5 601.94 122.88 631.5C134.26 661.05 126.5 582.72 81.46 603.18Z" fill="url(#paint56_linear_1816_14612)"/>
<path d="M82.9795 614.25C82.9795 614.25 113.019 613.01 124.399 642.57C135.779 672.12 128.019 593.79 82.9795 614.25Z" fill="url(#paint57_linear_1816_14612)"/>
<path d="M53.1201 610.74C53.1201 610.74 83.1601 609.5 94.5401 639.06C105.92 668.61 98.1601 590.28 53.1201 610.74Z" fill="url(#paint58_linear_1816_14612)"/>
<path d="M138.42 636.56C138.42 636.56 111.48 649.91 89.0604 627.54C66.6404 605.17 105.59 673.58 138.42 636.56Z" fill="url(#paint59_linear_1816_14612)"/>
<path d="M45.3395 641.9C45.3395 641.9 50.9295 612.36 82.2895 607.96C113.65 603.56 35.5895 593.4 45.3395 641.9Z" fill="url(#paint60_linear_1816_14612)"/>
<path d="M56.9802 630.05C56.9802 630.05 62.5702 600.51 93.9302 596.11C125.29 591.71 47.2302 581.55 56.9802 630.05Z" fill="url(#paint61_linear_1816_14612)"/>
<path d="M56.9802 652.25C56.9802 652.25 62.5702 622.71 93.9302 618.31C125.29 613.91 47.2302 603.75 56.9802 652.25Z" fill="url(#paint62_linear_1816_14612)"/>
<path d="M86.7604 626.55C86.7604 626.55 92.3504 597.01 123.71 592.61C155.07 588.21 77.0104 578.05 86.7604 626.55Z" fill="url(#paint63_linear_1816_14612)"/>
<path d="M102.39 649.02C102.39 649.02 107.98 619.48 139.34 615.08C170.7 610.68 92.6403 600.52 102.39 649.02Z" fill="url(#paint64_linear_1816_14612)"/>
<path d="M95.4401 635.06C95.4401 635.06 101.03 605.52 132.39 601.12C163.75 596.72 85.6901 586.56 95.4401 635.06Z" fill="url(#paint65_linear_1816_14612)"/>
<path d="M97.1501 626.33C97.1501 626.33 71.0701 641.28 47.3401 620.32C23.6101 599.35 66.6301 665.27 97.1501 626.33Z" fill="url(#paint66_linear_1816_14612)"/>
<path d="M64.3301 600.29C64.3301 600.29 94.3701 599.05 105.75 628.61C117.13 658.16 109.37 579.83 64.3301 600.29Z" fill="url(#paint67_linear_1816_14612)"/>
<path d="M58.46 618.41C58.46 618.41 88.5 617.17 99.88 646.73C111.26 676.29 103.5 597.95 58.46 618.41Z" fill="url(#paint68_linear_1816_14612)"/>
<path d="M51.0596 614.25C51.0596 614.25 81.0996 613.01 92.4796 642.57C103.86 672.12 96.0996 593.79 51.0596 614.25Z" fill="url(#paint69_linear_1816_14612)"/>
<path d="M66.9202 635.03C66.9202 635.03 65.4002 605.01 94.8402 593.34C124.28 581.68 46.0302 590.19 66.9202 635.03Z" fill="url(#paint70_linear_1816_14612)"/>
<path d="M87.3799 608.14C87.3799 608.14 117.42 606.9 128.8 636.46C140.18 666.01 132.42 587.68 87.3799 608.14Z" fill="url(#paint71_linear_1816_14612)"/>
<path d="M139.03 596.11C139.03 596.11 141.21 626.09 112.03 638.4C82.8501 650.71 160.9 640.48 139.03 596.11Z" fill="url(#paint72_linear_1816_14612)"/>
<path d="M126.97 651.78C126.97 651.78 99.3403 639.94 101.82 608.36C104.3 576.79 77.5103 650.81 126.97 651.78Z" fill="url(#paint73_linear_1816_14612)"/>
<path d="M119.13 603.87C119.13 603.87 121.31 633.85 92.1297 646.16C62.9497 658.47 141 648.24 119.13 603.87Z" fill="url(#paint74_linear_1816_14612)"/>
<path d="M481.51 255.73C483.85 247.7 485.08 239.38 485.08 230.85C485.08 164.25 410.2 110.26 317.83 110.26C225.46 110.26 150.58 164.25 150.58 230.85C150.58 239.38 151.82 247.7 154.15 255.73C143.76 267.1 137.52 281.66 137.52 297.54C139.51 310.45 144.6 328.31 158.88 344.04C189.32 377.57 240.29 378 320.6 377.6C399.22 377.2 447.38 376.31 476.78 344.04C491.27 328.13 496.23 310.05 498.14 297.54C498.14 281.66 491.9 267.09 481.51 255.73Z" fill="#457DB1"/>
<path d="M459.31 261.49C458.54 260.41 457.69 259.35 456.81 258.3C457.87 252.58 458.44 246.63 458.44 240.53C458.44 195.35 427.96 158.72 390.35 158.72C361.42 158.72 336.71 180.39 326.85 210.96C325.9 213.91 322.77 215.92 319.28 215.88C318.26 215.87 317.24 215.86 316.22 215.86C312.79 215.85 309.74 213.85 308.8 210.95C298.93 180.39 274.23 158.73 245.31 158.73C207.7 158.73 177.22 195.36 177.22 240.54C177.22 246.51 177.77 252.33 178.78 257.94C178.16 258.71 177.55 259.48 176.97 260.28C173.52 265.05 162.02 280.97 165.29 300.33C169.2 323.49 191.84 337.36 199.6 342.11C214.84 351.44 233.02 357.23 309.42 357.69C408.22 358.28 427.92 348.9 440.23 340.38C446.84 335.8 467.77 321.32 470.62 298.6C472.89 280.53 462.6 266.12 459.31 261.5V261.49Z" fill="white"/>
<path d="M335.449 278.67L323.699 283.24C320.129 284.63 316.159 284.62 312.599 283.2L301.339 278.74C296.439 276.8 295.749 270.15 300.139 267.24L309.909 260.77C315.159 257.29 321.989 257.31 327.219 260.82L336.719 267.18C341.099 270.11 340.369 276.76 335.449 278.67Z" fill="#FFCC3B"/>
<path d="M362.145 262.374C364.343 259.909 363.338 255.425 359.9 252.36C356.462 249.295 351.893 248.808 349.695 251.273C347.498 253.738 348.503 258.222 351.941 261.287C355.379 264.352 359.948 264.839 362.145 262.374Z" fill="#262727"/>
<path d="M283.837 261.338C287.275 258.273 288.28 253.79 286.082 251.325C283.884 248.86 279.315 249.346 275.877 252.411C272.439 255.477 271.434 259.96 273.632 262.425C275.83 264.89 280.399 264.404 283.837 261.338Z" fill="#262727"/>
<path d="M304.34 272.16C308.1 272.83 312.55 273.36 317.56 273.42C323.5 273.5 328.7 272.92 332.95 272.16" stroke="#D7A338" stroke-width="3.58" stroke-miterlimit="10" stroke-linecap="round"/>
<path d="M345.22 226.78C348.28 230.05 353.17 234.48 360.16 238.12C369.35 242.9 377.84 244.03 382.83 244.3" stroke="#474747" stroke-width="4.78" stroke-miterlimit="10" stroke-linecap="round"/>
<path d="M293.37 226.78C290.31 230.05 285.42 234.48 278.43 238.12C269.24 242.9 260.75 244.03 255.76 244.3" stroke="#474747" stroke-width="4.78" stroke-miterlimit="10" stroke-linecap="round"/>
<path d="M367.81 17.89C362.69 17.89 357.82 19.01 353.45 21.03C346.81 8.51 333.72 0 318.67 0C303.62 0 290.67 8.42 283.99 20.83C279.73 18.94 275.02 17.89 270.07 17.89C250.96 17.89 235.46 42.22 235.46 61.5C235.46 80.78 250.95 96.41 270.07 96.41C281.47 96.41 291.58 90.85 297.88 82.27C303.92 86.06 311.04 88.24 318.67 88.24C326.3 88.24 333.72 85.96 339.83 82.03C346.12 90.74 356.31 96.4 367.81 96.4C386.92 96.4 402.42 80.77 402.42 61.49C402.42 42.21 386.93 17.88 367.81 17.88V17.89Z" fill="white"/>
<path d="M368.19 125.35C361.4 120.88 344.11 118.63 319.03 118.53C293.5 118.43 275.88 120.89 269.11 125.35C267.71 110.07 266.22 101.62 264.65 84.4801C275.33 79.5601 293.75 72.9201 317.8 72.7601C342.77 72.6001 361.86 79.4901 372.68 84.4801C371.1 101.62 369.61 110.08 368.2 125.35H368.19Z" fill="white"/>
<g opacity="0.8">
<path d="M354.59 31.55C355.27 36.74 355.56 44.05 353.7 52.57C351.45 62.86 346.99 70.7 343.58 75.64" fill="white"/>
<path d="M354.59 31.55C359.49 46.64 354.78 64.51 343.58 75.63C346.63 68.51 349.47 61.57 351.33 54.13C353.25 46.71 354.06 39.27 354.59 31.54V31.55Z" fill="#DADADA"/>
</g>
<g opacity="0.8">
<path d="M282.95 32.22C282.27 37.41 281.98 44.72 283.84 53.24C286.09 63.53 290.55 71.37 293.96 76.31" fill="white"/>
<path d="M282.95 32.22C283.47 39.95 284.28 47.38 286.21 54.81C288.07 62.25 290.92 69.18 293.96 76.31C282.76 65.18 278.06 47.32 282.95 32.23V32.22Z" fill="#DADADA"/>
</g>
<g opacity="0.8">
<path d="M272.5 95.1501C299.75 79.4901 335.42 79.4601 362.67 95.1501C333.45 83.2001 301.72 83.2001 272.5 95.1501Z" fill="#D7D7D7"/>
</g>
<path d="M312.84 415C298.82 411.94 283.09 419 266.18 412.35C250.66 406.25 236.78 399.37 224.62 392.48C223.74 390.34 222.2 385.93 222.15 380.01C222.1 373.74 223.74 369.07 224.62 366.93C254.03 378.29 283.43 378.1 312.84 389.45V415Z" fill="#FF4848"/>
<path d="M325.42 415C339.44 411.94 355.17 419 372.08 412.35C387.6 406.25 401.48 399.37 413.64 392.48C414.52 390.34 416.06 385.93 416.11 380.01C416.16 373.74 414.52 369.07 413.64 366.93C384.23 378.29 354.83 378.1 325.42 389.45V415Z" fill="#FF4848"/>
<path d="M325.12 423.21H309.22C304.78 423.21 301.33 419.33 301.85 414.92L304.57 391.81C305.01 388.07 308.18 385.26 311.94 385.26H322.4C326.16 385.26 329.33 388.08 329.77 391.81L332.49 414.92C333.01 419.33 329.56 423.21 325.12 423.21Z" fill="#EA4949"/>
<path d="M310.13 421.7H323.64C327.61 421.7 331.06 424.43 331.98 428.29L338.9 457.35C339.48 459.78 339.18 462.34 338.06 464.57L324.32 491.88C321.18 498.11 312.23 497.95 309.32 491.61L296.94 464.67C296.02 462.67 295.75 460.44 296.15 458.29L301.72 428.7C302.48 424.65 306.02 421.71 310.14 421.71L310.13 421.7Z" fill="#FF4848"/>
<defs>
<linearGradient id="paint0_linear_1816_14612" x1="62.5976" y1="614.135" x2="76.6068" y2="643.05" gradientUnits="userSpaceOnUse">
<stop stop-color="#E2E2E2"/>
<stop offset="0.79" stop-color="#E2E2E2"/>
<stop offset="1" stop-color="#6F9A3A"/>
</linearGradient>
<linearGradient id="paint1_linear_1816_14612" x1="105.485" y1="621.694" x2="84.7181" y2="646.224" gradientUnits="userSpaceOnUse">
<stop stop-color="#E2E2E2"/>
<stop offset="0.79" stop-color="#E2E2E2"/>
<stop offset="1" stop-color="#6F9A3A"/>
</linearGradient>
<linearGradient id="paint2_linear_1816_14612" x1="94.9401" y1="644.75" x2="74.1736" y2="669.28" gradientUnits="userSpaceOnUse">
<stop stop-color="#E2E2E2"/>
<stop offset="0.79" stop-color="#E2E2E2"/>
<stop offset="1" stop-color="#6F9A3A"/>
</linearGradient>
<linearGradient id="paint3_linear_1816_14612" x1="92.9179" y1="652.398" x2="80.6755" y2="622.681" gradientUnits="userSpaceOnUse">
<stop stop-color="#E2E2E2"/>
<stop offset="0.79" stop-color="#E2E2E2"/>
<stop offset="1" stop-color="#6F9A3A"/>
</linearGradient>
<linearGradient id="paint4_linear_1816_14612" x1="96.868" y1="664.364" x2="91.0735" y2="632.761" gradientUnits="userSpaceOnUse">
<stop stop-color="#E2E2E2"/>
<stop offset="0.79" stop-color="#E2E2E2"/>
<stop offset="1" stop-color="#6F9A3A"/>
</linearGradient>
<linearGradient id="paint5_linear_1816_14612" x1="73.1089" y1="615.224" x2="52.3424" y2="639.754" gradientUnits="userSpaceOnUse">
<stop stop-color="#E2E2E2"/>
<stop offset="0.79" stop-color="#E2E2E2"/>
<stop offset="1" stop-color="#6F9A3A"/>
</linearGradient>
<linearGradient id="paint6_linear_1816_14612" x1="78.5192" y1="642.404" x2="108.26" y2="630.218" gradientUnits="userSpaceOnUse">
<stop stop-color="#E2E2E2"/>
<stop offset="0.79" stop-color="#E2E2E2"/>
</linearGradient>
<linearGradient id="paint7_linear_1816_14612" x1="80.0392" y1="653.474" x2="109.78" y2="641.288" gradientUnits="userSpaceOnUse">
<stop stop-color="#E2E2E2"/>
<stop offset="0.79" stop-color="#E2E2E2"/>
</linearGradient>
<linearGradient id="paint8_linear_1816_14612" x1="50.1832" y1="649.972" x2="79.9237" y2="637.786" gradientUnits="userSpaceOnUse">
<stop stop-color="#E2E2E2"/>
<stop offset="0.79" stop-color="#E2E2E2"/>
</linearGradient>
<linearGradient id="paint9_linear_1816_14612" x1="108.109" y1="635.552" x2="85.9027" y2="658.773" gradientUnits="userSpaceOnUse">
<stop stop-color="#E2E2E2"/>
<stop offset="0.79" stop-color="#E2E2E2"/>
</linearGradient>
<linearGradient id="paint10_linear_1816_14612" x1="57.6498" y1="654.13" x2="52.5057" y2="622.405" gradientUnits="userSpaceOnUse">
<stop stop-color="#E2E2E2"/>
<stop offset="0.79" stop-color="#E2E2E2"/>
</linearGradient>
<linearGradient id="paint11_linear_1816_14612" x1="69.282" y1="642.276" x2="64.1395" y2="610.56" gradientUnits="userSpaceOnUse">
<stop stop-color="#E2E2E2"/>
<stop offset="0.79" stop-color="#E2E2E2"/>
</linearGradient>
<linearGradient id="paint12_linear_1816_14612" x1="69.2862" y1="664.481" x2="64.142" y2="632.756" gradientUnits="userSpaceOnUse">
<stop stop-color="#E2E2E2"/>
<stop offset="0.79" stop-color="#E2E2E2"/>
</linearGradient>
<linearGradient id="paint13_linear_1816_14612" x1="99.0551" y1="638.775" x2="93.911" y2="607.05" gradientUnits="userSpaceOnUse">
<stop stop-color="#E2E2E2"/>
<stop offset="0.79" stop-color="#E2E2E2"/>
</linearGradient>
<linearGradient id="paint14_linear_1816_14612" x1="114.693" y1="661.242" x2="109.549" y2="629.516" gradientUnits="userSpaceOnUse">
<stop stop-color="#E2E2E2"/>
<stop offset="0.79" stop-color="#E2E2E2"/>
</linearGradient>
<linearGradient id="paint15_linear_1816_14612" x1="107.749" y1="647.283" x2="102.605" y2="615.558" gradientUnits="userSpaceOnUse">
<stop stop-color="#E2E2E2"/>
<stop offset="0.79" stop-color="#E2E2E2"/>
</linearGradient>
<linearGradient id="paint16_linear_1816_14612" x1="65.7481" y1="626.628" x2="44.9817" y2="651.158" gradientUnits="userSpaceOnUse">
<stop stop-color="#E2E2E2"/>
<stop offset="0.79" stop-color="#E2E2E2"/>
<stop offset="1" stop-color="#6F9A3A"/>
</linearGradient>
<linearGradient id="paint17_linear_1816_14612" x1="61.3939" y1="639.51" x2="91.1251" y2="627.329" gradientUnits="userSpaceOnUse">
<stop stop-color="#E2E2E2"/>
<stop offset="0.79" stop-color="#E2E2E2"/>
<stop offset="1" stop-color="#6F9A3A"/>
</linearGradient>
<linearGradient id="paint18_linear_1816_14612" x1="55.5284" y1="657.637" x2="85.2597" y2="645.456" gradientUnits="userSpaceOnUse">
<stop stop-color="#E2E2E2"/>
<stop offset="0.79" stop-color="#E2E2E2"/>
<stop offset="1" stop-color="#6F9A3A"/>
</linearGradient>
<linearGradient id="paint19_linear_1816_14612" x1="48.1172" y1="653.476" x2="77.8577" y2="641.291" gradientUnits="userSpaceOnUse">
<stop stop-color="#E2E2E2"/>
<stop offset="0.79" stop-color="#E2E2E2"/>
<stop offset="1" stop-color="#6F9A3A"/>
</linearGradient>
<linearGradient id="paint20_linear_1816_14612" x1="77.479" y1="641.611" x2="65.0127" y2="611.999" gradientUnits="userSpaceOnUse">
<stop stop-color="#E2E2E2"/>
<stop offset="0.79" stop-color="#E2E2E2"/>
<stop offset="1" stop-color="#6F9A3A"/>
</linearGradient>
<linearGradient id="paint21_linear_1816_14612" x1="84.4436" y1="647.368" x2="114.175" y2="635.186" gradientUnits="userSpaceOnUse">
<stop stop-color="#E2E2E2"/>
<stop offset="0.79" stop-color="#E2E2E2"/>
<stop offset="1" stop-color="#6F9A3A"/>
</linearGradient>
<linearGradient id="paint22_linear_1816_14612" x1="103.943" y1="622.566" x2="117.056" y2="651.909" gradientUnits="userSpaceOnUse">
<stop stop-color="#E2E2E2"/>
<stop offset="0.79" stop-color="#E2E2E2"/>
<stop offset="1" stop-color="#6F9A3A"/>
</linearGradient>
<linearGradient id="paint23_linear_1816_14612" x1="116.036" y1="643.186" x2="83.9482" y2="641.347" gradientUnits="userSpaceOnUse">
<stop stop-color="#E2E2E2"/>
<stop offset="0.79" stop-color="#E2E2E2"/>
<stop offset="1" stop-color="#6F9A3A"/>
</linearGradient>
<linearGradient id="paint24_linear_1816_14612" x1="84.0481" y1="630.328" x2="97.1575" y2="659.662" gradientUnits="userSpaceOnUse">
<stop stop-color="#E2E2E2"/>
<stop offset="0.79" stop-color="#E2E2E2"/>
<stop offset="1" stop-color="#6F9A3A"/>
</linearGradient>
<linearGradient id="paint25_linear_1816_14612" x1="88.4598" y1="616.05" x2="102.469" y2="644.965" gradientUnits="userSpaceOnUse">
<stop stop-color="#E2E2E2"/>
<stop offset="0.79" stop-color="#E2E2E2"/>
<stop offset="1" stop-color="#6F9A3A"/>
</linearGradient>
<linearGradient id="paint26_linear_1816_14612" x1="131.342" y1="623.604" x2="110.576" y2="648.134" gradientUnits="userSpaceOnUse">
<stop stop-color="#E2E2E2"/>
<stop offset="0.79" stop-color="#E2E2E2"/>
<stop offset="1" stop-color="#6F9A3A"/>
</linearGradient>
<linearGradient id="paint27_linear_1816_14612" x1="120.792" y1="646.668" x2="100.032" y2="671.19" gradientUnits="userSpaceOnUse">
<stop stop-color="#E2E2E2"/>
<stop offset="0.79" stop-color="#E2E2E2"/>
<stop offset="1" stop-color="#6F9A3A"/>
</linearGradient>
<linearGradient id="paint28_linear_1816_14612" x1="118.777" y1="654.313" x2="106.535" y2="624.596" gradientUnits="userSpaceOnUse">
<stop stop-color="#E2E2E2"/>
<stop offset="0.79" stop-color="#E2E2E2"/>
<stop offset="1" stop-color="#6F9A3A"/>
</linearGradient>
<linearGradient id="paint29_linear_1816_14612" x1="122.727" y1="666.282" x2="116.931" y2="634.669" gradientUnits="userSpaceOnUse">
<stop stop-color="#E2E2E2"/>
<stop offset="0.79" stop-color="#E2E2E2"/>
<stop offset="1" stop-color="#6F9A3A"/>
</linearGradient>
<linearGradient id="paint30_linear_1816_14612" x1="98.9611" y1="617.141" x2="78.2012" y2="641.664" gradientUnits="userSpaceOnUse">
<stop stop-color="#E2E2E2"/>
<stop offset="0.79" stop-color="#E2E2E2"/>
<stop offset="1" stop-color="#6F9A3A"/>
</linearGradient>
<linearGradient id="paint31_linear_1816_14612" x1="104.387" y1="644.319" x2="134.118" y2="632.138" gradientUnits="userSpaceOnUse">
<stop stop-color="#E2E2E2"/>
<stop offset="0.79" stop-color="#E2E2E2"/>
</linearGradient>
<linearGradient id="paint32_linear_1816_14612" x1="105.903" y1="655.38" x2="135.635" y2="643.199" gradientUnits="userSpaceOnUse">
<stop stop-color="#E2E2E2"/>
<stop offset="0.79" stop-color="#E2E2E2"/>
</linearGradient>
<linearGradient id="paint33_linear_1816_14612" x1="76.0463" y1="651.878" x2="105.778" y2="639.697" gradientUnits="userSpaceOnUse">
<stop stop-color="#E2E2E2"/>
<stop offset="0.79" stop-color="#E2E2E2"/>
</linearGradient>
<linearGradient id="paint34_linear_1816_14612" x1="133.968" y1="637.464" x2="111.762" y2="660.685" gradientUnits="userSpaceOnUse">
<stop stop-color="#E2E2E2"/>
<stop offset="0.79" stop-color="#E2E2E2"/>
</linearGradient>
<linearGradient id="paint35_linear_1816_14612" x1="83.5076" y1="656.036" x2="78.365" y2="624.32" gradientUnits="userSpaceOnUse">
<stop stop-color="#E2E2E2"/>
<stop offset="0.79" stop-color="#E2E2E2"/>
</linearGradient>
<linearGradient id="paint36_linear_1816_14612" x1="95.1424" y1="644.191" x2="89.9983" y2="612.466" gradientUnits="userSpaceOnUse">
<stop stop-color="#E2E2E2"/>
<stop offset="0.79" stop-color="#E2E2E2"/>
</linearGradient>
<linearGradient id="paint37_linear_1816_14612" x1="95.1449" y1="666.387" x2="90.0024" y2="634.671" gradientUnits="userSpaceOnUse">
<stop stop-color="#E2E2E2"/>
<stop offset="0.79" stop-color="#E2E2E2"/>
</linearGradient>
<linearGradient id="paint38_linear_1816_14612" x1="124.914" y1="640.681" x2="119.771" y2="608.965" gradientUnits="userSpaceOnUse">
<stop stop-color="#E2E2E2"/>
<stop offset="0.79" stop-color="#E2E2E2"/>
</linearGradient>
<linearGradient id="paint39_linear_1816_14612" x1="140.562" y1="663.156" x2="135.418" y2="631.43" gradientUnits="userSpaceOnUse">
<stop stop-color="#E2E2E2"/>
<stop offset="0.79" stop-color="#E2E2E2"/>
</linearGradient>
<linearGradient id="paint40_linear_1816_14612" x1="133.608" y1="649.189" x2="128.466" y2="617.473" gradientUnits="userSpaceOnUse">
<stop stop-color="#E2E2E2"/>
<stop offset="0.79" stop-color="#E2E2E2"/>
</linearGradient>
<linearGradient id="paint41_linear_1816_14612" x1="91.6137" y1="628.544" x2="70.8473" y2="653.074" gradientUnits="userSpaceOnUse">
<stop stop-color="#E2E2E2"/>
<stop offset="0.79" stop-color="#E2E2E2"/>
<stop offset="1" stop-color="#6F9A3A"/>
</linearGradient>
<linearGradient id="paint42_linear_1816_14612" x1="87.2477" y1="641.421" x2="116.988" y2="629.235" gradientUnits="userSpaceOnUse">
<stop stop-color="#E2E2E2"/>
<stop offset="0.79" stop-color="#E2E2E2"/>
<stop offset="1" stop-color="#6F9A3A"/>
</linearGradient>
<linearGradient id="paint43_linear_1816_14612" x1="81.3833" y1="659.548" x2="111.124" y2="647.362" gradientUnits="userSpaceOnUse">
<stop stop-color="#E2E2E2"/>
<stop offset="0.79" stop-color="#E2E2E2"/>
<stop offset="1" stop-color="#6F9A3A"/>
</linearGradient>
<linearGradient id="paint44_linear_1816_14612" x1="73.9813" y1="655.383" x2="103.713" y2="643.202" gradientUnits="userSpaceOnUse">
<stop stop-color="#E2E2E2"/>
<stop offset="0.79" stop-color="#E2E2E2"/>
<stop offset="1" stop-color="#6F9A3A"/>
</linearGradient>
<linearGradient id="paint45_linear_1816_14612" x1="103.338" y1="643.528" x2="90.8677" y2="613.906" gradientUnits="userSpaceOnUse">
<stop stop-color="#E2E2E2"/>
<stop offset="0.79" stop-color="#E2E2E2"/>
<stop offset="1" stop-color="#6F9A3A"/>
</linearGradient>
<linearGradient id="paint46_linear_1816_14612" x1="110.298" y1="649.278" x2="140.039" y2="637.093" gradientUnits="userSpaceOnUse">
<stop stop-color="#E2E2E2"/>
<stop offset="0.79" stop-color="#E2E2E2"/>
<stop offset="1" stop-color="#6F9A3A"/>
</linearGradient>
<linearGradient id="paint47_linear_1816_14612" x1="129.804" y1="624.481" x2="142.917" y2="653.824" gradientUnits="userSpaceOnUse">
<stop stop-color="#E2E2E2"/>
<stop offset="0.79" stop-color="#E2E2E2"/>
<stop offset="1" stop-color="#6F9A3A"/>
</linearGradient>
<linearGradient id="paint48_linear_1816_14612" x1="141.898" y1="645.099" x2="109.811" y2="643.26" gradientUnits="userSpaceOnUse">
<stop stop-color="#E2E2E2"/>
<stop offset="0.79" stop-color="#E2E2E2"/>
<stop offset="1" stop-color="#6F9A3A"/>
</linearGradient>
<linearGradient id="paint49_linear_1816_14612" x1="109.906" y1="632.234" x2="123.02" y2="661.577" gradientUnits="userSpaceOnUse">
<stop stop-color="#E2E2E2"/>
<stop offset="0.79" stop-color="#E2E2E2"/>
<stop offset="1" stop-color="#6F9A3A"/>
</linearGradient>
<linearGradient id="paint50_linear_1816_14612" x1="75.0147" y1="597.885" x2="89.0282" y2="626.809" gradientUnits="userSpaceOnUse">
<stop stop-color="#E2E2E2"/>
<stop offset="0.79" stop-color="#E2E2E2"/>
<stop offset="1" stop-color="#6F9A3A"/>
</linearGradient>
<linearGradient id="paint51_linear_1816_14612" x1="117.899" y1="605.449" x2="97.1391" y2="629.972" gradientUnits="userSpaceOnUse">
<stop stop-color="#E2E2E2"/>
<stop offset="0.79" stop-color="#E2E2E2"/>
<stop offset="1" stop-color="#6F9A3A"/>
</linearGradient>
<linearGradient id="paint52_linear_1816_14612" x1="107.355" y1="628.506" x2="86.5889" y2="653.036" gradientUnits="userSpaceOnUse">
<stop stop-color="#E2E2E2"/>
<stop offset="0.79" stop-color="#E2E2E2"/>
<stop offset="1" stop-color="#6F9A3A"/>
</linearGradient>
<linearGradient id="paint53_linear_1816_14612" x1="105.336" y1="636.153" x2="93.0937" y2="606.436" gradientUnits="userSpaceOnUse">
<stop stop-color="#E2E2E2"/>
<stop offset="0.79" stop-color="#E2E2E2"/>
<stop offset="1" stop-color="#6F9A3A"/>
</linearGradient>
<linearGradient id="paint54_linear_1816_14612" x1="109.282" y1="648.119" x2="103.486" y2="616.506" gradientUnits="userSpaceOnUse">
<stop stop-color="#E2E2E2"/>
<stop offset="0.79" stop-color="#E2E2E2"/>
<stop offset="1" stop-color="#6F9A3A"/>
</linearGradient>
<linearGradient id="paint55_linear_1816_14612" x1="85.5242" y1="598.979" x2="64.7577" y2="623.51" gradientUnits="userSpaceOnUse">
<stop stop-color="#E2E2E2"/>
<stop offset="0.79" stop-color="#E2E2E2"/>
<stop offset="1" stop-color="#6F9A3A"/>
</linearGradient>
<linearGradient id="paint56_linear_1816_14612" x1="90.935" y1="626.153" x2="120.675" y2="613.968" gradientUnits="userSpaceOnUse">
<stop stop-color="#E2E2E2"/>
<stop offset="0.79" stop-color="#E2E2E2"/>
</linearGradient>
<linearGradient id="paint57_linear_1816_14612" x1="92.455" y1="637.223" x2="122.195" y2="625.038" gradientUnits="userSpaceOnUse">
<stop stop-color="#E2E2E2"/>
<stop offset="0.79" stop-color="#E2E2E2"/>
</linearGradient>
<linearGradient id="paint58_linear_1816_14612" x1="62.5989" y1="633.721" x2="92.3394" y2="621.536" gradientUnits="userSpaceOnUse">
<stop stop-color="#E2E2E2"/>
<stop offset="0.79" stop-color="#E2E2E2"/>
</linearGradient>
<linearGradient id="paint59_linear_1816_14612" x1="120.527" y1="619.297" x2="98.3141" y2="642.526" gradientUnits="userSpaceOnUse">
<stop stop-color="#E2E2E2"/>
<stop offset="0.79" stop-color="#E2E2E2"/>
</linearGradient>
<linearGradient id="paint60_linear_1816_14612" x1="70.0572" y1="637.875" x2="64.9147" y2="606.159" gradientUnits="userSpaceOnUse">
<stop stop-color="#E2E2E2"/>
<stop offset="0.79" stop-color="#E2E2E2"/>
</linearGradient>
<linearGradient id="paint61_linear_1816_14612" x1="81.7019" y1="626.028" x2="76.5593" y2="594.313" gradientUnits="userSpaceOnUse">
<stop stop-color="#E2E2E2"/>
<stop offset="0.79" stop-color="#E2E2E2"/>
</linearGradient>
<linearGradient id="paint62_linear_1816_14612" x1="81.7044" y1="648.224" x2="76.5619" y2="616.508" gradientUnits="userSpaceOnUse">
<stop stop-color="#E2E2E2"/>
<stop offset="0.79" stop-color="#E2E2E2"/>
</linearGradient>
<linearGradient id="paint63_linear_1816_14612" x1="111.474" y1="622.518" x2="106.332" y2="590.802" gradientUnits="userSpaceOnUse">
<stop stop-color="#E2E2E2"/>
<stop offset="0.79" stop-color="#E2E2E2"/>
</linearGradient>
<linearGradient id="paint64_linear_1816_14612" x1="127.113" y1="644.995" x2="121.969" y2="613.269" gradientUnits="userSpaceOnUse">
<stop stop-color="#E2E2E2"/>
<stop offset="0.79" stop-color="#E2E2E2"/>
</linearGradient>
<linearGradient id="paint65_linear_1816_14612" x1="120.158" y1="631.028" x2="115.015" y2="599.312" gradientUnits="userSpaceOnUse">
<stop stop-color="#E2E2E2"/>
<stop offset="0.79" stop-color="#E2E2E2"/>
</linearGradient>
<linearGradient id="paint66_linear_1816_14612" x1="78.1636" y1="610.383" x2="57.4036" y2="634.906" gradientUnits="userSpaceOnUse">
<stop stop-color="#E2E2E2"/>
<stop offset="0.79" stop-color="#E2E2E2"/>
<stop offset="1" stop-color="#6F9A3A"/>
</linearGradient>
<linearGradient id="paint67_linear_1816_14612" x1="73.8096" y1="623.26" x2="103.541" y2="611.078" gradientUnits="userSpaceOnUse">
<stop stop-color="#E2E2E2"/>
<stop offset="0.79" stop-color="#E2E2E2"/>
<stop offset="1" stop-color="#6F9A3A"/>
</linearGradient>
<linearGradient id="paint68_linear_1816_14612" x1="67.9442" y1="641.387" x2="97.6754" y2="629.205" gradientUnits="userSpaceOnUse">
<stop stop-color="#E2E2E2"/>
<stop offset="0.79" stop-color="#E2E2E2"/>
<stop offset="1" stop-color="#6F9A3A"/>
</linearGradient>
<linearGradient id="paint69_linear_1816_14612" x1="60.533" y1="637.226" x2="90.2735" y2="625.041" gradientUnits="userSpaceOnUse">
<stop stop-color="#E2E2E2"/>
<stop offset="0.79" stop-color="#E2E2E2"/>
<stop offset="1" stop-color="#6F9A3A"/>
</linearGradient>
<linearGradient id="paint70_linear_1816_14612" x1="89.8964" y1="625.36" x2="77.43" y2="595.747" gradientUnits="userSpaceOnUse">
<stop stop-color="#E2E2E2"/>
<stop offset="0.79" stop-color="#E2E2E2"/>
<stop offset="1" stop-color="#6F9A3A"/>
</linearGradient>
<linearGradient id="paint71_linear_1816_14612" x1="96.8594" y1="631.118" x2="126.591" y2="618.936" gradientUnits="userSpaceOnUse">
<stop stop-color="#E2E2E2"/>
<stop offset="0.79" stop-color="#E2E2E2"/>
<stop offset="1" stop-color="#6F9A3A"/>
</linearGradient>
<linearGradient id="paint72_linear_1816_14612" x1="116.363" y1="606.314" x2="129.476" y2="635.657" gradientUnits="userSpaceOnUse">
<stop stop-color="#E2E2E2"/>
<stop offset="0.79" stop-color="#E2E2E2"/>
<stop offset="1" stop-color="#6F9A3A"/>
</linearGradient>
<linearGradient id="paint73_linear_1816_14612" x1="128.445" y1="626.94" x2="96.368" y2="625.101" gradientUnits="userSpaceOnUse">
<stop stop-color="#E2E2E2"/>
<stop offset="0.79" stop-color="#E2E2E2"/>
<stop offset="1" stop-color="#6F9A3A"/>
</linearGradient>
<linearGradient id="paint74_linear_1816_14612" x1="96.459" y1="614.081" x2="109.568" y2="643.415" gradientUnits="userSpaceOnUse">
<stop stop-color="#E2E2E2"/>
<stop offset="0.79" stop-color="#E2E2E2"/>
<stop offset="1" stop-color="#6F9A3A"/>
</linearGradient>
</defs>
</svg>
