<svg width="651" height="732" viewBox="0 0 651 732" fill="none" xmlns="http://www.w3.org/2000/svg">
<path d="M507.15 108.02C524.72 122.25 517.32 236.72 478.35 251.85C433.52 269.26 351.61 196.88 364.66 149.8C375.75 109.8 489.57 93.79 507.15 108.02Z" fill="#353535"/>
<path d="M479.54 273.39C480.19 309.75 461.83 337.11 456.49 344.84C416.28 403.08 342.83 402.85 318.96 402.77C263.52 402.59 166.99 379.67 149.2 310.13C139.23 271.17 158.46 235.11 167.45 218.27C195.79 165.13 254.51 124.59 318.96 126.83C400.18 129.65 478.23 199.98 479.54 273.39Z" fill="white"/>
<mask id="mask0_1816_15649" style="mask-type:luminance" maskUnits="userSpaceOnUse" x="146" y="126" width="334" height="277">
<path d="M479.54 273.39C480.19 309.75 461.83 337.11 456.49 344.84C416.28 403.08 342.83 402.85 318.96 402.77C263.52 402.59 166.99 379.67 149.2 310.13C139.23 271.17 158.46 235.11 167.45 218.27C195.79 165.13 254.51 124.59 318.96 126.83C400.18 129.65 478.23 199.98 479.54 273.39Z" fill="white"/>
</mask>
<g mask="url(#mask0_1816_15649)">
<path d="M367.72 114.93C361.96 127.97 360.96 142.45 363.82 156.34C366.68 170.23 373.43 183.7 382.61 194.75C392.42 206.56 405.38 215.53 419.31 221.84C433.94 228.47 449.66 232.28 465.56 234.23C473.4 235.19 481.31 235.73 489.21 235.81C496.21 235.87 503.26 235.41 510.11 233.94C516.96 232.47 523.22 230.08 528.62 225.96C534.02 221.84 538.07 216.17 539.88 209.61C543.64 195.97 538.01 180.99 528.83 170.78C518.16 158.91 502.4 152.88 487.47 148.44C478.92 145.89 470.27 143.66 461.65 141.33C452.18 138.76 442.72 136.19 433.25 133.63C414.4 128.52 395.54 123.4 376.69 118.29C372.12 117.05 367.54 115.81 362.97 114.57C361.1 114.06 360.31 116.96 362.17 117.46C380.46 122.42 398.75 127.38 417.05 132.35C435.26 137.29 453.47 142.23 471.69 147.17C486.87 151.29 502.61 155.18 515.94 163.88C527.67 171.54 536.84 183.76 537.94 198.08C538.45 204.69 537.04 211.31 533.29 216.84C529.54 222.37 524.36 225.9 518.52 228.29C505.59 233.58 490.94 233.27 477.25 232.36C461.75 231.33 446.29 228.66 431.59 223.56C417.23 218.58 403.45 211.1 392.29 200.69C382.14 191.21 374.24 179.21 369.63 166.09C365.02 152.97 363.75 139.26 367.06 126.01C367.87 122.75 368.95 119.55 370.31 116.48C371.08 114.73 368.5 113.2 367.72 114.97V114.93Z" fill="white"/>
<path d="M377.47 119.56C359.5 134.09 352.52 159.69 357.41 182.28C362.3 204.86 377.74 224.26 396.86 237.24C415.97 250.22 438.54 257.31 461.28 261.43C468.94 262.82 477.1 263.84 484.32 260.89C493.02 257.34 498.56 248.72 502.14 240.03C511.64 216.93 510.71 189.76 499.64 167.37C488.57 144.98 467.56 127.73 443.44 121.25C422.43 115.6 400.22 117.89 378.59 120.21" fill="#353535"/>
</g>
<path d="M128.15 108.02C110.58 122.25 117.98 236.72 156.95 251.85C201.78 269.26 283.69 196.88 270.64 149.8C259.55 109.8 145.73 93.79 128.15 108.02Z" fill="#FFDC83"/>
<path d="M148.21 128.51C138.86 136.08 142.8 196.98 163.53 205.04C187.38 214.3 230.96 175.79 224.02 150.74C218.12 129.46 157.56 120.94 148.21 128.51Z" fill="#FFBBD2"/>
<path d="M488.28 128.51C497.63 136.08 493.69 196.98 472.96 205.04C449.11 214.3 405.53 175.79 412.47 150.74C418.37 129.46 478.93 120.94 488.28 128.51Z" fill="#FFBBD2"/>
<path d="M405.89 244.28C403.79 257.67 390.34 267.45 376.23 267.45C362.71 267.45 351.44 258.44 350.44 246.21" fill="#86C663"/>
<path d="M350.44 246.21C349.33 232.53 361.21 219.2 377.87 217.9C395.45 216.53 408.27 229.15 405.9 244.28" fill="#4D962C"/>
<path d="M230.22 244.28C232.32 257.67 245.77 267.45 259.88 267.45C273.4 267.45 284.67 258.44 285.67 246.21" fill="#86C663"/>
<path d="M285.67 246.21C286.78 232.53 274.9 219.2 258.24 217.9C240.66 216.53 227.84 229.15 230.21 244.28" fill="#4D962C"/>
<path d="M377.07 262.58C386.26 262.58 393.71 254.342 393.71 244.18C393.71 234.018 386.26 225.78 377.07 225.78C367.88 225.78 360.43 234.018 360.43 244.18C360.43 254.342 367.88 262.58 377.07 262.58Z" fill="black"/>
<path d="M392.39 243.68C395.312 243.68 397.68 241.312 397.68 238.39C397.68 235.469 395.312 233.1 392.39 233.1C389.469 233.1 387.1 235.469 387.1 238.39C387.1 241.312 389.469 243.68 392.39 243.68Z" fill="white"/>
<path d="M257.8 262.58C266.99 262.58 274.44 254.342 274.44 244.18C274.44 234.018 266.99 225.78 257.8 225.78C248.61 225.78 241.16 234.018 241.16 244.18C241.16 254.342 248.61 262.58 257.8 262.58Z" fill="black"/>
<path d="M269.6 243.68C272.522 243.68 274.89 241.312 274.89 238.39C274.89 235.469 272.522 233.1 269.6 233.1C266.679 233.1 264.31 235.469 264.31 238.39C264.31 241.312 266.679 243.68 269.6 243.68Z" fill="white"/>
<path d="M323.82 253.54C304.03 251.98 291.05 275.49 294.95 284.79C300.27 297.47 342.67 297.38 348.28 283.77C352.03 274.66 341.2 254.91 323.82 253.54Z" fill="#FFDC83"/>
<path d="M331.93 265.14C332.66 268.32 327.39 273.35 321.89 273.49C316.05 273.64 310.4 268.25 311.14 265C311.85 261.9 318.36 260.86 322.31 261.04C324.99 261.16 331.22 262.06 331.93 265.14Z" fill="#FFBBD2"/>
<path d="M372.6 20.11C366.84 20.11 361.37 21.37 356.45 23.64C348.98 9.57 334.28 0 317.35 0C300.42 0 285.87 9.47 278.36 23.42C273.57 21.29 268.28 20.11 262.71 20.11C241.22 20.11 223.81 47.46 223.81 69.14C223.81 90.82 241.23 108.39 262.71 108.39C275.52 108.39 286.89 102.14 293.98 92.5C300.76 96.76 308.77 99.22 317.35 99.22C325.93 99.22 334.27 96.66 341.14 92.24C348.21 102.03 359.67 108.4 372.6 108.4C394.09 108.4 411.5 90.83 411.5 69.15C411.5 47.47 394.08 20.12 372.6 20.12V20.11Z" fill="white"/>
<path d="M373.02 140.91C365.39 135.88 345.95 133.36 317.76 133.24C289.06 133.12 269.25 135.89 261.64 140.91C260.06 123.74 258.39 114.23 256.62 94.96C268.63 89.43 289.33 81.97 316.37 81.79C344.44 81.6 365.9 89.36 378.07 94.96C376.29 114.23 374.61 123.74 373.03 140.91H373.02Z" fill="white"/>
<g opacity="0.8">
<path d="M357.73 35.47C358.49 41.3 358.82 49.53 356.73 59.1C354.2 70.67 349.18 79.48 345.36 85.03" fill="white"/>
<path d="M357.73 35.47C362.88 52.49 357.66 72.31 345.35 85.03C348.94 77.11 352.2 69.29 354.3 60.92C356.46 52.57 357.33 44.16 357.73 35.47Z" fill="#DADADA"/>
</g>
<g opacity="0.8">
<path d="M277.19 36.23C276.43 42.06 276.1 50.29 278.19 59.86C280.72 71.43 285.74 80.24 289.56 85.79" fill="white"/>
<path d="M277.19 36.22C277.59 44.91 278.46 53.32 280.62 61.67C282.72 70.04 285.98 77.86 289.57 85.78C277.26 73.06 272.04 53.24 277.19 36.22Z" fill="#DADADA"/>
</g>
<g opacity="0.8">
<path d="M265.44 106.96C296.18 89.5899 336.08 89.5599 366.81 106.96C358.69 103.68 350.37 101.07 341.88 99.3099C316.32 93.8599 289.54 97.0099 265.44 106.96Z" fill="#D7D7D7"/>
</g>
<path d="M288.47 688.14C276.95 693.76 265.23 693.99 257.46 693.31C250.62 693.52 239.88 692.89 229.23 687.74C222.98 684.72 219.81 681.62 218.25 679.9C216.55 678.03 213.18 674.26 211.79 668.35C211.37 666.58 211.15 664.73 211.15 662.83C211.15 649.54 222.03 638.66 235.32 638.66H280.97C294.26 638.66 305.14 649.54 305.14 662.83C305.09 666.09 304.5 673.59 299.21 680.18C298.12 681.54 295.24 684.83 288.48 688.13L288.47 688.14Z" fill="#7F7F7F"/>
<path d="M421.52 688.14C410 693.76 398.28 693.99 390.51 693.31C383.67 693.52 372.93 692.89 362.28 687.74C356.03 684.72 352.86 681.62 351.3 679.9C349.6 678.03 346.23 674.26 344.84 668.35C344.42 666.58 344.2 664.73 344.2 662.83C344.2 649.54 355.08 638.66 368.37 638.66H414.02C427.31 638.66 438.19 649.54 438.19 662.83C438.14 666.09 437.55 673.59 432.26 680.18C431.17 681.54 428.29 684.83 421.53 688.13L421.52 688.14Z" fill="#7F7F7F"/>
<path d="M441.39 655.35H207.23C191.87 655.35 179.69 641.79 180.63 625.74L191.1 447.76C193.37 409.24 223.86 379.22 260.72 379.22H387.88C424.74 379.22 455.24 409.24 457.5 447.76L467.97 625.74C468.91 641.79 456.73 655.35 441.37 655.35H441.39Z" fill="white"/>
<path d="M235.93 416.15L172.26 473.68C158.32 486.28 140.77 487.94 133.26 477.38L131.88 475.44C124.37 464.88 129.63 445.93 143.58 433.34L207.25 375.81C221.19 363.21 238.74 361.55 246.25 372.11L247.63 374.05C255.14 384.61 249.88 403.56 235.93 416.15Z" fill="white"/>
<path d="M268.5 459.08C274.36 459.08 279.11 454.33 279.11 448.47C279.11 442.61 274.36 437.86 268.5 437.86C262.64 437.86 257.89 442.61 257.89 448.47C257.89 454.33 262.64 459.08 268.5 459.08Z" fill="#E8E8E8"/>
<path d="M360.92 459.08C366.78 459.08 371.53 454.33 371.53 448.47C371.53 442.61 366.78 437.86 360.92 437.86C355.06 437.86 350.31 442.61 350.31 448.47C350.31 454.33 355.06 459.08 360.92 459.08Z" fill="#E8E8E8"/>
<path d="M268.5 496.59C274.36 496.59 279.11 491.84 279.11 485.98C279.11 480.12 274.36 475.37 268.5 475.37C262.64 475.37 257.89 480.12 257.89 485.98C257.89 491.84 262.64 496.59 268.5 496.59Z" fill="#E8E8E8"/>
<path d="M360.92 496.59C366.78 496.59 371.53 491.84 371.53 485.98C371.53 480.12 366.78 475.37 360.92 475.37C355.06 475.37 350.31 480.12 350.31 485.98C350.31 491.84 355.06 496.59 360.92 496.59Z" fill="#E8E8E8"/>
<path d="M268.5 537.18C274.36 537.18 279.11 532.43 279.11 526.57C279.11 520.71 274.36 515.96 268.5 515.96C262.64 515.96 257.89 520.71 257.89 526.57C257.89 532.43 262.64 537.18 268.5 537.18Z" fill="#E8E8E8"/>
<path d="M360.92 537.18C366.78 537.18 371.53 532.43 371.53 526.57C371.53 520.71 366.78 515.96 360.92 515.96C355.06 515.96 350.31 520.71 350.31 526.57C350.31 532.43 355.06 537.18 360.92 537.18Z" fill="#E8E8E8"/>
<path d="M467.92 570.52C428.17 577.38 377.83 582.81 321.56 582.91C263.94 583.01 213.78 577.35 173.36 570.37C173.36 565.26 174.17 560.55 174.17 555.44C215.12 562.11 264.4 566.98 321.56 566.88C377.38 566.78 426.39 561.59 466.64 555.04C466.64 560.15 467.91 565.41 467.91 570.52H467.92Z" fill="#E8E8E8"/>
<path d="M648.85 699.07C434.13 701.63 219.41 704.19 4.69 706.75C3.18 703.42 1.29 698.35 0.440002 691.93C0.280002 690.71 0 688.28 0 682.12C0 677.6 0.149988 671.34 0.799988 663.77H650C650.73 669.9 651.11 677.19 650.57 685.34C650.24 690.35 649.61 694.94 648.84 699.06L648.85 699.07Z" fill="#E5BD7F"/>
<path d="M607.83 731.59H42.8801C14.1601 731.59 -6.08998 703.41 3.08002 676.19L39.11 569.23C44.86 552.15 60.88 540.64 78.91 540.64H571.8C589.83 540.64 605.84 552.14 611.6 569.23L647.63 676.19C656.8 703.41 636.55 731.59 607.83 731.59Z" fill="#E5BD7F"/>
<path d="M607.83 705.06H42.8801C14.1601 705.06 -6.08998 676.88 3.08002 649.66L39.11 542.7C44.86 525.62 60.88 514.11 78.91 514.11H571.8C589.83 514.11 605.84 525.61 611.6 542.7L647.63 649.66C656.8 676.88 636.55 705.06 607.83 705.06Z" fill="#F4D5A4"/>
<mask id="mask1_1816_15649" style="mask-type:luminance" maskUnits="userSpaceOnUse" x="0" y="514" width="650" height="192">
<path d="M607.83 705.06H42.8801C14.1601 705.06 -6.08998 676.88 3.08002 649.66L39.11 542.7C44.86 525.62 60.88 514.11 78.91 514.11H571.8C589.83 514.11 605.84 525.61 611.6 542.7L647.63 649.66C656.8 676.88 636.55 705.06 607.83 705.06Z" fill="white"/>
</mask>
<g mask="url(#mask1_1816_15649)">
<path d="M32.6802 551.77C44.3802 551.76 56.2502 552.28 67.7402 549.67C73.4302 548.38 79.0302 546.23 83.8002 542.83C89.0102 539.12 92.9902 534.19 95.5302 528.32C98.4302 521.6 99.6002 514.34 101.81 507.39C102.51 505.18 99.0402 504.23 98.3402 506.43C96.4502 512.36 95.3702 518.53 93.2402 524.39C91.1102 530.25 87.8402 535.17 83.0202 538.96C74.2002 545.89 62.4402 547.57 51.5602 548.05C45.2702 548.32 38.9702 548.17 32.6702 548.18C30.3502 548.18 30.3502 551.78 32.6702 551.78L32.6802 551.77Z" fill="#EAC696"/>
<path d="M23.88 574.76C43.82 575.88 63.9199 571.99 82.0699 563.66C98.9499 555.91 113.95 544.14 125.61 529.7C132.07 521.71 137.53 512.96 141.8 503.61C142.75 501.52 139.65 499.69 138.69 501.79C131.31 517.96 120.35 532.36 106.75 543.8C92.28 555.97 74.8899 564.41 56.4499 568.52C45.7699 570.9 34.8 571.77 23.88 571.16C21.57 571.03 21.57 574.63 23.88 574.76Z" fill="#EAC696"/>
<path d="M6.75024 600.13C25.1102 603.69 44.0102 603.79 62.4202 600.55C80.3902 597.39 97.7002 590.96 113.41 581.68C127.32 573.47 139.99 563.34 152.32 552.96C164.65 542.58 176.85 531.66 189.86 521.94C202.47 512.51 216.01 504.06 230.87 498.68C232.74 498 234.64 497.37 236.54 496.79C238.75 496.11 237.81 492.64 235.58 493.32C220.39 497.98 206.41 505.74 193.47 514.88C180.35 524.16 168.21 534.72 156 545.13C143.79 555.54 131.45 565.89 117.96 574.62C103.08 584.26 86.8402 591.41 69.5402 595.43C52.2402 599.45 32.7903 600.5 14.5403 597.83C12.2403 597.49 9.96024 597.1 7.68024 596.66C5.40024 596.22 4.45028 599.69 6.72028 600.13H6.75024Z" fill="#EAC696"/>
<path d="M-5.34979 640.14C19.0702 642.42 44.1402 644.62 68.3302 639.23C80.1102 636.61 91.2202 631.97 101.42 625.53C111.5 619.16 120.64 611.46 129.84 603.91C139.04 596.36 148.35 589.25 158.29 582.81C168.23 576.37 178.29 570.65 188.65 565.21C209.38 554.34 230.82 544.91 252.03 535.02C273.25 525.12 294.32 514.71 314.03 502C316.45 500.44 318.85 498.84 321.22 497.21C323.12 495.91 321.32 492.79 319.4 494.1C300.13 507.33 279.33 518.1 258.25 528.12C237.1 538.17 215.61 547.51 194.7 558.06C174 568.5 153.92 580.21 135.68 594.59C126.32 601.97 117.39 609.88 107.74 616.88C98.0502 623.92 87.6702 629.81 76.2102 633.41C52.7502 640.76 27.6502 639.45 3.49017 637.35C0.540173 637.09 -2.39978 636.82 -5.33978 636.55C-7.63978 636.33 -7.62978 639.93 -5.33978 640.15L-5.34979 640.14Z" fill="#EAC696"/>
<path d="M74.7899 711.98C90.5199 717.43 107.69 715.51 122.99 709.6C139.19 703.35 153.07 693.01 165.7 681.28C178.79 669.13 190.63 655.71 203.84 643.68C216.44 632.21 230.39 622.36 245.11 613.82C259.89 605.25 275.38 597.96 291.13 591.39C306.92 584.8 322.99 578.9 339.07 573.05C354.74 567.35 370.44 561.73 385.9 555.48C401.36 549.23 415.5 542.91 429.7 535.4C443.9 527.89 457.48 519.47 470.14 509.67C482.57 500.06 494 489.12 503.7 476.75C506.09 473.7 508.38 470.58 510.56 467.38C511.87 465.46 508.75 463.66 507.45 465.56C498.66 478.45 488.01 489.98 476.18 500.13C464.35 510.28 451.21 519.16 437.6 526.94C423.69 534.9 409.19 541.8 394.44 548.07C379.58 554.39 364.44 559.99 349.27 565.51C333.19 571.36 317.08 577.13 301.17 583.44C285.26 589.75 269.85 596.44 254.84 604.33C239.96 612.15 225.68 621.11 212.51 631.57C198.73 642.52 186.74 655.37 174.37 667.82C162.2 680.07 149.44 692.06 134.2 700.42C119.98 708.22 103.55 713.16 87.22 711.19C83.31 710.72 79.46 709.78 75.75 708.49C73.56 707.73 72.6199 711.2 74.7899 711.96V711.98Z" fill="#EAC696"/>
<path d="M589.15 717.18C568.99 715.01 547.49 712.62 530.36 700.78C516.98 691.54 506.72 673.78 510.39 657.18C514.48 638.71 533.91 630.78 550.49 627.08C570.62 622.59 591.63 621.88 612.04 624.81C632.45 627.74 652.46 634.22 670.61 644.11C672.84 645.33 675.04 646.6 677.22 647.91C679.21 649.11 681.02 646 679.04 644.8C660.66 633.7 640.2 626.08 619.06 622.31C597.88 618.53 576.08 618.51 554.93 622.5C537.06 625.87 516.1 632.69 508.56 651.02C501.58 667.99 510.09 687.69 522.91 699.4C538.56 713.7 560.87 717.49 581.16 719.88C583.82 720.19 586.48 720.48 589.15 720.77C590.12 720.87 590.94 719.87 590.95 718.97C590.96 717.91 590.11 717.27 589.15 717.17V717.18Z" fill="#EAC696"/>
<path d="M622.93 716.84C607 713.9 591.64 708.25 577.64 700.1C566.11 693.39 550.59 683.67 551.33 668.35C551.97 655.22 565.67 643.29 578.73 644.5C585.73 645.15 592.23 649.03 598.37 652.13C604.02 654.98 609.76 657.62 615.68 659.88C629.21 665.06 643.39 668.33 657.76 670.11C659.95 670.38 662.15 670.61 664.35 670.82C666.55 671.03 666.64 667.43 664.35 667.22C648.9 665.8 633.6 662.62 619.02 657.3C613.06 655.13 607.28 652.56 601.61 649.73C594.97 646.41 588.16 642.32 580.72 641.15C566.5 638.92 551.9 649.85 548.44 663.56C546.61 670.81 548.44 678.31 552.67 684.38C557.08 690.71 563.34 695.28 569.73 699.44C583.77 708.59 599.47 715.27 615.81 719.03C617.85 719.5 619.91 719.92 621.97 720.3C624.23 720.72 625.2 717.25 622.93 716.83V716.84Z" fill="#EAC696"/>
<path d="M537.28 507.82C535.51 516.83 531.99 525.4 526.88 533.03C524.28 536.92 521.26 540.49 517.93 543.77C514.6 547.05 510.74 550.33 507.19 553.66C500.42 560.02 494.06 567.61 492.41 577.04C491 585.1 493.66 593.07 500.13 598.19C505.93 602.78 513.6 604.87 520.93 604.41C529.83 603.85 538.1 599.57 545.18 594.38C559.99 583.53 571.63 566.99 590.11 562.06C599.72 559.49 609.79 559.82 619.51 557.83C627.32 556.23 635.45 552.97 640.77 546.8C642.08 545.29 643.2 543.64 644.1 541.85C645.13 539.79 642.03 537.96 640.99 540.03C637.46 547.07 630.35 551.08 623.03 553.24C614.06 555.89 604.59 555.79 595.41 557.27C590.7 558.03 586.13 559.27 581.77 561.22C577.74 563.03 573.98 565.41 570.45 568.05C563.26 573.43 556.98 579.84 550.22 585.72C543.46 591.6 536.15 597.02 527.54 599.55C520.67 601.57 513.13 601.26 506.65 598.05C500.17 594.84 495.66 589.02 495.59 581.68C495.5 572.57 501.18 564.64 507.36 558.48C514 551.85 521.46 546.17 527.22 538.68C532.61 531.67 536.69 523.66 539.19 515.18C539.81 513.06 540.33 510.92 540.75 508.75C541.17 506.58 537.73 505.52 537.28 507.79V507.82Z" fill="#EAC696"/>
<path d="M363.59 595.72C370.92 597.35 378.64 596.64 385.57 593.76C392.39 590.92 399.36 585.8 402.35 578.83C403.88 575.26 404.07 571.3 402.18 567.83C400.55 564.82 397.39 562.52 393.87 562.7C390.35 562.88 387.36 565.29 385.08 567.94C382.55 570.89 380.31 573.99 377.47 576.67C374.14 579.81 370.42 582.25 366.44 584.48C362.46 586.71 358.94 590.44 361.13 595.09C362.11 597.18 365.22 595.36 364.24 593.27C363.64 592 364.46 590.5 365.35 589.6C366.56 588.37 368.19 587.63 369.68 586.79C372.75 585.07 375.64 583.04 378.31 580.74C380.98 578.44 383.29 575.93 385.43 573.2C387.22 570.91 389.07 568.27 391.71 566.9C394.17 565.63 396.82 566.43 398.45 568.59C400.33 571.07 400.33 574.22 399.22 577.03C396.89 582.97 390.85 587.4 385.24 589.98C378.83 592.92 371.44 593.75 364.55 592.22C362.29 591.72 361.33 595.19 363.59 595.69V595.72Z" fill="#EAC696"/>
<path d="M513.55 505.82C498.88 510.42 488.52 523.03 481.75 536.29C477.61 544.39 474.47 552.94 471.06 561.35C467.69 569.65 463.87 577.7 459.01 585.24C449.31 600.26 436.8 613.28 424.81 626.45C411.74 640.82 398.61 655.13 385.42 669.39C372.23 683.65 358.87 697.98 345.5 712.18C343.86 713.92 342.23 715.66 340.59 717.39C338.95 719.12 341.54 721.62 343.13 719.93C356.4 705.85 369.61 691.72 382.76 677.54C395.85 663.42 408.89 649.24 421.87 635C434.02 621.67 446.7 608.58 457.34 593.98C462.5 586.9 467.01 579.4 470.64 571.42C474.27 563.44 477.39 554.71 480.96 546.44C486.97 532.52 495.37 518.15 509.52 511.23C511.14 510.44 512.81 509.79 514.52 509.26C516.72 508.57 515.78 505.09 513.56 505.79L513.55 505.82Z" fill="#EAC696"/>
<path d="M219.19 721.1C225.83 708.29 233.96 696.28 243.42 685.39C252.88 674.5 263.57 664.68 275.29 656.28C281.13 652.09 287.21 648.25 293.51 644.78C296.4 643.19 299.31 641.72 302.51 640.86C305.22 640.13 308.29 639.71 310.98 640.77C318.15 643.59 315.01 652.96 313.19 658.24C310.27 666.71 307.35 675.18 304.42 683.65C298.55 700.67 292.68 717.69 286.81 734.71C286.08 736.83 285.35 738.95 284.62 741.06C283.89 743.17 287.34 744.2 288.09 742.02C294.2 724.29 300.32 706.57 306.43 688.84C309.46 680.05 312.49 671.27 315.52 662.48C317.85 655.74 321.73 646.85 316.49 640.46C312.13 635.15 304.39 636.15 298.68 638.31C295.39 639.55 292.32 641.28 289.27 643.03C285.98 644.91 282.75 646.9 279.58 648.98C267.06 657.22 255.52 666.97 245.3 677.94C235.08 688.91 226.07 701.2 218.75 714.35C217.84 715.98 216.96 717.62 216.11 719.27C215.05 721.32 218.15 723.15 219.22 721.09L219.19 721.1Z" fill="#EAC696"/>
<path d="M635.62 712.65C629.15 712.32 622.72 710.78 616.83 708.07C610.94 705.36 605.43 701.86 601.39 697.07C599.48 694.8 598.07 691.84 598.69 688.82C599.26 685.98 601.58 684.34 604.4 684.23C607.6 684.11 610.48 685.68 613.13 687.31C616.31 689.27 619.44 691.31 622.59 693.31C630.03 698.04 637.46 702.76 644.9 707.49C646.86 708.74 648.67 705.62 646.72 704.38C639.42 699.74 632.13 695.11 624.83 690.47C621.3 688.23 617.81 685.89 614.21 683.75C611.15 681.93 607.67 680.37 604.03 680.65C600.67 680.9 597.45 682.57 595.97 685.72C594.49 688.87 594.76 692.39 596.14 695.47C597.62 698.76 600.31 701.37 603.05 703.63C605.79 705.89 608.85 707.98 612.05 709.7C619.32 713.6 627.4 715.83 635.64 716.25C637.95 716.37 637.95 712.77 635.64 712.65H635.62Z" fill="#EAC696"/>
<path d="M418 707.46C424.45 688.48 435.76 671.26 450.54 657.74C452.38 656.05 454.28 654.42 456.23 652.86C458.18 651.3 460.27 649.65 462.62 648.65C464.68 647.77 467.06 647.46 469.04 648.71C470.48 649.62 471.36 651.18 471.88 652.77C473.3 657.1 472.8 661.84 472.65 666.31C472.45 672.46 472.24 678.6 472.04 684.75C471.58 698.62 471.12 712.49 470.66 726.36C470.58 728.68 474.18 728.67 474.26 726.36C474.69 713.24 475.13 700.12 475.56 686.99C475.77 680.51 475.99 674.03 476.2 667.56C476.36 662.61 476.89 657.43 475.57 652.58C474.39 648.24 471.34 644.6 466.61 644.28C461.13 643.91 456.36 648.09 452.43 651.35C444.19 658.17 436.91 666.11 430.72 674.82C423.82 684.53 418.37 695.24 414.54 706.52C413.79 708.72 417.27 709.66 418.01 707.48L418 707.46Z" fill="#EAC696"/>
<path d="M404.63 500.31C376.01 502.75 348.49 511.63 322.61 523.85C296.31 536.27 271.7 551.94 247.64 568.19C225.3 583.27 203.01 598.52 181.56 614.85C160.73 630.7 140.65 647.72 123.04 667.14C105.8 686.15 91.0499 707.49 81.0599 731.2C79.8499 734.06 78.7199 736.96 77.6499 739.88C76.8499 742.06 80.3299 743 81.1199 740.84C89.8299 717.01 103.53 695.31 119.97 676.07C136.41 656.83 156.21 639.17 176.53 623.26C196.85 607.35 219.05 592.06 240.82 577.19C264.58 560.95 288.69 545.04 314.35 531.93C339.51 519.07 366.33 509.01 394.41 505.06C397.81 504.58 401.22 504.21 404.63 503.92C406.92 503.72 406.94 500.12 404.63 500.32V500.31Z" fill="#EAC696"/>
</g>
<path d="M413.245 527.52L351.373 514.481C344.888 513.115 338.523 517.264 337.157 523.749L331.967 548.378C330.6 554.863 334.749 561.228 341.234 562.595L403.106 575.633C409.59 576.999 415.955 572.85 417.322 566.365L422.512 541.736C423.879 535.251 419.73 528.886 413.245 527.52Z" fill="#F2A100"/>
<path d="M151.41 523.13L130.6 475.9C126.04 465.56 133.53 453.58 147.24 449.29L149.75 448.5C163.46 444.2 178.41 449.15 182.96 459.49L203.77 506.72C208.33 517.06 200.84 529.04 187.13 533.33L184.62 534.12C170.91 538.42 155.96 533.47 151.41 523.13Z" fill="white"/>
<path d="M409.95 434.89L396.48 512.38C393.53 529.35 403.1 543.97 417.74 544.88L420.43 545.05C435.08 545.96 449.47 532.82 452.42 515.85L465.89 438.36C468.84 421.39 459.27 406.77 444.63 405.86L441.94 405.69C427.29 404.78 412.9 417.92 409.95 434.89Z" fill="white"/>
<path d="M444.13 530.25C444.68 544.25 427.81 557.71 412.14 554.52C398.18 551.68 387.15 536.02 391.59 522.91C395.72 510.71 411.45 505.99 423.2 508.75C433.04 511.06 443.7 519.45 444.13 530.24V530.25Z" fill="#353535"/>
<path d="M342.005 568.003L316.153 562.555C309.668 561.188 303.303 565.338 301.937 571.823L299.468 583.535C298.102 590.02 302.251 596.385 308.736 597.752L334.588 603.2C341.073 604.567 347.438 600.417 348.805 593.932L351.273 582.219C352.64 575.734 348.49 569.37 342.005 568.003Z" fill="#F2A100"/>
<path d="M338.015 595.271L297.739 586.784C296.664 586.557 295.608 587.245 295.382 588.321L294.487 592.567C294.26 593.643 294.948 594.698 296.024 594.925L336.299 603.412C337.374 603.639 338.43 602.951 338.657 601.875L339.552 597.629C339.778 596.553 339.09 595.498 338.015 595.271Z" fill="#D88B03"/>
<path d="M299.842 579.361L279.157 575.002C272.672 573.635 266.307 577.784 264.94 584.269L263.247 592.303C261.881 598.788 266.03 605.153 272.515 606.519L293.201 610.879C299.686 612.245 306.05 608.096 307.417 601.611L309.11 593.577C310.477 587.092 306.327 580.727 299.842 579.361Z" fill="#F2A100"/>
<path d="M296.28 602.949L256.005 594.462C254.929 594.235 253.874 594.923 253.647 595.999L252.752 600.245C252.526 601.321 253.214 602.376 254.289 602.603L294.565 611.09C295.64 611.317 296.696 610.629 296.922 609.553L297.817 605.307C298.044 604.231 297.356 603.176 296.28 602.949Z" fill="#D88B03"/>
<path d="M268.073 592.753L253.923 589.771C247.438 588.404 241.073 592.554 239.707 599.038L238.997 602.405C237.631 608.89 241.78 615.255 248.265 616.621L262.414 619.603C268.899 620.969 275.264 616.82 276.631 610.335L277.34 606.969C278.707 600.484 274.558 594.119 268.073 592.753Z" fill="#F2A100"/>
<path d="M526.76 643.16C523.47 637.51 519.8 631.21 513.48 627.81C505.2 630.57 495.49 629.73 487.86 634.18C483.28 636.85 479.82 641.36 478.43 646.47C478.43 646.39 478.41 646.3 478.41 646.22C477.5 649.2 476.91 652.68 477.46 656.11C478.86 658.1 481.51 661.18 485.72 662.64C488.86 663.73 492.67 664.53 499.43 663.52C505.31 662.64 508.23 667.56 511.1 665.8C514.07 663.98 513.45 663.26 517.58 660.52C522.77 657.09 526.04 652.98 527.21 652.95C528.98 652.91 529.88 650.41 530.85 650.71C529.59 648.03 528.09 645.45 526.75 643.15L526.76 643.16Z" fill="#F2DA9E"/>
<path d="M487.87 634.18C495.5 629.73 505.21 630.57 513.49 627.81C511.96 626.99 510.27 626.33 508.4 625.9C501.07 624.22 493.18 626.47 487.81 630.91C484.53 633.62 482.85 636.6 481.69 638.7C481.06 639.83 479.51 642.66 478.41 646.22C478.41 646.3 478.43 646.39 478.43 646.47C479.82 641.36 483.29 636.84 487.86 634.18H487.87Z" fill="#F2DA9E"/>
<g opacity="0.64">
<path d="M487.88 634.2C495.51 629.75 505.22 630.59 513.5 627.83C511.97 627.01 510.28 626.35 508.41 625.92C501.08 624.24 493.19 626.49 487.82 630.93C484.54 633.64 482.86 636.62 481.7 638.72C481.07 639.85 479.52 642.68 478.42 646.24C478.42 646.32 478.44 646.41 478.44 646.49C479.83 641.38 483.3 636.86 487.87 634.2H487.88Z" fill="white"/>
</g>
<path d="M508.4 674.33C512.88 674.54 527.68 675.22 532.33 666.54C534.89 661.76 533.36 656.05 530.86 650.73C529.7 650.99 528.01 651.46 526.11 652.36C521.97 654.33 520.33 656.7 517.95 658.54C514.43 661.25 510.75 661.66 505.15 662.29C496.78 663.23 490.27 661.25 486.81 660.16C482.77 658.89 479.6 657.32 477.46 656.12C477.54 656.63 477.65 657.13 477.79 657.63C481.06 669.78 498.8 673.88 508.4 674.33Z" fill="#E8C577"/>
<path d="M550.55 621.09C547.26 615.44 543.59 609.14 537.27 605.74C528.99 608.5 519.28 607.66 511.65 612.11C507.07 614.78 503.61 619.29 502.22 624.4C502.22 624.32 502.2 624.23 502.2 624.15C501.29 627.13 500.7 630.61 501.25 634.04C502.65 636.03 505.3 639.11 509.51 640.57C512.65 641.66 516.46 642.46 523.22 641.45C529.1 640.57 532.02 645.49 534.89 643.73C537.86 641.91 537.24 641.19 541.37 638.45C546.56 635.02 549.83 630.91 551 630.88C552.77 630.84 553.67 628.34 554.64 628.64C553.38 625.96 551.88 623.38 550.54 621.08L550.55 621.09Z" fill="#F2DA9E"/>
<path d="M511.66 612.11C519.29 607.66 529 608.5 537.28 605.74C535.75 604.92 534.06 604.26 532.19 603.83C524.86 602.15 516.97 604.4 511.6 608.84C508.32 611.55 506.64 614.53 505.48 616.63C504.85 617.76 503.3 620.59 502.2 624.15C502.2 624.23 502.22 624.32 502.22 624.4C503.61 619.29 507.08 614.77 511.65 612.11H511.66Z" fill="#F2DA9E"/>
<g opacity="0.64">
<path d="M511.67 612.12C519.3 607.67 529.01 608.51 537.29 605.75C535.76 604.93 534.07 604.27 532.2 603.84C524.87 602.16 516.98 604.41 511.61 608.85C508.33 611.56 506.65 614.54 505.49 616.64C504.86 617.77 503.31 620.6 502.21 624.16C502.21 624.24 502.23 624.33 502.23 624.41C503.62 619.3 507.09 614.78 511.66 612.12H511.67Z" fill="white"/>
</g>
<path d="M532.19 652.25C536.67 652.46 551.47 653.14 556.12 644.46C558.68 639.68 557.15 633.97 554.65 628.65C553.49 628.91 551.8 629.38 549.9 630.28C545.76 632.25 544.12 634.62 541.74 636.46C538.22 639.17 534.54 639.58 528.94 640.21C520.57 641.15 514.06 639.17 510.6 638.08C506.56 636.81 503.39 635.24 501.25 634.04C501.33 634.55 501.44 635.05 501.58 635.55C504.85 647.7 522.59 651.8 532.19 652.25Z" fill="#E8C577"/>
<path d="M555.55 661.99C552.49 656.73 549.07 650.85 543.18 647.69C535.47 650.26 526.41 649.48 519.31 653.62C515.05 656.11 511.82 660.31 510.52 665.08C510.52 665 510.51 664.92 510.5 664.84C509.65 667.61 509.1 670.86 509.62 674.06C510.93 675.92 513.39 678.78 517.32 680.15C520.25 681.17 523.8 681.91 530.09 680.97C535.57 680.15 538.29 684.73 540.97 683.1C543.74 681.41 543.16 680.73 547 678.18C551.83 674.98 554.88 671.15 555.97 671.12C557.62 671.08 558.46 668.76 559.37 669.03C558.2 666.54 556.8 664.13 555.55 661.98V661.99Z" fill="#F2DA9E"/>
<path d="M519.31 653.63C526.42 649.49 535.47 650.27 543.18 647.7C541.75 646.93 540.18 646.32 538.44 645.92C531.61 644.35 524.26 646.45 519.25 650.59C516.19 653.12 514.63 655.89 513.55 657.85C512.97 658.91 511.52 661.54 510.5 664.85C510.5 664.93 510.51 665.01 510.52 665.09C511.82 660.33 515.05 656.12 519.31 653.63Z" fill="#F2DA9E"/>
<g opacity="0.64">
<path d="M519.32 653.64C526.43 649.5 535.48 650.28 543.19 647.71C541.76 646.94 540.19 646.33 538.45 645.93C531.62 644.36 524.27 646.46 519.26 650.6C516.2 653.13 514.64 655.9 513.56 657.86C512.98 658.92 511.53 661.55 510.51 664.86C510.51 664.94 510.52 665.02 510.53 665.1C511.83 660.34 515.06 656.13 519.32 653.64Z" fill="white"/>
</g>
<path d="M538.44 691.03C542.62 691.22 556.4 691.86 560.74 683.77C563.13 679.32 561.7 673.99 559.37 669.04C558.29 669.28 556.72 669.72 554.95 670.56C551.09 672.4 549.57 674.6 547.34 676.32C544.06 678.84 540.63 679.23 535.42 679.81C527.62 680.69 521.56 678.84 518.34 677.82C514.58 676.63 511.63 675.18 509.63 674.06C509.71 674.53 509.81 675 509.93 675.47C512.98 686.79 529.5 690.61 538.45 691.03H538.44Z" fill="#E8C577"/>
<path d="M585.84 625.41C582.47 619.62 578.71 613.16 572.23 609.68C563.74 612.51 553.78 611.65 545.96 616.21C541.27 618.95 537.72 623.57 536.29 628.81C536.29 628.72 536.27 628.64 536.26 628.55C535.32 631.6 534.72 635.17 535.29 638.69C536.73 640.73 539.44 643.89 543.76 645.39C546.98 646.51 550.89 647.33 557.82 646.29C563.85 645.39 566.84 650.43 569.79 648.63C572.84 646.77 572.2 646.02 576.43 643.22C581.75 639.7 585.1 635.49 586.3 635.46C588.11 635.42 589.04 632.86 590.04 633.16C588.75 630.42 587.22 627.77 585.84 625.41Z" fill="#F2DA9E"/>
<path d="M545.96 616.2C553.78 611.64 563.74 612.5 572.23 609.67C570.66 608.83 568.93 608.16 567.01 607.72C559.49 606 551.41 608.3 545.9 612.85C542.53 615.63 540.81 618.68 539.62 620.84C538.98 622 537.38 624.9 536.26 628.55C536.26 628.64 536.28 628.72 536.29 628.81C537.72 623.57 541.27 618.94 545.96 616.21V616.2Z" fill="#F2DA9E"/>
<g opacity="0.64">
<path d="M545.97 616.22C553.79 611.66 563.75 612.52 572.24 609.69C570.67 608.85 568.94 608.18 567.02 607.74C559.5 606.02 551.42 608.32 545.91 612.87C542.54 615.65 540.82 618.7 539.63 620.86C538.99 622.02 537.39 624.92 536.27 628.57C536.27 628.66 536.29 628.74 536.3 628.83C537.73 623.59 541.28 618.96 545.97 616.23V616.22Z" fill="white"/>
</g>
<path d="M567.01 657.36C571.6 657.57 586.77 658.27 591.54 649.37C594.17 644.47 592.59 638.61 590.04 633.16C588.85 633.43 587.12 633.91 585.17 634.83C580.93 636.85 579.25 639.28 576.8 641.16C573.19 643.94 569.42 644.36 563.68 645.01C555.1 645.97 548.42 643.94 544.88 642.82C540.74 641.51 537.49 639.91 535.29 638.68C535.37 639.2 535.48 639.72 535.62 640.23C538.97 652.68 557.15 656.89 567 657.35L567.01 657.36Z" fill="#E8C577"/>
<path d="M584.43 648.55C581.14 642.9 577.47 636.6 571.15 633.2C562.87 635.96 553.16 635.12 545.53 639.57C540.95 642.24 537.49 646.75 536.1 651.86C536.1 651.78 536.08 651.69 536.08 651.61C535.17 654.59 534.58 658.07 535.13 661.5C536.53 663.49 539.18 666.57 543.39 668.03C546.53 669.12 550.34 669.92 557.1 668.91C562.98 668.03 565.9 672.95 568.77 671.19C571.74 669.37 571.12 668.65 575.25 665.91C580.44 662.48 583.71 658.37 584.88 658.34C586.65 658.3 587.55 655.8 588.52 656.1C587.26 653.42 585.76 650.84 584.42 648.54L584.43 648.55Z" fill="#F2DA9E"/>
<path d="M545.53 639.58C553.16 635.13 562.87 635.97 571.15 633.21C569.62 632.39 567.93 631.73 566.06 631.3C558.73 629.62 550.84 631.87 545.47 636.31C542.19 639.02 540.51 642 539.35 644.1C538.72 645.23 537.17 648.06 536.07 651.62C536.07 651.7 536.09 651.79 536.09 651.87C537.48 646.76 540.95 642.24 545.52 639.58H545.53Z" fill="#F2DA9E"/>
<g opacity="0.64">
<path d="M545.54 639.59C553.17 635.14 562.88 635.98 571.16 633.22C569.63 632.4 567.94 631.74 566.07 631.31C558.74 629.63 550.85 631.88 545.48 636.32C542.2 639.03 540.52 642.01 539.36 644.11C538.73 645.24 537.18 648.07 536.08 651.63C536.08 651.71 536.1 651.8 536.1 651.88C537.49 646.77 540.96 642.25 545.53 639.59H545.54Z" fill="white"/>
</g>
<path d="M566.06 679.72C570.54 679.93 585.34 680.61 589.99 671.93C592.55 667.15 591.02 661.44 588.52 656.12C587.36 656.38 585.67 656.85 583.77 657.75C579.63 659.72 577.99 662.09 575.61 663.93C572.09 666.64 568.41 667.05 562.81 667.68C554.44 668.62 547.93 666.64 544.47 665.55C540.43 664.28 537.26 662.71 535.12 661.51C535.2 662.02 535.31 662.52 535.45 663.02C538.72 675.17 556.46 679.27 566.06 679.72Z" fill="#E8C577"/>
<path d="M622.91 636.22C619.54 630.43 615.78 623.97 609.3 620.49C600.81 623.32 590.85 622.46 583.03 627.02C578.34 629.76 574.79 634.38 573.36 639.62C573.36 639.53 573.34 639.45 573.33 639.36C572.39 642.41 571.79 645.98 572.36 649.5C573.8 651.54 576.51 654.7 580.83 656.2C584.05 657.32 587.96 658.14 594.89 657.1C600.92 656.2 603.91 661.24 606.86 659.44C609.91 657.58 609.27 656.83 613.5 654.03C618.82 650.51 622.17 646.3 623.37 646.27C625.18 646.23 626.11 643.67 627.11 643.97C625.82 641.23 624.29 638.58 622.91 636.22Z" fill="#F2DA9E"/>
<path d="M583.03 627.02C590.85 622.46 600.81 623.32 609.3 620.49C607.73 619.65 606 618.98 604.08 618.54C596.56 616.82 588.48 619.12 582.97 623.67C579.6 626.45 577.88 629.5 576.69 631.66C576.05 632.82 574.45 635.72 573.33 639.37C573.33 639.46 573.35 639.54 573.36 639.63C574.79 634.39 578.34 629.76 583.03 627.03V627.02Z" fill="#F2DA9E"/>
<g opacity="0.64">
<path d="M583.04 627.03C590.86 622.47 600.82 623.33 609.31 620.5C607.74 619.66 606.01 618.99 604.09 618.55C596.57 616.83 588.49 619.13 582.98 623.68C579.61 626.46 577.89 629.51 576.7 631.67C576.06 632.83 574.46 635.73 573.34 639.38C573.34 639.47 573.36 639.55 573.37 639.64C574.8 634.4 578.35 629.77 583.04 627.04V627.03Z" fill="white"/>
</g>
<path d="M604.08 668.17C608.67 668.38 623.84 669.08 628.61 660.18C631.24 655.28 629.66 649.42 627.11 643.97C625.92 644.24 624.19 644.72 622.24 645.64C618 647.66 616.32 650.09 613.87 651.97C610.26 654.75 606.49 655.17 600.75 655.82C592.17 656.78 585.49 654.75 581.95 653.63C577.81 652.32 574.56 650.72 572.36 649.49C572.44 650.01 572.55 650.53 572.69 651.04C576.04 663.49 594.22 667.7 604.07 668.16L604.08 668.17Z" fill="#E8C577"/>
<path d="M83.9301 614.58C83.9301 614.58 87.0401 644.48 58.2501 657.68C29.4601 670.88 107.16 658.25 83.9301 614.58Z" fill="url(#paint0_linear_1816_15649)"/>
<path d="M123.47 648.92C123.47 648.92 97.3899 663.87 73.6599 642.91C49.9299 621.94 92.95 687.86 123.47 648.92Z" fill="url(#paint1_linear_1816_15649)"/>
<path d="M112.93 671.98C112.93 671.98 86.8499 686.93 63.1199 665.97C39.3899 645 82.4099 710.92 112.93 671.98Z" fill="url(#paint2_linear_1816_15649)"/>
<path d="M68.8399 673.16C68.8399 673.16 67.5499 643.12 97.0799 631.69C126.61 620.25 48.2899 628.16 68.8399 673.16Z" fill="url(#paint3_linear_1816_15649)"/>
<path d="M71.2898 680.16C71.2898 680.16 76.2698 650.51 107.53 645.46C138.79 640.41 60.5398 631.86 71.2898 680.16Z" fill="url(#paint4_linear_1816_15649)"/>
<path d="M91.0901 642.45C91.0901 642.45 65.0101 657.4 41.2801 636.44C17.5501 615.47 60.5701 681.39 91.0901 642.45Z" fill="url(#paint5_linear_1816_15649)"/>
<path d="M68.04 630.71C68.04 630.71 98.0801 629.47 109.46 659.03C120.84 688.58 113.08 610.25 68.04 630.71Z" fill="url(#paint6_linear_1816_15649)"/>
<path d="M69.5601 641.78C69.5601 641.78 99.6001 640.54 110.98 670.1C122.36 699.65 114.6 621.32 69.5601 641.78Z" fill="url(#paint7_linear_1816_15649)"/>
<path d="M39.71 638.27C39.71 638.27 69.75 637.03 81.13 666.59C92.51 696.14 84.75 617.81 39.71 638.27Z" fill="url(#paint8_linear_1816_15649)"/>
<path d="M125.01 664.09C125.01 664.09 98.0697 677.44 75.6497 655.07C53.2297 632.7 92.1798 701.11 125.01 664.09Z" fill="url(#paint9_linear_1816_15649)"/>
<path d="M31.9299 669.43C31.9299 669.43 37.52 639.89 68.88 635.49C100.24 631.09 22.1799 620.93 31.9299 669.43Z" fill="url(#paint10_linear_1816_15649)"/>
<path d="M43.57 657.58C43.57 657.58 49.16 628.04 80.52 623.64C111.88 619.24 33.82 609.08 43.57 657.58Z" fill="url(#paint11_linear_1816_15649)"/>
<path d="M43.57 679.78C43.57 679.78 49.16 650.24 80.52 645.84C111.88 641.44 33.82 631.28 43.57 679.78Z" fill="url(#paint12_linear_1816_15649)"/>
<path d="M73.34 654.08C73.34 654.08 78.93 624.54 110.29 620.14C141.65 615.74 63.59 605.58 73.34 654.08Z" fill="url(#paint13_linear_1816_15649)"/>
<path d="M88.9802 676.55C88.9802 676.55 94.5701 647.01 125.93 642.61C157.29 638.21 79.2302 628.05 88.9802 676.55Z" fill="url(#paint14_linear_1816_15649)"/>
<path d="M82.03 662.58C82.03 662.58 87.62 633.04 118.98 628.64C150.34 624.24 72.28 614.08 82.03 662.58Z" fill="url(#paint15_linear_1816_15649)"/>
<path d="M83.74 653.86C83.74 653.86 57.66 668.81 33.93 647.85C10.2 626.88 53.22 692.8 83.74 653.86Z" fill="url(#paint16_linear_1816_15649)"/>
<path d="M50.9102 627.81C50.9102 627.81 80.9502 626.57 92.3302 656.13C103.71 685.68 95.9502 607.35 50.9102 627.81Z" fill="url(#paint17_linear_1816_15649)"/>
<path d="M45.0498 645.94C45.0498 645.94 75.0898 644.7 86.4698 674.26C97.8498 703.81 90.0898 625.48 45.0498 645.94Z" fill="url(#paint18_linear_1816_15649)"/>
<path d="M37.6401 641.78C37.6401 641.78 67.6801 640.54 79.0601 670.1C90.4401 699.66 82.6801 621.32 37.6401 641.78Z" fill="url(#paint19_linear_1816_15649)"/>
<path d="M53.5003 662.56C53.5003 662.56 51.9802 632.54 81.4202 620.87C110.86 609.21 32.6103 617.72 53.5003 662.56Z" fill="url(#paint20_linear_1816_15649)"/>
<path d="M73.96 635.67C73.96 635.67 104 634.43 115.38 663.99C126.76 693.54 119 615.21 73.96 635.67Z" fill="url(#paint21_linear_1816_15649)"/>
<path d="M125.62 623.64C125.62 623.64 127.8 653.62 98.6199 665.93C69.4399 678.24 147.49 668.01 125.62 623.64Z" fill="url(#paint22_linear_1816_15649)"/>
<path d="M113.55 679.31C113.55 679.31 85.9198 667.47 88.3998 635.89C90.8798 604.32 64.0899 678.34 113.55 679.31Z" fill="url(#paint23_linear_1816_15649)"/>
<path d="M105.72 631.4C105.72 631.4 107.9 661.38 78.72 673.69C49.54 686 127.59 675.77 105.72 631.4Z" fill="url(#paint24_linear_1816_15649)"/>
<path d="M109.79 616.49C109.79 616.49 112.9 646.39 84.11 659.59C55.32 672.79 133.02 660.16 109.79 616.49Z" fill="url(#paint25_linear_1816_15649)"/>
<path d="M149.33 650.83C149.33 650.83 123.25 665.78 99.5198 644.82C75.7898 623.85 118.81 689.77 149.33 650.83Z" fill="url(#paint26_linear_1816_15649)"/>
<path d="M138.79 673.89C138.79 673.89 112.71 688.84 88.9803 667.88C65.2503 646.91 108.27 712.83 138.79 673.89Z" fill="url(#paint27_linear_1816_15649)"/>
<path d="M94.6998 675.08C94.6998 675.08 93.4098 645.04 122.94 633.61C152.47 622.17 74.1498 630.08 94.6998 675.08Z" fill="url(#paint28_linear_1816_15649)"/>
<path d="M97.1501 682.07C97.1501 682.07 102.13 652.42 133.39 647.37C164.65 642.32 86.4001 633.77 97.1501 682.07Z" fill="url(#paint29_linear_1816_15649)"/>
<path d="M116.95 644.37C116.95 644.37 90.8699 659.32 67.1399 638.36C43.4099 617.39 86.4299 683.31 116.95 644.37Z" fill="url(#paint30_linear_1816_15649)"/>
<path d="M93.8999 632.62C93.8999 632.62 123.94 631.38 135.32 660.94C146.7 690.49 138.94 612.16 93.8999 632.62Z" fill="url(#paint31_linear_1816_15649)"/>
<path d="M95.4199 643.69C95.4199 643.69 125.46 642.45 136.84 672.01C148.22 701.56 140.46 623.23 95.4199 643.69Z" fill="url(#paint32_linear_1816_15649)"/>
<path d="M65.5698 640.19C65.5698 640.19 95.6099 638.95 106.99 668.51C118.37 698.06 110.61 619.73 65.5698 640.19Z" fill="url(#paint33_linear_1816_15649)"/>
<path d="M150.86 666C150.86 666 123.92 679.35 101.5 656.98C79.0798 634.61 118.03 703.02 150.86 666Z" fill="url(#paint34_linear_1816_15649)"/>
<path d="M57.7897 671.34C57.7897 671.34 63.3798 641.8 94.7398 637.4C126.1 633 48.0397 622.84 57.7897 671.34Z" fill="url(#paint35_linear_1816_15649)"/>
<path d="M69.4299 659.49C69.4299 659.49 75.02 629.95 106.38 625.55C137.74 621.15 59.6799 610.99 69.4299 659.49Z" fill="url(#paint36_linear_1816_15649)"/>
<path d="M69.4299 681.69C69.4299 681.69 75.02 652.15 106.38 647.75C137.74 643.35 59.6799 633.19 69.4299 681.69Z" fill="url(#paint37_linear_1816_15649)"/>
<path d="M99.1999 655.99C99.1999 655.99 104.79 626.45 136.15 622.05C167.51 617.65 89.4499 607.49 99.1999 655.99Z" fill="url(#paint38_linear_1816_15649)"/>
<path d="M114.84 678.46C114.84 678.46 120.43 648.92 151.79 644.52C183.15 640.12 105.09 629.96 114.84 678.46Z" fill="url(#paint39_linear_1816_15649)"/>
<path d="M107.89 664.5C107.89 664.5 113.48 634.96 144.84 630.56C176.2 626.16 98.1398 616 107.89 664.5Z" fill="url(#paint40_linear_1816_15649)"/>
<path d="M109.6 655.77C109.6 655.77 83.5198 670.72 59.7898 649.76C36.0598 628.79 79.0799 694.71 109.6 655.77Z" fill="url(#paint41_linear_1816_15649)"/>
<path d="M76.77 629.73C76.77 629.73 106.81 628.49 118.19 658.05C129.57 687.6 121.81 609.27 76.77 629.73Z" fill="url(#paint42_linear_1816_15649)"/>
<path d="M70.9102 647.85C70.9102 647.85 100.95 646.61 112.33 676.17C123.71 705.72 115.95 627.39 70.9102 647.85Z" fill="url(#paint43_linear_1816_15649)"/>
<path d="M63.5 643.69C63.5 643.69 93.5399 642.45 104.92 672.01C116.3 701.56 108.54 623.23 63.5 643.69Z" fill="url(#paint44_linear_1816_15649)"/>
<path d="M79.3602 664.47C79.3602 664.47 77.8401 634.45 107.28 622.78C136.72 611.12 58.4702 619.63 79.3602 664.47Z" fill="url(#paint45_linear_1816_15649)"/>
<path d="M99.8198 637.59C99.8198 637.59 129.86 636.35 141.24 665.91C152.62 695.46 144.86 617.13 99.8198 637.59Z" fill="url(#paint46_linear_1816_15649)"/>
<path d="M151.48 625.55C151.48 625.55 153.66 655.53 124.48 667.84C95.3003 680.15 173.35 669.92 151.48 625.55Z" fill="url(#paint47_linear_1816_15649)"/>
<path d="M139.41 681.22C139.41 681.22 111.78 669.38 114.26 637.8C116.74 606.23 89.9502 680.25 139.41 681.22Z" fill="url(#paint48_linear_1816_15649)"/>
<path d="M131.58 633.31C131.58 633.31 133.76 663.29 104.58 675.6C75.3999 687.91 153.45 677.68 131.58 633.31Z" fill="url(#paint49_linear_1816_15649)"/>
<path d="M96.3501 598.33C96.3501 598.33 99.4601 628.23 70.6701 641.43C41.88 654.63 119.58 642 96.3501 598.33Z" fill="url(#paint50_linear_1816_15649)"/>
<path d="M135.88 632.67C135.88 632.67 109.8 647.62 86.0701 626.66C62.3401 605.69 105.36 671.61 135.88 632.67Z" fill="url(#paint51_linear_1816_15649)"/>
<path d="M125.34 655.73C125.34 655.73 99.2601 670.68 75.5301 649.72C51.8001 628.75 94.8201 694.67 125.34 655.73Z" fill="url(#paint52_linear_1816_15649)"/>
<path d="M81.2598 656.92C81.2598 656.92 79.9698 626.88 109.5 615.45C139.03 604.01 60.7098 611.92 81.2598 656.92Z" fill="url(#paint53_linear_1816_15649)"/>
<path d="M83.7102 663.91C83.7102 663.91 88.6902 634.26 119.95 629.21C151.21 624.16 72.9602 615.61 83.7102 663.91Z" fill="url(#paint54_linear_1816_15649)"/>
<path d="M103.51 626.21C103.51 626.21 77.43 641.16 53.7 620.2C29.97 599.23 72.99 665.15 103.51 626.21Z" fill="url(#paint55_linear_1816_15649)"/>
<path d="M80.46 614.46C80.46 614.46 110.5 613.22 121.88 642.78C133.26 672.33 125.5 594 80.46 614.46Z" fill="url(#paint56_linear_1816_15649)"/>
<path d="M81.98 625.53C81.98 625.53 112.02 624.29 123.4 653.85C134.78 683.4 127.02 605.07 81.98 625.53Z" fill="url(#paint57_linear_1816_15649)"/>
<path d="M52.1201 622.02C52.1201 622.02 82.16 620.78 93.54 650.34C104.92 679.89 97.1601 601.56 52.1201 622.02Z" fill="url(#paint58_linear_1816_15649)"/>
<path d="M137.42 647.84C137.42 647.84 110.48 661.19 88.0599 638.82C65.6399 616.45 104.59 684.86 137.42 647.84Z" fill="url(#paint59_linear_1816_15649)"/>
<path d="M44.3498 653.18C44.3498 653.18 49.9398 623.64 81.2998 619.24C112.66 614.84 34.5998 604.68 44.3498 653.18Z" fill="url(#paint60_linear_1816_15649)"/>
<path d="M55.9802 641.33C55.9802 641.33 61.5701 611.79 92.9301 607.39C124.29 602.99 46.2302 592.83 55.9802 641.33Z" fill="url(#paint61_linear_1816_15649)"/>
<path d="M55.9802 663.53C55.9802 663.53 61.5701 633.99 92.9301 629.59C124.29 625.19 46.2302 615.03 55.9802 663.53Z" fill="url(#paint62_linear_1816_15649)"/>
<path d="M85.76 637.83C85.76 637.83 91.3499 608.29 122.71 603.89C154.07 599.49 76.01 589.33 85.76 637.83Z" fill="url(#paint63_linear_1816_15649)"/>
<path d="M101.4 660.3C101.4 660.3 106.99 630.76 138.35 626.36C169.71 621.96 91.6501 611.8 101.4 660.3Z" fill="url(#paint64_linear_1816_15649)"/>
<path d="M94.4499 646.34C94.4499 646.34 100.04 616.8 131.4 612.4C162.76 608 84.6999 597.84 94.4499 646.34Z" fill="url(#paint65_linear_1816_15649)"/>
<path d="M96.1501 637.61C96.1501 637.61 70.0701 652.56 46.3401 631.6C22.6101 610.63 65.6301 676.55 96.1501 637.61Z" fill="url(#paint66_linear_1816_15649)"/>
<path d="M63.3301 611.57C63.3301 611.57 93.3701 610.33 104.75 639.89C116.13 669.44 108.37 591.11 63.3301 611.57Z" fill="url(#paint67_linear_1816_15649)"/>
<path d="M57.46 629.69C57.46 629.69 87.5 628.45 98.88 658.01C110.26 687.57 102.5 609.23 57.46 629.69Z" fill="url(#paint68_linear_1816_15649)"/>
<path d="M50.0601 625.53C50.0601 625.53 80.1001 624.29 91.4801 653.85C102.86 683.4 95.1001 605.07 50.0601 625.53Z" fill="url(#paint69_linear_1816_15649)"/>
<path d="M65.9202 646.31C65.9202 646.31 64.4002 616.29 93.8402 604.62C123.28 592.96 45.0302 601.47 65.9202 646.31Z" fill="url(#paint70_linear_1816_15649)"/>
<path d="M86.3799 619.42C86.3799 619.42 116.42 618.18 127.8 647.74C139.18 677.29 131.42 598.96 86.3799 619.42Z" fill="url(#paint71_linear_1816_15649)"/>
<path d="M138.03 607.39C138.03 607.39 140.21 637.37 111.03 649.68C81.8501 661.99 159.9 651.76 138.03 607.39Z" fill="url(#paint72_linear_1816_15649)"/>
<path d="M125.97 663.06C125.97 663.06 98.3402 651.22 100.82 619.64C103.3 588.07 76.5103 662.09 125.97 663.06Z" fill="url(#paint73_linear_1816_15649)"/>
<path d="M118.14 615.15C118.14 615.15 120.32 645.13 91.1399 657.44C61.9599 669.75 140.01 659.52 118.14 615.15Z" fill="url(#paint74_linear_1816_15649)"/>
<path d="M325.42 426.28C339.44 423.22 355.17 430.28 372.08 423.63C387.6 417.53 401.48 410.65 413.64 403.76C414.52 401.62 416.06 397.21 416.11 391.29C416.16 385.02 414.52 380.35 413.64 378.21C384.23 389.57 354.83 389.38 325.42 400.73V426.28Z" fill="#FF4848"/>
<path d="M312.83 426.28C298.81 423.22 283.08 430.28 266.17 423.63C250.65 417.53 236.77 410.65 224.61 403.76C223.73 401.62 222.19 397.21 222.14 391.29C222.09 385.02 223.73 380.35 224.61 378.21C254.02 389.57 283.42 389.38 312.83 400.73V426.28Z" fill="#FF4848"/>
<path d="M325.11 434.49H309.21C304.77 434.49 301.32 430.61 301.84 426.2L304.56 403.09C305 399.35 308.17 396.54 311.93 396.54H322.39C326.15 396.54 329.32 399.36 329.76 403.09L332.48 426.2C333 430.61 329.55 434.49 325.11 434.49Z" fill="#EA4949"/>
<path d="M310.12 432.98H323.63C327.6 432.98 331.05 435.71 331.97 439.57L338.89 468.63C339.47 471.06 339.17 473.62 338.05 475.85L324.31 503.16C321.17 509.39 312.22 509.23 309.31 502.89L296.93 475.95C296.01 473.95 295.74 471.72 296.14 469.57L301.71 439.98C302.47 435.93 306.01 432.99 310.13 432.99L310.12 432.98Z" fill="#FF4848"/>
<path d="M253.3 552.26L244.38 532.8L231.25 537.74L221.89 515.75L237.82 508.97L328.84 470.22C336.25 467.07 344.42 466 352.64 467.24C355.89 467.73 359.4 468.57 363.08 469.93C379.32 475.9 388.86 488.07 392.07 492.54C368.94 502.49 345.81 512.45 253.29 552.26H253.3Z" fill="#E5E5E5"/>
<mask id="mask2_1816_15649" style="mask-type:luminance" maskUnits="userSpaceOnUse" x="221" y="466" width="172" height="87">
<path d="M253.3 552.26L244.38 532.8L231.25 537.74L221.89 515.75L237.82 508.97L328.84 470.22C336.25 467.07 344.42 466 352.64 467.24C355.89 467.73 359.4 468.57 363.08 469.93C379.32 475.9 388.86 488.07 392.07 492.54C368.94 502.49 345.81 512.45 253.29 552.26H253.3Z" fill="white"/>
</mask>
<g mask="url(#mask2_1816_15649)">
<path opacity="0.66" d="M243.532 544.575L264.954 594.895L410.522 532.925L389.101 482.605L243.532 544.575Z" fill="white"/>
</g>
<path d="M145.464 550.648L153.795 570.218C154.933 572.891 158.022 574.135 160.695 572.997L223.657 546.194C226.33 545.056 227.575 541.967 226.437 539.294L218.105 519.723C216.967 517.05 213.878 515.806 211.205 516.944L148.243 543.748C145.57 544.885 144.326 547.975 145.464 550.648Z" fill="#878787"/>
<path d="M214.42 532.92C217.41 539.93 219.14 543.9 221.8 545.49C222.95 546.18 223.91 546.2 224.53 546.11L232.9 542.55C233.24 542.33 234.04 541.71 234.35 540.15C234.54 539.2 234.47 538.26 234.4 537.66C232.74 535.13 230.49 531.34 228.4 526.42C226.36 521.62 225.19 517.47 224.52 514.56C223.91 514.05 223.39 513.71 223.01 513.48C222.31 513.06 221.7 512.7 221.01 512.71C220.75 512.71 220.51 512.76 220.28 512.86L211.91 516.42C211.41 516.81 210.77 517.52 210.46 518.82C209.76 521.85 211.43 525.88 214.43 532.92H214.42Z" fill="#A5A5A5"/>
<path opacity="0.66" d="M369.23 491.11L318.9 474.93L290.05 487L337.41 505.23" fill="white"/>
<path opacity="0.66" d="M313.93 514.88L269.87 495.37L252.38 502.99L295.06 522.58" fill="white"/>
<path d="M160.48 540.76C164.22 554.26 184.39 561.94 198.34 554.13C210.77 547.17 216.5 528.9 208.28 517.76C200.63 507.4 184.21 507.7 173.86 513.91C165.19 519.11 157.59 530.35 160.48 540.76Z" fill="#FFDC83"/>
<defs>
<linearGradient id="paint0_linear_1816_15649" x1="61.5814" y1="625.441" x2="75.595" y2="654.365" gradientUnits="userSpaceOnUse">
<stop stop-color="#E2E2E2"/>
<stop offset="0.79" stop-color="#E2E2E2"/>
<stop offset="1" stop-color="#6F9A3A"/>
</linearGradient>
<linearGradient id="paint1_linear_1816_15649" x1="104.336" y1="633.084" x2="83.5755" y2="657.607" gradientUnits="userSpaceOnUse">
<stop stop-color="#E2E2E2"/>
<stop offset="0.79" stop-color="#E2E2E2"/>
<stop offset="1" stop-color="#6F9A3A"/>
</linearGradient>
<linearGradient id="paint2_linear_1816_15649" x1="93.7917" y1="656.141" x2="73.0317" y2="680.663" gradientUnits="userSpaceOnUse">
<stop stop-color="#E2E2E2"/>
<stop offset="0.79" stop-color="#E2E2E2"/>
<stop offset="1" stop-color="#6F9A3A"/>
</linearGradient>
<linearGradient id="paint3_linear_1816_15649" x1="92.0619" y1="663.72" x2="79.8233" y2="634.012" gradientUnits="userSpaceOnUse">
<stop stop-color="#E2E2E2"/>
<stop offset="0.79" stop-color="#E2E2E2"/>
<stop offset="1" stop-color="#6F9A3A"/>
</linearGradient>
<linearGradient id="paint4_linear_1816_15649" x1="96.0524" y1="675.731" x2="90.2561" y2="644.118" gradientUnits="userSpaceOnUse">
<stop stop-color="#E2E2E2"/>
<stop offset="0.79" stop-color="#E2E2E2"/>
<stop offset="1" stop-color="#6F9A3A"/>
</linearGradient>
<linearGradient id="paint5_linear_1816_15649" x1="71.9608" y1="626.614" x2="51.2008" y2="651.137" gradientUnits="userSpaceOnUse">
<stop stop-color="#E2E2E2"/>
<stop offset="0.79" stop-color="#E2E2E2"/>
<stop offset="1" stop-color="#6F9A3A"/>
</linearGradient>
<linearGradient id="paint6_linear_1816_15649" x1="77.5461" y1="653.679" x2="107.277" y2="641.497" gradientUnits="userSpaceOnUse">
<stop stop-color="#E2E2E2"/>
<stop offset="0.79" stop-color="#E2E2E2"/>
</linearGradient>
<linearGradient id="paint7_linear_1816_15649" x1="79.0628" y1="664.739" x2="108.794" y2="652.558" gradientUnits="userSpaceOnUse">
<stop stop-color="#E2E2E2"/>
<stop offset="0.79" stop-color="#E2E2E2"/>
</linearGradient>
<linearGradient id="paint8_linear_1816_15649" x1="49.206" y1="661.238" x2="78.9373" y2="649.056" gradientUnits="userSpaceOnUse">
<stop stop-color="#E2E2E2"/>
<stop offset="0.79" stop-color="#E2E2E2"/>
</linearGradient>
<linearGradient id="paint9_linear_1816_15649" x1="107.271" y1="646.728" x2="85.058" y2="669.957" gradientUnits="userSpaceOnUse">
<stop stop-color="#E2E2E2"/>
<stop offset="0.79" stop-color="#E2E2E2"/>
</linearGradient>
<linearGradient id="paint10_linear_1816_15649" x1="56.8674" y1="665.512" x2="51.7233" y2="633.786" gradientUnits="userSpaceOnUse">
<stop stop-color="#E2E2E2"/>
<stop offset="0.79" stop-color="#E2E2E2"/>
</linearGradient>
<linearGradient id="paint11_linear_1816_15649" x1="68.5016" y1="653.667" x2="63.3575" y2="621.942" gradientUnits="userSpaceOnUse">
<stop stop-color="#E2E2E2"/>
<stop offset="0.79" stop-color="#E2E2E2"/>
</linearGradient>
<linearGradient id="paint12_linear_1816_15649" x1="68.5042" y1="675.863" x2="63.3601" y2="644.137" gradientUnits="userSpaceOnUse">
<stop stop-color="#E2E2E2"/>
<stop offset="0.79" stop-color="#E2E2E2"/>
</linearGradient>
<linearGradient id="paint13_linear_1816_15649" x1="98.2736" y1="650.157" x2="93.1311" y2="618.441" gradientUnits="userSpaceOnUse">
<stop stop-color="#E2E2E2"/>
<stop offset="0.79" stop-color="#E2E2E2"/>
</linearGradient>
<linearGradient id="paint14_linear_1816_15649" x1="113.921" y1="672.622" x2="108.779" y2="640.906" gradientUnits="userSpaceOnUse">
<stop stop-color="#E2E2E2"/>
<stop offset="0.79" stop-color="#E2E2E2"/>
</linearGradient>
<linearGradient id="paint15_linear_1816_15649" x1="106.967" y1="658.665" x2="101.823" y2="626.939" gradientUnits="userSpaceOnUse">
<stop stop-color="#E2E2E2"/>
<stop offset="0.79" stop-color="#E2E2E2"/>
</linearGradient>
<linearGradient id="paint16_linear_1816_15649" x1="64.5995" y1="638.018" x2="43.8395" y2="662.541" gradientUnits="userSpaceOnUse">
<stop stop-color="#E2E2E2"/>
<stop offset="0.79" stop-color="#E2E2E2"/>
<stop offset="1" stop-color="#6F9A3A"/>
</linearGradient>
<linearGradient id="paint17_linear_1816_15649" x1="60.4077" y1="650.78" x2="90.1482" y2="638.595" gradientUnits="userSpaceOnUse">
<stop stop-color="#E2E2E2"/>
<stop offset="0.79" stop-color="#E2E2E2"/>
<stop offset="1" stop-color="#6F9A3A"/>
</linearGradient>
<linearGradient id="paint18_linear_1816_15649" x1="54.542" y1="668.907" x2="84.2825" y2="656.722" gradientUnits="userSpaceOnUse">
<stop stop-color="#E2E2E2"/>
<stop offset="0.79" stop-color="#E2E2E2"/>
<stop offset="1" stop-color="#6F9A3A"/>
</linearGradient>
<linearGradient id="paint19_linear_1816_15649" x1="47.1408" y1="664.742" x2="76.872" y2="652.561" gradientUnits="userSpaceOnUse">
<stop stop-color="#E2E2E2"/>
<stop offset="0.79" stop-color="#E2E2E2"/>
<stop offset="1" stop-color="#6F9A3A"/>
</linearGradient>
<linearGradient id="paint20_linear_1816_15649" x1="76.599" y1="652.939" x2="64.1326" y2="623.326" gradientUnits="userSpaceOnUse">
<stop stop-color="#E2E2E2"/>
<stop offset="0.79" stop-color="#E2E2E2"/>
<stop offset="1" stop-color="#6F9A3A"/>
</linearGradient>
<linearGradient id="paint21_linear_1816_15649" x1="83.4574" y1="658.638" x2="113.198" y2="646.452" gradientUnits="userSpaceOnUse">
<stop stop-color="#E2E2E2"/>
<stop offset="0.79" stop-color="#E2E2E2"/>
<stop offset="1" stop-color="#6F9A3A"/>
</linearGradient>
<linearGradient id="paint22_linear_1816_15649" x1="102.87" y1="634.019" x2="115.983" y2="663.362" gradientUnits="userSpaceOnUse">
<stop stop-color="#E2E2E2"/>
<stop offset="0.79" stop-color="#E2E2E2"/>
<stop offset="1" stop-color="#6F9A3A"/>
</linearGradient>
<linearGradient id="paint23_linear_1816_15649" x1="115.172" y1="654.438" x2="83.0843" y2="652.6" gradientUnits="userSpaceOnUse">
<stop stop-color="#E2E2E2"/>
<stop offset="0.79" stop-color="#E2E2E2"/>
<stop offset="1" stop-color="#6F9A3A"/>
</linearGradient>
<linearGradient id="paint24_linear_1816_15649" x1="82.976" y1="641.782" x2="96.0854" y2="671.115" gradientUnits="userSpaceOnUse">
<stop stop-color="#E2E2E2"/>
<stop offset="0.79" stop-color="#E2E2E2"/>
<stop offset="1" stop-color="#6F9A3A"/>
</linearGradient>
<linearGradient id="paint25_linear_1816_15649" x1="87.4441" y1="627.356" x2="101.458" y2="656.28" gradientUnits="userSpaceOnUse">
<stop stop-color="#E2E2E2"/>
<stop offset="0.79" stop-color="#E2E2E2"/>
<stop offset="1" stop-color="#6F9A3A"/>
</linearGradient>
<linearGradient id="paint26_linear_1816_15649" x1="130.194" y1="634.994" x2="109.434" y2="659.517" gradientUnits="userSpaceOnUse">
<stop stop-color="#E2E2E2"/>
<stop offset="0.79" stop-color="#E2E2E2"/>
<stop offset="1" stop-color="#6F9A3A"/>
</linearGradient>
<linearGradient id="paint27_linear_1816_15649" x1="119.658" y1="658.057" x2="98.8916" y2="682.587" gradientUnits="userSpaceOnUse">
<stop stop-color="#E2E2E2"/>
<stop offset="0.79" stop-color="#E2E2E2"/>
<stop offset="1" stop-color="#6F9A3A"/>
</linearGradient>
<linearGradient id="paint28_linear_1816_15649" x1="117.92" y1="665.635" x2="105.678" y2="635.917" gradientUnits="userSpaceOnUse">
<stop stop-color="#E2E2E2"/>
<stop offset="0.79" stop-color="#E2E2E2"/>
<stop offset="1" stop-color="#6F9A3A"/>
</linearGradient>
<linearGradient id="paint29_linear_1816_15649" x1="121.911" y1="677.639" x2="116.116" y2="646.036" gradientUnits="userSpaceOnUse">
<stop stop-color="#E2E2E2"/>
<stop offset="0.79" stop-color="#E2E2E2"/>
<stop offset="1" stop-color="#6F9A3A"/>
</linearGradient>
<linearGradient id="paint30_linear_1816_15649" x1="97.8266" y1="628.531" x2="77.0601" y2="653.061" gradientUnits="userSpaceOnUse">
<stop stop-color="#E2E2E2"/>
<stop offset="0.79" stop-color="#E2E2E2"/>
<stop offset="1" stop-color="#6F9A3A"/>
</linearGradient>
<linearGradient id="paint31_linear_1816_15649" x1="103.4" y1="655.589" x2="133.141" y2="643.404" gradientUnits="userSpaceOnUse">
<stop stop-color="#E2E2E2"/>
<stop offset="0.79" stop-color="#E2E2E2"/>
</linearGradient>
<linearGradient id="paint32_linear_1816_15649" x1="104.921" y1="666.659" x2="134.661" y2="654.474" gradientUnits="userSpaceOnUse">
<stop stop-color="#E2E2E2"/>
<stop offset="0.79" stop-color="#E2E2E2"/>
</linearGradient>
<linearGradient id="paint33_linear_1816_15649" x1="75.0604" y1="663.148" x2="104.801" y2="650.963" gradientUnits="userSpaceOnUse">
<stop stop-color="#E2E2E2"/>
<stop offset="0.79" stop-color="#E2E2E2"/>
</linearGradient>
<linearGradient id="paint34_linear_1816_15649" x1="133.13" y1="648.64" x2="110.917" y2="671.869" gradientUnits="userSpaceOnUse">
<stop stop-color="#E2E2E2"/>
<stop offset="0.79" stop-color="#E2E2E2"/>
</linearGradient>
<linearGradient id="paint35_linear_1816_15649" x1="82.7256" y1="667.418" x2="77.5831" y2="635.702" gradientUnits="userSpaceOnUse">
<stop stop-color="#E2E2E2"/>
<stop offset="0.79" stop-color="#E2E2E2"/>
</linearGradient>
<linearGradient id="paint36_linear_1816_15649" x1="94.36" y1="655.573" x2="89.2175" y2="623.857" gradientUnits="userSpaceOnUse">
<stop stop-color="#E2E2E2"/>
<stop offset="0.79" stop-color="#E2E2E2"/>
</linearGradient>
<linearGradient id="paint37_linear_1816_15649" x1="94.3641" y1="677.779" x2="89.22" y2="646.053" gradientUnits="userSpaceOnUse">
<stop stop-color="#E2E2E2"/>
<stop offset="0.79" stop-color="#E2E2E2"/>
</linearGradient>
<linearGradient id="paint38_linear_1816_15649" x1="124.133" y1="652.073" x2="118.989" y2="620.347" gradientUnits="userSpaceOnUse">
<stop stop-color="#E2E2E2"/>
<stop offset="0.79" stop-color="#E2E2E2"/>
</linearGradient>
<linearGradient id="paint39_linear_1816_15649" x1="139.781" y1="674.538" x2="134.637" y2="642.812" gradientUnits="userSpaceOnUse">
<stop stop-color="#E2E2E2"/>
<stop offset="0.79" stop-color="#E2E2E2"/>
</linearGradient>
<linearGradient id="paint40_linear_1816_15649" x1="132.827" y1="660.581" x2="127.683" y2="628.855" gradientUnits="userSpaceOnUse">
<stop stop-color="#E2E2E2"/>
<stop offset="0.79" stop-color="#E2E2E2"/>
</linearGradient>
<linearGradient id="paint41_linear_1816_15649" x1="90.4654" y1="639.934" x2="69.7054" y2="664.457" gradientUnits="userSpaceOnUse">
<stop stop-color="#E2E2E2"/>
<stop offset="0.79" stop-color="#E2E2E2"/>
<stop offset="1" stop-color="#6F9A3A"/>
</linearGradient>
<linearGradient id="paint42_linear_1816_15649" x1="86.2751" y1="652.696" x2="116.006" y2="640.514" gradientUnits="userSpaceOnUse">
<stop stop-color="#E2E2E2"/>
<stop offset="0.79" stop-color="#E2E2E2"/>
<stop offset="1" stop-color="#6F9A3A"/>
</linearGradient>
<linearGradient id="paint43_linear_1816_15649" x1="80.4061" y1="670.814" x2="110.137" y2="658.632" gradientUnits="userSpaceOnUse">
<stop stop-color="#E2E2E2"/>
<stop offset="0.79" stop-color="#E2E2E2"/>
<stop offset="1" stop-color="#6F9A3A"/>
</linearGradient>
<linearGradient id="paint44_linear_1816_15649" x1="72.9951" y1="666.653" x2="102.736" y2="654.467" gradientUnits="userSpaceOnUse">
<stop stop-color="#E2E2E2"/>
<stop offset="0.79" stop-color="#E2E2E2"/>
<stop offset="1" stop-color="#6F9A3A"/>
</linearGradient>
<linearGradient id="paint45_linear_1816_15649" x1="102.458" y1="654.856" x2="89.9881" y2="625.234" gradientUnits="userSpaceOnUse">
<stop stop-color="#E2E2E2"/>
<stop offset="0.79" stop-color="#E2E2E2"/>
<stop offset="1" stop-color="#6F9A3A"/>
</linearGradient>
<linearGradient id="paint46_linear_1816_15649" x1="109.321" y1="660.544" x2="139.052" y2="648.363" gradientUnits="userSpaceOnUse">
<stop stop-color="#E2E2E2"/>
<stop offset="0.79" stop-color="#E2E2E2"/>
<stop offset="1" stop-color="#6F9A3A"/>
</linearGradient>
<linearGradient id="paint47_linear_1816_15649" x1="128.723" y1="635.938" x2="141.836" y2="665.281" gradientUnits="userSpaceOnUse">
<stop stop-color="#E2E2E2"/>
<stop offset="0.79" stop-color="#E2E2E2"/>
<stop offset="1" stop-color="#6F9A3A"/>
</linearGradient>
<linearGradient id="paint48_linear_1816_15649" x1="141.025" y1="656.351" x2="108.948" y2="654.513" gradientUnits="userSpaceOnUse">
<stop stop-color="#E2E2E2"/>
<stop offset="0.79" stop-color="#E2E2E2"/>
<stop offset="1" stop-color="#6F9A3A"/>
</linearGradient>
<linearGradient id="paint49_linear_1816_15649" x1="108.829" y1="643.7" x2="121.938" y2="673.034" gradientUnits="userSpaceOnUse">
<stop stop-color="#E2E2E2"/>
<stop offset="0.79" stop-color="#E2E2E2"/>
<stop offset="1" stop-color="#6F9A3A"/>
</linearGradient>
<linearGradient id="paint50_linear_1816_15649" x1="74.0029" y1="609.2" x2="88.012" y2="638.115" gradientUnits="userSpaceOnUse">
<stop stop-color="#E2E2E2"/>
<stop offset="0.79" stop-color="#E2E2E2"/>
<stop offset="1" stop-color="#6F9A3A"/>
</linearGradient>
<linearGradient id="paint51_linear_1816_15649" x1="116.757" y1="616.832" x2="95.9911" y2="641.363" gradientUnits="userSpaceOnUse">
<stop stop-color="#E2E2E2"/>
<stop offset="0.79" stop-color="#E2E2E2"/>
<stop offset="1" stop-color="#6F9A3A"/>
</linearGradient>
<linearGradient id="paint52_linear_1816_15649" x1="106.207" y1="639.896" x2="85.4473" y2="664.419" gradientUnits="userSpaceOnUse">
<stop stop-color="#E2E2E2"/>
<stop offset="0.79" stop-color="#E2E2E2"/>
<stop offset="1" stop-color="#6F9A3A"/>
</linearGradient>
<linearGradient id="paint53_linear_1816_15649" x1="104.48" y1="647.475" x2="92.2378" y2="617.758" gradientUnits="userSpaceOnUse">
<stop stop-color="#E2E2E2"/>
<stop offset="0.79" stop-color="#E2E2E2"/>
<stop offset="1" stop-color="#6F9A3A"/>
</linearGradient>
<linearGradient id="paint54_linear_1816_15649" x1="108.465" y1="659.476" x2="102.67" y2="627.873" gradientUnits="userSpaceOnUse">
<stop stop-color="#E2E2E2"/>
<stop offset="0.79" stop-color="#E2E2E2"/>
<stop offset="1" stop-color="#6F9A3A"/>
</linearGradient>
<linearGradient id="paint55_linear_1816_15649" x1="84.3825" y1="610.362" x2="63.6161" y2="634.893" gradientUnits="userSpaceOnUse">
<stop stop-color="#E2E2E2"/>
<stop offset="0.79" stop-color="#E2E2E2"/>
<stop offset="1" stop-color="#6F9A3A"/>
</linearGradient>
<linearGradient id="paint56_linear_1816_15649" x1="89.9618" y1="637.428" x2="119.693" y2="625.247" gradientUnits="userSpaceOnUse">
<stop stop-color="#E2E2E2"/>
<stop offset="0.79" stop-color="#E2E2E2"/>
</linearGradient>
<linearGradient id="paint57_linear_1816_15649" x1="91.4786" y1="648.489" x2="121.21" y2="636.307" gradientUnits="userSpaceOnUse">
<stop stop-color="#E2E2E2"/>
<stop offset="0.79" stop-color="#E2E2E2"/>
</linearGradient>
<linearGradient id="paint58_linear_1816_15649" x1="61.622" y1="644.987" x2="91.3532" y2="632.806" gradientUnits="userSpaceOnUse">
<stop stop-color="#E2E2E2"/>
<stop offset="0.79" stop-color="#E2E2E2"/>
</linearGradient>
<linearGradient id="paint59_linear_1816_15649" x1="119.682" y1="630.481" x2="97.4755" y2="653.702" gradientUnits="userSpaceOnUse">
<stop stop-color="#E2E2E2"/>
<stop offset="0.79" stop-color="#E2E2E2"/>
</linearGradient>
<linearGradient id="paint60_linear_1816_15649" x1="69.2771" y1="649.266" x2="64.1329" y2="617.541" gradientUnits="userSpaceOnUse">
<stop stop-color="#E2E2E2"/>
<stop offset="0.79" stop-color="#E2E2E2"/>
</linearGradient>
<linearGradient id="paint61_linear_1816_15649" x1="80.9215" y1="637.42" x2="75.7774" y2="605.694" gradientUnits="userSpaceOnUse">
<stop stop-color="#E2E2E2"/>
<stop offset="0.79" stop-color="#E2E2E2"/>
</linearGradient>
<linearGradient id="paint62_linear_1816_15649" x1="80.924" y1="659.616" x2="75.7799" y2="627.89" gradientUnits="userSpaceOnUse">
<stop stop-color="#E2E2E2"/>
<stop offset="0.79" stop-color="#E2E2E2"/>
</linearGradient>
<linearGradient id="paint63_linear_1816_15649" x1="110.693" y1="633.91" x2="105.549" y2="602.184" gradientUnits="userSpaceOnUse">
<stop stop-color="#E2E2E2"/>
<stop offset="0.79" stop-color="#E2E2E2"/>
</linearGradient>
<linearGradient id="paint64_linear_1816_15649" x1="126.331" y1="656.376" x2="121.188" y2="624.661" gradientUnits="userSpaceOnUse">
<stop stop-color="#E2E2E2"/>
<stop offset="0.79" stop-color="#E2E2E2"/>
</linearGradient>
<linearGradient id="paint65_linear_1816_15649" x1="119.377" y1="642.419" x2="114.233" y2="610.694" gradientUnits="userSpaceOnUse">
<stop stop-color="#E2E2E2"/>
<stop offset="0.79" stop-color="#E2E2E2"/>
</linearGradient>
<linearGradient id="paint66_linear_1816_15649" x1="77.0214" y1="621.766" x2="56.255" y2="646.296" gradientUnits="userSpaceOnUse">
<stop stop-color="#E2E2E2"/>
<stop offset="0.79" stop-color="#E2E2E2"/>
<stop offset="1" stop-color="#6F9A3A"/>
</linearGradient>
<linearGradient id="paint67_linear_1816_15649" x1="72.8235" y1="634.53" x2="102.564" y2="622.344" gradientUnits="userSpaceOnUse">
<stop stop-color="#E2E2E2"/>
<stop offset="0.79" stop-color="#E2E2E2"/>
<stop offset="1" stop-color="#6F9A3A"/>
</linearGradient>
<linearGradient id="paint68_linear_1816_15649" x1="66.958" y1="652.657" x2="96.6985" y2="640.471" gradientUnits="userSpaceOnUse">
<stop stop-color="#E2E2E2"/>
<stop offset="0.79" stop-color="#E2E2E2"/>
<stop offset="1" stop-color="#6F9A3A"/>
</linearGradient>
<linearGradient id="paint69_linear_1816_15649" x1="59.5565" y1="648.492" x2="89.2878" y2="636.31" gradientUnits="userSpaceOnUse">
<stop stop-color="#E2E2E2"/>
<stop offset="0.79" stop-color="#E2E2E2"/>
<stop offset="1" stop-color="#6F9A3A"/>
</linearGradient>
<linearGradient id="paint70_linear_1816_15649" x1="89.0164" y1="636.688" x2="76.55" y2="607.075" gradientUnits="userSpaceOnUse">
<stop stop-color="#E2E2E2"/>
<stop offset="0.79" stop-color="#E2E2E2"/>
<stop offset="1" stop-color="#6F9A3A"/>
</linearGradient>
<linearGradient id="paint71_linear_1816_15649" x1="95.8732" y1="642.387" x2="125.614" y2="630.202" gradientUnits="userSpaceOnUse">
<stop stop-color="#E2E2E2"/>
<stop offset="0.79" stop-color="#E2E2E2"/>
<stop offset="1" stop-color="#6F9A3A"/>
</linearGradient>
<linearGradient id="paint72_linear_1816_15649" x1="115.285" y1="617.78" x2="128.394" y2="647.114" gradientUnits="userSpaceOnUse">
<stop stop-color="#E2E2E2"/>
<stop offset="0.79" stop-color="#E2E2E2"/>
<stop offset="1" stop-color="#6F9A3A"/>
</linearGradient>
<linearGradient id="paint73_linear_1816_15649" x1="127.582" y1="638.192" x2="95.5046" y2="636.354" gradientUnits="userSpaceOnUse">
<stop stop-color="#E2E2E2"/>
<stop offset="0.79" stop-color="#E2E2E2"/>
<stop offset="1" stop-color="#6F9A3A"/>
</linearGradient>
<linearGradient id="paint74_linear_1816_15649" x1="95.3867" y1="625.534" x2="108.5" y2="654.877" gradientUnits="userSpaceOnUse">
<stop stop-color="#E2E2E2"/>
<stop offset="0.79" stop-color="#E2E2E2"/>
<stop offset="1" stop-color="#6F9A3A"/>
</linearGradient>
</defs>
</svg>
