<svg width="651" height="729" viewBox="0 0 651 729" fill="none" xmlns="http://www.w3.org/2000/svg">
<path d="M288.47 684.71C276.95 690.33 265.23 690.56 257.46 689.88C250.62 690.09 239.88 689.46 229.23 684.31C222.98 681.29 219.81 678.19 218.25 676.47C216.55 674.6 213.18 670.83 211.79 664.92C211.37 663.15 211.15 661.3 211.15 659.4C211.15 646.11 222.03 635.23 235.32 635.23H280.97C294.26 635.23 305.14 646.11 305.14 659.4C305.09 662.66 304.5 670.16 299.21 676.75C298.12 678.11 295.24 681.4 288.48 684.7L288.47 684.71Z" fill="#7F7F7F"/>
<path d="M421.52 684.71C410 690.33 398.28 690.56 390.51 689.88C383.67 690.09 372.93 689.46 362.28 684.31C356.03 681.29 352.86 678.19 351.3 676.47C349.6 674.6 346.23 670.83 344.84 664.92C344.42 663.15 344.2 661.3 344.2 659.4C344.2 646.11 355.08 635.23 368.37 635.23H414.02C427.31 635.23 438.19 646.11 438.19 659.4C438.14 662.66 437.55 670.16 432.26 676.75C431.17 678.11 428.29 681.4 421.53 684.7L421.52 684.71Z" fill="#7F7F7F"/>
<path d="M441.39 651.92H207.23C191.87 651.92 179.69 638.36 180.63 622.31L191.1 444.33C193.37 405.81 223.86 375.79 260.72 375.79H387.88C424.74 375.79 455.24 405.81 457.5 444.33L467.97 622.31C468.91 638.36 456.73 651.92 441.37 651.92H441.39Z" fill="white"/>
<path d="M325.42 422.85C339.44 419.79 355.17 426.85 372.08 420.2C387.6 414.1 401.48 407.22 413.64 400.33C414.52 398.19 416.06 393.78 416.11 387.86C416.16 381.59 414.52 376.92 413.64 374.78C384.23 386.14 354.83 385.95 325.42 397.3V422.85Z" fill="#FF4848"/>
<path d="M325.11 431.06H309.21C304.77 431.06 301.32 427.18 301.84 422.77L304.56 399.66C305 395.92 308.17 393.11 311.93 393.11H322.39C326.15 393.11 329.32 395.93 329.76 399.66L332.48 422.77C333 427.18 329.55 431.06 325.11 431.06Z" fill="#EA4949"/>
<path d="M310.12 429.54H323.63C327.6 429.54 331.05 432.27 331.97 436.13L338.89 465.19C339.47 467.62 339.17 470.18 338.05 472.41L324.31 499.72C321.17 505.95 312.22 505.79 309.31 499.45L296.93 472.51C296.01 470.51 295.74 468.28 296.14 466.13L301.71 436.54C302.47 432.49 306.01 429.55 310.13 429.55L310.12 429.54Z" fill="#FF4848"/>
<path d="M235.93 412.71L172.26 470.24C158.32 482.84 140.77 484.5 133.26 473.94L131.88 472C124.37 461.44 129.63 442.49 143.58 429.9L207.25 372.37C221.19 359.77 238.74 358.11 246.25 368.67L247.63 370.61C255.14 381.17 249.88 400.12 235.93 412.71Z" fill="white"/>
<path d="M268.5 455.64C274.36 455.64 279.11 450.89 279.11 445.03C279.11 439.17 274.36 434.42 268.5 434.42C262.64 434.42 257.89 439.17 257.89 445.03C257.89 450.89 262.64 455.64 268.5 455.64Z" fill="#E8E8E8"/>
<path d="M360.92 455.64C366.78 455.64 371.53 450.89 371.53 445.03C371.53 439.17 366.78 434.42 360.92 434.42C355.06 434.42 350.31 439.17 350.31 445.03C350.31 450.89 355.06 455.64 360.92 455.64Z" fill="#E8E8E8"/>
<path d="M268.5 493.15C274.36 493.15 279.11 488.4 279.11 482.54C279.11 476.68 274.36 471.93 268.5 471.93C262.64 471.93 257.89 476.68 257.89 482.54C257.89 488.4 262.64 493.15 268.5 493.15Z" fill="#E8E8E8"/>
<path d="M360.92 493.15C366.78 493.15 371.53 488.4 371.53 482.54C371.53 476.68 366.78 471.93 360.92 471.93C355.06 471.93 350.31 476.68 350.31 482.54C350.31 488.4 355.06 493.15 360.92 493.15Z" fill="#E8E8E8"/>
<path d="M268.5 533.75C274.36 533.75 279.11 529 279.11 523.14C279.11 517.28 274.36 512.53 268.5 512.53C262.64 512.53 257.89 517.28 257.89 523.14C257.89 529 262.64 533.75 268.5 533.75Z" fill="#E8E8E8"/>
<path d="M360.92 533.75C366.78 533.75 371.53 529 371.53 523.14C371.53 517.28 366.78 512.53 360.92 512.53C355.06 512.53 350.31 517.28 350.31 523.14C350.31 529 355.06 533.75 360.92 533.75Z" fill="#E8E8E8"/>
<path d="M467.92 567.08C428.17 573.94 377.83 579.37 321.56 579.47C263.94 579.57 213.78 573.91 173.36 566.93C173.36 561.82 174.17 557.11 174.17 552C215.12 558.67 264.4 563.54 321.56 563.44C377.38 563.34 426.39 558.15 466.64 551.6C466.64 556.71 467.91 561.97 467.91 567.08H467.92Z" fill="#E8E8E8"/>
<path d="M119.2 72.6199C172.89 66.7699 231.2 106.64 234.31 162.01C235.08 175.78 232.34 188.86 227.02 200.77C244.08 182.93 254.92 159.59 253.47 133.82C250.36 78.4499 192.06 38.5799 138.36 44.4299C100.79 48.5199 67.7803 74.7599 52.3203 107.43C69.6303 88.7499 93.3303 75.4399 119.19 72.6199H119.2Z" fill="#F7F7F7"/>
<path d="M45.9101 168.46C59.3801 216.97 117.23 243.66 166.56 234.09C188.86 229.77 210.77 217.77 227.02 200.77C232.34 188.85 235.08 175.78 234.31 162.01C231.2 106.64 172.9 66.7699 119.2 72.6199C93.3401 75.4399 69.6401 88.7499 52.3301 107.43C43.2601 126.61 40.2301 148.02 45.9101 168.46Z" fill="#FAE0EB"/>
<path d="M417.5 159.76C420.61 104.39 478.91 64.5199 532.61 70.3699C554.96 72.8099 575.71 83.0799 592.1 97.8799C575.15 69.7599 545.01 48.1199 511.19 44.4299C457.5 38.5799 399.19 78.4499 396.08 133.82C394.45 162.83 408.39 188.76 429.24 207.23C421.05 193.1 416.54 176.97 417.5 159.76Z" fill="#F7F7F7"/>
<path d="M603.64 168.46C610.28 144.55 605.02 119.33 592.1 97.8799C575.71 83.0799 554.96 72.7999 532.61 70.3699C478.92 64.5199 420.61 104.39 417.5 159.76C416.53 176.97 421.05 193.1 429.24 207.23C444.57 220.8 463.63 230.34 483 234.1C532.33 243.66 590.18 216.98 603.65 168.47L603.64 168.46Z" fill="#FAE0EB"/>
<path d="M484.39 267.92C485.05 300.97 466.31 325.83 460.86 332.85C419.81 385.78 344.82 385.57 320.45 385.5C263.85 385.34 165.31 364.51 147.14 301.31C136.96 265.9 156.6 233.13 165.77 217.83C194.7 169.53 254.65 132.69 320.45 134.73C403.37 137.3 483.05 201.21 484.39 267.92Z" fill="#F7F7F7"/>
<path d="M272.27 249.814C274.846 237.59 269.824 226.182 261.053 224.334C252.282 222.486 243.084 230.897 240.508 243.121C237.932 255.345 242.954 266.753 251.724 268.602C260.495 270.45 269.694 262.039 272.27 249.814Z" fill="#262727"/>
<path d="M379.232 268.648C388.003 266.799 393.025 255.391 390.449 243.167C387.873 230.943 378.675 222.532 369.904 224.38C361.133 226.228 356.111 237.636 358.687 249.86C361.263 262.085 370.461 270.496 379.232 268.648Z" fill="#262727"/>
<path d="M350.27 266.21C349.56 278.18 332.12 287.15 317.81 287.03C303.37 286.91 285.61 277.45 285.35 264.98C285.09 252.59 302.23 241.91 317 241.72C333.06 241.51 351 253.63 350.26 266.2L350.27 266.21Z" fill="#FAE0EB"/>
<path d="M325.59 255.31C325.42 258.24 321.09 260.39 317.59 260.39C314.09 260.39 309.76 258.23 309.59 255.31C309.42 252.29 313.72 249.38 317.59 249.38C321.45 249.38 325.76 252.29 325.59 255.31Z" fill="#ED83AC"/>
<path d="M378.39 263.12C373.8 263.99 368.5 260.7 368.52 257.76C368.54 254.96 373.37 252.88 376.34 252.25C379.35 251.61 384.58 251.6 385.7 254.11C386.91 256.82 383.2 262.22 378.39 263.12Z" fill="#F6C6DB"/>
<path d="M252.96 263.33C257.55 264.2 262.85 260.91 262.83 257.97C262.81 255.17 257.98 253.09 255.01 252.46C252 251.82 246.77 251.81 245.65 254.32C244.44 257.03 248.15 262.43 252.96 263.33Z" fill="#F6C6DB"/>
<path d="M381 240.85C381.16 241.5 381.97 244.7 379.95 247.36C379.68 247.72 378.28 249.48 375.77 249.91C372.63 250.45 370.34 248.44 369.91 248.04C367.72 246.03 367.55 243.36 367.52 242.71C367.35 239.28 369.41 234.57 373.28 234.08C377.16 233.59 380.2 237.67 381 240.84V240.85Z" fill="white"/>
<path d="M251.06 239.76C250.3 242.45 250.49 246.71 253.55 248.86C256.21 250.73 259.35 249.81 259.62 249.73C263.12 248.64 264.76 245.03 265.04 242.36C265.43 238.69 263.57 233.68 259.64 232.91C255.66 232.14 252.07 236.19 251.06 239.76Z" fill="white"/>
<path d="M379.6 21.5C373.44 21.5 367.59 22.85 362.33 25.28C354.35 10.23 338.62 0 320.52 0C302.42 0 286.86 10.13 278.83 25.04C273.71 22.77 268.05 21.5 262.09 21.5C239.12 21.5 220.49 50.75 220.49 73.93C220.49 97.11 239.11 115.89 262.09 115.89C275.79 115.89 287.94 109.21 295.52 98.9C302.78 103.45 311.34 106.08 320.51 106.08C329.68 106.08 338.6 103.34 345.95 98.61C353.51 109.08 365.76 115.89 379.59 115.89C402.56 115.89 421.19 97.1 421.19 73.93C421.19 50.76 402.57 21.5 379.59 21.5H379.6Z" fill="white"/>
<path d="M380.06 150.67C371.9 145.29 351.11 142.59 320.97 142.47C290.28 142.35 269.1 145.3 260.96 150.67C259.27 132.31 257.49 122.14 255.6 101.54C268.44 95.6198 290.58 87.6398 319.49 87.4498C349.51 87.2498 372.45 95.5398 385.46 101.54C383.56 122.15 381.76 132.31 380.07 150.67H380.06Z" fill="white"/>
<g opacity="0.8">
<path d="M363.7 37.9199C364.52 44.1599 364.86 52.9499 362.63 63.1799C359.93 75.5499 354.56 84.9699 350.47 90.9099" fill="white"/>
<path d="M363.7 37.9202C369.01 56.1502 363.46 77.1902 350.47 90.9102C354.41 82.4902 357.93 74.1102 360.17 65.1602C362.48 56.2302 363.38 47.2102 363.7 37.9102V37.9202Z" fill="#DADADA"/>
</g>
<g opacity="0.8">
<path d="M277.59 38.73C276.77 44.97 276.43 53.76 278.66 63.99C281.36 76.36 286.73 85.78 290.82 91.72" fill="white"/>
<path d="M277.59 38.73C277.91 48.02 278.81 57.05 281.12 65.98C283.36 74.93 286.88 83.3 290.82 91.73C277.82 78.01 272.27 56.97 277.59 38.74V38.73Z" fill="#DADADA"/>
</g>
<g opacity="0.8">
<path d="M265.02 114.37C297.94 95.9202 340.5 95.8902 373.41 114.37C364.74 110.82 355.85 108.01 346.77 106.11C319.44 100.24 290.75 103.62 265.01 114.37H265.02Z" fill="#D7D7D7"/>
</g>
<path d="M648.85 695.63C434.13 698.19 219.41 700.75 4.69 703.31C3.18 699.98 1.29 694.91 0.440002 688.49C0.280002 687.27 0 684.84 0 678.68C0 674.16 0.149988 667.9 0.799988 660.33H650C650.73 666.46 651.11 673.75 650.57 681.9C650.24 686.91 649.61 691.5 648.84 695.62L648.85 695.63Z" fill="#E5BD7F"/>
<path d="M607.83 728.16H42.8801C14.1601 728.16 -6.08998 699.98 3.08002 672.76L39.11 565.8C44.86 548.72 60.88 537.21 78.91 537.21H571.8C589.83 537.21 605.84 548.71 611.6 565.8L647.63 672.76C656.8 699.98 636.55 728.16 607.83 728.16Z" fill="#E5BD7F"/>
<path d="M607.83 701.63H42.8801C14.1601 701.63 -6.08998 673.45 3.08002 646.23L39.11 539.27C44.86 522.19 60.88 510.68 78.91 510.68H571.8C589.83 510.68 605.84 522.18 611.6 539.27L647.63 646.23C656.8 673.45 636.55 701.63 607.83 701.63Z" fill="#F4D5A4"/>
<mask id="mask0_1815_14412" style="mask-type:luminance" maskUnits="userSpaceOnUse" x="0" y="510" width="650" height="192">
<path d="M607.83 701.63H42.8801C14.1601 701.63 -6.08998 673.45 3.08002 646.23L39.11 539.27C44.86 522.19 60.88 510.68 78.91 510.68H571.8C589.83 510.68 605.84 522.18 611.6 539.27L647.63 646.23C656.8 673.45 636.55 701.63 607.83 701.63Z" fill="white"/>
</mask>
<g mask="url(#mask0_1815_14412)">
<path d="M32.6802 548.34C44.3802 548.33 56.2502 548.85 67.7402 546.24C73.4302 544.95 79.0302 542.8 83.8002 539.4C89.0102 535.69 92.9902 530.76 95.5302 524.89C98.4302 518.17 99.6002 510.91 101.81 503.96C102.51 501.75 99.0402 500.8 98.3402 503C96.4502 508.93 95.3702 515.1 93.2402 520.96C91.1102 526.82 87.8402 531.74 83.0202 535.53C74.2002 542.46 62.4402 544.14 51.5602 544.62C45.2702 544.89 38.9702 544.74 32.6702 544.75C30.3502 544.75 30.3502 548.35 32.6702 548.35L32.6802 548.34Z" fill="#EAC696"/>
<path d="M23.88 571.32C43.82 572.44 63.9199 568.55 82.0699 560.22C98.9499 552.47 113.95 540.7 125.61 526.26C132.07 518.27 137.53 509.52 141.8 500.17C142.75 498.08 139.65 496.25 138.69 498.35C131.31 514.52 120.35 528.92 106.75 540.36C92.28 552.53 74.8899 560.97 56.4499 565.08C45.7699 567.46 34.8 568.33 23.88 567.72C21.57 567.59 21.57 571.19 23.88 571.32Z" fill="#EAC696"/>
<path d="M6.75024 596.7C25.1102 600.26 44.0102 600.36 62.4202 597.12C80.3902 593.96 97.7002 587.53 113.41 578.25C127.32 570.04 139.99 559.91 152.32 549.53C164.74 539.08 176.85 528.23 189.86 518.51C202.47 509.08 216.01 500.63 230.87 495.25C232.74 494.57 234.64 493.94 236.54 493.36C238.75 492.68 237.81 489.21 235.58 489.89C220.39 494.55 206.41 502.31 193.47 511.45C180.53 520.59 168.21 531.29 156 541.7C143.79 552.11 131.45 562.46 117.96 571.19C103.08 580.83 86.8402 587.98 69.5402 592C51.5902 596.17 32.7903 597.07 14.5403 594.4C12.2403 594.06 9.96024 593.67 7.68024 593.23C5.40024 592.79 4.45028 596.26 6.72028 596.7H6.75024Z" fill="#EAC696"/>
<path d="M-5.34979 636.71C19.0702 638.99 44.1402 641.19 68.3302 635.8C80.1102 633.18 91.2202 628.54 101.42 622.1C111.5 615.73 120.64 608.03 129.84 600.48C138.99 592.97 148.35 585.82 158.29 579.38C168.23 572.94 178.29 567.22 188.65 561.78C209.38 550.91 230.82 541.48 252.03 531.59C273.25 521.69 294.32 511.28 314.03 498.57C316.45 497.01 318.85 495.41 321.22 493.78C323.12 492.48 321.32 489.36 319.4 490.67C300.13 503.9 279.33 514.67 258.25 524.69C237.1 534.74 215.61 544.08 194.7 554.63C174 565.07 153.92 576.78 135.68 591.16C126.32 598.54 117.39 606.45 107.74 613.45C98.0502 620.49 87.6702 626.38 76.2102 629.98C52.7502 637.33 27.6502 636.02 3.49017 633.92C0.540173 633.66 -2.39978 633.39 -5.33978 633.12C-7.63978 632.9 -7.62978 636.5 -5.33978 636.72L-5.34979 636.71Z" fill="#EAC696"/>
<path d="M74.7899 708.55C90.5199 714 107.69 712.08 122.99 706.17C139.19 699.92 153.07 689.58 165.7 677.85C178.79 665.7 190.63 652.28 203.84 640.25C216.44 628.78 230.39 618.93 245.11 610.39C259.89 601.82 275.38 594.53 291.13 587.96C306.92 581.37 322.99 575.47 339.07 569.62C354.74 563.92 370.44 558.3 385.9 552.05C400.8 546.03 415.5 539.48 429.7 531.97C443.9 524.46 457.48 516.04 470.14 506.24C482.57 496.63 494 485.69 503.7 473.32C506.09 470.27 508.38 467.15 510.56 463.95C511.87 462.03 508.75 460.23 507.45 462.13C498.66 475.02 488.01 486.55 476.18 496.7C464.27 506.92 451.21 515.73 437.6 523.51C423.69 531.47 409.19 538.37 394.44 544.64C379.58 550.96 364.44 556.56 349.27 562.08C333.19 567.93 317.08 573.7 301.17 580.01C285.42 586.25 269.85 593.01 254.84 600.9C239.83 608.79 225.68 617.68 212.51 628.14C199.34 638.6 186.74 651.94 174.37 664.39C162.2 676.64 149.44 688.63 134.2 696.99C119.98 704.79 103.55 709.73 87.22 707.76C83.31 707.29 79.46 706.35 75.75 705.06C73.56 704.3 72.6199 707.77 74.7899 708.53V708.55Z" fill="#EAC696"/>
<path d="M589.15 713.75C568.99 711.58 547.49 709.19 530.36 697.35C516.98 688.11 506.72 670.35 510.39 653.75C514.48 635.28 533.91 627.35 550.49 623.65C570.62 619.16 591.63 618.45 612.04 621.38C632.5 624.31 652.46 630.79 670.61 640.68C672.84 641.9 675.04 643.17 677.22 644.48C679.21 645.68 681.02 642.57 679.04 641.37C660.66 630.27 640.2 622.65 619.06 618.88C597.88 615.1 576.08 615.08 554.93 619.07C537.06 622.44 516.1 629.26 508.56 647.59C501.58 664.56 510.09 684.26 522.91 695.97C538.56 710.27 560.87 714.06 581.16 716.45C583.82 716.76 586.48 717.05 589.15 717.34C590.12 717.44 590.94 716.44 590.95 715.54C590.96 714.48 590.11 713.84 589.15 713.74V713.75Z" fill="#EAC696"/>
<path d="M622.93 713.4C607 710.46 591.64 704.81 577.64 696.66C566.11 689.95 550.59 680.23 551.33 664.91C551.97 651.78 565.67 639.85 578.73 641.06C585.73 641.71 592.23 645.59 598.37 648.69C604.02 651.54 609.76 654.18 615.68 656.44C629.21 661.62 643.39 664.89 657.76 666.67C659.95 666.94 662.15 667.17 664.35 667.38C666.55 667.59 666.64 663.99 664.35 663.78C648.9 662.36 633.6 659.18 619.02 653.86C613.06 651.69 607.28 649.12 601.61 646.29C594.97 642.97 588.16 638.88 580.72 637.71C566.5 635.48 551.9 646.41 548.44 660.12C546.61 667.37 548.44 674.87 552.67 680.94C556.9 687.01 563.34 691.84 569.73 696C583.77 705.15 599.47 711.83 615.81 715.59C617.85 716.06 619.91 716.48 621.97 716.86C624.23 717.28 625.2 713.81 622.93 713.39V713.4Z" fill="#EAC696"/>
<path d="M537.28 504.39C535.51 513.4 531.99 521.97 526.88 529.6C524.28 533.49 521.26 537.06 517.93 540.34C514.6 543.62 510.74 546.9 507.19 550.23C500.42 556.59 494.06 564.18 492.41 573.61C491 581.67 493.66 589.64 500.13 594.76C505.93 599.35 513.6 601.44 520.93 600.98C529.83 600.42 538.1 596.14 545.18 590.95C559.99 580.1 571.63 563.56 590.11 558.63C599.72 556.06 609.79 556.39 619.51 554.4C627.32 552.8 635.45 549.54 640.77 543.37C642.08 541.86 643.2 540.21 644.1 538.42C645.13 536.36 642.03 534.53 640.99 536.6C637.46 543.64 630.35 547.65 623.03 549.81C614.06 552.46 604.59 552.36 595.41 553.84C590.7 554.6 586.13 555.84 581.77 557.79C577.74 559.6 573.98 561.98 570.45 564.62C563.26 570 556.98 576.41 550.22 582.29C543.54 588.1 536.15 593.59 527.54 596.12C520.67 598.14 513.13 597.83 506.65 594.62C500.17 591.41 495.66 585.59 495.59 578.25C495.5 569.14 501.18 561.21 507.36 555.05C514 548.42 521.46 542.74 527.22 535.25C532.61 528.24 536.69 520.23 539.19 511.75C539.81 509.63 540.33 507.49 540.75 505.32C541.17 503.15 537.73 502.09 537.28 504.36V504.39Z" fill="#EAC696"/>
<path d="M363.59 592.28C370.92 593.91 378.64 593.2 385.57 590.32C392.39 587.48 399.36 582.36 402.35 575.39C403.88 571.82 404.07 567.86 402.18 564.39C400.55 561.38 397.39 559.08 393.87 559.26C390.35 559.44 387.36 561.85 385.08 564.5C382.55 567.45 380.31 570.55 377.47 573.23C374.14 576.37 370.42 578.81 366.44 581.04C362.46 583.27 358.94 587 361.13 591.65C362.11 593.74 365.22 591.92 364.24 589.83C363.64 588.56 364.46 587.06 365.35 586.16C366.56 584.93 368.19 584.19 369.68 583.35C372.75 581.63 375.64 579.6 378.31 577.3C380.98 575 383.29 572.49 385.43 569.76C387.22 567.47 389.07 564.83 391.71 563.46C394.17 562.19 396.82 562.99 398.45 565.15C400.33 567.63 400.33 570.78 399.22 573.59C396.89 579.53 390.85 583.96 385.24 586.54C378.83 589.48 371.44 590.31 364.55 588.78C362.29 588.28 361.33 591.75 363.59 592.25V592.28Z" fill="#EAC696"/>
<path d="M513.55 502.38C498.88 506.98 488.52 519.59 481.75 532.85C477.61 540.95 474.47 549.5 471.06 557.91C467.65 566.32 463.87 574.26 459.01 581.8C449.31 596.82 436.8 609.84 424.81 623.01C411.74 637.38 398.61 651.69 385.42 665.95C372.17 680.27 358.87 694.54 345.5 708.74C343.86 710.48 342.23 712.22 340.59 713.95C338.95 715.68 341.54 718.18 343.13 716.49C356.4 702.41 369.61 688.28 382.76 674.1C395.91 659.92 408.89 645.8 421.87 631.56C434.02 618.23 446.7 605.14 457.34 590.54C462.5 583.46 467.01 575.96 470.64 567.98C474.27 560 477.39 551.27 480.96 543C486.97 529.08 495.37 514.71 509.52 507.79C511.14 507 512.81 506.35 514.52 505.82C516.72 505.13 515.78 501.65 513.56 502.35L513.55 502.38Z" fill="#EAC696"/>
<path d="M219.19 717.67C225.83 704.86 233.96 692.85 243.42 681.96C252.88 671.07 263.57 661.25 275.29 652.85C281.13 648.66 287.21 644.82 293.51 641.35C296.4 639.76 299.31 638.29 302.51 637.43C305.22 636.7 308.29 636.28 310.98 637.34C318.15 640.16 315.01 649.53 313.19 654.81C310.27 663.28 307.35 671.75 304.42 680.22C298.55 697.24 292.68 714.26 286.81 731.28C286.08 733.4 285.35 735.52 284.62 737.63C283.89 739.74 287.34 740.77 288.09 738.59C294.2 720.86 300.32 703.14 306.43 685.41C309.46 676.62 312.49 667.84 315.52 659.05C317.85 652.31 321.73 643.42 316.49 637.03C312.13 631.72 304.39 632.72 298.68 634.88C295.39 636.12 292.32 637.85 289.27 639.6C285.98 641.48 282.75 643.47 279.58 645.55C267.06 653.79 255.52 663.54 245.3 674.51C235.04 685.52 226.07 697.77 218.75 710.92C217.84 712.55 216.96 714.19 216.11 715.84C215.05 717.89 218.15 719.72 219.22 717.66L219.19 717.67Z" fill="#EAC696"/>
<path d="M635.62 709.22C629.15 708.89 622.72 707.35 616.83 704.64C610.94 701.93 605.43 698.43 601.39 693.64C599.48 691.37 598.07 688.41 598.69 685.39C599.26 682.55 601.58 680.91 604.4 680.8C607.6 680.68 610.48 682.25 613.13 683.88C616.31 685.84 619.44 687.88 622.59 689.88C630.03 694.61 637.46 699.33 644.9 704.06C646.86 705.31 648.67 702.19 646.72 700.95C639.42 696.31 632.13 691.68 624.83 687.04C621.3 684.8 617.81 682.46 614.21 680.32C611.15 678.5 607.67 676.94 604.03 677.22C600.67 677.47 597.45 679.14 595.97 682.29C594.49 685.44 594.76 688.96 596.14 692.04C597.62 695.33 600.31 697.94 603.05 700.2C605.79 702.46 608.85 704.55 612.05 706.27C619.32 710.17 627.4 712.4 635.64 712.82C637.95 712.94 637.95 709.34 635.64 709.22H635.62Z" fill="#EAC696"/>
<path d="M418 704.03C424.45 685.05 435.76 667.83 450.54 654.31C452.38 652.62 454.28 650.99 456.23 649.43C458.18 647.87 460.27 646.22 462.62 645.22C464.68 644.34 467.06 644.03 469.04 645.28C470.48 646.19 471.36 647.75 471.88 649.34C473.3 653.67 472.8 658.41 472.65 662.88C472.45 669.03 472.24 675.17 472.04 681.32C471.58 695.19 471.12 709.06 470.66 722.93C470.58 725.25 474.18 725.24 474.26 722.93C474.69 709.81 475.13 696.69 475.56 683.56C475.77 677.08 475.99 670.6 476.2 664.13C476.36 659.18 476.89 654 475.57 649.15C474.39 644.81 471.34 641.17 466.61 640.85C461.13 640.48 456.36 644.66 452.43 647.92C444.19 654.74 436.91 662.68 430.72 671.39C423.82 681.1 418.37 691.81 414.54 703.09C413.79 705.29 417.27 706.23 418.01 704.05L418 704.03Z" fill="#EAC696"/>
<path d="M404.63 496.88C376.01 499.32 348.49 508.2 322.61 520.42C296.31 532.84 271.7 548.51 247.64 564.76C225.3 579.84 203.01 595.09 181.56 611.42C160.73 627.27 140.65 644.29 123.04 663.71C105.8 682.72 91.0499 704.06 81.0599 727.77C79.8499 730.63 78.7199 733.53 77.6499 736.45C76.8499 738.63 80.3299 739.57 81.1199 737.41C89.8299 713.58 103.53 691.88 119.97 672.64C136.76 652.98 156.21 635.74 176.53 619.83C197.29 603.57 219.05 588.63 240.82 573.76C264.58 557.52 288.69 541.61 314.35 528.5C339.51 515.64 366.33 505.58 394.41 501.63C397.81 501.15 401.22 500.78 404.63 500.49C406.92 500.29 406.94 496.69 404.63 496.89V496.88Z" fill="#EAC696"/>
</g>
<path d="M413.25 524.093L351.379 511.055C344.894 509.688 338.529 513.837 337.162 520.322L331.972 544.951C330.606 551.436 334.755 557.801 341.24 559.168L403.111 572.206C409.596 573.573 415.961 569.423 417.327 562.938L422.518 538.309C423.884 531.824 419.735 525.459 413.25 524.093Z" fill="#F2A100"/>
<path d="M253.3 548.82L244.38 529.36L231.25 534.3L221.89 512.31L237.82 505.53L328.84 466.78C336.25 463.63 344.42 462.56 352.64 463.8C355.89 464.29 359.4 465.13 363.08 466.49C379.32 472.46 388.86 484.63 392.07 489.1C368.94 499.05 345.81 509.01 253.29 548.82H253.3Z" fill="#E5E5E5"/>
<mask id="mask1_1815_14412" style="mask-type:luminance" maskUnits="userSpaceOnUse" x="221" y="463" width="172" height="86">
<path d="M253.3 548.82L244.38 529.36L231.25 534.3L221.89 512.31L237.82 505.53L328.84 466.78C336.25 463.63 344.42 462.56 352.64 463.8C355.89 464.29 359.4 465.13 363.08 466.49C379.32 472.46 388.86 484.63 392.07 489.1C368.94 499.05 345.81 509.01 253.29 548.82H253.3Z" fill="white"/>
</mask>
<g mask="url(#mask1_1815_14412)">
<path opacity="0.66" d="M243.526 541.149L264.948 591.469L410.516 529.499L389.094 479.179L243.526 541.149Z" fill="white"/>
</g>
<path d="M145.467 547.217L153.799 566.788C154.936 569.461 158.026 570.705 160.699 569.567L223.661 542.763C226.334 541.626 227.578 538.536 226.44 535.863L218.109 516.293C216.971 513.62 213.882 512.376 211.209 513.514L148.247 540.317C145.574 541.455 144.329 544.544 145.467 547.217Z" fill="#878787"/>
<path d="M214.42 529.48C217.41 536.49 219.14 540.46 221.8 542.05C222.95 542.74 223.91 542.76 224.53 542.67L232.9 539.11C233.24 538.89 234.04 538.27 234.35 536.71C234.54 535.76 234.47 534.82 234.4 534.22C232.74 531.69 230.49 527.9 228.4 522.98C226.36 518.18 225.19 514.03 224.52 511.12C223.91 510.61 223.39 510.27 223.01 510.04C222.31 509.62 221.7 509.26 221.01 509.27C220.75 509.27 220.51 509.32 220.28 509.42L211.91 512.98C211.41 513.37 210.77 514.08 210.46 515.38C209.76 518.41 211.43 522.44 214.43 529.48H214.42Z" fill="#A5A5A5"/>
<path opacity="0.66" d="M369.23 487.68L318.9 471.49L290.05 483.56L337.41 501.8" fill="white"/>
<path opacity="0.66" d="M313.93 511.44L269.87 491.93L252.38 499.55L295.06 519.14" fill="white"/>
<path d="M151.41 519.7L130.6 472.47C126.04 462.13 133.53 450.15 147.24 445.86L149.75 445.07C163.46 440.77 178.41 445.72 182.96 456.06L203.77 503.29C208.33 513.63 200.84 525.61 187.13 529.9L184.62 530.69C170.91 534.99 155.96 530.04 151.41 519.7Z" fill="white"/>
<path d="M160.48 537.33C164.22 550.83 184.39 558.51 198.34 550.7C210.77 543.74 216.5 525.47 208.28 514.33C200.63 503.97 184.21 504.27 173.86 510.48C165.19 515.68 157.59 526.92 160.48 537.33Z" fill="#F7F7F7"/>
<path d="M409.95 431.46L396.48 508.95C393.53 525.92 403.1 540.54 417.74 541.45L420.43 541.62C435.08 542.53 449.47 529.39 452.42 512.42L465.89 434.93C468.84 417.96 459.27 403.34 444.63 402.43L441.94 402.26C427.29 401.35 412.9 414.49 409.95 431.46Z" fill="white"/>
<path d="M444.13 526.81C444.68 540.81 427.81 554.27 412.14 551.08C398.18 548.24 387.15 532.58 391.59 519.47C395.72 507.27 411.45 502.55 423.2 505.31C433.04 507.62 443.7 516.01 444.13 526.8V526.81Z" fill="#F7F7F7"/>
<path d="M342 564.577L316.148 559.129C309.663 557.762 303.298 561.911 301.932 568.396L299.464 580.109C298.097 586.594 302.246 592.959 308.731 594.326L334.583 599.774C341.068 601.14 347.433 596.991 348.8 590.506L351.268 578.793C352.635 572.308 348.485 565.943 342 564.577Z" fill="#F2A100"/>
<path d="M338.02 591.844L297.745 583.357C296.669 583.13 295.614 583.819 295.387 584.894L294.492 589.141C294.265 590.216 294.954 591.272 296.029 591.498L336.304 599.986C337.38 600.212 338.435 599.524 338.662 598.449L339.557 594.202C339.784 593.127 339.095 592.071 338.02 591.844Z" fill="#D88B03"/>
<path d="M299.848 575.934L279.162 571.575C272.677 570.208 266.312 574.358 264.945 580.843L263.253 588.876C261.886 595.361 266.035 601.726 272.52 603.093L293.206 607.452C299.691 608.819 306.056 604.669 307.422 598.184L309.115 590.151C310.482 583.666 306.333 577.301 299.848 575.934Z" fill="#F2A100"/>
<path d="M296.275 599.512L256 591.025C254.925 590.798 253.869 591.487 253.642 592.562L252.747 596.809C252.521 597.884 253.209 598.94 254.284 599.166L294.56 607.654C295.635 607.88 296.691 607.192 296.917 606.117L297.812 601.87C298.039 600.795 297.351 599.739 296.275 599.512Z" fill="#D88B03"/>
<path d="M268.077 589.316L253.928 586.334C247.443 584.968 241.078 589.117 239.712 595.602L239.002 598.968C237.636 605.453 241.785 611.818 248.27 613.185L262.419 616.166C268.904 617.533 275.269 613.384 276.636 606.899L277.345 603.533C278.712 597.048 274.562 590.683 268.077 589.316Z" fill="#F2A100"/>
<path d="M526.76 639.73C523.47 634.08 519.8 627.78 513.48 624.38C505.2 627.14 495.49 626.3 487.86 630.75C483.28 633.42 479.82 637.93 478.43 643.04C478.43 642.96 478.41 642.87 478.41 642.79C477.5 645.77 476.91 649.25 477.46 652.68C478.86 654.67 481.51 657.75 485.72 659.21C488.86 660.3 492.67 661.1 499.43 660.09C505.31 659.21 508.23 664.13 511.1 662.37C514.07 660.55 513.45 659.83 517.58 657.09C522.77 653.66 526.04 649.55 527.21 649.52C528.98 649.48 529.88 646.98 530.85 647.28C529.59 644.6 528.09 642.02 526.75 639.72L526.76 639.73Z" fill="#F2DA9E"/>
<path d="M487.87 630.75C495.5 626.3 505.21 627.14 513.49 624.38C511.96 623.56 510.27 622.9 508.4 622.47C501.07 620.79 493.18 623.04 487.81 627.48C484.53 630.19 482.85 633.17 481.69 635.27C481.06 636.4 479.51 639.23 478.41 642.79C478.41 642.87 478.43 642.96 478.43 643.04C479.82 637.93 483.29 633.41 487.86 630.75H487.87Z" fill="#F2DA9E"/>
<g opacity="0.64">
<path d="M487.88 630.76C495.51 626.31 505.22 627.15 513.5 624.39C511.97 623.57 510.28 622.91 508.41 622.48C501.08 620.8 493.19 623.05 487.82 627.49C484.54 630.2 482.86 633.18 481.7 635.28C481.07 636.41 479.52 639.24 478.42 642.8C478.42 642.88 478.44 642.97 478.44 643.05C479.83 637.94 483.3 633.42 487.87 630.76H487.88Z" fill="white"/>
</g>
<path d="M508.4 670.9C512.88 671.11 527.68 671.79 532.33 663.11C534.89 658.33 533.36 652.62 530.86 647.3C529.7 647.56 528.01 648.03 526.11 648.93C521.97 650.9 520.33 653.27 517.95 655.11C514.43 657.82 510.75 658.23 505.15 658.86C496.78 659.8 490.27 657.82 486.81 656.73C482.77 655.46 479.6 653.89 477.46 652.69C477.54 653.2 477.65 653.7 477.79 654.2C481.06 666.35 498.8 670.45 508.4 670.9Z" fill="#E8C577"/>
<path d="M550.55 617.65C547.26 612 543.59 605.7 537.27 602.3C528.99 605.06 519.28 604.22 511.65 608.67C507.07 611.34 503.61 615.85 502.22 620.96C502.22 620.88 502.2 620.79 502.2 620.71C501.29 623.69 500.7 627.17 501.25 630.6C502.65 632.59 505.3 635.67 509.51 637.13C512.65 638.22 516.46 639.02 523.22 638.01C529.1 637.13 532.02 642.05 534.89 640.29C537.86 638.47 537.24 637.75 541.37 635.01C546.56 631.58 549.83 627.47 551 627.44C552.77 627.4 553.67 624.9 554.64 625.2C553.38 622.52 551.88 619.94 550.54 617.64L550.55 617.65Z" fill="#F2DA9E"/>
<path d="M511.66 608.68C519.29 604.23 529 605.07 537.28 602.31C535.75 601.49 534.06 600.83 532.19 600.4C524.86 598.72 516.97 600.97 511.6 605.41C508.32 608.12 506.64 611.1 505.48 613.2C504.85 614.33 503.3 617.16 502.2 620.72C502.2 620.8 502.22 620.89 502.22 620.97C503.61 615.86 507.08 611.34 511.65 608.68H511.66Z" fill="#F2DA9E"/>
<g opacity="0.64">
<path d="M511.67 608.69C519.3 604.24 529.01 605.08 537.29 602.32C535.76 601.5 534.07 600.839 532.2 600.409C524.87 598.729 516.98 600.979 511.61 605.419C508.33 608.129 506.65 611.109 505.49 613.209C504.86 614.339 503.31 617.169 502.21 620.729C502.21 620.809 502.23 620.899 502.23 620.979C503.62 615.869 507.09 611.35 511.66 608.69H511.67Z" fill="white"/>
</g>
<path d="M532.19 648.82C536.67 649.03 551.47 649.71 556.12 641.03C558.68 636.25 557.15 630.54 554.65 625.22C553.49 625.48 551.8 625.95 549.9 626.85C545.76 628.82 544.12 631.19 541.74 633.03C538.22 635.74 534.54 636.15 528.94 636.78C520.57 637.72 514.06 635.74 510.6 634.65C506.56 633.38 503.39 631.81 501.25 630.61C501.33 631.12 501.44 631.62 501.58 632.12C504.85 644.27 522.59 648.37 532.19 648.82Z" fill="#E8C577"/>
<path d="M555.55 658.56C552.49 653.3 549.07 647.42 543.18 644.26C535.47 646.83 526.41 646.05 519.31 650.19C515.05 652.68 511.82 656.88 510.52 661.65C510.52 661.57 510.51 661.49 510.5 661.41C509.65 664.18 509.1 667.43 509.62 670.63C510.93 672.49 513.39 675.35 517.32 676.72C520.25 677.74 523.8 678.48 530.09 677.54C535.57 676.72 538.29 681.3 540.97 679.67C543.74 677.98 543.16 677.3 547 674.75C551.83 671.55 554.88 667.72 555.97 667.69C557.62 667.65 558.46 665.33 559.37 665.6C558.2 663.11 556.8 660.7 555.55 658.55V658.56Z" fill="#F2DA9E"/>
<path d="M519.31 650.19C526.42 646.05 535.47 646.83 543.18 644.26C541.75 643.49 540.18 642.88 538.44 642.48C531.61 640.91 524.26 643.01 519.25 647.15C516.19 649.68 514.63 652.45 513.55 654.41C512.97 655.47 511.52 658.1 510.5 661.41C510.5 661.49 510.51 661.57 510.52 661.65C511.82 656.89 515.05 652.68 519.31 650.19Z" fill="#F2DA9E"/>
<g opacity="0.64">
<path d="M519.32 650.21C526.43 646.07 535.48 646.85 543.19 644.28C541.76 643.51 540.19 642.9 538.45 642.5C531.62 640.93 524.27 643.03 519.26 647.17C516.2 649.7 514.64 652.47 513.56 654.43C512.98 655.49 511.53 658.12 510.51 661.43C510.51 661.51 510.52 661.59 510.53 661.67C511.83 656.91 515.06 652.7 519.32 650.21Z" fill="white"/>
</g>
<path d="M538.44 687.59C542.62 687.78 556.4 688.42 560.74 680.33C563.13 675.88 561.7 670.55 559.37 665.6C558.29 665.84 556.72 666.28 554.95 667.12C551.09 668.96 549.57 671.16 547.34 672.88C544.06 675.4 540.63 675.79 535.42 676.37C527.62 677.25 521.56 675.4 518.34 674.38C514.58 673.19 511.63 671.74 509.63 670.62C509.71 671.09 509.81 671.56 509.93 672.03C512.98 683.35 529.5 687.17 538.45 687.59H538.44Z" fill="#E8C577"/>
<path d="M585.84 621.97C582.47 616.18 578.71 609.72 572.23 606.24C563.74 609.07 553.78 608.21 545.96 612.77C541.27 615.51 537.72 620.13 536.29 625.37C536.29 625.28 536.27 625.2 536.26 625.11C535.32 628.16 534.72 631.73 535.29 635.25C536.73 637.29 539.44 640.45 543.76 641.95C546.98 643.07 550.89 643.89 557.82 642.85C563.85 641.95 566.84 646.99 569.79 645.19C572.84 643.33 572.2 642.58 576.43 639.78C581.75 636.26 585.1 632.05 586.3 632.02C588.11 631.98 589.04 629.42 590.04 629.72C588.75 626.98 587.22 624.33 585.84 621.97Z" fill="#F2DA9E"/>
<path d="M545.96 612.77C553.78 608.21 563.74 609.07 572.23 606.24C570.66 605.4 568.93 604.73 567.01 604.29C559.49 602.57 551.41 604.87 545.9 609.42C542.53 612.2 540.81 615.25 539.62 617.41C538.98 618.57 537.38 621.47 536.26 625.12C536.26 625.21 536.28 625.29 536.29 625.38C537.72 620.14 541.27 615.51 545.96 612.78V612.77Z" fill="#F2DA9E"/>
<g opacity="0.64">
<path d="M545.97 612.78C553.79 608.22 563.75 609.08 572.24 606.25C570.67 605.41 568.94 604.74 567.02 604.3C559.5 602.58 551.42 604.88 545.91 609.43C542.54 612.21 540.82 615.26 539.63 617.42C538.99 618.58 537.39 621.48 536.27 625.13C536.27 625.22 536.29 625.3 536.3 625.39C537.73 620.15 541.28 615.52 545.97 612.79V612.78Z" fill="white"/>
</g>
<path d="M567.01 653.92C571.6 654.13 586.77 654.83 591.54 645.93C594.17 641.03 592.59 635.17 590.04 629.72C588.85 629.99 587.12 630.47 585.17 631.39C580.93 633.41 579.25 635.84 576.8 637.72C573.19 640.5 569.42 640.92 563.68 641.57C555.1 642.53 548.42 640.5 544.88 639.38C540.74 638.07 537.49 636.47 535.29 635.24C535.37 635.76 535.48 636.28 535.62 636.79C538.97 649.24 557.15 653.45 567 653.91L567.01 653.92Z" fill="#E8C577"/>
<path d="M584.43 645.12C581.14 639.47 577.47 633.17 571.15 629.77C562.87 632.53 553.16 631.69 545.53 636.14C540.95 638.81 537.49 643.32 536.1 648.43C536.1 648.35 536.08 648.26 536.08 648.18C535.17 651.16 534.58 654.64 535.13 658.07C536.53 660.06 539.18 663.14 543.39 664.6C546.53 665.69 550.34 666.49 557.1 665.48C562.98 664.6 565.9 669.52 568.77 667.76C571.74 665.94 571.12 665.22 575.25 662.48C580.44 659.05 583.71 654.94 584.88 654.91C586.65 654.87 587.55 652.37 588.52 652.67C587.26 649.99 585.76 647.41 584.42 645.11L584.43 645.12Z" fill="#F2DA9E"/>
<path d="M545.53 636.14C553.16 631.69 562.87 632.53 571.15 629.77C569.62 628.95 567.93 628.29 566.06 627.86C558.73 626.18 550.84 628.43 545.47 632.87C542.19 635.58 540.51 638.56 539.35 640.66C538.72 641.79 537.17 644.62 536.07 648.18C536.07 648.26 536.09 648.35 536.09 648.43C537.48 643.32 540.95 638.8 545.52 636.14H545.53Z" fill="#F2DA9E"/>
<g opacity="0.64">
<path d="M545.54 636.16C553.17 631.71 562.88 632.55 571.16 629.79C569.63 628.97 567.94 628.31 566.07 627.88C558.74 626.2 550.85 628.45 545.48 632.89C542.2 635.6 540.52 638.58 539.36 640.68C538.73 641.81 537.18 644.64 536.08 648.2C536.08 648.28 536.1 648.37 536.1 648.45C537.49 643.34 540.96 638.82 545.53 636.16H545.54Z" fill="white"/>
</g>
<path d="M566.06 676.29C570.54 676.5 585.34 677.18 589.99 668.5C592.55 663.72 591.02 658.01 588.52 652.69C587.36 652.95 585.67 653.42 583.77 654.32C579.63 656.29 577.99 658.66 575.61 660.5C572.09 663.21 568.41 663.62 562.81 664.25C554.44 665.19 547.93 663.21 544.47 662.12C540.43 660.85 537.26 659.28 535.12 658.08C535.2 658.59 535.31 659.09 535.45 659.59C538.72 671.74 556.46 675.84 566.06 676.29Z" fill="#E8C577"/>
<path d="M622.91 632.79C619.54 627 615.78 620.54 609.3 617.06C600.81 619.89 590.85 619.03 583.03 623.59C578.34 626.33 574.79 630.95 573.36 636.19C573.36 636.1 573.34 636.02 573.33 635.93C572.39 638.98 571.79 642.55 572.36 646.07C573.8 648.11 576.51 651.27 580.83 652.77C584.05 653.89 587.96 654.71 594.89 653.67C600.92 652.77 603.91 657.81 606.86 656.01C609.91 654.15 609.27 653.4 613.5 650.6C618.82 647.08 622.17 642.87 623.37 642.84C625.18 642.8 626.11 640.24 627.11 640.54C625.82 637.8 624.29 635.15 622.91 632.79Z" fill="#F2DA9E"/>
<path d="M583.03 623.58C590.85 619.02 600.81 619.88 609.3 617.05C607.73 616.21 606 615.54 604.08 615.1C596.56 613.38 588.48 615.68 582.97 620.23C579.6 623.01 577.88 626.06 576.69 628.22C576.05 629.38 574.45 632.28 573.33 635.93C573.33 636.02 573.35 636.1 573.36 636.19C574.79 630.95 578.34 626.32 583.03 623.59V623.58Z" fill="#F2DA9E"/>
<g opacity="0.64">
<path d="M583.04 623.6C590.86 619.04 600.82 619.9 609.31 617.07C607.74 616.23 606.01 615.56 604.09 615.12C596.57 613.4 588.49 615.7 582.98 620.25C579.61 623.03 577.89 626.08 576.7 628.24C576.06 629.4 574.46 632.3 573.34 635.95C573.34 636.04 573.36 636.12 573.37 636.21C574.8 630.97 578.35 626.34 583.04 623.61V623.6Z" fill="white"/>
</g>
<path d="M604.08 664.74C608.67 664.95 623.84 665.65 628.61 656.75C631.24 651.85 629.66 645.99 627.11 640.54C625.92 640.81 624.19 641.29 622.24 642.21C618 644.23 616.32 646.66 613.87 648.54C610.26 651.32 606.49 651.74 600.75 652.39C592.17 653.35 585.49 651.32 581.95 650.2C577.81 648.89 574.56 647.29 572.36 646.06C572.44 646.58 572.55 647.1 572.69 647.61C576.04 660.06 594.22 664.27 604.07 664.73L604.08 664.74Z" fill="#E8C577"/>
<path d="M83.9301 611.14C83.9301 611.14 87.0401 641.04 58.2501 654.24C29.4601 667.44 107.16 654.81 83.9301 611.14Z" fill="url(#paint0_linear_1815_14412)"/>
<path d="M123.47 645.49C123.47 645.49 97.3899 660.44 73.6599 639.48C49.9299 618.51 92.95 684.43 123.47 645.49Z" fill="url(#paint1_linear_1815_14412)"/>
<path d="M112.93 668.55C112.93 668.55 86.8499 683.5 63.1199 662.54C39.3899 641.57 82.4099 707.49 112.93 668.55Z" fill="url(#paint2_linear_1815_14412)"/>
<path d="M68.8399 669.73C68.8399 669.73 67.5499 639.69 97.0799 628.26C126.61 616.82 48.2899 624.73 68.8399 669.73Z" fill="url(#paint3_linear_1815_14412)"/>
<path d="M71.2898 676.73C71.2898 676.73 76.2698 647.08 107.53 642.03C138.79 636.98 60.5398 628.43 71.2898 676.73Z" fill="url(#paint4_linear_1815_14412)"/>
<path d="M91.0901 639.02C91.0901 639.02 65.0101 653.97 41.2801 633.01C17.5501 612.04 60.5701 677.96 91.0901 639.02Z" fill="url(#paint5_linear_1815_14412)"/>
<path d="M68.04 627.28C68.04 627.28 98.0801 626.04 109.46 655.6C120.84 685.15 113.08 606.82 68.04 627.28Z" fill="url(#paint6_linear_1815_14412)"/>
<path d="M69.5601 638.34C69.5601 638.34 99.6001 637.1 110.98 666.66C122.36 696.21 114.6 617.88 69.5601 638.34Z" fill="url(#paint7_linear_1815_14412)"/>
<path d="M39.71 634.84C39.71 634.84 69.75 633.6 81.13 663.16C92.51 692.71 84.75 614.38 39.71 634.84Z" fill="url(#paint8_linear_1815_14412)"/>
<path d="M125.01 660.65C125.01 660.65 98.0697 674 75.6497 651.63C53.2297 629.26 92.1798 697.67 125.01 660.65Z" fill="url(#paint9_linear_1815_14412)"/>
<path d="M31.9299 665.99C31.9299 665.99 37.52 636.45 68.88 632.05C100.24 627.65 22.1799 617.49 31.9299 665.99Z" fill="url(#paint10_linear_1815_14412)"/>
<path d="M43.57 654.15C43.57 654.15 49.16 624.61 80.52 620.21C111.88 615.81 33.82 605.65 43.57 654.15Z" fill="url(#paint11_linear_1815_14412)"/>
<path d="M43.57 676.34C43.57 676.34 49.16 646.8 80.52 642.4C111.88 638 33.82 627.84 43.57 676.34Z" fill="url(#paint12_linear_1815_14412)"/>
<path d="M73.34 650.64C73.34 650.64 78.93 621.1 110.29 616.7C141.65 612.3 63.59 602.14 73.34 650.64Z" fill="url(#paint13_linear_1815_14412)"/>
<path d="M88.9802 673.11C88.9802 673.11 94.5701 643.57 125.93 639.17C157.29 634.77 79.2302 624.61 88.9802 673.11Z" fill="url(#paint14_linear_1815_14412)"/>
<path d="M82.03 659.15C82.03 659.15 87.62 629.61 118.98 625.21C150.34 620.81 72.28 610.65 82.03 659.15Z" fill="url(#paint15_linear_1815_14412)"/>
<path d="M83.74 650.42C83.74 650.42 57.66 665.37 33.93 644.41C10.2 623.44 53.22 689.36 83.74 650.42Z" fill="url(#paint16_linear_1815_14412)"/>
<path d="M50.9102 624.38C50.9102 624.38 80.9502 623.14 92.3302 652.7C103.71 682.25 95.9502 603.92 50.9102 624.38Z" fill="url(#paint17_linear_1815_14412)"/>
<path d="M45.0498 642.5C45.0498 642.5 75.0898 641.26 86.4698 670.82C97.8498 700.37 90.0898 622.04 45.0498 642.5Z" fill="url(#paint18_linear_1815_14412)"/>
<path d="M37.6401 638.34C37.6401 638.34 67.6801 637.1 79.0601 666.66C90.4401 696.22 82.6801 617.88 37.6401 638.34Z" fill="url(#paint19_linear_1815_14412)"/>
<path d="M53.5003 659.12C53.5003 659.12 51.9802 629.1 81.4202 617.43C110.86 605.77 32.6103 614.28 53.5003 659.12Z" fill="url(#paint20_linear_1815_14412)"/>
<path d="M73.96 632.24C73.96 632.24 104 631 115.38 660.56C126.76 690.11 119 611.78 73.96 632.24Z" fill="url(#paint21_linear_1815_14412)"/>
<path d="M125.62 620.21C125.62 620.21 127.8 650.19 98.6199 662.5C69.4399 674.81 147.49 664.58 125.62 620.21Z" fill="url(#paint22_linear_1815_14412)"/>
<path d="M113.55 675.88C113.55 675.88 85.9198 664.04 88.3998 632.46C90.8798 600.89 64.0899 674.91 113.55 675.88Z" fill="url(#paint23_linear_1815_14412)"/>
<path d="M105.72 627.97C105.72 627.97 107.9 657.95 78.72 670.26C49.54 682.57 127.59 672.34 105.72 627.97Z" fill="url(#paint24_linear_1815_14412)"/>
<path d="M109.79 613.06C109.79 613.06 112.9 642.96 84.11 656.16C55.32 669.36 133.02 656.73 109.79 613.06Z" fill="url(#paint25_linear_1815_14412)"/>
<path d="M149.33 647.4C149.33 647.4 123.25 662.35 99.5198 641.39C75.7898 620.42 118.81 686.34 149.33 647.4Z" fill="url(#paint26_linear_1815_14412)"/>
<path d="M138.79 670.46C138.79 670.46 112.71 685.41 88.9803 664.45C65.2503 643.48 108.27 709.4 138.79 670.46Z" fill="url(#paint27_linear_1815_14412)"/>
<path d="M94.6998 671.64C94.6998 671.64 93.4098 641.6 122.94 630.17C152.47 618.73 74.1498 626.64 94.6998 671.64Z" fill="url(#paint28_linear_1815_14412)"/>
<path d="M97.1501 678.64C97.1501 678.64 102.13 648.99 133.39 643.94C164.65 638.89 86.4001 630.34 97.1501 678.64Z" fill="url(#paint29_linear_1815_14412)"/>
<path d="M116.95 640.93C116.95 640.93 90.8699 655.88 67.1399 634.92C43.4099 613.95 86.4299 679.87 116.95 640.93Z" fill="url(#paint30_linear_1815_14412)"/>
<path d="M93.8999 629.19C93.8999 629.19 123.94 627.95 135.32 657.51C146.7 687.06 138.94 608.73 93.8999 629.19Z" fill="url(#paint31_linear_1815_14412)"/>
<path d="M95.4199 640.26C95.4199 640.26 125.46 639.02 136.84 668.58C148.22 698.13 140.46 619.8 95.4199 640.26Z" fill="url(#paint32_linear_1815_14412)"/>
<path d="M65.5698 636.75C65.5698 636.75 95.6099 635.51 106.99 665.07C118.37 694.62 110.61 616.29 65.5698 636.75Z" fill="url(#paint33_linear_1815_14412)"/>
<path d="M150.86 662.57C150.86 662.57 123.92 675.92 101.5 653.55C79.0798 631.18 118.03 699.59 150.86 662.57Z" fill="url(#paint34_linear_1815_14412)"/>
<path d="M57.7897 667.91C57.7897 667.91 63.3798 638.37 94.7398 633.97C126.1 629.57 48.0397 619.41 57.7897 667.91Z" fill="url(#paint35_linear_1815_14412)"/>
<path d="M69.4299 656.06C69.4299 656.06 75.02 626.52 106.38 622.12C137.74 617.72 59.6799 607.56 69.4299 656.06Z" fill="url(#paint36_linear_1815_14412)"/>
<path d="M69.4299 678.26C69.4299 678.26 75.02 648.72 106.38 644.32C137.74 639.92 59.6799 629.76 69.4299 678.26Z" fill="url(#paint37_linear_1815_14412)"/>
<path d="M99.1999 652.56C99.1999 652.56 104.79 623.02 136.15 618.62C167.51 614.22 89.4499 604.06 99.1999 652.56Z" fill="url(#paint38_linear_1815_14412)"/>
<path d="M114.84 675.03C114.84 675.03 120.43 645.49 151.79 641.09C183.15 636.69 105.09 626.53 114.84 675.03Z" fill="url(#paint39_linear_1815_14412)"/>
<path d="M107.89 661.06C107.89 661.06 113.48 631.52 144.84 627.12C176.2 622.72 98.1398 612.56 107.89 661.06Z" fill="url(#paint40_linear_1815_14412)"/>
<path d="M109.6 652.34C109.6 652.34 83.5198 667.29 59.7898 646.33C36.0598 625.36 79.0799 691.28 109.6 652.34Z" fill="url(#paint41_linear_1815_14412)"/>
<path d="M76.77 626.29C76.77 626.29 106.81 625.05 118.19 654.61C129.57 684.16 121.81 605.83 76.77 626.29Z" fill="url(#paint42_linear_1815_14412)"/>
<path d="M70.9102 644.42C70.9102 644.42 100.95 643.18 112.33 672.74C123.71 702.29 115.95 623.96 70.9102 644.42Z" fill="url(#paint43_linear_1815_14412)"/>
<path d="M63.5 640.26C63.5 640.26 93.5399 639.02 104.92 668.58C116.3 698.13 108.54 619.8 63.5 640.26Z" fill="url(#paint44_linear_1815_14412)"/>
<path d="M79.3602 661.04C79.3602 661.04 77.8401 631.02 107.28 619.35C136.72 607.69 58.4702 616.2 79.3602 661.04Z" fill="url(#paint45_linear_1815_14412)"/>
<path d="M99.8198 634.15C99.8198 634.15 129.86 632.91 141.24 662.47C152.62 692.02 144.86 613.69 99.8198 634.15Z" fill="url(#paint46_linear_1815_14412)"/>
<path d="M151.48 622.12C151.48 622.12 153.66 652.1 124.48 664.41C95.3003 676.72 173.35 666.49 151.48 622.12Z" fill="url(#paint47_linear_1815_14412)"/>
<path d="M139.41 677.79C139.41 677.79 111.78 665.95 114.26 634.37C116.74 602.8 89.9502 676.82 139.41 677.79Z" fill="url(#paint48_linear_1815_14412)"/>
<path d="M131.58 629.88C131.58 629.88 133.76 659.86 104.58 672.17C75.3999 684.48 153.45 674.25 131.58 629.88Z" fill="url(#paint49_linear_1815_14412)"/>
<path d="M96.3501 594.89C96.3501 594.89 99.4601 624.79 70.6701 637.99C41.88 651.19 119.58 638.56 96.3501 594.89Z" fill="url(#paint50_linear_1815_14412)"/>
<path d="M135.88 629.24C135.88 629.24 109.8 644.19 86.0701 623.23C62.3401 602.26 105.36 668.18 135.88 629.24Z" fill="url(#paint51_linear_1815_14412)"/>
<path d="M125.34 652.3C125.34 652.3 99.2601 667.25 75.5301 646.29C51.8001 625.32 94.8201 691.24 125.34 652.3Z" fill="url(#paint52_linear_1815_14412)"/>
<path d="M81.2598 653.48C81.2598 653.48 79.9698 623.44 109.5 612.01C139.03 600.57 60.7098 608.48 81.2598 653.48Z" fill="url(#paint53_linear_1815_14412)"/>
<path d="M83.7102 660.48C83.7102 660.48 88.6902 630.83 119.95 625.78C151.21 620.73 72.9602 612.18 83.7102 660.48Z" fill="url(#paint54_linear_1815_14412)"/>
<path d="M103.51 622.77C103.51 622.77 77.43 637.72 53.7 616.76C29.97 595.79 72.99 661.71 103.51 622.77Z" fill="url(#paint55_linear_1815_14412)"/>
<path d="M80.46 611.03C80.46 611.03 110.5 609.79 121.88 639.35C133.26 668.9 125.5 590.57 80.46 611.03Z" fill="url(#paint56_linear_1815_14412)"/>
<path d="M81.98 622.1C81.98 622.1 112.02 620.86 123.4 650.42C134.78 679.97 127.02 601.64 81.98 622.1Z" fill="url(#paint57_linear_1815_14412)"/>
<path d="M52.1201 618.59C52.1201 618.59 82.16 617.35 93.54 646.91C104.92 676.46 97.1601 598.13 52.1201 618.59Z" fill="url(#paint58_linear_1815_14412)"/>
<path d="M137.42 644.4C137.42 644.4 110.48 657.75 88.0599 635.38C65.6399 613.01 104.59 681.42 137.42 644.4Z" fill="url(#paint59_linear_1815_14412)"/>
<path d="M44.3498 649.74C44.3498 649.74 49.9398 620.2 81.2998 615.8C112.66 611.4 34.5998 601.24 44.3498 649.74Z" fill="url(#paint60_linear_1815_14412)"/>
<path d="M55.9802 637.9C55.9802 637.9 61.5701 608.36 92.9301 603.96C124.29 599.56 46.2302 589.4 55.9802 637.9Z" fill="url(#paint61_linear_1815_14412)"/>
<path d="M55.9802 660.1C55.9802 660.1 61.5701 630.56 92.9301 626.16C124.29 621.76 46.2302 611.6 55.9802 660.1Z" fill="url(#paint62_linear_1815_14412)"/>
<path d="M85.76 634.39C85.76 634.39 91.3499 604.85 122.71 600.45C154.07 596.05 76.01 585.89 85.76 634.39Z" fill="url(#paint63_linear_1815_14412)"/>
<path d="M101.4 656.86C101.4 656.86 106.99 627.32 138.35 622.92C169.71 618.52 91.6501 608.36 101.4 656.86Z" fill="url(#paint64_linear_1815_14412)"/>
<path d="M94.4499 642.9C94.4499 642.9 100.04 613.36 131.4 608.96C162.76 604.56 84.6999 594.4 94.4499 642.9Z" fill="url(#paint65_linear_1815_14412)"/>
<path d="M96.1501 634.18C96.1501 634.18 70.0701 649.13 46.3401 628.17C22.6101 607.2 65.6301 673.12 96.1501 634.18Z" fill="url(#paint66_linear_1815_14412)"/>
<path d="M63.3301 608.13C63.3301 608.13 93.3701 606.89 104.75 636.45C116.13 666 108.37 587.67 63.3301 608.13Z" fill="url(#paint67_linear_1815_14412)"/>
<path d="M57.46 626.26C57.46 626.26 87.5 625.02 98.88 654.58C110.26 684.14 102.5 605.8 57.46 626.26Z" fill="url(#paint68_linear_1815_14412)"/>
<path d="M50.0601 622.1C50.0601 622.1 80.1001 620.86 91.4801 650.42C102.86 679.97 95.1001 601.64 50.0601 622.1Z" fill="url(#paint69_linear_1815_14412)"/>
<path d="M65.9202 642.88C65.9202 642.88 64.4002 612.86 93.8402 601.19C123.28 589.53 45.0302 598.04 65.9202 642.88Z" fill="url(#paint70_linear_1815_14412)"/>
<path d="M86.3799 615.99C86.3799 615.99 116.42 614.75 127.8 644.31C139.18 673.86 131.42 595.53 86.3799 615.99Z" fill="url(#paint71_linear_1815_14412)"/>
<path d="M138.03 603.96C138.03 603.96 140.21 633.94 111.03 646.25C81.8501 658.56 159.9 648.33 138.03 603.96Z" fill="url(#paint72_linear_1815_14412)"/>
<path d="M125.97 659.63C125.97 659.63 98.3402 647.79 100.82 616.21C103.3 584.64 76.5103 658.66 125.97 659.63Z" fill="url(#paint73_linear_1815_14412)"/>
<path d="M118.14 611.72C118.14 611.72 120.32 641.7 91.1399 654.01C61.9599 666.32 140.01 656.09 118.14 611.72Z" fill="url(#paint74_linear_1815_14412)"/>
<path d="M312.83 422.85C298.81 419.79 283.08 426.85 266.17 420.2C250.65 414.1 236.77 407.22 224.61 400.33C223.73 398.19 222.19 393.78 222.14 387.86C222.09 381.59 223.73 376.92 224.61 374.78C254.02 386.14 283.42 385.95 312.83 397.3V422.85Z" fill="#FF4848"/>
<defs>
<linearGradient id="paint0_linear_1815_14412" x1="61.5886" y1="621.964" x2="75.5978" y2="650.879" gradientUnits="userSpaceOnUse">
<stop stop-color="#E2E2E2"/>
<stop offset="0.79" stop-color="#E2E2E2"/>
<stop offset="1" stop-color="#6F9A3A"/>
</linearGradient>
<linearGradient id="paint1_linear_1815_14412" x1="104.513" y1="629.443" x2="83.7534" y2="653.966" gradientUnits="userSpaceOnUse">
<stop stop-color="#E2E2E2"/>
<stop offset="0.79" stop-color="#E2E2E2"/>
<stop offset="1" stop-color="#6F9A3A"/>
</linearGradient>
<linearGradient id="paint2_linear_1815_14412" x1="93.9695" y1="652.5" x2="73.2096" y2="677.022" gradientUnits="userSpaceOnUse">
<stop stop-color="#E2E2E2"/>
<stop offset="0.79" stop-color="#E2E2E2"/>
<stop offset="1" stop-color="#6F9A3A"/>
</linearGradient>
<linearGradient id="paint3_linear_1815_14412" x1="91.7642" y1="660.234" x2="79.5218" y2="630.517" gradientUnits="userSpaceOnUse">
<stop stop-color="#E2E2E2"/>
<stop offset="0.79" stop-color="#E2E2E2"/>
<stop offset="1" stop-color="#6F9A3A"/>
</linearGradient>
<linearGradient id="paint4_linear_1815_14412" x1="95.6647" y1="672.19" x2="89.8683" y2="640.577" gradientUnits="userSpaceOnUse">
<stop stop-color="#E2E2E2"/>
<stop offset="0.79" stop-color="#E2E2E2"/>
<stop offset="1" stop-color="#6F9A3A"/>
</linearGradient>
<linearGradient id="paint5_linear_1815_14412" x1="72.1387" y1="622.973" x2="51.3787" y2="647.496" gradientUnits="userSpaceOnUse">
<stop stop-color="#E2E2E2"/>
<stop offset="0.79" stop-color="#E2E2E2"/>
<stop offset="1" stop-color="#6F9A3A"/>
</linearGradient>
<linearGradient id="paint6_linear_1815_14412" x1="77.4818" y1="650.163" x2="107.213" y2="637.981" gradientUnits="userSpaceOnUse">
<stop stop-color="#E2E2E2"/>
<stop offset="0.79" stop-color="#E2E2E2"/>
</linearGradient>
<linearGradient id="paint7_linear_1815_14412" x1="78.9985" y1="661.224" x2="108.73" y2="649.042" gradientUnits="userSpaceOnUse">
<stop stop-color="#E2E2E2"/>
<stop offset="0.79" stop-color="#E2E2E2"/>
</linearGradient>
<linearGradient id="paint8_linear_1815_14412" x1="49.1418" y1="657.722" x2="78.8823" y2="645.537" gradientUnits="userSpaceOnUse">
<stop stop-color="#E2E2E2"/>
<stop offset="0.79" stop-color="#E2E2E2"/>
</linearGradient>
<linearGradient id="paint9_linear_1815_14412" x1="107.063" y1="643.507" x2="84.8571" y2="666.728" gradientUnits="userSpaceOnUse">
<stop stop-color="#E2E2E2"/>
<stop offset="0.79" stop-color="#E2E2E2"/>
</linearGradient>
<linearGradient id="paint10_linear_1815_14412" x1="56.3752" y1="661.929" x2="51.2327" y2="630.213" gradientUnits="userSpaceOnUse">
<stop stop-color="#E2E2E2"/>
<stop offset="0.79" stop-color="#E2E2E2"/>
</linearGradient>
<linearGradient id="paint11_linear_1815_14412" x1="68.0193" y1="650.082" x2="62.8768" y2="618.367" gradientUnits="userSpaceOnUse">
<stop stop-color="#E2E2E2"/>
<stop offset="0.79" stop-color="#E2E2E2"/>
</linearGradient>
<linearGradient id="paint12_linear_1815_14412" x1="68.0219" y1="672.278" x2="62.8793" y2="640.562" gradientUnits="userSpaceOnUse">
<stop stop-color="#E2E2E2"/>
<stop offset="0.79" stop-color="#E2E2E2"/>
</linearGradient>
<linearGradient id="paint13_linear_1815_14412" x1="97.7913" y1="646.572" x2="92.6488" y2="614.856" gradientUnits="userSpaceOnUse">
<stop stop-color="#E2E2E2"/>
<stop offset="0.79" stop-color="#E2E2E2"/>
</linearGradient>
<linearGradient id="paint14_linear_1815_14412" x1="113.431" y1="669.049" x2="108.286" y2="637.323" gradientUnits="userSpaceOnUse">
<stop stop-color="#E2E2E2"/>
<stop offset="0.79" stop-color="#E2E2E2"/>
</linearGradient>
<linearGradient id="paint15_linear_1815_14412" x1="106.475" y1="655.082" x2="101.333" y2="623.366" gradientUnits="userSpaceOnUse">
<stop stop-color="#E2E2E2"/>
<stop offset="0.79" stop-color="#E2E2E2"/>
</linearGradient>
<linearGradient id="paint16_linear_1815_14412" x1="64.7838" y1="634.37" x2="44.0174" y2="658.9" gradientUnits="userSpaceOnUse">
<stop stop-color="#E2E2E2"/>
<stop offset="0.79" stop-color="#E2E2E2"/>
<stop offset="1" stop-color="#6F9A3A"/>
</linearGradient>
<linearGradient id="paint17_linear_1815_14412" x1="60.3434" y1="647.264" x2="90.0839" y2="635.079" gradientUnits="userSpaceOnUse">
<stop stop-color="#E2E2E2"/>
<stop offset="0.79" stop-color="#E2E2E2"/>
<stop offset="1" stop-color="#6F9A3A"/>
</linearGradient>
<linearGradient id="paint18_linear_1815_14412" x1="54.487" y1="665.388" x2="84.2183" y2="653.206" gradientUnits="userSpaceOnUse">
<stop stop-color="#E2E2E2"/>
<stop offset="0.79" stop-color="#E2E2E2"/>
<stop offset="1" stop-color="#6F9A3A"/>
</linearGradient>
<linearGradient id="paint19_linear_1815_14412" x1="47.0765" y1="661.227" x2="76.8077" y2="649.045" gradientUnits="userSpaceOnUse">
<stop stop-color="#E2E2E2"/>
<stop offset="0.79" stop-color="#E2E2E2"/>
<stop offset="1" stop-color="#6F9A3A"/>
</linearGradient>
<linearGradient id="paint20_linear_1815_14412" x1="76.3569" y1="649.459" x2="63.8866" y2="619.837" gradientUnits="userSpaceOnUse">
<stop stop-color="#E2E2E2"/>
<stop offset="0.79" stop-color="#E2E2E2"/>
<stop offset="1" stop-color="#6F9A3A"/>
</linearGradient>
<linearGradient id="paint21_linear_1815_14412" x1="83.3932" y1="655.122" x2="113.134" y2="642.936" gradientUnits="userSpaceOnUse">
<stop stop-color="#E2E2E2"/>
<stop offset="0.79" stop-color="#E2E2E2"/>
<stop offset="1" stop-color="#6F9A3A"/>
</linearGradient>
<linearGradient id="paint22_linear_1815_14412" x1="102.917" y1="630.35" x2="116.026" y2="659.684" gradientUnits="userSpaceOnUse">
<stop stop-color="#E2E2E2"/>
<stop offset="0.79" stop-color="#E2E2E2"/>
<stop offset="1" stop-color="#6F9A3A"/>
</linearGradient>
<linearGradient id="paint23_linear_1815_14412" x1="114.952" y1="651.09" x2="82.8748" y2="649.252" gradientUnits="userSpaceOnUse">
<stop stop-color="#E2E2E2"/>
<stop offset="0.79" stop-color="#E2E2E2"/>
<stop offset="1" stop-color="#6F9A3A"/>
</linearGradient>
<linearGradient id="paint24_linear_1815_14412" x1="83.0188" y1="638.103" x2="96.1323" y2="667.446" gradientUnits="userSpaceOnUse">
<stop stop-color="#E2E2E2"/>
<stop offset="0.79" stop-color="#E2E2E2"/>
<stop offset="1" stop-color="#6F9A3A"/>
</linearGradient>
<linearGradient id="paint25_linear_1815_14412" x1="87.4469" y1="623.87" x2="101.46" y2="652.794" gradientUnits="userSpaceOnUse">
<stop stop-color="#E2E2E2"/>
<stop offset="0.79" stop-color="#E2E2E2"/>
<stop offset="1" stop-color="#6F9A3A"/>
</linearGradient>
<linearGradient id="paint26_linear_1815_14412" x1="130.372" y1="631.353" x2="109.612" y2="655.876" gradientUnits="userSpaceOnUse">
<stop stop-color="#E2E2E2"/>
<stop offset="0.79" stop-color="#E2E2E2"/>
<stop offset="1" stop-color="#6F9A3A"/>
</linearGradient>
<linearGradient id="paint27_linear_1815_14412" x1="119.836" y1="654.416" x2="99.0695" y2="678.947" gradientUnits="userSpaceOnUse">
<stop stop-color="#E2E2E2"/>
<stop offset="0.79" stop-color="#E2E2E2"/>
<stop offset="1" stop-color="#6F9A3A"/>
</linearGradient>
<linearGradient id="paint28_linear_1815_14412" x1="117.623" y1="662.149" x2="105.38" y2="632.432" gradientUnits="userSpaceOnUse">
<stop stop-color="#E2E2E2"/>
<stop offset="0.79" stop-color="#E2E2E2"/>
<stop offset="1" stop-color="#6F9A3A"/>
</linearGradient>
<linearGradient id="paint29_linear_1815_14412" x1="121.523" y1="674.098" x2="115.729" y2="642.495" gradientUnits="userSpaceOnUse">
<stop stop-color="#E2E2E2"/>
<stop offset="0.79" stop-color="#E2E2E2"/>
<stop offset="1" stop-color="#6F9A3A"/>
</linearGradient>
<linearGradient id="paint30_linear_1815_14412" x1="97.9968" y1="624.883" x2="77.2304" y2="649.413" gradientUnits="userSpaceOnUse">
<stop stop-color="#E2E2E2"/>
<stop offset="0.79" stop-color="#E2E2E2"/>
<stop offset="1" stop-color="#6F9A3A"/>
</linearGradient>
<linearGradient id="paint31_linear_1815_14412" x1="103.336" y1="652.073" x2="133.077" y2="639.888" gradientUnits="userSpaceOnUse">
<stop stop-color="#E2E2E2"/>
<stop offset="0.79" stop-color="#E2E2E2"/>
</linearGradient>
<linearGradient id="paint32_linear_1815_14412" x1="104.857" y1="663.143" x2="134.597" y2="650.958" gradientUnits="userSpaceOnUse">
<stop stop-color="#E2E2E2"/>
<stop offset="0.79" stop-color="#E2E2E2"/>
</linearGradient>
<linearGradient id="paint33_linear_1815_14412" x1="74.9961" y1="659.632" x2="104.737" y2="647.447" gradientUnits="userSpaceOnUse">
<stop stop-color="#E2E2E2"/>
<stop offset="0.79" stop-color="#E2E2E2"/>
</linearGradient>
<linearGradient id="paint34_linear_1815_14412" x1="132.922" y1="645.419" x2="110.716" y2="668.64" gradientUnits="userSpaceOnUse">
<stop stop-color="#E2E2E2"/>
<stop offset="0.79" stop-color="#E2E2E2"/>
</linearGradient>
<linearGradient id="paint35_linear_1815_14412" x1="82.2449" y1="663.843" x2="77.1008" y2="632.117" gradientUnits="userSpaceOnUse">
<stop stop-color="#E2E2E2"/>
<stop offset="0.79" stop-color="#E2E2E2"/>
</linearGradient>
<linearGradient id="paint36_linear_1815_14412" x1="93.8792" y1="651.998" x2="88.7351" y2="620.273" gradientUnits="userSpaceOnUse">
<stop stop-color="#E2E2E2"/>
<stop offset="0.79" stop-color="#E2E2E2"/>
</linearGradient>
<linearGradient id="paint37_linear_1815_14412" x1="93.8818" y1="674.194" x2="88.7377" y2="642.468" gradientUnits="userSpaceOnUse">
<stop stop-color="#E2E2E2"/>
<stop offset="0.79" stop-color="#E2E2E2"/>
</linearGradient>
<linearGradient id="paint38_linear_1815_14412" x1="123.651" y1="648.488" x2="118.507" y2="616.762" gradientUnits="userSpaceOnUse">
<stop stop-color="#E2E2E2"/>
<stop offset="0.79" stop-color="#E2E2E2"/>
</linearGradient>
<linearGradient id="paint39_linear_1815_14412" x1="139.289" y1="670.955" x2="134.146" y2="639.239" gradientUnits="userSpaceOnUse">
<stop stop-color="#E2E2E2"/>
<stop offset="0.79" stop-color="#E2E2E2"/>
</linearGradient>
<linearGradient id="paint40_linear_1815_14412" x1="132.345" y1="656.996" x2="127.201" y2="625.27" gradientUnits="userSpaceOnUse">
<stop stop-color="#E2E2E2"/>
<stop offset="0.79" stop-color="#E2E2E2"/>
</linearGradient>
<linearGradient id="paint41_linear_1815_14412" x1="90.6433" y1="636.293" x2="69.8833" y2="660.816" gradientUnits="userSpaceOnUse">
<stop stop-color="#E2E2E2"/>
<stop offset="0.79" stop-color="#E2E2E2"/>
<stop offset="1" stop-color="#6F9A3A"/>
</linearGradient>
<linearGradient id="paint42_linear_1815_14412" x1="86.2108" y1="649.18" x2="115.942" y2="636.998" gradientUnits="userSpaceOnUse">
<stop stop-color="#E2E2E2"/>
<stop offset="0.79" stop-color="#E2E2E2"/>
<stop offset="1" stop-color="#6F9A3A"/>
</linearGradient>
<linearGradient id="paint43_linear_1815_14412" x1="80.3419" y1="667.298" x2="110.082" y2="655.113" gradientUnits="userSpaceOnUse">
<stop stop-color="#E2E2E2"/>
<stop offset="0.79" stop-color="#E2E2E2"/>
<stop offset="1" stop-color="#6F9A3A"/>
</linearGradient>
<linearGradient id="paint44_linear_1815_14412" x1="72.9308" y1="663.137" x2="102.671" y2="650.952" gradientUnits="userSpaceOnUse">
<stop stop-color="#E2E2E2"/>
<stop offset="0.79" stop-color="#E2E2E2"/>
<stop offset="1" stop-color="#6F9A3A"/>
</linearGradient>
<linearGradient id="paint45_linear_1815_14412" x1="102.212" y1="651.367" x2="89.746" y2="621.754" gradientUnits="userSpaceOnUse">
<stop stop-color="#E2E2E2"/>
<stop offset="0.79" stop-color="#E2E2E2"/>
<stop offset="1" stop-color="#6F9A3A"/>
</linearGradient>
<linearGradient id="paint46_linear_1815_14412" x1="109.257" y1="657.029" x2="138.988" y2="644.847" gradientUnits="userSpaceOnUse">
<stop stop-color="#E2E2E2"/>
<stop offset="0.79" stop-color="#E2E2E2"/>
<stop offset="1" stop-color="#6F9A3A"/>
</linearGradient>
<linearGradient id="paint47_linear_1815_14412" x1="128.779" y1="632.265" x2="141.888" y2="661.599" gradientUnits="userSpaceOnUse">
<stop stop-color="#E2E2E2"/>
<stop offset="0.79" stop-color="#E2E2E2"/>
<stop offset="1" stop-color="#6F9A3A"/>
</linearGradient>
<linearGradient id="paint48_linear_1815_14412" x1="140.815" y1="653.003" x2="108.728" y2="651.164" gradientUnits="userSpaceOnUse">
<stop stop-color="#E2E2E2"/>
<stop offset="0.79" stop-color="#E2E2E2"/>
<stop offset="1" stop-color="#6F9A3A"/>
</linearGradient>
<linearGradient id="paint49_linear_1815_14412" x1="108.88" y1="640.018" x2="121.994" y2="669.361" gradientUnits="userSpaceOnUse">
<stop stop-color="#E2E2E2"/>
<stop offset="0.79" stop-color="#E2E2E2"/>
<stop offset="1" stop-color="#6F9A3A"/>
</linearGradient>
<linearGradient id="paint50_linear_1815_14412" x1="74.0057" y1="605.714" x2="88.0149" y2="634.629" gradientUnits="userSpaceOnUse">
<stop stop-color="#E2E2E2"/>
<stop offset="0.79" stop-color="#E2E2E2"/>
<stop offset="1" stop-color="#6F9A3A"/>
</linearGradient>
<linearGradient id="paint51_linear_1815_14412" x1="116.935" y1="613.191" x2="96.1689" y2="637.722" gradientUnits="userSpaceOnUse">
<stop stop-color="#E2E2E2"/>
<stop offset="0.79" stop-color="#E2E2E2"/>
<stop offset="1" stop-color="#6F9A3A"/>
</linearGradient>
<linearGradient id="paint52_linear_1815_14412" x1="106.392" y1="636.248" x2="85.6251" y2="660.778" gradientUnits="userSpaceOnUse">
<stop stop-color="#E2E2E2"/>
<stop offset="0.79" stop-color="#E2E2E2"/>
<stop offset="1" stop-color="#6F9A3A"/>
</linearGradient>
<linearGradient id="paint53_linear_1815_14412" x1="104.173" y1="643.993" x2="91.9308" y2="614.276" gradientUnits="userSpaceOnUse">
<stop stop-color="#E2E2E2"/>
<stop offset="0.79" stop-color="#E2E2E2"/>
<stop offset="1" stop-color="#6F9A3A"/>
</linearGradient>
<linearGradient id="paint54_linear_1815_14412" x1="108.077" y1="655.935" x2="102.283" y2="624.332" gradientUnits="userSpaceOnUse">
<stop stop-color="#E2E2E2"/>
<stop offset="0.79" stop-color="#E2E2E2"/>
<stop offset="1" stop-color="#6F9A3A"/>
</linearGradient>
<linearGradient id="paint55_linear_1815_14412" x1="84.5604" y1="606.722" x2="63.794" y2="631.252" gradientUnits="userSpaceOnUse">
<stop stop-color="#E2E2E2"/>
<stop offset="0.79" stop-color="#E2E2E2"/>
<stop offset="1" stop-color="#6F9A3A"/>
</linearGradient>
<linearGradient id="paint56_linear_1815_14412" x1="89.8976" y1="633.912" x2="119.629" y2="621.731" gradientUnits="userSpaceOnUse">
<stop stop-color="#E2E2E2"/>
<stop offset="0.79" stop-color="#E2E2E2"/>
</linearGradient>
<linearGradient id="paint57_linear_1815_14412" x1="91.4143" y1="644.973" x2="121.145" y2="632.791" gradientUnits="userSpaceOnUse">
<stop stop-color="#E2E2E2"/>
<stop offset="0.79" stop-color="#E2E2E2"/>
</linearGradient>
<linearGradient id="paint58_linear_1815_14412" x1="61.5577" y1="641.471" x2="91.2982" y2="629.286" gradientUnits="userSpaceOnUse">
<stop stop-color="#E2E2E2"/>
<stop offset="0.79" stop-color="#E2E2E2"/>
</linearGradient>
<linearGradient id="paint59_linear_1815_14412" x1="119.481" y1="627.252" x2="97.2677" y2="650.48" gradientUnits="userSpaceOnUse">
<stop stop-color="#E2E2E2"/>
<stop offset="0.79" stop-color="#E2E2E2"/>
</linearGradient>
<linearGradient id="paint60_linear_1815_14412" x1="68.7947" y1="645.682" x2="63.6506" y2="613.956" gradientUnits="userSpaceOnUse">
<stop stop-color="#E2E2E2"/>
<stop offset="0.79" stop-color="#E2E2E2"/>
</linearGradient>
<linearGradient id="paint61_linear_1815_14412" x1="80.4392" y1="633.835" x2="75.295" y2="602.109" gradientUnits="userSpaceOnUse">
<stop stop-color="#E2E2E2"/>
<stop offset="0.79" stop-color="#E2E2E2"/>
</linearGradient>
<linearGradient id="paint62_linear_1815_14412" x1="80.4318" y1="656.033" x2="75.2877" y2="624.307" gradientUnits="userSpaceOnUse">
<stop stop-color="#E2E2E2"/>
<stop offset="0.79" stop-color="#E2E2E2"/>
</linearGradient>
<linearGradient id="paint63_linear_1815_14412" x1="110.211" y1="630.325" x2="105.068" y2="598.609" gradientUnits="userSpaceOnUse">
<stop stop-color="#E2E2E2"/>
<stop offset="0.79" stop-color="#E2E2E2"/>
</linearGradient>
<linearGradient id="paint64_linear_1815_14412" x1="125.849" y1="652.792" x2="120.706" y2="621.076" gradientUnits="userSpaceOnUse">
<stop stop-color="#E2E2E2"/>
<stop offset="0.79" stop-color="#E2E2E2"/>
</linearGradient>
<linearGradient id="paint65_linear_1815_14412" x1="118.895" y1="638.834" x2="113.751" y2="607.109" gradientUnits="userSpaceOnUse">
<stop stop-color="#E2E2E2"/>
<stop offset="0.79" stop-color="#E2E2E2"/>
</linearGradient>
<linearGradient id="paint66_linear_1815_14412" x1="77.1993" y1="618.125" x2="56.4329" y2="642.655" gradientUnits="userSpaceOnUse">
<stop stop-color="#E2E2E2"/>
<stop offset="0.79" stop-color="#E2E2E2"/>
<stop offset="1" stop-color="#6F9A3A"/>
</linearGradient>
<linearGradient id="paint67_linear_1815_14412" x1="72.7592" y1="631.014" x2="102.5" y2="618.829" gradientUnits="userSpaceOnUse">
<stop stop-color="#E2E2E2"/>
<stop offset="0.79" stop-color="#E2E2E2"/>
<stop offset="1" stop-color="#6F9A3A"/>
</linearGradient>
<linearGradient id="paint68_linear_1815_14412" x1="66.8937" y1="649.141" x2="96.6343" y2="636.956" gradientUnits="userSpaceOnUse">
<stop stop-color="#E2E2E2"/>
<stop offset="0.79" stop-color="#E2E2E2"/>
<stop offset="1" stop-color="#6F9A3A"/>
</linearGradient>
<linearGradient id="paint69_linear_1815_14412" x1="59.4923" y1="644.976" x2="89.2235" y2="632.794" gradientUnits="userSpaceOnUse">
<stop stop-color="#E2E2E2"/>
<stop offset="0.79" stop-color="#E2E2E2"/>
<stop offset="1" stop-color="#6F9A3A"/>
</linearGradient>
<linearGradient id="paint70_linear_1815_14412" x1="88.7743" y1="633.208" x2="76.3041" y2="603.586" gradientUnits="userSpaceOnUse">
<stop stop-color="#E2E2E2"/>
<stop offset="0.79" stop-color="#E2E2E2"/>
<stop offset="1" stop-color="#6F9A3A"/>
</linearGradient>
<linearGradient id="paint71_linear_1815_14412" x1="95.8089" y1="638.871" x2="125.549" y2="626.686" gradientUnits="userSpaceOnUse">
<stop stop-color="#E2E2E2"/>
<stop offset="0.79" stop-color="#E2E2E2"/>
<stop offset="1" stop-color="#6F9A3A"/>
</linearGradient>
<linearGradient id="paint72_linear_1815_14412" x1="115.337" y1="614.098" x2="128.446" y2="643.432" gradientUnits="userSpaceOnUse">
<stop stop-color="#E2E2E2"/>
<stop offset="0.79" stop-color="#E2E2E2"/>
<stop offset="1" stop-color="#6F9A3A"/>
</linearGradient>
<linearGradient id="paint73_linear_1815_14412" x1="127.372" y1="634.844" x2="95.2851" y2="633.005" gradientUnits="userSpaceOnUse">
<stop stop-color="#E2E2E2"/>
<stop offset="0.79" stop-color="#E2E2E2"/>
<stop offset="1" stop-color="#6F9A3A"/>
</linearGradient>
<linearGradient id="paint74_linear_1815_14412" x1="95.4295" y1="621.856" x2="108.543" y2="651.199" gradientUnits="userSpaceOnUse">
<stop stop-color="#E2E2E2"/>
<stop offset="0.79" stop-color="#E2E2E2"/>
<stop offset="1" stop-color="#6F9A3A"/>
</linearGradient>
</defs>
</svg>
