<svg width="698" height="853" viewBox="0 0 698 853" fill="none" xmlns="http://www.w3.org/2000/svg">
<path d="M526.43 102.03C543.03 115.47 536.04 223.61 499.22 237.9C456.87 254.35 379.49 185.97 391.83 141.5C402.31 103.72 509.83 88.5899 526.43 102.03Z" fill="#353535"/>
<path d="M500.34 258.25C500.95 292.6 483.61 318.44 478.57 325.74C440.59 380.76 371.2 380.54 348.65 380.47C296.28 380.3 205.09 358.65 188.29 292.96C178.87 256.16 197.04 222.09 205.53 206.18C232.3 155.98 287.78 117.68 348.66 119.8C425.38 122.47 499.12 188.91 500.35 258.25H500.34Z" fill="white"/>
<mask id="mask0_1820_16239" style="mask-type:luminance" maskUnits="userSpaceOnUse" x="185" y="119" width="316" height="262">
<path d="M500.34 258.25C500.95 292.6 483.61 318.44 478.57 325.74C440.59 380.76 371.2 380.54 348.65 380.47C296.28 380.3 205.09 358.65 188.29 292.96C178.87 256.16 197.04 222.09 205.53 206.18C232.3 155.98 287.78 117.68 348.66 119.8C425.38 122.47 499.12 188.91 500.35 258.25H500.34Z" fill="white"/>
</mask>
<g mask="url(#mask0_1820_16239)">
<path d="M394.64 108.53C389.2 120.85 388.24 134.52 390.93 147.65C393.67 161.03 400.04 173.61 408.76 184.09C418.03 195.23 430.25 203.68 443.39 209.63C457.25 215.91 472.13 219.51 487.2 221.36C494.62 222.27 502.11 222.78 509.58 222.84C516.2 222.9 522.88 222.45 529.36 221.05C535.54 219.71 541.66 217.41 546.72 213.55C551.78 209.69 555.67 204.3 557.41 198.09C561.01 185.18 555.68 170.98 547.01 161.31C536.97 150.11 522.13 144.39 508.07 140.19C499.98 137.77 491.79 135.67 483.64 133.45C474.73 131.03 465.83 128.62 456.92 126.2C439.03 121.35 421.14 116.49 403.25 111.64C398.92 110.46 394.59 109.29 390.25 108.11C388.38 107.6 387.59 110.5 389.45 111C406.7 115.68 423.95 120.36 441.2 125.04C458.45 129.72 475.7 134.4 492.95 139.08C507.3 142.97 522.17 146.65 534.76 154.89C545.78 162.1 554.38 173.61 555.43 187.07C555.91 193.26 554.61 199.45 551.13 204.64C547.65 209.83 542.65 213.3 537.08 215.56C524.91 220.51 511.15 220.23 498.27 219.37C483.62 218.4 469 215.89 455.11 211.06C441.59 206.37 428.61 199.34 418.09 189.55C408.51 180.63 401.04 169.33 396.67 156.98C392.39 144.87 391.05 131.58 394.18 119.03C394.95 115.95 395.97 112.92 397.25 110.01C398.02 108.26 395.44 106.73 394.66 108.5L394.64 108.53Z" fill="white"/>
<path d="M403.92 112.94C386.95 126.67 380.35 150.85 384.97 172.19C389.59 193.52 404.18 211.85 422.23 224.11C440.29 236.38 461.6 243.07 483.08 246.96C490.32 248.27 498.03 249.24 504.84 246.45C513.06 243.1 518.3 234.95 521.67 226.74C530.64 204.92 529.76 179.26 519.31 158.1C508.86 136.95 489.01 120.66 466.22 114.53C446.38 109.2 425.39 111.35 404.96 113.55" fill="#353535"/>
</g>
<path d="M168.4 102.03C151.8 115.47 158.79 223.61 195.61 237.9C237.96 254.35 315.34 185.97 303 141.5C292.52 103.72 185 88.5899 168.4 102.03Z" fill="#FFDC83"/>
<path d="M187.35 121.39C178.52 128.54 182.24 186.07 201.82 193.68C224.35 202.43 265.52 166.05 258.96 142.39C253.38 122.29 196.18 114.24 187.35 121.39Z" fill="#FFBBD2"/>
<path d="M508.6 121.39C517.43 128.54 513.71 186.07 494.12 193.68C471.59 202.43 430.42 166.05 436.98 142.39C442.56 122.29 499.76 114.24 508.59 121.39H508.6Z" fill="#FFBBD2"/>
<path d="M430.77 230.75C428.79 243.4 416.08 252.64 402.75 252.64C389.98 252.64 379.33 244.13 378.39 232.57" fill="#86C663"/>
<path d="M378.38 232.58C377.33 219.66 388.55 207.06 404.29 205.84C420.9 204.55 433 216.47 430.76 230.76" fill="#4D962C"/>
<path d="M264.82 230.75C266.8 243.4 279.51 252.64 292.84 252.64C305.61 252.64 316.26 244.13 317.2 232.57" fill="#86C663"/>
<path d="M317.2 232.58C318.25 219.66 307.03 207.06 291.29 205.84C274.68 204.55 262.58 216.47 264.82 230.76" fill="#4D962C"/>
<path d="M403.54 248.04C412.222 248.04 419.26 240.259 419.26 230.66C419.26 221.061 412.222 213.28 403.54 213.28C394.858 213.28 387.82 221.061 387.82 230.66C387.82 240.259 394.858 248.04 403.54 248.04Z" fill="black"/>
<path d="M418.02 230.18C420.776 230.18 423.01 227.946 423.01 225.19C423.01 222.434 420.776 220.2 418.02 220.2C415.264 220.2 413.03 222.434 413.03 225.19C413.03 227.946 415.264 230.18 418.02 230.18Z" fill="white"/>
<path d="M290.87 248.04C299.552 248.04 306.59 240.259 306.59 230.66C306.59 221.061 299.552 213.28 290.87 213.28C282.188 213.28 275.15 221.061 275.15 230.66C275.15 240.259 282.188 248.04 290.87 248.04Z" fill="black"/>
<path d="M302.02 230.18C304.776 230.18 307.01 227.946 307.01 225.19C307.01 222.434 304.776 220.2 302.02 220.2C299.264 220.2 297.03 222.434 297.03 225.19C297.03 227.946 299.264 230.18 302.02 230.18Z" fill="white"/>
<path d="M353.24 239.5C334.54 238.03 322.28 260.23 325.97 269.02C331 281 371.05 280.91 376.35 268.06C379.9 259.46 369.67 240.79 353.25 239.5H353.24Z" fill="#FFDC83"/>
<path d="M360.91 250.46C361.6 253.46 356.62 258.21 351.42 258.34C345.9 258.48 340.57 253.39 341.26 250.32C341.93 247.39 348.08 246.41 351.82 246.58C354.35 246.7 360.24 247.54 360.91 250.45V250.46Z" fill="#FFBBD2"/>
<path d="M399.32 19C393.88 19 388.71 20.1901 384.07 22.3401C377.02 9.05009 363.12 0 347.13 0C331.14 0 317.39 8.95 310.3 22.12C305.78 20.11 300.78 18.9901 295.52 18.9901C275.22 18.9901 258.77 44.8301 258.77 65.3101C258.77 85.7901 275.22 102.38 295.52 102.38C307.62 102.38 318.36 96.48 325.06 87.37C331.47 91.39 339.03 93.7101 347.14 93.7101C355.25 93.7101 363.12 91.29 369.61 87.12C376.29 96.37 387.11 102.38 399.33 102.38C419.63 102.38 436.08 85.7801 436.08 65.3101C436.08 44.8401 419.63 18.9901 399.33 18.9901L399.32 19Z" fill="white"/>
<path d="M399.72 133.11C392.51 128.36 374.15 125.97 347.51 125.87C320.4 125.76 301.69 128.37 294.49 133.11C293 116.89 291.42 107.91 289.75 89.7001C301.09 84.4701 320.65 77.42 346.19 77.26C372.71 77.09 392.98 84.4101 404.47 89.7001C402.79 107.9 401.2 116.88 399.71 133.11H399.72Z" fill="white"/>
<g opacity="0.8">
<path d="M385.269 33.5C385.989 39.01 386.299 46.7801 384.319 55.8201C381.929 66.7501 377.189 75.0701 373.579 80.3201" fill="white"/>
<path d="M385.269 33.5C390.289 49.55 385.329 68.3901 373.579 80.3201C376.899 72.8001 379.949 65.42 381.929 57.52C383.969 49.63 384.809 41.71 385.269 33.5Z" fill="#DADADA"/>
</g>
<g opacity="0.8">
<path d="M309.2 34.2202C308.48 39.7302 308.17 47.5002 310.15 56.5402C312.54 67.4702 317.28 75.7902 320.89 81.0402" fill="white"/>
<path d="M309.199 34.2202C309.659 42.4302 310.499 50.3502 312.539 58.2402C314.519 66.1402 317.569 73.5202 320.889 81.0402C309.139 69.1202 304.169 50.2802 309.199 34.2202Z" fill="#DADADA"/>
</g>
<g opacity="0.8">
<path d="M298.09 101.04C327.08 84.53 364.86 84.5 393.85 101.04C386.16 97.97 378.3 95.5199 370.29 93.8699C346.15 88.7499 320.88 91.72 298.09 101.04Z" fill="#D7D7D7"/>
</g>
<path d="M319.2 664.25C307.87 669.78 296.34 670.01 288.7 669.33C281.97 669.54 271.41 668.92 260.94 663.86C254.79 660.89 251.67 657.84 250.14 656.15C248.46 654.31 245.16 650.6 243.79 644.79C243.38 643.05 243.16 641.23 243.16 639.36C243.16 626.29 253.86 615.59 266.93 615.59H311.83C324.9 615.59 335.6 626.29 335.6 639.36C335.55 642.56 334.97 649.94 329.76 656.43C328.69 657.77 325.86 661.01 319.2 664.25Z" fill="#7F7F7F"/>
<path d="M450.05 664.25C438.72 669.78 427.19 670.01 419.55 669.33C412.82 669.54 402.26 668.92 391.79 663.86C385.64 660.89 382.52 657.84 380.99 656.15C379.31 654.31 376.01 650.6 374.64 644.79C374.23 643.05 374.01 641.23 374.01 639.36C374.01 626.29 384.71 615.59 397.78 615.59H442.68C455.75 615.59 466.45 626.29 466.45 639.36C466.4 642.56 465.82 649.94 460.61 656.43C459.54 657.77 456.71 661.01 450.05 664.25Z" fill="#7F7F7F"/>
<path d="M471.29 632H230.18C214.36 632 201.82 618.66 202.79 602.88L213.57 427.84C215.9 389.96 247.31 360.43 285.26 360.43H416.19C454.14 360.43 485.55 389.96 487.88 427.84L498.66 602.88C499.63 618.67 487.09 632 471.27 632H471.29Z" fill="white"/>
<path d="M343.16 406.7C329.37 403.69 313.9 410.63 297.27 404.09C282.01 398.09 268.35 391.32 256.4 384.54C255.53 382.44 254.02 378.1 253.97 372.28C253.92 366.12 255.53 361.52 256.4 359.41C285.32 370.58 314.24 370.39 343.17 381.56V406.69L343.16 406.7Z" fill="#FF4848"/>
<path d="M355.53 406.7C369.32 403.69 384.79 410.63 401.42 404.09C416.68 398.09 430.34 391.32 442.29 384.54C443.16 382.44 444.67 378.1 444.72 372.28C444.77 366.12 443.16 361.52 442.29 359.41C413.37 370.58 384.45 370.39 355.52 381.56V406.69L355.53 406.7Z" fill="#FF4848"/>
<path d="M355.24 414.78H339.6C335.23 414.78 331.84 410.97 332.35 406.63L335.03 383.91C335.46 380.23 338.58 377.46 342.28 377.46H352.57C356.27 377.46 359.39 380.23 359.82 383.91L362.5 406.63C363.01 410.97 359.62 414.78 355.25 414.78H355.24Z" fill="#EA4949"/>
<path d="M340.49 413.29H353.78C357.68 413.29 361.08 415.97 361.98 419.77L368.78 448.35C369.35 450.74 369.06 453.26 367.95 455.45L354.43 482.31C351.34 488.44 342.54 488.28 339.67 482.05L327.5 455.55C326.6 453.59 326.33 451.39 326.73 449.27L332.2 420.16C332.95 416.18 336.43 413.29 340.48 413.29H340.49Z" fill="#FF4848"/>
<path d="M299.56 438.95C305.32 438.95 309.99 434.28 309.99 428.52C309.99 422.759 305.32 418.09 299.56 418.09C293.8 418.09 289.13 422.759 289.13 428.52C289.13 434.28 293.8 438.95 299.56 438.95Z" fill="#E8E8E8"/>
<path d="M390.45 438.95C396.21 438.95 400.88 434.28 400.88 428.52C400.88 422.759 396.21 418.09 390.45 418.09C384.689 418.09 380.02 422.759 380.02 428.52C380.02 434.28 384.689 438.95 390.45 438.95Z" fill="#E8E8E8"/>
<path d="M299.56 475.85C305.32 475.85 309.99 471.18 309.99 465.42C309.99 459.66 305.32 454.99 299.56 454.99C293.8 454.99 289.13 459.66 289.13 465.42C289.13 471.18 293.8 475.85 299.56 475.85Z" fill="#E8E8E8"/>
<path d="M390.45 475.85C396.21 475.85 400.88 471.18 400.88 465.42C400.88 459.66 396.21 454.99 390.45 454.99C384.689 454.99 380.02 459.66 380.02 465.42C380.02 471.18 384.689 475.85 390.45 475.85Z" fill="#E8E8E8"/>
<path d="M299.56 515.77C305.32 515.77 309.99 511.1 309.99 505.34C309.99 499.58 305.32 494.91 299.56 494.91C293.8 494.91 289.13 499.58 289.13 505.34C289.13 511.1 293.8 515.77 299.56 515.77Z" fill="#E8E8E8"/>
<path d="M390.45 515.77C396.21 515.77 400.88 511.1 400.88 505.34C400.88 499.58 396.21 494.91 390.45 494.91C384.689 494.91 380.02 499.58 380.02 505.34C380.02 511.1 384.689 515.77 390.45 515.77Z" fill="#E8E8E8"/>
<path d="M495.69 548.56C456.6 555.31 407.08 560.65 351.75 560.75C295.08 560.85 245.74 555.28 205.99 548.42C205.99 543.4 206.79 538.77 206.79 533.74C247.06 540.3 295.53 545.09 351.75 544.99C406.65 544.9 454.85 539.79 494.44 533.34C494.44 538.36 495.69 543.54 495.69 548.56Z" fill="#E8E8E8"/>
<path d="M436.01 425.92L468.7 471.21C475.86 481.13 491.3 480.54 503.01 469.91L505.16 467.96C516.87 457.33 520.6 440.52 513.45 430.6L480.76 385.31C473.6 375.39 458.16 375.98 446.45 386.61L444.3 388.56C432.59 399.19 428.86 416 436.01 425.92Z" fill="white"/>
<path d="M436.01 425.92L468.7 471.21C475.86 481.13 491.3 480.54 503.01 469.91L505.16 467.96C516.87 457.33 520.6 440.52 513.45 430.6L480.76 385.31C473.6 375.39 458.16 375.98 446.45 386.61L444.3 388.56C432.59 399.19 428.86 416 436.01 425.92Z" stroke="white" stroke-miterlimit="10"/>
<path d="M516.86 442.1C526.32 452.12 522.52 473 508.84 480.77C496.66 487.69 478.36 483.22 473.17 470.63C468.34 458.92 476.95 445.25 487.45 439.7C496.23 435.05 509.57 434.38 516.86 442.1Z" fill="#353535"/>
<path d="M265.35 384.28L287.67 435.48C292.56 446.69 284.19 459.68 269.07 464.34L266.3 465.2C251.19 469.86 234.82 464.51 229.93 453.3L207.61 402.1C202.72 390.89 211.09 377.9 226.21 373.24L228.98 372.38C244.09 367.72 260.46 373.07 265.35 384.28Z" fill="white"/>
<path d="M265.35 384.28L287.67 435.48C292.56 446.69 284.19 459.68 269.07 464.34L266.3 465.2C251.19 469.86 234.82 464.51 229.93 453.3L207.61 402.1C202.72 390.89 211.09 377.9 226.21 373.24L228.98 372.38C244.09 367.72 260.46 373.07 265.35 384.28Z" stroke="white" stroke-miterlimit="10"/>
<path d="M231.19 446.44C234.99 459.68 254.9 467.06 268.55 459.24C280.71 452.28 286.18 434.26 277.99 423.38C270.37 413.26 254.23 413.71 244.1 419.91C235.63 425.1 228.25 436.23 231.18 446.44H231.19Z" fill="#FFDC83"/>
<path d="M559.32 212.43C559.32 197.97 570.79 185.63 586.94 180.75C591.66 166.07 608.53 155.21 628.61 155.21C652.35 155.21 671.6 170.39 671.6 189.12C671.6 190 671.56 190.88 671.47 191.75C686.96 196.88 697.85 208.95 697.85 223.04C697.85 241.77 678.6 256.95 654.86 256.95C651.35 256.95 647.94 256.62 644.68 255.99C636.79 263.33 625.03 267.99 611.87 267.99C588.13 267.99 568.88 252.81 568.88 234.08C568.88 233.97 568.88 233.87 568.88 233.76C562.9 227.93 559.32 220.52 559.32 212.44V212.43Z" fill="#E2E2E2"/>
<path d="M561.98 476.1C573.645 476.1 583.1 466.644 583.1 454.98C583.1 443.316 573.645 433.86 561.98 433.86C550.316 433.86 540.86 443.316 540.86 454.98C540.86 466.644 550.316 476.1 561.98 476.1Z" fill="#E2E2E2"/>
<path d="M147.17 458.28C158.834 458.28 168.29 448.824 168.29 437.16C168.29 425.496 158.834 416.04 147.17 416.04C135.506 416.04 126.05 425.496 126.05 437.16C126.05 448.824 135.506 458.28 147.17 458.28Z" fill="#E2E2E2"/>
<path d="M104.12 364.5C122.864 364.5 138.06 355.044 138.06 343.38C138.06 331.716 122.864 322.26 104.12 322.26C85.3751 322.26 70.1797 331.716 70.1797 343.38C70.1797 355.044 85.3751 364.5 104.12 364.5Z" fill="#E2E2E2"/>
<path d="M0 238.51C0 221.9 19.07 208.43 42.6 208.43C64.45 208.43 82.44 220.04 84.91 235C104.38 237.38 119.04 247.78 119.04 260.26C119.04 274.49 99.96 286.03 76.43 286.03C57.5 286.03 41.46 278.56 35.91 268.23C15.56 265.95 0 253.52 0 238.51Z" fill="#E2E2E2"/>
<path d="M532.07 345.22C532.07 328.61 551.14 315.14 574.67 315.14C596.52 315.14 614.51 326.75 616.98 341.71C636.45 344.09 651.11 354.49 651.11 366.97C651.11 381.2 632.03 392.74 608.5 392.74C589.57 392.74 573.53 385.27 567.98 374.94C547.63 372.67 532.07 360.24 532.07 345.23V345.22Z" fill="#E2E2E2"/>
<path d="M340.55 506.6C342.81 519.5 319.49 538.8 296.15 538.5C273.61 538.21 251.04 519.63 253.24 506.78C255.41 494.11 281.46 488.26 298.62 488.63C313.69 488.95 338.42 494.44 340.55 506.6Z" fill="#AFB2BC"/>
<path d="M252.57 508.4H264.72V356.71H252.57L252.57 508.4Z" fill="#AFB2BC"/>
<path d="M258.859 507.29C259.409 514.06 283.309 516.73 297.169 516.72C310.839 516.71 334.939 514.06 335.479 507.29C335.989 500.92 315.659 490.77 295.899 491.17C277.479 491.54 258.369 501.08 258.869 507.29H258.859Z" fill="#9AA1A5"/>
<path d="M258.65 398.46H258.66C263.829 398.46 268.02 394.269 268.02 389.1V362.87C268.02 357.7 263.829 353.51 258.66 353.51H258.65C253.48 353.51 249.29 357.7 249.29 362.87V389.1C249.29 394.269 253.48 398.46 258.65 398.46Z" fill="#B23232"/>
<path d="M145.73 602.92H92.3604C85.7329 602.92 80.3604 608.293 80.3604 614.92V664.08C80.3604 670.707 85.7329 676.08 92.3604 676.08H145.73C152.358 676.08 157.73 670.707 157.73 664.08V614.92C157.73 608.293 152.358 602.92 145.73 602.92Z" fill="#A73231"/>
<path d="M611.91 602.92H558.54C551.913 602.92 546.54 608.293 546.54 614.92V664.08C546.54 670.707 551.913 676.08 558.54 676.08H611.91C618.537 676.08 623.91 670.707 623.91 664.08V614.92C623.91 608.293 618.537 602.92 611.91 602.92Z" fill="#A73231"/>
<path d="M112.42 544.99H591.59V756.04C591.59 809.21 548.43 852.37 495.26 852.37H208.75C155.58 852.37 112.42 809.21 112.42 756.04V544.99Z" fill="#D65251"/>
<path d="M591.59 544.99H112.42V572.59H591.59V544.99Z" fill="white"/>
<path d="M475.3 470.94C455.52 470.94 437.94 464.22 431.64 443.82L425.62 424.36C424.54 420.86 427.15 417.32 430.81 417.32H519.79C523.45 417.32 526.06 420.86 524.98 424.36L518.96 443.82C512.65 464.22 495.08 470.94 475.3 470.94Z" fill="#ECECEB" stroke="#B1B1B1" stroke-width="2" stroke-miterlimit="10"/>
<g opacity="0.08">
<mask id="mask1_1820_16239" style="mask-type:luminance" maskUnits="userSpaceOnUse" x="425" y="417" width="101" height="55">
<path d="M475.369 471.01C455.589 471.01 438.009 464.29 431.709 443.89L425.689 424.43C424.609 420.93 427.219 417.39 430.879 417.39H519.859C523.519 417.39 526.129 420.93 525.049 424.43L519.029 443.89C512.719 464.29 495.149 471.01 475.369 471.01Z" fill="white"/>
</mask>
<g mask="url(#mask1_1820_16239)">
<path d="M518.619 425.5C510.589 449.39 490.379 468.82 466.199 475.89C486.169 476.18 504.929 467.1 522.829 458.22C528.469 455.42 534.359 452.42 537.939 447.23C542.249 440.98 542.359 432.85 542.299 425.27C542.269 421.02 542.019 416.24 538.879 413.37C535.329 410.13 529.419 410.96 525.619 413.91C521.819 416.86 519.619 421.36 517.549 425.69" fill="#6B6B6B"/>
</g>
</g>
<path d="M475.37 445.18C447.81 445.18 425.39 432.95 425.39 417.92C425.39 402.89 447.81 390.66 475.37 390.66C502.93 390.66 525.36 402.89 525.36 417.92C525.36 432.95 502.94 445.18 475.37 445.18Z" fill="white"/>
<path d="M475.37 391.66C488.66 391.66 501.11 394.51 510.45 399.69C519.42 404.66 524.35 411.13 524.35 417.92C524.35 424.71 519.41 431.18 510.45 436.15C501.11 441.33 488.65 444.18 475.37 444.18C462.09 444.18 449.63 441.33 440.29 436.15C431.32 431.18 426.39 424.71 426.39 417.92C426.39 411.13 431.33 404.66 440.29 399.69C449.63 394.51 462.09 391.66 475.37 391.66ZM475.37 389.66C447.21 389.66 424.38 402.31 424.38 417.92C424.38 433.53 447.21 446.18 475.37 446.18C503.53 446.18 526.35 433.53 526.35 417.92C526.35 402.31 503.52 389.66 475.37 389.66Z" fill="#B1B1B1"/>
<path d="M475.37 443.39C448.72 443.39 427.04 432.09 427.04 418.2C427.04 404.31 449.13 392.46 475.27 392.46C501.41 392.46 523.69 404.25 523.69 418.2C523.69 432.15 502.01 443.39 475.36 443.39H475.37Z" fill="#DADADA"/>
<path d="M475.27 392.95C501.25 392.95 523.19 404.51 523.19 418.19C523.19 431.87 501.74 442.88 475.36 442.88C448.98 442.88 427.53 431.8 427.53 418.19C427.53 404.58 449.39 392.95 475.26 392.95M475.27 391.95C448.3 391.95 426.54 404.01 426.54 418.19C426.54 432.37 448.4 443.88 475.37 443.88C502.34 443.88 524.2 432.38 524.2 418.19C524.2 404 502.25 391.95 475.28 391.95H475.27Z" fill="#B1B1B1"/>
<path d="M475.27 400.11C496.74 400.06 518.64 409.98 522.85 422.04C523.32 420.71 523.41 419.18 523.27 417.36C522.24 404.09 500.39 392.95 475.22 393.16C450.05 393.37 428.65 403.6 427.48 417.33C427.28 419.69 427.79 421.81 428.26 423.21C432.38 411.03 454.1 400.15 475.27 400.1V400.11Z" fill="#D0D0D0"/>
</svg>
