<svg width="698" height="853" viewBox="0 0 698 853" fill="none" xmlns="http://www.w3.org/2000/svg">
<path d="M529.76 102.03C546.36 115.47 539.37 223.61 502.55 237.9C460.2 254.35 382.82 185.97 395.16 141.5C405.64 103.72 513.16 88.5899 529.76 102.03Z" fill="#353535"/>
<path d="M503.67 258.25C504.28 292.6 486.94 318.44 481.9 325.74C443.92 380.76 374.53 380.54 351.98 380.47C299.61 380.3 208.42 358.65 191.62 292.96C182.2 256.16 200.37 222.09 208.86 206.18C235.63 155.98 291.11 117.68 351.99 119.8C428.71 122.47 502.45 188.91 503.68 258.25H503.67Z" fill="white"/>
<mask id="mask0_1820_16331" style="mask-type:luminance" maskUnits="userSpaceOnUse" x="188" y="119" width="316" height="262">
<path d="M503.67 258.25C504.28 292.6 486.94 318.44 481.9 325.74C443.92 380.76 374.53 380.54 351.98 380.47C299.61 380.3 208.42 358.65 191.62 292.96C182.2 256.16 200.37 222.09 208.86 206.18C235.63 155.98 291.11 117.68 351.99 119.8C428.71 122.47 502.45 188.91 503.68 258.25H503.67Z" fill="white"/>
</mask>
<g mask="url(#mask0_1820_16331)">
<path d="M397.97 108.53C392.53 120.85 391.57 134.52 394.26 147.65C397 161.03 403.37 173.61 412.09 184.09C421.36 195.23 433.58 203.68 446.72 209.63C460.58 215.91 475.46 219.51 490.53 221.36C497.95 222.27 505.44 222.78 512.91 222.84C519.53 222.9 526.21 222.45 532.69 221.05C538.87 219.71 544.99 217.41 550.05 213.55C555.11 209.69 559 204.3 560.74 198.09C564.34 185.18 559.01 170.98 550.34 161.31C540.3 150.11 525.46 144.39 511.4 140.19C503.31 137.77 495.12 135.67 486.97 133.45C478.06 131.03 469.16 128.62 460.25 126.2C442.36 121.35 424.47 116.49 406.58 111.64C402.25 110.46 397.92 109.29 393.58 108.11C391.71 107.6 390.92 110.5 392.78 111C410.03 115.68 427.28 120.36 444.53 125.04C461.78 129.72 479.03 134.4 496.28 139.08C510.63 142.97 525.5 146.65 538.09 154.89C549.11 162.1 557.71 173.61 558.76 187.07C559.24 193.26 557.94 199.45 554.46 204.64C551.08 209.68 545.98 213.3 540.41 215.56C528.24 220.51 514.48 220.23 501.6 219.37C486.95 218.4 472.33 215.89 458.44 211.06C444.92 206.37 431.94 199.34 421.42 189.55C411.84 180.63 404.37 169.33 400 156.98C395.72 144.87 394.38 131.58 397.51 119.03C398.28 115.95 399.3 112.92 400.58 110.01C401.35 108.26 398.77 106.73 397.99 108.5L397.97 108.53Z" fill="white"/>
<path d="M407.25 112.94C390.28 126.67 383.68 150.85 388.3 172.19C392.92 193.52 407.51 211.85 425.56 224.11C443.62 236.38 464.93 243.07 486.41 246.96C493.65 248.27 501.36 249.24 508.17 246.45C516.39 243.1 521.63 234.95 525 226.74C533.97 204.92 533.09 179.26 522.64 158.1C512.19 136.95 492.34 120.66 469.55 114.53C449.71 109.2 428.72 111.35 408.29 113.55" fill="#353535"/>
</g>
<path d="M171.73 102.03C155.13 115.47 162.12 223.61 198.94 237.9C241.29 254.35 318.67 185.97 306.33 141.5C295.85 103.72 188.33 88.5899 171.73 102.03Z" fill="#FFDC83"/>
<path d="M190.68 121.39C181.85 128.54 185.57 186.07 205.15 193.68C227.68 202.43 268.85 166.05 262.29 142.39C256.71 122.29 199.51 114.24 190.68 121.39Z" fill="#FFBBD2"/>
<path d="M511.93 121.39C520.76 128.54 517.04 186.07 497.45 193.68C474.92 202.43 433.75 166.05 440.31 142.39C445.89 122.29 503.09 114.24 511.92 121.39H511.93Z" fill="#FFBBD2"/>
<path d="M434.1 230.75C432.12 243.4 419.41 252.64 406.08 252.64C393.31 252.64 382.66 244.13 381.72 232.57" fill="#86C663"/>
<path d="M381.71 232.58C380.66 219.66 391.88 207.06 407.62 205.84C424.23 204.55 436.33 216.47 434.09 230.76" fill="#4D962C"/>
<path d="M268.15 230.75C270.13 243.4 282.84 252.64 296.17 252.64C308.94 252.64 319.59 244.13 320.53 232.57" fill="#86C663"/>
<path d="M320.53 232.58C321.58 219.66 310.36 207.06 294.62 205.84C278.01 204.55 265.91 216.47 268.15 230.76" fill="#4D962C"/>
<path d="M406.87 248.04C415.552 248.04 422.59 240.259 422.59 230.66C422.59 221.061 415.552 213.28 406.87 213.28C398.188 213.28 391.15 221.061 391.15 230.66C391.15 240.259 398.188 248.04 406.87 248.04Z" fill="black"/>
<path d="M421.35 230.18C424.106 230.18 426.34 227.946 426.34 225.19C426.34 222.434 424.106 220.2 421.35 220.2C418.594 220.2 416.36 222.434 416.36 225.19C416.36 227.946 418.594 230.18 421.35 230.18Z" fill="white"/>
<path d="M294.2 248.04C302.882 248.04 309.921 240.259 309.921 230.66C309.921 221.061 302.882 213.28 294.2 213.28C285.519 213.28 278.48 221.061 278.48 230.66C278.48 240.259 285.519 248.04 294.2 248.04Z" fill="black"/>
<path d="M305.35 230.18C308.106 230.18 310.34 227.946 310.34 225.19C310.34 222.434 308.106 220.2 305.35 220.2C302.594 220.2 300.36 222.434 300.36 225.19C300.36 227.946 302.594 230.18 305.35 230.18Z" fill="white"/>
<path d="M356.57 239.5C337.87 238.03 325.61 260.23 329.3 269.02C334.33 281 374.38 280.91 379.68 268.06C383.23 259.46 373 240.79 356.58 239.5H356.57Z" fill="#FFDC83"/>
<path d="M364.24 250.46C364.93 253.46 359.95 258.21 354.75 258.34C349.23 258.48 343.9 253.39 344.59 250.32C345.26 247.39 351.41 246.41 355.15 246.58C357.68 246.7 363.57 247.54 364.24 250.45V250.46Z" fill="#FFBBD2"/>
<path d="M402.65 19C397.21 19 392.04 20.1901 387.4 22.3401C380.35 9.05009 366.45 0 350.46 0C334.47 0 320.72 8.95 313.63 22.12C309.11 20.11 304.11 18.9901 298.85 18.9901C278.55 18.9901 262.1 44.8301 262.1 65.3101C262.1 85.7901 278.55 102.38 298.85 102.38C310.95 102.38 321.69 96.48 328.39 87.37C334.8 91.39 342.36 93.7101 350.47 93.7101C358.58 93.7101 366.45 91.29 372.94 87.12C379.62 96.37 390.44 102.38 402.66 102.38C422.96 102.38 439.41 85.7801 439.41 65.3101C439.41 44.8401 422.96 18.9901 402.66 18.9901L402.65 19Z" fill="white"/>
<path d="M403.05 133.11C395.84 128.36 377.48 125.97 350.84 125.87C323.73 125.76 305.02 128.37 297.82 133.11C296.33 116.89 294.75 107.91 293.08 89.7001C304.42 84.4701 323.98 77.42 349.52 77.26C376.04 77.09 396.31 84.4101 407.8 89.7001C406.12 107.9 404.53 116.88 403.04 133.11H403.05Z" fill="white"/>
<g opacity="0.8">
<path d="M388.6 33.5C389.32 39.01 389.63 46.7801 387.65 55.8201C385.26 66.7501 380.52 75.0701 376.91 80.3201" fill="white"/>
<path d="M388.6 33.5C393.62 49.55 388.66 68.3901 376.91 80.3201C380.23 72.8001 383.28 65.42 385.26 57.52C387.3 49.63 388.14 41.71 388.6 33.5Z" fill="#DADADA"/>
</g>
<g opacity="0.8">
<path d="M312.53 34.2202C311.81 39.7302 311.5 47.5002 313.48 56.5402C315.87 67.4702 320.61 75.7902 324.22 81.0402" fill="white"/>
<path d="M312.529 34.2202C312.989 42.4302 313.829 50.3502 315.869 58.2402C317.849 66.1402 320.899 73.5202 324.219 81.0402C312.469 69.1202 307.499 50.2802 312.529 34.2202Z" fill="#DADADA"/>
</g>
<g opacity="0.8">
<path d="M301.42 101.04C330.41 84.53 368.19 84.5 397.18 101.04C389.49 97.97 381.63 95.5199 373.62 93.8699C349.48 88.7499 324.21 91.72 301.42 101.04Z" fill="#D7D7D7"/>
</g>
<path d="M319.2 664.25C307.87 669.78 296.34 670.01 288.7 669.33C281.97 669.54 271.41 668.92 260.94 663.86C254.79 660.89 251.67 657.84 250.14 656.15C248.46 654.31 245.16 650.6 243.79 644.79C243.38 643.05 243.16 641.23 243.16 639.36C243.16 626.29 253.86 615.59 266.93 615.59H311.83C324.9 615.59 335.6 626.29 335.6 639.36C335.55 642.56 334.97 649.94 329.76 656.43C328.69 657.77 325.86 661.01 319.2 664.25Z" fill="#7F7F7F"/>
<path d="M450.05 664.25C438.72 669.78 427.19 670.01 419.55 669.33C412.82 669.54 402.26 668.92 391.79 663.86C385.64 660.89 382.52 657.84 380.99 656.15C379.31 654.31 376.01 650.6 374.64 644.79C374.23 643.05 374.01 641.23 374.01 639.36C374.01 626.29 384.71 615.59 397.78 615.59H442.68C455.75 615.59 466.45 626.29 466.45 639.36C466.4 642.56 465.82 649.94 460.61 656.43C459.54 657.77 456.71 661.01 450.05 664.25Z" fill="#7F7F7F"/>
<path d="M471.3 632H230.19C214.37 632 201.83 618.66 202.8 602.88L213.58 427.84C215.91 389.96 247.32 360.43 285.27 360.43H416.2C454.15 360.43 485.56 389.96 487.89 427.84L498.67 602.88C499.64 618.67 487.1 632 471.28 632H471.3Z" fill="white"/>
<path d="M343.16 406.7C329.37 403.69 313.9 410.63 297.27 404.09C282.01 398.09 268.35 391.32 256.4 384.54C255.53 382.44 254.02 378.1 253.97 372.28C253.92 366.12 255.53 361.52 256.4 359.41C285.32 370.58 314.24 370.39 343.17 381.56V406.69L343.16 406.7Z" fill="#FF4848"/>
<path d="M355.54 406.7C369.33 403.69 384.8 410.63 401.43 404.09C416.69 398.09 430.35 391.32 442.3 384.54C443.17 382.44 444.68 378.1 444.73 372.28C444.78 366.12 443.17 361.52 442.3 359.41C413.38 370.58 384.46 370.39 355.53 381.56V406.69L355.54 406.7Z" fill="#FF4848"/>
<path d="M355.24 414.78H339.6C335.23 414.78 331.84 410.97 332.35 406.63L335.03 383.91C335.46 380.23 338.58 377.46 342.28 377.46H352.57C356.27 377.46 359.39 380.23 359.82 383.91L362.5 406.63C363.01 410.97 359.62 414.78 355.25 414.78H355.24Z" fill="#EA4949"/>
<path d="M340.5 413.29H353.79C357.69 413.29 361.09 415.97 361.99 419.77L368.79 448.35C369.36 450.74 369.07 453.26 367.96 455.45L354.44 482.31C351.35 488.44 342.55 488.28 339.68 482.05L327.51 455.55C326.61 453.59 326.34 451.39 326.74 449.27L332.21 420.16C332.96 416.18 336.44 413.29 340.49 413.29H340.5Z" fill="#FF4848"/>
<path d="M299.56 438.95C305.32 438.95 309.99 434.28 309.99 428.52C309.99 422.76 305.32 418.09 299.56 418.09C293.799 418.09 289.13 422.76 289.13 428.52C289.13 434.28 293.799 438.95 299.56 438.95Z" fill="#E8E8E8"/>
<path d="M390.449 438.95C396.21 438.95 400.88 434.28 400.88 428.52C400.88 422.76 396.21 418.09 390.449 418.09C384.689 418.09 380.02 422.76 380.02 428.52C380.02 434.28 384.689 438.95 390.449 438.95Z" fill="#E8E8E8"/>
<path d="M299.56 475.85C305.32 475.85 309.99 471.18 309.99 465.42C309.99 459.66 305.32 454.99 299.56 454.99C293.799 454.99 289.13 459.66 289.13 465.42C289.13 471.18 293.799 475.85 299.56 475.85Z" fill="#E8E8E8"/>
<path d="M390.449 475.85C396.21 475.85 400.88 471.18 400.88 465.42C400.88 459.66 396.21 454.99 390.449 454.99C384.689 454.99 380.02 459.66 380.02 465.42C380.02 471.18 384.689 475.85 390.449 475.85Z" fill="#E8E8E8"/>
<path d="M299.56 515.77C305.32 515.77 309.99 511.1 309.99 505.34C309.99 499.58 305.32 494.91 299.56 494.91C293.799 494.91 289.13 499.58 289.13 505.34C289.13 511.1 293.799 515.77 299.56 515.77Z" fill="#E8E8E8"/>
<path d="M390.449 515.77C396.21 515.77 400.88 511.1 400.88 505.34C400.88 499.58 396.21 494.91 390.449 494.91C384.689 494.91 380.02 499.58 380.02 505.34C380.02 511.1 384.689 515.77 390.449 515.77Z" fill="#E8E8E8"/>
<path d="M495.69 548.56C456.6 555.31 407.08 560.65 351.75 560.75C295.08 560.85 245.74 555.28 205.99 548.42C205.99 543.4 206.79 538.77 206.79 533.74C247.06 540.3 295.53 545.09 351.75 544.99C406.65 544.9 454.85 539.79 494.44 533.34C494.44 538.36 495.69 543.54 495.69 548.56Z" fill="#E8E8E8"/>
<path d="M256.38 359.1L340.86 382.15C359.36 387.2 370.71 403.83 366.09 419.11L365.24 421.91C360.62 437.19 341.71 445.57 323.21 440.52L238.73 417.47C220.23 412.42 208.88 395.79 213.5 380.51L214.35 377.71C218.97 362.43 237.88 354.05 256.38 359.1Z" fill="white"/>
<path d="M256.38 359.1L340.86 382.15C359.36 387.2 370.71 403.83 366.09 419.11L365.24 421.91C360.62 437.19 341.71 445.57 323.21 440.52L238.73 417.47C220.23 412.42 208.88 395.79 213.5 380.51L214.35 377.71C218.97 362.43 237.88 354.05 256.38 359.1Z" stroke="white" stroke-miterlimit="10"/>
<path d="M332.549 438.32C343.179 448.6 363.689 442.88 370.449 426.59C376.469 412.08 370.729 391.23 357.839 386.05C345.849 381.22 332.859 392.04 328.079 404.52C324.079 414.96 324.349 430.4 332.539 438.33L332.549 438.32Z" fill="#FFDC83"/>
<path d="M559.32 212.43C559.32 197.97 570.79 185.63 586.94 180.75C591.66 166.07 608.53 155.21 628.61 155.21C652.35 155.21 671.6 170.39 671.6 189.12C671.6 190 671.56 190.88 671.47 191.75C686.96 196.88 697.85 208.95 697.85 223.04C697.85 241.77 678.6 256.95 654.86 256.95C651.35 256.95 647.94 256.62 644.68 255.99C636.79 263.33 625.03 267.99 611.87 267.99C588.13 267.99 568.88 252.81 568.88 234.08C568.88 233.97 568.88 233.87 568.88 233.76C562.9 227.93 559.32 220.52 559.32 212.44V212.43Z" fill="#E2E2E2"/>
<path d="M561.98 476.1C573.645 476.1 583.1 466.644 583.1 454.98C583.1 443.316 573.645 433.86 561.98 433.86C550.316 433.86 540.86 443.316 540.86 454.98C540.86 466.644 550.316 476.1 561.98 476.1Z" fill="#E2E2E2"/>
<path d="M147.18 458.28C158.844 458.28 168.3 448.824 168.3 437.16C168.3 425.496 158.844 416.04 147.18 416.04C135.515 416.04 126.06 425.496 126.06 437.16C126.06 448.824 135.515 458.28 147.18 458.28Z" fill="#E2E2E2"/>
<path d="M104.12 364.5C122.864 364.5 138.06 355.044 138.06 343.38C138.06 331.716 122.864 322.26 104.12 322.26C85.3751 322.26 70.1797 331.716 70.1797 343.38C70.1797 355.044 85.3751 364.5 104.12 364.5Z" fill="#E2E2E2"/>
<path d="M0 238.51C0 221.9 19.07 208.43 42.6 208.43C64.45 208.43 82.44 220.04 84.91 235C104.38 237.38 119.04 247.78 119.04 260.26C119.04 274.49 99.9601 286.03 76.4301 286.03C57.5001 286.03 41.46 278.56 35.91 268.23C15.56 265.96 0 253.53 0 238.52V238.51Z" fill="#E2E2E2"/>
<path d="M532.07 345.22C532.07 328.61 551.14 315.14 574.67 315.14C596.52 315.14 614.51 326.75 616.98 341.71C636.45 344.09 651.11 354.49 651.11 366.97C651.11 381.2 632.03 392.74 608.5 392.74C589.57 392.74 573.53 385.27 567.98 374.94C547.63 372.67 532.07 360.24 532.07 345.23V345.22Z" fill="#E2E2E2"/>
<path d="M145.73 602.92H92.3604C85.7329 602.92 80.3604 608.293 80.3604 614.92V664.08C80.3604 670.707 85.7329 676.08 92.3604 676.08H145.73C152.358 676.08 157.73 670.707 157.73 664.08V614.92C157.73 608.293 152.358 602.92 145.73 602.92Z" fill="#A73231"/>
<path d="M611.91 602.92H558.54C551.913 602.92 546.54 608.293 546.54 614.92V664.08C546.54 670.707 551.913 676.08 558.54 676.08H611.91C618.537 676.08 623.91 670.707 623.91 664.08V614.92C623.91 608.293 618.537 602.92 611.91 602.92Z" fill="#A73231"/>
<path d="M112.42 544.99H591.59V756.04C591.59 809.21 548.43 852.37 495.26 852.37H208.75C155.58 852.37 112.42 809.21 112.42 756.04V544.99Z" fill="#D65251"/>
<path d="M591.59 544.99H112.42V572.59H591.59V544.99Z" fill="white"/>
<path d="M425.91 396.4L357.57 493.26C342.61 514.47 344.09 539.32 360.87 548.49L363.95 550.17C380.73 559.34 406.7 549.49 421.66 528.29L490 431.43C504.96 410.22 503.48 385.37 486.7 376.2L483.62 374.52C466.84 365.35 440.87 375.2 425.91 396.4Z" fill="white"/>
<path d="M425.91 396.4L357.57 493.26C342.61 514.47 344.09 539.32 360.87 548.49L363.95 550.17C380.73 559.34 406.7 549.49 421.66 528.29L490 431.43C504.96 410.22 503.48 385.37 486.7 376.2L483.62 374.52C466.84 365.35 440.87 375.2 425.91 396.4Z" stroke="white" stroke-miterlimit="10"/>
<path d="M406.68 540.53C399.37 556.36 373.45 562.55 358.23 550.86C344.68 540.44 341.53 517.32 353.76 505.06C365.13 493.66 384.88 496.6 396.09 505.77C405.47 513.45 412.32 528.32 406.68 540.53Z" fill="#353535"/>
<path d="M351.69 552.28C331.91 552.28 314.33 545.56 308.03 525.16L302.01 505.7C300.93 502.2 303.54 498.66 307.2 498.66H396.18C399.84 498.66 402.45 502.2 401.37 505.7L395.35 525.16C389.04 545.56 371.47 552.28 351.69 552.28Z" fill="#ECECEB" stroke="#B1B1B1" stroke-width="2" stroke-miterlimit="10"/>
<g opacity="0.08">
<mask id="mask1_1820_16331" style="mask-type:luminance" maskUnits="userSpaceOnUse" x="301" y="498" width="101" height="55">
<path d="M351.76 552.35C331.98 552.35 314.4 545.63 308.1 525.23L302.08 505.77C301 502.27 303.61 498.73 307.27 498.73H396.25C399.91 498.73 402.52 502.27 401.44 505.77L395.42 525.23C389.11 545.63 371.54 552.35 351.76 552.35Z" fill="white"/>
</mask>
<g mask="url(#mask1_1820_16331)">
<path d="M395.01 506.85C386.98 530.74 366.77 550.17 342.59 557.24C362.56 557.53 381.32 548.45 399.22 539.57C404.86 536.77 410.75 533.77 414.33 528.58C418.64 522.33 418.75 514.2 418.69 506.62C418.66 502.37 418.41 497.59 415.27 494.72C411.72 491.48 405.81 492.31 402.01 495.26C398.21 498.21 396.01 502.71 393.94 507.04" fill="#6B6B6B"/>
</g>
</g>
<path d="M351.76 526.53C324.2 526.53 301.771 514.3 301.771 499.27C301.771 484.24 324.19 472.01 351.76 472.01C379.33 472.01 401.74 484.24 401.74 499.27C401.74 514.3 379.32 526.53 351.76 526.53Z" fill="white"/>
<path d="M351.76 473.01C365.05 473.01 377.5 475.86 386.84 481.04C395.81 486.01 400.74 492.48 400.74 499.27C400.74 506.06 395.8 512.53 386.84 517.5C377.5 522.68 365.04 525.53 351.76 525.53C338.48 525.53 326.02 522.68 316.68 517.5C307.71 512.53 302.78 506.06 302.78 499.27C302.78 492.48 307.72 486.01 316.68 481.04C326.02 475.86 338.48 473.01 351.76 473.01ZM351.76 471.01C323.6 471.01 300.78 483.66 300.78 499.27C300.78 514.88 323.61 527.53 351.76 527.53C379.91 527.53 402.74 514.88 402.74 499.27C402.74 483.66 379.91 471.01 351.76 471.01Z" fill="#B1B1B1"/>
<path d="M351.761 524.73C325.111 524.73 303.431 513.43 303.431 499.54C303.431 485.65 325.521 473.79 351.661 473.79C377.801 473.79 400.081 485.58 400.081 499.54C400.081 513.5 378.401 524.73 351.751 524.73H351.761Z" fill="#DADADA"/>
<path d="M351.661 474.3C377.641 474.3 399.581 485.86 399.581 499.54C399.581 513.22 378.131 524.23 351.751 524.23C325.371 524.23 303.921 513.15 303.921 499.54C303.921 485.93 325.781 474.3 351.651 474.3M351.661 473.3C324.691 473.3 302.931 485.36 302.931 499.54C302.931 513.72 324.791 525.23 351.761 525.23C378.731 525.23 400.591 513.73 400.591 499.54C400.591 485.35 378.641 473.3 351.671 473.3H351.661Z" fill="#B1B1B1"/>
<path d="M351.66 481.46C373.13 481.41 395.03 491.33 399.24 503.39C399.71 502.06 399.8 500.53 399.66 498.71C398.63 485.44 376.78 474.3 351.61 474.51C326.44 474.72 305.04 484.95 303.87 498.68C303.67 501.04 304.18 503.16 304.65 504.56C308.77 492.38 330.49 481.5 351.66 481.45V481.46Z" fill="#D0D0D0"/>
<path d="M293.17 477.09C280.08 476.64 266 449.84 271.11 427.07C276.04 405.07 298.88 386.819 311 391.619C322.95 396.359 323.3 423.049 319.4 439.769C315.97 454.449 305.51 477.51 293.17 477.09Z" fill="#AFB2BC"/>
<path d="M309.531 390.589L307.025 402.478L415.875 425.416L418.38 413.528L309.531 390.589Z" fill="#AFB2BC"/>
<path d="M309.34 397.01C302.6 396.15 295.06 418.99 292.21 432.55C289.4 445.93 287.02 470.06 293.54 471.98C299.67 473.79 313.79 455.99 317.48 436.57C320.92 418.47 315.52 397.8 309.34 397.01Z" fill="#9AA1A5"/>
<path d="M387.164 413.155L387.162 413.165C386.096 418.223 389.332 423.188 394.39 424.254L408.334 427.192C413.392 428.258 418.357 425.022 419.423 419.963L419.425 419.954C420.491 414.895 417.255 409.931 412.196 408.865L398.253 405.926C393.194 404.86 388.23 408.097 387.164 413.155Z" fill="#B23232"/>
</svg>
