<svg width="698" height="874" viewBox="0 0 698 874" fill="none" xmlns="http://www.w3.org/2000/svg">
<path d="M319.2 685.85C307.87 691.38 296.34 691.61 288.7 690.93C281.97 691.14 271.41 690.52 260.94 685.46C254.79 682.49 251.67 679.44 250.14 677.75C248.46 675.91 245.16 672.2 243.79 666.39C243.38 664.65 243.16 662.83 243.16 660.96C243.16 647.89 253.86 637.19 266.93 637.19H311.83C324.9 637.19 335.6 647.89 335.6 660.96C335.55 664.16 334.97 671.54 329.76 678.03C328.69 679.37 325.86 682.61 319.2 685.85Z" fill="#7F7F7F"/>
<path d="M450.05 685.85C438.72 691.38 427.19 691.61 419.55 690.93C412.82 691.14 402.26 690.52 391.79 685.46C385.64 682.49 382.52 679.44 380.99 677.75C379.31 675.91 376.01 672.2 374.64 666.39C374.23 664.65 374.01 662.83 374.01 660.96C374.01 647.89 384.71 637.19 397.78 637.19H442.68C455.75 637.19 466.45 647.89 466.45 660.96C466.4 664.16 465.82 671.54 460.61 678.03C459.54 679.37 456.71 682.61 450.05 685.85Z" fill="#7F7F7F"/>
<path d="M471.29 653.59H230.18C214.36 653.59 201.82 640.25 202.79 624.47L213.57 449.43C215.9 411.55 247.31 382.02 285.26 382.02H416.19C454.14 382.02 485.55 411.55 487.88 449.43L498.66 624.47C499.63 640.26 487.09 653.59 471.27 653.59H471.29Z" fill="white"/>
<path d="M299.56 460.55C305.32 460.55 309.99 455.88 309.99 450.12C309.99 444.36 305.32 439.69 299.56 439.69C293.8 439.69 289.13 444.36 289.13 450.12C289.13 455.88 293.8 460.55 299.56 460.55Z" fill="#E8E8E8"/>
<path d="M390.45 460.55C396.21 460.55 400.88 455.88 400.88 450.12C400.88 444.36 396.21 439.69 390.45 439.69C384.689 439.69 380.02 444.36 380.02 450.12C380.02 455.88 384.689 460.55 390.45 460.55Z" fill="#E8E8E8"/>
<path d="M299.56 497.44C305.32 497.44 309.99 492.77 309.99 487.01C309.99 481.25 305.32 476.58 299.56 476.58C293.8 476.58 289.13 481.25 289.13 487.01C289.13 492.77 293.8 497.44 299.56 497.44Z" fill="#E8E8E8"/>
<path d="M390.45 497.44C396.21 497.44 400.88 492.77 400.88 487.01C400.88 481.25 396.21 476.58 390.45 476.58C384.689 476.58 380.02 481.25 380.02 487.01C380.02 492.77 384.689 497.44 390.45 497.44Z" fill="#E8E8E8"/>
<path d="M299.56 537.37C305.32 537.37 309.99 532.7 309.99 526.94C309.99 521.18 305.32 516.51 299.56 516.51C293.8 516.51 289.13 521.18 289.13 526.94C289.13 532.7 293.8 537.37 299.56 537.37Z" fill="#E8E8E8"/>
<path d="M390.45 537.37C396.21 537.37 400.88 532.7 400.88 526.94C400.88 521.18 396.21 516.51 390.45 516.51C384.689 516.51 380.02 521.18 380.02 526.94C380.02 532.7 384.689 537.37 390.45 537.37Z" fill="#E8E8E8"/>
<path d="M495.69 570.16C456.6 576.91 407.08 582.25 351.75 582.35C295.08 582.45 245.74 576.88 205.99 570.02C205.99 565 206.79 560.37 206.79 555.34C247.06 561.9 295.53 566.69 351.75 566.59C406.65 566.5 454.85 561.39 494.44 554.94C494.44 559.96 495.69 565.14 495.69 570.16Z" fill="#E8E8E8"/>
<path d="M436.01 447.51L468.7 492.8C475.86 502.72 491.3 502.13 503.01 491.5L505.16 489.55C516.87 478.92 520.6 462.11 513.45 452.19L480.76 406.9C473.6 396.98 458.16 397.57 446.45 408.2L444.3 410.15C432.59 420.78 428.86 437.59 436.01 447.51Z" fill="white"/>
<path d="M436.01 447.51L468.7 492.8C475.86 502.72 491.3 502.13 503.01 491.5L505.16 489.55C516.87 478.92 520.6 462.11 513.45 452.19L480.76 406.9C473.6 396.98 458.16 397.57 446.45 408.2L444.3 410.15C432.59 420.78 428.86 437.59 436.01 447.51Z" stroke="white" stroke-miterlimit="10"/>
<path d="M516.86 463.7C526.32 473.72 522.52 494.6 508.84 502.37C496.66 509.29 478.36 504.82 473.17 492.23C468.34 480.52 476.95 466.85 487.45 461.3C496.23 456.65 509.57 455.98 516.86 463.7Z" fill="#457DB1"/>
<path d="M265.35 405.87L287.67 457.07C292.56 468.28 284.19 481.27 269.07 485.93L266.3 486.79C251.19 491.45 234.82 486.1 229.93 474.89L207.61 423.69C202.72 412.48 211.09 399.49 226.21 394.83L228.98 393.97C244.09 389.31 260.46 394.66 265.35 405.87Z" fill="white"/>
<path d="M265.35 405.87L287.67 457.07C292.56 468.28 284.19 481.27 269.07 485.93L266.3 486.79C251.19 491.45 234.82 486.1 229.93 474.89L207.61 423.69C202.72 412.48 211.09 399.49 226.21 394.83L228.98 393.97C244.09 389.31 260.46 394.66 265.35 405.87Z" stroke="white" stroke-miterlimit="10"/>
<path d="M231.19 468.04C234.99 481.28 254.9 488.66 268.55 480.84C280.71 473.88 286.18 455.86 277.99 444.98C270.37 434.86 254.23 435.31 244.1 441.51C235.63 446.7 228.25 457.83 231.18 468.04H231.19Z" fill="#457DB1"/>
<path d="M559.32 234.03C559.32 219.57 570.79 207.23 586.94 202.35C591.66 187.67 608.53 176.81 628.61 176.81C652.35 176.81 671.6 191.99 671.6 210.72C671.6 211.6 671.56 212.48 671.47 213.35C686.96 218.48 697.85 230.55 697.85 244.64C697.85 263.37 678.6 278.55 654.86 278.55C651.35 278.55 647.94 278.22 644.68 277.59C636.79 284.93 625.03 289.59 611.87 289.59C588.13 289.59 568.88 274.41 568.88 255.68C568.88 255.57 568.88 255.47 568.88 255.36C562.9 249.53 559.32 242.12 559.32 234.04V234.03Z" fill="#E2E2E2"/>
<path d="M561.98 497.7C573.645 497.7 583.1 488.244 583.1 476.58C583.1 464.916 573.645 455.46 561.98 455.46C550.316 455.46 540.86 464.916 540.86 476.58C540.86 488.244 550.316 497.7 561.98 497.7Z" fill="#E2E2E2"/>
<path d="M147.17 479.88C158.834 479.88 168.29 470.424 168.29 458.76C168.29 447.096 158.834 437.64 147.17 437.64C135.506 437.64 126.05 447.096 126.05 458.76C126.05 470.424 135.506 479.88 147.17 479.88Z" fill="#E2E2E2"/>
<path d="M104.12 386.09C122.864 386.09 138.06 376.634 138.06 364.97C138.06 353.306 122.864 343.85 104.12 343.85C85.3751 343.85 70.1797 353.306 70.1797 364.97C70.1797 376.634 85.3751 386.09 104.12 386.09Z" fill="#E2E2E2"/>
<path d="M0 260.11C0 243.5 19.07 230.03 42.6 230.03C64.45 230.03 82.44 241.64 84.91 256.6C104.38 258.98 119.04 269.38 119.04 281.86C119.04 296.09 99.96 307.63 76.43 307.63C57.5 307.63 41.46 300.16 35.91 289.83C15.56 287.55 0 275.12 0 260.11Z" fill="#E2E2E2"/>
<path d="M532.07 366.82C532.07 350.21 551.14 336.74 574.67 336.74C596.52 336.74 614.51 348.35 616.98 363.31C636.45 365.69 651.11 376.09 651.11 388.57C651.11 402.8 632.03 414.34 608.5 414.34C589.57 414.34 573.53 406.87 567.98 396.54C547.63 394.27 532.07 381.84 532.07 366.83V366.82Z" fill="#E2E2E2"/>
<path d="M145.73 624.52H92.3604C85.7329 624.52 80.3604 629.892 80.3604 636.52V685.68C80.3604 692.307 85.7329 697.68 92.3604 697.68H145.73C152.358 697.68 157.73 692.307 157.73 685.68V636.52C157.73 629.892 152.358 624.52 145.73 624.52Z" fill="#A73231"/>
<path d="M611.91 624.52H558.54C551.913 624.52 546.54 629.892 546.54 636.52V685.68C546.54 692.307 551.913 697.68 558.54 697.68H611.91C618.537 697.68 623.91 692.307 623.91 685.68V636.52C623.91 629.892 618.537 624.52 611.91 624.52Z" fill="#A73231"/>
<path d="M112.42 566.59H591.59V777.64C591.59 830.81 548.43 873.97 495.26 873.97H208.75C155.58 873.97 112.42 830.81 112.42 777.64V566.59Z" fill="#D65251"/>
<path d="M591.59 566.59H112.42V594.19H591.59V566.59Z" fill="white"/>
<path d="M475.3 492.54C455.52 492.54 437.94 485.82 431.64 465.42L425.62 445.96C424.54 442.46 427.15 438.92 430.81 438.92H519.79C523.45 438.92 526.06 442.46 524.98 445.96L518.96 465.42C512.65 485.82 495.08 492.54 475.3 492.54Z" fill="#ECECEB" stroke="#B1B1B1" stroke-width="2" stroke-miterlimit="10"/>
<g opacity="0.08">
<mask id="mask0_1820_16422" style="mask-type:luminance" maskUnits="userSpaceOnUse" x="425" y="438" width="101" height="55">
<path d="M475.369 492.61C455.589 492.61 438.009 485.89 431.709 465.49L425.689 446.03C424.609 442.53 427.219 438.99 430.879 438.99H519.859C523.519 438.99 526.129 442.53 525.049 446.03L519.029 465.49C512.719 485.89 495.149 492.61 475.369 492.61Z" fill="white"/>
</mask>
<g mask="url(#mask0_1820_16422)">
<path d="M518.619 447.1C510.589 470.99 490.379 490.42 466.199 497.49C486.169 497.78 504.929 488.7 522.829 479.82C528.469 477.02 534.359 474.02 537.939 468.83C542.249 462.58 542.359 454.45 542.299 446.87C542.269 442.62 542.019 437.84 538.879 434.97C535.329 431.73 529.419 432.56 525.619 435.51C521.819 438.46 519.619 442.96 517.549 447.29" fill="#6B6B6B"/>
</g>
</g>
<path d="M475.37 466.78C447.81 466.78 425.39 454.55 425.39 439.52C425.39 424.49 447.81 412.26 475.37 412.26C502.93 412.26 525.36 424.49 525.36 439.52C525.36 454.55 502.94 466.78 475.37 466.78Z" fill="white"/>
<path d="M475.37 413.26C488.66 413.26 501.11 416.11 510.45 421.29C519.42 426.26 524.35 432.73 524.35 439.52C524.35 446.31 519.41 452.78 510.45 457.75C501.11 462.93 488.65 465.78 475.37 465.78C462.09 465.78 449.63 462.93 440.29 457.75C431.32 452.78 426.39 446.31 426.39 439.52C426.39 432.73 431.33 426.26 440.29 421.29C449.63 416.11 462.09 413.26 475.37 413.26ZM475.37 411.26C447.21 411.26 424.38 423.91 424.38 439.52C424.38 455.13 447.21 467.78 475.37 467.78C503.53 467.78 526.35 455.13 526.35 439.52C526.35 423.91 503.52 411.26 475.37 411.26Z" fill="#B1B1B1"/>
<path d="M475.37 464.99C448.72 464.99 427.04 453.69 427.04 439.8C427.04 425.91 449.13 414.06 475.27 414.06C501.41 414.06 523.69 425.85 523.69 439.8C523.69 453.75 502.01 464.99 475.36 464.99H475.37Z" fill="#DADADA"/>
<path d="M475.27 414.55C501.25 414.55 523.19 426.11 523.19 439.79C523.19 453.47 501.74 464.48 475.36 464.48C448.98 464.48 427.53 453.4 427.53 439.79C427.53 426.18 449.39 414.55 475.26 414.55M475.27 413.55C448.3 413.55 426.54 425.61 426.54 439.79C426.54 453.97 448.4 465.48 475.37 465.48C502.34 465.48 524.2 453.98 524.2 439.79C524.2 425.6 502.25 413.55 475.28 413.55H475.27Z" fill="#B1B1B1"/>
<path d="M475.27 421.71C496.74 421.66 518.64 431.58 522.85 443.64C523.32 442.31 523.41 440.78 523.27 438.96C522.24 425.69 500.39 414.55 475.22 414.76C450.05 414.97 428.65 425.2 427.48 438.93C427.28 441.29 427.79 443.41 428.26 444.81C432.38 432.63 454.1 421.75 475.27 421.7V421.71Z" fill="#D0D0D0"/>
<path d="M521.24 271.58C523.72 263.05 525.03 254.22 525.03 245.16C525.03 174.43 445.51 117.1 347.42 117.1C249.33 117.1 169.81 174.44 169.81 245.16C169.81 254.22 171.12 263.05 173.6 271.58C162.57 283.65 155.94 299.12 155.94 315.98C158.06 329.69 163.46 348.66 178.62 365.37C210.95 400.98 265.08 401.44 350.37 401.01C433.86 400.59 485.01 399.64 516.23 365.37C531.62 348.47 536.88 329.28 538.91 315.98C538.91 299.11 532.28 283.65 521.25 271.58H521.24Z" fill="#457DB1"/>
<path d="M497.67 277.7C496.85 276.55 495.95 275.42 495.02 274.31C496.14 268.23 496.75 261.92 496.75 255.44C496.75 207.46 464.38 168.56 424.44 168.56C393.72 168.56 367.48 191.58 357 224.04C355.99 227.17 352.67 229.31 348.96 229.26C347.88 229.25 346.79 229.24 345.71 229.23C342.06 229.22 338.83 227.1 337.83 224.02C327.35 191.57 301.11 168.56 270.4 168.56C230.46 168.56 198.09 207.46 198.09 255.44C198.09 261.78 198.67 267.96 199.75 273.92C199.09 274.74 198.44 275.56 197.83 276.4C194.17 281.47 181.96 298.37 185.43 318.93C189.59 343.52 213.63 358.25 221.86 363.29C238.04 373.2 257.36 379.35 338.49 379.84C443.41 380.47 464.34 370.51 477.41 361.46C484.43 356.6 506.65 341.22 509.68 317.1C512.09 297.91 501.17 282.6 497.67 277.7Z" fill="white"/>
<path d="M366.131 295.94L353.651 300.79C349.851 302.27 345.641 302.25 341.861 300.75L329.901 296.01C324.701 293.95 323.961 286.89 328.631 283.8L339.011 276.93C344.591 273.24 351.841 273.26 357.391 276.98L367.481 283.73C372.131 286.85 371.351 293.91 366.141 295.94H366.131Z" fill="#FFCC3B"/>
<path d="M394.593 278.507C396.927 275.89 395.858 271.128 392.205 267.871C388.553 264.615 383.7 264.097 381.366 266.715C379.033 269.333 380.101 274.094 383.754 277.351C387.406 280.607 392.259 281.125 394.593 278.507Z" fill="#262727"/>
<path d="M311.19 277.649C314.842 274.393 315.911 269.631 313.577 267.013C311.243 264.396 306.39 264.914 302.738 268.17C299.086 271.426 298.017 276.188 300.351 278.806C302.685 281.423 307.538 280.906 311.19 277.649Z" fill="#262727"/>
<path d="M333.091 289.03C337.081 289.74 341.811 290.3 347.131 290.37C353.441 290.45 358.961 289.84 363.481 289.03" stroke="#D7A338" stroke-width="3.58" stroke-miterlimit="10" stroke-linecap="round"/>
<path d="M376.5 240.84C379.75 244.31 384.94 249.02 392.37 252.88C402.13 257.95 411.15 259.15 416.45 259.45" stroke="#474747" stroke-width="4.78" stroke-miterlimit="10" stroke-linecap="round"/>
<path d="M321.44 240.84C318.19 244.31 313 249.02 305.57 252.88C295.81 257.95 286.79 259.15 281.49 259.45" stroke="#474747" stroke-width="4.78" stroke-miterlimit="10" stroke-linecap="round"/>
<path d="M400.49 19C395.05 19 389.88 20.1898 385.24 22.3398C378.19 9.04984 364.29 0 348.3 0C332.31 0 318.56 8.94987 311.47 22.1199C306.95 20.1099 301.95 18.99 296.69 18.99C276.39 18.99 259.94 44.8298 259.94 65.3098C259.94 85.7898 276.39 102.38 296.69 102.38C308.79 102.38 319.53 96.4799 326.23 87.3699C332.64 91.3899 340.2 93.71 348.31 93.71C356.42 93.71 364.29 91.2899 370.78 87.1199C377.46 96.3699 388.28 102.38 400.5 102.38C420.8 102.38 437.25 85.7798 437.25 65.3098C437.25 44.8398 420.8 18.99 400.5 18.99L400.49 19Z" fill="white"/>
<path d="M400.901 133.12C393.691 128.37 375.331 125.98 348.691 125.88C321.581 125.77 302.871 128.38 295.671 133.12C294.181 116.9 292.601 107.92 290.931 89.7099C302.271 84.4799 321.831 77.4298 347.371 77.2698C373.891 77.0998 394.161 84.4199 405.651 89.7099C403.971 107.91 402.381 116.89 400.891 133.12H400.901Z" fill="white"/>
<g opacity="0.8">
<path d="M386.451 33.51C387.171 39.02 387.481 46.7898 385.501 55.8298C383.111 66.7598 378.371 75.0798 374.761 80.3298" fill="white"/>
<path d="M386.451 33.51C391.471 49.56 386.511 68.3998 374.761 80.3298C378.081 72.8098 381.131 65.4298 383.111 57.5298C385.151 49.6398 385.991 41.72 386.451 33.51Z" fill="#DADADA"/>
</g>
<g opacity="0.8">
<path d="M310.37 34.22C309.65 39.73 309.341 47.4998 311.321 56.5398C313.711 67.4698 318.45 75.7898 322.06 81.0398" fill="white"/>
<path d="M310.371 34.22C310.831 42.43 311.671 50.35 313.711 58.24C315.691 66.14 318.741 73.5198 322.061 81.0398C310.311 69.1198 305.351 50.28 310.371 34.22Z" fill="#DADADA"/>
</g>
<g opacity="0.8">
<path d="M299.271 101.05C328.261 84.5398 366.041 84.5098 395.031 101.05C387.341 97.9798 379.481 95.5298 371.471 93.8798C347.331 88.7598 322.061 91.7298 299.271 101.05Z" fill="#D7D7D7"/>
</g>
<path d="M343.16 428.3C329.37 425.29 313.9 432.23 297.27 425.69C282.01 419.69 268.35 412.92 256.4 406.14C255.53 404.04 254.02 399.7 253.97 393.88C253.92 387.72 255.53 383.12 256.4 381.01C285.32 392.18 314.24 391.99 343.17 403.16V428.29L343.16 428.3Z" fill="#FF4848"/>
<path d="M355.53 428.3C369.32 425.29 384.79 432.23 401.42 425.69C416.68 419.69 430.34 412.92 442.29 406.14C443.16 404.04 444.67 399.7 444.72 393.88C444.77 387.72 443.16 383.12 442.29 381.01C413.37 392.18 384.45 391.99 355.52 403.16V428.29L355.53 428.3Z" fill="#FF4848"/>
<path d="M355.24 436.38H339.6C335.23 436.38 331.84 432.57 332.35 428.23L335.03 405.51C335.46 401.83 338.58 399.06 342.28 399.06H352.57C356.27 399.06 359.39 401.83 359.82 405.51L362.5 428.23C363.01 432.57 359.62 436.38 355.25 436.38H355.24Z" fill="#EA4949"/>
<path d="M340.49 434.89H353.78C357.68 434.89 361.08 437.57 361.98 441.37L368.78 469.95C369.35 472.34 369.06 474.86 367.95 477.05L354.43 503.91C351.34 510.04 342.54 509.88 339.67 503.65L327.5 477.15C326.6 475.19 326.33 472.99 326.73 470.87L332.2 441.76C332.95 437.78 336.43 434.89 340.48 434.89H340.49Z" fill="#FF4848"/>
<path d="M340.55 528.2C342.81 541.1 319.49 560.4 296.15 560.1C273.61 559.81 251.04 541.23 253.24 528.38C255.41 515.71 281.46 509.86 298.62 510.23C313.69 510.55 338.42 516.04 340.55 528.2Z" fill="#AFB2BC"/>
<path d="M252.57 529.99H264.72V378.3H252.57L252.57 529.99Z" fill="#AFB2BC"/>
<path d="M258.859 528.89C259.409 535.66 283.309 538.33 297.169 538.32C310.839 538.31 334.939 535.66 335.479 528.89C335.989 522.52 315.659 512.37 295.899 512.77C277.479 513.14 258.369 522.68 258.869 528.89H258.859Z" fill="#9AA1A5"/>
<path d="M258.65 420.07H258.66C263.829 420.07 268.02 415.879 268.02 410.71V384.48C268.02 379.31 263.829 375.12 258.66 375.12H258.65C253.48 375.12 249.29 379.31 249.29 384.48V410.71C249.29 415.879 253.48 420.07 258.65 420.07Z" fill="#B23232"/>
</svg>
