<svg width="698" height="874" viewBox="0 0 698 874" fill="none" xmlns="http://www.w3.org/2000/svg">
<path d="M319.2 685.85C307.87 691.38 296.34 691.61 288.7 690.93C281.97 691.14 271.41 690.52 260.94 685.46C254.79 682.49 251.67 679.44 250.14 677.75C248.46 675.91 245.16 672.2 243.79 666.39C243.38 664.65 243.16 662.83 243.16 660.96C243.16 647.89 253.86 637.19 266.93 637.19H311.83C324.9 637.19 335.6 647.89 335.6 660.96C335.55 664.16 334.97 671.54 329.76 678.03C328.69 679.37 325.86 682.61 319.2 685.85Z" fill="#7F7F7F"/>
<path d="M450.05 685.85C438.72 691.38 427.19 691.61 419.55 690.93C412.82 691.14 402.26 690.52 391.79 685.46C385.64 682.49 382.52 679.44 380.99 677.75C379.31 675.91 376.01 672.2 374.64 666.39C374.23 664.65 374.01 662.83 374.01 660.96C374.01 647.89 384.71 637.19 397.78 637.19H442.68C455.75 637.19 466.45 647.89 466.45 660.96C466.4 664.16 465.82 671.54 460.61 678.03C459.54 679.37 456.71 682.61 450.05 685.85Z" fill="#7F7F7F"/>
<path d="M471.3 653.59H230.19C214.37 653.59 201.83 640.25 202.8 624.47L213.58 449.43C215.91 411.55 247.32 382.02 285.27 382.02H416.2C454.15 382.02 485.56 411.55 487.89 449.43L498.67 624.47C499.64 640.26 487.1 653.59 471.28 653.59H471.3Z" fill="white"/>
<path d="M299.56 460.55C305.32 460.55 309.99 455.88 309.99 450.12C309.99 444.36 305.32 439.69 299.56 439.69C293.799 439.69 289.13 444.36 289.13 450.12C289.13 455.88 293.799 460.55 299.56 460.55Z" fill="#E8E8E8"/>
<path d="M390.449 460.55C396.21 460.55 400.88 455.88 400.88 450.12C400.88 444.36 396.21 439.69 390.449 439.69C384.689 439.69 380.02 444.36 380.02 450.12C380.02 455.88 384.689 460.55 390.449 460.55Z" fill="#E8E8E8"/>
<path d="M299.56 497.44C305.32 497.44 309.99 492.77 309.99 487.01C309.99 481.25 305.32 476.58 299.56 476.58C293.799 476.58 289.13 481.25 289.13 487.01C289.13 492.77 293.799 497.44 299.56 497.44Z" fill="#E8E8E8"/>
<path d="M390.449 497.44C396.21 497.44 400.88 492.77 400.88 487.01C400.88 481.25 396.21 476.58 390.449 476.58C384.689 476.58 380.02 481.25 380.02 487.01C380.02 492.77 384.689 497.44 390.449 497.44Z" fill="#E8E8E8"/>
<path d="M299.56 537.37C305.32 537.37 309.99 532.7 309.99 526.94C309.99 521.18 305.32 516.51 299.56 516.51C293.799 516.51 289.13 521.18 289.13 526.94C289.13 532.7 293.799 537.37 299.56 537.37Z" fill="#E8E8E8"/>
<path d="M390.449 537.37C396.21 537.37 400.88 532.7 400.88 526.94C400.88 521.18 396.21 516.51 390.449 516.51C384.689 516.51 380.02 521.18 380.02 526.94C380.02 532.7 384.689 537.37 390.449 537.37Z" fill="#E8E8E8"/>
<path d="M495.69 570.16C456.6 576.91 407.08 582.25 351.75 582.35C295.08 582.45 245.74 576.88 205.99 570.02C205.99 565 206.79 560.37 206.79 555.34C247.06 561.9 295.53 566.69 351.75 566.59C406.65 566.5 454.85 561.39 494.44 554.94C494.44 559.96 495.69 565.14 495.69 570.16Z" fill="#E8E8E8"/>
<path d="M559.32 234.03C559.32 219.57 570.79 207.23 586.94 202.35C591.66 187.67 608.53 176.81 628.61 176.81C652.35 176.81 671.6 191.99 671.6 210.72C671.6 211.6 671.56 212.48 671.47 213.35C686.96 218.48 697.85 230.55 697.85 244.64C697.85 263.37 678.6 278.55 654.86 278.55C651.35 278.55 647.94 278.22 644.68 277.59C636.79 284.93 625.03 289.59 611.87 289.59C588.13 289.59 568.88 274.41 568.88 255.68C568.88 255.57 568.88 255.47 568.88 255.36C562.9 249.53 559.32 242.12 559.32 234.04V234.03Z" fill="#E2E2E2"/>
<path d="M561.98 497.7C573.645 497.7 583.1 488.244 583.1 476.58C583.1 464.916 573.645 455.46 561.98 455.46C550.316 455.46 540.86 464.916 540.86 476.58C540.86 488.244 550.316 497.7 561.98 497.7Z" fill="#E2E2E2"/>
<path d="M147.18 479.88C158.844 479.88 168.3 470.424 168.3 458.76C168.3 447.096 158.844 437.64 147.18 437.64C135.515 437.64 126.06 447.096 126.06 458.76C126.06 470.424 135.515 479.88 147.18 479.88Z" fill="#E2E2E2"/>
<path d="M104.12 386.09C122.864 386.09 138.06 376.634 138.06 364.97C138.06 353.306 122.864 343.85 104.12 343.85C85.3751 343.85 70.1797 353.306 70.1797 364.97C70.1797 376.634 85.3751 386.09 104.12 386.09Z" fill="#E2E2E2"/>
<path d="M0 260.11C0 243.5 19.07 230.03 42.6 230.03C64.45 230.03 82.44 241.64 84.91 256.6C104.38 258.98 119.04 269.38 119.04 281.86C119.04 296.09 99.9601 307.63 76.4301 307.63C57.5001 307.63 41.46 300.16 35.91 289.83C15.56 287.56 0 275.13 0 260.12V260.11Z" fill="#E2E2E2"/>
<path d="M532.07 366.82C532.07 350.21 551.14 336.74 574.67 336.74C596.52 336.74 614.51 348.35 616.98 363.31C636.45 365.69 651.11 376.09 651.11 388.57C651.11 402.8 632.03 414.34 608.5 414.34C589.57 414.34 573.53 406.87 567.98 396.54C547.63 394.27 532.07 381.84 532.07 366.83V366.82Z" fill="#E2E2E2"/>
<path d="M145.73 624.52H92.3604C85.7329 624.52 80.3604 629.892 80.3604 636.52V685.68C80.3604 692.307 85.7329 697.68 92.3604 697.68H145.73C152.358 697.68 157.73 692.307 157.73 685.68V636.52C157.73 629.892 152.358 624.52 145.73 624.52Z" fill="#A73231"/>
<path d="M611.91 624.52H558.54C551.913 624.52 546.54 629.892 546.54 636.52V685.68C546.54 692.307 551.913 697.68 558.54 697.68H611.91C618.537 697.68 623.91 692.307 623.91 685.68V636.52C623.91 629.892 618.537 624.52 611.91 624.52Z" fill="#A73231"/>
<path d="M112.42 566.59H591.59V777.64C591.59 830.81 548.43 873.97 495.26 873.97H208.75C155.58 873.97 112.42 830.81 112.42 777.64V566.59Z" fill="#D65251"/>
<path d="M591.59 566.59H112.42V594.19H591.59V566.59Z" fill="white"/>
<path d="M425.91 418L357.57 514.86C342.61 536.07 344.09 560.92 360.87 570.09L363.95 571.77C380.73 580.94 406.7 571.09 421.66 549.89L490 453.03C504.96 431.82 503.48 406.97 486.7 397.8L483.62 396.12C466.84 386.95 440.87 396.8 425.91 418Z" fill="white"/>
<path d="M425.91 418L357.57 514.86C342.61 536.07 344.09 560.92 360.87 570.09L363.95 571.77C380.73 580.94 406.7 571.09 421.66 549.89L490 453.03C504.96 431.82 503.48 406.97 486.7 397.8L483.62 396.12C466.84 386.95 440.87 396.8 425.91 418Z" stroke="white" stroke-miterlimit="10"/>
<path d="M406.68 562.13C399.37 577.96 373.45 584.15 358.23 572.46C344.68 562.04 341.53 538.92 353.76 526.66C365.13 515.26 384.88 518.2 396.09 527.37C405.47 535.05 412.32 549.92 406.68 562.13Z" fill="#457DB1"/>
<path d="M351.69 573.88C331.91 573.88 314.33 567.16 308.03 546.76L302.01 527.3C300.93 523.8 303.54 520.26 307.2 520.26H396.18C399.84 520.26 402.45 523.8 401.37 527.3L395.35 546.76C389.04 567.16 371.47 573.88 351.69 573.88Z" fill="#ECECEB" stroke="#B1B1B1" stroke-width="2" stroke-miterlimit="10"/>
<g opacity="0.08">
<mask id="mask0_1820_16498" style="mask-type:luminance" maskUnits="userSpaceOnUse" x="301" y="520" width="101" height="54">
<path d="M351.76 573.95C331.98 573.95 314.4 567.23 308.1 546.83L302.08 527.37C301 523.87 303.61 520.33 307.27 520.33H396.25C399.91 520.33 402.52 523.87 401.44 527.37L395.42 546.83C389.11 567.23 371.54 573.95 351.76 573.95Z" fill="white"/>
</mask>
<g mask="url(#mask0_1820_16498)">
<path d="M395.01 528.45C386.98 552.34 366.77 571.77 342.59 578.84C362.56 579.13 381.32 570.05 399.22 561.17C404.86 558.37 410.75 555.37 414.33 550.18C418.64 543.93 418.75 535.8 418.69 528.22C418.66 523.97 418.41 519.19 415.27 516.32C411.72 513.08 405.81 513.91 402.01 516.86C398.21 519.81 396.01 524.31 393.94 528.64" fill="#6B6B6B"/>
</g>
</g>
<path d="M351.76 548.12C324.2 548.12 301.771 535.89 301.771 520.86C301.771 505.83 324.19 493.6 351.76 493.6C379.33 493.6 401.74 505.83 401.74 520.86C401.74 535.89 379.32 548.12 351.76 548.12Z" fill="white"/>
<path d="M351.76 494.61C365.05 494.61 377.5 497.46 386.84 502.64C395.81 507.61 400.74 514.08 400.74 520.87C400.74 527.66 395.8 534.13 386.84 539.1C377.5 544.28 365.04 547.13 351.76 547.13C338.48 547.13 326.02 544.28 316.68 539.1C307.71 534.13 302.78 527.66 302.78 520.87C302.78 514.08 307.72 507.61 316.68 502.64C326.02 497.46 338.48 494.61 351.76 494.61ZM351.76 492.61C323.6 492.61 300.78 505.26 300.78 520.87C300.78 536.48 323.61 549.13 351.76 549.13C379.91 549.13 402.74 536.48 402.74 520.87C402.74 505.26 379.91 492.61 351.76 492.61Z" fill="#B1B1B1"/>
<path d="M351.761 546.33C325.111 546.33 303.431 535.03 303.431 521.14C303.431 507.25 325.521 495.4 351.661 495.4C377.801 495.4 400.081 507.19 400.081 521.14C400.081 535.09 378.401 546.33 351.751 546.33H351.761Z" fill="#DADADA"/>
<path d="M351.661 495.9C377.641 495.9 399.581 507.46 399.581 521.14C399.581 534.82 378.131 545.83 351.751 545.83C325.371 545.83 303.921 534.75 303.921 521.14C303.921 507.53 325.781 495.9 351.651 495.9M351.661 494.9C324.691 494.9 302.931 506.96 302.931 521.14C302.931 535.32 324.791 546.83 351.761 546.83C378.731 546.83 400.591 535.33 400.591 521.14C400.591 506.95 378.641 494.9 351.671 494.9H351.661Z" fill="#B1B1B1"/>
<path d="M351.66 503.06C373.13 503.01 395.03 512.93 399.24 524.99C399.71 523.66 399.8 522.13 399.66 520.31C398.63 507.04 376.78 495.9 351.61 496.11C326.44 496.32 305.04 506.55 303.87 520.28C303.67 522.64 304.18 524.76 304.65 526.16C308.77 513.98 330.49 503.1 351.66 503.05V503.06Z" fill="#D0D0D0"/>
<path d="M524.27 271.58C526.75 263.05 528.06 254.22 528.06 245.16C528.06 174.43 448.54 117.1 350.45 117.1C252.36 117.1 172.84 174.44 172.84 245.16C172.84 254.22 174.15 263.05 176.63 271.58C165.6 283.65 158.97 299.12 158.97 315.98C161.09 329.69 166.49 348.66 181.65 365.37C213.98 400.98 268.11 401.44 353.4 401.01C436.89 400.59 488.04 399.64 519.26 365.37C534.65 348.47 539.91 329.28 541.94 315.98C541.94 299.11 535.31 283.65 524.28 271.58H524.27Z" fill="#457DB1"/>
<path d="M500.7 277.7C499.88 276.55 498.98 275.42 498.05 274.31C499.17 268.23 499.78 261.92 499.78 255.44C499.78 207.46 467.41 168.56 427.47 168.56C396.75 168.56 370.51 191.58 360.03 224.04C359.02 227.17 355.7 229.31 351.99 229.26C350.91 229.25 349.82 229.24 348.74 229.23C345.09 229.22 341.86 227.1 340.86 224.02C330.38 191.57 304.14 168.56 273.43 168.56C233.49 168.56 201.12 207.46 201.12 255.44C201.12 261.78 201.7 267.96 202.78 273.92C202.12 274.74 201.47 275.56 200.86 276.4C197.2 281.47 184.99 298.37 188.46 318.93C192.62 343.52 216.66 358.25 224.89 363.29C241.07 373.2 260.39 379.35 341.52 379.84C446.44 380.47 467.37 370.51 480.44 361.46C487.46 356.6 509.68 341.22 512.71 317.1C515.12 297.91 504.2 282.6 500.7 277.7Z" fill="white"/>
<path d="M369.16 295.94L356.68 300.79C352.88 302.27 348.67 302.25 344.89 300.75L332.93 296.01C327.73 293.95 326.99 286.89 331.66 283.8L342.04 276.93C347.62 273.24 354.87 273.26 360.42 276.98L370.51 283.73C375.16 286.85 374.38 293.91 369.17 295.94H369.16Z" fill="#FFCC3B"/>
<path d="M397.572 278.452C399.906 275.834 398.837 271.072 395.185 267.816C391.533 264.559 386.68 264.042 384.346 266.659C382.012 269.277 383.081 274.039 386.733 277.295C390.386 280.551 395.238 281.069 397.572 278.452Z" fill="#262727"/>
<path d="M314.267 277.706C317.919 274.449 318.988 269.688 316.654 267.07C314.32 264.452 309.468 264.97 305.815 268.227C302.163 271.483 301.094 276.245 303.428 278.862C305.762 281.48 310.615 280.962 314.267 277.706Z" fill="#262727"/>
<path d="M336.12 289.03C340.11 289.74 344.84 290.3 350.16 290.37C356.47 290.45 361.99 289.84 366.51 289.03" stroke="#D7A338" stroke-width="3.58" stroke-miterlimit="10" stroke-linecap="round"/>
<path d="M379.529 240.84C382.779 244.31 387.969 249.02 395.399 252.88C405.159 257.95 414.179 259.15 419.479 259.45" stroke="#474747" stroke-width="4.78" stroke-miterlimit="10" stroke-linecap="round"/>
<path d="M324.469 240.84C321.219 244.31 316.029 249.02 308.599 252.88C298.839 257.95 289.82 259.15 284.52 259.45" stroke="#474747" stroke-width="4.78" stroke-miterlimit="10" stroke-linecap="round"/>
<path d="M403.53 19C398.09 19 392.92 20.1898 388.28 22.3398C381.23 9.04984 367.329 0 351.339 0C335.349 0 321.6 8.94987 314.51 22.1199C309.99 20.1099 304.989 18.99 299.729 18.99C279.429 18.99 262.979 44.8298 262.979 65.3098C262.979 85.7898 279.429 102.38 299.729 102.38C311.829 102.38 322.57 96.4799 329.27 87.3699C335.68 91.3899 343.239 93.71 351.349 93.71C359.459 93.71 367.329 91.2899 373.819 87.1199C380.499 96.3699 391.32 102.38 403.54 102.38C423.84 102.38 440.29 85.7798 440.29 65.3098C440.29 44.8398 423.84 18.99 403.54 18.99L403.53 19Z" fill="white"/>
<path d="M403.929 133.12C396.719 128.37 378.359 125.98 351.719 125.88C324.609 125.77 305.899 128.38 298.699 133.12C297.209 116.9 295.629 107.92 293.959 89.7099C305.299 84.4799 324.859 77.4298 350.399 77.2698C376.919 77.0998 397.189 84.4199 408.679 89.7099C406.999 107.91 405.409 116.89 403.919 133.12H403.929Z" fill="white"/>
<g opacity="0.8">
<path d="M389.49 33.51C390.21 39.02 390.52 46.7898 388.54 55.8298C386.15 66.7598 381.41 75.0798 377.8 80.3298" fill="white"/>
<path d="M389.49 33.51C394.51 49.56 389.55 68.3998 377.8 80.3298C381.12 72.8098 384.17 65.4298 386.15 57.5298C388.19 49.6398 389.03 41.72 389.49 33.51Z" fill="#DADADA"/>
</g>
<g opacity="0.8">
<path d="M313.41 34.22C312.69 39.73 312.38 47.4998 314.36 56.5398C316.75 67.4698 321.49 75.7898 325.1 81.0398" fill="white"/>
<path d="M313.41 34.22C313.87 42.43 314.71 50.35 316.75 58.24C318.73 66.14 321.78 73.5198 325.1 81.0398C313.35 69.1198 308.39 50.28 313.41 34.22Z" fill="#DADADA"/>
</g>
<g opacity="0.8">
<path d="M302.31 101.05C331.3 84.5398 369.08 84.5098 398.07 101.05C390.38 97.9798 382.52 95.5298 374.51 93.8798C350.37 88.7598 325.1 91.7298 302.31 101.05Z" fill="#D7D7D7"/>
</g>
<path d="M355.54 428.3C369.33 425.29 384.8 432.23 401.43 425.69C416.69 419.69 430.35 412.92 442.3 406.14C443.17 404.04 444.68 399.7 444.73 393.88C444.78 387.72 443.17 383.12 442.3 381.01C413.38 392.18 384.46 391.99 355.53 403.16V428.29L355.54 428.3Z" fill="#FF4848"/>
<path d="M340.5 434.89H353.79C357.69 434.89 361.09 437.57 361.99 441.37L368.79 469.95C369.36 472.34 369.07 474.86 367.96 477.05L354.44 503.91C351.35 510.04 342.55 509.88 339.68 503.65L327.51 477.15C326.61 475.19 326.34 472.99 326.74 470.87L332.21 441.76C332.96 437.78 336.44 434.89 340.49 434.89H340.5Z" fill="#FF4848"/>
<path d="M355.24 436.38H339.6C335.23 436.38 331.84 432.57 332.35 428.23L335.03 405.51C335.46 401.83 338.58 399.06 342.28 399.06H352.57C356.27 399.06 359.39 401.83 359.82 405.51L362.5 428.23C363.01 432.57 359.62 436.38 355.25 436.38H355.24Z" fill="#EA4949"/>
<path d="M343.16 428.3C329.37 425.29 313.9 432.23 297.27 425.69C282.01 419.69 268.35 412.92 256.4 406.14C255.53 404.04 254.02 399.7 253.97 393.88C253.92 387.72 255.53 383.12 256.4 381.01C285.32 392.18 314.24 391.99 343.17 403.16V428.29L343.16 428.3Z" fill="#FF4848"/>
<path d="M256.38 380.7L340.86 403.75C359.36 408.8 370.71 425.43 366.09 440.71L365.24 443.51C360.62 458.79 341.71 467.17 323.21 462.12L238.73 439.07C220.23 434.02 208.88 417.39 213.5 402.11L214.35 399.31C218.97 384.03 237.88 375.65 256.38 380.7Z" fill="white"/>
<path d="M256.38 380.7L340.86 403.75C359.36 408.8 370.71 425.43 366.09 440.71L365.24 443.51C360.62 458.79 341.71 467.17 323.21 462.12L238.73 439.07C220.23 434.02 208.88 417.39 213.5 402.11L214.35 399.31C218.97 384.03 237.88 375.65 256.38 380.7Z" stroke="white" stroke-miterlimit="10"/>
<path d="M332.549 459.91C343.179 470.19 363.689 464.47 370.449 448.18C376.469 433.67 370.729 412.82 357.839 407.64C345.849 402.81 332.859 413.63 328.079 426.11C324.079 436.55 324.349 451.99 332.539 459.92L332.549 459.91Z" fill="#457DB1"/>
<path d="M293.17 498.68C280.08 498.23 266 471.43 271.11 448.66C276.04 426.66 298.88 408.41 311 413.21C322.95 417.95 323.3 444.64 319.4 461.36C315.97 476.04 305.51 499.1 293.17 498.68Z" fill="#AFB2BC"/>
<path d="M309.53 412.168L307.024 424.057L415.874 446.995L418.379 435.106L309.53 412.168Z" fill="#AFB2BC"/>
<path d="M309.34 418.61C302.6 417.75 295.06 440.59 292.21 454.15C289.4 467.53 287.02 491.66 293.54 493.58C299.67 495.39 313.79 477.59 317.48 458.17C320.92 440.07 315.52 419.4 309.34 418.61Z" fill="#9AA1A5"/>
<path d="M387.172 434.736L387.17 434.745C386.104 439.804 389.341 444.768 394.399 445.834L408.343 448.773C413.401 449.839 418.366 446.602 419.432 441.544L419.434 441.534C420.5 436.476 417.263 431.511 412.205 430.445L398.261 427.507C393.203 426.441 388.238 429.677 387.172 434.736Z" fill="#B23232"/>
</svg>
