<svg width="698" height="818" viewBox="0 0 698 818" fill="none" xmlns="http://www.w3.org/2000/svg">
<path d="M319.2 629.19C307.87 634.72 296.34 634.95 288.7 634.27C281.97 634.48 271.41 633.86 260.94 628.8C254.79 625.83 251.67 622.78 250.14 621.09C248.46 619.25 245.16 615.54 243.79 609.73C243.38 607.99 243.16 606.17 243.16 604.3C243.16 591.23 253.86 580.53 266.93 580.53H311.83C324.9 580.53 335.6 591.23 335.6 604.3C335.55 607.5 334.97 614.88 329.76 621.37C328.69 622.71 325.86 625.95 319.2 629.19Z" fill="#7F7F7F"/>
<path d="M450.05 629.19C438.72 634.72 427.19 634.95 419.55 634.27C412.82 634.48 402.26 633.86 391.79 628.8C385.64 625.83 382.52 622.78 380.99 621.09C379.31 619.25 376.01 615.54 374.64 609.73C374.23 607.99 374.01 606.17 374.01 604.3C374.01 591.23 384.71 580.53 397.78 580.53H442.68C455.75 580.53 466.45 591.23 466.45 604.3C466.4 607.5 465.82 614.88 460.61 621.37C459.54 622.71 456.71 625.95 450.05 629.19Z" fill="#7F7F7F"/>
<path d="M471.29 596.94H230.18C214.36 596.94 201.82 583.6 202.79 567.82L213.57 392.78C215.9 354.9 247.31 325.37 285.26 325.37H416.19C454.14 325.37 485.55 354.9 487.88 392.78L498.66 567.82C499.63 583.61 487.09 596.94 471.27 596.94H471.29Z" fill="white"/>
<path d="M343.16 371.65C329.37 368.64 313.9 375.58 297.27 369.04C282.01 363.04 268.35 356.27 256.4 349.49C255.53 347.39 254.02 343.05 253.97 337.23C253.92 331.07 255.53 326.47 256.4 324.36C285.32 335.53 314.24 335.34 343.17 346.51V371.64L343.16 371.65Z" fill="#FF4848"/>
<path d="M355.53 371.65C369.32 368.64 384.79 375.58 401.42 369.04C416.68 363.04 430.34 356.27 442.29 349.49C443.16 347.39 444.67 343.05 444.72 337.23C444.77 331.07 443.16 326.47 442.29 324.36C413.37 335.53 384.45 335.34 355.52 346.51V371.64L355.53 371.65Z" fill="#FF4848"/>
<path d="M355.24 379.72H339.6C335.23 379.72 331.84 375.91 332.35 371.57L335.03 348.85C335.46 345.17 338.58 342.4 342.28 342.4H352.57C356.27 342.4 359.39 345.17 359.82 348.85L362.5 371.57C363.01 375.91 359.62 379.72 355.25 379.72H355.24Z" fill="#EA4949"/>
<path d="M340.49 378.23H353.78C357.68 378.23 361.08 380.91 361.98 384.71L368.78 413.29C369.35 415.68 369.06 418.2 367.95 420.39L354.43 447.25C351.34 453.38 342.54 453.22 339.67 446.99L327.5 420.49C326.6 418.53 326.33 416.33 326.73 414.21L332.2 385.1C332.95 381.12 336.43 378.23 340.48 378.23H340.49Z" fill="#FF4848"/>
<path d="M299.56 403.9C305.32 403.9 309.99 399.23 309.99 393.47C309.99 387.71 305.32 383.04 299.56 383.04C293.8 383.04 289.13 387.71 289.13 393.47C289.13 399.23 293.8 403.9 299.56 403.9Z" fill="#E8E8E8"/>
<path d="M390.45 403.9C396.21 403.9 400.88 399.23 400.88 393.47C400.88 387.71 396.21 383.04 390.45 383.04C384.689 383.04 380.02 387.71 380.02 393.47C380.02 399.23 384.689 403.9 390.45 403.9Z" fill="#E8E8E8"/>
<path d="M299.56 440.79C305.32 440.79 309.99 436.12 309.99 430.36C309.99 424.599 305.32 419.93 299.56 419.93C293.8 419.93 289.13 424.599 289.13 430.36C289.13 436.12 293.8 440.79 299.56 440.79Z" fill="#E8E8E8"/>
<path d="M390.45 440.79C396.21 440.79 400.88 436.12 400.88 430.36C400.88 424.599 396.21 419.93 390.45 419.93C384.689 419.93 380.02 424.599 380.02 430.36C380.02 436.12 384.689 440.79 390.45 440.79Z" fill="#E8E8E8"/>
<path d="M299.56 480.72C305.32 480.72 309.99 476.05 309.99 470.29C309.99 464.53 305.32 459.86 299.56 459.86C293.8 459.86 289.13 464.53 289.13 470.29C289.13 476.05 293.8 480.72 299.56 480.72Z" fill="#E8E8E8"/>
<path d="M390.45 480.72C396.21 480.72 400.88 476.05 400.88 470.29C400.88 464.53 396.21 459.86 390.45 459.86C384.689 459.86 380.02 464.53 380.02 470.29C380.02 476.05 384.689 480.72 390.45 480.72Z" fill="#E8E8E8"/>
<path d="M495.69 513.51C456.6 520.26 407.08 525.6 351.75 525.7C295.08 525.8 245.74 520.23 205.99 513.37C205.99 508.35 206.79 503.72 206.79 498.69C247.06 505.25 295.53 510.04 351.75 509.94C406.65 509.85 454.85 504.74 494.44 498.29C494.44 503.31 495.69 508.49 495.69 513.51Z" fill="#E8E8E8"/>
<path d="M436.01 390.86L468.7 436.15C475.86 446.07 491.3 445.48 503.01 434.85L505.16 432.9C516.87 422.27 520.6 405.46 513.45 395.54L480.76 350.25C473.6 340.33 458.16 340.92 446.45 351.55L444.3 353.5C432.59 364.13 428.86 380.94 436.01 390.86Z" fill="white"/>
<path d="M436.01 390.86L468.7 436.15C475.86 446.07 491.3 445.48 503.01 434.85L505.16 432.9C516.87 422.27 520.6 405.46 513.45 395.54L480.76 350.25C473.6 340.33 458.16 340.92 446.45 351.55L444.3 353.5C432.59 364.13 428.86 380.94 436.01 390.86Z" stroke="white" stroke-miterlimit="10"/>
<path d="M516.86 407.05C526.32 417.07 522.52 437.95 508.84 445.72C496.66 452.64 478.36 448.17 473.17 435.58C468.34 423.87 476.95 410.2 487.45 404.65C496.23 400 509.57 399.33 516.86 407.05Z" fill="#F7F7F7"/>
<path d="M265.35 349.22L287.67 400.42C292.56 411.63 284.19 424.62 269.07 429.28L266.3 430.14C251.19 434.8 234.82 429.45 229.93 418.24L207.61 367.04C202.72 355.83 211.09 342.84 226.21 338.18L228.98 337.32C244.09 332.66 260.46 338.01 265.35 349.22Z" fill="white"/>
<path d="M265.35 349.22L287.67 400.42C292.56 411.63 284.19 424.62 269.07 429.28L266.3 430.14C251.19 434.8 234.82 429.45 229.93 418.24L207.61 367.04C202.72 355.83 211.09 342.84 226.21 338.18L228.98 337.32C244.09 332.66 260.46 338.01 265.35 349.22Z" stroke="white" stroke-miterlimit="10"/>
<path d="M231.19 411.38C234.99 424.62 254.9 432 268.55 424.18C280.71 417.22 286.18 399.2 277.99 388.32C270.37 378.2 254.23 378.65 244.1 384.85C235.63 390.04 228.25 401.17 231.18 411.38H231.19Z" fill="#F7F7F7"/>
<path d="M559.32 177.38C559.32 162.92 570.79 150.58 586.94 145.7C591.66 131.02 608.53 120.16 628.61 120.16C652.35 120.16 671.6 135.34 671.6 154.07C671.6 154.95 671.56 155.83 671.47 156.7C686.96 161.83 697.85 173.9 697.85 187.99C697.85 206.72 678.6 221.9 654.86 221.9C651.35 221.9 647.94 221.57 644.68 220.94C636.79 228.28 625.03 232.94 611.87 232.94C588.13 232.94 568.88 217.76 568.88 199.03C568.88 198.92 568.88 198.82 568.88 198.71C562.9 192.88 559.32 185.47 559.32 177.39V177.38Z" fill="#E2E2E2"/>
<path d="M561.98 441.05C573.645 441.05 583.1 431.594 583.1 419.93C583.1 408.266 573.645 398.81 561.98 398.81C550.316 398.81 540.86 408.266 540.86 419.93C540.86 431.594 550.316 441.05 561.98 441.05Z" fill="#E2E2E2"/>
<path d="M147.17 423.23C158.834 423.23 168.29 413.774 168.29 402.11C168.29 390.446 158.834 380.99 147.17 380.99C135.506 380.99 126.05 390.446 126.05 402.11C126.05 413.774 135.506 423.23 147.17 423.23Z" fill="#E2E2E2"/>
<path d="M104.12 329.44C122.864 329.44 138.06 319.985 138.06 308.32C138.06 296.656 122.864 287.2 104.12 287.2C85.3751 287.2 70.1797 296.656 70.1797 308.32C70.1797 319.985 85.3751 329.44 104.12 329.44Z" fill="#E2E2E2"/>
<path d="M0 203.46C0 186.85 19.07 173.38 42.6 173.38C64.45 173.38 82.44 184.99 84.91 199.95C104.38 202.33 119.04 212.73 119.04 225.21C119.04 239.44 99.96 250.98 76.43 250.98C57.5 250.98 41.46 243.51 35.91 233.18C15.56 230.9 0 218.46 0 203.46Z" fill="#E2E2E2"/>
<path d="M532.07 310.17C532.07 293.56 551.14 280.09 574.67 280.09C596.52 280.09 614.51 291.7 616.98 306.66C636.45 309.04 651.11 319.44 651.11 331.92C651.11 346.15 632.03 357.69 608.5 357.69C589.57 357.69 573.53 350.22 567.98 339.89C547.63 337.62 532.07 325.19 532.07 310.18V310.17Z" fill="#E2E2E2"/>
<path d="M145.73 567.87H92.3604C85.7329 567.87 80.3604 573.243 80.3604 579.87V629.03C80.3604 635.658 85.7329 641.03 92.3604 641.03H145.73C152.358 641.03 157.73 635.658 157.73 629.03V579.87C157.73 573.243 152.358 567.87 145.73 567.87Z" fill="#A73231"/>
<path d="M611.91 567.87H558.54C551.913 567.87 546.54 573.243 546.54 579.87V629.03C546.54 635.658 551.913 641.03 558.54 641.03H611.91C618.537 641.03 623.91 635.658 623.91 629.03V579.87C623.91 573.243 618.537 567.87 611.91 567.87Z" fill="#A73231"/>
<path d="M112.42 509.94H591.59V720.99C591.59 774.16 548.43 817.32 495.26 817.32H208.75C155.58 817.32 112.42 774.16 112.42 720.99V509.94Z" fill="#D65251"/>
<path d="M591.59 509.94H112.42V537.54H591.59V509.94Z" fill="white"/>
<path d="M475.3 435.88C455.52 435.88 437.94 429.16 431.64 408.76L425.62 389.3C424.54 385.8 427.15 382.26 430.81 382.26H519.79C523.45 382.26 526.06 385.8 524.98 389.3L518.96 408.76C512.65 429.16 495.08 435.88 475.3 435.88Z" fill="#ECECEB" stroke="#B1B1B1" stroke-width="2" stroke-miterlimit="10"/>
<g opacity="0.08">
<mask id="mask0_1820_16655" style="mask-type:luminance" maskUnits="userSpaceOnUse" x="425" y="382" width="101" height="54">
<path d="M475.369 435.95C455.589 435.95 438.009 429.23 431.709 408.83L425.689 389.37C424.609 385.87 427.219 382.33 430.879 382.33H519.859C523.519 382.33 526.129 385.87 525.049 389.37L519.029 408.83C512.719 429.23 495.149 435.95 475.369 435.95Z" fill="white"/>
</mask>
<g mask="url(#mask0_1820_16655)">
<path d="M518.619 390.451C510.589 414.341 490.379 433.77 466.199 440.84C486.169 441.13 504.929 432.051 522.829 423.171C528.469 420.371 534.359 417.371 537.939 412.181C542.249 405.931 542.359 397.801 542.299 390.221C542.269 385.971 542.019 381.191 538.879 378.321C535.329 375.081 529.419 375.91 525.619 378.86C521.819 381.81 519.619 386.31 517.549 390.64" fill="#6B6B6B"/>
</g>
</g>
<path d="M475.37 410.12C447.81 410.12 425.39 397.89 425.39 382.86C425.39 367.83 447.81 355.6 475.37 355.6C502.93 355.6 525.36 367.83 525.36 382.86C525.36 397.89 502.94 410.12 475.37 410.12Z" fill="white"/>
<path d="M475.37 356.61C488.66 356.61 501.11 359.46 510.45 364.64C519.42 369.61 524.35 376.08 524.35 382.87C524.35 389.66 519.41 396.13 510.45 401.1C501.11 406.28 488.65 409.13 475.37 409.13C462.09 409.13 449.63 406.28 440.29 401.1C431.32 396.13 426.39 389.66 426.39 382.87C426.39 376.08 431.33 369.61 440.29 364.64C449.63 359.46 462.09 356.61 475.37 356.61ZM475.37 354.61C447.21 354.61 424.38 367.26 424.38 382.87C424.38 398.48 447.21 411.13 475.37 411.13C503.53 411.13 526.35 398.48 526.35 382.87C526.35 367.26 503.52 354.61 475.37 354.61Z" fill="#B1B1B1"/>
<path d="M475.37 408.33C448.72 408.33 427.04 397.03 427.04 383.14C427.04 369.25 449.13 357.4 475.27 357.4C501.41 357.4 523.69 369.19 523.69 383.14C523.69 397.09 502.01 408.33 475.36 408.33H475.37Z" fill="#DADADA"/>
<path d="M475.27 357.9C501.25 357.9 523.19 369.46 523.19 383.14C523.19 396.82 501.74 407.83 475.36 407.83C448.98 407.83 427.53 396.75 427.53 383.14C427.53 369.53 449.39 357.9 475.26 357.9M475.27 356.9C448.3 356.9 426.54 368.96 426.54 383.14C426.54 397.32 448.4 408.83 475.37 408.83C502.34 408.83 524.2 397.33 524.2 383.14C524.2 368.95 502.25 356.9 475.28 356.9H475.27Z" fill="#B1B1B1"/>
<path d="M475.27 365.06C496.74 365.01 518.64 374.93 522.85 386.99C523.32 385.66 523.41 384.13 523.27 382.31C522.24 369.04 500.39 357.9 475.22 358.11C450.05 358.32 428.65 368.55 427.48 382.28C427.28 384.64 427.79 386.76 428.26 388.16C432.38 375.98 454.1 365.1 475.27 365.05V365.06Z" fill="#D0D0D0"/>
<path d="M172.62 64.1602C220.05 58.9902 271.56 94.2201 274.31 143.13C274.99 155.3 272.57 166.85 267.87 177.38C282.94 161.62 292.52 141 291.24 118.23C288.49 69.3202 236.99 34.0903 189.55 39.2603C156.36 42.8803 127.19 66.0502 113.54 94.9102C128.83 78.4102 149.77 66.6502 172.62 64.1602Z" fill="#F7F7F7"/>
<path d="M107.87 148.83C119.77 191.69 170.87 215.26 214.45 206.81C234.15 202.99 253.5 192.39 267.87 177.38C272.57 166.85 274.99 155.3 274.31 143.13C271.56 94.2201 220.06 58.9902 172.62 64.1602C149.77 66.6502 128.83 78.4102 113.54 94.9102C105.52 111.86 102.85 130.77 107.87 148.83Z" fill="#FAE0EB"/>
<path d="M436.15 141.14C438.9 92.2302 490.4 57.0002 537.84 62.1702C557.59 64.3202 575.92 73.4002 590.4 86.4802C575.43 61.6302 548.8 42.5203 518.92 39.2603C471.49 34.0903 419.98 69.3202 417.23 118.23C415.79 143.86 428.1 166.77 446.52 183.08C439.29 170.6 435.3 156.35 436.15 141.14Z" fill="#F7F7F7"/>
<path d="M600.6 148.83C606.47 127.7 601.82 105.42 590.4 86.4702C575.92 73.3902 557.59 64.3202 537.84 62.1602C490.41 56.9902 438.9 92.2201 436.15 141.13C435.3 156.34 439.29 170.59 446.52 183.07C460.06 195.06 476.9 203.49 494.01 206.8C537.59 215.25 588.69 191.67 600.59 148.82L600.6 148.83Z" fill="#FAE0EB"/>
<path d="M495.25 236.7C495.84 265.9 479.28 287.86 474.46 294.06C438.19 340.82 371.95 340.63 350.42 340.57C300.42 340.43 213.36 322.03 197.32 266.2C188.33 234.92 205.68 205.97 213.78 192.45C239.34 149.78 292.3 117.24 350.43 119.03C423.68 121.3 494.08 177.76 495.26 236.7H495.25Z" fill="#F7F7F7"/>
<path d="M307.893 220.636C310.169 209.833 305.733 199.752 297.983 198.119C290.233 196.486 282.106 203.919 279.829 214.722C277.553 225.525 281.989 235.607 289.739 237.24C297.488 238.873 305.616 231.439 307.893 220.636Z" fill="#262727"/>
<path d="M402.278 237.342C410.027 235.708 414.464 225.627 412.188 214.824C409.911 204.021 401.783 196.588 394.034 198.221C386.284 199.854 381.847 209.935 384.124 220.738C386.401 231.541 394.528 238.975 402.278 237.342Z" fill="#262727"/>
<path d="M376.761 235.19C376.141 245.77 360.721 253.69 348.091 253.58C335.331 253.47 319.641 245.11 319.421 234.1C319.191 223.15 334.331 213.72 347.381 213.55C361.571 213.37 377.421 224.07 376.771 235.18L376.761 235.19Z" fill="#FAE0EB"/>
<path d="M354.96 225.56C354.81 228.15 350.98 230.05 347.89 230.05C344.8 230.05 340.97 228.15 340.82 225.56C340.67 222.9 344.47 220.32 347.89 220.32C351.3 220.32 355.11 222.89 354.95 225.56H354.96Z" fill="#ED83AC"/>
<path d="M401.6 232.45C397.54 233.22 392.87 230.32 392.88 227.72C392.9 225.24 397.17 223.41 399.79 222.85C402.45 222.29 407.07 222.27 408.05 224.49C409.12 226.88 405.84 231.65 401.59 232.45H401.6Z" fill="#F6C6DB"/>
<path d="M290.79 232.64C294.85 233.41 299.52 230.51 299.51 227.91C299.49 225.43 295.22 223.6 292.6 223.04C289.94 222.48 285.32 222.46 284.34 224.68C283.27 227.07 286.55 231.84 290.8 232.64H290.79Z" fill="#F6C6DB"/>
<path d="M403.91 212.78C404.05 213.35 404.77 216.18 402.98 218.53C402.74 218.84 401.51 220.4 399.29 220.78C396.52 221.25 394.5 219.48 394.11 219.13C392.18 217.35 392.02 214.99 392 214.42C391.85 211.39 393.67 207.23 397.09 206.8C400.52 206.37 403.2 209.98 403.91 212.77V212.78Z" fill="white"/>
<path d="M289.11 211.821C288.44 214.201 288.61 217.96 291.31 219.86C293.66 221.51 296.43 220.7 296.67 220.63C299.77 219.67 301.21 216.47 301.46 214.12C301.8 210.88 300.16 206.45 296.69 205.77C293.18 205.09 290 208.671 289.11 211.821Z" fill="white"/>
<path d="M406.86 19C401.42 19 396.25 20.1898 391.61 22.3398C384.56 9.04984 370.66 0 354.67 0C338.68 0 324.93 8.94987 317.84 22.1199C313.32 20.1099 308.32 18.99 303.06 18.99C282.76 18.99 266.31 44.8301 266.31 65.3101C266.31 85.7901 282.76 102.38 303.06 102.38C315.16 102.38 325.9 96.4799 332.6 87.3699C339.01 91.3899 346.57 93.71 354.68 93.71C362.79 93.71 370.66 91.2899 377.15 87.1199C383.83 96.3699 394.65 102.38 406.87 102.38C427.17 102.38 443.62 85.7801 443.62 65.3101C443.62 44.8401 427.17 18.99 406.87 18.99L406.86 19Z" fill="white"/>
<path d="M407.27 133.11C400.06 128.36 381.7 125.97 355.06 125.87C327.95 125.76 309.24 128.37 302.04 133.11C300.55 116.89 298.97 107.91 297.3 89.6997C308.64 84.4697 328.2 77.4197 353.74 77.2597C380.26 77.0897 400.53 84.4097 412.02 89.6997C410.34 107.9 408.75 116.88 407.26 133.11H407.27Z" fill="white"/>
<g opacity="0.8">
<path d="M392.82 33.5C393.54 39.01 393.85 46.7801 391.87 55.8201C389.48 66.7501 384.74 75.0701 381.13 80.3201" fill="white"/>
<path d="M392.82 33.5C397.84 49.55 392.88 68.3901 381.13 80.3201C384.45 72.8001 387.5 65.42 389.48 57.52C391.52 49.63 392.36 41.71 392.82 33.5Z" fill="#DADADA"/>
</g>
<g opacity="0.8">
<path d="M316.74 34.2197C316.02 39.7297 315.71 47.4998 317.69 56.5398C320.08 67.4698 324.82 75.7898 328.43 81.0398" fill="white"/>
<path d="M316.739 34.2197C317.199 42.4297 318.039 50.3497 320.079 58.2397C322.059 66.1397 325.109 73.5198 328.429 81.0398C316.679 69.1198 311.709 50.2797 316.739 34.2197Z" fill="#DADADA"/>
</g>
<g opacity="0.8">
<path d="M305.64 101.04C334.63 84.5302 372.41 84.5002 401.4 101.04C393.71 97.9702 385.85 95.5201 377.84 93.8701C353.7 88.7501 328.43 91.7202 305.64 101.04Z" fill="#D7D7D7"/>
</g>
<path d="M340.55 471.54C342.81 484.44 319.49 503.74 296.15 503.44C273.61 503.15 251.04 484.57 253.24 471.72C255.41 459.05 281.46 453.2 298.62 453.57C313.69 453.89 338.42 459.38 340.55 471.54Z" fill="#AFB2BC"/>
<path d="M252.57 473.34H264.72V321.65H252.57L252.57 473.34Z" fill="#AFB2BC"/>
<path d="M258.859 472.24C259.409 479.01 283.309 481.68 297.169 481.67C310.839 481.66 334.939 479.01 335.479 472.24C335.989 465.87 315.659 455.72 295.899 456.12C277.479 456.49 258.369 466.03 258.869 472.24H258.859Z" fill="#9AA1A5"/>
<path d="M258.65 363.41H258.66C263.829 363.41 268.02 359.219 268.02 354.05V327.82C268.02 322.651 263.829 318.46 258.66 318.46H258.65C253.48 318.46 249.29 322.651 249.29 327.82V354.05C249.29 359.219 253.48 363.41 258.65 363.41Z" fill="#B23232"/>
</svg>
