<svg width="698" height="888" viewBox="0 0 698 888" fill="none" xmlns="http://www.w3.org/2000/svg">
<path d="M319.2 699.53C307.87 705.06 296.34 705.29 288.7 704.61C281.97 704.82 271.41 704.2 260.94 699.14C254.79 696.17 251.67 693.12 250.14 691.43C248.46 689.59 245.16 685.88 243.79 680.07C243.38 678.33 243.16 676.51 243.16 674.64C243.16 661.57 253.86 650.87 266.93 650.87H311.83C324.9 650.87 335.6 661.57 335.6 674.64C335.55 677.84 334.97 685.22 329.76 691.71C328.69 693.05 325.86 696.29 319.2 699.53Z" fill="#7F7F7F"/>
<path d="M450.05 699.53C438.72 705.06 427.19 705.29 419.55 704.61C412.82 704.82 402.26 704.2 391.79 699.14C385.64 696.17 382.52 693.12 380.99 691.43C379.31 689.59 376.01 685.88 374.64 680.07C374.23 678.33 374.01 676.51 374.01 674.64C374.01 661.57 384.71 650.87 397.78 650.87H442.68C455.75 650.87 466.45 661.57 466.45 674.64C466.4 677.84 465.82 685.22 460.61 691.71C459.54 693.05 456.71 696.29 450.05 699.53Z" fill="#7F7F7F"/>
<path d="M471.29 667.28H230.18C214.36 667.28 201.82 653.94 202.79 638.16L213.57 463.12C215.9 425.24 247.31 395.71 285.26 395.71H416.19C454.14 395.71 485.55 425.24 487.88 463.12L498.66 638.16C499.63 653.95 487.09 667.28 471.27 667.28H471.29Z" fill="white"/>
<path d="M343.16 441.98C329.37 438.97 313.9 445.91 297.27 439.37C282.01 433.37 268.35 426.6 256.4 419.82C255.53 417.72 254.02 413.38 253.97 407.56C253.92 401.4 255.53 396.8 256.4 394.69C285.32 405.86 314.24 405.67 343.17 416.84V441.97L343.16 441.98Z" fill="#FF4848"/>
<path d="M355.53 441.98C369.32 438.97 384.79 445.91 401.42 439.37C416.68 433.37 430.34 426.6 442.29 419.82C443.16 417.72 444.67 413.38 444.72 407.56C444.77 401.4 443.16 396.8 442.29 394.69C413.37 405.86 384.45 405.67 355.52 416.84V441.97L355.53 441.98Z" fill="#FF4848"/>
<path d="M355.24 450.06H339.6C335.23 450.06 331.84 446.25 332.35 441.91L335.03 419.19C335.46 415.51 338.58 412.74 342.28 412.74H352.57C356.27 412.74 359.39 415.51 359.82 419.19L362.5 441.91C363.01 446.25 359.62 450.06 355.25 450.06H355.24Z" fill="#EA4949"/>
<path d="M340.49 448.57H353.78C357.68 448.57 361.08 451.25 361.98 455.05L368.78 483.63C369.35 486.02 369.06 488.54 367.95 490.73L354.43 517.59C351.34 523.72 342.54 523.56 339.67 517.33L327.5 490.83C326.6 488.87 326.33 486.67 326.73 484.55L332.2 455.44C332.95 451.46 336.43 448.57 340.48 448.57H340.49Z" fill="#FF4848"/>
<path d="M299.56 474.23C305.32 474.23 309.99 469.56 309.99 463.8C309.99 458.04 305.32 453.37 299.56 453.37C293.8 453.37 289.13 458.04 289.13 463.8C289.13 469.56 293.8 474.23 299.56 474.23Z" fill="#E8E8E8"/>
<path d="M390.45 474.23C396.21 474.23 400.88 469.56 400.88 463.8C400.88 458.04 396.21 453.37 390.45 453.37C384.689 453.37 380.02 458.04 380.02 463.8C380.02 469.56 384.689 474.23 390.45 474.23Z" fill="#E8E8E8"/>
<path d="M299.56 511.13C305.32 511.13 309.99 506.46 309.99 500.7C309.99 494.94 305.32 490.27 299.56 490.27C293.8 490.27 289.13 494.94 289.13 500.7C289.13 506.46 293.8 511.13 299.56 511.13Z" fill="#E8E8E8"/>
<path d="M390.45 511.13C396.21 511.13 400.88 506.46 400.88 500.7C400.88 494.94 396.21 490.27 390.45 490.27C384.689 490.27 380.02 494.94 380.02 500.7C380.02 506.46 384.689 511.13 390.45 511.13Z" fill="#E8E8E8"/>
<path d="M299.56 551.05C305.32 551.05 309.99 546.38 309.99 540.62C309.99 534.86 305.32 530.19 299.56 530.19C293.8 530.19 289.13 534.86 289.13 540.62C289.13 546.38 293.8 551.05 299.56 551.05Z" fill="#E8E8E8"/>
<path d="M390.45 551.05C396.21 551.05 400.88 546.38 400.88 540.62C400.88 534.86 396.21 530.19 390.45 530.19C384.689 530.19 380.02 534.86 380.02 540.62C380.02 546.38 384.689 551.05 390.45 551.05Z" fill="#E8E8E8"/>
<path d="M495.69 583.84C456.6 590.59 407.08 595.93 351.75 596.03C295.08 596.13 245.74 590.56 205.99 583.7C205.99 578.68 206.79 574.05 206.79 569.02C247.06 575.58 295.53 580.37 351.75 580.27C406.65 580.18 454.85 575.07 494.44 568.62C494.44 573.64 495.69 578.82 495.69 583.84Z" fill="#E8E8E8"/>
<path d="M307.104 199.741C319.31 162.919 297.277 122.485 257.892 109.429C218.506 96.3728 176.683 115.639 164.476 152.461C152.27 189.283 174.303 229.717 213.689 242.773C253.074 255.829 294.898 236.563 307.104 199.741Z" fill="#FFA744"/>
<path d="M479.911 242.835C519.297 229.779 541.33 189.345 529.124 152.523C516.917 115.7 475.094 96.4343 435.708 109.49C396.323 122.546 374.29 162.981 386.496 199.803C398.702 236.625 440.526 255.891 479.911 242.835Z" fill="#FFA744"/>
<path d="M304.8 268.58C307.471 255.907 302.267 244.081 293.177 242.166C284.088 240.25 274.554 248.971 271.883 261.643C269.213 274.316 274.417 286.142 283.506 288.058C292.596 289.973 302.13 281.253 304.8 268.58Z" fill="#262727"/>
<path d="M415.651 288.066C424.741 286.15 429.945 274.324 427.274 261.651C424.603 248.979 415.07 240.258 405.98 242.174C396.89 244.089 391.686 255.915 394.357 268.588C397.028 281.261 406.561 289.981 415.651 288.066Z" fill="#262727"/>
<path d="M385.64 285.56C384.91 297.97 366.82 307.27 352 307.14C337.03 307.01 318.62 297.21 318.36 284.29C318.09 271.44 335.86 260.38 351.17 260.18C367.81 259.96 386.42 272.52 385.65 285.56H385.64Z" fill="#FAE0EB"/>
<path d="M360.05 274.27C359.88 277.3 355.38 279.54 351.76 279.54C348.14 279.54 343.64 277.31 343.47 274.27C343.29 271.14 347.76 268.13 351.76 268.13C355.77 268.13 360.23 271.15 360.05 274.27Z" fill="#ED83AC"/>
<path d="M414.78 282.36C410.02 283.26 404.53 279.86 404.55 276.8C404.57 273.89 409.58 271.74 412.66 271.09C415.78 270.43 421.2 270.42 422.36 273.01C423.61 275.82 419.77 281.41 414.78 282.35V282.36Z" fill="#F6C6DB"/>
<path d="M284.77 282.58C289.53 283.48 295.02 280.08 295 277.02C294.98 274.11 289.97 271.96 286.89 271.31C283.77 270.65 278.35 270.64 277.19 273.23C275.94 276.04 279.78 281.63 284.77 282.57V282.58Z" fill="#F6C6DB"/>
<path d="M417.49 259.28C417.66 259.95 418.49 263.27 416.4 266.03C416.12 266.4 414.67 268.23 412.07 268.67C408.82 269.22 406.45 267.15 406 266.74C403.73 264.66 403.55 261.88 403.52 261.22C403.35 257.66 405.48 252.78 409.49 252.28C413.51 251.77 416.66 256.01 417.49 259.29V259.28Z" fill="white"/>
<path d="M282.79 258.14C282 260.93 282.2 265.35 285.37 267.58C288.13 269.52 291.38 268.57 291.66 268.48C295.29 267.35 296.99 263.6 297.28 260.84C297.68 257.03 295.76 251.84 291.68 251.05C287.56 250.25 283.83 254.45 282.79 258.15V258.14Z" fill="white"/>
<path d="M522.82 306.7C522.82 300.87 520.54 295.38 516.54 290.58C513.32 286.72 511.49 281.9 511.62 276.87C512.11 257.41 509.46 223.97 487.84 193.88C447.41 137.6 373.26 138.46 346.16 138.78C319.96 139.09 248.48 139.92 207.1 195.63C185.65 224.51 181.16 256.19 180.48 275.33C180.3 280.33 178.32 285.1 174.85 288.69C169.8 293.92 166.88 300.09 166.88 306.7C166.88 312.5 169.13 317.96 173.1 322.75C176.05 326.31 177.39 330.87 177.38 335.49C177.38 335.52 177.38 335.54 177.38 335.57C177.38 350.63 192.53 363.41 213.54 367.92C216.33 368.52 218.98 369.66 221.28 371.36C257.29 398.01 309.86 410.03 350.89 409.23C389.72 408.46 438.8 395.8 472.59 370.43C474.68 368.86 477.08 367.78 479.6 367.11C498.82 362 512.35 349.81 512.35 335.57C512.35 335.54 512.35 335.52 512.35 335.49C512.33 330.87 513.68 326.31 516.63 322.75C520.6 317.97 522.85 312.51 522.85 306.7H522.82Z" fill="#FFA744"/>
<mask id="mask0_1820_16036" style="mask-type:luminance" maskUnits="userSpaceOnUse" x="166" y="138" width="357" height="272">
<path d="M522.82 306.7C522.82 300.87 520.54 295.38 516.54 290.58C513.32 286.72 511.49 281.9 511.62 276.87C512.11 257.41 509.46 223.97 487.84 193.88C447.41 137.6 373.26 138.46 346.16 138.78C319.96 139.09 248.48 139.92 207.1 195.63C185.65 224.51 181.16 256.19 180.48 275.33C180.3 280.33 178.32 285.1 174.85 288.69C169.8 293.92 166.88 300.09 166.88 306.7C166.88 312.5 169.13 317.96 173.1 322.75C176.05 326.31 177.39 330.87 177.38 335.49C177.38 335.52 177.38 335.54 177.38 335.57C177.38 350.63 192.53 363.41 213.54 367.92C216.33 368.52 218.98 369.66 221.28 371.36C257.29 398.01 309.86 410.03 350.89 409.23C389.72 408.46 438.8 395.8 472.59 370.43C474.68 368.86 477.08 367.78 479.6 367.11C498.82 362 512.35 349.81 512.35 335.57C512.35 335.54 512.35 335.52 512.35 335.49C512.33 330.87 513.68 326.31 516.63 322.75C520.6 317.97 522.85 312.51 522.85 306.7H522.82Z" fill="white"/>
</mask>
<g mask="url(#mask0_1820_16036)">
<path d="M157.82 280.66C175.87 263.56 199.88 254.14 224.72 254.23C232.44 254.26 232.45 242.26 224.72 242.23C196.71 242.13 169.66 252.93 149.33 272.18C143.71 277.5 152.21 285.98 157.82 280.67V280.66Z" fill="#3A3A3A"/>
<path d="M167.09 304.62C185.14 287.52 209.15 278.1 233.99 278.19C241.71 278.22 241.72 266.22 233.99 266.19C205.98 266.09 178.93 276.89 158.6 296.14C152.98 301.46 161.48 309.94 167.09 304.63V304.62Z" fill="#3A3A3A"/>
<path d="M540.351 272.17C520.021 252.92 492.971 242.12 464.961 242.22C457.241 242.25 457.221 254.25 464.961 254.22C489.811 254.13 513.811 263.56 531.861 280.65C537.471 285.96 545.971 277.49 540.351 272.16V272.17Z" fill="#3A3A3A"/>
<path d="M531.08 296.14C510.75 276.89 483.7 266.09 455.69 266.19C447.97 266.22 447.95 278.22 455.69 278.19C480.54 278.1 504.54 287.53 522.59 304.62C528.2 309.93 536.7 301.46 531.08 296.13V296.14Z" fill="#3A3A3A"/>
<path d="M343.51 123.62C344.23 159.65 344.96 195.68 345.68 231.7C345.84 239.41 357.84 239.44 357.68 231.7C356.96 195.67 356.23 159.64 355.51 123.62C355.35 115.91 343.35 115.88 343.51 123.62Z" fill="#3A3A3A"/>
<path d="M316.86 166.5C340.8 159.18 366.14 158.95 390.2 165.87C397.63 168.01 400.81 156.43 393.39 154.3C367.37 146.81 339.57 147.01 313.67 154.93C306.31 157.18 309.45 168.77 316.86 166.5Z" fill="#3A3A3A"/>
<path d="M316.86 192.06C340.44 182.32 366.45 182.08 390.2 191.43C397.39 194.26 400.5 182.66 393.39 179.86C367.93 169.83 338.96 170.04 313.67 180.49C306.63 183.4 309.72 195.01 316.86 192.06Z" fill="#3A3A3A"/>
<path d="M316.86 218.45C340.45 208.77 366.44 208.53 390.2 217.82C397.39 220.63 400.51 209.04 393.39 206.25C367.92 196.29 338.98 196.5 313.67 206.88C306.62 209.77 309.71 221.38 316.86 218.45Z" fill="#3A3A3A"/>
</g>
<path d="M252.05 166.9C254.34 165.95 256.04 163.85 256.2 161.38C256.32 159.54 255.7 157.66 254.29 156.23C250.52 152.38 245.57 149.39 239.81 147.8C224.06 143.47 208.17 151.3 204.32 165.29C201.67 174.92 205.42 184.97 213.16 191.7C213.98 192.41 214.93 192.89 215.92 193.13C218.53 193.76 221.23 192.57 222.77 190.37C225.58 186.38 229.8 181.31 235.84 176.48C241.79 171.73 247.58 168.76 252.05 166.9Z" fill="white"/>
<path d="M436.53 166.9C434.24 165.95 432.54 163.85 432.38 161.38C432.26 159.54 432.88 157.66 434.29 156.23C438.06 152.38 443.01 149.39 448.77 147.8C464.52 143.47 480.41 151.3 484.26 165.29C486.91 174.92 483.16 184.97 475.42 191.7C474.6 192.41 473.65 192.89 472.66 193.13C470.05 193.76 467.35 192.57 465.81 190.37C463 186.38 458.78 181.31 452.74 176.48C446.79 171.73 441 168.76 436.53 166.9Z" fill="white"/>
<path d="M390.53 285.36C386.7 278.81 380.51 276.22 375.9 274.37C369.04 271.61 362.7 271.58 350.31 271.65C337.63 271.71 331.14 271.81 324.22 274.88C320.18 276.67 314.59 279.24 311 285.37C309.88 287.29 305.3 295.09 309.13 302.75C312.11 308.7 318.58 311.58 323.81 311.66C329.93 311.76 334.52 308.07 339.95 303.71C342.8 301.42 344.91 299.19 346.35 297.53C348.82 295.15 352.72 295.15 355.19 297.53C356.54 298.81 358.8 300.97 361.59 303.71C365.68 307.73 366.64 308.79 368.62 309.84C372.61 311.94 376.56 311.74 377.72 311.66C384.17 311.19 389.91 307.73 392.4 302.75C396.23 295.08 391.64 287.26 390.53 285.37V285.36Z" fill="white"/>
<path d="M345.97 282.23L339.36 273.42C336.4 269.47 339.22 263.84 344.15 263.84H357.36C362.29 263.84 365.11 269.47 362.15 273.42L355.54 282.23C353.15 285.42 348.36 285.42 345.96 282.23H345.97Z" fill="#3A3A3A"/>
<path d="M279.92 247.73C279.92 261.81 288.28 273.22 298.6 273.22C308.92 273.22 317.28 261.81 317.28 247.73C317.28 244.21 316.76 240.85 315.81 237.79L281.4 232.88C280.45 235.93 279.93 244.2 279.93 247.72L279.92 247.73Z" fill="#262727"/>
<path d="M421.24 247.73C421.24 261.81 412.88 273.22 402.56 273.22C392.24 273.22 383.88 261.81 383.88 247.73C383.88 244.21 384.4 240.85 385.35 237.79L419.76 232.88C420.71 235.93 421.23 244.2 421.23 247.72L421.24 247.73Z" fill="#262727"/>
<path d="M290.75 249.82C292.529 249.82 293.97 247.716 293.97 245.12C293.97 242.524 292.529 240.42 290.75 240.42C288.972 240.42 287.53 242.524 287.53 245.12C287.53 247.716 288.972 249.82 290.75 249.82Z" fill="white"/>
<path d="M393.37 250.42C395.149 250.42 396.59 248.316 396.59 245.72C396.59 243.124 395.149 241.02 393.37 241.02C391.592 241.02 390.15 243.124 390.15 245.72C390.15 248.316 391.592 250.42 393.37 250.42Z" fill="white"/>
<path d="M296.65 267.37C302.38 268.45 308.99 264.35 308.96 260.68C308.94 257.18 302.9 254.59 299.2 253.8C295.44 253.01 288.92 252.99 287.52 256.12C286.01 259.5 290.64 266.24 296.64 267.37H296.65Z" fill="#595959"/>
<path d="M405.02 267.37C399.29 268.45 392.68 264.35 392.71 260.68C392.73 257.18 398.77 254.59 402.47 253.8C406.23 253.01 412.75 252.99 414.15 256.12C415.66 259.5 411.03 266.24 405.03 267.37H405.02Z" fill="#595959"/>
<path d="M406.53 21.16C400.47 21.16 394.72 22.49 389.55 24.87C381.7 10.07 366.23 0 348.43 0C330.63 0 315.32 9.96 307.43 24.63C302.39 22.39 296.83 21.15 290.97 21.15C268.37 21.15 250.06 49.92 250.06 72.71C250.06 95.5 268.38 113.98 290.97 113.98C304.45 113.98 316.4 107.41 323.85 97.27C330.99 101.75 339.41 104.33 348.43 104.33C357.45 104.33 366.22 101.64 373.45 96.99C380.89 107.29 392.94 113.98 406.53 113.98C429.13 113.98 447.44 95.5 447.44 72.71C447.44 49.92 429.12 21.15 406.53 21.15V21.16Z" fill="white"/>
<path d="M406.98 148.2C398.96 142.91 378.51 140.26 348.86 140.14C318.67 140.02 297.85 142.93 289.84 148.2C288.18 130.14 286.43 120.14 284.56 99.8801C297.19 94.0601 318.96 86.2101 347.39 86.0301C376.92 85.8401 399.48 93.9901 412.27 99.8801C410.4 120.15 408.64 130.14 406.97 148.2H406.98Z" fill="white"/>
<g opacity="0.8">
<path d="M390.9 37.3101C391.7 43.4501 392.04 52.0901 389.84 62.1601C387.18 74.3301 381.9 83.6001 377.88 89.4301" fill="white"/>
<path d="M390.9 37.3101C396.17 55.2301 390.71 75.9601 377.88 89.4301C381.73 81.1401 385.18 72.9001 387.39 64.1001C389.66 55.3201 390.55 46.4501 390.9 37.3101Z" fill="#DADADA"/>
</g>
<g opacity="0.8">
<path d="M306.2 38.1099C305.4 44.2499 305.06 52.8899 307.26 62.9599C309.92 75.1299 315.2 84.3999 319.22 90.2299" fill="white"/>
<path d="M306.2 38.1099C306.54 47.2499 307.44 56.1199 309.71 64.8999C311.92 73.6999 315.37 81.9299 319.22 90.2299C306.4 76.7699 300.93 56.0299 306.2 38.1099Z" fill="#DADADA"/>
</g>
<g opacity="0.8">
<path d="M293.84 112.5C326.21 94.3301 368.09 94.3001 400.45 112.5C391.92 109.02 383.17 106.26 374.25 104.4C347.37 98.6401 319.17 101.96 293.85 112.5H293.84Z" fill="#D7D7D7"/>
</g>
<path d="M436.01 461.2L468.7 506.49C475.86 516.41 491.3 515.82 503.01 505.19L505.16 503.24C516.87 492.61 520.6 475.8 513.45 465.88L480.76 420.59C473.6 410.67 458.16 411.26 446.45 421.89L444.3 423.84C432.59 434.47 428.86 451.28 436.01 461.2Z" fill="white"/>
<path d="M436.01 461.2L468.7 506.49C475.86 516.41 491.3 515.82 503.01 505.19L505.16 503.24C516.87 492.61 520.6 475.8 513.45 465.88L480.76 420.59C473.6 410.67 458.16 411.26 446.45 421.89L444.3 423.84C432.59 434.47 428.86 451.28 436.01 461.2Z" stroke="white" stroke-miterlimit="10"/>
<path d="M516.86 477.38C526.32 487.4 522.52 508.28 508.84 516.05C496.66 522.97 478.36 518.5 473.17 505.91C468.34 494.2 476.95 480.53 487.45 474.98C496.23 470.33 509.57 469.66 516.86 477.38Z" fill="#FFA744"/>
<path d="M265.35 419.56L287.67 470.76C292.56 481.97 284.19 494.96 269.07 499.62L266.3 500.48C251.19 505.14 234.82 499.79 229.93 488.58L207.61 437.38C202.72 426.17 211.09 413.18 226.21 408.52L228.98 407.66C244.09 403 260.46 408.35 265.35 419.56Z" fill="white"/>
<path d="M265.35 419.56L287.67 470.76C292.56 481.97 284.19 494.96 269.07 499.62L266.3 500.48C251.19 505.14 234.82 499.79 229.93 488.58L207.61 437.38C202.72 426.17 211.09 413.18 226.21 408.52L228.98 407.66C244.09 403 260.46 408.35 265.35 419.56Z" stroke="white" stroke-miterlimit="10"/>
<path d="M231.19 481.72C234.99 494.96 254.9 502.34 268.55 494.52C280.71 487.56 286.18 469.54 277.99 458.66C270.37 448.54 254.23 448.99 244.1 455.19C235.63 460.38 228.25 471.51 231.18 481.72H231.19Z" fill="#FFA744"/>
<path d="M559.32 247.71C559.32 233.25 570.79 220.91 586.94 216.03C591.66 201.35 608.53 190.49 628.61 190.49C652.35 190.49 671.6 205.67 671.6 224.4C671.6 225.28 671.56 226.16 671.47 227.03C686.96 232.16 697.85 244.23 697.85 258.32C697.85 277.05 678.6 292.23 654.86 292.23C651.35 292.23 647.94 291.9 644.68 291.27C636.79 298.61 625.03 303.27 611.87 303.27C588.13 303.27 568.88 288.09 568.88 269.36C568.88 269.25 568.88 269.15 568.88 269.04C562.9 263.21 559.32 255.8 559.32 247.72V247.71Z" fill="#E2E2E2"/>
<path d="M561.98 511.38C573.645 511.38 583.1 501.924 583.1 490.26C583.1 478.596 573.645 469.14 561.98 469.14C550.316 469.14 540.86 478.596 540.86 490.26C540.86 501.924 550.316 511.38 561.98 511.38Z" fill="#E2E2E2"/>
<path d="M147.17 493.56C158.834 493.56 168.29 484.104 168.29 472.44C168.29 460.776 158.834 451.32 147.17 451.32C135.506 451.32 126.05 460.776 126.05 472.44C126.05 484.104 135.506 493.56 147.17 493.56Z" fill="#E2E2E2"/>
<path d="M104.12 399.78C122.864 399.78 138.06 390.324 138.06 378.66C138.06 366.996 122.864 357.54 104.12 357.54C85.3751 357.54 70.1797 366.996 70.1797 378.66C70.1797 390.324 85.3751 399.78 104.12 399.78Z" fill="#E2E2E2"/>
<path d="M0 273.79C0 257.18 19.07 243.71 42.6 243.71C64.45 243.71 82.44 255.32 84.91 270.28C104.38 272.66 119.04 283.06 119.04 295.54C119.04 309.77 99.96 321.31 76.43 321.31C57.5 321.31 41.46 313.84 35.91 303.51C15.56 301.23 0 288.8 0 273.79Z" fill="#E2E2E2"/>
<path d="M532.07 380.5C532.07 363.89 551.14 350.42 574.67 350.42C596.52 350.42 614.51 362.03 616.98 376.99C636.45 379.37 651.11 389.77 651.11 402.25C651.11 416.48 632.03 428.02 608.5 428.02C589.57 428.02 573.53 420.55 567.98 410.22C547.63 407.95 532.07 395.52 532.07 380.51V380.5Z" fill="#E2E2E2"/>
<path d="M340.55 541.88C342.81 554.78 319.49 574.08 296.15 573.78C273.61 573.49 251.04 554.91 253.24 542.06C255.41 529.39 281.46 523.54 298.62 523.91C313.69 524.23 338.42 529.72 340.55 541.88Z" fill="#AFB2BC"/>
<path d="M252.57 543.68H264.72V391.99H252.57L252.57 543.68Z" fill="#AFB2BC"/>
<path d="M258.859 542.57C259.409 549.34 283.309 552.01 297.169 552C310.839 551.99 334.939 549.34 335.479 542.57C335.989 536.2 315.659 526.05 295.899 526.45C277.479 526.82 258.369 536.36 258.869 542.57H258.859Z" fill="#9AA1A5"/>
<path d="M258.65 433.74H258.66C263.829 433.74 268.02 429.549 268.02 424.38V398.15C268.02 392.98 263.829 388.79 258.66 388.79H258.65C253.48 388.79 249.29 392.98 249.29 398.15V424.38C249.29 429.549 253.48 433.74 258.65 433.74Z" fill="#B23232"/>
<path d="M145.73 638.2H92.3604C85.7329 638.2 80.3604 643.573 80.3604 650.2V699.36C80.3604 705.988 85.7329 711.36 92.3604 711.36H145.73C152.358 711.36 157.73 705.988 157.73 699.36V650.2C157.73 643.573 152.358 638.2 145.73 638.2Z" fill="#A73231"/>
<path d="M611.91 638.2H558.54C551.913 638.2 546.54 643.573 546.54 650.2V699.36C546.54 705.988 551.913 711.36 558.54 711.36H611.91C618.537 711.36 623.91 705.988 623.91 699.36V650.2C623.91 643.573 618.537 638.2 611.91 638.2Z" fill="#A73231"/>
<path d="M112.42 580.27H591.59V791.32C591.59 844.49 548.43 887.65 495.26 887.65H208.75C155.58 887.65 112.42 844.49 112.42 791.32V580.27Z" fill="#D65251"/>
<path d="M591.59 580.27H112.42V607.87H591.59V580.27Z" fill="white"/>
<path d="M475.3 506.22C455.52 506.22 437.94 499.5 431.64 479.1L425.62 459.64C424.54 456.14 427.15 452.6 430.81 452.6H519.79C523.45 452.6 526.06 456.14 524.98 459.64L518.96 479.1C512.65 499.5 495.08 506.22 475.3 506.22Z" fill="#ECECEB" stroke="#B1B1B1" stroke-width="2" stroke-miterlimit="10"/>
<g opacity="0.08">
<mask id="mask1_1820_16036" style="mask-type:luminance" maskUnits="userSpaceOnUse" x="425" y="452" width="101" height="55">
<path d="M475.369 506.29C455.589 506.29 438.009 499.57 431.709 479.17L425.689 459.71C424.609 456.21 427.219 452.67 430.879 452.67H519.859C523.519 452.67 526.129 456.21 525.049 459.71L519.029 479.17C512.719 499.57 495.149 506.29 475.369 506.29Z" fill="white"/>
</mask>
<g mask="url(#mask1_1820_16036)">
<path d="M518.619 460.78C510.589 484.67 490.379 504.1 466.199 511.17C486.169 511.46 504.929 502.38 522.829 493.5C528.469 490.7 534.359 487.7 537.939 482.51C542.249 476.26 542.359 468.13 542.299 460.55C542.269 456.3 542.019 451.52 538.879 448.65C535.329 445.41 529.419 446.24 525.619 449.19C521.819 452.14 519.619 456.64 517.549 460.97" fill="#6B6B6B"/>
</g>
</g>
<path d="M475.37 480.46C447.81 480.46 425.39 468.23 425.39 453.2C425.39 438.17 447.81 425.94 475.37 425.94C502.93 425.94 525.36 438.17 525.36 453.2C525.36 468.23 502.94 480.46 475.37 480.46Z" fill="white"/>
<path d="M475.37 426.94C488.66 426.94 501.11 429.79 510.45 434.97C519.42 439.94 524.35 446.41 524.35 453.2C524.35 459.99 519.41 466.46 510.45 471.43C501.11 476.61 488.65 479.46 475.37 479.46C462.09 479.46 449.63 476.61 440.29 471.43C431.32 466.46 426.39 459.99 426.39 453.2C426.39 446.41 431.33 439.94 440.29 434.97C449.63 429.79 462.09 426.94 475.37 426.94ZM475.37 424.94C447.21 424.94 424.38 437.59 424.38 453.2C424.38 468.81 447.21 481.46 475.37 481.46C503.53 481.46 526.35 468.81 526.35 453.2C526.35 437.59 503.52 424.94 475.37 424.94Z" fill="#B1B1B1"/>
<path d="M475.37 478.67C448.72 478.67 427.04 467.37 427.04 453.48C427.04 439.59 449.13 427.74 475.27 427.74C501.41 427.74 523.69 439.53 523.69 453.48C523.69 467.43 502.01 478.67 475.36 478.67H475.37Z" fill="#DADADA"/>
<path d="M475.27 428.23C501.25 428.23 523.19 439.79 523.19 453.47C523.19 467.15 501.74 478.16 475.36 478.16C448.98 478.16 427.53 467.08 427.53 453.47C427.53 439.86 449.39 428.23 475.26 428.23M475.27 427.23C448.3 427.23 426.54 439.29 426.54 453.47C426.54 467.65 448.4 479.16 475.37 479.16C502.34 479.16 524.2 467.66 524.2 453.47C524.2 439.28 502.25 427.23 475.28 427.23H475.27Z" fill="#B1B1B1"/>
<path d="M475.27 435.39C496.74 435.34 518.64 445.26 522.85 457.32C523.32 455.99 523.41 454.46 523.27 452.64C522.24 439.37 500.39 428.23 475.22 428.44C450.05 428.65 428.65 438.88 427.48 452.61C427.28 454.97 427.79 457.09 428.26 458.49C432.38 446.31 454.1 435.43 475.27 435.38V435.39Z" fill="#D0D0D0"/>
</svg>
