<svg width="698" height="818" viewBox="0 0 698 818" fill="none" xmlns="http://www.w3.org/2000/svg">
<path d="M319.2 629.19C307.87 634.72 296.34 634.95 288.7 634.27C281.97 634.48 271.41 633.86 260.94 628.8C254.79 625.83 251.67 622.78 250.14 621.09C248.46 619.25 245.16 615.54 243.79 609.73C243.38 607.99 243.16 606.17 243.16 604.3C243.16 591.23 253.86 580.53 266.93 580.53H311.83C324.9 580.53 335.6 591.23 335.6 604.3C335.55 607.5 334.97 614.88 329.76 621.37C328.69 622.71 325.86 625.95 319.2 629.19Z" fill="#7F7F7F"/>
<path d="M450.05 629.19C438.72 634.72 427.19 634.95 419.55 634.27C412.82 634.48 402.26 633.86 391.79 628.8C385.64 625.83 382.52 622.78 380.99 621.09C379.31 619.25 376.01 615.54 374.64 609.73C374.23 607.99 374.01 606.17 374.01 604.3C374.01 591.23 384.71 580.53 397.78 580.53H442.68C455.75 580.53 466.45 591.23 466.45 604.3C466.4 607.5 465.82 614.88 460.61 621.37C459.54 622.71 456.71 625.95 450.05 629.19Z" fill="#7F7F7F"/>
<path d="M471.3 596.94H230.19C214.37 596.94 201.83 583.6 202.8 567.82L213.58 392.78C215.91 354.9 247.32 325.37 285.27 325.37H416.2C454.15 325.37 485.56 354.9 487.89 392.78L498.67 567.82C499.64 583.61 487.1 596.94 471.28 596.94H471.3Z" fill="white"/>
<path d="M343.16 371.65C329.37 368.64 313.9 375.58 297.27 369.04C282.01 363.04 268.35 356.27 256.4 349.49C255.53 347.39 254.02 343.05 253.97 337.23C253.92 331.07 255.53 326.47 256.4 324.36C285.32 335.53 314.24 335.34 343.17 346.51V371.64L343.16 371.65Z" fill="#FF4848"/>
<path d="M355.54 371.65C369.33 368.64 384.8 375.58 401.43 369.04C416.69 363.04 430.35 356.27 442.3 349.49C443.17 347.39 444.68 343.05 444.73 337.23C444.78 331.07 443.17 326.47 442.3 324.36C413.38 335.53 384.46 335.34 355.53 346.51V371.64L355.54 371.65Z" fill="#FF4848"/>
<path d="M355.24 379.72H339.6C335.23 379.72 331.84 375.91 332.35 371.57L335.03 348.85C335.46 345.17 338.58 342.4 342.28 342.4H352.57C356.27 342.4 359.39 345.17 359.82 348.85L362.5 371.57C363.01 375.91 359.62 379.72 355.25 379.72H355.24Z" fill="#EA4949"/>
<path d="M340.5 378.23H353.79C357.69 378.23 361.09 380.91 361.99 384.71L368.79 413.29C369.36 415.68 369.07 418.2 367.96 420.39L354.44 447.25C351.35 453.38 342.55 453.22 339.68 446.99L327.51 420.49C326.61 418.53 326.34 416.33 326.74 414.21L332.21 385.1C332.96 381.12 336.44 378.23 340.49 378.23H340.5Z" fill="#FF4848"/>
<path d="M299.56 403.9C305.32 403.9 309.99 399.23 309.99 393.47C309.99 387.71 305.32 383.04 299.56 383.04C293.799 383.04 289.13 387.71 289.13 393.47C289.13 399.23 293.799 403.9 299.56 403.9Z" fill="#E8E8E8"/>
<path d="M390.449 403.9C396.21 403.9 400.88 399.23 400.88 393.47C400.88 387.71 396.21 383.04 390.449 383.04C384.689 383.04 380.02 387.71 380.02 393.47C380.02 399.23 384.689 403.9 390.449 403.9Z" fill="#E8E8E8"/>
<path d="M299.56 440.79C305.32 440.79 309.99 436.12 309.99 430.36C309.99 424.599 305.32 419.93 299.56 419.93C293.799 419.93 289.13 424.599 289.13 430.36C289.13 436.12 293.799 440.79 299.56 440.79Z" fill="#E8E8E8"/>
<path d="M390.449 440.79C396.21 440.79 400.88 436.12 400.88 430.36C400.88 424.599 396.21 419.93 390.449 419.93C384.689 419.93 380.02 424.599 380.02 430.36C380.02 436.12 384.689 440.79 390.449 440.79Z" fill="#E8E8E8"/>
<path d="M299.56 480.72C305.32 480.72 309.99 476.05 309.99 470.29C309.99 464.53 305.32 459.86 299.56 459.86C293.799 459.86 289.13 464.53 289.13 470.29C289.13 476.05 293.799 480.72 299.56 480.72Z" fill="#E8E8E8"/>
<path d="M390.449 480.72C396.21 480.72 400.88 476.05 400.88 470.29C400.88 464.53 396.21 459.86 390.449 459.86C384.689 459.86 380.02 464.53 380.02 470.29C380.02 476.05 384.689 480.72 390.449 480.72Z" fill="#E8E8E8"/>
<path d="M495.69 513.51C456.6 520.26 407.08 525.6 351.75 525.7C295.08 525.8 245.74 520.23 205.99 513.37C205.99 508.35 206.79 503.72 206.79 498.69C247.06 505.25 295.53 510.04 351.75 509.94C406.65 509.85 454.85 504.74 494.44 498.29C494.44 503.31 495.69 508.49 495.69 513.51Z" fill="#E8E8E8"/>
<path d="M256.38 324.05L340.86 347.1C359.36 352.15 370.71 368.78 366.09 384.06L365.24 386.86C360.62 402.14 341.71 410.52 323.21 405.47L238.73 382.42C220.23 377.37 208.88 360.74 213.5 345.46L214.35 342.66C218.97 327.38 237.88 319 256.38 324.05Z" fill="white"/>
<path d="M256.38 324.05L340.86 347.1C359.36 352.15 370.71 368.78 366.09 384.06L365.24 386.86C360.62 402.14 341.71 410.52 323.21 405.47L238.73 382.42C220.23 377.37 208.88 360.74 213.5 345.46L214.35 342.66C218.97 327.38 237.88 319 256.38 324.05Z" stroke="white" stroke-miterlimit="10"/>
<path d="M332.549 403.26C343.179 413.54 363.689 407.82 370.449 391.53C376.469 377.02 370.729 356.17 357.839 350.99C345.849 346.16 332.859 356.98 328.079 369.46C324.079 379.9 324.349 395.34 332.539 403.27L332.549 403.26Z" fill="#F7F7F7"/>
<path d="M559.32 177.38C559.32 162.92 570.79 150.58 586.94 145.7C591.66 131.02 608.53 120.16 628.61 120.16C652.35 120.16 671.6 135.34 671.6 154.07C671.6 154.95 671.56 155.83 671.47 156.7C686.96 161.83 697.85 173.9 697.85 187.99C697.85 206.72 678.6 221.9 654.86 221.9C651.35 221.9 647.94 221.57 644.68 220.94C636.79 228.28 625.03 232.94 611.87 232.94C588.13 232.94 568.88 217.76 568.88 199.03C568.88 198.92 568.88 198.82 568.88 198.71C562.9 192.88 559.32 185.47 559.32 177.39V177.38Z" fill="#E2E2E2"/>
<path d="M561.98 441.05C573.645 441.05 583.1 431.594 583.1 419.93C583.1 408.266 573.645 398.81 561.98 398.81C550.316 398.81 540.86 408.266 540.86 419.93C540.86 431.594 550.316 441.05 561.98 441.05Z" fill="#E2E2E2"/>
<path d="M147.18 423.23C158.844 423.23 168.3 413.774 168.3 402.11C168.3 390.446 158.844 380.99 147.18 380.99C135.515 380.99 126.06 390.446 126.06 402.11C126.06 413.774 135.515 423.23 147.18 423.23Z" fill="#E2E2E2"/>
<path d="M104.12 329.44C122.864 329.44 138.06 319.985 138.06 308.32C138.06 296.656 122.864 287.2 104.12 287.2C85.3751 287.2 70.1797 296.656 70.1797 308.32C70.1797 319.985 85.3751 329.44 104.12 329.44Z" fill="#E2E2E2"/>
<path d="M0 203.46C0 186.85 19.07 173.38 42.6 173.38C64.45 173.38 82.44 184.99 84.91 199.95C104.38 202.33 119.04 212.73 119.04 225.21C119.04 239.44 99.9601 250.98 76.4301 250.98C57.5001 250.98 41.46 243.51 35.91 233.18C15.56 230.91 0 218.48 0 203.47V203.46Z" fill="#E2E2E2"/>
<path d="M532.07 310.17C532.07 293.56 551.14 280.09 574.67 280.09C596.52 280.09 614.51 291.7 616.98 306.66C636.45 309.04 651.11 319.44 651.11 331.92C651.11 346.15 632.03 357.69 608.5 357.69C589.57 357.69 573.53 350.22 567.98 339.89C547.63 337.62 532.07 325.19 532.07 310.18V310.17Z" fill="#E2E2E2"/>
<path d="M145.73 567.87H92.3604C85.7329 567.87 80.3604 573.243 80.3604 579.87V629.03C80.3604 635.658 85.7329 641.03 92.3604 641.03H145.73C152.358 641.03 157.73 635.658 157.73 629.03V579.87C157.73 573.243 152.358 567.87 145.73 567.87Z" fill="#A73231"/>
<path d="M611.91 567.87H558.54C551.913 567.87 546.54 573.243 546.54 579.87V629.03C546.54 635.658 551.913 641.03 558.54 641.03H611.91C618.537 641.03 623.91 635.658 623.91 629.03V579.87C623.91 573.243 618.537 567.87 611.91 567.87Z" fill="#A73231"/>
<path d="M112.42 509.94H591.59V720.99C591.59 774.16 548.43 817.32 495.26 817.32H208.75C155.58 817.32 112.42 774.16 112.42 720.99V509.94Z" fill="#D65251"/>
<path d="M591.59 509.94H112.42V537.54H591.59V509.94Z" fill="white"/>
<path d="M425.91 361.35L357.57 458.21C342.61 479.42 344.09 504.27 360.87 513.44L363.95 515.12C380.73 524.29 406.7 514.44 421.66 493.24L490 396.38C504.96 375.17 503.48 350.32 486.7 341.15L483.62 339.47C466.84 330.3 440.87 340.15 425.91 361.35Z" fill="white"/>
<path d="M425.91 361.35L357.57 458.21C342.61 479.42 344.09 504.27 360.87 513.44L363.95 515.12C380.73 524.29 406.7 514.44 421.66 493.24L490 396.38C504.96 375.17 503.48 350.32 486.7 341.15L483.62 339.47C466.84 330.3 440.87 340.15 425.91 361.35Z" stroke="white" stroke-miterlimit="10"/>
<path d="M406.68 505.47C399.37 521.3 373.45 527.49 358.23 515.8C344.68 505.38 341.53 482.26 353.76 470C365.13 458.6 384.88 461.54 396.09 470.71C405.47 478.39 412.32 493.26 406.68 505.47Z" fill="#F7F7F7"/>
<path d="M351.69 517.23C331.91 517.23 314.33 510.51 308.03 490.11L302.01 470.65C300.93 467.15 303.54 463.61 307.2 463.61H396.18C399.84 463.61 402.45 467.15 401.37 470.65L395.35 490.11C389.04 510.51 371.47 517.23 351.69 517.23Z" fill="#ECECEB" stroke="#B1B1B1" stroke-width="2" stroke-miterlimit="10"/>
<g opacity="0.08">
<mask id="mask0_1820_16574" style="mask-type:luminance" maskUnits="userSpaceOnUse" x="301" y="463" width="101" height="55">
<path d="M351.76 517.3C331.98 517.3 314.4 510.58 308.1 490.18L302.08 470.72C301 467.22 303.61 463.68 307.27 463.68H396.25C399.91 463.68 402.52 467.22 401.44 470.72L395.42 490.18C389.11 510.58 371.54 517.3 351.76 517.3Z" fill="white"/>
</mask>
<g mask="url(#mask0_1820_16574)">
<path d="M395.01 471.8C386.98 495.69 366.77 515.12 342.59 522.19C362.56 522.48 381.32 513.4 399.22 504.52C404.86 501.72 410.75 498.72 414.33 493.53C418.64 487.28 418.75 479.15 418.69 471.57C418.66 467.32 418.41 462.54 415.27 459.67C411.72 456.43 405.81 457.26 402.01 460.21C398.21 463.16 396.01 467.66 393.94 471.99" fill="#6B6B6B"/>
</g>
</g>
<path d="M351.76 491.47C324.2 491.47 301.771 479.24 301.771 464.21C301.771 449.18 324.19 436.95 351.76 436.95C379.33 436.95 401.74 449.18 401.74 464.21C401.74 479.24 379.32 491.47 351.76 491.47Z" fill="white"/>
<path d="M351.76 437.95C365.05 437.95 377.5 440.8 386.84 445.98C395.81 450.95 400.74 457.42 400.74 464.21C400.74 471 395.8 477.47 386.84 482.44C377.5 487.62 365.04 490.47 351.76 490.47C338.48 490.47 326.02 487.62 316.68 482.44C307.71 477.47 302.78 471 302.78 464.21C302.78 457.42 307.72 450.95 316.68 445.98C326.02 440.8 338.48 437.95 351.76 437.95ZM351.76 435.95C323.6 435.95 300.78 448.6 300.78 464.21C300.78 479.82 323.61 492.47 351.76 492.47C379.91 492.47 402.74 479.82 402.74 464.21C402.74 448.6 379.91 435.95 351.76 435.95Z" fill="#B1B1B1"/>
<path d="M351.761 489.68C325.111 489.68 303.431 478.38 303.431 464.49C303.431 450.6 325.521 438.75 351.661 438.75C377.801 438.75 400.081 450.54 400.081 464.49C400.081 478.44 378.401 489.68 351.751 489.68H351.761Z" fill="#DADADA"/>
<path d="M351.661 439.24C377.641 439.24 399.581 450.8 399.581 464.48C399.581 478.16 378.131 489.17 351.751 489.17C325.371 489.17 303.921 478.09 303.921 464.48C303.921 450.87 325.781 439.24 351.651 439.24M351.661 438.24C324.691 438.24 302.931 450.3 302.931 464.48C302.931 478.66 324.791 490.17 351.761 490.17C378.731 490.17 400.591 478.67 400.591 464.48C400.591 450.29 378.641 438.24 351.671 438.24H351.661Z" fill="#B1B1B1"/>
<path d="M351.66 446.4C373.13 446.35 395.03 456.27 399.24 468.33C399.71 467 399.8 465.47 399.66 463.65C398.63 450.38 376.78 439.24 351.61 439.45C326.44 439.66 305.04 449.89 303.87 463.62C303.67 465.98 304.18 468.1 304.65 469.5C308.77 457.32 330.49 446.44 351.66 446.39V446.4Z" fill="#D0D0D0"/>
<path d="M293.17 442.03C280.08 441.58 266 414.78 271.11 392.01C276.04 370.01 298.88 351.76 311 356.56C322.95 361.3 323.3 387.99 319.4 404.71C315.97 419.39 305.51 442.45 293.17 442.03Z" fill="#AFB2BC"/>
<path d="M309.542 355.49L307.037 367.379L415.886 390.317L418.392 378.428L309.542 355.49Z" fill="#AFB2BC"/>
<path d="M309.34 361.96C302.6 361.1 295.06 383.94 292.21 397.5C289.4 410.88 287.02 435.01 293.54 436.93C299.67 438.74 313.79 420.94 317.48 401.52C320.92 383.42 315.52 362.75 309.34 361.96Z" fill="#9AA1A5"/>
<path d="M387.186 378.058L387.184 378.068C386.118 383.126 389.354 388.091 394.413 389.157L408.356 392.095C413.415 393.161 418.379 389.925 419.445 384.866L419.447 384.856C420.513 379.798 417.277 374.833 412.219 373.767L398.275 370.829C393.217 369.763 388.252 373 387.186 378.058Z" fill="#B23232"/>
<path d="M170.39 64.1602C217.82 58.9902 269.33 94.2201 272.08 143.13C272.76 155.3 270.34 166.85 265.64 177.38C280.71 161.62 290.29 141 289.01 118.23C286.26 69.3202 234.76 34.0903 187.32 39.2603C154.13 42.8803 124.96 66.0502 111.31 94.9102C126.6 78.4102 147.54 66.6502 170.39 64.1602Z" fill="#F7F7F7"/>
<path d="M105.64 148.83C117.54 191.69 168.64 215.26 212.22 206.81C231.92 202.99 251.27 192.39 265.64 177.38C270.34 166.85 272.76 155.3 272.08 143.13C269.33 94.2201 217.83 58.9902 170.39 64.1602C147.54 66.6502 126.6 78.4102 111.31 94.9102C103.29 111.86 100.62 130.77 105.64 148.83Z" fill="#FAE0EB"/>
<path d="M433.92 141.14C436.67 92.2302 488.17 57.0002 535.61 62.1702C555.36 64.3202 573.69 73.4002 588.17 86.4802C573.2 61.6302 546.57 42.5203 516.69 39.2603C469.26 34.0903 417.75 69.3202 415 118.23C413.56 143.86 425.87 166.77 444.29 183.08C437.06 170.6 433.07 156.35 433.92 141.14Z" fill="#F7F7F7"/>
<path d="M598.37 148.83C604.24 127.7 599.59 105.42 588.17 86.4702C573.69 73.3902 555.36 64.3202 535.61 62.1602C488.18 56.9902 436.67 92.2201 433.92 141.13C433.07 156.34 437.06 170.59 444.29 183.07C457.83 195.06 474.67 203.49 491.78 206.8C535.36 215.25 586.46 191.67 598.36 148.82L598.37 148.83Z" fill="#FAE0EB"/>
<path d="M493.02 236.7C493.61 265.9 477.05 287.86 472.23 294.06C435.96 340.82 369.72 340.63 348.19 340.57C298.19 340.43 211.13 322.03 195.09 266.2C186.1 234.92 203.45 205.97 211.55 192.45C237.11 149.78 290.07 117.24 348.2 119.03C421.45 121.3 491.85 177.76 493.03 236.7H493.02Z" fill="#F7F7F7"/>
<path d="M305.64 220.629C307.916 209.826 303.48 199.745 295.73 198.112C287.98 196.479 279.853 203.912 277.576 214.715C275.3 225.518 279.736 235.599 287.486 237.232C295.236 238.865 303.363 231.432 305.64 220.629Z" fill="#262727"/>
<path d="M400.036 237.366C407.785 235.733 412.222 225.652 409.945 214.849C407.669 204.046 399.541 196.612 391.792 198.245C384.042 199.878 379.605 209.96 381.882 220.763C384.158 231.565 392.286 238.999 400.036 237.366Z" fill="#262727"/>
<path d="M374.53 235.19C373.91 245.77 358.49 253.69 345.86 253.58C333.1 253.47 317.41 245.11 317.19 234.1C316.96 223.15 332.1 213.72 345.15 213.55C359.34 213.37 375.19 224.07 374.54 235.18L374.53 235.19Z" fill="#FAE0EB"/>
<path d="M352.72 225.56C352.57 228.15 348.74 230.05 345.65 230.05C342.56 230.05 338.729 228.15 338.579 225.56C338.429 222.9 342.23 220.32 345.65 220.32C349.06 220.32 352.87 222.89 352.71 225.56H352.72Z" fill="#ED83AC"/>
<path d="M399.369 232.45C395.309 233.22 390.639 230.32 390.649 227.72C390.669 225.24 394.939 223.41 397.559 222.85C400.219 222.29 404.839 222.27 405.819 224.49C406.889 226.88 403.609 231.65 399.359 232.45H399.369Z" fill="#F6C6DB"/>
<path d="M288.559 232.64C292.619 233.41 297.29 230.51 297.28 227.91C297.26 225.43 292.989 223.6 290.369 223.04C287.709 222.48 283.089 222.46 282.109 224.68C281.039 227.07 284.319 231.84 288.569 232.64H288.559Z" fill="#F6C6DB"/>
<path d="M401.679 212.78C401.819 213.35 402.539 216.18 400.749 218.53C400.509 218.84 399.279 220.4 397.059 220.78C394.289 221.25 392.269 219.48 391.879 219.13C389.949 217.35 389.789 214.99 389.769 214.42C389.619 211.39 391.439 207.23 394.859 206.8C398.289 206.37 400.969 209.98 401.679 212.77V212.78Z" fill="white"/>
<path d="M286.88 211.821C286.21 214.201 286.379 217.96 289.079 219.86C291.429 221.51 294.199 220.7 294.439 220.63C297.539 219.67 298.979 216.47 299.229 214.12C299.569 210.88 297.929 206.45 294.459 205.77C290.949 205.09 287.77 208.671 286.88 211.821Z" fill="white"/>
<path d="M404.63 19C399.19 19 394.02 20.1898 389.38 22.3398C382.33 9.04984 368.43 0 352.44 0C336.45 0 322.7 8.94987 315.61 22.1199C311.09 20.1099 306.09 18.99 300.83 18.99C280.53 18.99 264.08 44.8301 264.08 65.3101C264.08 85.7901 280.53 102.38 300.83 102.38C312.93 102.38 323.67 96.4799 330.37 87.3699C336.78 91.3899 344.34 93.71 352.45 93.71C360.56 93.71 368.43 91.2899 374.92 87.1199C381.6 96.3699 392.42 102.38 404.64 102.38C424.94 102.38 441.39 85.7801 441.39 65.3101C441.39 44.8401 424.94 18.99 404.64 18.99L404.63 19Z" fill="white"/>
<path d="M405.04 133.11C397.83 128.36 379.47 125.97 352.83 125.87C325.72 125.76 307.01 128.37 299.81 133.11C298.32 116.89 296.74 107.91 295.07 89.6997C306.41 84.4697 325.97 77.4197 351.51 77.2597C378.03 77.0897 398.3 84.4097 409.79 89.6997C408.11 107.9 406.52 116.88 405.03 133.11H405.04Z" fill="white"/>
<g opacity="0.8">
<path d="M390.59 33.5C391.31 39.01 391.62 46.7801 389.64 55.8201C387.25 66.7501 382.51 75.0701 378.9 80.3201" fill="white"/>
<path d="M390.59 33.5C395.61 49.55 390.65 68.3901 378.9 80.3201C382.22 72.8001 385.27 65.42 387.25 57.52C389.29 49.63 390.13 41.71 390.59 33.5Z" fill="#DADADA"/>
</g>
<g opacity="0.8">
<path d="M314.51 34.2197C313.79 39.7297 313.48 47.4998 315.46 56.5398C317.85 67.4698 322.59 75.7898 326.2 81.0398" fill="white"/>
<path d="M314.51 34.2197C314.97 42.4297 315.81 50.3497 317.85 58.2397C319.83 66.1397 322.88 73.5198 326.2 81.0398C314.45 69.1198 309.48 50.2797 314.51 34.2197Z" fill="#DADADA"/>
</g>
<g opacity="0.8">
<path d="M303.41 101.04C332.4 84.5302 370.18 84.5002 399.17 101.04C391.48 97.9702 383.62 95.5201 375.61 93.8701C351.47 88.7501 326.2 91.7202 303.41 101.04Z" fill="#D7D7D7"/>
</g>
</svg>
