<svg width="698" height="885" viewBox="0 0 698 885" fill="none" xmlns="http://www.w3.org/2000/svg">
<path d="M319.2 696.01C307.87 701.54 296.34 701.77 288.7 701.09C281.97 701.3 271.41 700.68 260.94 695.62C254.79 692.65 251.67 689.6 250.14 687.91C248.46 686.07 245.16 682.36 243.79 676.55C243.38 674.81 243.16 672.99 243.16 671.12C243.16 658.05 253.86 647.35 266.93 647.35H311.83C324.9 647.35 335.6 658.05 335.6 671.12C335.55 674.32 334.97 681.7 329.76 688.19C328.69 689.53 325.86 692.77 319.2 696.01Z" fill="#7F7F7F"/>
<path d="M450.05 696.01C438.72 701.54 427.19 701.77 419.55 701.09C412.82 701.3 402.26 700.68 391.79 695.62C385.64 692.65 382.52 689.6 380.99 687.91C379.31 686.07 376.01 682.36 374.64 676.55C374.23 674.81 374.01 672.99 374.01 671.12C374.01 658.05 384.71 647.35 397.78 647.35H442.68C455.75 647.35 466.45 658.05 466.45 671.12C466.4 674.32 465.82 681.7 460.61 688.19C459.54 689.53 456.71 692.77 450.05 696.01Z" fill="#7F7F7F"/>
<path d="M471.29 663.76H230.18C214.36 663.76 201.82 650.42 202.79 634.64L213.57 459.6C215.9 421.72 247.31 392.19 285.26 392.19H416.19C454.14 392.19 485.55 421.72 487.88 459.6L498.66 634.64C499.63 650.43 487.09 663.76 471.27 663.76H471.29Z" fill="white"/>
<path d="M299.56 470.71C305.32 470.71 309.99 466.04 309.99 460.28C309.99 454.52 305.32 449.85 299.56 449.85C293.8 449.85 289.13 454.52 289.13 460.28C289.13 466.04 293.8 470.71 299.56 470.71Z" fill="#E8E8E8"/>
<path d="M390.45 470.71C396.21 470.71 400.88 466.04 400.88 460.28C400.88 454.52 396.21 449.85 390.45 449.85C384.69 449.85 380.02 454.52 380.02 460.28C380.02 466.04 384.69 470.71 390.45 470.71Z" fill="#E8E8E8"/>
<path d="M299.56 507.61C305.32 507.61 309.99 502.94 309.99 497.18C309.99 491.42 305.32 486.75 299.56 486.75C293.8 486.75 289.13 491.42 289.13 497.18C289.13 502.94 293.8 507.61 299.56 507.61Z" fill="#E8E8E8"/>
<path d="M390.45 507.61C396.21 507.61 400.88 502.94 400.88 497.18C400.88 491.42 396.21 486.75 390.45 486.75C384.69 486.75 380.02 491.42 380.02 497.18C380.02 502.94 384.69 507.61 390.45 507.61Z" fill="#E8E8E8"/>
<path d="M299.56 547.53C305.32 547.53 309.99 542.86 309.99 537.1C309.99 531.34 305.32 526.67 299.56 526.67C293.8 526.67 289.13 531.34 289.13 537.1C289.13 542.86 293.8 547.53 299.56 547.53Z" fill="#E8E8E8"/>
<path d="M390.45 547.53C396.21 547.53 400.88 542.86 400.88 537.1C400.88 531.34 396.21 526.67 390.45 526.67C384.69 526.67 380.02 531.34 380.02 537.1C380.02 542.86 384.69 547.53 390.45 547.53Z" fill="#E8E8E8"/>
<path d="M495.69 580.32C456.6 587.07 407.08 592.41 351.75 592.51C295.08 592.61 245.74 587.04 205.99 580.18C205.99 575.16 206.79 570.53 206.79 565.5C247.06 572.06 295.53 576.85 351.75 576.75C406.65 576.66 454.85 571.55 494.44 565.1C494.44 570.12 495.69 575.3 495.69 580.32Z" fill="#E8E8E8"/>
<path d="M521.24 271.58C523.72 263.05 525.03 254.22 525.03 245.16C525.03 174.43 445.51 117.1 347.42 117.1C249.33 117.1 169.81 174.44 169.81 245.16C169.81 254.22 171.12 263.05 173.6 271.58C162.57 283.65 155.94 299.12 155.94 315.98C158.06 329.69 163.46 348.66 178.62 365.37C210.95 400.98 265.08 401.44 350.37 401.01C433.86 400.59 485.01 399.64 516.23 365.37C531.62 348.47 536.88 329.28 538.91 315.98C538.91 299.11 532.28 283.65 521.25 271.58H521.24Z" fill="#457DB1"/>
<path d="M497.67 277.7C496.85 276.55 495.95 275.42 495.02 274.31C496.14 268.23 496.75 261.92 496.75 255.44C496.75 207.46 464.38 168.56 424.44 168.56C393.72 168.56 367.48 191.58 357 224.04C355.99 227.17 352.67 229.31 348.96 229.26C347.88 229.25 346.79 229.24 345.71 229.23C342.06 229.22 338.83 227.1 337.83 224.02C327.35 191.57 301.11 168.56 270.4 168.56C230.46 168.56 198.09 207.46 198.09 255.44C198.09 261.78 198.67 267.96 199.75 273.92C199.09 274.74 198.44 275.56 197.83 276.4C194.17 281.47 181.96 298.37 185.43 318.93C189.59 343.52 213.63 358.25 221.86 363.29C238.04 373.2 257.36 379.35 338.49 379.84C443.41 380.47 464.34 370.51 477.41 361.46C484.43 356.6 506.65 341.22 509.68 317.1C512.09 297.91 501.17 282.6 497.67 277.7Z" fill="white"/>
<path d="M366.13 295.94L353.65 300.79C349.85 302.27 345.64 302.25 341.86 300.75L329.9 296.01C324.7 293.95 323.96 286.89 328.63 283.8L339.01 276.93C344.59 273.24 351.84 273.26 357.39 276.98L367.48 283.73C372.13 286.85 371.35 293.91 366.14 295.94H366.13Z" fill="#FFCC3B"/>
<path d="M394.474 278.634C396.808 276.016 395.739 271.254 392.087 267.998C388.435 264.742 383.582 264.224 381.248 266.841C378.914 269.459 379.983 274.221 383.635 277.477C387.287 280.734 392.14 281.252 394.474 278.634Z" fill="#262727"/>
<path d="M311.315 277.541C314.968 274.285 316.037 269.523 313.703 266.905C311.369 264.288 306.516 264.805 302.864 268.062C299.211 271.318 298.142 276.08 300.476 278.698C302.81 281.315 307.663 280.798 311.315 277.541Z" fill="#262727"/>
<path d="M333.09 289.03C337.08 289.74 341.81 290.3 347.13 290.37C353.44 290.45 358.96 289.84 363.48 289.03" stroke="#D7A338" stroke-width="3.58" stroke-miterlimit="10" stroke-linecap="round"/>
<path d="M376.5 240.84C379.75 244.31 384.94 249.02 392.37 252.88C402.13 257.95 411.15 259.15 416.45 259.45" stroke="#474747" stroke-width="4.78" stroke-miterlimit="10" stroke-linecap="round"/>
<path d="M321.44 240.84C318.19 244.31 313 249.02 305.57 252.88C295.81 257.95 286.79 259.15 281.49 259.45" stroke="#474747" stroke-width="4.78" stroke-miterlimit="10" stroke-linecap="round"/>
<path d="M400.49 19C395.05 19 389.88 20.19 385.24 22.34C378.19 9.04 364.29 0 348.3 0C332.31 0 318.56 8.95 311.47 22.12C306.95 20.11 301.95 18.99 296.69 18.99C276.39 18.99 259.94 44.83 259.94 65.31C259.94 85.79 276.39 102.38 296.69 102.38C308.79 102.38 319.53 96.48 326.23 87.37C332.64 91.39 340.2 93.71 348.31 93.71C356.42 93.71 364.29 91.29 370.78 87.12C377.46 96.37 388.28 102.38 400.5 102.38C420.8 102.38 437.25 85.78 437.25 65.31C437.25 44.84 420.8 18.99 400.5 18.99L400.49 19Z" fill="white"/>
<path d="M400.9 133.12C393.69 128.37 375.33 125.98 348.69 125.88C321.58 125.77 302.87 128.38 295.67 133.12C294.18 116.9 292.6 107.92 290.93 89.71C302.27 84.48 321.83 77.43 347.37 77.27C373.89 77.1 394.16 84.42 405.65 89.71C403.97 107.91 402.38 116.89 400.89 133.12H400.9Z" fill="white"/>
<g opacity="0.8">
<path d="M386.45 33.51C387.17 39.02 387.48 46.79 385.5 55.83C383.11 66.76 378.37 75.08 374.76 80.33" fill="white"/>
<path d="M386.45 33.51C391.47 49.56 386.51 68.4 374.76 80.33C378.08 72.81 381.13 65.43 383.11 57.53C385.15 49.64 385.99 41.72 386.45 33.51Z" fill="#DADADA"/>
</g>
<g opacity="0.8">
<path d="M310.37 34.22C309.65 39.73 309.34 47.5 311.32 56.54C313.71 67.47 318.45 75.79 322.06 81.04" fill="white"/>
<path d="M310.37 34.22C310.83 42.43 311.67 50.35 313.71 58.24C315.69 66.14 318.74 73.52 322.06 81.04C310.31 69.12 305.35 50.28 310.37 34.22Z" fill="#DADADA"/>
</g>
<g opacity="0.8">
<path d="M299.27 101.04C328.26 84.53 366.04 84.5 395.03 101.04C387.34 97.97 379.48 95.52 371.47 93.87C347.33 88.75 322.06 91.72 299.27 101.04Z" fill="#D7D7D7"/>
</g>
<path d="M445.59 416.34L403.53 453.09C394.32 461.14 396.34 476.45 408.01 487.13L410.15 489.09C421.82 499.77 438.91 501.92 448.12 493.87L490.18 457.12C499.39 449.07 497.37 433.76 485.7 423.08L483.56 421.12C471.89 410.44 454.8 408.29 445.59 416.34Z" fill="white"/>
<path d="M445.59 416.34L403.53 453.09C394.32 461.14 396.34 476.45 408.01 487.13L410.15 489.09C421.82 499.77 438.91 501.92 448.12 493.87L490.18 457.12C499.39 449.07 497.37 433.76 485.7 423.08L483.56 421.12C471.89 410.44 454.8 408.29 445.59 416.34Z" stroke="white" stroke-miterlimit="10"/>
<path d="M436.99 498.35C427.89 508.7 406.74 506.86 397.74 493.96C389.72 482.47 392.47 463.84 404.52 457.51C415.73 451.62 430.14 458.92 436.64 468.85C442.08 477.16 444 490.38 436.98 498.35H436.99Z" fill="#457DB1"/>
<path d="M343.16 438.47C329.37 435.46 313.9 442.4 297.27 435.86C282.01 429.86 268.35 423.09 256.4 416.31C255.53 414.21 254.02 409.87 253.97 404.05C253.92 397.89 255.53 393.29 256.4 391.18C285.32 402.35 314.24 402.16 343.17 413.33V438.46L343.16 438.47Z" fill="#FF4848"/>
<path d="M355.53 438.47C369.32 435.46 384.79 442.4 401.42 435.86C416.68 429.86 430.34 423.09 442.29 416.31C443.16 414.21 444.67 409.87 444.72 404.05C444.77 397.89 443.16 393.29 442.29 391.18C413.37 402.35 384.45 402.16 355.52 413.33V438.46L355.53 438.47Z" fill="#FF4848"/>
<path d="M355.24 446.54H339.6C335.23 446.54 331.84 442.73 332.35 438.39L335.03 415.67C335.46 411.99 338.58 409.22 342.28 409.22H352.57C356.27 409.22 359.39 411.99 359.82 415.67L362.5 438.39C363.01 442.73 359.62 446.54 355.25 446.54H355.24Z" fill="#EA4949"/>
<path d="M340.49 445.05H353.78C357.68 445.05 361.08 447.73 361.98 451.53L368.78 480.11C369.35 482.5 369.06 485.02 367.95 487.21L354.43 514.07C351.34 520.2 342.54 520.04 339.67 513.81L327.5 487.31C326.6 485.35 326.33 483.15 326.73 481.03L332.2 451.92C332.95 447.94 336.43 445.05 340.48 445.05H340.49Z" fill="#FF4848"/>
<path d="M445.53 627.39L441.62 545.81C441.21 537.36 433.39 522.3 423.88 522.3C416.64 522.3 410.8 516.37 410.91 509.13L413.18 362.64C413.28 355.98 408.5 350.52 402.57 350.52H397.48C391.55 350.52 386.77 355.98 386.87 362.64L389.14 509.13C389.25 516.37 383.41 522.3 376.17 522.3C366.66 522.3 358.83 537.36 358.43 545.81L354.52 627.39C354.09 636.36 362.16 643.85 372.26 643.85H427.79C437.9 643.85 445.96 636.37 445.53 627.39ZM400.02 371.8C397.75 371.8 395.91 368.73 395.91 364.95C395.91 361.17 397.75 358.1 400.02 358.1C402.29 358.1 404.13 361.17 404.13 364.95C404.13 368.73 402.29 371.8 400.02 371.8Z" fill="#AFB2BC"/>
<path d="M277 423.21L358.75 464.01C376.65 472.94 384.71 490.36 376.67 502.71L375.2 504.98C367.16 517.33 345.93 520.13 328.03 511.2L246.28 470.4C228.38 461.47 220.32 444.05 228.36 431.7L229.83 429.43C237.87 417.08 259.1 414.28 277 423.21Z" fill="white"/>
<path d="M353.52 514.21C362.05 525.03 383.27 524.32 392.95 511.92C401.57 500.88 399.82 482.12 388.12 475.16C377.24 468.68 362.46 475.2 355.44 484.77C349.56 492.78 346.95 505.87 353.53 514.21H353.52Z" fill="#457DB1"/>
<path d="M559.32 244.19C559.32 229.73 570.79 217.39 586.94 212.51C591.66 197.83 608.53 186.97 628.61 186.97C652.35 186.97 671.6 202.15 671.6 220.88C671.6 221.76 671.56 222.64 671.47 223.51C686.96 228.64 697.85 240.71 697.85 254.8C697.85 273.53 678.6 288.71 654.86 288.71C651.35 288.71 647.94 288.38 644.68 287.75C636.79 295.09 625.03 299.75 611.87 299.75C588.13 299.75 568.88 284.57 568.88 265.84C568.88 265.73 568.88 265.63 568.88 265.52C562.9 259.69 559.32 252.28 559.32 244.2V244.19Z" fill="#E2E2E2"/>
<path d="M546.59 490.04C558.254 490.04 567.71 480.584 567.71 468.92C567.71 457.256 558.254 447.8 546.59 447.8C534.926 447.8 525.47 457.256 525.47 468.92C525.47 480.584 534.926 490.04 546.59 490.04Z" fill="#E2E2E2"/>
<path d="M147.17 490.04C158.834 490.04 168.29 480.584 168.29 468.92C168.29 457.256 158.834 447.8 147.17 447.8C135.506 447.8 126.05 457.256 126.05 468.92C126.05 480.584 135.506 490.04 147.17 490.04Z" fill="#E2E2E2"/>
<path d="M104.12 396.26C122.865 396.26 138.06 386.804 138.06 375.14C138.06 363.476 122.865 354.02 104.12 354.02C85.3756 354.02 70.1802 363.476 70.1802 375.14C70.1802 386.804 85.3756 396.26 104.12 396.26Z" fill="#E2E2E2"/>
<path d="M0 270.27C0 253.66 19.07 240.19 42.6 240.19C64.45 240.19 82.44 251.8 84.91 266.76C104.38 269.14 119.04 279.54 119.04 292.02C119.04 306.25 99.96 317.79 76.43 317.79C57.5 317.79 41.46 310.32 35.91 299.99C15.56 297.72 0 285.28 0 270.27Z" fill="#E2E2E2"/>
<path d="M532.07 376.98C532.07 360.37 551.14 346.9 574.67 346.9C596.52 346.9 614.51 358.51 616.98 373.47C636.45 375.85 651.11 386.25 651.11 398.73C651.11 412.96 632.03 424.5 608.5 424.5C589.57 424.5 573.53 417.03 567.98 406.7C547.63 404.43 532.07 392 532.07 376.99V376.98Z" fill="#E2E2E2"/>
<path d="M145.73 611.66H92.3599C85.7324 611.66 80.3599 617.032 80.3599 623.66V679.57C80.3599 686.197 85.7324 691.57 92.3599 691.57H145.73C152.357 691.57 157.73 686.197 157.73 679.57V623.66C157.73 617.032 152.357 611.66 145.73 611.66Z" fill="#A73231"/>
<path d="M611.91 611.66H558.54C551.913 611.66 546.54 617.032 546.54 623.66V679.57C546.54 686.197 551.913 691.57 558.54 691.57H611.91C618.537 691.57 623.91 686.197 623.91 679.57V623.66C623.91 617.032 618.537 611.66 611.91 611.66Z" fill="#A73231"/>
<path d="M112.42 548.38H591.59V787.8C591.59 840.97 548.43 884.13 495.26 884.13H208.75C155.58 884.13 112.42 840.97 112.42 787.8V548.38Z" fill="#D65251"/>
<path d="M591.59 548.38H112.42V578.52H591.59V548.38Z" fill="white"/>
</svg>
