<svg width="696" height="885" viewBox="0 0 696 885" fill="none" xmlns="http://www.w3.org/2000/svg">
<path d="M331.68 696.01C320.35 701.54 308.82 701.77 301.18 701.09C294.45 701.3 283.89 700.68 273.42 695.62C267.27 692.65 264.15 689.6 262.62 687.91C260.94 686.07 257.64 682.36 256.27 676.55C255.86 674.81 255.64 672.99 255.64 671.12C255.64 658.05 266.34 647.35 279.41 647.35H324.31C337.38 647.35 348.08 658.05 348.08 671.12C348.03 674.32 347.45 681.7 342.24 688.19C341.17 689.53 338.34 692.77 331.68 696.01Z" fill="#7F7F7F"/>
<path d="M462.53 696.01C451.2 701.54 439.67 701.77 432.03 701.09C425.3 701.3 414.74 700.68 404.27 695.62C398.12 692.65 395 689.6 393.47 687.91C391.79 686.07 388.49 682.36 387.12 676.55C386.71 674.81 386.49 672.99 386.49 671.12C386.49 658.05 397.19 647.35 410.26 647.35H455.16C468.23 647.35 478.93 658.05 478.93 671.12C478.88 674.32 478.3 681.7 473.09 688.19C472.02 689.53 469.19 692.77 462.53 696.01Z" fill="#7F7F7F"/>
<path d="M483.78 663.76H242.67C226.85 663.76 214.31 650.42 215.28 634.64L226.06 459.6C228.39 421.72 259.8 392.19 297.75 392.19H428.68C466.63 392.19 498.04 421.72 500.37 459.6L511.15 634.64C512.12 650.43 499.58 663.76 483.76 663.76H483.78Z" fill="white"/>
<path d="M312.04 470.71C317.8 470.71 322.47 466.04 322.47 460.28C322.47 454.52 317.8 449.85 312.04 449.85C306.279 449.85 301.61 454.52 301.61 460.28C301.61 466.04 306.279 470.71 312.04 470.71Z" fill="#E8E8E8"/>
<path d="M402.93 470.71C408.69 470.71 413.36 466.04 413.36 460.28C413.36 454.52 408.69 449.85 402.93 449.85C397.17 449.85 392.5 454.52 392.5 460.28C392.5 466.04 397.17 470.71 402.93 470.71Z" fill="#E8E8E8"/>
<path d="M312.04 507.61C317.8 507.61 322.47 502.94 322.47 497.18C322.47 491.42 317.8 486.75 312.04 486.75C306.279 486.75 301.61 491.42 301.61 497.18C301.61 502.94 306.279 507.61 312.04 507.61Z" fill="#E8E8E8"/>
<path d="M402.93 507.61C408.69 507.61 413.36 502.94 413.36 497.18C413.36 491.42 408.69 486.75 402.93 486.75C397.17 486.75 392.5 491.42 392.5 497.18C392.5 502.94 397.17 507.61 402.93 507.61Z" fill="#E8E8E8"/>
<path d="M312.04 547.53C317.8 547.53 322.47 542.86 322.47 537.1C322.47 531.34 317.8 526.67 312.04 526.67C306.279 526.67 301.61 531.34 301.61 537.1C301.61 542.86 306.279 547.53 312.04 547.53Z" fill="#E8E8E8"/>
<path d="M402.93 547.53C408.69 547.53 413.36 542.86 413.36 537.1C413.36 531.34 408.69 526.67 402.93 526.67C397.17 526.67 392.5 531.34 392.5 537.1C392.5 542.86 397.17 547.53 402.93 547.53Z" fill="#E8E8E8"/>
<path d="M508.17 580.32C469.08 587.07 419.56 592.41 364.23 592.51C307.56 592.61 258.22 587.04 218.47 580.18C218.47 575.16 219.27 570.53 219.27 565.5C259.54 572.06 308.01 576.85 364.23 576.75C419.13 576.66 467.33 571.55 506.92 565.1C506.92 570.12 508.17 575.3 508.17 580.32Z" fill="#E8E8E8"/>
<path d="M271.97 412.36L320.92 456.81C331.64 466.54 332.09 481.87 321.92 490.86L320.06 492.51C309.9 501.51 292.81 500.91 282.09 491.17L233.14 446.72C222.42 436.99 221.97 421.66 232.14 412.67L234 411.02C244.16 402.02 261.25 402.62 271.97 412.36Z" fill="white"/>
<path d="M271.97 412.36L320.92 456.81C331.64 466.54 332.09 481.87 321.92 490.86L320.06 492.51C309.9 501.51 292.81 500.91 282.09 491.17L233.14 446.72C222.42 436.99 221.97 421.66 232.14 412.67L234 411.02C244.16 402.02 261.25 402.62 271.97 412.36Z" stroke="white" stroke-miterlimit="10"/>
<path d="M444.96 429.65L371.73 465.77C355.7 473.68 349.07 490.3 357.01 502.71L358.47 504.99C366.41 517.4 386.03 521.09 402.06 513.18L475.29 477.06C491.32 469.15 497.95 452.53 490.01 440.12L488.55 437.84C480.61 425.43 460.99 421.74 444.96 429.65Z" fill="white"/>
<path d="M138.53 226.02C138.53 211.56 127.06 199.22 110.91 194.34C106.19 179.66 89.32 168.8 69.24 168.8C45.5 168.8 26.25 183.98 26.25 202.71C26.25 203.59 26.29 204.47 26.38 205.34C10.89 210.47 0 222.54 0 236.63C0 255.36 19.25 270.54 42.99 270.54C46.5 270.54 49.9099 270.21 53.1699 269.58C61.0599 276.92 72.82 281.58 85.98 281.58C109.72 281.58 128.97 266.4 128.97 247.67C128.97 247.56 128.97 247.46 128.97 247.35C134.95 241.52 138.53 234.11 138.53 226.03V226.02Z" fill="#E2E2E2"/>
<path d="M92.5198 396.26C117.516 396.26 137.78 382.255 137.78 364.98C137.78 347.704 117.516 333.7 92.5198 333.7C67.5234 333.7 47.2598 347.704 47.2598 364.98C47.2598 382.255 67.5234 396.26 92.5198 396.26Z" fill="#E2E2E2"/>
<path d="M154.6 481.4C166.264 481.4 175.72 471.944 175.72 460.28C175.72 448.616 166.264 439.16 154.6 439.16C142.936 439.16 133.48 448.616 133.48 460.28C133.48 471.944 142.936 481.4 154.6 481.4Z" fill="#E2E2E2"/>
<path d="M562.93 439.1C574.594 439.1 584.05 429.644 584.05 417.98C584.05 406.316 574.594 396.86 562.93 396.86C551.266 396.86 541.81 406.316 541.81 417.98C541.81 429.644 551.266 439.1 562.93 439.1Z" fill="#E2E2E2"/>
<path d="M533.5 271.58C535.98 263.05 537.29 254.22 537.29 245.16C537.29 174.43 457.77 117.1 359.68 117.1C261.59 117.1 182.07 174.44 182.07 245.16C182.07 254.22 183.38 263.05 185.86 271.58C174.83 283.65 168.2 299.12 168.2 315.98C170.32 329.69 175.72 348.66 190.88 365.37C223.21 400.98 277.34 401.44 362.63 401.01C446.12 400.59 497.27 399.64 528.49 365.37C543.88 348.47 549.14 329.28 551.17 315.98C551.17 299.11 544.54 283.65 533.51 271.58H533.5Z" fill="#457DB1"/>
<path d="M509.93 277.7C509.11 276.55 508.21 275.42 507.28 274.31C508.4 268.23 509.01 261.92 509.01 255.44C509.01 207.46 476.64 168.56 436.7 168.56C405.98 168.56 379.74 191.58 369.26 224.04C368.25 227.17 364.93 229.31 361.22 229.26C360.14 229.25 359.05 229.24 357.97 229.23C354.32 229.22 351.09 227.1 350.09 224.02C339.61 191.57 313.37 168.56 282.66 168.56C242.72 168.56 210.35 207.46 210.35 255.44C210.35 261.78 210.93 267.96 212.01 273.92C211.35 274.74 210.7 275.56 210.09 276.4C206.43 281.47 194.22 298.37 197.69 318.93C201.85 343.52 225.89 358.25 234.12 363.29C250.3 373.2 269.62 379.35 350.75 379.84C455.67 380.47 476.6 370.51 489.67 361.46C496.69 356.6 518.91 341.22 521.94 317.1C524.35 297.91 513.43 282.6 509.93 277.7Z" fill="white"/>
<path d="M378.39 295.94L365.91 300.79C362.11 302.27 357.9 302.25 354.12 300.75L342.16 296.01C336.96 293.95 336.22 286.89 340.89 283.8L351.27 276.93C356.85 273.24 364.1 273.26 369.65 276.98L379.74 283.73C384.39 286.85 383.61 293.91 378.4 295.94H378.39Z" fill="#FFCC3B"/>
<path d="M406.675 278.57C409.009 275.952 407.94 271.19 404.288 267.934C400.636 264.677 395.783 264.159 393.449 266.777C391.115 269.395 392.184 274.157 395.836 277.413C399.489 280.669 404.342 281.187 406.675 278.57Z" fill="#262727"/>
<path d="M323.64 277.6C327.292 274.344 328.361 269.582 326.027 266.965C323.693 264.347 318.841 264.865 315.188 268.121C311.536 271.378 310.467 276.139 312.801 278.757C315.135 281.375 319.988 280.857 323.64 277.6Z" fill="#262727"/>
<path d="M345.35 289.03C349.34 289.74 354.07 290.3 359.39 290.37C365.7 290.45 371.22 289.84 375.74 289.03" stroke="#D7A338" stroke-width="3.58" stroke-miterlimit="10" stroke-linecap="round"/>
<path d="M388.76 240.84C392.01 244.31 397.2 249.02 404.63 252.88C414.39 257.95 423.41 259.15 428.71 259.45" stroke="#474747" stroke-width="4.78" stroke-miterlimit="10" stroke-linecap="round"/>
<path d="M333.7 240.84C330.45 244.31 325.26 249.02 317.83 252.88C308.07 257.95 299.05 259.15 293.75 259.45" stroke="#474747" stroke-width="4.78" stroke-miterlimit="10" stroke-linecap="round"/>
<path d="M412.75 19C407.31 19 402.14 20.19 397.5 22.34C390.45 9.05 376.55 0 360.56 0C344.57 0 330.82 8.95 323.73 22.12C319.21 20.11 314.21 18.99 308.95 18.99C288.65 18.99 272.2 44.83 272.2 65.31C272.2 85.79 288.65 102.38 308.95 102.38C321.05 102.38 331.79 96.48 338.49 87.37C344.9 91.39 352.46 93.71 360.57 93.71C368.68 93.71 376.55 91.29 383.04 87.12C389.72 96.37 400.54 102.38 412.76 102.38C433.06 102.38 449.51 85.78 449.51 65.31C449.51 44.84 433.06 18.99 412.76 18.99L412.75 19Z" fill="white"/>
<path d="M413.16 133.12C405.95 128.37 387.59 125.98 360.95 125.88C333.84 125.77 315.13 128.38 307.93 133.12C306.44 116.9 304.86 107.92 303.19 89.71C314.53 84.48 334.09 77.43 359.63 77.27C386.15 77.1 406.42 84.42 417.91 89.71C416.23 107.91 414.641 116.89 413.151 133.12H413.16Z" fill="white"/>
<g opacity="0.8">
<path d="M398.71 33.51C399.43 39.02 399.74 46.79 397.76 55.83C395.37 66.76 390.631 75.08 387.021 80.33" fill="white"/>
<path d="M398.71 33.51C403.73 49.56 398.771 68.4 387.021 80.33C390.341 72.81 393.39 65.43 395.37 57.53C397.41 49.64 398.25 41.72 398.71 33.51Z" fill="#DADADA"/>
</g>
<g opacity="0.8">
<path d="M322.63 34.22C321.91 39.73 321.6 47.5 323.58 56.54C325.97 67.47 330.71 75.79 334.32 81.04" fill="white"/>
<path d="M322.631 34.22C323.091 42.43 323.93 50.35 325.97 58.24C327.95 66.14 331 73.52 334.32 81.04C322.57 69.12 317.611 50.28 322.631 34.22Z" fill="#DADADA"/>
</g>
<g opacity="0.8">
<path d="M311.53 101.04C340.52 84.53 378.3 84.5 407.29 101.04C399.6 97.97 391.74 95.52 383.73 93.87C359.59 88.75 334.32 91.72 311.53 101.04Z" fill="#D7D7D7"/>
</g>
<path d="M695.9 292.57C695.9 275.96 676.83 262.49 653.3 262.49C631.45 262.49 613.46 274.1 610.99 289.06C591.52 291.44 576.86 301.84 576.86 314.32C576.86 328.55 595.94 340.09 619.47 340.09C638.4 340.09 654.44 332.62 659.99 322.29C680.34 320.02 695.9 307.59 695.9 292.58V292.57Z" fill="#E2E2E2"/>
<path d="M355.64 438.47C341.85 435.46 326.38 442.4 309.75 435.86C294.49 429.86 280.83 423.09 268.88 416.31C268.01 414.21 266.5 409.87 266.45 404.05C266.4 397.89 268.01 393.29 268.88 391.18C297.8 402.35 326.72 402.16 355.65 413.33V438.46L355.64 438.47Z" fill="#FF4848"/>
<path d="M368.01 438.47C381.8 435.46 397.27 442.4 413.9 435.86C429.16 429.86 442.82 423.09 454.77 416.31C455.64 414.21 457.15 409.87 457.2 404.05C457.25 397.89 455.64 393.29 454.77 391.18C425.85 402.35 396.93 402.16 368 413.33V438.46L368.01 438.47Z" fill="#FF4848"/>
<path d="M367.72 446.54H352.08C347.71 446.54 344.32 442.73 344.83 438.39L347.51 415.67C347.94 411.99 351.06 409.22 354.76 409.22H365.05C368.75 409.22 371.87 411.99 372.3 415.67L374.98 438.39C375.49 442.73 372.1 446.54 367.73 446.54H367.72Z" fill="#EA4949"/>
<path d="M352.97 445.05H366.26C370.16 445.05 373.56 447.73 374.46 451.53L381.26 480.11C381.83 482.5 381.54 485.02 380.43 487.21L366.91 514.07C363.82 520.2 355.02 520.04 352.15 513.81L339.98 487.31C339.08 485.35 338.81 483.15 339.21 481.03L344.68 451.92C345.43 447.94 348.91 445.05 352.96 445.05H352.97Z" fill="#FF4848"/>
<path d="M380.16 514.21C371.63 525.03 350.41 524.32 340.73 511.92C332.11 500.88 333.86 482.12 345.56 475.16C356.44 468.68 371.22 475.2 378.24 484.77C384.12 492.78 386.73 505.87 380.15 514.21H380.16Z" fill="#457DB1"/>
<path d="M377.21 627.39L373.3 545.81C372.89 537.36 365.07 522.3 355.56 522.3C348.32 522.3 342.48 516.37 342.59 509.13L344.86 362.64C344.96 355.98 340.18 350.52 334.25 350.52H329.16C323.23 350.52 318.45 355.98 318.55 362.64L320.82 509.13C320.93 516.37 315.09 522.3 307.85 522.3C298.34 522.3 290.51 537.36 290.11 545.81L286.2 627.39C285.77 636.36 293.84 643.85 303.94 643.85H359.47C369.58 643.85 377.64 636.37 377.21 627.39ZM331.7 371.8C329.43 371.8 327.59 368.73 327.59 364.95C327.59 361.17 329.43 358.1 331.7 358.1C333.97 358.1 335.81 361.17 335.81 364.95C335.81 368.73 333.97 371.8 331.7 371.8Z" fill="#AFB2BC"/>
<path d="M331.75 464.62C340.74 475.06 336 495.75 321.99 502.89C309.51 509.25 291.43 503.95 286.82 491.14C282.53 479.22 291.75 465.96 302.48 460.89C311.47 456.64 324.82 456.57 331.75 464.62Z" fill="#457DB1"/>
<path d="M158.21 611.66H104.84C98.2124 611.66 92.8398 617.032 92.8398 623.66V679.57C92.8398 686.197 98.2124 691.57 104.84 691.57H158.21C164.837 691.57 170.21 686.197 170.21 679.57V623.66C170.21 617.032 164.837 611.66 158.21 611.66Z" fill="#A73231"/>
<path d="M624.39 611.66H571.02C564.393 611.66 559.02 617.032 559.02 623.66V679.57C559.02 686.197 564.393 691.57 571.02 691.57H624.39C631.017 691.57 636.39 686.197 636.39 679.57V623.66C636.39 617.032 631.017 611.66 624.39 611.66Z" fill="#A73231"/>
<path d="M124.9 548.38H604.07V787.8C604.07 840.97 560.91 884.13 507.74 884.13H221.23C168.06 884.13 124.9 840.97 124.9 787.8V548.38Z" fill="#D65251"/>
<path d="M604.07 548.38H124.9V578.52H604.07V548.38Z" fill="white"/>
</svg>
