<svg width="698" height="888" viewBox="0 0 698 888" fill="none" xmlns="http://www.w3.org/2000/svg">
<path d="M319.2 699.53C307.87 705.06 296.34 705.29 288.7 704.61C281.97 704.82 271.41 704.2 260.94 699.14C254.79 696.17 251.67 693.12 250.14 691.43C248.46 689.59 245.16 685.88 243.79 680.07C243.38 678.33 243.16 676.51 243.16 674.64C243.16 661.57 253.86 650.87 266.93 650.87H311.83C324.9 650.87 335.6 661.57 335.6 674.64C335.55 677.84 334.97 685.22 329.76 691.71C328.69 693.05 325.86 696.29 319.2 699.53Z" fill="#7F7F7F"/>
<path d="M450.05 699.53C438.72 705.06 427.19 705.29 419.55 704.61C412.82 704.82 402.26 704.2 391.79 699.14C385.64 696.17 382.52 693.12 380.99 691.43C379.31 689.59 376.01 685.88 374.64 680.07C374.23 678.33 374.01 676.51 374.01 674.64C374.01 661.57 384.71 650.87 397.78 650.87H442.68C455.75 650.87 466.45 661.57 466.45 674.64C466.4 677.84 465.82 685.22 460.61 691.71C459.54 693.05 456.71 696.29 450.05 699.53Z" fill="#7F7F7F"/>
<path d="M471.29 667.28H230.18C214.36 667.28 201.82 653.94 202.79 638.16L213.57 463.12C215.9 425.24 247.31 395.71 285.26 395.71H416.19C454.14 395.71 485.55 425.24 487.88 463.12L498.66 638.16C499.63 653.95 487.09 667.28 471.27 667.28H471.29Z" fill="white"/>
<path d="M343.16 441.98C329.37 438.97 313.9 445.91 297.27 439.37C282.01 433.37 268.35 426.6 256.4 419.82C255.53 417.72 254.02 413.38 253.97 407.56C253.92 401.4 255.53 396.8 256.4 394.69C285.32 405.86 314.24 405.67 343.17 416.84V441.97L343.16 441.98Z" fill="#FF4848"/>
<path d="M355.53 441.98C369.32 438.97 384.79 445.91 401.42 439.37C416.68 433.37 430.34 426.6 442.29 419.82C443.16 417.72 444.67 413.38 444.72 407.56C444.77 401.4 443.16 396.8 442.29 394.69C413.37 405.86 384.45 405.67 355.52 416.84V441.97L355.53 441.98Z" fill="#FF4848"/>
<path d="M355.24 450.06H339.6C335.23 450.06 331.84 446.25 332.35 441.91L335.03 419.19C335.46 415.51 338.58 412.74 342.28 412.74H352.57C356.27 412.74 359.39 415.51 359.82 419.19L362.5 441.91C363.01 446.25 359.62 450.06 355.25 450.06H355.24Z" fill="#EA4949"/>
<path d="M340.49 448.57H353.78C357.68 448.57 361.08 451.25 361.98 455.05L368.78 483.63C369.35 486.02 369.06 488.54 367.95 490.73L354.43 517.59C351.34 523.72 342.54 523.56 339.67 517.33L327.5 490.83C326.6 488.87 326.33 486.67 326.73 484.55L332.2 455.44C332.95 451.46 336.43 448.57 340.48 448.57H340.49Z" fill="#FF4848"/>
<path d="M299.56 474.23C305.32 474.23 309.99 469.56 309.99 463.8C309.99 458.04 305.32 453.37 299.56 453.37C293.8 453.37 289.13 458.04 289.13 463.8C289.13 469.56 293.8 474.23 299.56 474.23Z" fill="#E8E8E8"/>
<path d="M390.45 474.23C396.21 474.23 400.88 469.56 400.88 463.8C400.88 458.04 396.21 453.37 390.45 453.37C384.69 453.37 380.02 458.04 380.02 463.8C380.02 469.56 384.69 474.23 390.45 474.23Z" fill="#E8E8E8"/>
<path d="M299.56 511.13C305.32 511.13 309.99 506.46 309.99 500.7C309.99 494.94 305.32 490.27 299.56 490.27C293.8 490.27 289.13 494.94 289.13 500.7C289.13 506.46 293.8 511.13 299.56 511.13Z" fill="#E8E8E8"/>
<path d="M390.45 511.13C396.21 511.13 400.88 506.46 400.88 500.7C400.88 494.94 396.21 490.27 390.45 490.27C384.69 490.27 380.02 494.94 380.02 500.7C380.02 506.46 384.69 511.13 390.45 511.13Z" fill="#E8E8E8"/>
<path d="M299.56 551.05C305.32 551.05 309.99 546.38 309.99 540.62C309.99 534.86 305.32 530.19 299.56 530.19C293.8 530.19 289.13 534.86 289.13 540.62C289.13 546.38 293.8 551.05 299.56 551.05Z" fill="#E8E8E8"/>
<path d="M390.45 551.05C396.21 551.05 400.88 546.38 400.88 540.62C400.88 534.86 396.21 530.19 390.45 530.19C384.69 530.19 380.02 534.86 380.02 540.62C380.02 546.38 384.69 551.05 390.45 551.05Z" fill="#E8E8E8"/>
<path d="M495.69 583.84C456.6 590.59 407.08 595.93 351.75 596.03C295.08 596.13 245.74 590.56 205.99 583.7C205.99 578.68 206.79 574.05 206.79 569.02C247.06 575.58 295.53 580.37 351.75 580.27C406.65 580.18 454.85 575.07 494.44 568.62C494.44 573.64 495.69 578.82 495.69 583.84Z" fill="#E8E8E8"/>
<path d="M307.104 199.741C319.31 162.919 297.277 122.485 257.892 109.429C218.506 96.3728 176.683 115.639 164.476 152.461C152.27 189.283 174.303 229.717 213.689 242.773C253.074 255.829 294.898 236.563 307.104 199.741Z" fill="#FFA744"/>
<path d="M479.911 242.835C519.297 229.779 541.33 189.345 529.124 152.523C516.917 115.7 475.094 96.4343 435.708 109.49C396.323 122.546 374.29 162.981 386.496 199.803C398.702 236.625 440.526 255.891 479.911 242.835Z" fill="#FFA744"/>
<path d="M304.8 268.58C307.471 255.907 302.267 244.081 293.177 242.166C284.088 240.25 274.554 248.971 271.883 261.643C269.213 274.316 274.417 286.142 283.506 288.058C292.596 289.973 302.13 281.253 304.8 268.58Z" fill="#262727"/>
<path d="M415.651 288.066C424.741 286.15 429.945 274.324 427.275 261.651C424.604 248.979 415.07 240.258 405.981 242.174C396.891 244.089 391.687 255.915 394.357 268.588C397.028 281.261 406.562 289.981 415.651 288.066Z" fill="#262727"/>
<path d="M385.64 285.56C384.91 297.97 366.82 307.27 352 307.14C337.03 307.01 318.62 297.21 318.36 284.29C318.09 271.44 335.86 260.38 351.17 260.18C367.81 259.96 386.42 272.52 385.65 285.56H385.64Z" fill="#FAE0EB"/>
<path d="M360.05 274.27C359.88 277.3 355.38 279.54 351.76 279.54C348.14 279.54 343.64 277.31 343.47 274.27C343.29 271.14 347.76 268.13 351.76 268.13C355.77 268.13 360.23 271.15 360.05 274.27Z" fill="#ED83AC"/>
<path d="M414.78 282.36C410.02 283.26 404.53 279.86 404.55 276.8C404.57 273.89 409.58 271.74 412.66 271.09C415.78 270.43 421.2 270.42 422.36 273.01C423.61 275.82 419.77 281.41 414.78 282.35V282.36Z" fill="#F6C6DB"/>
<path d="M284.77 282.58C289.53 283.48 295.02 280.08 295 277.02C294.98 274.11 289.97 271.96 286.89 271.31C283.77 270.65 278.35 270.64 277.19 273.23C275.94 276.04 279.78 281.63 284.77 282.57V282.58Z" fill="#F6C6DB"/>
<path d="M417.49 259.28C417.66 259.95 418.49 263.27 416.4 266.03C416.12 266.4 414.67 268.23 412.07 268.67C408.82 269.22 406.45 267.15 406 266.74C403.73 264.66 403.55 261.88 403.52 261.22C403.35 257.66 405.48 252.78 409.49 252.28C413.51 251.77 416.66 256.01 417.49 259.29V259.28Z" fill="white"/>
<path d="M282.79 258.14C282 260.93 282.2 265.35 285.37 267.58C288.13 269.52 291.38 268.57 291.66 268.48C295.29 267.35 296.99 263.6 297.28 260.84C297.68 257.03 295.76 251.84 291.68 251.05C287.56 250.25 283.83 254.45 282.79 258.15V258.14Z" fill="white"/>
<path d="M522.82 306.7C522.82 300.87 520.54 295.38 516.54 290.58C513.32 286.72 511.49 281.9 511.62 276.87C512.11 257.41 509.46 223.97 487.84 193.88C447.41 137.6 373.26 138.46 346.16 138.78C319.96 139.09 248.48 139.92 207.1 195.63C185.65 224.51 181.16 256.19 180.48 275.33C180.3 280.33 178.32 285.1 174.85 288.69C169.8 293.92 166.88 300.09 166.88 306.7C166.88 312.5 169.13 317.96 173.1 322.75C176.05 326.31 177.39 330.87 177.38 335.49C177.38 335.52 177.38 335.54 177.38 335.57C177.38 350.63 192.53 363.41 213.54 367.92C216.33 368.52 218.98 369.66 221.28 371.36C257.29 398.01 309.86 410.03 350.89 409.23C389.72 408.46 438.8 395.8 472.59 370.43C474.68 368.86 477.08 367.78 479.6 367.11C498.82 362 512.35 349.81 512.35 335.57C512.35 335.54 512.35 335.52 512.35 335.49C512.33 330.87 513.68 326.31 516.63 322.75C520.6 317.97 522.85 312.51 522.85 306.7H522.82Z" fill="#FFA744"/>
<mask id="mask0_1803_13364" style="mask-type:luminance" maskUnits="userSpaceOnUse" x="166" y="138" width="357" height="272">
<path d="M522.82 306.7C522.82 300.87 520.54 295.38 516.54 290.58C513.32 286.72 511.49 281.9 511.62 276.87C512.11 257.41 509.46 223.97 487.84 193.88C447.41 137.6 373.26 138.46 346.16 138.78C319.96 139.09 248.48 139.92 207.1 195.63C185.65 224.51 181.16 256.19 180.48 275.33C180.3 280.33 178.32 285.1 174.85 288.69C169.8 293.92 166.88 300.09 166.88 306.7C166.88 312.5 169.13 317.96 173.1 322.75C176.05 326.31 177.39 330.87 177.38 335.49C177.38 335.52 177.38 335.54 177.38 335.57C177.38 350.63 192.53 363.41 213.54 367.92C216.33 368.52 218.98 369.66 221.28 371.36C257.29 398.01 309.86 410.03 350.89 409.23C389.72 408.46 438.8 395.8 472.59 370.43C474.68 368.86 477.08 367.78 479.6 367.11C498.82 362 512.35 349.81 512.35 335.57C512.35 335.54 512.35 335.52 512.35 335.49C512.33 330.87 513.68 326.31 516.63 322.75C520.6 317.97 522.85 312.51 522.85 306.7H522.82Z" fill="white"/>
</mask>
<g mask="url(#mask0_1803_13364)">
<path d="M157.82 280.66C175.87 263.56 199.88 254.14 224.72 254.23C232.44 254.26 232.45 242.26 224.72 242.23C196.71 242.13 169.66 252.93 149.33 272.18C143.71 277.5 152.21 285.98 157.82 280.67V280.66Z" fill="#3A3A3A"/>
<path d="M167.09 304.62C185.14 287.52 209.15 278.1 233.99 278.19C241.71 278.22 241.72 266.22 233.99 266.19C205.98 266.09 178.93 276.89 158.6 296.14C152.98 301.46 161.48 309.94 167.09 304.63V304.62Z" fill="#3A3A3A"/>
<path d="M540.35 272.17C520.02 252.92 492.97 242.12 464.96 242.22C457.24 242.25 457.22 254.25 464.96 254.22C489.81 254.13 513.81 263.56 531.86 280.65C537.47 285.96 545.97 277.49 540.35 272.16V272.17Z" fill="#3A3A3A"/>
<path d="M531.08 296.14C510.75 276.89 483.7 266.09 455.69 266.19C447.97 266.22 447.95 278.22 455.69 278.19C480.54 278.1 504.54 287.53 522.59 304.62C528.2 309.93 536.7 301.46 531.08 296.13V296.14Z" fill="#3A3A3A"/>
<path d="M343.51 123.62C344.23 159.65 344.96 195.68 345.68 231.7C345.84 239.41 357.84 239.44 357.68 231.7C356.96 195.67 356.23 159.64 355.51 123.62C355.35 115.91 343.35 115.88 343.51 123.62Z" fill="#3A3A3A"/>
<path d="M316.86 166.5C340.8 159.18 366.14 158.95 390.2 165.87C397.63 168.01 400.81 156.43 393.39 154.3C367.37 146.81 339.57 147.01 313.67 154.93C306.31 157.18 309.45 168.77 316.86 166.5Z" fill="#3A3A3A"/>
<path d="M316.86 192.06C340.44 182.32 366.45 182.08 390.2 191.43C397.39 194.26 400.5 182.66 393.39 179.86C367.93 169.83 338.96 170.04 313.67 180.49C306.63 183.4 309.72 195.01 316.86 192.06Z" fill="#3A3A3A"/>
<path d="M316.86 218.45C340.45 208.77 366.44 208.53 390.2 217.82C397.39 220.63 400.51 209.04 393.39 206.25C367.92 196.29 338.98 196.5 313.67 206.88C306.62 209.77 309.71 221.38 316.86 218.45Z" fill="#3A3A3A"/>
</g>
<path d="M252.05 166.9C254.34 165.95 256.04 163.85 256.2 161.38C256.32 159.54 255.7 157.66 254.29 156.23C250.52 152.38 245.57 149.39 239.81 147.8C224.06 143.47 208.17 151.3 204.32 165.29C201.67 174.92 205.42 184.97 213.16 191.7C213.98 192.41 214.93 192.89 215.92 193.13C218.53 193.76 221.23 192.57 222.77 190.37C225.58 186.38 229.8 181.31 235.84 176.48C241.79 171.73 247.58 168.76 252.05 166.9Z" fill="white"/>
<path d="M436.53 166.9C434.24 165.95 432.54 163.85 432.38 161.38C432.26 159.54 432.88 157.66 434.29 156.23C438.06 152.38 443.01 149.39 448.77 147.8C464.52 143.47 480.41 151.3 484.26 165.29C486.91 174.92 483.16 184.97 475.42 191.7C474.6 192.41 473.65 192.89 472.66 193.13C470.05 193.76 467.35 192.57 465.81 190.37C463 186.38 458.78 181.31 452.74 176.48C446.79 171.73 441 168.76 436.53 166.9Z" fill="white"/>
<path d="M390.53 285.36C386.7 278.81 380.51 276.22 375.9 274.37C369.04 271.61 362.7 271.58 350.31 271.65C337.63 271.71 331.14 271.81 324.22 274.88C320.18 276.67 314.59 279.24 311 285.37C309.88 287.29 305.3 295.09 309.13 302.75C312.11 308.7 318.58 311.58 323.81 311.66C329.93 311.76 334.52 308.07 339.95 303.71C342.8 301.42 344.91 299.19 346.35 297.53C348.82 295.15 352.72 295.15 355.19 297.53C356.54 298.81 358.8 300.97 361.59 303.71C365.68 307.73 366.64 308.79 368.62 309.84C372.61 311.94 376.56 311.74 377.72 311.66C384.17 311.19 389.91 307.73 392.4 302.75C396.23 295.08 391.64 287.26 390.53 285.37V285.36Z" fill="white"/>
<path d="M345.97 282.23L339.36 273.42C336.4 269.47 339.22 263.84 344.15 263.84H357.36C362.29 263.84 365.11 269.47 362.15 273.42L355.54 282.23C353.15 285.42 348.36 285.42 345.96 282.23H345.97Z" fill="#3A3A3A"/>
<path d="M279.92 247.73C279.92 261.81 288.28 273.22 298.6 273.22C308.92 273.22 317.28 261.81 317.28 247.73C317.28 244.21 316.76 240.85 315.81 237.79L281.4 232.88C280.45 235.93 279.93 244.2 279.93 247.72L279.92 247.73Z" fill="#262727"/>
<path d="M421.24 247.73C421.24 261.81 412.88 273.22 402.56 273.22C392.24 273.22 383.88 261.81 383.88 247.73C383.88 244.21 384.4 240.85 385.35 237.79L419.76 232.88C420.71 235.93 421.23 244.2 421.23 247.72L421.24 247.73Z" fill="#262727"/>
<path d="M290.75 249.82C292.528 249.82 293.97 247.716 293.97 245.12C293.97 242.524 292.528 240.42 290.75 240.42C288.971 240.42 287.53 242.524 287.53 245.12C287.53 247.716 288.971 249.82 290.75 249.82Z" fill="white"/>
<path d="M393.37 250.42C395.148 250.42 396.59 248.316 396.59 245.72C396.59 243.124 395.148 241.02 393.37 241.02C391.592 241.02 390.15 243.124 390.15 245.72C390.15 248.316 391.592 250.42 393.37 250.42Z" fill="white"/>
<path d="M296.65 267.37C302.38 268.45 308.99 264.35 308.96 260.68C308.94 257.18 302.9 254.59 299.2 253.8C295.44 253.01 288.92 252.99 287.52 256.12C286.01 259.5 290.64 266.24 296.64 267.37H296.65Z" fill="#595959"/>
<path d="M405.02 267.37C399.29 268.45 392.68 264.35 392.71 260.68C392.73 257.18 398.77 254.59 402.47 253.8C406.23 253.01 412.75 252.99 414.15 256.12C415.66 259.5 411.03 266.24 405.03 267.37H405.02Z" fill="#595959"/>
<path d="M406.53 21.16C400.47 21.16 394.72 22.49 389.55 24.87C381.7 10.07 366.23 0 348.43 0C330.63 0 315.32 9.96 307.43 24.63C302.39 22.39 296.83 21.15 290.97 21.15C268.37 21.15 250.06 49.92 250.06 72.71C250.06 95.5 268.38 113.98 290.97 113.98C304.45 113.98 316.4 107.41 323.85 97.27C330.99 101.75 339.41 104.33 348.43 104.33C357.45 104.33 366.22 101.64 373.45 96.99C380.89 107.29 392.94 113.98 406.53 113.98C429.13 113.98 447.44 95.5 447.44 72.71C447.44 49.92 429.12 21.15 406.53 21.15V21.16Z" fill="white"/>
<path d="M406.98 148.2C398.96 142.91 378.51 140.26 348.86 140.14C318.67 140.02 297.85 142.93 289.84 148.2C288.18 130.14 286.43 120.14 284.56 99.8801C297.19 94.0601 318.96 86.2101 347.39 86.0301C376.92 85.8401 399.48 93.9901 412.27 99.8801C410.4 120.15 408.64 130.14 406.97 148.2H406.98Z" fill="white"/>
<g opacity="0.8">
<path d="M390.9 37.3101C391.7 43.4501 392.04 52.0901 389.84 62.1601C387.18 74.3301 381.9 83.6001 377.88 89.4301" fill="white"/>
<path d="M390.9 37.3101C396.17 55.2301 390.71 75.9601 377.88 89.4301C381.73 81.1401 385.18 72.9001 387.39 64.1001C389.66 55.3201 390.55 46.4501 390.9 37.3101Z" fill="#DADADA"/>
</g>
<g opacity="0.8">
<path d="M306.2 38.1099C305.4 44.2499 305.06 52.8899 307.26 62.9599C309.92 75.1299 315.2 84.3999 319.22 90.2299" fill="white"/>
<path d="M306.2 38.1099C306.54 47.2499 307.44 56.1199 309.71 64.8999C311.92 73.6999 315.37 81.9299 319.22 90.2299C306.4 76.7699 300.93 56.0299 306.2 38.1099Z" fill="#DADADA"/>
</g>
<g opacity="0.8">
<path d="M293.84 112.5C326.21 94.3301 368.09 94.3001 400.45 112.5C391.92 109.02 383.17 106.26 374.25 104.4C347.37 98.6401 319.17 101.96 293.85 112.5H293.84Z" fill="#D7D7D7"/>
</g>
<path d="M445.59 419.86L403.53 456.61C394.32 464.66 396.34 479.97 408.01 490.65L410.15 492.61C421.82 503.29 438.91 505.44 448.12 497.39L490.18 460.64C499.39 452.59 497.37 437.28 485.7 426.6L483.56 424.64C471.89 413.96 454.8 411.81 445.59 419.86Z" fill="white"/>
<path d="M445.59 419.86L403.53 456.61C394.32 464.66 396.34 479.97 408.01 490.65L410.15 492.61C421.82 503.29 438.91 505.44 448.12 497.39L490.18 460.64C499.39 452.59 497.37 437.28 485.7 426.6L483.56 424.64C471.89 413.96 454.8 411.81 445.59 419.86Z" stroke="white" stroke-miterlimit="10"/>
<path d="M436.99 501.87C427.89 512.22 406.74 510.38 397.74 497.48C389.72 485.99 392.47 467.36 404.52 461.03C415.73 455.14 430.14 462.44 436.64 472.37C442.08 480.68 444 493.9 436.98 501.87H436.99Z" fill="#FFA744"/>
<path d="M445.53 630.91L441.62 549.33C441.21 540.88 433.39 525.82 423.88 525.82C416.64 525.82 410.8 519.89 410.91 512.65L413.18 366.16C413.28 359.5 408.5 354.04 402.57 354.04H397.48C391.55 354.04 386.77 359.5 386.87 366.16L389.14 512.65C389.25 519.89 383.41 525.82 376.17 525.82C366.66 525.82 358.83 540.88 358.43 549.33L354.52 630.91C354.09 639.88 362.16 647.37 372.26 647.37H427.79C437.9 647.37 445.96 639.89 445.53 630.91ZM400.02 375.32C397.75 375.32 395.91 372.25 395.91 368.47C395.91 364.69 397.75 361.62 400.02 361.62C402.29 361.62 404.13 364.69 404.13 368.47C404.13 372.25 402.29 375.32 400.02 375.32Z" fill="#AFB2BC"/>
<path d="M145.73 615.18H92.3599C85.7324 615.18 80.3599 620.552 80.3599 627.18V683.09C80.3599 689.717 85.7324 695.09 92.3599 695.09H145.73C152.357 695.09 157.73 689.717 157.73 683.09V627.18C157.73 620.552 152.357 615.18 145.73 615.18Z" fill="#A73231"/>
<path d="M611.91 615.18H558.54C551.913 615.18 546.54 620.552 546.54 627.18V683.09C546.54 689.717 551.913 695.09 558.54 695.09H611.91C618.537 695.09 623.91 689.717 623.91 683.09V627.18C623.91 620.552 618.537 615.18 611.91 615.18Z" fill="#A73231"/>
<path d="M112.42 551.9H591.59V791.32C591.59 844.49 548.43 887.65 495.26 887.65H208.75C155.58 887.65 112.42 844.49 112.42 791.32V551.9Z" fill="#D65251"/>
<path d="M591.59 551.9H112.42V582.04H591.59V551.9Z" fill="white"/>
<path d="M277 426.72L358.75 467.52C376.65 476.45 384.71 493.87 376.67 506.22L375.2 508.49C367.16 520.84 345.93 523.64 328.03 514.71L246.28 473.91C228.38 464.98 220.32 447.56 228.36 435.21L229.83 432.94C237.87 420.59 259.1 417.79 277 426.72Z" fill="white"/>
<path d="M353.52 517.73C362.05 528.55 383.27 527.84 392.95 515.44C401.57 504.4 399.82 485.64 388.12 478.68C377.24 472.2 362.46 478.72 355.44 488.29C349.56 496.3 346.95 509.39 353.53 517.73H353.52Z" fill="#FFA744"/>
<path d="M559.32 247.71C559.32 233.25 570.79 220.91 586.94 216.03C591.66 201.35 608.53 190.49 628.61 190.49C652.35 190.49 671.6 205.67 671.6 224.4C671.6 225.28 671.56 226.16 671.47 227.03C686.96 232.16 697.85 244.23 697.85 258.32C697.85 277.05 678.6 292.23 654.86 292.23C651.35 292.23 647.94 291.9 644.68 291.27C636.79 298.61 625.03 303.27 611.87 303.27C588.13 303.27 568.88 288.09 568.88 269.36C568.88 269.25 568.88 269.15 568.88 269.04C562.9 263.21 559.32 255.8 559.32 247.72V247.71Z" fill="#E2E2E2"/>
<path d="M546.59 493.56C558.254 493.56 567.71 484.104 567.71 472.44C567.71 460.776 558.254 451.32 546.59 451.32C534.926 451.32 525.47 460.776 525.47 472.44C525.47 484.104 534.926 493.56 546.59 493.56Z" fill="#E2E2E2"/>
<path d="M147.17 493.56C158.834 493.56 168.29 484.104 168.29 472.44C168.29 460.776 158.834 451.32 147.17 451.32C135.506 451.32 126.05 460.776 126.05 472.44C126.05 484.104 135.506 493.56 147.17 493.56Z" fill="#E2E2E2"/>
<path d="M104.12 399.78C122.865 399.78 138.06 390.324 138.06 378.66C138.06 366.996 122.865 357.54 104.12 357.54C85.3756 357.54 70.1802 366.996 70.1802 378.66C70.1802 390.324 85.3756 399.78 104.12 399.78Z" fill="#E2E2E2"/>
<path d="M0 273.79C0 257.18 19.07 243.71 42.6 243.71C64.45 243.71 82.44 255.32 84.91 270.28C104.38 272.66 119.04 283.06 119.04 295.54C119.04 309.77 99.96 321.31 76.43 321.31C57.5 321.31 41.46 313.84 35.91 303.51C15.56 301.23 0 288.8 0 273.79Z" fill="#E2E2E2"/>
<path d="M532.07 380.5C532.07 363.89 551.14 350.42 574.67 350.42C596.52 350.42 614.51 362.03 616.98 376.99C636.45 379.37 651.11 389.77 651.11 402.25C651.11 416.48 632.03 428.02 608.5 428.02C589.57 428.02 573.53 420.55 567.98 410.22C547.63 407.95 532.07 395.52 532.07 380.51V380.5Z" fill="#E2E2E2"/>
</svg>
