<svg width="696" height="854" viewBox="0 0 696 854" fill="none" xmlns="http://www.w3.org/2000/svg">
<path d="M538.91 102.04C555.51 115.48 548.52 223.62 511.7 237.91C469.35 254.36 391.97 185.98 404.31 141.51C414.79 103.73 522.31 88.5999 538.91 102.04Z" fill="#353535"/>
<path d="M512.82 258.26C513.43 292.61 496.09 318.45 491.05 325.75C453.07 380.77 383.68 380.55 361.13 380.48C308.76 380.31 217.57 358.66 200.77 292.97C191.35 256.17 209.52 222.1 218.01 206.19C244.78 155.99 300.26 117.69 361.14 119.81C437.86 122.48 511.6 188.92 512.83 258.26H512.82Z" fill="white"/>
<mask id="mask0_1804_13445" style="mask-type:luminance" maskUnits="userSpaceOnUse" x="198" y="119" width="315" height="262">
<path d="M512.82 258.26C513.43 292.61 496.09 318.45 491.05 325.75C453.07 380.77 383.68 380.55 361.13 380.48C308.76 380.31 217.57 358.66 200.77 292.97C191.35 256.17 209.52 222.1 218.01 206.19C244.78 155.99 300.26 117.69 361.14 119.81C437.86 122.48 511.6 188.92 512.83 258.26H512.82Z" fill="white"/>
</mask>
<g mask="url(#mask0_1804_13445)">
<path d="M407.12 108.53C401.68 120.85 400.72 134.52 403.41 147.65C406.1 160.78 412.52 173.61 421.24 184.09C430.51 195.23 442.73 203.68 455.87 209.63C469.73 215.91 484.61 219.51 499.68 221.36C507.1 222.27 514.59 222.78 522.06 222.84C528.68 222.9 535.36 222.45 541.84 221.05C548.02 219.71 554.14 217.41 559.2 213.55C564.26 209.69 568.15 204.3 569.89 198.09C573.49 185.18 568.16 170.98 559.49 161.31C549.45 150.11 534.61 144.39 520.55 140.19C512.46 137.77 504.27 135.67 496.12 133.45C487.21 131.03 478.31 128.62 469.4 126.2C451.51 121.35 433.62 116.49 415.73 111.64C411.4 110.46 407.07 109.29 402.73 108.11C400.86 107.6 400.07 110.5 401.93 111C419.18 115.68 436.43 120.36 453.68 125.04C470.93 129.72 488.18 134.4 505.43 139.08C519.78 142.97 534.65 146.65 547.24 154.89C558.26 162.1 566.86 173.61 567.91 187.07C568.39 193.26 567.09 199.45 563.61 204.64C560.23 209.68 555.13 213.3 549.56 215.56C537.39 220.51 523.63 220.23 510.75 219.37C496.1 218.4 481.48 215.89 467.59 211.06C454.07 206.37 441.09 199.34 430.57 189.55C420.99 180.63 413.52 169.33 409.15 156.98C404.87 144.87 403.53 131.58 406.66 119.03C407.43 115.95 408.45 112.92 409.73 110.01C410.5 108.26 407.92 106.73 407.14 108.5L407.12 108.53Z" fill="white"/>
<path d="M416.4 112.95C399.43 126.68 392.83 150.86 397.45 172.2C402.07 193.53 416.66 211.86 434.71 224.12C452.77 236.39 474.08 243.08 495.56 246.97C502.8 248.28 510.51 249.25 517.32 246.46C525.54 243.11 530.78 234.96 534.15 226.75C543.12 204.93 542.24 179.27 531.79 158.11C521.34 136.96 501.49 120.67 478.7 114.54C458.86 109.21 437.87 111.36 417.44 113.56" fill="#353535"/>
</g>
<path d="M180.88 102.04C164.28 115.48 171.27 223.62 208.09 237.91C250.44 254.36 327.82 185.98 315.48 141.51C305 103.73 197.48 88.5999 180.88 102.04Z" fill="#FFDC83"/>
<path d="M199.83 121.4C191 128.55 194.72 186.08 214.3 193.69C236.83 202.44 278 166.06 271.44 142.4C265.86 122.3 208.66 114.25 199.83 121.4Z" fill="#FFBBD2"/>
<path d="M521.09 121.4C529.92 128.55 526.2 186.08 506.61 193.69C484.08 202.44 442.91 166.06 449.47 142.4C455.05 122.3 512.25 114.25 521.08 121.4H521.09Z" fill="#FFBBD2"/>
<path d="M443.25 230.76C441.27 243.41 428.56 252.65 415.23 252.65C402.46 252.65 391.81 244.14 390.87 232.58" fill="#86C663"/>
<path d="M390.87 232.58C389.82 219.66 401.04 207.06 416.78 205.84C433.39 204.55 445.49 216.47 443.25 230.76" fill="#4D962C"/>
<path d="M277.3 230.76C279.28 243.41 291.99 252.65 305.32 252.65C318.09 252.65 328.74 244.14 329.68 232.58" fill="#86C663"/>
<path d="M329.69 232.58C330.74 219.66 319.52 207.06 303.78 205.84C287.17 204.55 275.07 216.47 277.31 230.76" fill="#4D962C"/>
<path d="M416.02 248.04C424.702 248.04 431.74 240.259 431.74 230.66C431.74 221.061 424.702 213.28 416.02 213.28C407.338 213.28 400.3 221.061 400.3 230.66C400.3 240.259 407.338 248.04 416.02 248.04Z" fill="black"/>
<path d="M430.5 230.18C433.256 230.18 435.49 227.946 435.49 225.19C435.49 222.434 433.256 220.2 430.5 220.2C427.744 220.2 425.51 222.434 425.51 225.19C425.51 227.946 427.744 230.18 430.5 230.18Z" fill="white"/>
<path d="M303.35 248.04C312.032 248.04 319.07 240.259 319.07 230.66C319.07 221.061 312.032 213.28 303.35 213.28C294.668 213.28 287.63 221.061 287.63 230.66C287.63 240.259 294.668 248.04 303.35 248.04Z" fill="black"/>
<path d="M314.5 230.18C317.256 230.18 319.49 227.946 319.49 225.19C319.49 222.434 317.256 220.2 314.5 220.2C311.744 220.2 309.51 222.434 309.51 225.19C309.51 227.946 311.744 230.18 314.5 230.18Z" fill="white"/>
<path d="M365.72 239.5C347.02 238.03 334.76 260.23 338.45 269.02C343.48 281 383.53 280.91 388.83 268.06C392.38 259.46 382.15 240.79 365.73 239.5H365.72Z" fill="#FFDC83"/>
<path d="M373.39 250.46C374.08 253.46 369.1 258.21 363.9 258.34C358.38 258.48 353.05 253.39 353.74 250.32C354.41 247.39 360.56 246.41 364.3 246.58C366.83 246.7 372.72 247.54 373.39 250.45V250.46Z" fill="#FFBBD2"/>
<path d="M411.8 19C406.36 19 401.19 20.19 396.55 22.34C389.5 9.05 375.6 0 359.61 0C343.62 0 329.87 8.95 322.78 22.12C318.26 20.11 313.26 18.99 308 18.99C287.7 18.99 271.25 44.83 271.25 65.31C271.25 85.79 287.7 102.38 308 102.38C320.1 102.38 330.84 96.48 337.54 87.37C343.95 91.39 351.51 93.71 359.62 93.71C367.73 93.71 375.6 91.29 382.09 87.12C388.77 96.37 399.59 102.38 411.81 102.38C432.11 102.38 448.56 85.78 448.56 65.31C448.56 44.84 432.11 18.99 411.81 18.99L411.8 19Z" fill="white"/>
<path d="M412.2 133.12C404.99 128.37 386.63 125.98 359.99 125.88C332.88 125.77 314.17 128.38 306.97 133.12C305.48 116.9 303.9 107.92 302.23 89.71C313.57 84.48 333.13 77.43 358.67 77.27C385.19 77.1 405.46 84.42 416.95 89.71C415.27 107.91 413.68 116.89 412.19 133.12H412.2Z" fill="white"/>
<g opacity="0.8">
<path d="M397.76 33.51C398.48 39.02 398.79 46.79 396.81 55.83C394.42 66.76 389.68 75.08 386.07 80.33" fill="white"/>
<path d="M397.76 33.51C402.78 49.56 397.82 68.4 386.07 80.33C389.39 72.81 392.44 65.43 394.42 57.53C396.46 49.64 397.3 41.72 397.76 33.51Z" fill="#DADADA"/>
</g>
<g opacity="0.8">
<path d="M321.68 34.22C320.96 39.73 320.65 47.5 322.63 56.54C325.02 67.47 329.76 75.79 333.37 81.04" fill="white"/>
<path d="M321.68 34.22C322.14 42.43 322.98 50.35 325.02 58.24C327 66.14 330.05 73.52 333.37 81.04C321.62 69.12 316.65 50.28 321.68 34.22Z" fill="#DADADA"/>
</g>
<g opacity="0.8">
<path d="M310.58 101.04C339.57 84.53 377.35 84.5 406.34 101.04C398.65 97.97 390.79 95.52 382.78 93.87C358.64 88.75 333.37 91.72 310.58 101.04Z" fill="#D7D7D7"/>
</g>
<path d="M331.68 665.79C320.35 671.32 308.82 671.55 301.18 670.87C294.45 671.08 283.89 670.46 273.42 665.4C267.27 662.43 264.15 659.38 262.62 657.69C260.94 655.85 257.64 652.14 256.27 646.33C255.86 644.59 255.64 642.77 255.64 640.9C255.64 627.83 266.34 617.13 279.41 617.13H324.31C337.38 617.13 348.08 627.83 348.08 640.9C348.03 644.1 347.45 651.48 342.24 657.97C341.17 659.31 338.34 662.55 331.68 665.79Z" fill="#7F7F7F"/>
<path d="M462.53 665.79C451.2 671.32 439.67 671.55 432.03 670.87C425.3 671.08 414.74 670.46 404.27 665.4C398.12 662.43 395 659.38 393.47 657.69C391.79 655.85 388.49 652.14 387.12 646.33C386.71 644.59 386.49 642.77 386.49 640.9C386.49 627.83 397.19 617.13 410.26 617.13H455.16C468.23 617.13 478.93 627.83 478.93 640.9C478.88 644.1 478.3 651.48 473.09 657.97C472.02 659.31 469.19 662.55 462.53 665.79Z" fill="#7F7F7F"/>
<path d="M483.78 633.54H242.67C226.85 633.54 214.31 620.2 215.28 604.42L226.06 429.38C228.39 391.5 259.8 361.97 297.75 361.97H428.68C466.63 361.97 498.04 391.5 500.37 429.38L511.15 604.42C512.12 620.21 499.58 633.54 483.76 633.54H483.78Z" fill="white"/>
<path d="M355.64 408.24C341.85 405.23 326.38 412.17 309.75 405.63C294.49 399.63 280.83 392.86 268.88 386.08C268.01 383.98 266.5 379.64 266.45 373.82C266.4 367.66 268.01 363.06 268.88 360.95C297.8 372.12 326.72 371.93 355.65 383.1V408.23L355.64 408.24Z" fill="#FF4848"/>
<path d="M368.01 408.24C381.8 405.23 397.27 412.17 413.9 405.63C429.16 399.63 442.82 392.86 454.77 386.08C455.64 383.98 457.15 379.64 457.2 373.82C457.25 367.66 455.64 363.06 454.77 360.95C425.85 372.12 396.93 371.93 368 383.1V408.23L368.01 408.24Z" fill="#FF4848"/>
<path d="M367.72 416.32H352.08C347.71 416.32 344.32 412.51 344.83 408.17L347.51 385.45C347.94 381.77 351.06 379 354.76 379H365.05C368.75 379 371.87 381.77 372.3 385.45L374.98 408.17C375.49 412.51 372.1 416.32 367.73 416.32H367.72Z" fill="#EA4949"/>
<path d="M352.97 414.83H366.26C370.16 414.83 373.56 417.51 374.46 421.31L381.26 449.89C381.83 452.28 381.54 454.8 380.43 456.99L366.91 483.85C363.82 489.98 355.02 489.82 352.15 483.59L339.98 457.09C339.08 455.13 338.81 452.93 339.21 450.81L344.68 421.7C345.43 417.72 348.91 414.83 352.96 414.83H352.97Z" fill="#FF4848"/>
<path d="M312.04 440.49C317.8 440.49 322.47 435.82 322.47 430.06C322.47 424.3 317.8 419.63 312.04 419.63C306.279 419.63 301.61 424.3 301.61 430.06C301.61 435.82 306.279 440.49 312.04 440.49Z" fill="#E8E8E8"/>
<path d="M402.93 440.49C408.69 440.49 413.36 435.82 413.36 430.06C413.36 424.3 408.69 419.63 402.93 419.63C397.17 419.63 392.5 424.3 392.5 430.06C392.5 435.82 397.17 440.49 402.93 440.49Z" fill="#E8E8E8"/>
<path d="M312.04 477.38C317.8 477.38 322.47 472.71 322.47 466.95C322.47 461.19 317.8 456.52 312.04 456.52C306.279 456.52 301.61 461.19 301.61 466.95C301.61 472.71 306.279 477.38 312.04 477.38Z" fill="#E8E8E8"/>
<path d="M402.93 477.38C408.69 477.38 413.36 472.71 413.36 466.95C413.36 461.19 408.69 456.52 402.93 456.52C397.17 456.52 392.5 461.19 392.5 466.95C392.5 472.71 397.17 477.38 402.93 477.38Z" fill="#E8E8E8"/>
<path d="M312.04 517.31C317.8 517.31 322.47 512.64 322.47 506.88C322.47 501.12 317.8 496.45 312.04 496.45C306.279 496.45 301.61 501.12 301.61 506.88C301.61 512.64 306.279 517.31 312.04 517.31Z" fill="#E8E8E8"/>
<path d="M402.93 517.31C408.69 517.31 413.36 512.64 413.36 506.88C413.36 501.12 408.69 496.45 402.93 496.45C397.17 496.45 392.5 501.12 392.5 506.88C392.5 512.64 397.17 517.31 402.93 517.31Z" fill="#E8E8E8"/>
<path d="M508.17 550.1C469.08 556.85 419.56 562.19 364.23 562.29C307.56 562.39 258.22 556.82 218.47 549.96C218.47 544.94 219.27 540.31 219.27 535.28C259.54 541.84 308.01 546.63 364.23 546.53C419.13 546.44 467.33 541.33 506.92 534.88C506.92 539.9 508.17 545.08 508.17 550.1Z" fill="#E8E8E8"/>
<path d="M271.97 382.13L320.92 426.58C331.64 436.31 332.09 451.64 321.92 460.63L320.06 462.28C309.9 471.28 292.81 470.68 282.09 460.94L233.14 416.49C222.42 406.76 221.97 391.43 232.14 382.44L234 380.79C244.16 371.79 261.25 372.39 271.97 382.13Z" fill="white"/>
<path d="M271.97 382.13L320.92 426.58C331.64 436.31 332.09 451.64 321.92 460.63L320.06 462.28C309.9 471.28 292.81 470.68 282.09 460.94L233.14 416.49C222.42 406.76 221.97 391.43 232.14 382.44L234 380.79C244.16 371.79 261.25 372.39 271.97 382.13Z" stroke="white" stroke-miterlimit="10"/>
<path d="M296.7 468.13C305.8 478.48 326.95 476.64 335.95 463.74C343.97 452.25 341.22 433.62 329.17 427.29C317.96 421.4 303.55 428.7 297.05 438.63C291.61 446.94 289.69 460.16 296.71 468.13H296.7Z" fill="#FFA744"/>
<path d="M296.7 468.13C305.8 478.48 326.95 476.64 335.95 463.74C343.97 452.25 341.22 433.62 329.17 427.29C317.96 421.4 303.55 428.7 297.05 438.63C291.61 446.94 289.69 460.16 296.71 468.13H296.7Z" fill="#FFDC83"/>
<path d="M377.21 597.17L373.3 515.59C372.89 507.14 365.07 492.08 355.56 492.08C348.32 492.08 342.48 486.15 342.59 478.91L344.86 332.42C344.96 325.76 340.18 320.3 334.25 320.3H329.16C323.23 320.3 318.45 325.76 318.55 332.42L320.82 478.91C320.93 486.15 315.09 492.08 307.85 492.08C298.34 492.08 290.51 507.14 290.11 515.59L286.2 597.17C285.77 606.14 293.84 613.63 303.94 613.63H359.47C369.58 613.63 377.64 606.15 377.21 597.17ZM331.7 341.58C329.43 341.58 327.59 338.51 327.59 334.73C327.59 330.95 329.43 327.88 331.7 327.88C333.97 327.88 335.81 330.95 335.81 334.73C335.81 338.51 333.97 341.58 331.7 341.58Z" fill="#AFB2BC"/>
<path d="M158.21 581.44H104.84C98.2124 581.44 92.8398 586.813 92.8398 593.44V649.35C92.8398 655.977 98.2124 661.35 104.84 661.35H158.21C164.837 661.35 170.21 655.977 170.21 649.35V593.44C170.21 586.813 164.837 581.44 158.21 581.44Z" fill="#A73231"/>
<path d="M624.39 581.44H571.02C564.393 581.44 559.02 586.813 559.02 593.44V649.35C559.02 655.977 564.393 661.35 571.02 661.35H624.39C631.017 661.35 636.39 655.977 636.39 649.35V593.44C636.39 586.813 631.017 581.44 624.39 581.44Z" fill="#A73231"/>
<path d="M124.9 518.16H604.07V757.58C604.07 810.75 560.91 853.91 507.74 853.91H221.23C168.06 853.91 124.9 810.75 124.9 757.58V518.16Z" fill="#D65251"/>
<path d="M604.07 518.16H124.9V548.3H604.07V518.16Z" fill="white"/>
<path d="M444.96 399.43L371.73 435.55C355.7 443.46 349.07 460.08 357.01 472.49L358.47 474.77C366.41 487.18 386.03 490.87 402.06 482.96L475.29 446.84C491.32 438.93 497.95 422.31 490.01 409.9L488.55 407.62C480.61 395.21 460.99 391.52 444.96 399.43Z" fill="white"/>
<path d="M380.16 483.99C371.63 494.81 350.41 494.1 340.73 481.7C332.11 470.66 333.86 451.9 345.56 444.94C356.44 438.46 371.22 444.98 378.24 454.55C384.12 462.56 386.73 475.65 380.15 483.99H380.16Z" fill="#353535"/>
<path d="M138.53 195.8C138.53 181.34 127.06 169 110.91 164.12C106.19 149.44 89.32 138.58 69.24 138.58C45.5 138.58 26.25 153.76 26.25 172.49C26.25 173.37 26.29 174.25 26.38 175.12C10.89 180.25 0 192.32 0 206.41C0 225.14 19.25 240.32 42.99 240.32C46.5 240.32 49.9099 239.99 53.1699 239.36C61.0599 246.7 72.82 251.36 85.98 251.36C109.72 251.36 128.97 236.18 128.97 217.45C128.97 217.34 128.97 217.24 128.97 217.13C134.95 211.3 138.53 203.89 138.53 195.81V195.8Z" fill="#E2E2E2"/>
<path d="M92.5198 366.04C117.516 366.04 137.78 352.035 137.78 334.76C137.78 317.485 117.516 303.48 92.5198 303.48C67.5234 303.48 47.2598 317.485 47.2598 334.76C47.2598 352.035 67.5234 366.04 92.5198 366.04Z" fill="#E2E2E2"/>
<path d="M154.6 451.18C166.264 451.18 175.72 441.724 175.72 430.06C175.72 418.396 166.264 408.94 154.6 408.94C142.936 408.94 133.48 418.396 133.48 430.06C133.48 441.724 142.936 451.18 154.6 451.18Z" fill="#E2E2E2"/>
<path d="M562.93 408.88C574.594 408.88 584.05 399.424 584.05 387.76C584.05 376.096 574.594 366.64 562.93 366.64C551.266 366.64 541.81 376.096 541.81 387.76C541.81 399.424 551.266 408.88 562.93 408.88Z" fill="#E2E2E2"/>
<path d="M695.9 262.35C695.9 245.74 676.83 232.27 653.3 232.27C631.45 232.27 613.46 243.88 610.99 258.84C591.52 261.22 576.86 271.62 576.86 284.1C576.86 298.33 595.94 309.87 619.47 309.87C638.4 309.87 654.44 302.4 659.99 292.07C680.34 289.8 695.9 277.37 695.9 262.36V262.35Z" fill="#E2E2E2"/>
</svg>
