<svg width="696" height="888" viewBox="0 0 696 888" fill="none" xmlns="http://www.w3.org/2000/svg">
<path d="M331.68 699.53C320.35 705.06 308.82 705.29 301.18 704.61C294.45 704.82 283.89 704.2 273.42 699.14C267.27 696.17 264.15 693.12 262.62 691.43C260.94 689.59 257.64 685.88 256.27 680.07C255.86 678.33 255.64 676.51 255.64 674.64C255.64 661.57 266.34 650.87 279.41 650.87H324.31C337.38 650.87 348.08 661.57 348.08 674.64C348.03 677.84 347.45 685.22 342.24 691.71C341.17 693.05 338.34 696.29 331.68 699.53Z" fill="#7F7F7F"/>
<path d="M462.53 699.53C451.2 705.06 439.67 705.29 432.03 704.61C425.3 704.82 414.74 704.2 404.27 699.14C398.12 696.17 395 693.12 393.47 691.43C391.79 689.59 388.49 685.88 387.12 680.07C386.71 678.33 386.49 676.51 386.49 674.64C386.49 661.57 397.19 650.87 410.26 650.87H455.16C468.23 650.87 478.93 661.57 478.93 674.64C478.88 677.84 478.3 685.22 473.09 691.71C472.02 693.05 469.19 696.29 462.53 699.53Z" fill="#7F7F7F"/>
<path d="M483.78 667.28H242.67C226.85 667.28 214.31 653.94 215.28 638.16L226.06 463.12C228.39 425.24 259.8 395.71 297.75 395.71H428.68C466.63 395.71 498.04 425.24 500.37 463.12L511.15 638.16C512.12 653.95 499.58 667.28 483.76 667.28H483.78Z" fill="white"/>
<path d="M355.64 441.98C341.85 438.97 326.38 445.91 309.75 439.37C294.49 433.37 280.83 426.6 268.88 419.82C268.01 417.72 266.5 413.38 266.45 407.56C266.4 401.4 268.01 396.8 268.88 394.69C297.8 405.86 326.72 405.67 355.65 416.84V441.97L355.64 441.98Z" fill="#FF4848"/>
<path d="M368.01 441.98C381.8 438.97 397.27 445.91 413.9 439.37C429.16 433.37 442.82 426.6 454.77 419.82C455.64 417.72 457.15 413.38 457.2 407.56C457.25 401.4 455.64 396.8 454.77 394.69C425.85 405.86 396.93 405.67 368 416.84V441.97L368.01 441.98Z" fill="#FF4848"/>
<path d="M367.72 450.06H352.08C347.71 450.06 344.32 446.25 344.83 441.91L347.51 419.19C347.94 415.51 351.06 412.74 354.76 412.74H365.05C368.75 412.74 371.87 415.51 372.3 419.19L374.98 441.91C375.49 446.25 372.1 450.06 367.73 450.06H367.72Z" fill="#EA4949"/>
<path d="M352.97 448.57H366.26C370.16 448.57 373.56 451.25 374.46 455.05L381.26 483.63C381.83 486.02 381.54 488.54 380.43 490.73L366.91 517.59C363.82 523.72 355.02 523.56 352.15 517.33L339.98 490.83C339.08 488.87 338.81 486.67 339.21 484.55L344.68 455.44C345.43 451.46 348.91 448.57 352.96 448.57H352.97Z" fill="#FF4848"/>
<path d="M312.04 474.23C317.8 474.23 322.47 469.56 322.47 463.8C322.47 458.04 317.8 453.37 312.04 453.37C306.279 453.37 301.61 458.04 301.61 463.8C301.61 469.56 306.279 474.23 312.04 474.23Z" fill="#E8E8E8"/>
<path d="M402.93 474.23C408.69 474.23 413.36 469.56 413.36 463.8C413.36 458.04 408.69 453.37 402.93 453.37C397.17 453.37 392.5 458.04 392.5 463.8C392.5 469.56 397.17 474.23 402.93 474.23Z" fill="#E8E8E8"/>
<path d="M312.04 511.13C317.8 511.13 322.47 506.46 322.47 500.7C322.47 494.94 317.8 490.27 312.04 490.27C306.279 490.27 301.61 494.94 301.61 500.7C301.61 506.46 306.279 511.13 312.04 511.13Z" fill="#E8E8E8"/>
<path d="M402.93 511.13C408.69 511.13 413.36 506.46 413.36 500.7C413.36 494.94 408.69 490.27 402.93 490.27C397.17 490.27 392.5 494.94 392.5 500.7C392.5 506.46 397.17 511.13 402.93 511.13Z" fill="#E8E8E8"/>
<path d="M312.04 551.05C317.8 551.05 322.47 546.38 322.47 540.62C322.47 534.86 317.8 530.19 312.04 530.19C306.279 530.19 301.61 534.86 301.61 540.62C301.61 546.38 306.279 551.05 312.04 551.05Z" fill="#E8E8E8"/>
<path d="M402.93 551.05C408.69 551.05 413.36 546.38 413.36 540.62C413.36 534.86 408.69 530.19 402.93 530.19C397.17 530.19 392.5 534.86 392.5 540.62C392.5 546.38 397.17 551.05 402.93 551.05Z" fill="#E8E8E8"/>
<path d="M508.17 583.84C469.08 590.59 419.56 595.93 364.23 596.03C307.56 596.13 258.22 590.56 218.47 583.7C218.47 578.68 219.27 574.05 219.27 569.02C259.54 575.58 308.01 580.37 364.23 580.27C419.13 580.18 467.33 575.07 506.92 568.62C506.92 573.64 508.17 578.82 508.17 583.84Z" fill="#E8E8E8"/>
<path d="M319.505 199.713C331.712 162.891 309.679 122.457 270.293 109.4C230.907 96.3444 189.084 115.611 176.878 152.433C164.671 189.255 186.705 229.689 226.09 242.745C265.476 255.801 307.299 236.535 319.505 199.713Z" fill="#FFA744"/>
<path d="M492.419 242.913C531.805 229.857 553.838 189.423 541.632 152.601C529.426 115.779 487.602 96.5129 448.217 109.569C408.831 122.625 386.798 163.059 399.004 199.881C411.21 236.703 453.034 255.969 492.419 242.913Z" fill="#FFA744"/>
<path d="M317.258 268.572C319.929 255.9 314.725 244.073 305.635 242.158C296.546 240.242 287.012 248.963 284.341 261.636C281.671 274.308 286.875 286.134 295.964 288.05C305.054 289.965 314.588 281.245 317.258 268.572Z" fill="#262727"/>
<path d="M428.139 288.098C437.229 286.182 442.433 274.356 439.762 261.683C437.092 249.01 427.558 240.29 418.468 242.205C409.378 244.121 404.175 255.947 406.845 268.62C409.516 281.293 419.049 290.013 428.139 288.098Z" fill="#262727"/>
<path d="M398.12 285.56C397.39 297.97 379.3 307.27 364.48 307.14C349.51 307.01 331.1 297.21 330.84 284.29C330.57 271.44 348.34 260.38 363.65 260.18C380.29 259.96 398.9 272.52 398.13 285.56H398.12Z" fill="#FAE0EB"/>
<path d="M372.53 274.27C372.36 277.3 367.86 279.54 364.24 279.54C360.62 279.54 356.12 277.31 355.95 274.27C355.77 271.14 360.24 268.13 364.24 268.13C368.25 268.13 372.71 271.15 372.53 274.27Z" fill="#ED83AC"/>
<path d="M427.26 282.36C422.5 283.26 417.01 279.86 417.03 276.8C417.05 273.89 422.06 271.74 425.14 271.09C428.26 270.43 433.68 270.42 434.84 273.01C436.09 275.82 432.25 281.41 427.26 282.35V282.36Z" fill="#F6C6DB"/>
<path d="M297.25 282.58C302.01 283.48 307.5 280.08 307.48 277.02C307.46 274.11 302.45 271.96 299.37 271.31C296.25 270.65 290.83 270.64 289.67 273.23C288.42 276.04 292.26 281.63 297.25 282.57V282.58Z" fill="#F6C6DB"/>
<path d="M429.97 259.28C430.14 259.95 430.97 263.27 428.88 266.03C428.6 266.4 427.15 268.23 424.55 268.67C421.3 269.22 418.93 267.15 418.48 266.74C416.21 264.66 416.03 261.88 416 261.22C415.83 257.66 417.96 252.78 421.97 252.28C425.99 251.77 429.14 256.01 429.97 259.29V259.28Z" fill="white"/>
<path d="M295.27 258.14C294.48 260.93 294.68 265.35 297.85 267.58C300.61 269.52 303.86 268.57 304.14 268.48C307.77 267.35 309.47 263.6 309.76 260.84C310.16 257.03 308.24 251.84 304.16 251.05C300.04 250.25 296.31 254.45 295.27 258.15V258.14Z" fill="white"/>
<path d="M535.3 306.7C535.3 300.87 533.02 295.38 529.02 290.58C525.8 286.72 523.97 281.9 524.1 276.87C524.59 257.41 521.94 223.97 500.32 193.88C459.89 137.6 385.74 138.46 358.64 138.78C332.44 139.09 260.96 139.92 219.58 195.63C198.13 224.51 193.64 256.19 192.96 275.33C192.78 280.33 190.8 285.1 187.33 288.69C182.28 293.92 179.36 300.09 179.36 306.7C179.36 312.5 181.61 317.96 185.58 322.75C188.53 326.31 189.87 330.87 189.86 335.49C189.86 335.52 189.86 335.54 189.86 335.57C189.86 350.63 205.01 363.41 226.02 367.92C228.81 368.52 231.46 369.66 233.76 371.36C269.77 398.01 322.34 410.03 363.37 409.23C402.2 408.46 451.28 395.8 485.07 370.43C487.16 368.86 489.56 367.78 492.08 367.11C511.3 362 524.83 349.81 524.83 335.57C524.83 335.54 524.83 335.52 524.83 335.49C524.81 330.87 526.16 326.31 529.11 322.75C533.08 317.97 535.33 312.51 535.33 306.7H535.3Z" fill="#FFA744"/>
<mask id="mask0_1803_13286" style="mask-type:luminance" maskUnits="userSpaceOnUse" x="179" y="138" width="357" height="272">
<path d="M535.3 306.7C535.3 300.87 533.02 295.38 529.02 290.58C525.8 286.72 523.97 281.9 524.1 276.87C524.59 257.41 521.94 223.97 500.32 193.88C459.89 137.6 385.74 138.46 358.64 138.78C332.44 139.09 260.96 139.92 219.58 195.63C198.13 224.51 193.64 256.19 192.96 275.33C192.78 280.33 190.8 285.1 187.33 288.69C182.28 293.92 179.36 300.09 179.36 306.7C179.36 312.5 181.61 317.96 185.58 322.75C188.53 326.31 189.87 330.87 189.86 335.49C189.86 335.52 189.86 335.54 189.86 335.57C189.86 350.63 205.01 363.41 226.02 367.92C228.81 368.52 231.46 369.66 233.76 371.36C269.77 398.01 322.34 410.03 363.37 409.23C402.2 408.46 451.28 395.8 485.07 370.43C487.16 368.86 489.56 367.78 492.08 367.11C511.3 362 524.83 349.81 524.83 335.57C524.83 335.54 524.83 335.52 524.83 335.49C524.81 330.87 526.16 326.31 529.11 322.75C533.08 317.97 535.33 312.51 535.33 306.7H535.3Z" fill="white"/>
</mask>
<g mask="url(#mask0_1803_13286)">
<path d="M170.3 280.66C188.35 263.56 212.36 254.14 237.2 254.23C244.92 254.26 244.93 242.26 237.2 242.23C209.19 242.13 182.14 252.93 161.81 272.18C156.19 277.5 164.69 285.98 170.3 280.67V280.66Z" fill="#3A3A3A"/>
<path d="M179.57 304.62C197.62 287.52 221.63 278.1 246.47 278.19C254.19 278.22 254.2 266.22 246.47 266.19C218.46 266.09 191.41 276.89 171.08 296.14C165.46 301.46 173.96 309.94 179.57 304.63V304.62Z" fill="#3A3A3A"/>
<path d="M552.83 272.17C532.5 252.92 505.45 242.12 477.44 242.22C469.72 242.25 469.7 254.25 477.44 254.22C502.29 254.13 526.29 263.56 544.34 280.65C549.95 285.96 558.45 277.49 552.83 272.16V272.17Z" fill="#3A3A3A"/>
<path d="M543.56 296.14C523.23 276.89 496.18 266.09 468.17 266.19C460.45 266.22 460.43 278.22 468.17 278.19C493.02 278.1 517.02 287.53 535.07 304.62C540.68 309.93 549.18 301.46 543.56 296.13V296.14Z" fill="#3A3A3A"/>
<path d="M355.99 123.62C356.71 159.65 357.44 195.68 358.16 231.7C358.32 239.41 370.32 239.44 370.16 231.7C369.44 195.67 368.71 159.64 367.99 123.62C367.83 115.91 355.83 115.88 355.99 123.62Z" fill="#3A3A3A"/>
<path d="M329.34 166.5C353.28 159.18 378.62 158.95 402.68 165.87C410.11 168.01 413.29 156.43 405.87 154.3C379.85 146.81 352.05 147.01 326.15 154.93C318.79 157.18 321.93 168.77 329.34 166.5Z" fill="#3A3A3A"/>
<path d="M329.34 192.06C352.92 182.32 378.93 182.08 402.68 191.43C409.87 194.26 412.98 182.66 405.87 179.86C380.41 169.83 351.44 170.04 326.15 180.49C319.11 183.4 322.2 195.01 329.34 192.06Z" fill="#3A3A3A"/>
<path d="M329.34 218.45C352.93 208.77 378.92 208.53 402.68 217.82C409.87 220.63 412.99 209.04 405.87 206.25C380.4 196.29 351.46 196.5 326.15 206.88C319.1 209.77 322.19 221.38 329.34 218.45Z" fill="#3A3A3A"/>
</g>
<path d="M264.53 166.9C266.82 165.95 268.52 163.85 268.68 161.38C268.8 159.54 268.18 157.66 266.77 156.23C263 152.38 258.05 149.39 252.29 147.8C236.54 143.47 220.65 151.3 216.8 165.29C214.15 174.92 217.9 184.97 225.64 191.7C226.46 192.41 227.41 192.89 228.4 193.13C231.01 193.76 233.71 192.57 235.25 190.37C238.06 186.38 242.28 181.31 248.32 176.48C254.27 171.73 260.06 168.76 264.53 166.9Z" fill="white"/>
<path d="M449.02 166.9C446.73 165.95 445.03 163.85 444.87 161.38C444.75 159.54 445.37 157.66 446.78 156.23C450.55 152.38 455.5 149.39 461.26 147.8C477.01 143.47 492.9 151.3 496.75 165.29C499.4 174.92 495.65 184.97 487.91 191.7C487.09 192.41 486.14 192.89 485.15 193.13C482.54 193.76 479.84 192.57 478.3 190.37C475.49 186.38 471.27 181.31 465.23 176.48C459.28 171.73 453.49 168.76 449.02 166.9Z" fill="white"/>
<path d="M403.01 285.36C399.18 278.81 392.99 276.22 388.38 274.37C381.52 271.61 375.18 271.58 362.79 271.65C350.11 271.71 343.62 271.81 336.7 274.88C332.66 276.67 327.07 279.24 323.48 285.37C322.36 287.29 317.78 295.09 321.61 302.75C324.59 308.7 331.06 311.58 336.29 311.66C342.41 311.76 347 308.07 352.43 303.71C355.28 301.42 357.39 299.19 358.83 297.53C361.3 295.15 365.2 295.15 367.67 297.53C369.02 298.81 371.28 300.97 374.07 303.71C378.16 307.73 379.12 308.79 381.1 309.84C385.09 311.94 389.04 311.74 390.2 311.66C396.65 311.19 402.39 307.73 404.88 302.75C408.71 295.08 404.12 287.26 403.01 285.37V285.36Z" fill="white"/>
<path d="M358.45 282.23L351.84 273.42C348.88 269.47 351.7 263.84 356.63 263.84H369.84C374.77 263.84 377.59 269.47 374.63 273.42L368.02 282.23C365.63 285.42 360.84 285.42 358.44 282.23H358.45Z" fill="#3A3A3A"/>
<path d="M292.4 247.73C292.4 261.81 300.76 273.22 311.08 273.22C321.4 273.22 329.76 261.81 329.76 247.73C329.76 244.21 329.24 240.85 328.29 237.79L293.88 232.88C292.93 235.93 292.41 244.2 292.41 247.72L292.4 247.73Z" fill="#262727"/>
<path d="M433.73 247.73C433.73 261.81 425.37 273.22 415.05 273.22C404.73 273.22 396.37 261.81 396.37 247.73C396.37 244.21 396.89 240.85 397.84 237.79L432.25 232.88C433.2 235.93 433.72 244.2 433.72 247.72L433.73 247.73Z" fill="#262727"/>
<path d="M303.23 249.82C305.008 249.82 306.45 247.716 306.45 245.12C306.45 242.524 305.008 240.42 303.23 240.42C301.451 240.42 300.01 242.524 300.01 245.12C300.01 247.716 301.451 249.82 303.23 249.82Z" fill="white"/>
<path d="M405.85 250.42C407.628 250.42 409.07 248.316 409.07 245.72C409.07 243.124 407.628 241.02 405.85 241.02C404.071 241.02 402.63 243.124 402.63 245.72C402.63 248.316 404.071 250.42 405.85 250.42Z" fill="white"/>
<path d="M309.13 267.37C314.86 268.45 321.47 264.35 321.44 260.68C321.42 257.18 315.38 254.59 311.68 253.8C307.92 253.01 301.4 252.99 300 256.12C298.49 259.5 303.12 266.24 309.12 267.37H309.13Z" fill="#595959"/>
<path d="M417.5 267.37C411.77 268.45 405.16 264.35 405.19 260.68C405.21 257.18 411.25 254.59 414.95 253.8C418.71 253.01 425.23 252.99 426.63 256.12C428.14 259.5 423.51 266.24 417.51 267.37H417.5Z" fill="#595959"/>
<path d="M419.01 21.16C412.95 21.16 407.2 22.49 402.03 24.87C394.18 10.07 378.71 0 360.91 0C343.11 0 327.8 9.96 319.91 24.63C314.87 22.39 309.31 21.15 303.45 21.15C280.85 21.15 262.54 49.92 262.54 72.71C262.54 95.5 280.86 113.98 303.45 113.98C316.93 113.98 328.88 107.41 336.33 97.27C343.47 101.75 351.89 104.33 360.91 104.33C369.93 104.33 378.7 101.64 385.93 96.99C393.37 107.29 405.42 113.98 419.01 113.98C441.61 113.98 459.92 95.5 459.92 72.71C459.92 49.92 441.6 21.15 419.01 21.15V21.16Z" fill="white"/>
<path d="M419.46 148.2C411.44 142.91 390.99 140.26 361.34 140.14C331.15 140.02 310.33 142.93 302.32 148.2C300.66 130.14 298.91 120.14 297.04 99.8801C309.67 94.0601 331.44 86.2101 359.87 86.0301C389.4 85.8401 411.96 93.9901 424.75 99.8801C422.88 120.15 421.12 130.14 419.45 148.2H419.46Z" fill="white"/>
<g opacity="0.8">
<path d="M403.38 37.3101C404.18 43.4501 404.52 52.0901 402.32 62.1601C399.66 74.3301 394.38 83.6001 390.36 89.4301" fill="white"/>
<path d="M403.38 37.3101C408.65 55.2301 403.19 75.9601 390.36 89.4301C394.21 81.1301 397.66 72.9001 399.87 64.1001C402.14 55.3201 403.03 46.4501 403.38 37.3101Z" fill="#DADADA"/>
</g>
<g opacity="0.8">
<path d="M318.69 38.1099C317.89 44.2499 317.55 52.8899 319.75 62.9599C322.41 75.1299 327.69 84.3999 331.71 90.2299" fill="white"/>
<path d="M318.69 38.1099C319.03 47.2499 319.93 56.1199 322.2 64.8999C324.41 73.6999 327.86 81.9299 331.71 90.2299C318.89 76.7699 313.42 56.0299 318.69 38.1099Z" fill="#DADADA"/>
</g>
<g opacity="0.8">
<path d="M306.33 112.5C338.7 94.3301 380.58 94.3001 412.94 112.5C404.41 109.02 395.66 106.26 386.74 104.39C359.86 98.6301 331.66 101.95 306.34 112.49L306.33 112.5Z" fill="#D7D7D7"/>
</g>
<path d="M271.97 415.87L320.92 460.32C331.64 470.05 332.09 485.38 321.92 494.37L320.06 496.02C309.9 505.02 292.81 504.42 282.09 494.68L233.14 450.23C222.42 440.5 221.97 425.17 232.14 416.18L234 414.53C244.16 405.53 261.25 406.13 271.97 415.87Z" fill="white"/>
<path d="M271.97 415.87L320.92 460.32C331.64 470.05 332.09 485.38 321.92 494.37L320.06 496.02C309.9 505.02 292.81 504.42 282.09 494.68L233.14 450.23C222.42 440.5 221.97 425.17 232.14 416.18L234 414.53C244.16 405.53 261.25 406.13 271.97 415.87Z" stroke="white" stroke-miterlimit="10"/>
<path d="M296.7 501.87C305.8 512.22 326.95 510.38 335.95 497.48C343.97 485.99 341.22 467.36 329.17 461.03C317.96 455.14 303.55 462.44 297.05 472.37C291.61 480.68 289.69 493.9 296.71 501.87H296.7Z" fill="#FFA744"/>
<path d="M377.21 630.91L373.3 549.33C372.89 540.88 365.07 525.82 355.56 525.82C348.32 525.82 342.48 519.89 342.59 512.65L344.86 366.16C344.96 359.5 340.18 354.04 334.25 354.04H329.16C323.23 354.04 318.45 359.5 318.55 366.16L320.82 512.65C320.93 519.89 315.09 525.82 307.85 525.82C298.34 525.82 290.51 540.88 290.11 549.33L286.2 630.91C285.77 639.88 293.84 647.37 303.94 647.37H359.47C369.58 647.37 377.64 639.89 377.21 630.91ZM331.7 375.32C329.43 375.32 327.59 372.25 327.59 368.47C327.59 364.69 329.43 361.62 331.7 361.62C333.97 361.62 335.81 364.69 335.81 368.47C335.81 372.25 333.97 375.32 331.7 375.32Z" fill="#AFB2BC"/>
<path d="M158.21 615.18H104.84C98.2124 615.18 92.8398 620.552 92.8398 627.18V683.09C92.8398 689.717 98.2124 695.09 104.84 695.09H158.21C164.837 695.09 170.21 689.717 170.21 683.09V627.18C170.21 620.552 164.837 615.18 158.21 615.18Z" fill="#A73231"/>
<path d="M624.39 615.18H571.02C564.393 615.18 559.02 620.552 559.02 627.18V683.09C559.02 689.717 564.393 695.09 571.02 695.09H624.39C631.017 695.09 636.39 689.717 636.39 683.09V627.18C636.39 620.552 631.017 615.18 624.39 615.18Z" fill="#A73231"/>
<path d="M124.9 551.9H604.07V791.32C604.07 844.49 560.91 887.65 507.74 887.65H221.23C168.06 887.65 124.9 844.49 124.9 791.32V551.9Z" fill="#D65251"/>
<path d="M604.07 551.9H124.9V582.04H604.07V551.9Z" fill="white"/>
<path d="M444.96 433.17L371.73 469.29C355.7 477.2 349.07 493.82 357.01 506.23L358.47 508.51C366.41 520.92 386.03 524.61 402.06 516.7L475.29 480.58C491.32 472.67 497.95 456.05 490.01 443.64L488.55 441.36C480.61 428.95 460.99 425.26 444.96 433.17Z" fill="white"/>
<path d="M380.16 517.73C371.63 528.55 350.41 527.84 340.73 515.44C332.11 504.4 333.86 485.64 345.56 478.68C356.44 472.2 371.22 478.72 378.24 488.29C384.12 496.3 386.73 509.39 380.15 517.73H380.16Z" fill="#FFA744"/>
<path d="M138.53 229.54C138.53 215.08 127.06 202.74 110.91 197.86C106.19 183.18 89.32 172.32 69.24 172.32C45.5 172.32 26.25 187.5 26.25 206.23C26.25 207.11 26.29 207.99 26.38 208.86C10.89 213.99 0 226.06 0 240.15C0 258.88 19.25 274.06 42.99 274.06C46.5 274.06 49.9099 273.73 53.1699 273.1C61.0599 280.44 72.82 285.1 85.98 285.1C109.72 285.1 128.97 269.92 128.97 251.19C128.97 251.08 128.97 250.98 128.97 250.87C134.95 245.04 138.53 237.63 138.53 229.55V229.54Z" fill="#E2E2E2"/>
<path d="M92.5198 399.78C117.516 399.78 137.78 385.776 137.78 368.5C137.78 351.225 117.516 337.22 92.5198 337.22C67.5234 337.22 47.2598 351.225 47.2598 368.5C47.2598 385.776 67.5234 399.78 92.5198 399.78Z" fill="#E2E2E2"/>
<path d="M154.6 484.92C166.264 484.92 175.72 475.464 175.72 463.8C175.72 452.136 166.264 442.68 154.6 442.68C142.936 442.68 133.48 452.136 133.48 463.8C133.48 475.464 142.936 484.92 154.6 484.92Z" fill="#E2E2E2"/>
<path d="M562.93 442.62C574.594 442.62 584.05 433.164 584.05 421.5C584.05 409.836 574.594 400.38 562.93 400.38C551.266 400.38 541.81 409.836 541.81 421.5C541.81 433.164 551.266 442.62 562.93 442.62Z" fill="#E2E2E2"/>
<path d="M695.9 296.09C695.9 279.48 676.83 266.01 653.3 266.01C631.45 266.01 613.46 277.62 610.99 292.58C591.52 294.96 576.86 305.36 576.86 317.84C576.86 332.07 595.94 343.61 619.47 343.61C638.4 343.61 654.44 336.14 659.99 325.81C680.34 323.54 695.9 311.11 695.9 296.1V296.09Z" fill="#E2E2E2"/>
</svg>
