<svg width="698" height="823" viewBox="0 0 698 823" fill="none" xmlns="http://www.w3.org/2000/svg">
<path d="M319.2 634.5C307.87 640.03 296.34 640.26 288.7 639.58C281.97 639.79 271.41 639.17 260.94 634.11C254.79 631.14 251.67 628.09 250.14 626.4C248.46 624.56 245.16 620.85 243.79 615.04C243.38 613.3 243.16 611.48 243.16 609.61C243.16 596.54 253.86 585.84 266.93 585.84H311.83C324.9 585.84 335.6 596.54 335.6 609.61C335.55 612.81 334.97 620.19 329.76 626.68C328.69 628.02 325.86 631.26 319.2 634.5Z" fill="#7F7F7F"/>
<path d="M450.05 634.5C438.72 640.03 427.19 640.26 419.55 639.58C412.82 639.79 402.26 639.17 391.79 634.11C385.64 631.14 382.52 628.09 380.99 626.4C379.31 624.56 376.01 620.85 374.64 615.04C374.23 613.3 374.01 611.48 374.01 609.61C374.01 596.54 384.71 585.84 397.78 585.84H442.68C455.75 585.84 466.45 596.54 466.45 609.61C466.4 612.81 465.82 620.19 460.61 626.68C459.54 628.02 456.71 631.26 450.05 634.5Z" fill="#7F7F7F"/>
<path d="M471.29 602.25H230.18C214.36 602.25 201.82 588.91 202.79 573.13L213.57 398.09C215.9 360.21 247.31 330.68 285.26 330.68H416.19C454.14 330.68 485.55 360.21 487.88 398.09L498.66 573.13C499.63 588.92 487.09 602.25 471.27 602.25H471.29Z" fill="white"/>
<path d="M343.16 376.95C329.37 373.94 313.9 380.88 297.27 374.34C282.01 368.34 268.35 361.57 256.4 354.79C255.53 352.69 254.02 348.35 253.97 342.53C253.92 336.37 255.53 331.77 256.4 329.66C285.32 340.83 314.24 340.64 343.17 351.81V376.94L343.16 376.95Z" fill="#FF4848"/>
<path d="M355.53 376.95C369.32 373.94 384.79 380.88 401.42 374.34C416.68 368.34 430.34 361.57 442.29 354.79C443.16 352.69 444.67 348.35 444.72 342.53C444.77 336.37 443.16 331.77 442.29 329.66C413.37 340.83 384.45 340.64 355.52 351.81V376.94L355.53 376.95Z" fill="#FF4848"/>
<path d="M355.24 385.03H339.6C335.23 385.03 331.84 381.22 332.35 376.88L335.03 354.16C335.46 350.48 338.58 347.71 342.28 347.71H352.57C356.27 347.71 359.39 350.48 359.82 354.16L362.5 376.88C363.01 381.22 359.62 385.03 355.25 385.03H355.24Z" fill="#EA4949"/>
<path d="M340.49 383.54H353.78C357.68 383.54 361.08 386.22 361.98 390.02L368.78 418.6C369.35 420.99 369.06 423.51 367.95 425.7L354.43 452.56C351.34 458.69 342.54 458.53 339.67 452.3L327.5 425.8C326.6 423.84 326.33 421.64 326.73 419.52L332.2 390.41C332.95 386.43 336.43 383.54 340.48 383.54H340.49Z" fill="#FF4848"/>
<path d="M299.56 409.2C305.32 409.2 309.99 404.53 309.99 398.77C309.99 393.01 305.32 388.34 299.56 388.34C293.8 388.34 289.13 393.01 289.13 398.77C289.13 404.53 293.8 409.2 299.56 409.2Z" fill="#E8E8E8"/>
<path d="M390.45 409.2C396.21 409.2 400.88 404.53 400.88 398.77C400.88 393.01 396.21 388.34 390.45 388.34C384.69 388.34 380.02 393.01 380.02 398.77C380.02 404.53 384.69 409.2 390.45 409.2Z" fill="#E8E8E8"/>
<path d="M299.56 446.1C305.32 446.1 309.99 441.43 309.99 435.67C309.99 429.909 305.32 425.24 299.56 425.24C293.8 425.24 289.13 429.909 289.13 435.67C289.13 441.43 293.8 446.1 299.56 446.1Z" fill="#E8E8E8"/>
<path d="M390.45 446.1C396.21 446.1 400.88 441.43 400.88 435.67C400.88 429.909 396.21 425.24 390.45 425.24C384.69 425.24 380.02 429.909 380.02 435.67C380.02 441.43 384.69 446.1 390.45 446.1Z" fill="#E8E8E8"/>
<path d="M299.56 486.02C305.32 486.02 309.99 481.35 309.99 475.59C309.99 469.83 305.32 465.16 299.56 465.16C293.8 465.16 289.13 469.83 289.13 475.59C289.13 481.35 293.8 486.02 299.56 486.02Z" fill="#E8E8E8"/>
<path d="M390.45 486.02C396.21 486.02 400.88 481.35 400.88 475.59C400.88 469.83 396.21 465.16 390.45 465.16C384.69 465.16 380.02 469.83 380.02 475.59C380.02 481.35 384.69 486.02 390.45 486.02Z" fill="#E8E8E8"/>
<path d="M495.69 518.81C456.6 525.56 407.08 530.9 351.75 531C295.08 531.1 245.74 525.53 205.99 518.67C205.99 513.65 206.79 509.02 206.79 503.99C247.06 510.55 295.53 515.34 351.75 515.24C406.65 515.15 454.85 510.04 494.44 503.59C494.44 508.61 495.69 513.79 495.69 518.81Z" fill="#E8E8E8"/>
<path d="M445.59 354.83L403.53 391.58C394.32 399.63 396.34 414.94 408.01 425.62L410.15 427.58C421.82 438.26 438.91 440.41 448.12 432.36L490.18 395.61C499.39 387.56 497.37 372.25 485.7 361.57L483.56 359.61C471.89 348.93 454.8 346.78 445.59 354.83Z" fill="white"/>
<path d="M445.59 354.83L403.53 391.58C394.32 399.63 396.34 414.94 408.01 425.62L410.15 427.58C421.82 438.26 438.91 440.41 448.12 432.36L490.18 395.61C499.39 387.56 497.37 372.25 485.7 361.57L483.56 359.61C471.89 348.93 454.8 346.78 445.59 354.83Z" stroke="white" stroke-miterlimit="10"/>
<path d="M436.99 436.84C427.89 447.19 406.74 445.35 397.74 432.45C389.72 420.96 392.47 402.33 404.52 396C415.73 390.11 430.14 397.41 436.64 407.34C442.08 415.65 444 428.87 436.98 436.84H436.99Z" fill="#F7F7F7"/>
<path d="M445.53 565.88L441.62 484.3C441.21 475.85 433.39 460.79 423.88 460.79C416.64 460.79 410.8 454.86 410.91 447.62L413.18 301.13C413.28 294.47 408.5 289.01 402.57 289.01H397.48C391.55 289.01 386.77 294.47 386.87 301.13L389.14 447.62C389.25 454.86 383.41 460.79 376.17 460.79C366.66 460.79 358.83 475.85 358.43 484.3L354.52 565.88C354.09 574.85 362.16 582.34 372.26 582.34H427.79C437.9 582.34 445.96 574.86 445.53 565.88ZM400.02 310.29C397.75 310.29 395.91 307.22 395.91 303.44C395.91 299.66 397.75 296.59 400.02 296.59C402.29 296.59 404.13 299.66 404.13 303.44C404.13 307.22 402.29 310.29 400.02 310.29Z" fill="#AFB2BC"/>
<path d="M145.73 550.15H92.3599C85.7324 550.15 80.3599 555.523 80.3599 562.15V618.06C80.3599 624.688 85.7324 630.06 92.3599 630.06H145.73C152.357 630.06 157.73 624.688 157.73 618.06V562.15C157.73 555.523 152.357 550.15 145.73 550.15Z" fill="#A73231"/>
<path d="M611.91 550.15H558.54C551.913 550.15 546.54 555.523 546.54 562.15V618.06C546.54 624.688 551.913 630.06 558.54 630.06H611.91C618.537 630.06 623.91 624.688 623.91 618.06V562.15C623.91 555.523 618.537 550.15 611.91 550.15Z" fill="#A73231"/>
<path d="M112.42 486.87H591.59V726.29C591.59 779.46 548.43 822.62 495.26 822.62H208.75C155.58 822.62 112.42 779.46 112.42 726.29V486.87Z" fill="#D65251"/>
<path d="M591.59 486.87H112.42V517.01H591.59V486.87Z" fill="white"/>
<path d="M277 361.69L358.75 402.49C376.65 411.42 384.71 428.84 376.67 441.19L375.2 443.46C367.16 455.81 345.93 458.61 328.03 449.68L246.28 408.88C228.38 399.95 220.32 382.53 228.36 370.18L229.83 367.91C237.87 355.56 259.1 352.76 277 361.69Z" fill="white"/>
<path d="M353.52 452.7C362.05 463.52 383.27 462.81 392.95 450.41C401.57 439.37 399.82 420.61 388.12 413.65C377.24 407.17 362.46 413.69 355.44 423.26C349.56 431.27 346.95 444.36 353.53 452.7H353.52Z" fill="#F7F7F7"/>
<path d="M559.32 182.68C559.32 168.22 570.79 155.88 586.94 151C591.66 136.32 608.53 125.46 628.61 125.46C652.35 125.46 671.6 140.64 671.6 159.37C671.6 160.25 671.56 161.13 671.47 162C686.96 167.13 697.85 179.2 697.85 193.29C697.85 212.02 678.6 227.2 654.86 227.2C651.35 227.2 647.94 226.87 644.68 226.24C636.79 233.58 625.03 238.24 611.87 238.24C588.13 238.24 568.88 223.06 568.88 204.33C568.88 204.22 568.88 204.12 568.88 204.01C562.9 198.18 559.32 190.77 559.32 182.69V182.68Z" fill="#E2E2E2"/>
<path d="M546.59 428.53C558.254 428.53 567.71 419.074 567.71 407.41C567.71 395.746 558.254 386.29 546.59 386.29C534.926 386.29 525.47 395.746 525.47 407.41C525.47 419.074 534.926 428.53 546.59 428.53Z" fill="#E2E2E2"/>
<path d="M147.17 428.53C158.834 428.53 168.29 419.074 168.29 407.41C168.29 395.746 158.834 386.29 147.17 386.29C135.506 386.29 126.05 395.746 126.05 407.41C126.05 419.074 135.506 428.53 147.17 428.53Z" fill="#E2E2E2"/>
<path d="M104.12 334.75C122.865 334.75 138.06 325.294 138.06 313.63C138.06 301.966 122.865 292.51 104.12 292.51C85.3756 292.51 70.1802 301.966 70.1802 313.63C70.1802 325.294 85.3756 334.75 104.12 334.75Z" fill="#E2E2E2"/>
<path d="M0 208.76C0 192.15 19.07 178.68 42.6 178.68C64.45 178.68 82.44 190.29 84.91 205.25C104.38 207.63 119.04 218.03 119.04 230.51C119.04 244.74 99.96 256.28 76.43 256.28C57.5 256.28 41.46 248.81 35.91 238.48C15.56 236.2 0 223.77 0 208.76Z" fill="#E2E2E2"/>
<path d="M532.07 315.47C532.07 298.86 551.14 285.39 574.67 285.39C596.52 285.39 614.51 297 616.98 311.96C636.45 314.34 651.11 324.74 651.11 337.22C651.11 351.45 632.03 362.99 608.5 362.99C589.57 362.99 573.53 355.52 567.98 345.19C547.63 342.92 532.07 330.49 532.07 315.48V315.47Z" fill="#E2E2E2"/>
<path d="M172.519 64.1598C219.949 58.9898 271.459 94.2198 274.209 143.13C274.889 155.3 272.469 166.85 267.769 177.38C282.839 161.62 292.419 141 291.139 118.23C288.389 69.3198 236.889 34.0898 189.449 39.2598C156.259 42.8798 127.089 66.0498 113.439 94.9098C128.729 78.4098 149.669 66.6498 172.519 64.1598Z" fill="#F7F7F7"/>
<path d="M107.77 148.83C119.67 191.69 170.77 215.26 214.35 206.81C234.05 202.99 253.4 192.39 267.77 177.38C272.47 166.85 274.89 155.3 274.21 143.13C271.46 94.2197 219.96 58.9897 172.52 64.1597C149.67 66.6497 128.73 78.4097 113.44 94.9097C105.42 111.86 102.75 130.77 107.77 148.83Z" fill="#FAE0EB"/>
<path d="M436.049 141.14C438.799 92.2298 490.299 56.9998 537.739 62.1698C557.489 64.3198 575.819 73.3998 590.299 86.4798C575.329 61.6298 548.699 42.5198 518.819 39.2598C471.389 34.0898 419.879 69.3198 417.129 118.23C415.689 143.86 427.999 166.77 446.419 183.08C439.189 170.6 435.199 156.35 436.049 141.14Z" fill="#F7F7F7"/>
<path d="M600.5 148.83C606.37 127.7 601.72 105.42 590.3 86.4697C575.82 73.3897 557.49 64.3197 537.74 62.1597C490.31 56.9897 438.8 92.2197 436.05 141.13C435.2 156.34 439.19 170.59 446.42 183.07C459.96 195.06 476.8 203.49 493.91 206.8C537.49 215.25 588.59 191.67 600.49 148.82L600.5 148.83Z" fill="#FAE0EB"/>
<path d="M495.15 236.7C495.74 265.9 479.18 287.86 474.36 294.06C438.09 340.82 371.85 340.63 350.32 340.57C300.32 340.43 213.26 322.03 197.22 266.2C188.23 234.92 205.58 205.97 213.68 192.45C239.24 149.78 292.2 117.24 350.33 119.03C423.58 121.3 493.98 177.76 495.16 236.7H495.15Z" fill="#F7F7F7"/>
<path d="M307.774 220.713C310.051 209.91 305.614 199.829 297.864 198.196C290.115 196.562 281.987 203.996 279.71 214.799C277.434 225.602 281.871 235.683 289.62 237.316C297.37 238.949 305.498 231.516 307.774 220.713Z" fill="#262727"/>
<path d="M402.239 237.326C409.988 235.693 414.425 225.612 412.149 214.809C409.872 204.006 401.744 196.573 393.995 198.206C386.245 199.839 381.808 209.92 384.085 220.723C386.361 231.526 394.489 238.96 402.239 237.326Z" fill="#262727"/>
<path d="M376.659 235.19C376.039 245.77 360.619 253.69 347.989 253.58C335.229 253.47 319.539 245.11 319.319 234.1C319.089 223.15 334.229 213.72 347.279 213.55C361.469 213.37 377.319 224.07 376.669 235.18L376.659 235.19Z" fill="#FAE0EB"/>
<path d="M354.849 225.56C354.699 228.15 350.869 230.05 347.779 230.05C344.689 230.05 340.859 228.15 340.709 225.56C340.559 222.9 344.359 220.32 347.779 220.32C351.189 220.32 354.999 222.89 354.839 225.56H354.849Z" fill="#ED83AC"/>
<path d="M401.499 232.46C397.439 233.23 392.769 230.33 392.779 227.73C392.799 225.25 397.069 223.42 399.689 222.86C402.349 222.3 406.969 222.28 407.949 224.5C409.019 226.89 405.739 231.66 401.489 232.46H401.499Z" fill="#F6C6DB"/>
<path d="M290.689 232.65C294.749 233.42 299.419 230.52 299.409 227.92C299.389 225.44 295.119 223.61 292.499 223.05C289.839 222.49 285.219 222.47 284.239 224.69C283.169 227.08 286.449 231.85 290.699 232.65H290.689Z" fill="#F6C6DB"/>
<path d="M403.81 212.79C403.95 213.36 404.67 216.19 402.88 218.54C402.64 218.85 401.41 220.41 399.19 220.79C396.42 221.26 394.4 219.49 394.01 219.14C392.08 217.36 391.92 215 391.9 214.43C391.75 211.4 393.57 207.24 396.99 206.81C400.42 206.38 403.1 209.99 403.81 212.78V212.79Z" fill="white"/>
<path d="M289.009 211.82C288.339 214.2 288.509 217.96 291.209 219.86C293.559 221.51 296.329 220.7 296.569 220.63C299.669 219.67 301.109 216.47 301.359 214.12C301.699 210.88 300.059 206.45 296.589 205.77C293.079 205.09 289.899 208.67 289.009 211.82Z" fill="white"/>
<path d="M399.31 19C393.87 19 388.7 20.19 384.06 22.34C377.01 9.05 363.11 0 347.12 0C331.13 0 317.38 8.95 310.29 22.12C305.77 20.11 300.77 18.99 295.51 18.99C275.21 18.99 258.76 44.83 258.76 65.31C258.76 85.79 275.21 102.38 295.51 102.38C307.61 102.38 318.35 96.48 325.05 87.37C331.46 91.39 339.02 93.71 347.13 93.71C355.24 93.71 363.11 91.29 369.6 87.12C376.28 96.37 387.1 102.38 399.32 102.38C419.62 102.38 436.07 85.78 436.07 65.31C436.07 44.84 419.62 18.99 399.32 18.99L399.31 19Z" fill="white"/>
<path d="M399.72 133.12C392.51 128.37 374.15 125.98 347.51 125.88C320.4 125.77 301.69 128.38 294.49 133.12C293 116.9 291.42 107.92 289.75 89.71C301.09 84.48 320.65 77.43 346.19 77.27C372.71 77.1 392.98 84.42 404.47 89.71C402.79 107.91 401.2 116.89 399.71 133.12H399.72Z" fill="white"/>
<g opacity="0.8">
<path d="M385.27 33.5098C385.99 39.0198 386.3 46.7898 384.32 55.8298C381.93 66.7598 377.19 75.0798 373.58 80.3298" fill="white"/>
<path d="M385.27 33.5098C390.29 49.5598 385.33 68.3998 373.58 80.3298C376.9 72.8098 379.95 65.4298 381.93 57.5298C383.97 49.6398 384.81 41.7198 385.27 33.5098Z" fill="#DADADA"/>
</g>
<g opacity="0.8">
<path d="M309.19 34.2202C308.47 39.7302 308.16 47.5002 310.14 56.5402C312.53 67.4702 317.27 75.7902 320.88 81.0402" fill="white"/>
<path d="M309.19 34.2202C309.65 42.4302 310.49 50.3502 312.53 58.2402C314.51 66.1402 317.56 73.5202 320.88 81.0402C309.13 69.1202 304.16 50.2802 309.19 34.2202Z" fill="#DADADA"/>
</g>
<g opacity="0.8">
<path d="M298.09 101.04C327.08 84.5302 364.86 84.5002 393.85 101.04C386.16 97.9702 378.3 95.5202 370.29 93.8702C346.15 88.7502 320.88 91.7202 298.09 101.04Z" fill="#D7D7D7"/>
</g>
</svg>
