<svg width="698" height="854" viewBox="0 0 698 854" fill="none" xmlns="http://www.w3.org/2000/svg">
<path d="M526.83 102.04C543.43 115.48 536.44 223.62 499.62 237.91C457.27 254.36 379.89 185.98 392.23 141.51C402.71 103.73 510.23 88.5999 526.83 102.04Z" fill="#353535"/>
<path d="M500.74 258.26C501.35 292.61 484.01 318.45 478.97 325.75C440.99 380.77 371.6 380.55 349.05 380.48C296.68 380.31 205.49 358.66 188.69 292.97C179.27 256.17 197.44 222.1 205.93 206.19C232.7 155.99 288.18 117.69 349.06 119.81C425.78 122.48 499.52 188.92 500.75 258.26H500.74Z" fill="white"/>
<mask id="mask0_1804_13515" style="mask-type:luminance" maskUnits="userSpaceOnUse" x="186" y="119" width="315" height="262">
<path d="M500.74 258.26C501.35 292.61 484.01 318.45 478.97 325.75C440.99 380.77 371.6 380.55 349.05 380.48C296.68 380.31 205.49 358.66 188.69 292.97C179.27 256.17 197.44 222.1 205.93 206.19C232.7 155.99 288.18 117.69 349.06 119.81C425.78 122.48 499.52 188.92 500.75 258.26H500.74Z" fill="white"/>
</mask>
<g mask="url(#mask0_1804_13515)">
<path d="M395.041 108.53C389.601 120.85 388.641 134.52 391.331 147.65C394.071 161.03 400.441 173.61 409.161 184.09C418.431 195.23 430.651 203.68 443.791 209.63C457.651 215.91 472.531 219.51 487.601 221.36C495.021 222.27 502.511 222.78 509.981 222.84C516.601 222.9 523.281 222.45 529.761 221.05C535.941 219.71 542.061 217.41 547.121 213.55C552.181 209.69 556.071 204.3 557.811 198.09C561.411 185.18 556.081 170.98 547.411 161.31C537.371 150.11 522.531 144.39 508.471 140.19C500.381 137.77 492.191 135.67 484.041 133.45C475.131 131.03 466.231 128.62 457.321 126.2C439.431 121.35 421.541 116.49 403.651 111.64C399.321 110.46 394.991 109.29 390.651 108.11C388.781 107.6 387.991 110.5 389.851 111C407.101 115.68 424.351 120.36 441.601 125.04C458.851 129.72 476.101 134.4 493.351 139.08C507.701 142.97 522.571 146.65 535.161 154.89C546.181 162.1 554.781 173.61 555.831 187.07C556.311 193.26 555.011 199.45 551.531 204.64C548.051 209.83 543.051 213.3 537.481 215.56C525.311 220.51 511.551 220.23 498.671 219.37C484.021 218.4 469.401 215.89 455.511 211.06C441.991 206.37 429.011 199.34 418.491 189.55C408.911 180.63 401.441 169.33 397.071 156.98C392.791 144.87 391.451 131.58 394.581 119.03C395.351 115.95 396.371 112.92 397.651 110.01C398.421 108.26 395.841 106.73 395.061 108.5L395.041 108.53Z" fill="white"/>
<path d="M404.32 112.95C387.35 126.68 380.75 150.86 385.37 172.2C389.99 193.53 404.58 211.86 422.63 224.12C440.69 236.39 462 243.08 483.48 246.97C490.72 248.28 498.43 249.25 505.24 246.46C513.46 243.11 518.7 234.96 522.07 226.75C531.04 204.93 530.16 179.27 519.71 158.11C509.26 136.96 489.41 120.67 466.62 114.54C446.78 109.21 425.79 111.36 405.36 113.56" fill="#353535"/>
</g>
<path d="M168.8 102.04C152.2 115.48 159.19 223.62 196.01 237.91C238.36 254.36 315.74 185.98 303.4 141.51C292.92 103.73 185.4 88.5999 168.8 102.04Z" fill="#FFDC83"/>
<path d="M187.75 121.4C178.92 128.55 182.64 186.08 202.22 193.69C224.75 202.44 265.92 166.06 259.36 142.4C253.78 122.3 196.58 114.25 187.75 121.4Z" fill="#FFBBD2"/>
<path d="M509 121.4C517.83 128.55 514.11 186.08 494.52 193.69C471.99 202.44 430.82 166.06 437.38 142.4C442.96 122.3 500.16 114.25 508.99 121.4H509Z" fill="#FFBBD2"/>
<path d="M431.17 230.76C429.19 243.41 416.48 252.65 403.15 252.65C390.38 252.65 379.73 244.14 378.79 232.58" fill="#86C663"/>
<path d="M378.78 232.58C377.73 219.66 388.95 207.06 404.69 205.84C421.3 204.55 433.4 216.47 431.16 230.76" fill="#4D962C"/>
<path d="M265.22 230.76C267.2 243.41 279.91 252.65 293.24 252.65C306.01 252.65 316.66 244.14 317.6 232.58" fill="#86C663"/>
<path d="M317.6 232.58C318.65 219.66 307.43 207.06 291.69 205.84C275.08 204.55 262.98 216.47 265.22 230.76" fill="#4D962C"/>
<path d="M403.94 248.04C412.622 248.04 419.66 240.259 419.66 230.66C419.66 221.061 412.622 213.28 403.94 213.28C395.258 213.28 388.22 221.061 388.22 230.66C388.22 240.259 395.258 248.04 403.94 248.04Z" fill="black"/>
<path d="M418.42 230.18C421.176 230.18 423.41 227.946 423.41 225.19C423.41 222.434 421.176 220.2 418.42 220.2C415.664 220.2 413.43 222.434 413.43 225.19C413.43 227.946 415.664 230.18 418.42 230.18Z" fill="white"/>
<path d="M291.27 248.04C299.952 248.04 306.99 240.259 306.99 230.66C306.99 221.061 299.952 213.28 291.27 213.28C282.588 213.28 275.55 221.061 275.55 230.66C275.55 240.259 282.588 248.04 291.27 248.04Z" fill="black"/>
<path d="M302.42 230.18C305.176 230.18 307.41 227.946 307.41 225.19C307.41 222.434 305.176 220.2 302.42 220.2C299.664 220.2 297.43 222.434 297.43 225.19C297.43 227.946 299.664 230.18 302.42 230.18Z" fill="white"/>
<path d="M353.63 239.5C334.93 238.03 322.67 260.23 326.36 269.02C331.39 281 371.44 280.91 376.74 268.06C380.29 259.46 370.06 240.79 353.64 239.5H353.63Z" fill="#FFDC83"/>
<path d="M361.3 250.46C361.99 253.46 357.01 258.21 351.81 258.34C346.29 258.48 340.96 253.39 341.65 250.32C342.32 247.39 348.47 246.41 352.21 246.58C354.74 246.7 360.63 247.54 361.3 250.45V250.46Z" fill="#FFBBD2"/>
<path d="M399.71 19C394.27 19 389.1 20.19 384.46 22.34C377.41 9.05 363.51 0 347.52 0C331.53 0 317.78 8.95 310.69 22.12C306.17 20.11 301.17 18.99 295.91 18.99C275.61 18.99 259.16 44.83 259.16 65.31C259.16 85.79 275.61 102.38 295.91 102.38C308.01 102.38 318.75 96.48 325.45 87.37C331.86 91.39 339.42 93.71 347.53 93.71C355.64 93.71 363.51 91.29 370 87.12C376.68 96.37 387.5 102.38 399.72 102.38C420.02 102.38 436.47 85.78 436.47 65.31C436.47 44.84 420.02 18.99 399.72 18.99L399.71 19Z" fill="white"/>
<path d="M400.12 133.12C392.91 128.37 374.55 125.98 347.91 125.88C320.8 125.77 302.09 128.38 294.89 133.12C293.4 116.9 291.82 107.92 290.15 89.71C301.49 84.48 321.05 77.43 346.59 77.27C373.11 77.1 393.38 84.42 404.87 89.71C403.19 107.91 401.6 116.89 400.11 133.12H400.12Z" fill="white"/>
<g opacity="0.8">
<path d="M385.67 33.51C386.39 39.02 386.7 46.79 384.72 55.83C382.33 66.76 377.59 75.08 373.98 80.33" fill="white"/>
<path d="M385.67 33.51C390.69 49.56 385.73 68.4 373.98 80.33C377.3 72.81 380.35 65.43 382.33 57.53C384.37 49.64 385.21 41.72 385.67 33.51Z" fill="#DADADA"/>
</g>
<g opacity="0.8">
<path d="M309.59 34.22C308.87 39.73 308.56 47.5 310.54 56.54C312.93 67.47 317.67 75.79 321.28 81.04" fill="white"/>
<path d="M309.59 34.22C310.05 42.43 310.89 50.35 312.93 58.24C314.91 66.14 317.96 73.52 321.28 81.04C309.53 69.12 304.56 50.28 309.59 34.22Z" fill="#DADADA"/>
</g>
<g opacity="0.8">
<path d="M298.49 101.04C327.48 84.53 365.26 84.5 394.25 101.04C386.56 97.97 378.7 95.52 370.69 93.87C346.55 88.75 321.28 91.72 298.49 101.04Z" fill="#D7D7D7"/>
</g>
<path d="M319.2 665.79C307.87 671.32 296.34 671.55 288.7 670.87C281.97 671.08 271.41 670.46 260.94 665.4C254.79 662.43 251.67 659.38 250.14 657.69C248.46 655.85 245.16 652.14 243.79 646.33C243.38 644.59 243.16 642.77 243.16 640.9C243.16 627.83 253.86 617.13 266.93 617.13H311.83C324.9 617.13 335.6 627.83 335.6 640.9C335.55 644.1 334.97 651.48 329.76 657.97C328.69 659.31 325.86 662.55 319.2 665.79Z" fill="#7F7F7F"/>
<path d="M450.05 665.79C438.72 671.32 427.19 671.55 419.55 670.87C412.82 671.08 402.26 670.46 391.79 665.4C385.64 662.43 382.52 659.38 380.99 657.69C379.31 655.85 376.01 652.14 374.64 646.33C374.23 644.59 374.01 642.77 374.01 640.9C374.01 627.83 384.71 617.13 397.78 617.13H442.68C455.75 617.13 466.45 627.83 466.45 640.9C466.4 644.1 465.82 651.48 460.61 657.97C459.54 659.31 456.71 662.55 450.05 665.79Z" fill="#7F7F7F"/>
<path d="M471.29 633.54H230.18C214.36 633.54 201.82 620.2 202.79 604.42L213.57 429.38C215.9 391.5 247.31 361.97 285.26 361.97H416.19C454.14 361.97 485.55 391.5 487.88 429.38L498.66 604.42C499.63 620.21 487.09 633.54 471.27 633.54H471.29Z" fill="white"/>
<path d="M343.16 408.24C329.37 405.23 313.9 412.17 297.27 405.63C282.01 399.63 268.35 392.86 256.4 386.08C255.53 383.98 254.02 379.64 253.97 373.82C253.92 367.66 255.53 363.06 256.4 360.95C285.32 372.12 314.24 371.93 343.17 383.1V408.23L343.16 408.24Z" fill="#FF4848"/>
<path d="M355.53 408.24C369.32 405.23 384.79 412.17 401.42 405.63C416.68 399.63 430.34 392.86 442.29 386.08C443.16 383.98 444.67 379.64 444.72 373.82C444.77 367.66 443.16 363.06 442.29 360.95C413.37 372.12 384.45 371.93 355.52 383.1V408.23L355.53 408.24Z" fill="#FF4848"/>
<path d="M355.24 416.32H339.6C335.23 416.32 331.84 412.51 332.35 408.17L335.03 385.45C335.46 381.77 338.58 379 342.28 379H352.57C356.27 379 359.39 381.77 359.82 385.45L362.5 408.17C363.01 412.51 359.62 416.32 355.25 416.32H355.24Z" fill="#EA4949"/>
<path d="M340.49 414.83H353.78C357.68 414.83 361.08 417.51 361.98 421.31L368.78 449.89C369.35 452.28 369.06 454.8 367.95 456.99L354.43 483.85C351.34 489.98 342.54 489.82 339.67 483.59L327.5 457.09C326.6 455.13 326.33 452.93 326.73 450.81L332.2 421.7C332.95 417.72 336.43 414.83 340.48 414.83H340.49Z" fill="#FF4848"/>
<path d="M299.56 440.49C305.32 440.49 309.99 435.82 309.99 430.06C309.99 424.3 305.32 419.63 299.56 419.63C293.8 419.63 289.13 424.3 289.13 430.06C289.13 435.82 293.8 440.49 299.56 440.49Z" fill="#E8E8E8"/>
<path d="M390.45 440.49C396.21 440.49 400.88 435.82 400.88 430.06C400.88 424.3 396.21 419.63 390.45 419.63C384.69 419.63 380.02 424.3 380.02 430.06C380.02 435.82 384.69 440.49 390.45 440.49Z" fill="#E8E8E8"/>
<path d="M299.56 477.38C305.32 477.38 309.99 472.71 309.99 466.95C309.99 461.19 305.32 456.52 299.56 456.52C293.8 456.52 289.13 461.19 289.13 466.95C289.13 472.71 293.8 477.38 299.56 477.38Z" fill="#E8E8E8"/>
<path d="M390.45 477.38C396.21 477.38 400.88 472.71 400.88 466.95C400.88 461.19 396.21 456.52 390.45 456.52C384.69 456.52 380.02 461.19 380.02 466.95C380.02 472.71 384.69 477.38 390.45 477.38Z" fill="#E8E8E8"/>
<path d="M299.56 517.31C305.32 517.31 309.99 512.64 309.99 506.88C309.99 501.12 305.32 496.45 299.56 496.45C293.8 496.45 289.13 501.12 289.13 506.88C289.13 512.64 293.8 517.31 299.56 517.31Z" fill="#E8E8E8"/>
<path d="M390.45 517.31C396.21 517.31 400.88 512.64 400.88 506.88C400.88 501.12 396.21 496.45 390.45 496.45C384.69 496.45 380.02 501.12 380.02 506.88C380.02 512.64 384.69 517.31 390.45 517.31Z" fill="#E8E8E8"/>
<path d="M495.69 550.1C456.6 556.85 407.08 562.19 351.75 562.29C295.08 562.39 245.74 556.82 205.99 549.96C205.99 544.94 206.79 540.31 206.79 535.28C247.06 541.84 295.53 546.63 351.75 546.53C406.65 546.44 454.85 541.33 494.44 534.88C494.44 539.9 495.69 545.08 495.69 550.1Z" fill="#E8E8E8"/>
<path d="M445.59 386.12L403.53 422.87C394.32 430.92 396.34 446.23 408.01 456.91L410.15 458.87C421.82 469.55 438.91 471.7 448.12 463.65L490.18 426.9C499.39 418.85 497.37 403.54 485.7 392.86L483.56 390.9C471.89 380.22 454.8 378.07 445.59 386.12Z" fill="white"/>
<path d="M445.59 386.12L403.53 422.87C394.32 430.92 396.34 446.23 408.01 456.91L410.15 458.87C421.82 469.55 438.91 471.7 448.12 463.65L490.18 426.9C499.39 418.85 497.37 403.54 485.7 392.86L483.56 390.9C471.89 380.22 454.8 378.07 445.59 386.12Z" stroke="white" stroke-miterlimit="10"/>
<path d="M436.99 468.13C427.89 478.48 406.74 476.64 397.74 463.74C389.72 452.25 392.47 433.62 404.52 427.29C415.73 421.4 430.14 428.7 436.64 438.63C442.08 446.94 444 460.16 436.98 468.13H436.99Z" fill="#353535"/>
<path d="M445.53 597.17L441.62 515.59C441.21 507.14 433.39 492.08 423.88 492.08C416.64 492.08 410.8 486.15 410.91 478.91L413.18 332.42C413.28 325.76 408.5 320.3 402.57 320.3H397.48C391.55 320.3 386.77 325.76 386.87 332.42L389.14 478.91C389.25 486.15 383.41 492.08 376.17 492.08C366.66 492.08 358.83 507.14 358.43 515.59L354.52 597.17C354.09 606.14 362.16 613.63 372.26 613.63H427.79C437.9 613.63 445.96 606.15 445.53 597.17ZM400.02 341.58C397.75 341.58 395.91 338.51 395.91 334.73C395.91 330.95 397.75 327.88 400.02 327.88C402.29 327.88 404.13 330.95 404.13 334.73C404.13 338.51 402.29 341.58 400.02 341.58Z" fill="#AFB2BC"/>
<path d="M145.73 581.44H92.3599C85.7324 581.44 80.3599 586.813 80.3599 593.44V649.35C80.3599 655.977 85.7324 661.35 92.3599 661.35H145.73C152.357 661.35 157.73 655.977 157.73 649.35V593.44C157.73 586.813 152.357 581.44 145.73 581.44Z" fill="#A73231"/>
<path d="M611.91 581.44H558.54C551.913 581.44 546.54 586.813 546.54 593.44V649.35C546.54 655.977 551.913 661.35 558.54 661.35H611.91C618.537 661.35 623.91 655.977 623.91 649.35V593.44C623.91 586.813 618.537 581.44 611.91 581.44Z" fill="#A73231"/>
<path d="M112.42 518.16H591.59V757.58C591.59 810.75 548.43 853.91 495.26 853.91H208.75C155.58 853.91 112.42 810.75 112.42 757.58V518.16Z" fill="#D65251"/>
<path d="M591.59 518.16H112.42V548.3H591.59V518.16Z" fill="white"/>
<path d="M277 392.98L358.75 433.78C376.65 442.71 384.71 460.13 376.67 472.48L375.2 474.75C367.16 487.1 345.93 489.9 328.03 480.97L246.28 440.17C228.38 431.24 220.32 413.82 228.36 401.47L229.83 399.2C237.87 386.85 259.1 384.05 277 392.98Z" fill="white"/>
<path d="M353.52 483.99C362.05 494.81 383.27 494.1 392.95 481.7C401.57 470.66 399.82 451.9 388.12 444.94C377.24 438.46 362.46 444.98 355.44 454.55C349.56 462.56 346.95 475.65 353.53 483.99H353.52Z" fill="#FFDC83"/>
<path d="M559.32 213.97C559.32 199.51 570.79 187.17 586.94 182.29C591.66 167.61 608.53 156.75 628.61 156.75C652.35 156.75 671.6 171.93 671.6 190.66C671.6 191.54 671.56 192.42 671.47 193.29C686.96 198.42 697.85 210.49 697.85 224.58C697.85 243.31 678.6 258.49 654.86 258.49C651.35 258.49 647.94 258.16 644.68 257.53C636.79 264.87 625.03 269.53 611.87 269.53C588.13 269.53 568.88 254.35 568.88 235.62C568.88 235.51 568.88 235.41 568.88 235.3C562.9 229.47 559.32 222.06 559.32 213.98V213.97Z" fill="#E2E2E2"/>
<path d="M546.59 459.82C558.254 459.82 567.71 450.364 567.71 438.7C567.71 427.036 558.254 417.58 546.59 417.58C534.926 417.58 525.47 427.036 525.47 438.7C525.47 450.364 534.926 459.82 546.59 459.82Z" fill="#E2E2E2"/>
<path d="M147.17 459.82C158.834 459.82 168.29 450.364 168.29 438.7C168.29 427.036 158.834 417.58 147.17 417.58C135.506 417.58 126.05 427.036 126.05 438.7C126.05 450.364 135.506 459.82 147.17 459.82Z" fill="#E2E2E2"/>
<path d="M104.12 366.04C122.865 366.04 138.06 356.584 138.06 344.92C138.06 333.256 122.865 323.8 104.12 323.8C85.3756 323.8 70.1802 333.256 70.1802 344.92C70.1802 356.584 85.3756 366.04 104.12 366.04Z" fill="#E2E2E2"/>
<path d="M0 240.05C0 223.44 19.07 209.97 42.6 209.97C64.45 209.97 82.44 221.58 84.91 236.54C104.38 238.92 119.04 249.32 119.04 261.8C119.04 276.03 99.96 287.57 76.43 287.57C57.5 287.57 41.46 280.1 35.91 269.77C15.56 267.49 0 255.06 0 240.05Z" fill="#E2E2E2"/>
<path d="M532.07 346.76C532.07 330.15 551.14 316.68 574.67 316.68C596.52 316.68 614.51 328.29 616.98 343.25C636.45 345.63 651.11 356.03 651.11 368.51C651.11 382.74 632.03 394.28 608.5 394.28C589.57 394.28 573.53 386.81 567.98 376.48C547.63 374.21 532.07 361.78 532.07 346.77V346.76Z" fill="#E2E2E2"/>
</svg>
