<svg width="696" height="823" viewBox="0 0 696 823" fill="none" xmlns="http://www.w3.org/2000/svg">
<path d="M331.68 634.5C320.35 640.03 308.82 640.26 301.18 639.58C294.45 639.79 283.89 639.17 273.42 634.11C267.27 631.14 264.15 628.09 262.62 626.4C260.94 624.56 257.64 620.85 256.27 615.04C255.86 613.3 255.64 611.48 255.64 609.61C255.64 596.54 266.34 585.84 279.41 585.84H324.31C337.38 585.84 348.08 596.54 348.08 609.61C348.03 612.81 347.45 620.19 342.24 626.68C341.17 628.02 338.34 631.26 331.68 634.5Z" fill="#7F7F7F"/>
<path d="M462.53 634.5C451.2 640.03 439.67 640.26 432.03 639.58C425.3 639.79 414.74 639.17 404.27 634.11C398.12 631.14 395 628.09 393.47 626.4C391.79 624.56 388.49 620.85 387.12 615.04C386.71 613.3 386.49 611.48 386.49 609.61C386.49 596.54 397.19 585.84 410.26 585.84H455.16C468.23 585.84 478.93 596.54 478.93 609.61C478.88 612.81 478.3 620.19 473.09 626.68C472.02 628.02 469.19 631.26 462.53 634.5Z" fill="#7F7F7F"/>
<path d="M483.78 602.25H242.67C226.85 602.25 214.31 588.91 215.28 573.13L226.06 398.09C228.39 360.21 259.8 330.68 297.75 330.68H428.68C466.63 330.68 498.04 360.21 500.37 398.09L511.15 573.13C512.12 588.92 499.58 602.25 483.76 602.25H483.78Z" fill="white"/>
<path d="M355.64 376.95C341.85 373.94 326.38 380.88 309.75 374.34C294.49 368.34 280.83 361.57 268.88 354.79C268.01 352.69 266.5 348.35 266.45 342.53C266.4 336.37 268.01 331.77 268.88 329.66C297.8 340.83 326.72 340.64 355.65 351.81V376.94L355.64 376.95Z" fill="#FF4848"/>
<path d="M368.01 376.95C381.8 373.94 397.27 380.88 413.9 374.34C429.16 368.34 442.82 361.57 454.77 354.79C455.64 352.69 457.15 348.35 457.2 342.53C457.25 336.37 455.64 331.77 454.77 329.66C425.85 340.83 396.93 340.64 368 351.81V376.94L368.01 376.95Z" fill="#FF4848"/>
<path d="M367.72 385.03H352.08C347.71 385.03 344.32 381.22 344.83 376.88L347.51 354.16C347.94 350.48 351.06 347.71 354.76 347.71H365.05C368.75 347.71 371.87 350.48 372.3 354.16L374.98 376.88C375.49 381.22 372.1 385.03 367.73 385.03H367.72Z" fill="#EA4949"/>
<path d="M352.97 383.54H366.26C370.16 383.54 373.56 386.22 374.46 390.02L381.26 418.6C381.83 420.99 381.54 423.51 380.43 425.7L366.91 452.56C363.82 458.69 355.02 458.53 352.15 452.3L339.98 425.8C339.08 423.84 338.81 421.64 339.21 419.52L344.68 390.41C345.43 386.43 348.91 383.54 352.96 383.54H352.97Z" fill="#FF4848"/>
<path d="M312.04 409.2C317.8 409.2 322.47 404.53 322.47 398.77C322.47 393.01 317.8 388.34 312.04 388.34C306.279 388.34 301.61 393.01 301.61 398.77C301.61 404.53 306.279 409.2 312.04 409.2Z" fill="#E8E8E8"/>
<path d="M402.93 409.2C408.69 409.2 413.36 404.53 413.36 398.77C413.36 393.01 408.69 388.34 402.93 388.34C397.17 388.34 392.5 393.01 392.5 398.77C392.5 404.53 397.17 409.2 402.93 409.2Z" fill="#E8E8E8"/>
<path d="M312.04 446.1C317.8 446.1 322.47 441.431 322.47 435.67C322.47 429.91 317.8 425.24 312.04 425.24C306.279 425.24 301.61 429.91 301.61 435.67C301.61 441.431 306.279 446.1 312.04 446.1Z" fill="#E8E8E8"/>
<path d="M402.93 446.1C408.69 446.1 413.36 441.431 413.36 435.67C413.36 429.91 408.69 425.24 402.93 425.24C397.17 425.24 392.5 429.91 392.5 435.67C392.5 441.431 397.17 446.1 402.93 446.1Z" fill="#E8E8E8"/>
<path d="M312.04 486.02C317.8 486.02 322.47 481.35 322.47 475.59C322.47 469.83 317.8 465.16 312.04 465.16C306.279 465.16 301.61 469.83 301.61 475.59C301.61 481.35 306.279 486.02 312.04 486.02Z" fill="#E8E8E8"/>
<path d="M402.93 486.02C408.69 486.02 413.36 481.35 413.36 475.59C413.36 469.83 408.69 465.16 402.93 465.16C397.17 465.16 392.5 469.83 392.5 475.59C392.5 481.35 397.17 486.02 402.93 486.02Z" fill="#E8E8E8"/>
<path d="M508.17 518.81C469.08 525.56 419.56 530.9 364.23 531C307.56 531.1 258.22 525.53 218.47 518.67C218.47 513.65 219.27 509.02 219.27 503.99C259.54 510.55 308.01 515.34 364.23 515.24C419.13 515.15 467.33 510.04 506.92 503.59C506.92 508.61 508.17 513.79 508.17 518.81Z" fill="#E8E8E8"/>
<path d="M271.97 350.84L320.92 395.29C331.64 405.02 332.09 420.35 321.92 429.34L320.06 430.99C309.9 439.99 292.81 439.39 282.09 429.65L233.14 385.2C222.42 375.47 221.97 360.14 232.14 351.15L234 349.5C244.16 340.5 261.25 341.1 271.97 350.84Z" fill="white"/>
<path d="M271.97 350.84L320.92 395.29C331.64 405.02 332.09 420.35 321.92 429.34L320.06 430.99C309.9 439.99 292.81 439.39 282.09 429.65L233.14 385.2C222.42 375.47 221.97 360.14 232.14 351.15L234 349.5C244.16 340.5 261.25 341.1 271.97 350.84Z" stroke="white" stroke-miterlimit="10"/>
<path d="M329.4 398.37C340.79 406.12 341.57 427.34 329.88 437.86C319.47 447.23 300.64 446.8 292.87 435.62C285.64 425.22 291.11 410.02 300.17 402.35C307.75 395.92 320.63 392.4 329.4 398.38V398.37Z" fill="#F7F7F7"/>
<path d="M377.21 565.88L373.3 484.3C372.89 475.85 365.07 460.79 355.56 460.79C348.32 460.79 342.48 454.86 342.59 447.62L344.86 301.13C344.96 294.47 340.18 289.01 334.25 289.01H329.16C323.23 289.01 318.45 294.47 318.55 301.13L320.82 447.62C320.93 454.86 315.09 460.79 307.85 460.79C298.34 460.79 290.51 475.85 290.11 484.3L286.2 565.88C285.77 574.85 293.84 582.34 303.94 582.34H359.47C369.58 582.34 377.64 574.86 377.21 565.88ZM331.7 310.29C329.43 310.29 327.59 307.22 327.59 303.44C327.59 299.66 329.43 296.59 331.7 296.59C333.97 296.59 335.81 299.66 335.81 303.44C335.81 307.22 333.97 310.29 331.7 310.29Z" fill="#AFB2BC"/>
<path d="M158.21 550.15H104.84C98.2124 550.15 92.8398 555.523 92.8398 562.15V618.06C92.8398 624.688 98.2124 630.06 104.84 630.06H158.21C164.837 630.06 170.21 624.688 170.21 618.06V562.15C170.21 555.523 164.837 550.15 158.21 550.15Z" fill="#A73231"/>
<path d="M624.39 550.15H571.02C564.393 550.15 559.02 555.523 559.02 562.15V618.06C559.02 624.688 564.393 630.06 571.02 630.06H624.39C631.017 630.06 636.39 624.688 636.39 618.06V562.15C636.39 555.523 631.017 550.15 624.39 550.15Z" fill="#A73231"/>
<path d="M124.9 486.87H604.07V726.29C604.07 779.46 560.91 822.62 507.74 822.62H221.23C168.06 822.62 124.9 779.46 124.9 726.29V486.87Z" fill="#D65251"/>
<path d="M604.07 486.87H124.9V517.01H604.07V486.87Z" fill="white"/>
<path d="M444.96 368.14L371.73 404.26C355.7 412.17 349.07 428.79 357.01 441.2L358.47 443.48C366.41 455.89 386.03 459.58 402.06 451.67L475.29 415.55C491.32 407.64 497.95 391.02 490.01 378.61L488.55 376.33C480.61 363.92 460.99 360.23 444.96 368.14Z" fill="white"/>
<path d="M380.16 452.7C371.63 463.52 350.41 462.81 340.73 450.41C332.11 439.37 333.86 420.61 345.56 413.65C356.44 407.17 371.22 413.69 378.24 423.26C384.12 431.27 386.73 444.36 380.15 452.7H380.16Z" fill="#F7F7F7"/>
<path d="M138.53 164.51C138.53 150.05 127.06 137.71 110.91 132.83C106.19 118.15 89.32 107.29 69.24 107.29C45.5 107.29 26.25 122.47 26.25 141.2C26.25 142.08 26.29 142.96 26.38 143.83C10.89 148.96 0 161.03 0 175.12C0 193.85 19.25 209.03 42.99 209.03C46.5 209.03 49.9099 208.7 53.1699 208.07C61.0599 215.41 72.82 220.07 85.98 220.07C109.72 220.07 128.97 204.89 128.97 186.16C128.97 186.05 128.97 185.95 128.97 185.84C134.95 180.01 138.53 172.6 138.53 164.52V164.51Z" fill="#E2E2E2"/>
<path d="M92.5198 334.75C117.516 334.75 137.78 320.745 137.78 303.47C137.78 286.194 117.516 272.19 92.5198 272.19C67.5234 272.19 47.2598 286.194 47.2598 303.47C47.2598 320.745 67.5234 334.75 92.5198 334.75Z" fill="#E2E2E2"/>
<path d="M154.6 419.89C166.264 419.89 175.72 410.434 175.72 398.77C175.72 387.106 166.264 377.65 154.6 377.65C142.936 377.65 133.48 387.106 133.48 398.77C133.48 410.434 142.936 419.89 154.6 419.89Z" fill="#E2E2E2"/>
<path d="M562.93 377.59C574.594 377.59 584.05 368.134 584.05 356.47C584.05 344.806 574.594 335.35 562.93 335.35C551.266 335.35 541.81 344.806 541.81 356.47C541.81 368.134 551.266 377.59 562.93 377.59Z" fill="#E2E2E2"/>
<path d="M695.9 231.06C695.9 214.45 676.83 200.98 653.3 200.98C631.45 200.98 613.46 212.59 610.99 227.55C591.52 229.93 576.86 240.33 576.86 252.81C576.86 267.04 595.94 278.58 619.47 278.58C638.4 278.58 654.44 271.11 659.99 260.78C680.34 258.51 695.9 246.08 695.9 231.07V231.06Z" fill="#E2E2E2"/>
<path d="M178.06 64.1598C225.49 58.9898 277 94.2198 279.75 143.13C280.43 155.3 278.01 166.85 273.31 177.38C288.38 161.62 297.96 141 296.68 118.23C293.93 69.3198 242.43 34.0898 194.99 39.2598C161.8 42.8798 132.63 66.0498 118.98 94.9098C134.27 78.4098 155.21 66.6498 178.06 64.1598Z" fill="#F7F7F7"/>
<path d="M113.31 148.83C125.21 191.69 176.31 215.26 219.89 206.81C239.59 202.99 258.94 192.39 273.31 177.38C278.01 166.85 280.43 155.3 279.75 143.13C277 94.2197 225.5 58.9897 178.06 64.1597C155.21 66.6497 134.27 78.4097 118.98 94.9097C110.96 111.86 108.29 130.77 113.31 148.83Z" fill="#FAE0EB"/>
<path d="M441.59 141.14C444.34 92.2298 495.84 56.9998 543.28 62.1698C563.03 64.3198 581.36 73.3998 595.84 86.4798C580.87 61.6298 554.24 42.5198 524.36 39.2598C476.93 34.0898 425.42 69.3198 422.67 118.23C421.23 143.86 433.54 166.77 451.96 183.08C444.73 170.6 440.74 156.35 441.59 141.14Z" fill="#F7F7F7"/>
<path d="M606.04 148.83C611.91 127.7 607.26 105.42 595.84 86.4697C581.36 73.3897 563.03 64.3197 543.28 62.1597C495.85 56.9897 444.34 92.2197 441.59 141.13C440.74 156.34 444.73 170.59 451.96 183.07C465.5 195.06 482.34 203.49 499.45 206.8C543.03 215.25 594.13 191.67 606.03 148.82L606.04 148.83Z" fill="#FAE0EB"/>
<path d="M500.69 236.7C501.28 265.9 484.72 287.86 479.9 294.06C443.63 340.82 377.39 340.63 355.86 340.57C305.86 340.43 218.8 322.03 202.76 266.2C193.77 234.92 211.12 205.97 219.22 192.45C244.78 149.78 297.74 117.24 355.87 119.03C429.12 121.3 499.52 177.76 500.7 236.7H500.69Z" fill="#F7F7F7"/>
<path d="M313.292 220.706C315.569 209.903 311.132 199.821 303.382 198.188C295.633 196.555 287.505 203.989 285.228 214.792C282.952 225.595 287.389 235.676 295.138 237.309C302.888 238.942 311.016 231.509 313.292 220.706Z" fill="#262727"/>
<path d="M407.796 237.357C415.545 235.724 419.982 225.642 417.706 214.839C415.429 204.036 407.301 196.603 399.552 198.236C391.802 199.869 387.366 209.95 389.642 220.753C391.919 231.556 400.046 238.99 407.796 237.357Z" fill="#262727"/>
<path d="M382.2 235.19C381.58 245.77 366.16 253.69 353.53 253.58C340.77 253.47 325.08 245.11 324.86 234.1C324.63 223.15 339.77 213.72 352.82 213.55C367.01 213.37 382.86 224.07 382.21 235.18L382.2 235.19Z" fill="#FAE0EB"/>
<path d="M360.4 225.56C360.25 228.15 356.42 230.05 353.33 230.05C350.24 230.05 346.41 228.15 346.26 225.56C346.11 222.9 349.91 220.32 353.33 220.32C356.74 220.32 360.55 222.89 360.39 225.56H360.4Z" fill="#ED83AC"/>
<path d="M407.04 232.46C402.98 233.23 398.31 230.33 398.32 227.73C398.34 225.25 402.61 223.42 405.23 222.86C407.89 222.3 412.51 222.28 413.49 224.5C414.56 226.89 411.28 231.66 407.03 232.46H407.04Z" fill="#F6C6DB"/>
<path d="M296.23 232.65C300.29 233.42 304.96 230.52 304.95 227.92C304.93 225.44 300.66 223.61 298.04 223.05C295.38 222.49 290.76 222.47 289.78 224.69C288.71 227.08 291.99 231.85 296.24 232.65H296.23Z" fill="#F6C6DB"/>
<path d="M409.35 212.79C409.49 213.36 410.21 216.19 408.42 218.54C408.18 218.85 406.95 220.41 404.73 220.79C401.96 221.26 399.94 219.49 399.55 219.14C397.62 217.36 397.46 215 397.44 214.43C397.29 211.4 399.11 207.24 402.53 206.81C405.96 206.38 408.64 209.99 409.35 212.78V212.79Z" fill="white"/>
<path d="M294.55 211.82C293.88 214.2 294.05 217.96 296.75 219.86C299.1 221.51 301.87 220.7 302.11 220.63C305.21 219.67 306.65 216.47 306.9 214.12C307.24 210.88 305.6 206.45 302.13 205.77C298.62 205.09 295.44 208.67 294.55 211.82Z" fill="white"/>
<path d="M407.54 19C402.1 19 396.93 20.19 392.29 22.34C385.24 9.05 371.34 0 355.35 0C339.36 0 325.61 8.95 318.52 22.12C314 20.11 309 18.99 303.74 18.99C283.44 18.99 266.99 44.83 266.99 65.31C266.99 85.79 283.44 102.38 303.74 102.38C315.84 102.38 326.58 96.48 333.28 87.37C339.69 91.39 347.25 93.71 355.36 93.71C363.47 93.71 371.34 91.29 377.83 87.12C384.51 96.37 395.33 102.38 407.55 102.38C427.85 102.38 444.3 85.78 444.3 65.31C444.3 44.84 427.85 18.99 407.55 18.99L407.54 19Z" fill="white"/>
<path d="M407.95 133.12C400.74 128.37 382.38 125.98 355.74 125.88C328.63 125.77 309.92 128.38 302.72 133.12C301.23 116.9 299.65 107.92 297.98 89.71C309.32 84.48 328.88 77.43 354.42 77.27C380.94 77.1 401.21 84.42 412.7 89.71C411.02 107.91 409.43 116.89 407.94 133.12H407.95Z" fill="white"/>
<g opacity="0.8">
<path d="M393.5 33.5098C394.22 39.0198 394.53 46.7898 392.55 55.8298C390.16 66.7598 385.42 75.0798 381.81 80.3298" fill="white"/>
<path d="M393.5 33.5098C398.52 49.5598 393.56 68.3998 381.81 80.3298C385.13 72.8098 388.18 65.4298 390.16 57.5298C392.2 49.6398 393.04 41.7198 393.5 33.5098Z" fill="#DADADA"/>
</g>
<g opacity="0.8">
<path d="M317.42 34.2202C316.7 39.7302 316.39 47.5002 318.37 56.5402C320.76 67.4702 325.5 75.7902 329.11 81.0402" fill="white"/>
<path d="M317.42 34.2202C317.88 42.4302 318.72 50.3502 320.76 58.2402C322.74 66.1402 325.79 73.5202 329.11 81.0402C317.36 69.1202 312.39 50.2802 317.42 34.2202Z" fill="#DADADA"/>
</g>
<g opacity="0.8">
<path d="M306.32 101.04C335.31 84.5302 373.09 84.5002 402.08 101.04C394.39 97.9702 386.53 95.5202 378.52 93.8702C354.38 88.7502 329.11 91.7202 306.32 101.04Z" fill="#D7D7D7"/>
</g>
</svg>
