<svg width="379" height="326" viewBox="0 0 379 326" fill="none" xmlns="http://www.w3.org/2000/svg">
<g clip-path="url(#clip0_887_6660)">
<path d="M268.81 406.268L165.845 422.701C136.785 427.339 109.834 406.532 106.998 377.265L98.2117 286.666C95.6123 259.835 114.343 235.613 140.981 231.362L232.881 216.695C259.519 212.443 284.866 229.631 290.74 255.939L310.591 344.772C317.005 373.468 297.87 401.63 268.81 406.268Z" fill="#F49F32"/>
<path d="M135.113 96.1401C139.559 68.9461 119.567 43.0547 90.46 38.3101C61.3524 33.5654 34.1515 51.7642 29.705 78.9582C25.2585 106.152 45.2502 132.044 74.3578 136.788C103.465 141.533 130.666 123.334 135.113 96.1401Z" fill="#F49F32"/>
<path d="M261.223 106.982C287.407 93.4132 298.347 62.5853 285.657 38.1263C272.966 13.6674 241.452 4.83946 215.267 18.4087C189.083 31.9779 178.143 62.8058 190.834 87.2648C203.524 111.724 235.038 120.552 261.223 106.982Z" fill="#F49F32"/>
<path d="M137.955 285.455L94.7652 330.291C85.3066 340.111 71.2322 340.54 63.4831 331.248L62.0654 329.545C54.3163 320.253 55.7074 304.619 65.1672 294.806L108.357 249.971C117.816 240.151 131.89 239.722 139.639 249.014L141.057 250.717C148.806 260.009 147.415 275.643 137.955 285.455Z" fill="#F49F32"/>
<mask id="mask0_887_6660" style="mask-type:luminance" maskUnits="userSpaceOnUse" x="57" y="242" width="90" height="96">
<path d="M137.955 285.455L94.7652 330.291C85.3066 340.111 71.2322 340.54 63.4831 331.248L62.0654 329.545C54.3163 320.253 55.7074 304.619 65.1672 294.806L108.357 249.971C117.816 240.151 131.89 239.722 139.639 249.014L141.057 250.717C148.806 260.009 147.415 275.643 137.955 285.455Z" fill="white"/>
</mask>
<g mask="url(#mask0_887_6660)">
<path d="M49.6087 257.77C66.3054 263.128 80.496 274.522 88.9122 289.952C91.8135 295.278 100.489 291.395 97.5555 286.018C87.9846 268.475 72.1393 255.047 53.053 248.926C47.2512 247.066 43.79 255.905 49.6087 257.77Z" fill="#3D3D3D"/>
<path d="M62.6403 245.434C79.337 250.792 93.5276 262.186 101.944 277.616C104.845 282.942 113.521 279.059 110.587 273.683C101.016 256.139 85.1709 242.711 66.0846 236.59C60.2828 234.73 56.8216 243.569 62.6403 245.434Z" fill="#3D3D3D"/>
<path d="M37.8549 271.736C54.5516 277.093 68.7422 288.487 77.1585 303.918C80.0597 309.243 88.7352 305.361 85.8017 299.984C76.2308 282.44 60.3855 269.013 41.2992 262.891C35.4974 261.031 32.0362 269.87 37.8549 271.736Z" fill="#3D3D3D"/>
</g>
<path d="M141.202 144.667C141.658 135.477 136.681 127.764 130.086 127.439C123.491 127.114 117.775 134.3 117.319 143.489C116.863 152.678 121.84 160.391 128.435 160.717C135.03 161.042 140.746 153.856 141.202 144.667Z" fill="#2B2B2B"/>
<path d="M221.185 145.924C227.351 143.563 229.68 134.684 226.386 126.093C223.092 117.502 215.423 112.452 209.257 114.814C203.091 117.176 200.762 126.055 204.056 134.646C207.35 143.237 215.019 148.286 221.185 145.924Z" fill="#2B2B2B"/>
<path d="M199.836 147.517C200.71 156.305 189.061 164.849 178.639 166.425C168.114 168.008 154.101 163.199 152.467 154.165C150.841 145.185 162.074 135.434 172.795 133.578C184.454 131.566 198.916 138.289 199.836 147.517Z" fill="#F5DDE9"/>
<path d="M180.609 142.467C180.832 144.618 177.924 146.683 175.377 147.09C172.829 147.496 169.43 146.429 168.966 144.326C168.491 142.152 171.286 139.536 174.099 139.087C176.912 138.638 180.376 140.255 180.609 142.467Z" fill="#E07BA9"/>
<path d="M219.927 142.005C216.683 143.171 212.457 141.396 212.124 139.255C211.814 137.215 215.089 135.139 217.173 134.342C219.288 133.532 223.09 132.909 224.195 134.606C225.384 136.434 223.315 140.792 219.927 142.005Z" fill="#EFC1D9"/>
<path d="M128.701 156.733C132.147 156.831 135.61 153.829 135.261 151.691C134.92 149.655 131.162 148.702 128.933 148.593C126.671 148.482 122.864 149.073 122.342 151.03C121.781 153.137 125.104 156.634 128.701 156.733Z" fill="#EFC1D9"/>
<path d="M219.25 125.516C219.442 125.966 220.399 128.199 219.239 130.369C219.085 130.658 218.275 132.109 216.495 132.705C214.276 133.459 212.378 132.265 212.012 132.027C210.185 130.822 209.75 128.898 209.651 128.433C209.129 125.962 210.082 122.295 212.839 121.495C215.603 120.686 218.289 123.307 219.242 125.517L219.25 125.516Z" fill="white"/>
<path d="M124.574 139.809C124.332 141.858 124.966 144.927 127.444 146.141C129.598 147.19 131.774 146.162 131.96 146.069C134.381 144.873 135.149 142.053 135.043 140.084C134.898 137.369 132.966 133.946 130.016 133.841C127.035 133.74 124.887 137.101 124.566 139.811L124.574 139.809Z" fill="white"/>
<path d="M298.486 146.977C297.833 142.886 295.625 139.291 292.275 136.375C289.576 134.027 287.755 130.851 287.287 127.315C285.453 113.613 279.85 90.4558 261.307 71.774C226.635 36.8275 174.683 45.7434 155.692 49.0065C137.341 52.1595 87.2608 60.7527 64.4504 104.449C52.6252 127.105 53.0225 149.828 54.6879 163.325C55.1223 166.85 54.2648 170.414 52.2293 173.325C49.2662 177.553 47.9105 182.213 48.6494 186.843C49.2986 190.91 51.4888 194.492 54.813 197.396C57.2812 199.556 58.7376 202.606 59.239 205.849C59.2415 205.865 59.2453 205.888 59.2478 205.904C60.9337 216.467 72.9977 223.725 88.2486 224.542C90.2772 224.65 92.264 225.15 94.0643 226.087C122.318 240.745 160.561 243.289 189.272 238.122C216.441 233.233 249.476 218.858 270.352 197.28C271.645 195.944 273.204 194.919 274.903 194.167C287.818 188.431 295.956 178.365 294.362 168.38C294.359 168.364 294.356 168.341 294.353 168.325C293.828 165.086 294.255 161.735 295.928 158.914C298.174 155.113 299.15 151.034 298.501 146.967L298.486 146.977Z" fill="#F49F32"/>
<mask id="mask1_887_6660" style="mask-type:luminance" maskUnits="userSpaceOnUse" x="48" y="45" width="251" height="196">
<path d="M298.486 146.977C297.833 142.886 295.625 139.291 292.275 136.375C289.576 134.027 287.755 130.851 287.287 127.315C285.453 113.613 279.85 90.4558 261.307 71.774C226.635 36.8275 174.683 45.7434 155.692 49.0065C137.341 52.1595 87.2608 60.7527 64.4504 104.449C52.6252 127.105 53.0225 149.828 54.6879 163.325C55.1223 166.85 54.2648 170.414 52.2293 173.325C49.2662 177.553 47.9105 182.213 48.6494 186.843C49.2986 190.91 51.4888 194.492 54.813 197.396C57.2812 199.556 58.7376 202.606 59.239 205.849C59.2415 205.865 59.2453 205.888 59.2478 205.904C60.9337 216.467 72.9977 223.725 88.2486 224.542C90.2772 224.65 92.264 225.15 94.0643 226.087C122.318 240.745 160.561 243.289 189.272 238.122C216.441 233.233 249.476 218.858 270.352 197.28C271.645 195.944 273.204 194.919 274.903 194.167C287.818 188.431 295.956 178.365 294.362 168.38C294.359 168.364 294.356 168.341 294.353 168.325C293.828 165.086 294.255 161.735 295.928 158.914C298.174 155.113 299.15 151.034 298.501 146.967L298.486 146.977Z" fill="white"/>
</mask>
<g mask="url(#mask1_887_6660)">
<path d="M39.773 169.885C50.461 155.969 66.1308 146.759 83.4553 144.05C89.4901 143.103 88.0027 133.733 81.96 134.681C62.1495 137.779 44.2839 148.444 32.0822 164.323C28.3537 169.177 36.051 174.73 39.7742 169.892L39.773 169.885Z" fill="#3D3D3D"/>
<path d="M48.9647 185.655C59.6528 171.74 75.3226 162.53 92.647 159.821C98.6819 158.874 97.1944 149.503 91.1518 150.452C71.3412 153.549 53.4757 164.215 41.274 180.093C37.5455 184.948 45.2428 190.501 48.966 185.663L48.9647 185.655Z" fill="#3D3D3D"/>
<path d="M307.203 120.406C290.665 109.114 270.367 104.539 250.576 107.762C244.546 108.74 246.026 118.112 252.071 117.131C269.386 114.312 287.138 118.196 301.625 128.085C306.67 131.531 312.257 123.858 307.201 120.398L307.203 120.406Z" fill="#3D3D3D"/>
<path d="M303.384 138.253C286.846 126.961 266.548 122.387 246.758 125.609C240.728 126.588 242.208 135.959 248.253 134.978C265.568 132.159 283.32 136.043 297.807 145.932C302.852 149.379 308.439 141.706 303.383 138.245L303.384 138.253Z" fill="#3D3D3D"/>
<path d="M151.659 38.7456L165.28 114.305C166.366 120.305 175.747 118.832 174.657 112.809L161.035 37.2491C159.95 31.2494 150.569 32.7225 151.659 38.7456Z" fill="#3D3D3D"/>
<path d="M138.434 72.1613C154.357 64.3917 171.99 61.4015 189.584 63.5493C195.665 64.2923 196.699 54.8559 190.635 54.1182C171.439 51.7776 151.88 55.0433 134.499 63.5258C129.021 66.2016 132.917 74.8511 138.434 72.1613Z" fill="#3D3D3D"/>
<path d="M141.295 90.0873C156.712 80.6531 174.79 77.5918 192.445 81.4754C198.416 82.7882 199.409 73.3424 193.496 72.0442C174.421 67.8508 154.019 71.2591 137.36 81.4518C132.221 84.594 136.075 93.2822 141.295 90.0873Z" fill="#3D3D3D"/>
<path d="M144.249 108.599C159.682 99.2102 177.744 96.1514 195.4 99.9869C201.376 101.283 202.368 91.8371 196.451 90.5558C177.375 86.4105 156.998 89.8228 140.315 99.9634C135.166 103.099 139.027 111.778 144.249 108.599Z" fill="#3D3D3D"/>
</g>
<path d="M92.7882 79.27C94.292 78.3495 95.2442 76.6843 95.0848 74.9323C94.9651 73.6303 94.317 72.3807 93.1717 71.5307C90.0916 69.2521 86.287 67.7055 82.0624 67.2429C70.521 65.9704 60.2465 73.2387 59.1091 83.4842C58.3273 90.5345 62.0858 97.1644 68.2703 101.021C68.9205 101.43 69.6448 101.651 70.3677 101.711C72.2672 101.865 74.0314 100.718 74.8721 99.0068C76.3938 95.8897 78.7884 91.8646 82.4905 87.799C86.1389 83.798 89.8695 81.0649 92.7961 79.2687L92.7882 79.27Z" fill="white"/>
<path d="M222.273 58.6044C220.558 58.1976 219.135 56.9116 218.741 55.197C218.449 53.9225 218.676 52.5332 219.5 51.3689C221.718 48.2447 224.852 45.5908 228.723 43.8361C239.295 39.0344 251.321 42.7434 255.591 52.126C258.529 58.5827 257.021 66.0531 252.344 71.6434C251.853 72.2341 251.233 72.6693 250.565 72.952C248.808 73.6889 246.775 73.1487 245.443 71.784C243.027 69.2954 239.498 66.2156 234.714 63.5043C230.002 60.8377 225.606 59.4016 222.266 58.6056L222.273 58.6044Z" fill="white"/>
<path d="M203.244 146.829C199.824 142.667 195.189 141.542 191.747 140.762C186.624 139.594 182.176 140.288 173.477 141.716C164.585 143.183 160.039 143.973 155.523 146.903C152.887 148.613 149.252 151.043 147.421 155.738C146.848 157.215 144.508 163.193 148.054 168.136C150.807 171.98 155.676 173.268 159.358 172.744C163.667 172.129 166.474 169.031 169.791 165.363C171.535 163.435 172.77 161.637 173.593 160.313C175.053 158.366 177.803 157.927 179.797 159.322C180.886 160.069 182.714 161.331 184.982 162.938C188.299 165.299 189.098 165.94 190.605 166.444C193.646 167.472 196.398 166.889 197.2 166.697C201.68 165.646 205.317 162.575 206.509 158.798C208.338 152.99 204.244 148.023 203.251 146.82L203.244 146.829Z" fill="white"/>
<path d="M171.159 149.18L166.687 144.858C163.882 142.143 165.384 137.395 169.236 136.781L176.605 135.605C180.457 134.99 183.362 139.034 181.541 142.487L178.637 147.986C177.167 150.775 173.424 151.372 171.151 149.181L171.159 149.18Z" fill="#3D3D3D"/>
<path d="M121.401 132.83C122.977 142.706 130.123 149.772 137.366 148.616C144.61 147.46 149.201 138.521 147.625 128.645C147.23 126.17 146.487 123.878 145.482 121.845L120.779 122.256C120.456 124.502 121.014 130.354 121.409 132.829L121.401 132.83Z" fill="#2B2B2B"/>
<path d="M220.591 116.999C222.167 126.876 217.576 135.815 210.333 136.971C203.089 138.127 195.944 131.061 194.368 121.184C193.973 118.709 193.965 116.301 194.287 114.055L217.891 106.758C218.897 108.791 220.188 114.525 220.583 117L220.591 116.999Z" fill="#2B2B2B"/>
<path d="M129.238 133.084C130.485 132.885 131.26 131.245 130.969 129.421C130.678 127.597 129.431 126.28 128.184 126.479C126.937 126.678 126.162 128.318 126.453 130.142C126.744 131.966 127.991 133.283 129.238 133.084Z" fill="white"/>
<path d="M201.327 122.011C202.574 121.812 203.349 120.172 203.058 118.348C202.767 116.524 201.52 115.207 200.273 115.406C199.025 115.605 198.25 117.245 198.541 119.069C198.832 120.893 200.08 122.21 201.327 122.011Z" fill="white"/>
<path d="M135.336 144.729C139.481 144.844 143.656 141.231 143.229 138.658C142.822 136.208 138.296 135.065 135.606 134.926C132.876 134.793 128.295 135.509 127.668 137.858C126.992 140.4 130.989 144.606 135.326 144.723L135.336 144.729Z" fill="#595959"/>
<path d="M211.404 132.589C207.501 133.988 202.409 131.855 202.013 129.276C201.638 126.822 205.582 124.326 208.096 123.357C210.649 122.381 215.225 121.635 216.552 123.673C217.986 125.878 215.497 131.119 211.411 132.58L211.404 132.589Z" fill="#595959"/>
<path d="M208.007 259.463L183.698 263.343C159.061 267.275 142.273 290.419 146.202 315.036L150.976 344.946C154.904 369.563 178.062 386.332 202.699 382.4L227.008 378.52C251.646 374.588 268.433 351.444 264.504 326.827L259.731 296.917C255.802 272.3 232.644 255.531 208.007 259.463Z" fill="#FADAB8"/>
<path d="M254.344 266.88L309.344 296.044C321.39 302.432 334.898 298.459 339.37 287.217L340.187 285.157C344.659 273.915 338.471 259.49 326.427 253.11L271.427 223.946C259.381 217.557 245.872 221.531 241.4 232.773L240.583 234.833C236.111 246.075 242.3 260.5 254.344 266.88Z" fill="#F49F32"/>
<mask id="mask2_887_6660" style="mask-type:luminance" maskUnits="userSpaceOnUse" x="239" y="220" width="103" height="80">
<path d="M254.344 266.88L309.344 296.044C321.39 302.432 334.898 298.459 339.37 287.217L340.187 285.157C344.659 273.915 338.471 259.49 326.427 253.11L271.427 223.946C259.381 217.557 245.872 221.531 241.4 232.773L240.583 234.833C236.111 246.075 242.3 260.5 254.344 266.88Z" fill="white"/>
</mask>
<g mask="url(#mask2_887_6660)">
<path d="M323.666 205.736C307.434 217.502 296.548 235.196 292.92 254.839C291.804 260.853 301.252 261.859 302.358 255.886C305.553 238.603 315.492 223.358 329.692 213.069C334.641 209.485 328.607 202.154 323.666 205.736Z" fill="#3D3D3D"/>
<path d="M307.442 198.069C291.21 209.835 280.324 227.529 276.696 247.172C275.581 253.186 285.028 254.193 286.134 248.219C289.329 230.936 299.268 215.691 313.468 205.402C318.417 201.818 312.383 194.487 307.442 198.069Z" fill="#3D3D3D"/>
<path d="M339.191 215.348C322.959 227.114 312.073 244.808 308.445 264.45C307.329 270.465 316.777 271.471 317.883 265.498C321.078 248.215 331.017 232.97 345.217 222.681C350.166 219.097 344.132 211.765 339.191 215.348Z" fill="#3D3D3D"/>
</g>
</g>
<defs>
<clipPath id="clip0_887_6660">
<rect width="316.055" height="421.067" fill="white" transform="translate(0 49.8116) rotate(-9.06787)"/>
</clipPath>
</defs>
</svg>
