<svg width="309" height="418" viewBox="0 0 309 418" fill="none" xmlns="http://www.w3.org/2000/svg">
<g clip-path="url(#clip0_887_6717)">
<path d="M108.165 421.565C87.1158 426.854 67.6645 419.838 32.1791 406.611C-4.387 392.98 -24.2039 385.596 -36.7372 367.457C-39.4965 363.461 -49.7288 347.623 -45.5302 314.685C-38.4169 258.823 1.66063 220.846 24.8366 202.56L169.738 256.667C175.471 285.074 180.991 337.84 151.394 384.563C142.591 398.451 131.234 415.76 108.167 421.558L108.165 421.565Z" fill="#457DB1"/>
<path d="M40.6056 226.529C45.7797 240.526 30.3346 257.416 9.09239 263.43L-41.0606 277.621C-53.9195 281.26 -66.1357 276.458 -69.5445 267.232C-72.9532 258.007 -66.7899 246.416 -54.6623 240.816L-7.33162 218.982C12.7172 209.735 35.4316 212.533 40.6082 226.523L40.6056 226.529Z" fill="#457DB1"/>
<path d="M148.935 266.98C135.854 274.16 136.449 297.04 148.55 315.505L177.128 359.094C184.455 370.27 196.828 374.65 205.449 369.917C214.071 365.183 217.012 352.39 211.523 340.212L190.087 292.7C181.006 272.575 162.017 259.801 148.938 266.974L148.935 266.98Z" fill="#457DB1"/>
<path d="M243.567 200.806C247.417 195.639 250.548 189.97 252.848 183.813C270.794 135.752 231.299 76.6029 164.625 51.7065C97.9513 26.81 29.3612 45.5996 11.4148 93.6607C9.11573 99.8179 7.76532 106.151 7.28623 112.578C-3.27329 117.981 -11.7051 126.812 -15.9836 138.27C-18.0219 148.125 -19.1657 162.387 -13.1026 177.591C-0.166092 209.996 36.5067 224.046 94.5834 245.4C151.434 266.303 186.439 278.638 216.355 263.272C231.103 255.692 239.548 243.986 244.303 235.462C248.584 223.998 248.001 211.808 243.567 200.806Z" fill="#457DB1"/>
<path d="M225.988 198.981C225.723 197.992 225.398 196.995 225.047 196.005C227.351 192.157 229.367 188.024 231.012 183.62C243.187 151.013 231.059 116.361 203.913 106.225C183.034 98.4288 159.359 107.414 143.999 126.814C142.518 128.685 139.718 129.296 137.21 128.321C136.478 128.04 135.74 127.757 135.008 127.476C132.53 126.543 130.873 124.282 130.975 121.935C132.087 97.2226 120.092 74.9257 99.2197 67.1319C72.0744 56.9957 40.2026 75.2169 28.0269 107.824C26.418 112.133 25.244 116.48 24.4655 120.804C23.8089 121.194 23.159 121.586 22.5313 122.002C18.7571 124.519 6.16995 132.906 3.31092 147.759C-0.101837 165.526 12.499 181.637 16.8136 187.151C25.2955 197.992 36.8657 207.075 91.8815 227.998C163.031 255.053 179.783 253.596 190.963 250.763C196.967 249.241 215.972 244.428 224.152 228.805C230.66 216.375 227.123 203.199 225.988 198.981Z" fill="white"/>
<path d="M131.965 177.996L122.252 178.125C119.294 178.167 116.437 177.085 114.249 175.106L107.323 168.849C104.312 166.13 105.6 161.144 109.558 160.229L118.357 158.195C123.085 157.103 128.008 158.957 130.836 162.893L135.981 170.041C138.349 173.342 136.028 177.942 131.971 177.999L131.965 177.996Z" fill="#FFCC3B"/>
<path d="M155.622 173.435C157.873 172.248 158.355 168.741 156.699 165.601C155.043 162.461 151.876 160.877 149.625 162.064C147.375 163.251 146.893 166.758 148.549 169.898C150.205 173.038 153.372 174.621 155.622 173.435Z" fill="#262727"/>
<path d="M99.3787 151.571C102.687 150.285 104.622 147.32 103.7 144.949C102.778 142.578 99.3487 141.698 96.04 142.984C92.7313 144.27 90.7965 147.235 91.7184 149.607C92.6404 151.978 96.07 152.858 99.3787 151.571Z" fill="#262727"/>
<path d="M111.263 164.915C113.794 166.411 116.867 167.992 120.465 169.389C124.733 171.045 128.64 172.031 131.917 172.628" stroke="#D7A338" stroke-width="2.43298" stroke-miterlimit="10" stroke-linecap="round"/>
<path d="M152.995 143.182C154.323 146.366 156.656 150.884 160.726 155.392C166.073 161.315 171.899 164.42 175.425 165.969" stroke="#474747" stroke-width="3.2485" stroke-miterlimit="10" stroke-linecap="round"/>
<path d="M115.567 129.207C112.477 130.74 107.755 132.624 101.725 133.361C93.8055 134.33 87.3705 132.856 83.6922 131.715" stroke="#474747" stroke-width="3.2485" stroke-miterlimit="10" stroke-linecap="round"/>
<path d="M93.7825 412.795L75.9553 406.138C62.3894 401.072 48.1385 405.702 44.1138 416.48L43.4819 418.172C41.6954 422.957 45.2351 428.7 51.2568 430.948L53.6016 431.824C57.0746 433.121 60.6574 432.817 63.2 431.296C63.8474 430.911 64.8532 431.286 65.0895 432.002C66.0131 434.817 68.5199 437.395 71.9929 438.691L75.4524 439.983C78.9254 441.28 82.5082 440.976 85.0509 439.455C85.6982 439.07 86.7041 439.446 86.9403 440.161C87.8639 442.976 90.3707 445.554 93.8438 446.851L96.1886 447.726C102.21 449.975 108.575 447.93 110.362 443.145L111.066 441.48C115.091 430.702 107.355 417.863 93.7961 412.8L93.7825 412.795Z" fill="#FFCC3B"/>
<path d="M0.996379 378.148L-16.8309 371.491C-30.3967 366.426 -44.6476 371.055 -48.6723 381.833L-49.3042 383.525L-49.1955 383.566C-50.982 388.35 -47.5511 394.053 -41.5294 396.302L-39.1846 397.177C-35.7115 398.474 -32.1287 398.17 -29.5861 396.649C-28.9388 396.264 -27.9329 396.639 -27.6967 397.355C-26.7731 400.17 -24.2662 402.748 -20.7932 404.045L-17.3338 405.336C-13.8607 406.633 -10.2779 406.329 -7.73529 404.809C-7.08797 404.423 -6.08207 404.799 -5.84585 405.514C-4.92225 408.329 -2.4154 410.907 1.05763 412.204L3.40242 413.079C9.42414 415.328 15.753 413.27 17.5395 408.485L17.6483 408.526L18.2802 406.834C22.3049 396.055 14.569 383.216 1.00997 378.153L0.996379 378.148Z" fill="#FFCC3B"/>
<path d="M21.7637 293.87L114.747 328.591C120.408 330.705 123.292 337.024 121.178 342.685L119.597 346.919C109.301 374.49 78.5547 388.516 50.9812 378.22L37.3882 373.145C9.8147 362.848 -4.21398 332.103 6.08131 304.532L7.66227 300.298C9.77614 294.637 16.0954 291.754 21.7569 293.868L21.7637 293.87Z" fill="white"/>
</g>
<defs>
<clipPath id="clip0_887_6717">
<rect width="301.201" height="394.932" fill="white" transform="translate(26.1528) rotate(20.476)"/>
</clipPath>
</defs>
</svg>
