<svg width="712" height="928" viewBox="0 0 712 928" fill="none" xmlns="http://www.w3.org/2000/svg">
<path d="M514.677 922.217C505.845 922.217 497.596 918.918 492.13 913.302C486.665 918.918 478.416 922.217 469.584 922.217H461.102C452.27 922.217 444.021 918.918 438.556 913.302C433.09 918.934 424.841 922.217 416.009 922.217H410.26C394.829 922.217 381.931 913.069 379.099 900.971H378.265V891.822C378.265 889.572 378.449 887.323 378.799 885.09C369.25 885.156 359.235 885.173 349.67 885.173H338.405C333.606 885.173 328.94 885.173 324.391 885.173C324.741 887.373 324.907 889.606 324.907 891.839V900.987H324.074C321.241 913.069 308.343 922.234 292.913 922.234H287.164C278.332 922.234 270.083 918.934 264.617 913.319C259.151 918.934 250.903 922.234 242.071 922.234H233.589C224.757 922.234 216.508 918.934 211.043 913.319C205.577 918.934 197.345 922.234 188.496 922.234H182.747C167.316 922.234 154.418 913.085 151.585 900.987H150.752V891.839C150.752 878.474 156.935 865.743 167.966 856.061C167.649 855.844 167.35 855.628 167.033 855.428C150.236 843.713 119.657 813.901 103.693 745.979C97.3609 719.05 94.5613 691.038 95.3445 662.592L91.3619 665.509C78.6473 674.841 63.8997 679.973 49.8186 679.973C35.7376 679.973 23.1396 674.757 14.9742 665.275C-1.97304 645.612 2.7762 613.117 26.0224 589.688L110.325 504.668C121.057 493.837 133.588 484.705 146.636 478.172C147.203 477.073 147.786 475.956 148.369 474.856C112.242 465.458 85.4794 450.194 64.5162 427.081C43.7862 404.251 30.655 375.689 25.4892 342.194L25.4226 341.811V341.428C25.4226 314.116 35.6543 287.503 54.3012 266.157C50.4852 252.126 48.5355 237.761 48.5355 223.414C48.5355 164.756 80.0637 109.732 137.304 68.4554C194.045 27.5454 269.416 4.99902 349.52 4.99902C429.624 4.99902 504.978 27.5287 561.736 68.4554C618.976 109.732 650.505 164.756 650.505 223.414C650.505 237.778 648.572 252.126 644.739 266.157C663.386 287.503 673.618 314.132 673.618 341.428V341.811L673.568 342.178C668.452 375.689 655.32 404.268 634.524 427.081C614.394 449.194 588.681 464.075 554.354 473.373C571.167 479.755 587.565 490.587 601.496 504.651L685.799 589.671C709.045 613.101 713.778 645.595 696.847 665.259C688.682 674.724 676.3 679.956 662.003 679.956C647.922 679.956 633.174 674.824 620.46 665.492L599.779 650.311C601.513 680.09 599.363 709.535 593.381 737.98C586.048 772.841 576.083 820.25 531.441 852.995C544.688 862.927 552.404 877.008 552.404 891.839V900.987H551.571C548.738 913.069 535.84 922.234 520.409 922.234H514.66L514.677 922.217Z" fill="white"/>
<path d="M349.52 9.99838C512.977 9.99838 645.489 105.55 645.489 223.397C645.489 238.495 643.305 253.209 639.173 267.423C657.553 287.537 668.601 313.316 668.601 341.411C665.219 363.558 656.453 395.553 630.807 423.715C607.645 449.127 577.883 463.542 539.739 471.774C540.239 472.673 540.722 473.573 541.222 474.473C560.452 479.289 580.932 491.02 597.929 508.168L682.232 593.187C703.846 614.984 707.778 644.879 693.031 661.993C685.665 670.541 674.434 674.957 661.969 674.957C649.504 674.957 635.757 670.541 623.392 661.46L593.98 639.863C596.746 670.608 595.58 703.219 588.481 736.964C580.699 773.925 570.167 820.3 525.191 851.312C524.308 851.929 523.408 852.512 522.508 853.095C537.589 861.794 547.404 875.891 547.404 891.839V895.988H547.138C547.138 907.72 535.173 917.235 520.409 917.235H514.66C506.144 917.235 498.679 913.702 494.43 908.386C493.88 907.703 492.996 907.37 492.113 907.37C491.23 907.37 490.347 907.703 489.797 908.386C485.548 913.702 478.082 917.235 469.567 917.235H461.085C452.57 917.235 445.104 913.702 440.855 908.386C440.305 907.703 439.422 907.37 438.539 907.37C437.655 907.37 436.772 907.703 436.222 908.386C431.973 913.702 424.507 917.235 415.992 917.235H410.243C395.479 917.235 383.514 907.72 383.514 895.988H383.248V891.839C383.248 887.773 383.897 883.823 385.097 880.057C374.032 880.174 362.268 880.191 349.653 880.191C345.804 880.191 342.038 880.191 338.338 880.191C331.323 880.191 324.59 880.191 318.075 880.157C319.258 883.89 319.891 887.806 319.891 891.839V895.988H319.625C319.625 907.72 307.66 917.235 292.896 917.235H287.146C278.631 917.235 271.166 913.702 266.916 908.386C266.366 907.703 265.483 907.37 264.6 907.37C263.717 907.37 262.834 907.703 262.284 908.386C258.035 913.702 250.569 917.235 242.054 917.235H233.572C225.056 917.235 217.591 913.702 213.342 908.386C212.792 907.703 211.909 907.37 211.025 907.37C210.142 907.37 209.259 907.703 208.709 908.386C204.46 913.702 196.994 917.235 188.479 917.235H182.73C167.966 917.235 156.001 907.72 156.001 895.988H155.734V891.839C155.734 877.391 163.816 864.443 176.564 855.661C174.315 854.278 172.082 852.845 169.882 851.312C160.734 844.93 125.989 819.067 108.559 744.813C101.093 713.001 99.0602 681.94 100.777 652.378L88.3953 661.46C76.014 670.541 62.2996 674.957 49.8183 674.957C37.337 674.957 26.1221 670.558 18.7566 661.993C4.00899 644.879 7.95832 614.984 29.5548 593.187L113.858 508.168C124.956 496.969 137.554 488.088 150.302 481.922C152.135 478.356 153.968 474.89 155.784 471.54C119.507 463.025 90.6783 448.494 68.1986 423.731C42.936 395.903 33.9375 364.291 30.4047 341.428C30.4047 313.316 41.4529 287.553 59.8332 267.44C55.7006 253.226 53.5176 238.511 53.5176 223.414C53.5176 105.55 186.029 10.015 349.486 10.015M349.52 0C268.383 0 191.979 22.863 134.388 64.3896C106.076 84.8029 83.796 108.649 68.1819 135.278C51.8345 163.14 43.5526 192.785 43.5526 223.397C43.5526 237.312 45.3189 251.243 48.8184 264.874C30.488 286.787 20.4397 313.749 20.4397 341.411V342.178L20.5563 342.944C25.8888 377.422 39.4366 406.867 60.8331 430.43C80.6632 452.277 105.459 467.324 138.004 477.123C126.806 483.522 116.157 491.704 106.809 501.119L22.506 586.138C10.6746 598.07 2.92578 612.884 0.676142 627.865C-1.65681 643.479 2.09261 657.927 11.2245 668.525C20.3563 679.123 34.0707 684.956 49.8515 684.956C63.4827 684.956 77.6637 680.506 90.245 672.358C90.2783 697.837 93.1612 722.9 98.8603 747.112C105.643 775.974 122.506 827.683 160.234 856.628C150.918 866.626 145.769 878.941 145.769 891.856V906.003H147.952C152.868 918.335 166.616 927.25 182.763 927.25H188.512C196.928 927.25 204.926 924.617 211.059 919.968C217.191 924.6 225.19 927.25 233.605 927.25H242.087C250.502 927.25 258.501 924.617 264.633 919.968C270.766 924.6 278.765 927.25 287.18 927.25H292.929C309.076 927.25 322.824 918.351 327.74 906.003H329.923V891.856C329.923 891.306 329.923 890.756 329.889 890.206C332.672 890.206 335.489 890.206 338.355 890.206H349.436H349.67C357.385 890.206 365.4 890.206 373.299 890.156C373.283 890.722 373.266 891.289 373.266 891.856V906.003H375.449C380.365 918.335 394.112 927.25 410.26 927.25H416.009C424.424 927.25 432.423 924.617 438.555 919.968C444.688 924.6 452.686 927.25 461.102 927.25H469.584C477.999 927.25 485.998 924.617 492.13 919.968C498.262 924.6 506.261 927.25 514.676 927.25H520.425C536.573 927.25 550.32 918.351 555.236 906.003H557.419V891.856C557.419 877.425 550.887 863.66 539.456 853.162C581.382 819.351 591.464 771.425 598.279 739.03C603.645 713.484 605.978 687.172 605.228 660.526L617.51 669.542C631.074 679.49 646.871 684.972 662.002 684.972C677.133 684.972 691.514 679.14 700.63 668.542C709.761 657.943 713.511 643.512 711.178 627.882C708.945 612.917 701.196 598.103 689.348 586.155L605.045 501.135C594.097 490.087 581.649 480.955 568.651 474.29C597.546 464.641 620.043 450.394 638.206 430.447C659.67 406.884 673.234 377.439 678.5 342.928L678.616 342.178V341.411C678.616 313.749 668.585 286.787 650.238 264.874C653.737 251.243 655.504 237.312 655.504 223.397C655.504 192.785 647.221 163.14 630.874 135.278C615.26 108.666 592.98 84.8029 564.668 64.3896C507.078 22.863 430.673 0 349.536 0H349.52Z" fill="black"/>
<path d="M526.04 851.295C484.997 879.591 437.504 880.124 350.518 880.174C260.883 880.224 212.307 880.257 170.764 851.295C161.616 844.913 126.871 819.051 109.441 744.796C79.8622 618.866 135.586 504.935 170.764 446.961H526.04C561.201 503.485 615.475 612.601 589.33 736.931C581.548 773.891 571.016 820.267 526.04 851.279V851.295Z" fill="#457DB1"/>
<path d="M223.956 485.871C246.336 511.834 226.673 560.593 185.796 590.604L89.2782 661.443C64.5322 679.607 34.387 679.09 19.6394 661.976C4.89182 644.862 8.84125 614.967 30.4378 593.171L114.741 508.151C150.452 472.14 201.577 459.909 223.956 485.855V485.871Z" fill="#457DB1"/>
<path d="M489.579 485.871C467.2 511.834 486.863 560.593 527.74 590.604L624.258 661.443C649.004 679.607 679.149 679.09 693.896 661.976C708.644 644.862 704.694 614.967 683.098 593.171L598.795 508.151C563.084 472.14 511.959 459.909 489.579 485.855V485.871Z" fill="#457DB1"/>
<path d="M640.022 267.423C644.155 253.209 646.338 238.494 646.338 223.397C646.338 105.533 513.826 9.99805 350.369 9.99805C186.912 9.99805 54.4001 105.549 54.4001 223.397C54.4001 238.494 56.5831 253.209 60.7157 267.423C42.3354 287.536 31.2871 313.316 31.2871 341.411C34.8199 364.257 43.8185 395.869 69.0811 423.714C122.956 483.055 213.158 483.821 355.285 483.105C494.412 482.405 579.648 480.822 631.673 423.714C657.319 395.552 666.084 363.574 669.467 341.411C669.467 313.299 658.419 287.536 640.039 267.423H640.022Z" fill="#457DB1"/>
<path d="M600.745 277.622C599.378 275.705 597.879 273.822 596.329 271.972C598.195 261.841 599.212 251.326 599.212 240.528C599.212 160.574 545.27 95.751 478.715 95.751C427.523 95.751 383.797 134.111 366.333 188.203C364.65 193.418 359.117 196.985 352.935 196.901C351.135 196.885 349.319 196.868 347.519 196.851C341.437 196.835 336.054 193.302 334.388 188.169C316.924 134.095 273.198 95.751 222.023 95.751C155.467 95.751 101.526 160.574 101.526 240.528C101.526 251.092 102.492 261.391 104.292 271.323C103.192 272.689 102.109 274.055 101.092 275.455C94.9935 283.904 74.6468 312.066 80.4292 346.327C87.3614 387.304 127.422 411.85 141.136 420.248C168.098 436.762 200.293 447.011 335.488 447.827C510.326 448.877 545.204 432.28 566.984 417.199C578.682 409.1 615.709 383.471 620.758 343.278C624.774 311.299 606.577 285.787 600.745 277.622Z" fill="white"/>
<path d="M381.548 308.017L360.751 316.099C354.419 318.565 347.404 318.532 341.105 316.032L321.174 308.133C312.509 304.701 311.276 292.936 319.058 287.787L336.355 276.338C345.654 270.189 357.735 270.223 366.984 276.422L383.798 287.67C391.546 292.869 390.247 304.634 381.565 308.017H381.548Z" fill="#FFCC3B"/>
<path d="M428.723 279.128C432.612 274.766 430.831 266.831 424.745 261.404C418.658 255.978 410.572 255.115 406.683 259.477C402.793 263.839 404.575 271.774 410.661 277.2C416.747 282.627 424.834 283.49 428.723 279.128Z" fill="#262727"/>
<path d="M290.27 277.412C296.356 271.985 298.137 264.05 294.248 259.688C290.359 255.326 282.272 256.189 276.186 261.615C270.1 267.042 268.319 274.977 272.208 279.339C276.097 283.701 284.184 282.838 290.27 277.412Z" fill="#262727"/>
<path d="M326.49 296.502C333.139 297.685 341.021 298.618 349.886 298.735C360.401 298.868 369.6 297.852 377.132 296.502" stroke="#D7A338" stroke-width="5.9657" stroke-miterlimit="10" stroke-linecap="round"/>
<path d="M398.828 216.199C404.244 221.981 412.893 229.83 425.274 236.262C441.538 244.711 456.569 246.71 465.401 247.21" stroke="#474747" stroke-width="7.96538" stroke-miterlimit="10" stroke-linecap="round"/>
<path d="M307.075 216.199C301.66 221.981 293.011 229.83 280.63 236.262C264.366 244.711 249.335 246.71 240.503 247.21" stroke="#474747" stroke-width="7.96538" stroke-miterlimit="10" stroke-linecap="round"/>
<path d="M488.046 843.98H444.337C411.076 843.98 384.13 865.393 384.13 891.822V895.972H384.397C384.397 907.703 396.361 917.218 411.126 917.218H416.875C425.39 917.218 432.855 913.685 437.105 908.37C438.188 907.02 440.654 907.02 441.737 908.37C445.987 913.685 453.452 917.218 461.967 917.218H470.449C478.965 917.218 486.43 913.685 490.679 908.37C491.763 907.02 494.229 907.02 495.312 908.37C499.561 913.685 507.027 917.218 515.542 917.218H521.291C536.055 917.218 548.02 907.703 548.02 895.972H548.287V891.822C548.287 865.393 521.324 843.98 488.08 843.98H488.046Z" fill="#FFCC3B"/>
<path d="M260.551 843.98H216.842C183.58 843.98 156.635 865.393 156.635 891.822V895.972H156.901C156.901 907.703 168.866 917.218 183.63 917.218H189.38C197.895 917.218 205.36 913.685 209.609 908.37C210.693 907.02 213.159 907.02 214.242 908.37C218.491 913.685 225.957 917.218 234.472 917.218H242.954C251.469 917.218 258.935 913.685 263.184 908.37C264.267 907.02 266.734 907.02 267.817 908.37C272.066 913.685 279.532 917.218 288.047 917.218H293.796C308.56 917.218 320.525 907.703 320.525 895.972H320.792V891.822C320.792 865.393 293.829 843.98 260.585 843.98H260.551Z" fill="#FFCC3B"/>
<path d="M237.521 645.929H465.501C479.382 645.929 490.663 657.21 490.663 671.091V681.473C490.663 749.079 435.772 803.97 368.167 803.97H334.839C267.233 803.97 212.342 749.079 212.342 681.473V671.091C212.342 657.21 223.623 645.929 237.504 645.929H237.521Z" fill="white"/>
</svg>
