<svg width="879" height="305" viewBox="0 0 879 305" fill="none" xmlns="http://www.w3.org/2000/svg">
<path d="M373.624 297.073C376.611 304.904 385.193 301.07 398.417 296.028C411.64 290.986 422.057 287.649 419.07 279.818C416.083 271.987 403.125 270.226 389.722 274.771C367.978 282.139 370.638 289.242 373.624 297.067V297.073Z" fill="#F2C542"/>
<path d="M394.126 281.592C381.157 290.191 366.144 290.349 338.647 290.366C310.315 290.383 294.963 290.395 281.836 281.592C278.945 279.656 267.963 271.791 262.452 249.234C253.108 210.971 270.718 176.354 281.836 158.738H394.126C405.243 175.914 422.396 209.068 414.13 246.846C411.674 258.076 408.343 272.169 394.126 281.592Z" fill="#4478A7"/>
<path d="M308.045 165.112C317.321 175.873 311.037 194.494 296.103 205.194L260.843 230.46C251.804 236.936 240.201 235.948 234.081 228.857C227.966 221.76 228.7 210.134 236.441 202.151L266.636 171.007C279.425 157.817 298.763 154.345 308.039 165.112H308.045Z" fill="#4478A7"/>
<path d="M434.366 106.302C434.727 126.216 424.553 141.195 421.594 145.424C399.315 177.314 358.612 177.189 345.388 177.144C314.668 177.048 261.182 164.497 251.324 126.419C245.802 105.088 256.456 85.3383 261.436 76.1182C277.138 47.0181 309.677 24.8232 345.388 26.0484C390.394 27.5954 433.643 66.1076 434.366 106.297V106.302Z" fill="#4478A7"/>
<path d="M265.332 277.403C262.198 285.172 271.096 288.204 284.224 293.494C297.351 298.79 307.254 303.42 310.388 295.651C313.521 287.882 305.216 277.776 292.298 271.994C271.345 262.616 268.465 269.628 265.332 277.403Z" fill="#F2C542"/>
<mask id="mask0_1762_12353" style="mask-type:luminance" maskUnits="userSpaceOnUse" x="359" y="201" width="90" height="49">
<path d="M367.623 201.191H440.322C444.879 201.191 448.577 204.89 448.577 209.446C448.577 231.618 430.577 249.618 408.405 249.618H399.54C377.368 249.618 359.368 231.618 359.368 209.446C359.368 204.89 363.066 201.191 367.623 201.191Z" fill="white"/>
</mask>
<g mask="url(#mask0_1762_12353)">
<path d="M395.577 276.138C383.308 283.912 369.102 284.059 343.096 284.076C316.294 284.093 301.766 284.099 289.35 276.138C286.618 274.387 276.229 267.273 271.012 246.874C262.17 212.269 278.832 180.961 289.35 165.033H395.582C406.095 180.566 422.328 210.552 414.508 244.711C412.182 254.869 409.031 267.612 395.582 276.132L395.577 276.138Z" fill="white"/>
</g>
<path d="M434.377 104.005C436.635 121.965 421.865 162.939 391.099 166.728C377.91 168.354 367.086 168.286 347.737 168.286C310.834 168.286 293.325 137.182 318.417 120.926C345.557 103.344 335.225 83.9443 353.97 68.4513C358.594 64.6289 365.178 59.3046 375.358 56.6904C378.452 55.8943 396.864 51.496 413.328 62.2801C433.202 75.3001 433.874 99.9849 434.377 104.005Z" fill="white"/>
<path d="M393.595 124.748C395.657 122.909 396.261 120.22 394.943 118.742C393.625 117.265 390.885 117.557 388.823 119.395C386.761 121.234 386.158 123.923 387.475 125.401C388.793 126.879 391.533 126.586 393.595 124.748Z" fill="#262727"/>
<path d="M399.286 104.006C397.451 105.965 394.521 108.624 390.326 110.804C384.815 113.666 379.722 114.344 376.73 114.513" stroke="#484747" stroke-width="2.69885" stroke-miterlimit="10" stroke-linecap="round"/>
<path d="M433.507 141.528L426.461 144.267C424.315 145.102 421.938 145.091 419.804 144.244L413.051 141.568C410.115 140.405 409.698 136.419 412.334 134.674L418.195 130.795C421.346 128.712 425.439 128.723 428.573 130.823L434.27 134.634C436.895 136.396 436.455 140.382 433.513 141.528H433.507Z" fill="#F2C542"/>
<path d="M424.779 138.248C426.134 138.649 427.743 138.965 429.555 139.005C431.701 139.05 433.581 138.705 435.117 138.248" stroke="#D09F3B" stroke-width="1.69384" stroke-miterlimit="10" stroke-linecap="round"/>
<path d="M595.174 188.475L630.649 215.232C638.418 221.093 648.383 219.811 652.799 212.386L653.606 211.026C658.021 203.601 655.283 192.732 647.514 186.877L612.039 160.12C604.27 154.26 594.305 155.541 589.89 162.966L589.082 164.327C584.667 171.751 587.405 182.62 595.174 188.475Z" fill="#E79F4B"/>
<mask id="mask1_1762_12353" style="mask-type:luminance" maskUnits="userSpaceOnUse" x="586" y="156" width="70" height="63">
<path d="M595.174 188.475L630.649 215.232C638.418 221.093 648.383 219.811 652.799 212.386L653.606 211.026C658.021 203.601 655.283 192.732 647.514 186.877L612.039 160.12C604.27 154.26 594.305 155.541 589.89 162.966L589.082 164.327C584.667 171.751 587.405 182.62 595.174 188.475Z" fill="white"/>
</mask>
<g mask="url(#mask1_1762_12353)">
<path d="M650.896 153.16C638.136 159.63 628.475 170.883 623.71 184.326C622.248 188.442 628.792 190.215 630.243 186.127C634.438 174.299 643.155 164.666 654.318 159.009C658.208 157.039 654.781 151.189 650.896 153.16Z" fill="#393A3A"/>
<path d="M640.326 145.925C627.566 152.396 617.906 163.648 613.14 177.092C611.678 181.208 618.222 182.981 619.673 178.893C623.868 167.064 632.586 157.432 643.748 151.775C647.638 149.804 644.211 143.955 640.326 145.925Z" fill="#393A3A"/>
<path d="M660.749 161.685C647.989 168.156 638.328 179.408 633.563 192.852C632.1 196.968 638.644 198.741 640.095 194.653C644.29 182.824 653.008 173.192 664.17 167.534C668.061 165.564 664.633 159.715 660.749 161.685Z" fill="#393A3A"/>
</g>
<path d="M634.793 296.659C629.825 300.691 624.162 302.125 620.311 302.667C617.014 303.542 611.723 304.445 605.97 303.147C602.593 302.384 600.702 301.233 599.748 300.578C598.709 299.861 596.648 298.41 595.304 295.694C594.903 294.881 594.587 294.006 594.373 293.085C592.876 286.626 596.93 280.116 603.39 278.614L625.573 273.465C632.032 271.969 638.542 276.023 640.044 282.482C640.389 284.068 640.948 287.784 639.118 291.583C638.74 292.368 637.712 294.294 634.799 296.659H634.793Z" fill="#D88045"/>
<path d="M601.204 285.723H537.409C519.403 285.723 505.124 268.457 506.231 248.024L509.658 184.764C510.674 166.031 524.327 151.43 540.836 151.43H597.777C614.281 151.43 627.939 166.031 628.955 184.764L632.382 248.024C633.489 268.457 619.21 285.723 601.204 285.723Z" fill="#E79F4B"/>
<path d="M655.645 110.35C655.645 148.992 614.614 172.762 569.57 172.762C524.525 172.762 488 141.437 488 102.801C488 64.1645 524.519 32.8398 569.57 32.8398C602.108 32.8398 626.07 40.7952 636.962 74.1412C640.739 85.7045 639.768 95.924 654.86 105.042C656.729 106.172 655.65 109.029 655.65 110.355L655.645 110.35Z" fill="#E79F4B"/>
<path d="M579.85 59.5444C586.579 41.0548 576.003 20.2309 556.227 13.033C536.451 5.83517 514.964 14.9889 508.234 33.4786C501.505 51.9682 512.081 72.7921 531.857 79.9899C551.633 87.1878 573.12 78.034 579.85 59.5444Z" fill="#E79F4B"/>
<path d="M552.382 42.0477C553.557 41.6016 554.449 40.5571 554.567 39.3093C554.652 38.3777 554.364 37.4178 553.675 36.6669C551.823 34.6625 549.356 33.0703 546.454 32.1839C538.532 29.756 530.362 33.4938 528.206 40.5345C526.721 45.3789 528.477 50.5281 532.299 54.0513C532.7 54.4239 533.174 54.678 533.677 54.8135C534.992 55.1692 536.375 54.6046 537.189 53.5149C538.673 51.5331 540.881 49.0206 544.015 46.6662C547.103 44.3456 550.079 42.9228 552.371 42.0477H552.382Z" fill="white"/>
<mask id="mask2_1762_12353" style="mask-type:luminance" maskUnits="userSpaceOnUse" x="621" y="90" width="44" height="55">
<path d="M642.844 144.21C654.716 144.21 664.339 132.213 664.339 117.414C664.339 102.614 654.716 90.6172 642.844 90.6172C630.973 90.6172 621.35 102.614 621.35 117.414C621.35 132.213 630.973 144.21 642.844 144.21Z" fill="white"/>
</mask>
<g mask="url(#mask2_1762_12353)">
<path d="M655.582 110.35C655.582 148.992 614.552 172.762 569.507 172.762C524.462 172.762 487.938 141.437 487.938 102.801C487.938 64.1645 524.457 32.8398 569.507 32.8398C602.046 32.8398 626.008 40.7952 636.899 74.1412C640.676 85.7045 639.705 95.924 654.797 105.042C656.666 106.172 655.588 109.029 655.588 110.355L655.582 110.35Z" fill="white"/>
</g>
<path d="M652.036 111.755L649.371 108.204C647.7 105.974 649.292 102.795 652.076 102.795H657.4C660.184 102.795 661.776 105.974 660.105 108.204L657.44 111.755C656.09 113.556 653.386 113.556 652.031 111.755H652.036Z" fill="#393A3A"/>
<path d="M597.235 89.2665C597.235 96.4089 601.476 102.196 606.71 102.196C611.944 102.196 616.184 96.4089 616.184 89.2665C616.184 87.4767 615.918 85.7772 615.438 84.2302L597.986 81.7402C597.506 83.2873 597.241 87.4767 597.241 89.2665H597.235Z" fill="#262727"/>
<path d="M602.729 90.3235C603.63 90.3235 604.361 89.2542 604.361 87.9352C604.361 86.6161 603.63 85.5469 602.729 85.5469C601.828 85.5469 601.097 86.6161 601.097 87.9352C601.097 89.2542 601.828 90.3235 602.729 90.3235Z" fill="white"/>
<path d="M605.722 99.2202C608.63 99.7679 611.978 97.6902 611.966 95.8269C611.955 94.0541 608.895 92.7385 607.015 92.3376C605.106 91.9368 601.798 91.9255 601.092 93.512C600.33 95.2284 602.673 98.6444 605.716 99.2146L605.722 99.2202Z" fill="#595959"/>
<mask id="mask3_1762_12353" style="mask-type:luminance" maskUnits="userSpaceOnUse" x="501" y="247" width="51" height="18">
<path d="M539.272 264.027C529.68 264.027 514.35 262.333 502.239 253.051C500.879 252.006 500.619 250.058 501.664 248.697C502.708 247.337 504.656 247.077 506.017 248.122C522.577 260.808 547.222 257.364 547.465 257.325C549.159 257.076 550.74 258.245 550.988 259.945C551.237 261.638 550.068 263.219 548.374 263.473C547.984 263.53 544.467 264.032 539.267 264.032L539.272 264.027Z" fill="white"/>
</mask>
<g mask="url(#mask3_1762_12353)">
<path d="M601.205 289.055H537.409C519.404 289.055 505.125 271.789 506.231 251.356L509.658 188.096C510.675 169.363 524.327 154.762 540.836 154.762H597.777C614.281 154.762 627.939 169.363 628.955 188.096L632.383 251.356C633.489 271.789 619.21 289.055 601.205 289.055Z" fill="#E79F4B"/>
</g>
<mask id="mask4_1762_12353" style="mask-type:luminance" maskUnits="userSpaceOnUse" x="501" y="247" width="51" height="18">
<path d="M539.272 264.027C529.68 264.027 514.35 262.333 502.239 253.051C500.879 252.006 500.619 250.058 501.664 248.697C502.708 247.337 504.656 247.077 506.017 248.122C522.577 260.808 547.222 257.364 547.465 257.325C549.159 257.076 550.74 258.245 550.988 259.945C551.237 261.638 550.068 263.219 548.374 263.473C547.984 263.53 544.467 264.032 539.267 264.032L539.272 264.027Z" fill="white"/>
</mask>
<g mask="url(#mask4_1762_12353)">
<path d="M601.205 289.055H537.409C519.404 289.055 505.125 271.789 506.231 251.356L509.658 188.096C510.675 169.363 524.327 154.762 540.836 154.762H597.777C614.281 154.762 627.939 169.363 628.955 188.096L632.383 251.356C633.489 271.789 619.21 289.055 601.205 289.055Z" fill="#3F3F3F"/>
</g>
<mask id="mask5_1762_12353" style="mask-type:luminance" maskUnits="userSpaceOnUse" x="501" y="231" width="51" height="17">
<path d="M539.272 247.765C529.68 247.765 514.35 246.071 502.239 236.789C500.879 235.744 500.619 233.796 501.664 232.436C502.708 231.075 504.656 230.815 506.017 231.86C522.577 244.547 547.222 241.103 547.465 241.063C549.159 240.815 550.74 241.983 550.988 243.683C551.237 245.377 550.068 246.958 548.374 247.212C547.984 247.268 544.467 247.771 539.267 247.771L539.272 247.765Z" fill="white"/>
</mask>
<g mask="url(#mask5_1762_12353)">
<path d="M601.205 272.787H537.409C519.404 272.787 505.125 255.521 506.231 235.088L509.658 171.829C510.675 153.095 524.327 138.494 540.836 138.494H597.777C614.281 138.494 627.939 153.095 628.955 171.829L632.383 235.088C633.489 255.521 619.21 272.787 601.205 272.787Z" fill="#E79F4B"/>
</g>
<mask id="mask6_1762_12353" style="mask-type:luminance" maskUnits="userSpaceOnUse" x="501" y="231" width="51" height="17">
<path d="M539.272 247.765C529.68 247.765 514.35 246.071 502.239 236.789C500.879 235.744 500.619 233.796 501.664 232.436C502.708 231.075 504.656 230.815 506.017 231.86C522.577 244.547 547.222 241.103 547.465 241.063C549.159 240.815 550.74 241.983 550.988 243.683C551.237 245.377 550.068 246.958 548.374 247.212C547.984 247.268 544.467 247.771 539.267 247.771L539.272 247.765Z" fill="white"/>
</mask>
<g mask="url(#mask6_1762_12353)">
<path d="M601.205 272.787H537.409C519.404 272.787 505.125 255.521 506.231 235.088L509.658 171.829C510.675 153.095 524.327 138.494 540.836 138.494H597.777C614.281 138.494 627.939 153.095 628.955 171.829L632.383 235.088C633.489 255.521 619.21 272.787 601.205 272.787Z" fill="#3F3F3F"/>
</g>
<path d="M579.721 108.052C579.721 108.052 551.846 115.776 535.647 102.801" stroke="#3F3F3F" stroke-width="6.21073" stroke-linecap="round" stroke-linejoin="bevel"/>
<path d="M573.742 128.033C573.742 128.033 548.069 133.425 529.448 120.828" stroke="#3F3F3F" stroke-width="6.21073" stroke-linecap="round" stroke-linejoin="bevel"/>
<mask id="mask7_1762_12353" style="mask-type:luminance" maskUnits="userSpaceOnUse" x="582" y="175" width="83" height="87">
<path d="M632.303 175.521H614.738C596.936 175.521 582.504 189.953 582.504 207.755V229.386C582.504 247.188 596.936 261.619 614.738 261.619H632.303C650.105 261.619 664.537 247.188 664.537 229.386V207.755C664.537 189.953 650.105 175.521 632.303 175.521Z" fill="white"/>
</mask>
<g mask="url(#mask7_1762_12353)">
<path d="M601.199 285.723H537.404C519.398 285.723 505.119 268.457 506.226 248.024L509.653 184.764C510.669 166.031 524.322 151.43 540.831 151.43H597.772C614.276 151.43 627.934 166.031 628.95 184.764L632.377 248.024C633.484 268.457 619.205 285.723 601.199 285.723Z" fill="#E79F4B"/>
</g>
<mask id="mask8_1762_12353" style="mask-type:luminance" maskUnits="userSpaceOnUse" x="582" y="175" width="83" height="87">
<path d="M632.303 175.521H614.738C596.936 175.521 582.504 189.953 582.504 207.755V229.386C582.504 247.188 596.936 261.619 614.738 261.619H632.303C650.105 261.619 664.537 247.188 664.537 229.386V207.755C664.537 189.953 650.105 175.521 632.303 175.521Z" fill="white"/>
</mask>
<g mask="url(#mask8_1762_12353)">
<path d="M601.199 285.723H537.404C519.398 285.723 505.119 268.457 506.226 248.024L509.653 184.764C510.669 166.031 524.322 151.43 540.831 151.43H597.772C614.276 151.43 627.934 166.031 628.95 184.764L632.377 248.024C633.484 268.457 619.205 285.723 601.199 285.723Z" fill="#F5D9BB"/>
</g>
<mask id="mask9_1762_12353" style="mask-type:luminance" maskUnits="userSpaceOnUse" x="581" y="29" width="23" height="25">
<path d="M583.346 53.9901C583.041 53.9901 582.73 53.928 582.431 53.7981C581.29 53.2956 580.777 51.9575 581.279 50.8169C585.971 40.2248 599.64 30.7788 600.222 30.3836C601.255 29.6779 602.655 29.9432 603.361 30.9708C604.067 31.9984 603.802 33.4043 602.774 34.1101C602.644 34.2004 589.579 43.2285 585.412 52.6463C585.039 53.4875 584.215 53.9901 583.346 53.9901Z" fill="white"/>
</mask>
<g mask="url(#mask9_1762_12353)">
<path d="M655.644 110.35C655.644 148.992 614.614 172.762 569.569 172.762C524.524 172.762 488 141.437 488 102.801C488 64.1645 524.519 32.8398 569.569 32.8398C602.108 32.8398 626.07 40.7952 636.961 74.1412C640.738 85.7045 639.767 95.924 654.859 105.042C656.728 106.172 655.65 109.029 655.65 110.355L655.644 110.35Z" fill="#E79F4B"/>
</g>
<mask id="mask10_1762_12353" style="mask-type:luminance" maskUnits="userSpaceOnUse" x="581" y="29" width="23" height="25">
<path d="M583.346 53.9901C583.041 53.9901 582.73 53.928 582.431 53.7981C581.29 53.2956 580.777 51.9575 581.279 50.8169C585.971 40.2248 599.64 30.7788 600.222 30.3836C601.255 29.6779 602.655 29.9432 603.361 30.9708C604.067 31.9984 603.802 33.4043 602.774 34.1101C602.644 34.2004 589.579 43.2285 585.412 52.6463C585.039 53.4875 584.215 53.9901 583.346 53.9901Z" fill="white"/>
</mask>
<g mask="url(#mask10_1762_12353)">
<path d="M655.644 110.35C655.644 148.992 614.614 172.762 569.569 172.762C524.524 172.762 488 141.437 488 102.801C488 64.1645 524.519 32.8398 569.569 32.8398C602.108 32.8398 626.07 40.7952 636.961 74.1412C640.738 85.7045 639.767 95.924 654.859 105.042C656.728 106.172 655.65 109.029 655.65 110.355L655.644 110.35Z" fill="#3F3F3F"/>
</g>
<mask id="mask11_1762_12353" style="mask-type:luminance" maskUnits="userSpaceOnUse" x="597" y="35" width="21" height="23">
<path d="M599.494 57.0613C599.138 57.0613 598.771 56.9766 598.432 56.7959C597.331 56.2087 596.914 54.8423 597.501 53.7414C600.973 47.2144 611.029 38.3218 614.027 35.7528C614.976 34.9398 616.398 35.0527 617.211 35.9956C618.024 36.9441 617.912 38.367 616.969 39.18C611.102 44.2051 603.954 51.2288 601.487 55.8587C601.08 56.6209 600.301 57.0556 599.494 57.0556V57.0613Z" fill="white"/>
</mask>
<g mask="url(#mask11_1762_12353)">
<path d="M655.633 110.233C655.633 148.875 614.603 172.645 569.558 172.645C524.514 172.645 487.989 141.32 487.989 102.684C487.989 64.0473 524.508 32.7227 569.558 32.7227C602.097 32.7227 626.059 40.6781 636.95 74.0241C640.728 85.5873 639.757 95.8068 654.849 104.925C656.718 106.055 655.639 108.911 655.639 110.238L655.633 110.233Z" fill="#E79F4B"/>
</g>
<mask id="mask12_1762_12353" style="mask-type:luminance" maskUnits="userSpaceOnUse" x="597" y="35" width="21" height="23">
<path d="M599.494 57.0613C599.138 57.0613 598.771 56.9766 598.432 56.7959C597.331 56.2087 596.914 54.8423 597.501 53.7414C600.973 47.2144 611.029 38.3218 614.027 35.7528C614.976 34.9398 616.398 35.0527 617.211 35.9956C618.024 36.9441 617.912 38.367 616.969 39.18C611.102 44.2051 603.954 51.2288 601.487 55.8587C601.08 56.6209 600.301 57.0556 599.494 57.0556V57.0613Z" fill="white"/>
</mask>
<g mask="url(#mask12_1762_12353)">
<path d="M655.633 110.233C655.633 148.875 614.603 172.645 569.558 172.645C524.514 172.645 487.989 141.32 487.989 102.684C487.989 64.0473 524.508 32.7227 569.558 32.7227C602.097 32.7227 626.059 40.6781 636.95 74.0241C640.728 85.5873 639.757 95.8068 654.849 104.925C656.718 106.055 655.639 108.911 655.639 110.238L655.633 110.233Z" fill="#3F3F3F"/>
</g>
<path d="M538.222 300.269C532.017 301.827 526.275 300.737 522.554 299.603C519.194 299.004 514.017 297.587 509.348 293.985C506.609 291.867 505.378 290.027 504.791 289.027C504.153 287.938 502.9 285.753 502.826 282.726C502.804 281.817 502.888 280.891 503.08 279.965C504.447 273.478 510.872 269.289 517.365 270.655L539.65 275.353C546.138 276.719 550.327 283.144 548.961 289.637C548.599 291.218 547.544 294.826 544.28 297.497C543.608 298.05 541.864 299.36 538.222 300.275V300.269Z" fill="#D88045"/>
<path d="M548.549 196.612L513.074 223.369C505.305 229.229 495.339 227.948 490.924 220.523L490.117 219.162C485.702 211.738 488.44 200.869 496.209 195.014L531.684 168.257C539.453 162.396 549.418 163.678 553.833 171.103L554.641 172.463C559.056 179.888 556.318 190.757 548.549 196.612Z" fill="#E79F4B"/>
<mask id="mask13_1762_12353" style="mask-type:luminance" maskUnits="userSpaceOnUse" x="488" y="164" width="69" height="64">
<path d="M548.549 196.612L513.074 223.369C505.305 229.229 495.339 227.948 490.924 220.523L490.117 219.162C485.702 211.738 488.44 200.869 496.209 195.014L531.684 168.257C539.453 162.396 549.418 163.678 553.833 171.103L554.641 172.463C559.056 179.888 556.318 190.757 548.549 196.612Z" fill="white"/>
</mask>
<g mask="url(#mask13_1762_12353)">
<path d="M489.411 167.15C500.573 172.807 509.291 182.44 513.486 194.268C514.931 198.35 521.481 196.589 520.018 192.467C515.247 179.018 505.593 167.765 492.832 161.3C488.953 159.336 485.521 165.179 489.411 167.15Z" fill="#393A3A"/>
<path d="M499.981 159.917C511.143 165.575 519.861 175.207 524.056 187.036C525.501 191.118 532.051 189.356 530.588 185.235C525.817 171.786 516.162 160.533 503.402 154.068C499.523 152.103 496.09 157.947 499.981 159.917Z" fill="#393A3A"/>
<path d="M479.553 175.675C490.715 181.333 499.433 190.965 503.628 202.794C505.073 206.876 511.623 205.114 510.161 200.992C505.39 187.543 495.735 176.291 482.974 169.826C479.096 167.861 475.663 173.705 479.553 175.675Z" fill="#393A3A"/>
</g>
<path d="M855.158 294.066C849.687 298.656 843.398 300.299 839.124 300.932C835.465 301.937 829.587 302.975 823.168 301.519C819.402 300.666 817.279 299.362 816.212 298.622C815.043 297.809 812.734 296.166 811.198 293.089C810.735 292.163 810.373 291.175 810.125 290.131C808.363 282.802 812.79 275.4 819.96 273.678L844.578 267.766C851.743 266.044 859.049 270.634 860.805 277.958C861.205 279.759 861.883 283.971 859.901 288.29C859.495 289.182 858.377 291.367 855.164 294.06L855.158 294.066Z" fill="#353535"/>
<path d="M843.143 221.57L806.37 196.631C798.319 191.171 796.314 181.324 801.915 174.747L802.943 173.538C808.544 166.961 819.712 166.046 827.769 171.511L864.542 196.45C872.594 201.91 874.598 211.757 868.997 218.335L867.969 219.543C862.368 226.121 851.2 227.035 843.143 221.57Z" fill="#353535"/>
<path d="M748.045 304.109C741.665 304.533 736.205 302.432 732.75 300.654C729.548 299.463 724.71 297.148 720.763 292.761C718.448 290.186 717.567 288.159 717.167 287.069C716.732 285.884 715.89 283.512 716.359 280.52C716.5 279.622 716.749 278.724 717.104 277.849C719.611 271.712 726.68 268.736 732.823 271.243L753.906 279.848C760.043 282.355 763.019 289.424 760.512 295.567C759.874 297.063 758.186 300.417 754.499 302.461C753.736 302.884 751.789 303.861 748.045 304.109Z" fill="#F6D684"/>
<path d="M750.818 10.3658C740.31 14.1599 723.97 69.5484 739.221 83.2176C756.763 98.9421 806.782 78.3789 808.911 53.9256C810.723 33.1535 761.32 6.56591 750.818 10.3658Z" fill="#353535"/>
<path d="M871.397 115.688C877.946 119.776 860.133 148.407 857.682 152.072C839.225 179.664 797.698 178.964 786.739 178.93C761.292 178.846 716.986 167.988 708.816 135.049C704.243 116.592 713.068 99.5064 717.19 91.5341C730.198 66.358 757.136 47.6637 786.733 48.217C844.786 49.3067 843.121 98.0554 871.391 115.694L871.397 115.688Z" fill="#F7F7F7"/>
<path d="M836.023 284.823H737.34C724.156 284.823 716.416 267.298 719.814 247.762L731.44 180.855C733.563 168.654 742.755 159.344 752.014 159.344H821.349C830.608 159.344 839.806 168.654 841.923 180.855L853.549 247.762C856.942 267.298 849.201 284.823 836.023 284.823Z" fill="#F7F7F7"/>
<path d="M739.17 22.1021C728.662 25.8963 712.323 81.2847 727.573 94.954C745.115 110.678 795.134 90.1153 797.263 65.6619C799.075 44.8898 749.672 18.3022 739.17 22.1021Z" fill="#F6D684"/>
<path d="M744.828 35.1457C739.238 37.167 730.543 66.6342 738.656 73.9064C747.989 82.2739 774.6 71.3318 775.734 58.3231C776.7 47.268 750.417 33.1244 744.828 35.1457Z" fill="#EAB4CA"/>
<path d="M805.873 101.082C806.991 108.224 814.167 113.441 821.693 113.441C828.904 113.441 834.917 108.637 835.448 102.11" fill="#83BB62"/>
<path d="M835.453 102.109C836.046 94.814 829.711 87.6999 820.824 87.0111C811.446 86.2828 804.614 93.0129 805.879 101.081" fill="#4F9045"/>
<path d="M820.581 110.839C825.483 110.839 829.457 106.445 829.457 101.026C829.457 95.6063 825.483 91.2129 820.581 91.2129C815.679 91.2129 811.706 95.6063 811.706 101.026C811.706 106.445 815.679 110.839 820.581 110.839Z" fill="#030000"/>
<path d="M826.876 100.754C828.433 100.754 829.694 99.4926 829.694 97.9366C829.694 96.3805 828.433 95.1191 826.876 95.1191C825.32 95.1191 824.059 96.3805 824.059 97.9366C824.059 99.4926 825.32 100.754 826.876 100.754Z" fill="white"/>
<mask id="mask14_1762_12353" style="mask-type:luminance" maskUnits="userSpaceOnUse" x="712" y="237" width="64" height="64">
<path d="M743.799 300.04C761.099 300.04 775.124 286.015 775.124 268.715C775.124 251.415 761.099 237.391 743.799 237.391C726.499 237.391 712.475 251.415 712.475 268.715C712.475 286.015 726.499 300.04 743.799 300.04Z" fill="white"/>
</mask>
<g mask="url(#mask14_1762_12353)">
<path d="M836.085 284.823H737.402C724.219 284.823 716.478 267.298 719.877 247.762L731.502 180.855C733.625 168.654 742.817 159.344 752.077 159.344H821.411C830.671 159.344 839.868 168.654 841.986 180.855L853.611 247.762C857.004 267.298 849.263 284.823 836.085 284.823Z" fill="#F7F7F7"/>
</g>
<mask id="mask15_1762_12353" style="mask-type:luminance" maskUnits="userSpaceOnUse" x="712" y="237" width="64" height="64">
<path d="M743.799 300.04C761.099 300.04 775.124 286.015 775.124 268.715C775.124 251.415 761.099 237.391 743.799 237.391C726.499 237.391 712.475 251.415 712.475 268.715C712.475 286.015 726.499 300.04 743.799 300.04Z" fill="white"/>
</mask>
<g mask="url(#mask15_1762_12353)">
<path d="M836.085 284.823H737.402C724.219 284.823 716.478 267.298 719.877 247.762L731.502 180.855C733.625 168.654 742.817 159.344 752.077 159.344H821.411C830.671 159.344 839.868 168.654 841.986 180.855L853.611 247.762C857.004 267.298 849.263 284.823 836.085 284.823Z" fill="#F6D684"/>
<path d="M821.411 159.908C825.77 159.908 830.23 162.043 833.973 165.916C837.785 169.862 840.433 175.204 841.432 180.951L853.057 247.858C855.18 260.088 852.944 271.916 847.219 278.72C844.176 282.339 840.325 284.253 836.085 284.253H737.402C733.168 284.253 729.317 282.339 726.274 278.72C720.548 271.91 718.307 260.088 720.436 247.858L732.061 180.951C733.06 175.204 735.708 169.862 739.519 165.916C743.263 162.043 747.723 159.908 752.082 159.908H821.416M821.411 159.344H752.076C742.817 159.344 733.619 168.654 731.502 180.855L719.877 247.762C716.483 267.298 724.224 284.823 737.402 284.823H836.085C849.269 284.823 857.01 267.298 853.611 247.762L841.985 180.855C839.868 168.654 830.67 159.344 821.411 159.344Z" fill="#F6D684"/>
</g>
<mask id="mask16_1762_12353" style="mask-type:luminance" maskUnits="userSpaceOnUse" x="851" y="109" width="27" height="26">
<path d="M864.717 134.316C871.855 134.316 877.641 128.835 877.641 122.075C877.641 115.314 871.855 109.834 864.717 109.834C857.579 109.834 851.793 115.314 851.793 122.075C851.793 128.835 857.579 134.316 864.717 134.316Z" fill="white"/>
</mask>
<g mask="url(#mask16_1762_12353)">
<path d="M871.385 115.688C877.934 119.776 860.121 148.407 857.67 152.072C839.213 179.664 797.686 178.964 786.727 178.93C761.28 178.846 716.975 167.988 708.805 135.049C704.231 116.592 713.056 99.5064 717.178 91.5341C730.187 66.358 757.124 47.6637 786.721 48.217C844.775 49.3067 843.109 98.0554 871.379 115.694L871.385 115.688Z" fill="#F7F7F7"/>
</g>
<mask id="mask17_1762_12353" style="mask-type:luminance" maskUnits="userSpaceOnUse" x="851" y="109" width="27" height="26">
<path d="M864.717 134.316C871.855 134.316 877.641 128.835 877.641 122.075C877.641 115.314 871.855 109.834 864.717 109.834C857.579 109.834 851.793 115.314 851.793 122.075C851.793 128.835 857.579 134.316 864.717 134.316Z" fill="white"/>
</mask>
<g mask="url(#mask17_1762_12353)">
<path d="M871.385 115.688C877.934 119.776 860.121 148.407 857.67 152.072C839.213 179.664 797.686 178.964 786.727 178.93C761.28 178.846 716.975 167.988 708.805 135.049C704.231 116.592 713.056 99.5064 717.178 91.5341C730.187 66.358 757.124 47.6637 786.721 48.217C844.775 49.3067 843.109 98.0554 871.379 115.694L871.385 115.688Z" fill="#F6D684"/>
<path d="M785.445 48.1951V48.7597C785.869 48.7597 786.292 48.7597 786.716 48.771C803.326 49.0815 816.471 53.3839 826.893 61.9152C836.125 69.4697 842.206 79.3617 848.083 88.9319C854.689 99.6764 860.928 109.828 871.085 116.169C871.622 116.502 871.966 117.055 872.136 117.851C872.802 120.962 870.724 127.354 866.128 136.337C862.351 143.716 858.128 150.379 857.202 151.762C849.879 162.71 838.033 170.405 821.992 174.634C807.821 178.372 793.83 178.372 789.234 178.372C788.55 178.372 787.929 178.372 787.37 178.372H786.732C771.691 178.321 754.792 174.742 741.518 168.802C729.323 163.342 713.847 153.027 709.358 134.92C704.835 116.671 713.514 99.8684 717.686 91.7944C724.094 79.3899 733.721 68.7526 745.521 61.04C757.802 53.0112 771.606 48.771 785.445 48.771V48.2064M785.445 48.1951C756.356 48.1951 730.006 66.7144 717.184 91.5234C713.062 99.5014 704.231 116.587 708.81 135.038C716.975 167.983 761.28 178.841 786.727 178.92C787.438 178.92 788.279 178.925 789.234 178.925C802.982 178.925 840.416 177.858 857.676 152.061C860.126 148.402 877.94 119.765 871.39 115.678C843.12 98.0391 844.786 49.2848 786.732 48.2007C786.303 48.1951 785.874 48.1895 785.451 48.1895L785.445 48.1951Z" fill="#F6D684"/>
</g>
<path d="M878.381 116.828C878.77 119.346 875.959 123.321 873.023 123.428C869.906 123.541 866.897 119.279 867.286 116.715C867.664 114.265 871.137 113.44 873.248 113.582C874.677 113.678 878.003 114.389 878.381 116.828Z" fill="#EAB4CA"/>
<path d="M761.522 204.648L727.849 233.635C720.475 239.982 710.448 239.349 705.558 232.224L704.66 230.92C699.776 223.794 701.809 212.773 709.183 206.427L742.856 177.44C750.23 171.093 760.258 171.726 765.147 178.851L766.045 180.155C770.929 187.281 768.896 198.302 761.522 204.648Z" fill="#F6D684"/>
<path d="M133.919 207.582L157.401 228.422C162.545 232.984 170.551 231.352 175.192 224.792L176.045 223.589C180.691 217.028 180.285 207.932 175.141 203.365L151.659 182.525C146.515 177.963 138.509 179.594 133.868 186.155L133.015 187.358C128.369 193.919 128.775 203.014 133.919 207.582Z" fill="#F7F7F7"/>
<path d="M86.6946 269.848L62.001 263.25C55.5661 261.531 48.9558 265.353 47.2364 271.788L45.5179 278.219C43.7985 284.654 47.6212 291.264 54.056 292.984L78.7497 299.582C85.1846 301.301 91.7949 297.479 93.5143 291.044L95.2327 284.613C96.9521 278.178 93.1295 271.568 86.6946 269.848Z" fill="#F7F7F7"/>
<path d="M156.701 278.148H57.1202C43.8179 278.148 36.0093 263.327 39.4309 246.807L51.1635 190.221C53.3034 179.9 62.58 172.029 71.9299 172.029H141.897C151.241 172.029 160.523 179.9 162.663 190.221L174.396 246.807C177.823 263.327 170.009 278.148 156.706 278.148H156.701Z" fill="#EEC2D6"/>
<path d="M136.709 270.687L154.98 267.212C162.917 265.702 170.589 270.921 172.098 278.858L172.457 280.744C173.967 288.681 168.748 296.353 160.81 297.862L143.366 301.181C135.429 302.691 127.758 297.471 126.248 289.534L125.732 286.822C124.31 279.345 129.228 272.116 136.705 270.694L136.709 270.687Z" fill="#F7F7F7"/>
<path d="M78.5586 221.205L55.0764 242.045C49.9328 246.607 41.9266 244.975 37.2855 238.415L36.4329 237.212C31.7861 230.651 32.1927 221.555 37.3363 216.988L60.8185 196.148C65.9621 191.586 73.9683 193.217 78.6094 199.778L79.462 200.981C84.1088 207.542 83.7022 216.638 78.5586 221.205Z" fill="#F7F7F7"/>
<path d="M181.459 122.688C181.747 138.779 173.526 150.884 171.138 154.3C153.132 180.075 120.244 179.968 109.556 179.934C84.7296 179.855 41.5085 169.714 33.5418 138.943C29.0814 121.705 37.6917 105.744 41.7118 98.2963C54.4043 74.7802 80.6982 56.8425 109.556 57.8362C145.922 59.084 180.872 90.2055 181.459 122.688Z" fill="#F7F7F7"/>
<path d="M40.0405 25.7094C68.2654 22.9202 98.9182 41.9251 100.556 68.315C100.962 74.8815 99.5223 81.1148 96.7275 86.7891C105.694 78.2861 111.396 67.1632 110.634 54.8773C109.002 28.4873 78.3494 9.48243 50.1188 12.2716C30.3686 14.2252 13.0125 26.7257 4.8877 42.2977C13.9836 33.3938 26.4446 27.0475 40.0405 25.7094Z" fill="#F7F7F7"/>
<path d="M1.51129 71.3921C8.59152 94.513 39.0015 107.234 64.9398 102.677C76.6668 100.616 88.1793 94.8969 96.7275 86.7947C99.5223 81.1147 100.962 74.8814 100.556 68.3206C98.9238 41.9307 68.271 22.9258 40.0404 25.715C26.4446 27.0588 13.9836 33.405 4.88767 42.3033C0.116694 51.4444 -1.46987 61.6469 1.51129 71.3921Z" fill="#F5DEE8"/>
<path d="M194.174 131.382C193.869 137.678 186.281 142.392 180.065 142.33C173.786 142.262 166.068 137.294 165.955 130.739C165.842 124.223 173.295 118.611 179.714 118.509C186.693 118.402 194.496 124.771 194.174 131.382Z" fill="#F5DEE8"/>
<path d="M194.931 126.792C194.869 128.334 193.198 129.463 191.854 129.463C190.51 129.463 188.839 128.328 188.777 126.792C188.709 125.206 190.369 123.676 191.854 123.676C193.339 123.676 194.999 125.206 194.931 126.792Z" fill="#DD7FA3"/>
<path d="M153.713 114.468C154.498 106.211 150.333 99.0607 144.41 98.4977C138.487 97.9347 133.049 104.172 132.264 112.43C131.48 120.687 135.645 127.837 141.568 128.4C147.491 128.963 152.928 122.726 153.713 114.468Z" fill="#262727"/>
<path d="M141.964 124.839C145.058 125.065 148.305 122.507 148.067 120.565C147.847 118.719 144.505 117.708 142.5 117.516C140.468 117.324 137.018 117.702 136.47 119.441C135.877 121.316 138.723 124.602 141.964 124.839Z" fill="#EEC2D6"/>
<path d="M138.949 109.436C138.65 111.271 139.096 114.065 141.275 115.251C143.172 116.284 145.171 115.443 145.341 115.37C147.571 114.387 148.378 111.88 148.361 110.107C148.339 107.657 146.741 104.49 144.093 104.281C141.411 104.066 139.344 107.008 138.949 109.436Z" fill="white"/>
</svg>
