<svg width="878" height="305" viewBox="0 0 878 305" fill="none" xmlns="http://www.w3.org/2000/svg">
<path d="M265.332 279.403C262.198 287.172 271.096 290.204 284.224 295.494C297.351 300.79 307.254 305.42 310.388 297.651C313.521 289.882 305.216 279.776 292.298 273.994C271.345 264.616 268.465 271.628 265.332 279.403Z" fill="#F2C542"/>
<path d="M394.126 283.592C381.157 292.191 366.144 292.349 338.647 292.366C310.315 292.383 294.963 292.395 281.836 283.592C278.945 281.656 267.963 273.791 262.452 251.234C253.108 212.971 270.718 178.354 281.836 160.738H394.126C405.243 177.914 422.396 211.068 414.13 248.846C411.674 260.076 408.343 274.169 394.126 283.592Z" fill="#4478A7"/>
<path d="M308.045 167.112C317.321 177.873 311.037 196.494 296.103 207.194L260.843 232.46C251.804 238.936 240.201 237.948 234.081 230.857C227.966 223.76 228.7 212.134 236.441 204.151L266.636 173.007C279.425 159.817 298.763 156.345 308.039 167.112H308.045Z" fill="#4478A7"/>
<path d="M434.366 108.302C434.727 128.216 424.553 143.195 421.594 147.424C399.315 179.314 358.612 179.189 345.388 179.144C314.668 179.048 261.182 166.497 251.324 128.419C245.802 107.088 256.456 87.3383 261.436 78.1182C277.138 49.0181 309.677 26.8232 345.388 28.0484C390.394 29.5954 433.643 68.1076 434.366 108.297V108.302Z" fill="#4478A7"/>
<mask id="mask0_1762_12352" style="mask-type:luminance" maskUnits="userSpaceOnUse" x="359" y="203" width="90" height="49">
<path d="M367.623 203.191H440.322C444.879 203.191 448.577 206.89 448.577 211.446C448.577 233.618 430.577 251.618 408.405 251.618H399.54C377.368 251.618 359.368 233.618 359.368 211.446C359.368 206.89 363.066 203.191 367.623 203.191Z" fill="white"/>
</mask>
<g mask="url(#mask0_1762_12352)">
<path d="M395.577 278.138C383.308 285.912 369.102 286.059 343.096 286.076C316.294 286.093 301.766 286.099 289.35 278.138C286.618 276.387 276.229 269.273 271.012 248.874C262.17 214.269 278.832 182.961 289.35 167.033H395.582C406.095 182.566 422.328 212.552 414.508 246.711C412.182 256.869 409.031 269.612 395.582 278.132L395.577 278.138Z" fill="white"/>
</g>
<path d="M434.377 106.005C436.635 123.965 421.865 164.939 391.099 168.728C377.91 170.354 367.086 170.286 347.737 170.286C310.834 170.286 293.325 139.182 318.417 122.926C345.557 105.344 335.225 85.9443 353.97 70.4513C358.594 66.6289 365.178 61.3046 375.358 58.6904C378.452 57.8943 396.864 53.496 413.328 64.2801C433.202 77.3001 433.874 101.985 434.377 106.005Z" fill="white"/>
<path d="M393.595 126.748C395.657 124.909 396.261 122.22 394.943 120.742C393.625 119.265 390.885 119.557 388.823 121.395C386.761 123.234 386.158 125.923 387.475 127.401C388.793 128.879 391.533 128.586 393.595 126.748Z" fill="#262727"/>
<path d="M399.286 106.006C397.451 107.965 394.521 110.624 390.326 112.804C384.815 115.666 379.722 116.344 376.73 116.513" stroke="#484747" stroke-width="2.69885" stroke-miterlimit="10" stroke-linecap="round"/>
<path d="M433.507 143.528L426.461 146.267C424.315 147.102 421.938 147.091 419.804 146.244L413.051 143.568C410.115 142.405 409.698 138.419 412.334 136.674L418.195 132.795C421.346 130.712 425.439 130.723 428.573 132.823L434.27 136.634C436.895 138.396 436.455 142.382 433.513 143.528H433.507Z" fill="#F2C542"/>
<path d="M424.779 140.248C426.134 140.649 427.743 140.965 429.555 141.005C431.701 141.05 433.581 140.705 435.117 140.248" stroke="#D09F3B" stroke-width="1.69384" stroke-miterlimit="10" stroke-linecap="round"/>
<path d="M373.624 299.073C376.611 306.904 385.193 303.07 398.417 298.028C411.64 292.986 422.057 289.649 419.07 281.818C416.083 273.987 403.125 272.226 389.722 276.771C367.978 284.139 370.638 291.242 373.624 299.067V299.073Z" fill="#F2C542"/>
<path d="M543.543 191.178L508.068 217.935C500.299 223.796 490.334 222.514 485.918 215.09L485.111 213.729C480.696 206.304 483.434 195.435 491.203 189.58L526.678 162.823C534.447 156.963 544.412 158.244 548.827 165.669L549.635 167.03C554.05 174.454 551.312 185.323 543.543 191.178Z" fill="#E79F4B"/>
<mask id="mask1_1762_12352" style="mask-type:luminance" maskUnits="userSpaceOnUse" x="483" y="159" width="69" height="63">
<path d="M543.543 191.178L508.068 217.935C500.299 223.796 490.334 222.514 485.918 215.09L485.111 213.729C480.696 206.304 483.434 195.435 491.203 189.58L526.678 162.823C534.447 156.963 544.412 158.244 548.827 165.669L549.635 167.03C554.05 174.454 551.312 185.323 543.543 191.178Z" fill="white"/>
</mask>
<g mask="url(#mask1_1762_12352)">
<path d="M484.405 161.712C495.568 167.37 504.285 177.002 508.48 188.831C509.926 192.913 516.475 191.151 515.013 187.03C510.242 173.581 500.587 162.328 487.827 155.863C483.948 153.898 480.515 159.742 484.405 161.712Z" fill="#393A3A"/>
<path d="M494.975 154.48C506.137 160.137 514.855 169.77 519.05 181.598C520.495 185.68 527.045 183.919 525.582 179.797C520.811 166.348 511.157 155.095 498.396 148.631C494.517 146.666 491.085 152.509 494.975 154.48Z" fill="#393A3A"/>
<path d="M474.547 170.238C485.709 175.895 494.427 185.527 498.622 197.356C500.067 201.438 506.617 199.677 505.155 195.555C500.384 182.106 490.729 170.853 477.968 164.388C474.09 162.424 470.657 168.267 474.547 170.238Z" fill="#393A3A"/>
</g>
<path d="M538.371 300.284C532.166 301.843 526.424 300.753 522.703 299.618C519.343 299.02 514.166 297.603 509.496 294C506.758 291.883 505.527 290.042 504.94 289.043C504.302 287.953 503.049 285.768 502.975 282.742C502.953 281.833 503.037 280.907 503.229 279.981C504.596 273.494 511.021 269.304 517.514 270.671L539.799 275.368C546.287 276.734 550.476 283.16 549.11 289.653C548.748 291.234 547.692 294.842 544.429 297.512C543.757 298.066 542.013 299.375 538.371 300.29V300.284Z" fill="#D88045"/>
<path d="M601.353 285.734H537.558C519.552 285.734 505.273 268.469 506.38 248.035L509.807 184.776C510.823 166.042 524.475 151.441 540.985 151.441H597.926C614.429 151.441 628.087 166.042 629.104 184.776L632.531 248.035C633.638 268.469 619.359 285.734 601.353 285.734Z" fill="#E79F4B"/>
<path d="M634.942 296.677C629.974 300.708 624.311 302.142 620.46 302.684C617.163 303.559 611.872 304.463 606.119 303.164C602.742 302.402 600.851 301.25 599.897 300.595C598.858 299.878 596.797 298.427 595.453 295.711C595.052 294.898 594.736 294.023 594.522 293.103C593.025 286.644 597.079 280.134 603.538 278.632L625.722 273.483C632.181 271.986 638.691 276.04 640.193 282.499C640.537 284.086 641.097 287.801 639.267 291.601C638.889 292.386 637.861 294.311 634.948 296.677H634.942Z" fill="#D88045"/>
<path d="M655.793 110.362C655.793 149.004 614.763 172.774 569.718 172.774C524.673 172.774 488.148 141.449 488.148 102.813C488.148 64.1763 524.668 32.8516 569.718 32.8516C602.257 32.8516 626.219 40.8069 637.11 74.1529C640.887 85.7162 639.916 95.9357 655.008 105.054C656.877 106.183 655.799 109.04 655.799 110.367L655.793 110.362Z" fill="#E79F4B"/>
<path d="M580.007 59.5444C586.737 41.0548 576.161 20.2309 556.385 13.0331C536.609 5.83517 515.122 14.9889 508.392 33.4786C501.663 51.9682 512.239 72.7921 532.015 79.9899C551.791 87.1878 573.278 78.034 580.007 59.5444Z" fill="#E79F4B"/>
<path d="M552.531 42.0594C553.706 41.6133 554.598 40.5688 554.716 39.321C554.801 38.3894 554.513 37.4295 553.824 36.6786C551.972 34.6742 549.505 33.082 546.603 32.1956C538.681 29.7678 530.511 33.5055 528.354 40.5462C526.87 45.3906 528.625 50.5398 532.448 54.063C532.849 54.4357 533.323 54.6897 533.826 54.8252C535.141 55.181 536.524 54.6163 537.337 53.5266C538.822 51.5449 541.03 49.0323 544.164 46.6779C547.252 44.3573 550.228 42.9345 552.52 42.0594H552.531Z" fill="white"/>
<mask id="mask2_1762_12352" style="mask-type:luminance" maskUnits="userSpaceOnUse" x="621" y="90" width="44" height="55">
<path d="M642.993 144.22C654.865 144.22 664.488 132.223 664.488 117.423C664.488 102.624 654.865 90.627 642.993 90.627C631.122 90.627 621.499 102.624 621.499 117.423C621.499 132.223 631.122 144.22 642.993 144.22Z" fill="white"/>
</mask>
<g mask="url(#mask2_1762_12352)">
<path d="M655.731 110.362C655.731 149.004 614.701 172.774 569.656 172.774C524.611 172.774 488.086 141.449 488.086 102.813C488.086 64.1763 524.606 32.8516 569.656 32.8516C602.195 32.8516 626.157 40.8069 637.048 74.1529C640.825 85.7162 639.854 95.9357 654.946 105.054C656.815 106.183 655.737 109.04 655.737 110.367L655.731 110.362Z" fill="white"/>
</g>
<path d="M652.185 111.767L649.52 108.216C647.849 105.985 649.441 102.807 652.225 102.807H657.549C660.333 102.807 661.925 105.985 660.253 108.216L657.588 111.767C656.239 113.568 653.535 113.568 652.18 111.767H652.185Z" fill="#393A3A"/>
<path d="M597.384 89.2782C597.384 96.4206 601.625 102.208 606.858 102.208C612.092 102.208 616.333 96.4206 616.333 89.2782C616.333 87.4884 616.067 85.7889 615.587 84.2419L598.135 81.752C597.655 83.299 597.39 87.4884 597.39 89.2782H597.384Z" fill="#262727"/>
<path d="M602.878 90.3391C603.779 90.3391 604.51 89.2698 604.51 87.9508C604.51 86.6318 603.779 85.5625 602.878 85.5625C601.977 85.5625 601.246 86.6318 601.246 87.9508C601.246 89.2698 601.977 90.3391 602.878 90.3391Z" fill="white"/>
<path d="M605.871 99.232C608.778 99.7797 612.127 97.7019 612.115 95.8387C612.104 94.0658 609.044 92.7502 607.164 92.3494C605.255 91.9485 601.947 91.9372 601.241 93.5237C600.479 95.2402 602.822 98.6561 605.865 99.2263L605.871 99.232Z" fill="#595959"/>
<mask id="mask3_1762_12352" style="mask-type:luminance" maskUnits="userSpaceOnUse" x="501" y="247" width="51" height="18">
<path d="M539.421 264.042C529.828 264.042 514.499 262.348 502.388 253.066C501.027 252.022 500.767 250.074 501.812 248.713C502.857 247.352 504.804 247.093 506.165 248.137C522.725 260.824 547.371 257.38 547.613 257.34C549.307 257.092 550.888 258.261 551.137 259.96C551.385 261.654 550.216 263.235 548.522 263.489C548.133 263.545 544.615 264.048 539.415 264.048L539.421 264.042Z" fill="white"/>
</mask>
<g mask="url(#mask3_1762_12352)">
<path d="M601.353 289.066H537.558C519.552 289.066 505.273 271.801 506.38 251.367L509.807 188.108C510.823 169.374 524.475 154.773 540.985 154.773H597.926C614.429 154.773 628.087 169.374 629.104 188.108L632.531 251.367C633.638 271.801 619.359 289.066 601.353 289.066Z" fill="#E79F4B"/>
</g>
<mask id="mask4_1762_12352" style="mask-type:luminance" maskUnits="userSpaceOnUse" x="501" y="247" width="51" height="18">
<path d="M539.421 264.042C529.828 264.042 514.499 262.348 502.388 253.066C501.027 252.022 500.767 250.074 501.812 248.713C502.857 247.352 504.804 247.093 506.165 248.137C522.725 260.824 547.371 257.38 547.613 257.34C549.307 257.092 550.888 258.261 551.137 259.96C551.385 261.654 550.216 263.235 548.522 263.489C548.133 263.545 544.615 264.048 539.415 264.048L539.421 264.042Z" fill="white"/>
</mask>
<g mask="url(#mask4_1762_12352)">
<path d="M601.353 289.066H537.558C519.552 289.066 505.273 271.801 506.38 251.367L509.807 188.108C510.823 169.374 524.475 154.773 540.985 154.773H597.926C614.429 154.773 628.087 169.374 629.104 188.108L632.531 251.367C633.638 271.801 619.359 289.066 601.353 289.066Z" fill="#3F3F3F"/>
</g>
<mask id="mask5_1762_12352" style="mask-type:luminance" maskUnits="userSpaceOnUse" x="501" y="231" width="51" height="17">
<path d="M539.421 247.781C529.828 247.781 514.499 246.087 502.388 236.805C501.027 235.76 500.767 233.812 501.812 232.451C502.857 231.091 504.804 230.831 506.165 231.875C522.725 244.562 547.371 241.118 547.613 241.079C549.307 240.83 550.888 241.999 551.137 243.698C551.385 245.392 550.216 246.973 548.522 247.227C548.133 247.284 544.615 247.786 539.415 247.786L539.421 247.781Z" fill="white"/>
</mask>
<g mask="url(#mask5_1762_12352)">
<path d="M601.353 272.805H537.558C519.552 272.805 505.273 255.539 506.38 235.106L509.807 171.846C510.823 153.113 524.475 138.512 540.985 138.512H597.926C614.429 138.512 628.087 153.113 629.104 171.846L632.531 235.106C633.638 255.539 619.359 272.805 601.353 272.805Z" fill="#E79F4B"/>
</g>
<mask id="mask6_1762_12352" style="mask-type:luminance" maskUnits="userSpaceOnUse" x="501" y="231" width="51" height="17">
<path d="M539.421 247.781C529.828 247.781 514.499 246.087 502.388 236.805C501.027 235.76 500.767 233.812 501.812 232.451C502.857 231.091 504.804 230.831 506.165 231.875C522.725 244.562 547.371 241.118 547.613 241.079C549.307 240.83 550.888 241.999 551.137 243.698C551.385 245.392 550.216 246.973 548.522 247.227C548.133 247.284 544.615 247.786 539.415 247.786L539.421 247.781Z" fill="white"/>
</mask>
<g mask="url(#mask6_1762_12352)">
<path d="M601.353 272.805H537.558C519.552 272.805 505.273 255.539 506.38 235.106L509.807 171.846C510.823 153.113 524.475 138.512 540.985 138.512H597.926C614.429 138.512 628.087 153.113 629.104 171.846L632.531 235.106C633.638 255.539 619.359 272.805 601.353 272.805Z" fill="#3F3F3F"/>
</g>
<path d="M579.87 108.063C579.87 108.063 551.995 115.787 535.796 102.812" stroke="#3F3F3F" stroke-width="6.21073" stroke-linecap="round" stroke-linejoin="bevel"/>
<path d="M573.89 128.044C573.89 128.044 548.218 133.436 529.597 120.84" stroke="#3F3F3F" stroke-width="6.21073" stroke-linecap="round" stroke-linejoin="bevel"/>
<mask id="mask7_1762_12352" style="mask-type:luminance" maskUnits="userSpaceOnUse" x="582" y="175" width="83" height="87">
<path d="M632.452 175.539H614.887C597.085 175.539 582.653 189.971 582.653 207.773V229.403C582.653 247.205 597.085 261.637 614.887 261.637H632.452C650.254 261.637 664.686 247.205 664.686 229.403V207.773C664.686 189.971 650.254 175.539 632.452 175.539Z" fill="white"/>
</mask>
<g mask="url(#mask7_1762_12352)">
<path d="M601.348 285.734H537.553C519.547 285.734 505.268 268.469 506.375 248.035L509.802 184.776C510.818 166.042 524.47 151.441 540.98 151.441H597.921C614.424 151.441 628.083 166.042 629.099 184.776L632.526 248.035C633.633 268.469 619.354 285.734 601.348 285.734Z" fill="#E79F4B"/>
</g>
<mask id="mask8_1762_12352" style="mask-type:luminance" maskUnits="userSpaceOnUse" x="582" y="175" width="83" height="87">
<path d="M632.452 175.539H614.887C597.085 175.539 582.653 189.971 582.653 207.773V229.403C582.653 247.205 597.085 261.637 614.887 261.637H632.452C650.254 261.637 664.686 247.205 664.686 229.403V207.773C664.686 189.971 650.254 175.539 632.452 175.539Z" fill="white"/>
</mask>
<g mask="url(#mask8_1762_12352)">
<path d="M601.348 285.734H537.553C519.547 285.734 505.268 268.469 506.375 248.035L509.802 184.776C510.818 166.042 524.47 151.441 540.98 151.441H597.921C614.424 151.441 628.083 166.042 629.099 184.776L632.526 248.035C633.633 268.469 619.354 285.734 601.348 285.734Z" fill="#F5D9BB"/>
</g>
<path d="M585.945 200.801L621.419 227.558C629.188 233.419 639.154 232.137 643.569 224.713L644.377 223.352C648.792 215.927 646.054 205.058 638.284 199.203L602.81 172.446C595.041 166.586 585.075 167.867 580.66 175.292L579.853 176.653C575.437 184.078 578.176 194.946 585.945 200.801Z" fill="#E79F4B"/>
<mask id="mask9_1762_12352" style="mask-type:luminance" maskUnits="userSpaceOnUse" x="577" y="168" width="70" height="64">
<path d="M585.945 200.801L621.419 227.558C629.188 233.419 639.154 232.137 643.569 224.713L644.377 223.352C648.792 215.927 646.054 205.058 638.284 199.203L602.81 172.446C595.041 166.586 585.075 167.867 580.66 175.292L579.853 176.653C575.437 184.078 578.176 194.946 585.945 200.801Z" fill="white"/>
</mask>
<g mask="url(#mask9_1762_12352)">
<path d="M641.661 165.484C628.901 171.954 619.24 183.207 614.475 196.65C613.012 200.767 619.556 202.539 621.007 198.452C625.202 186.623 633.92 176.991 645.082 171.333C648.973 169.363 645.545 163.513 641.661 165.484Z" fill="#393A3A"/>
<path d="M631.091 158.251C618.331 164.722 608.67 175.975 603.905 189.418C602.443 193.534 608.986 195.307 610.438 191.219C614.633 179.391 623.35 169.758 634.513 164.101C638.403 162.13 634.976 156.281 631.091 158.251Z" fill="#393A3A"/>
<path d="M651.519 174.011C638.759 180.482 629.098 191.734 624.333 205.178C622.87 209.294 629.414 211.067 630.865 206.979C635.06 195.15 643.778 185.518 654.94 179.861C658.831 177.89 655.403 172.041 651.519 174.011Z" fill="#393A3A"/>
</g>
<mask id="mask10_1762_12352" style="mask-type:luminance" maskUnits="userSpaceOnUse" x="581" y="30" width="23" height="25">
<path d="M583.495 54.0057C583.19 54.0057 582.879 53.9436 582.58 53.8137C581.439 53.3112 580.926 51.9731 581.428 50.8326C586.12 40.2404 599.789 30.7945 600.371 30.3993C601.404 29.6935 602.804 29.9589 603.51 30.9864C604.216 32.014 603.95 33.4199 602.923 34.1257C602.793 34.216 589.728 43.2442 585.561 52.6619C585.188 53.5032 584.364 54.0057 583.495 54.0057Z" fill="white"/>
</mask>
<g mask="url(#mask10_1762_12352)">
<path d="M655.793 110.362C655.793 149.004 614.763 172.774 569.718 172.774C524.673 172.774 488.148 141.449 488.148 102.813C488.148 64.1763 524.668 32.8516 569.718 32.8516C602.257 32.8516 626.219 40.8069 637.11 74.1529C640.887 85.7162 639.916 95.9357 655.008 105.054C656.877 106.183 655.799 109.04 655.799 110.367L655.793 110.362Z" fill="#E79F4B"/>
</g>
<mask id="mask11_1762_12352" style="mask-type:luminance" maskUnits="userSpaceOnUse" x="581" y="30" width="23" height="25">
<path d="M583.495 54.0057C583.19 54.0057 582.879 53.9436 582.58 53.8137C581.439 53.3112 580.926 51.9731 581.428 50.8326C586.12 40.2404 599.789 30.7945 600.371 30.3993C601.404 29.6935 602.804 29.9589 603.51 30.9864C604.216 32.014 603.95 33.4199 602.923 34.1257C602.793 34.216 589.728 43.2442 585.561 52.6619C585.188 53.5032 584.364 54.0057 583.495 54.0057Z" fill="white"/>
</mask>
<g mask="url(#mask11_1762_12352)">
<path d="M655.793 110.362C655.793 149.004 614.763 172.774 569.718 172.774C524.673 172.774 488.148 141.449 488.148 102.813C488.148 64.1763 524.668 32.8516 569.718 32.8516C602.257 32.8516 626.219 40.8069 637.11 74.1529C640.887 85.7162 639.916 95.9357 655.008 105.054C656.877 106.183 655.799 109.04 655.799 110.367L655.793 110.362Z" fill="#3F3F3F"/>
</g>
<mask id="mask12_1762_12352" style="mask-type:luminance" maskUnits="userSpaceOnUse" x="597" y="35" width="21" height="23">
<path d="M599.643 57.0789C599.287 57.0789 598.92 56.9942 598.581 56.8135C597.48 56.2263 597.063 54.8599 597.65 53.7589C601.122 47.232 611.178 38.3394 614.176 35.7704C615.125 34.9574 616.547 35.0703 617.36 36.0132C618.173 36.9617 618.06 38.3845 617.118 39.1976C611.251 44.2226 604.103 51.2464 601.636 55.8762C601.229 56.6385 600.45 57.0732 599.643 57.0732V57.0789Z" fill="white"/>
</mask>
<g mask="url(#mask12_1762_12352)">
<path d="M655.782 110.248C655.782 148.89 614.752 172.66 569.707 172.66C524.662 172.66 488.138 141.336 488.138 102.699C488.138 64.063 524.657 32.7383 569.707 32.7383C602.246 32.7383 626.208 40.6937 637.099 74.0397C640.877 85.6029 639.905 95.8224 654.998 104.941C656.866 106.07 655.788 108.927 655.788 110.254L655.782 110.248Z" fill="#E79F4B"/>
</g>
<mask id="mask13_1762_12352" style="mask-type:luminance" maskUnits="userSpaceOnUse" x="597" y="35" width="21" height="23">
<path d="M599.643 57.0789C599.287 57.0789 598.92 56.9942 598.581 56.8135C597.48 56.2263 597.063 54.8599 597.65 53.7589C601.122 47.232 611.178 38.3394 614.176 35.7704C615.125 34.9574 616.547 35.0703 617.36 36.0132C618.173 36.9617 618.06 38.3845 617.118 39.1976C611.251 44.2226 604.103 51.2464 601.636 55.8762C601.229 56.6385 600.45 57.0732 599.643 57.0732V57.0789Z" fill="white"/>
</mask>
<g mask="url(#mask13_1762_12352)">
<path d="M655.782 110.248C655.782 148.89 614.752 172.66 569.707 172.66C524.662 172.66 488.138 141.336 488.138 102.699C488.138 64.063 524.657 32.7383 569.707 32.7383C602.246 32.7383 626.208 40.6937 637.099 74.0397C640.877 85.6029 639.905 95.8224 654.998 104.941C656.866 106.07 655.788 108.927 655.788 110.254L655.782 110.248Z" fill="#3F3F3F"/>
</g>
<path d="M742.617 303.399C736.22 303.354 730.936 300.853 727.616 298.826C724.516 297.403 719.858 294.732 716.244 290.074C714.122 287.342 713.393 285.247 713.077 284.135C712.733 282.921 712.066 280.493 712.755 277.54C712.964 276.653 713.275 275.778 713.692 274.931C716.645 268.992 723.917 266.547 729.852 269.5L750.245 279.635C756.185 282.587 758.63 289.86 755.677 295.794C754.932 297.234 753.001 300.457 749.173 302.23C748.382 302.597 746.366 303.427 742.612 303.399H742.617Z" fill="#353535"/>
<path d="M750.161 11.3658C739.653 15.1599 723.313 70.5484 738.563 84.2177C756.106 99.9421 806.125 79.3789 808.254 54.9256C810.066 34.1535 760.662 7.56591 750.161 11.3658Z" fill="#353535"/>
<path d="M870.739 116.694C877.289 120.782 859.475 149.413 857.025 153.078C838.568 180.67 797.041 179.97 786.081 179.936C760.634 179.852 716.329 168.994 708.159 136.055C703.586 117.597 712.411 100.512 716.533 92.5399C729.541 67.3639 756.479 48.6696 786.076 49.2229C844.129 50.3126 842.464 99.0612 870.734 116.7L870.739 116.694Z" fill="#F7F7F7"/>
<path d="M758.522 196.654L724.849 225.641C717.475 231.988 707.448 231.355 702.558 224.23L701.66 222.926C696.776 215.8 698.809 204.779 706.183 198.433L739.856 169.445C747.23 163.099 757.258 163.732 762.147 170.857L763.045 172.161C767.929 179.287 765.896 190.308 758.522 196.654Z" fill="#353535"/>
<path d="M835.366 285.823H736.683C723.499 285.823 715.758 268.298 719.157 248.762L730.783 181.855C732.906 169.654 742.097 160.344 751.357 160.344H820.692C829.951 160.344 839.149 169.654 841.266 181.855L852.891 248.762C856.285 268.298 848.544 285.823 835.366 285.823Z" fill="#F7F7F7"/>
<path d="M852.248 294.196C847.229 298.16 841.543 299.526 837.687 300.018C834.378 300.848 829.077 301.683 823.34 300.311C819.975 299.504 818.095 298.329 817.152 297.663C816.124 296.929 814.081 295.456 812.776 292.723C812.381 291.904 812.076 291.029 811.879 290.103C810.461 283.627 814.606 277.168 821.082 275.751L843.327 270.889C849.803 269.472 856.263 273.616 857.68 280.092C858.002 281.685 858.515 285.405 856.635 289.183C856.246 289.962 855.196 291.87 852.248 294.202V294.196Z" fill="#F6D684"/>
<path d="M738.513 23.104C728.005 26.8982 711.665 82.2867 726.915 95.9559C744.458 111.68 794.477 91.1172 796.606 66.6639C798.418 45.8918 749.014 19.3042 738.513 23.104Z" fill="#F6D684"/>
<path d="M744.17 36.1516C738.581 38.1729 729.886 67.64 737.999 74.9122C747.332 83.2798 773.942 72.3376 775.077 59.3289C776.043 48.2738 749.76 34.1303 744.17 36.1516Z" fill="#EAB4CA"/>
<path d="M805.216 102.082C806.334 109.224 813.51 114.441 821.036 114.441C828.246 114.441 834.26 109.637 834.79 103.11" fill="#83BB62"/>
<path d="M834.796 103.115C835.389 95.8199 829.054 88.7058 820.167 88.017C810.789 87.2886 803.957 94.0188 805.222 102.087" fill="#4F9045"/>
<path d="M819.924 111.845C824.826 111.845 828.8 107.451 828.8 102.032C828.8 96.6122 824.826 92.2188 819.924 92.2188C815.022 92.2188 811.048 96.6122 811.048 102.032C811.048 107.451 815.022 111.845 819.924 111.845Z" fill="#030000"/>
<path d="M826.219 101.76C827.775 101.76 829.037 100.498 829.037 98.9424C829.037 97.3864 827.775 96.125 826.219 96.125C824.663 96.125 823.402 97.3864 823.402 98.9424C823.402 100.498 824.663 101.76 826.219 101.76Z" fill="white"/>
<path d="M833.91 232.191L797.136 207.252C789.085 201.792 787.081 191.945 792.682 185.368L793.709 184.159C799.31 177.582 810.478 176.667 818.535 182.132L855.308 207.071C863.36 212.531 865.364 222.378 859.763 228.956L858.736 230.164C853.135 236.742 841.967 237.656 833.91 232.191Z" fill="#F6D684"/>
<mask id="mask14_1762_12352" style="mask-type:luminance" maskUnits="userSpaceOnUse" x="816" y="246" width="48" height="49">
<path d="M854.931 283.88C865.145 272.663 866.903 257.632 858.859 250.307C850.815 242.982 836.014 246.137 825.8 257.354C815.586 268.571 813.827 283.602 821.872 290.927C829.916 298.252 844.717 295.097 854.931 283.88Z" fill="white"/>
</mask>
<g mask="url(#mask14_1762_12352)">
<path d="M835.349 285.823H736.666C723.483 285.823 715.742 268.298 719.141 248.762L730.766 181.855C732.889 169.654 742.081 160.344 751.34 160.344H820.675C829.935 160.344 839.132 169.654 841.249 181.855L852.875 248.762C856.268 268.298 848.527 285.823 835.349 285.823Z" fill="#F7F7F7"/>
</g>
<mask id="mask15_1762_12352" style="mask-type:luminance" maskUnits="userSpaceOnUse" x="816" y="246" width="48" height="49">
<path d="M854.931 283.88C865.145 272.663 866.903 257.632 858.859 250.307C850.815 242.982 836.014 246.137 825.8 257.354C815.586 268.571 813.827 283.602 821.872 290.927C829.916 298.252 844.717 295.097 854.931 283.88Z" fill="white"/>
</mask>
<g mask="url(#mask15_1762_12352)">
<path d="M835.349 285.823H736.666C723.483 285.823 715.742 268.298 719.141 248.762L730.766 181.855C732.889 169.654 742.081 160.344 751.34 160.344H820.675C829.935 160.344 839.132 169.654 841.249 181.855L852.875 248.762C856.268 268.298 848.527 285.823 835.349 285.823Z" fill="#F6D684"/>
<path d="M820.675 160.908C825.034 160.908 829.494 163.043 833.238 166.916C837.049 170.862 839.697 176.204 840.696 181.951L852.322 248.858C854.445 261.088 852.209 272.916 846.483 279.72C843.44 283.339 839.59 285.253 835.349 285.253H736.666C732.432 285.253 728.581 283.339 725.532 279.72C719.807 272.91 717.566 261.088 719.694 248.858L731.32 181.951C732.319 176.204 734.967 170.862 738.778 166.916C742.521 163.043 746.982 160.908 751.341 160.908H820.675ZM820.675 160.344H751.341C742.081 160.344 732.884 169.654 730.766 181.855L719.141 248.762C715.747 268.298 723.488 285.823 736.666 285.823H835.349C848.533 285.823 856.274 268.298 852.875 248.762L841.25 181.855C839.132 169.654 829.935 160.344 820.675 160.344Z" fill="#F6D684"/>
</g>
<mask id="mask16_1762_12352" style="mask-type:luminance" maskUnits="userSpaceOnUse" x="711" y="238" width="64" height="64">
<path d="M742.961 301.046C760.262 301.046 774.286 287.021 774.286 269.721C774.286 252.421 760.262 238.396 742.961 238.396C725.661 238.396 711.637 252.421 711.637 269.721C711.637 287.021 725.661 301.046 742.961 301.046Z" fill="white"/>
</mask>
<g mask="url(#mask16_1762_12352)">
<path d="M835.247 285.823H736.564C723.38 285.823 715.64 268.298 719.039 248.762L730.664 181.855C732.787 169.654 741.979 160.344 751.238 160.344H820.573C829.832 160.344 839.03 169.654 841.147 181.855L852.773 248.762C856.166 268.298 848.425 285.823 835.247 285.823Z" fill="#F7F7F7"/>
</g>
<mask id="mask17_1762_12352" style="mask-type:luminance" maskUnits="userSpaceOnUse" x="711" y="238" width="64" height="64">
<path d="M742.961 301.046C760.262 301.046 774.286 287.021 774.286 269.721C774.286 252.421 760.262 238.396 742.961 238.396C725.661 238.396 711.637 252.421 711.637 269.721C711.637 287.021 725.661 301.046 742.961 301.046Z" fill="white"/>
</mask>
<g mask="url(#mask17_1762_12352)">
<path d="M835.247 285.823H736.564C723.38 285.823 715.64 268.298 719.039 248.762L730.664 181.855C732.787 169.654 741.979 160.344 751.238 160.344H820.573C829.832 160.344 839.03 169.654 841.147 181.855L852.773 248.762C856.166 268.298 848.425 285.823 835.247 285.823Z" fill="#353535"/>
<path d="M820.573 160.908C824.932 160.908 829.392 163.043 833.136 166.916C836.947 170.862 839.595 176.204 840.594 181.951L852.219 248.858C854.342 261.088 852.107 272.916 846.381 279.72C843.338 283.339 839.488 285.253 835.247 285.253H736.564C732.33 285.253 728.479 283.339 725.43 279.72C719.705 272.91 717.463 261.088 719.592 248.858L731.217 181.951C732.217 176.204 734.865 170.862 738.676 166.916C742.419 163.043 746.88 160.908 751.239 160.908H820.573ZM820.573 160.344H751.239C741.979 160.344 732.781 169.654 730.664 181.855L719.039 248.762C715.645 268.298 723.386 285.823 736.564 285.823H835.247C848.431 285.823 856.172 268.298 852.773 248.762L841.147 181.855C839.03 169.654 829.833 160.344 820.573 160.344Z" fill="#353535"/>
</g>
<mask id="mask18_1762_12352" style="mask-type:luminance" maskUnits="userSpaceOnUse" x="851" y="110" width="26" height="26">
<path d="M864.06 135.316C871.197 135.316 876.984 129.835 876.984 123.075C876.984 116.314 871.197 110.834 864.06 110.834C856.922 110.834 851.136 116.314 851.136 123.075C851.136 129.835 856.922 135.316 864.06 135.316Z" fill="white"/>
</mask>
<g mask="url(#mask18_1762_12352)">
<path d="M870.728 116.694C877.277 120.782 859.464 149.413 857.013 153.078C838.556 180.67 797.029 179.97 786.07 179.936C760.623 179.852 716.317 168.994 708.148 136.055C703.574 117.597 712.399 100.512 716.521 92.5399C729.529 67.3639 756.467 48.6696 786.064 49.2229C844.117 50.3126 842.452 99.0612 870.722 116.7L870.728 116.694Z" fill="#F7F7F7"/>
</g>
<mask id="mask19_1762_12352" style="mask-type:luminance" maskUnits="userSpaceOnUse" x="851" y="110" width="26" height="26">
<path d="M864.06 135.316C871.197 135.316 876.984 129.835 876.984 123.075C876.984 116.314 871.197 110.834 864.06 110.834C856.922 110.834 851.136 116.314 851.136 123.075C851.136 129.835 856.922 135.316 864.06 135.316Z" fill="white"/>
</mask>
<g mask="url(#mask19_1762_12352)">
<path d="M870.728 116.694C877.277 120.782 859.464 149.413 857.013 153.078C838.556 180.67 797.029 179.97 786.07 179.936C760.623 179.852 716.317 168.994 708.148 136.055C703.574 117.597 712.399 100.512 716.521 92.5399C729.529 67.3639 756.467 48.6696 786.064 49.2229C844.117 50.3126 842.452 99.0612 870.722 116.7L870.728 116.694Z" fill="#F6D684"/>
<path d="M784.788 49.201V49.7656C785.211 49.7656 785.635 49.7656 786.058 49.7769C802.669 50.0874 815.813 54.3897 826.236 62.921C835.467 70.4756 841.548 80.3676 847.426 89.9377C854.032 100.682 860.271 110.834 870.428 117.175C870.965 117.508 871.309 118.061 871.478 118.857C872.145 121.968 870.067 128.36 865.471 137.343C861.694 144.722 857.47 151.384 856.545 152.762C849.222 163.71 837.376 171.406 821.33 175.64C807.158 179.378 793.167 179.378 788.571 179.378C787.893 179.378 787.272 179.378 786.713 179.378H786.07C771.028 179.327 754.129 175.748 740.855 169.808C728.66 164.348 713.184 154.033 708.695 135.925C704.173 117.677 712.851 100.874 717.023 92.806C723.431 80.4014 733.058 69.7641 744.859 62.0515C757.139 54.0227 770.944 49.7825 784.782 49.7825V49.2179M784.788 49.201C755.699 49.201 729.349 67.7202 716.526 92.5293C712.405 100.507 703.574 117.592 708.153 136.044C716.317 168.989 760.623 179.847 786.07 179.926C786.781 179.926 787.617 179.931 788.571 179.931C802.313 179.931 839.753 178.864 857.013 153.067C859.463 149.408 877.277 120.771 870.728 116.683C842.457 99.0449 844.123 50.2907 786.07 49.2066C785.64 49.201 785.211 49.1953 784.788 49.1953V49.201Z" fill="#F6D684"/>
</g>
<path d="M877.724 117.828C878.113 120.346 875.301 124.321 872.365 124.428C869.249 124.541 866.239 120.279 866.629 117.715C867.007 115.265 870.48 114.44 872.591 114.582C874.02 114.678 877.345 115.389 877.724 117.828Z" fill="#EAB4CA"/>
<path d="M79.4414 211.438L55.9592 232.277C50.8156 236.84 42.8094 235.208 38.1683 228.647L37.3157 227.444C32.6689 220.884 33.0755 211.788 38.2191 207.22L61.7013 186.38C66.8449 181.818 74.8511 183.45 79.4922 190.011L80.3448 191.213C84.9916 197.774 84.585 206.87 79.4414 211.438Z" fill="#F7F7F7"/>
<path d="M124.398 271.902L155.105 266.061C163.042 264.551 170.713 269.77 172.223 277.707L172.582 279.593C174.092 287.53 168.872 295.202 160.935 296.712L139.381 300.812C131.444 302.321 123.772 297.102 122.262 289.165L120.163 278.127C119.614 275.243 121.509 272.451 124.398 271.902Z" fill="#F7F7F7"/>
<path d="M156.703 276.142H57.1221C43.8198 276.142 36.0113 261.321 39.4328 244.801L51.1655 188.215C53.3053 177.894 62.5819 170.023 71.9319 170.023H141.899C151.243 170.023 160.525 177.894 162.665 188.215L174.398 244.801C177.825 261.321 170.011 276.142 156.708 276.142H156.703Z" fill="#EEC2D6"/>
<path d="M81.7122 271.762L60.9678 266.219C54.5329 264.499 47.9226 268.322 46.2031 274.757L44.9264 279.535C43.207 285.97 47.0296 292.58 53.4645 294.3L74.2089 299.843C80.6438 301.562 87.2541 297.74 88.9735 291.305L90.2503 286.526C91.9697 280.091 88.1471 273.481 81.7122 271.762Z" fill="#F7F7F7"/>
<path d="M133.921 225.192L157.403 246.031C162.547 250.593 170.553 248.962 175.194 242.401L176.046 241.198C180.693 234.638 180.287 225.542 175.143 220.974L151.661 200.134C146.517 195.572 138.511 197.204 133.87 203.765L133.017 204.967C128.371 211.528 128.777 220.624 133.921 225.192Z" fill="#F7F7F7"/>
<path d="M181.461 120.688C181.749 136.779 173.529 148.884 171.14 152.3C153.135 178.075 120.246 177.968 109.558 177.934C84.732 177.855 41.511 167.714 33.5443 136.943C29.0838 119.705 37.6942 103.744 41.7142 96.2964C54.4067 72.7802 80.7007 54.8425 109.558 55.8362C145.925 57.084 180.874 88.2055 181.461 120.688Z" fill="#F7F7F7"/>
<path d="M40.0429 23.7094C68.2679 20.9202 98.9207 39.9251 100.558 66.315C100.965 72.8815 99.5248 79.1148 96.73 84.7891C105.696 76.2861 111.399 65.1632 110.636 52.8773C108.999 26.4873 78.3462 7.48243 50.1212 10.2716C30.3711 12.2252 13.0149 24.7257 4.89014 40.2977C13.986 31.3938 26.447 25.0475 40.0429 23.7094Z" fill="#F7F7F7"/>
<path d="M1.51379 69.3921C8.59403 92.513 39.004 105.234 64.9423 100.677C76.6693 98.6164 88.1818 92.8969 96.73 84.7947C99.5248 79.1147 100.965 72.8814 100.558 66.3206C98.9263 39.9306 68.2735 20.9258 40.0429 23.715C26.4471 25.0588 13.9861 31.405 4.89018 40.3033C0.119202 49.4444 -1.473 59.6413 1.51379 69.3921Z" fill="#F5DEE8"/>
<path d="M194.176 129.376C193.871 135.672 186.283 140.386 180.067 140.324C173.788 140.257 166.07 135.288 165.957 128.733C165.844 122.217 173.297 116.605 179.716 116.503C186.695 116.396 194.498 122.765 194.176 129.376Z" fill="#F5DEE8"/>
<path d="M194.933 124.792C194.871 126.334 193.2 127.463 191.856 127.463C190.512 127.463 188.841 126.328 188.779 124.792C188.711 123.206 190.371 121.676 191.856 121.676C193.341 121.676 195.001 123.206 194.933 124.792Z" fill="#DD7FA3"/>
<path d="M153.707 112.482C154.491 104.225 150.326 97.0744 144.403 96.5114C138.48 95.9484 133.043 102.186 132.258 110.443C131.473 118.701 135.638 125.851 141.561 126.414C147.484 126.977 152.922 120.739 153.707 112.482Z" fill="#262727"/>
<path d="M141.966 122.839C145.061 123.065 148.307 120.507 148.07 118.565C147.85 116.719 144.507 115.708 142.503 115.516C140.47 115.324 137.02 115.702 136.473 117.441C135.88 119.316 138.726 122.602 141.966 122.839Z" fill="#EEC2D6"/>
<path d="M138.952 107.432C138.652 109.267 139.098 112.061 141.278 113.247C143.175 114.28 145.174 113.439 145.343 113.366C147.573 112.383 148.381 109.876 148.364 108.104C148.341 105.653 146.743 102.486 144.095 102.277C141.413 102.062 139.347 105.004 138.952 107.432Z" fill="white"/>
</svg>
